#N canvas 769 321 961 654 12;
#X obj 233 285 seamless~;
#X obj 241 561 metro 1;
#X obj 233 586 snapshot~;
#X msg 14 63 \; pd dsp \$1;
#X obj 14 39 1;
#X obj 14 16 loadbang;
#X obj 251 123 hsl 300 20 0 1 0 0 empty empty seamsize -2 -10 0 12 #fcfcfc #000000 #000000 0 1;
#X obj 266 164 hsl 300 20 0 44100 0 0 empty empty loopstart -2 -10 0 12 #fcfcfc #000000 #000000 0 1;
#X obj 281 206 hsl 300 20 0 44100 0 1 empty empty loopend -2 -10 0 12 #fcfcfc #000000 #000000 29900 1;
#X obj 293 253 tgl 20 0 empty empty loop\ enabled 0 -10 0 12 #fcfcfc #000000 #000000 0 1;
#X obj 232 86 sig~;
#X obj 241 536 tgl 20 0 empty empty empty 0 -10 0 12 #fcfcfc #000000 #000000 0 1;
#X obj 260 395 metro 1;
#X obj 252 420 snapshot~;
#X obj 260 370 tgl 20 0 empty empty empty 0 -10 0 12 #fcfcfc #000000 #000000 0 1;
#X obj 584 391 metro 1;
#X obj 576 416 snapshot~;
#X obj 584 368 tgl 20 0 empty empty empty 0 -10 0 12 #fcfcfc #000000 #000000 0 1;
#X obj 402 451 metro 1;
#X obj 394 476 snapshot~;
#X obj 402 426 tgl 20 0 empty empty empty 0 -10 0 12 #fcfcfc #000000 #000000 0 1;
#X obj 235 62 hsl 300 20 0 44100 0 0 empty empty input -2 -10 0 12 #fcfcfc #000000 #000000 0 1;
#X obj 476 82 nbx 5 18 -1e+37 1e+37 0 0 empty empty empty 0 -10 0 12 #fcfcfc #000000 #000000 0 256;
#X obj 522 226 nbx 5 18 -1e+37 1e+37 0 0 empty empty empty 0 -10 0 12 #fcfcfc #000000 #000000 0 256;
#X obj 509 184 nbx 5 18 -1e+37 1e+37 0 0 empty empty empty 0 -10 0 12 #fcfcfc #000000 #000000 0 256;
#X obj 493 143 nbx 5 18 -1e+37 1e+37 0 0 empty empty empty 0 -10 0 12 #fcfcfc #000000 #000000 0 256;
#X obj 252 448 nbx 10 20 -1e+37 1e+37 0 0 empty empty empty 0 -10 0 12 #fcfcfc #000000 #000000 0 256;
#X obj 233 613 nbx 10 20 -1e+37 1e+37 0 0 empty empty empty 0 -10 0 12 #fcfcfc #000000 #000000 0 256;
#X obj 394 503 nbx 10 20 -1e+37 1e+37 0 0 empty empty empty 0 -10 0 12 #fcfcfc #000000 #000000 0 256;
#X obj 576 443 nbx 10 20 -1e+37 1e+37 0 0 empty empty empty 0 -10 0 12 #fcfcfc #000000 #000000 0 256;
#X obj 241 511 loadbang;
#X obj 260 346 loadbang;
#X obj 402 402 loadbang;
#X obj 584 345 loadbang;
#X connect 0 0 2 0;
#X connect 0 1 13 0;
#X connect 0 2 19 0;
#X connect 0 3 16 0;
#X connect 1 0 2 0;
#X connect 2 0 27 0;
#X connect 4 0 3 0;
#X connect 5 0 4 0;
#X connect 6 0 0 1;
#X connect 6 0 25 0;
#X connect 7 0 0 2;
#X connect 7 0 24 0;
#X connect 8 0 0 3;
#X connect 8 0 23 0;
#X connect 9 0 0 4;
#X connect 10 0 0 0;
#X connect 11 0 1 0;
#X connect 12 0 13 0;
#X connect 13 0 26 0;
#X connect 14 0 12 0;
#X connect 15 0 16 0;
#X connect 16 0 29 0;
#X connect 17 0 15 0;
#X connect 18 0 19 0;
#X connect 19 0 28 0;
#X connect 20 0 18 0;
#X connect 21 0 10 0;
#X connect 21 0 22 0;
#X connect 30 0 11 0;
#X connect 31 0 14 0;
#X connect 32 0 20 0;
#X connect 33 0 17 0;
