#N canvas 658 301 847 581 10;
#X obj 219 334 johsloop~;
#X obj 568 140 table sound;
#X obj 378 161 soundfiler;
#X obj 208 450 dac~;
#X obj 219 366 tabread4~ sound;
#X obj 244 231 bng 15 250 50 0 empty empty empty 17 7 0 10 -262144
-1 -1;
#X obj 218 197 siglfo;
#X obj 591 300 bng 15 250 50 0 empty empty empty 17 7 0 10 -262144
-1 -1;
#X obj 532 353 snapshot~;
#X floatatom 532 379 5 0 0 0 - - -;
#X obj 591 323 metro 10;
#X msg 178 258 1;
#X msg 257 287 2000;
#X msg 317 215 0;
#X msg 99 337 enable;
#X msg 51 270 disable;
#X obj 499 277 +~ 1;
#X obj 333 185 bng 15 250 50 0 empty empty empty 17 7 0 10 -262144
-1 -1;
#X msg 178 282 2;
#X msg 410 104 read -resize ../../fluidc4.wav sound;
#X obj 500 249 osc~ 1;
#X obj 500 302 *~ 0.25;
#X msg 236 154 1;
#X msg 293 308 11050;
#X msg 382 64 read -resize ../../saw400.wav sound;
#X obj 197 86 hsl 128 15 0 1 0 0 empty empty empty -2 -8 0 10 -262144
-1 -1 4500 1;
#X floatatom 224 118 5 0 0 0 - - -;
#X obj 54 83 hsl 128 15 0 1 0 0 empty empty empty -2 -8 0 10 -262144
-1 -1 3500 1;
#X floatatom 73 125 5 0 0 0 - - -;
#X text 50 61 rate;
#X text 203 64 depth;
#X connect 0 0 4 0;
#X connect 2 0 17 0;
#X connect 2 0 0 3;
#X connect 4 0 3 0;
#X connect 4 0 3 1;
#X connect 5 0 0 1;
#X connect 6 0 0 0;
#X connect 6 0 8 0;
#X connect 7 0 10 0;
#X connect 8 0 9 0;
#X connect 10 0 8 0;
#X connect 11 0 0 0;
#X connect 12 0 0 2;
#X connect 13 0 0 2;
#X connect 14 0 0 0;
#X connect 15 0 0 0;
#X connect 16 0 21 0;
#X connect 17 0 13 0;
#X connect 18 0 0 0;
#X connect 19 0 2 0;
#X connect 20 0 16 0;
#X connect 22 0 6 2;
#X connect 23 0 0 3;
#X connect 24 0 2 0;
#X connect 25 0 6 1;
#X connect 25 0 26 0;
#X connect 27 0 28 0;
#X connect 27 0 6 0;
