#N canvas 214 223 311 324 10;
#X obj 22 42 inlet~;
#X obj 22 225 outlet~;
#X text 71 41 ~signal_in~;
#X text 138 220 no arg.;
#X obj 66 76 inlet~;
#X obj 108 145 inlet~;
#X text 154 145 <signal> Q [-];
#X text 130 20 for frequency and Q;
#X text 12 8 vcf_hp2~;
#X text 85 8 highpass 2.order with signal-inlets;
#X obj 22 174 vcf_filter~ hp2;
#X obj 65 114 iem_cot~;
#X text 166 282 IEM KUG;
#X text 150 270 musil;
#X text 180 270 @;
#X text 186 270 iem.at;
#X text 101 259 (c) Thomas Musil 2000 - 2005;
#X text 149 292 Graz \, Austria;
#X text 112 77 <signal> cutoff_frequency [Hz];
#X connect 0 0 10 0;
#X connect 4 0 11 0;
#X connect 5 0 10 2;
#X connect 10 0 1 0;
#X connect 11 0 10 1;
