#N canvas 645 489 685 408 10;
#X msg 178 105 5;
#X obj 197 158 multitimbral 5;
#X obj 154 225 print noteon;
#X obj 288 221 print noteoff;
#X msg 245 103 7;
#X msg 106 106 3;
#X msg 65 108 2;
#X msg 138 105 4;
#X msg 210 105 6;
#X msg 405 68 5;
#X msg 472 66 7;
#X msg 333 69 3;
#X msg 292 71 2;
#X msg 365 68 4;
#X msg 437 68 6;
#X connect 0 0 1 0;
#X connect 1 0 2 0;
#X connect 1 1 3 0;
#X connect 4 0 1 0;
#X connect 5 0 1 0;
#X connect 6 0 1 0;
#X connect 7 0 1 0;
#X connect 8 0 1 0;
#X connect 9 0 1 1;
#X connect 10 0 1 1;
#X connect 11 0 1 1;
#X connect 12 0 1 1;
#X connect 13 0 1 1;
#X connect 14 0 1 1;
