#N canvas 1875 278 876 720 10;
#X obj 259 415 r \$0-attack;
#X obj 457 186 timer;
#X obj 541 119 r \$0-attack;
#X obj 556 159 r \$0-decay;
#X obj 526 176 +;
#X obj 526 147 f;
#X obj 457 130 t b b;
#X obj 457 278 >= 0;
#X obj 457 234 t f f;
#X obj 417 423 f;
#X obj 432 396 r \$0-release;
#X msg 417 456 0 \$1;
#X obj 520 376 f;
#X obj 520 420 pack f f f;
#X obj 577 392 r \$0-release;
#X obj 365 514 vline~;
#X obj 457 308 sel 0 1;
#X msg 520 449 \$1 \$2 \, 0 \$3 \$2;
#X obj 457 211 expr $f2-$f1;
#X obj 583 234 r \$0-decay;
#X obj 548 251 min;
#X obj 577 255 r \$0-release;
#X obj 548 272 min;
#X text 158 205 [attack \, decay \, sustain];
#X text 470 26 [release];
#X obj 151 231 r \$0-velocity;
#X obj 178 439 pack f f f f f;
#X msg 178 464 \$1 \$2 \, \$3 \$4 \$5;
#X obj 218 370 *;
#X obj 178 350 t f f;
#X obj 628 308 r \$0-sustain;
#X obj 613 287 r \$0-velocity;
#X obj 613 359 *;
#X obj 365 551 outlet~;
#X obj 457 47 r \$0-velocity;
#X obj 457 92 sel 1 0;
#X obj 6 8 inlet velocity;
#X obj 91 28 inlet A;
#X obj 148 29 inlet D;
#X obj 203 29 inlet S;
#X obj 259 29 inlet R;
#X obj 198 319 r \$0-attack;
#X obj 233 344 r \$0-sustain;
#X obj 238 394 r \$0-decay;
#X obj 104 114 s \$0-attack;
#X obj 190 114 s \$0-decay;
#X obj 264 113 s \$0-sustain;
#X obj 358 113 s \$0-release;
#X obj 5 113 s \$0-velocity;
#X text 628 69 attack \, decay \, release = ms;
#X text 626 18 UNITS:;
#X text 625 32 velocity: noteoff = 0;
#X text 630 84 sustain = 0->1;
#X obj 457 71 > 0;
#X obj 151 261 sel 0;
#X obj 178 291 trigger float bang;
#X msg 365 354 0;
#X text 684 47 full volume = 1;
#X obj 519 674 outlet;
#X obj 519 644 bng 15 250 50 0 empty empty empty 17 7 0 10 -262144
-1 -1;
#X obj 519 604 delay;
#X obj 519 561 t b f;
#X obj 636 505 expr $f1+$f2;
#X text 540 641 bang when playback is finished;
#X obj 355 594 r \$0-velocity;
#X msg 474 586 stop;
#X obj 636 437 unpack f f f;
#X obj 310 3 loadbang;
#X obj 373 26 float \$1;
#X obj 373 46 float \$2;
#X obj 374 67 float \$3;
#X obj 374 88 float \$4;
#X connect 0 0 26 4;
#X connect 1 0 18 0;
#X connect 2 0 5 1;
#X connect 3 0 4 1;
#X connect 4 0 18 1;
#X connect 5 0 4 0;
#X connect 6 0 1 0;
#X connect 6 1 5 0;
#X connect 7 0 16 0;
#X connect 8 0 7 0;
#X connect 8 1 20 0;
#X connect 9 0 11 0;
#X connect 9 0 61 0;
#X connect 10 0 9 1;
#X connect 11 0 15 0;
#X connect 12 0 13 0;
#X connect 13 0 17 0;
#X connect 13 0 66 0;
#X connect 14 0 13 2;
#X connect 15 0 33 0;
#X connect 16 0 9 0;
#X connect 16 1 12 0;
#X connect 17 0 15 0;
#X connect 18 0 8 0;
#X connect 19 0 20 1;
#X connect 20 0 22 0;
#X connect 21 0 22 1;
#X connect 22 0 13 1;
#X connect 25 0 54 0;
#X connect 26 0 27 0;
#X connect 27 0 15 0;
#X connect 28 0 26 2;
#X connect 29 0 26 0;
#X connect 29 1 28 0;
#X connect 30 0 32 1;
#X connect 31 0 32 0;
#X connect 32 0 12 1;
#X connect 34 0 53 0;
#X connect 35 0 6 0;
#X connect 35 1 1 1;
#X connect 36 0 48 0;
#X connect 37 0 44 0;
#X connect 38 0 45 0;
#X connect 39 0 46 0;
#X connect 40 0 47 0;
#X connect 41 0 26 1;
#X connect 42 0 28 1;
#X connect 43 0 26 3;
#X connect 53 0 35 0;
#X connect 54 1 55 0;
#X connect 55 0 29 0;
#X connect 55 1 56 0;
#X connect 56 0 15 0;
#X connect 59 0 58 0;
#X connect 60 0 59 0;
#X connect 61 0 60 0;
#X connect 61 1 60 1;
#X connect 62 0 61 0;
#X connect 64 0 65 0;
#X connect 65 0 60 0;
#X connect 66 1 62 0;
#X connect 66 2 62 1;
#X connect 67 0 71 0;
#X connect 67 0 70 0;
#X connect 67 0 69 0;
#X connect 67 0 68 0;
#X connect 68 0 44 0;
#X connect 69 0 45 0;
#X connect 70 0 46 0;
#X connect 71 0 47 0;
