#N canvas 1871 486 359 288 12;
#X obj 15 44 t l b;
#X obj 15 200 line;
#X obj 15 16 r \$1-auto-\$4;
#X obj 47 72 float \$3;
#X obj 15 229 s \$1-\$4;
#X obj 47 99 tabread \$1-\$2;
#X obj 50 133 r \$1-auto-\$4-stop;
#X msg 50 157 stop;
#X connect 0 0 1 0;
#X connect 0 1 3 0;
#X connect 1 0 4 0;
#X connect 2 0 0 0;
#X connect 3 0 5 0;
#X connect 5 0 1 0;
#X connect 6 0 7 0;
#X connect 7 0 1 0;
