#N canvas 1754 230 324 216 12;
#X obj 19 20 inlet;
#X obj 19 46 t l b;
#X obj 19 132 line;
#X obj 51 74 float \$2;
#X obj 19 165 outlet;
#X obj 51 101 tabread \$1;
#X connect 0 0 1 0;
#X connect 1 0 2 0;
#X connect 1 1 3 0;
#X connect 2 0 4 0;
#X connect 3 0 5 0;
#X connect 5 0 2 0;
