#N canvas 2348 369 749 643 12;
#X obj 62 27 inlet~;
#X obj 62 598 outlet~;
#X obj 62 81 *~ 1;
#X obj 113 129 inlet~ noise;
#X obj 62 207 crossfadeequal~;
#N canvas 1198 468 583 426 crusher 1;
#X obj 27 364 outlet~;
#X obj 28 49 inlet~;
#X text 300 347 Part of ELSE \; https://github.com/porres/pd-else;
#X text 300 330 Alexandre Torres Porres (2018);
#X obj 376 24 inlet;
#X msg 41 285 interp \$1;
#X obj 470 35 samplerate~;
#X obj 470 13 loadbang;
#X obj 129 153 inlet;
#X obj 129 177 clip 0 0.98;
#X obj 129 200 expr (1-pow($f1 \, 0.1))*$f2;
#X obj 470 61 s \$0-sr;
#X obj 308 174 r \$0-sr;
#X obj 136 288 r \$0-sr;
#X obj 123 48 inlet;
#X obj 123 78 clip 0 1;
#X obj 376 52 s \$0-interp;
#X obj 41 259 r \$0-interp;
#X obj 129 263 line;
#X msg 129 228 \$1 50;
#X obj 28 108 quantizer~ 0 0;
#X obj 27 315 downsample~ 0 0;
#X text 300 312 quantizer~ and downsample~ from;
#X connect 1 0 20 0;
#X connect 4 0 16 0;
#X connect 5 0 21 0;
#X connect 6 0 11 0;
#X connect 7 0 6 0;
#X connect 8 0 9 0;
#X connect 9 0 10 0;
#X connect 10 0 19 0;
#X connect 12 0 10 1;
#X connect 13 0 21 1;
#X connect 14 0 15 0;
#X connect 15 0 20 1;
#X connect 17 0 5 0;
#X connect 18 0 21 1;
#X connect 19 0 18 0;
#X connect 20 0 21 0;
#X connect 21 0 0 0;
#X restore 62 319 pd crusher;
#X obj 61 417 *~ 1;
#X obj 86 393 expr 1 - $f1*0.3;
#N canvas 578 364 350 344 outputfilter 0;
#X obj 40 28 inlet~;
#X obj 41 232 outlet~;
#X obj 41 197 faustreson~;
#X msg 47 115 lp;
#X obj 47 65 loadbang;
#X obj 79 173 line~;
#X obj 47 88 t b b;
#X msg 79 145 \$1 30;
#X obj 79 112 20000;
#X obj 122 119 expr 20000 - $f1*12000;
#X obj 122 94 r \$0-crush;
#X connect 0 0 2 0;
#X connect 2 0 1 0;
#X connect 3 0 2 0;
#X connect 4 0 6 0;
#X connect 5 0 2 1;
#X connect 6 0 3 0;
#X connect 6 1 8 0;
#X connect 7 0 5 0;
#X connect 8 0 7 0;
#X connect 9 0 7 0;
#X connect 10 0 9 0;
#X restore 62 495 pd outputfilter;
#X obj 416 27 inlet rate;
#X obj 416 56 s \$0-rate;
#X obj 326 27 inlet crush;
#X obj 326 56 s \$0-crush;
#X obj 226 27 inlet drive;
#X obj 226 56 s \$0-drive;
#X obj 87 55 r \$0-drive;
#X obj 84 240 r \$0-crush;
#X obj 86 370 r \$0-crush;
#X obj 106 263 r \$0-rate;
#N canvas 1245 574 430 157 noiseratio 0;
#X obj 28 15 inlet;
#X obj 28 112 outlet;
#X obj 28 39 * 8;
#X obj 28 63 expr (pow(2 \, $f1/4)-1)/3;
#X obj 28 86 * 0.3;
#X connect 0 0 2 0;
#X connect 2 0 3 0;
#X connect 3 0 4 0;
#X connect 4 0 1 0;
#X restore 164 181 pd noiseratio;
#X obj 164 157 r \$0-crush;
#X obj 62 105 clip~ -0.8 0.8;
#X connect 0 0 2 0;
#X connect 2 0 21 0;
#X connect 3 0 4 1;
#X connect 4 0 5 0;
#X connect 5 0 6 0;
#X connect 6 0 8 0;
#X connect 7 0 6 1;
#X connect 8 0 1 0;
#X connect 9 0 10 0;
#X connect 11 0 12 0;
#X connect 13 0 14 0;
#X connect 15 0 2 1;
#X connect 16 0 5 1;
#X connect 17 0 7 0;
#X connect 18 0 5 2;
#X connect 19 0 4 2;
#X connect 20 0 19 0;
#X connect 21 0 4 0;
