#N canvas 1730 215 772 688 10;
#X obj 322 65 inlet~;
#X obj 226 53 inlet~;
#X obj 16 649 outlet~;
#X obj 591 648 outlet~;
#X obj 346 192 inlet speed;
#X obj 369 215 inlet depth;
#X obj 447 49 inlet spread;
#X obj 447 90 s \$0-spread;
#X obj 130 445 pan;
#X obj 148 402 r \$0-spread;
#X obj 232 445 pan;
#X obj 447 69 * 0.5;
#X obj 148 424 expr 0.5-$f1;
#X obj 250 403 r \$0-spread;
#X obj 545 49 inlet wet;
#X obj 545 90 s \$0-wet;
#X obj 300 238 faustchorus~;
#X obj 250 425 expr 0.5+$f1;
#X obj 331 450 pan;
#X obj 349 407 r \$0-spread;
#X obj 438 443 pan;
#X obj 349 429 expr 0.5-$f1;
#X obj 456 401 r \$0-spread;
#X obj 456 423 expr 0.5+$f1;
#X obj 299 17 r clearfx;
#X msg 299 39 clear;
#X obj 591 613 crossfadeequal~;
#X obj 678 567 r \$0-wet;
#X obj 15 612 crossfadeequal~;
#X obj 173 572 r \$0-wet;
#X obj 173 594 * 0.5;
#X obj 678 589 * 0.5;
#X obj 70 546 *~ 0.5;
#X obj 627 571 *~ 0.5;
#X connect 0 0 16 1;
#X connect 0 0 26 0;
#X connect 1 0 16 0;
#X connect 1 0 28 0;
#X connect 4 0 16 2;
#X connect 5 0 16 3;
#X connect 6 0 11 0;
#X connect 8 0 32 0;
#X connect 8 1 33 0;
#X connect 9 0 12 0;
#X connect 10 0 32 0;
#X connect 10 1 33 0;
#X connect 11 0 7 0;
#X connect 12 0 8 1;
#X connect 13 0 17 0;
#X connect 14 0 15 0;
#X connect 16 0 8 0;
#X connect 16 1 10 0;
#X connect 16 2 18 0;
#X connect 16 3 20 0;
#X connect 17 0 10 1;
#X connect 18 0 32 0;
#X connect 18 1 33 0;
#X connect 19 0 21 0;
#X connect 20 0 32 0;
#X connect 20 1 33 0;
#X connect 21 0 18 1;
#X connect 22 0 23 0;
#X connect 23 0 20 1;
#X connect 24 0 25 0;
#X connect 25 0 16 0;
#X connect 26 0 3 0;
#X connect 27 0 31 0;
#X connect 28 0 2 0;
#X connect 29 0 30 0;
#X connect 30 0 28 2;
#X connect 31 0 26 2;
#X connect 32 0 28 1;
#X connect 33 0 26 1;
