#N canvas 267 227 1209 759 10;
#X obj 186 57 vsl 15 128 0 1 0 0 \$1-filtercutoff empty cutoff -10
-9 0 10 -262144 -1 -1 0 1;
#X obj 208 92 vradio 15 1 0 3 \$1-filterselect empty empty 0 -8 0 10
-262144 -1 -1 1;
#X text 224 92 off;
#X text 225 125 lowpass;
#X text 225 108 highpass;
#X obj 291 58 hsl 45 15 0 2000 0 1 \$1-filterattack \$1-filterattack-ui
attack 52 7 0 10 -262144 -1 -1 0 1;
#X obj 291 78 hsl 45 15 0 2000 0 1 \$1-filterdecay \$1-filterdecay-ui
decay 52 7 0 10 -262144 -1 -1 3200 1;
#X obj 291 98 hsl 45 15 0 1 0 1 \$1-filtersustain \$1-filtersustain-ui
sustain 52 7 0 10 -262144 -1 -1 4400 1;
#X obj 291 119 hsl 45 15 0 2000 0 1 \$1-filterrelease \$1-filterrelease-ui
release 52 7 0 10 -262144 -1 -1 4400 1;
#X obj 21 194 cnv 15 230 25 empty empty MASTER_VOL 20 12 0 20 -257985
-66577 0;
#X obj 164 12 cnv 15 230 25 empty empty FILTER 20 12 0 20 -257985 -66577
0;
#X obj 421 13 cnv 15 200 25 empty empty LFO 20 12 0 20 -257985 -66577
0;
#X obj 432 57 vsl 15 128 0.25 10 0 0 \$1-lforate empty rate -5 -9 0
10 -262144 -1 -1 0 1;
#X obj 468 57 vsl 15 128 0 1 0 0 \$1-lfodepth empty depth -5 -9 0 10
-262144 -1 -1 0 1;
#X obj 511 64 vradio 15 1 0 4 \$1-lfoconnection empty target 0 -8 0
10 -262144 -1 -1 2;
#X text 529 78 volume;
#X text 529 93 pitch;
#X obj 814 13 cnv 15 100 25 sound1-loopon empty LOOP 20 12 0 20 -257985
-66577 0;
#X obj 986 67 hsl 128 15 0 2000 0 1 \$1-attack \$1-attack-ui attack
-2 -8 0 10 -262144 -1 -1 0 1;
#X obj 986 100 hsl 128 15 0 2000 0 1 \$1-decay \$1-decay-ui decay -2
-8 0 10 -262144 -1 -1 0 1;
#X obj 987 133 hsl 128 15 0 1 0 1 \$1-sustain \$1-sustain-ui sustain
-2 -8 0 10 -262144 -1 -1 12700 1;
#X obj 988 165 hsl 128 15 0 2000 0 1 \$1-release \$1-release-ui release
-2 -8 0 10 -262144 -1 -1 0 1;
#X obj 820 96 hsl 128 15 0 44099 0 0 \$1-loopstart \$1-loopstart-ui
loopstart -2 -8 0 10 -262144 -1 -1 0 1;
#X obj 821 152 hsl 128 15 0 44099 0 0 \$1-loopend \$1-loopend-ui loopend
-2 -8 0 10 -262144 -1 -1 0 1;
#X obj 818 58 tgl 15 1 \$1-loopon empty loop 17 7 0 10 -262144 -1 -1
1 1;
#X obj 11 264 cnv 15 480 30 empty empty CONTROLS 20 12 0 18 -233017
-66577 0;
#X floatatom 818 170 10 0 0 0 - - -, f 10;
#X floatatom 817 117 10 0 0 0 - - -, f 10;
#X floatatom 1125 82 10 0 0 0 - - -, f 10;
#X floatatom 1125 115 10 0 0 0 - - -, f 10;
#X floatatom 1125 148 10 0 0 0 - - -, f 10;
#X floatatom 1126 180 10 0 0 0 - - -, f 10;
#X obj 979 14 cnv 15 150 25 empty empty VOL-ENV 20 12 0 25 -257985
-66577 0;
#X obj 644 13 cnv 15 100 25 sound1-loopon empty SAMPLE 20 12 0 20 -257985
-66577 0;
#X obj 649 58 hsl 128 15 0 44099 0 0 \$1-samplestart \$1-samplestart-ui
samplestart -2 -8 0 10 -262144 -1 -1 0 1;
#X obj 650 113 hsl 128 15 0 44099 0 0 \$1-sampleend \$1-sampleend-ui
sampleend -2 -8 0 10 -262144 -1 -1 0 1;
#X floatatom 647 131 10 0 0 0 - - -, f 10;
#X floatatom 646 79 10 0 0 0 - - -, f 10;
#X obj 988 469 cnv 15 160 15 empty empty Reverb(7) 10 8 0 12 -191407
-66577 0;
#X obj 497 214 cnv 15 700 25 empty empty FX 10 12 0 25 -257985 -66577
0;
#X obj 988 493 tgl 15 0 \$1-rev-enable empty enable 17 7 0 10 -262144
-1 -1 0 1;
#X obj 1056 493 bng 15 250 50 0 \$1-rev-moveup empty up 17 7 0 10 -262144
-1 -1;
#X obj 1103 493 bng 15 250 50 0 \$1-rev-movedown empty down 17 7 0
10 -262144 -1 -1;
#X obj 497 469 cnv 15 160 15 empty empty Delay(4) 10 8 0 12 -191407
-66577 0;
#X obj 497 493 tgl 15 0 \$1-del-enable empty enable 17 7 0 10 -262144
-1 -1 0 1;
#X obj 565 493 bng 15 250 50 0 \$1-del-moveup empty up 17 7 0 10 -262144
-1 -1;
#X obj 612 493 bng 15 250 50 0 \$1-del-movedown empty down 17 7 0 10
-262144 -1 -1;
#X obj 660 469 cnv 15 160 15 empty empty Flanger(5) 10 8 0 12 -191407
-66577 0;
#X obj 660 493 tgl 15 0 \$1-flg-enable empty enable 17 7 0 10 -262144
-1 -1 0 1;
#X obj 719 493 bng 15 250 50 0 \$1-flg-moveup empty up 17 7 0 10 -262144
-1 -1;
#X obj 766 493 bng 15 250 50 0 \$1-flg-movedown empty down 17 7 0 10
-262144 -1 -1;
#X obj 991 531 hsl 128 15 0 1 0 1 \$1-rev-damp empty damp -2 -8 0 10
-262144 -1 -1 7100 1;
#X obj 991 564 hsl 128 15 0 1 0 1 \$1-rev-roomsize empty roomsize -2
-8 0 10 -262144 -1 -1 12700 1;
#X obj 991 628 hsl 128 15 0 1 0 1 \$1-rev-wet empty wet -2 -8 0 10
-262144 -1 -1 12700 1;
#X obj 504 531 hsl 128 15 0 1 0 0 \$1-del-delay empty delay -2 -8 0
10 -262144 -1 -1 0 1;
#X obj 504 564 hsl 128 15 0 1 0 0 \$1-del-feedback empty feedback -2
-8 0 10 -262144 -1 -1 0 1;
#X obj 504 629 hsl 128 15 0 1 0 0 \$1-del-wet empty wet -2 -8 0 10
-262144 -1 -1 0 1;
#X obj 662 531 hsl 128 15 0 1 0 0 \$1-flg-freq empty freq -2 -8 0 10
-262144 -1 -1 0 1;
#X obj 662 564 hsl 128 15 0 1 0 0 \$1-flg-width empty width -2 -8 0
10 -262144 -1 -1 0 1;
#X obj 662 595 hsl 128 15 0 1 0 0 \$1-flg-feedback empty feedback -2
-8 0 10 -262144 -1 -1 0 1;
#X obj 662 629 hsl 128 15 0 1 0 0 \$1-flg-wet empty wet -2 -8 0 10
-262144 -1 -1 0 1;
#X obj 117 522 send \$1-noteon;
#X obj 117 582 send \$1-noteoff;
#X obj 18 360 openpanel;
#X obj 18 342 bng 15 250 50 0 empty empty empty 17 7 0 10 -262144 -1
-1;
#X obj 164 12 cnv 15 230 25 empty empty FILTER2 20 12 0 20 -257985
-66577 0;
#X obj 164 12 cnv 15 230 25 empty empty FILTER 20 12 0 20 -257985 -66577
0;
#X obj 30 225 hsl 128 15 -50 0 0 1 \$1-volume empty empty -2 -8 0 10
-262144 -1 -1 12700 1;
#X floatatom 170 240 5 0 0 0 - - -, f 5;
#N canvas 65 423 287 245 setsamplelength 0;
#X msg -57 -24 set \$1;
#X obj -94 -97 trigger b f f;
#X msg -94 -39 0;
#X obj -94 -122 receive \$1-samplelength;
#X obj -44 26 send \$1-loopend-ui;
#X obj -57 49 send \$1-sampleend-ui;
#X obj -65 74 send \$1-samplestart-ui;
#X obj -94 95 send \$1-loopstart-ui;
#X msg -9 -49 \; \$2-loopend-ui range 0 \$1 \; \$2-loopstart-ui range
0 \$1 \; \$2-sampleend-ui range 0 \$1 \; \$2-samplestart-ui range 0
\$1;
#X obj -9 -73 pack f s;
#X obj 67 -112 loadbang;
#X obj 67 -90 symbol \$1;
#X connect 0 0 4 0;
#X connect 0 0 5 0;
#X connect 1 0 2 0;
#X connect 1 1 0 0;
#X connect 1 2 9 0;
#X connect 2 0 6 0;
#X connect 2 0 7 0;
#X connect 3 0 1 0;
#X connect 9 0 8 0;
#X connect 10 0 11 0;
#X connect 11 0 9 1;
#X restore 22 70 pd setsamplelength;
#N canvas 795 254 504 379 receivemidi 0;
#X obj 242 169 send \$1-noteoff;
#X obj 134 53 notein;
#X obj 134 124 spigot;
#X obj 153 104 > 0;
#X obj 134 144 list append;
#X obj 134 169 send \$1-noteon;
#X obj 242 124 spigot;
#X obj 242 144 list append;
#X obj 261 104 == 0;
#X obj 71 232 print noteon:;
#X obj 334 239 print noteoff:;
#X connect 1 0 2 0;
#X connect 1 0 6 0;
#X connect 1 1 3 0;
#X connect 1 1 4 1;
#X connect 1 1 8 0;
#X connect 2 0 4 0;
#X connect 2 0 9 0;
#X connect 3 0 2 1;
#X connect 4 0 5 0;
#X connect 6 0 7 0;
#X connect 6 0 10 0;
#X connect 7 0 0 0;
#X connect 8 0 6 1;
#X restore 22 35 pd receivemidi;
#X msg 39 548 69;
#X msg 69 548 70;
#X msg 99 548 71;
#X msg 130 548 72;
#X msg 162 548 73;
#X msg 196 548 74;
#X msg 233 548 75;
#X msg 273 548 76;
#X floatatom 37 645 5 0 0 0 - - -, f 5;
#X msg 321 543 60;
#X obj 498 676 r \$1-fxlistctl;
#X text 528 110 filter;
#X text 529 63 none;
#X msg 7 488 69 127;
#X obj 258 194 cnv 15 100 25 empty empty PAN 20 12 0 20 -257985 -66577
0;
#X obj 267 225 hsl 128 15 0 1 0 1 \$1-pan \$1-pan empty -2 -8 0 10
-262144 -1 -1 5600 1;
#X floatatom 407 240 5 0 0 0 - - -, f 5;
#X obj 991 596 hsl 128 15 1 2 0 1 \$1-rev-spread empty stereo_spread
-2 -8 0 10 -262144 -1 -1 12700 1;
#X obj 504 596 hsl 128 15 0 1 0 0 \$1-del-spread empty spread -2 -8
0 10 -262144 -1 -1 0 1;
#X obj 18 380 s \$1-filename;
#X obj 824 469 cnv 15 160 15 empty empty Chorus(6) 10 8 0 12 -191407
-66577 0;
#X obj 824 493 tgl 15 0 \$1-chorus-enable empty enable 17 7 0 10 -262144
-1 -1 0 1;
#X obj 892 493 bng 15 250 50 0 \$1-chorus-moveup empty up 17 7 0 10
-262144 -1 -1;
#X obj 939 493 bng 15 250 50 0 \$1-chorus-movedown empty down 17 7
0 10 -262144 -1 -1;
#X obj 827 531 hsl 128 15 0.5 50 0 1 \$1-chorus-depth empty depth -2
-8 0 10 -262144 -1 -1 5500 1;
#X obj 827 564 hsl 128 15 0.05 15 0 1 \$1-chorus-speed empty speed
-2 -8 0 10 -262144 -1 -1 4000 1;
#X obj 827 628 hsl 128 15 0 1 0 1 \$1-chorus-wet empty wet -2 -8 0
10 -262144 -1 -1 0 1;
#X obj 827 596 hsl 128 15 0 1 0 1 \$1-chorus-spread empty spread -2
-8 0 10 -262144 -1 -1 10600 1;
#X obj 987 251 cnv 15 160 15 empty empty Tremolo(3) 10 8 0 12 -191407
-66577 0;
#X obj 987 275 tgl 15 0 \$1-tremolo-enable empty enable 17 7 0 10 -262144
-1 -1 0 1;
#X obj 1055 275 bng 15 250 50 0 \$1-tremolo-moveup empty up 17 7 0
10 -262144 -1 -1;
#X obj 1102 275 bng 15 250 50 0 \$1-tremolo-movedown empty down 17
7 0 10 -262144 -1 -1;
#X obj 990 313 hsl 128 15 500 20 0 1 \$1-tremolo-rate empty rate -2
-8 0 10 -262144 -1 -1 3500 1;
#X obj 990 346 hsl 128 15 0 1 0 1 \$1-tremolo-smooth empty smooth -2
-8 0 10 -262144 -1 -1 800 1;
#X obj 990 378 hsl 128 15 0 1 0 1 \$1-tremolo-depth empty depth -2
-8 0 10 -262144 -1 -1 12700 1;
#X obj 660 251 cnv 15 160 15 empty empty Filter(1) 10 8 0 12 -191407
-66577 0;
#X obj 660 275 tgl 15 0 \$1-fxfilter-enable empty enable 17 7 0 10
-262144 -1 -1 0 1;
#X obj 728 275 bng 15 250 50 0 \$1-fxfilter-moveup empty up 17 7 0
10 -262144 -1 -1;
#X obj 775 275 bng 15 250 50 0 \$1-fxfilter-movedown empty down 17
7 0 10 -262144 -1 -1;
#X obj 667 375 hsl 128 15 0 20000 0 0 \$1-fxfilter-freq empty freq
-2 -8 0 10 -262144 -1 -1 0 1;
#X obj 667 408 hsl 128 15 0 5 0 0 \$1-fxfilter-q empty q -2 -8 0 10
-262144 -1 -1 0 1;
#X obj 666 318 hradio 15 1 0 3 \$1-fxfilter-mode empty mode 0 -8 0
10 -262144 -1 -1 2;
#X text 662 338 lp;
#X text 679 338 hp;
#X text 696 338 bp;
#X msg 498 698 set \$1 \$2 \$3 \$4 \$5 \$6 \$7;
#X msg 498 722 0 1 2 3 4 5 6;
#X obj 823 251 cnv 15 160 15 empty empty 3_Band_EQ(2) 10 8 0 12 -191407
-66577 0;
#X obj 823 275 tgl 15 0 \$1-3eq-enable empty enable 17 7 0 10 -262144
-1 -1 0 1;
#X obj 891 275 bng 15 250 50 0 \$1-3eq-moveup empty up 17 7 0 10 -262144
-1 -1;
#X obj 938 275 bng 15 250 50 0 \$1-3eq-movedown empty down 17 7 0 10
-262144 -1 -1;
#X obj 826 313 hsl 128 15 -36 36 0 1 \$1-3eq-lowgain empty low -2 -8
0 10 -262144 -1 -1 0 1;
#X obj 826 346 hsl 128 15 -36 36 0 1 \$1-3eq-midgain empty mid-gain
-2 -8 0 10 -262144 -1 -1 8100 1;
#X obj 826 378 hsl 128 15 400 3500 0 1 \$1-3eq-midfreq empty mid-freq
-2 -8 0 10 -262144 -1 -1 0 1;
#X obj 826 410 hsl 128 15 20 1000 0 1 \$1-3eq-midbw empty mid-bw -2
-8 0 10 -262144 -1 -1 12700 1;
#X obj 826 442 hsl 128 15 -36 36 0 1 \$1-3eq-highgain empty high -2
-8 0 10 -262144 -1 -1 0 1;
#X msg 63 487 70 127;
#X msg 114 488 71 127;
#X msg 166 488 72 127;
#X msg 217 488 73 127;
#X msg 271 488 74 127;
#X msg 322 488 75 127;
#X msg 378 488 76 127;
#X msg 431 489 60 127;
#X obj 37 672 s \$1-rootnote;
#X obj 150 653 hsl 128 15 -50 50 0 0 \$1-finetune empty finetune -2
-8 0 10 -262144 -1 -1 0 1;
#X floatatom 147 673 5 0 0 0 - - -, f 5;
#X msg 265 418 40 127;
#X msg 412 546 40;
#X obj 135 381 s \$1-samplerate;
#X msg 139 355 44100;
#X msg 193 355 22050;
#X obj 497 251 cnv 15 160 15 empty empty Gainer(0) 10 8 0 12 -191407
-66577 0;
#X obj 497 275 tgl 15 0 \$1-gainer-enable empty enable 17 7 0 10 -262144
-1 -1 0 1;
#X obj 565 275 bng 15 250 50 0 \$1-gainer-moveup empty up 17 7 0 10
-262144 -1 -1;
#X obj 612 275 bng 15 250 50 0 \$1-gainer-movedown empty down 17 7
0 10 -262144 -1 -1;
#X obj 504 339 hsl 128 15 -50 12 0 0 \$1-gainer-gain empty gain -2
-8 0 10 -262144 -1 -1 8700 1;
#X obj 504 372 hsl 128 15 0 1 0 0 \$1-gainer-pan empty pan -2 -8 0
10 -262144 -1 -1 0 1;
#X connect 18 0 28 0;
#X connect 19 0 29 0;
#X connect 20 0 30 0;
#X connect 21 0 31 0;
#X connect 22 0 27 0;
#X connect 23 0 26 0;
#X connect 34 0 37 0;
#X connect 35 0 36 0;
#X connect 63 0 90 0;
#X connect 64 0 63 0;
#X connect 67 0 68 0;
#X connect 71 0 62 0;
#X connect 72 0 62 0;
#X connect 73 0 62 0;
#X connect 74 0 62 0;
#X connect 75 0 62 0;
#X connect 76 0 62 0;
#X connect 77 0 62 0;
#X connect 78 0 62 0;
#X connect 79 0 135 0;
#X connect 80 0 62 0;
#X connect 81 0 116 0;
#X connect 84 0 61 0;
#X connect 86 0 87 0;
#X connect 116 0 117 0;
#X connect 127 0 61 0;
#X connect 128 0 61 0;
#X connect 129 0 61 0;
#X connect 130 0 61 0;
#X connect 131 0 61 0;
#X connect 132 0 61 0;
#X connect 133 0 61 0;
#X connect 134 0 61 0;
#X connect 136 0 137 0;
#X connect 138 0 61 0;
#X connect 139 0 62 0;
#X connect 141 0 140 0;
#X connect 142 0 140 0;
#X coords 0 0 1 1 85 60 0;
