#N canvas 195 235 532 407 12;
#X obj 152 47 inlet~ dry;
#X obj 312 47 inlet~ wet;
#X obj 398 50 inlet amount;
#X obj 225 358 outlet~;
#X obj 312 259 *~;
#X obj 153 257 *~;
#X obj 170 182 -;
#X obj 170 119 t b f;
#X obj 170 147 1;
#X msg 329 203 \$1 50;
#X obj 329 227 line~;
#X msg 170 209 \$1 50;
#X obj 170 233 line~;
#X connect 0 0 5 0;
#X connect 1 0 4 0;
#X connect 2 0 7 0;
#X connect 2 0 9 0;
#X connect 4 0 3 0;
#X connect 5 0 3 0;
#X connect 6 0 11 0;
#X connect 7 0 8 0;
#X connect 7 1 6 1;
#X connect 8 0 6 0;
#X connect 9 0 10 0;
#X connect 10 0 4 1;
#X connect 11 0 12 0;
#X connect 12 0 5 1;
