#N canvas 447 182 567 442 12;
#X obj 152 88 inlet~ dry;
#X obj 285 88 inlet~ wet;
#X obj 401 79 inlet amount;
#X obj 217 399 outlet~;
#X obj 285 300 *~;
#X obj 153 298 *~;
#X obj 172 213 cos;
#X obj 303 219 sin;
#X msg 303 244 \$1 50;
#X msg 172 238 \$1 50;
#X obj 172 264 line~;
#X obj 303 268 line~;
#X obj 303 195 * 3.14159;
#X obj 172 188 * 3.14159;
#X obj 401 112 * 0.5;
#X obj 379 27 loadbang;
#X obj 379 52 0;
#X connect 0 0 5 0;
#X connect 1 0 4 0;
#X connect 2 0 14 0;
#X connect 4 0 3 0;
#X connect 5 0 3 0;
#X connect 6 0 9 0;
#X connect 7 0 8 0;
#X connect 8 0 11 0;
#X connect 9 0 10 0;
#X connect 10 0 5 1;
#X connect 11 0 4 1;
#X connect 12 0 7 0;
#X connect 13 0 6 0;
#X connect 14 0 12 0;
#X connect 14 0 13 0;
#X connect 15 0 16 0;
#X connect 16 0 14 0;
