#N canvas 694 155 605 634 10;
#X obj -552 122 soundfiler;
#X obj -628 28 table \$0-wave;
#X obj -552 80 float \$0;
#X obj -552 59 loadbang;
#X obj -244 379 receive samplesize;
#X obj -552 149 send samplesize;
#X obj -323 192 inlet;
#X obj -285 479 inlet;
#X msg -214 483 1;
#X text -324 178 rate;
#X text -286 464 depth;
#X msg -552 101 read -resize sine1hz.wav \$1-wave;
#X obj -300 259 tgl 15 0 empty empty empty 17 7 0 10 -262144 -1 -1
1 1;
#X obj -300 500 *;
#X obj -300 542 outlet;
#X obj -300 396 *;
#X obj -279 351 moses 1;
#X obj -300 317 float 0;
#X msg -195 352 0;
#X obj -256 242 inlet;
#X obj -552 205 until;
#X obj -214 460 loadbang;
#X obj -467 26 table \$0-modwave;
#X obj -552 298 tabread \$0-wave;
#X obj -552 328 expr ($f1+1)/2;
#X obj -552 361 tabwrite \$0-modwave;
#X obj -552 265 trigger float float;
#X obj -552 233 float 0;
#X obj -488 232 + 1;
#X obj -441 231 s \$0-modwave;
#X obj -552 177 trigger float float;
#X msg -441 203 resize 44100;
#X obj -300 434 tabread \$0-modwave;
#X obj -300 282 metro 10;
#X obj -162 209 / 100;
#X text -259 227 on/off;
#X obj -195 318 + 0.01;
#X obj -162 158 loadbang;
#X msg -162 181 1;
#X connect 0 0 5 0;
#X connect 0 0 30 0;
#X connect 2 0 11 0;
#X connect 3 0 2 0;
#X connect 4 0 15 1;
#X connect 6 0 34 0;
#X connect 7 0 13 1;
#X connect 8 0 13 1;
#X connect 11 0 0 0;
#X connect 12 0 33 0;
#X connect 13 0 14 0;
#X connect 15 0 32 0;
#X connect 16 0 36 0;
#X connect 16 1 18 0;
#X connect 17 0 16 0;
#X connect 17 0 15 0;
#X connect 18 0 17 1;
#X connect 19 0 12 0;
#X connect 20 0 27 0;
#X connect 21 0 8 0;
#X connect 23 0 24 0;
#X connect 24 0 25 0;
#X connect 26 0 23 0;
#X connect 26 1 25 1;
#X connect 27 0 26 0;
#X connect 27 0 28 0;
#X connect 28 0 27 1;
#X connect 30 0 20 0;
#X connect 30 1 31 0;
#X connect 31 0 29 0;
#X connect 32 0 13 0;
#X connect 33 0 17 0;
#X connect 34 0 36 1;
#X connect 36 0 17 1;
#X connect 37 0 38 0;
#X connect 38 0 34 0;
