#N canvas 274 352 250 251 10;
#X obj 19 18 inlet;
#X obj 19 159 outlet noteon;
#X obj 117 210 outlet noteoff;
#X obj 19 43 unpack;
#X obj 117 131 delay;
#X obj 117 184 float;
#X obj 150 83 > 0;
#X obj 117 105 spigot;
#X obj 117 60 t f f;
#X connect 0 0 3 0;
#X connect 3 0 1 0;
#X connect 3 0 5 1;
#X connect 3 1 8 0;
#X connect 4 0 5 0;
#X connect 5 0 2 0;
#X connect 6 0 7 1;
#X connect 7 0 4 0;
#X connect 8 0 7 0;
#X connect 8 1 6 0;
