#N canvas 1196 209 442 643 12;
#X obj 45 23 inlet~;
#X obj 44 581 outlet~;
#X obj 295 23 inlet fuzzfreq;
#X obj 295 48 s \$0-fuzzfreq;
#X obj 183 23 inlet fuzziness;
#X obj 183 72 s \$0-fuzziness;
#X obj 97 23 inlet drive;
#X obj 62 174 line~;
#X obj 97 288 line~;
#X msg 97 263 \$1 30;
#X obj 97 233 r \$0-fuzzfreq;
#X obj 203 233 r \$0-fuzziness;
#X obj 95 506 line~;
#X msg 95 482 \$1 30;
#X obj 219 454 * -1;
#X obj 219 427 f;
#X obj 219 396 t b f;
#X obj 270 397 t b f;
#X obj 273 474 nbx 5 14 -1e+37 1e+37 0 0 empty empty empty 0 -8 0 10
#fcfcfc #000000 #000000 0 256;
#X obj 327 347 loadbang;
#X obj 327 377 -0.38;
#X obj 95 459 r \$0-fuzzfreq;
#X obj 219 362 r \$0-fuzziness;
#X obj 97 48 s \$0-drive;
#X obj 62 127 r \$0-drive;
#N canvas 1391 514 450 300 highpass 0;
#X obj 68 35 inlet~;
#X obj 69 206 outlet~;
#X obj 69 171 faustreson~;
#X obj 106 86 loadbang;
#X msg 74 142 hp;
#X obj 143 142 0;
#X obj 106 142 100;
#X connect 0 0 2 0;
#X connect 2 0 1 0;
#X connect 3 0 5 0;
#X connect 3 0 4 0;
#X connect 3 0 6 0;
#X connect 4 0 2 0;
#X connect 5 0 2 2;
#X connect 6 0 2 1;
#X restore 44 91 pd highpass;
#X obj 203 287 line~;
#X msg 203 262 \$1 30;
#X obj 219 504 line~;
#X msg 219 482 \$1 30;
#X msg 62 150 \$1 30;
#X obj 125 369 r \$0-drive;
#X obj 44 395 transferarc~;
#X obj 44 316 elselowshelf~ 1000 1 12;
#X obj 44 532 elselowshelf~ 1000 1 12;
#X obj 45 211 *~;
#X obj 183 48 * 60;
#X connect 0 0 25 0;
#X connect 2 0 3 0;
#X connect 4 0 36 0;
#X connect 6 0 23 0;
#X connect 7 0 35 1;
#X connect 8 0 33 1;
#X connect 9 0 8 0;
#X connect 10 0 9 0;
#X connect 11 0 27 0;
#X connect 12 0 34 1;
#X connect 13 0 12 0;
#X connect 14 0 18 0;
#X connect 14 0 29 0;
#X connect 15 0 14 0;
#X connect 16 0 15 0;
#X connect 16 1 15 1;
#X connect 17 0 15 0;
#X connect 17 1 14 1;
#X connect 19 0 20 0;
#X connect 20 0 17 0;
#X connect 21 0 13 0;
#X connect 22 0 16 0;
#X connect 24 0 30 0;
#X connect 25 0 35 0;
#X connect 26 0 33 3;
#X connect 27 0 26 0;
#X connect 28 0 34 3;
#X connect 29 0 28 0;
#X connect 30 0 7 0;
#X connect 31 0 32 1;
#X connect 32 0 34 0;
#X connect 33 0 32 0;
#X connect 34 0 1 0;
#X connect 35 0 33 0;
#X connect 36 0 5 0;
