#N canvas 2850 335 559 643 12;
#X obj 45 23 inlet~;
#X obj 44 581 outlet~;
#N canvas 2747 368 350 652 wavearc 0;
#X obj 29 36 inlet~;
#X obj 28 80 *~;
#X obj 27 149 +~;
#X obj 45 127 / 2;
#X obj 26 589 outlet~;
#X obj 27 499 *~;
#X obj 45 429 - 0.05;
#X msg 45 451 \$1 50;
#X obj 45 473 line~;
#X obj 45 310 *;
#X obj 81 335 / 2;
#X obj 45 355 +;
#X obj 46 58 r transferarc-normalrange;
#X obj 45 104 r transferarc-tablength;
#X obj 26 207 tabread~ transferarc-table;
#X obj 63 287 r transferarc-normalrange;
#X obj 81 312 r transferarc-tablength;
#X obj 45 264 r \$0-drive;
#X obj 45 380 tabread4 transferarc-table;
#X obj 45 405 expr if($f1 == 0 \, 0 \, 1/$f1);
#X connect 0 0 1 0;
#X connect 1 0 2 0;
#X connect 2 0 14 0;
#X connect 3 0 2 1;
#X connect 5 0 4 0;
#X connect 6 0 7 0;
#X connect 7 0 8 0;
#X connect 8 0 5 1;
#X connect 9 0 11 0;
#X connect 10 0 11 1;
#X connect 11 0 18 0;
#X connect 12 0 1 1;
#X connect 13 0 3 0;
#X connect 14 0 5 0;
#X connect 15 0 9 1;
#X connect 16 0 10 0;
#X connect 17 0 9 0;
#X connect 18 0 19 0;
#X connect 19 0 6 0;
#X restore 44 345 pd wavearc;
#X obj 295 23 inlet fuzzfreq;
#X obj 295 48 s \$0-fuzzfreq;
#X obj 183 23 inlet fuzziness;
#X obj 183 48 s \$0-fuzziness;
#X obj 97 23 inlet drive;
#X obj 63 174 line~;
#X obj 45 198 *~;
#X obj 44 286 else/lowshelf~ 1000 1 12;
#X obj 98 258 line~;
#X msg 98 233 \$1 30;
#X obj 98 203 r \$0-fuzzfreq;
#X obj 209 203 r \$0-fuzziness;
#X obj 44 492 else/lowshelf~ 1000 1 12;
#X obj 100 466 line~;
#X msg 100 442 \$1 30;
#X obj 208 414 * -1;
#X obj 208 387 f;
#X obj 208 356 t b f;
#X obj 259 357 t b f;
#X obj 262 434 nbx 5 14 -1e+37 1e+37 0 0 empty empty empty 0 -8 0 10
#fcfcfc #000000 #000000 0 256;
#X obj 316 307 loadbang;
#X obj 316 337 -0.38;
#X obj 100 419 r \$0-fuzzfreq;
#X obj 208 322 r \$0-fuzziness;
#X obj 97 48 s \$0-drive;
#X obj 63 127 r \$0-drive;
#N canvas 1391 514 450 300 highpass 0;
#X obj 68 35 inlet~;
#X obj 69 206 outlet~;
#X obj 69 171 faustreson~;
#X obj 106 86 loadbang;
#X msg 74 142 hp;
#X obj 143 142 0;
#X obj 106 142 100;
#X connect 0 0 2 0;
#X connect 2 0 1 0;
#X connect 3 0 5 0;
#X connect 3 0 4 0;
#X connect 3 0 6 0;
#X connect 4 0 2 0;
#X connect 5 0 2 2;
#X connect 6 0 2 1;
#X restore 44 91 pd highpass;
#X obj 209 257 line~;
#X msg 209 232 \$1 30;
#X obj 208 464 line~;
#X msg 208 442 \$1 30;
#X msg 63 150 \$1 30;
#X connect 0 0 29 0;
#X connect 2 0 15 0;
#X connect 3 0 4 0;
#X connect 5 0 6 0;
#X connect 7 0 27 0;
#X connect 8 0 9 1;
#X connect 9 0 10 0;
#X connect 10 0 2 0;
#X connect 11 0 10 1;
#X connect 12 0 11 0;
#X connect 13 0 12 0;
#X connect 14 0 31 0;
#X connect 15 0 1 0;
#X connect 16 0 15 1;
#X connect 17 0 16 0;
#X connect 18 0 22 0;
#X connect 18 0 33 0;
#X connect 19 0 18 0;
#X connect 20 0 19 0;
#X connect 20 1 19 1;
#X connect 21 0 19 0;
#X connect 21 1 18 1;
#X connect 23 0 24 0;
#X connect 24 0 21 0;
#X connect 25 0 17 0;
#X connect 26 0 20 0;
#X connect 28 0 34 0;
#X connect 29 0 9 0;
#X connect 30 0 10 3;
#X connect 31 0 30 0;
#X connect 32 0 15 3;
#X connect 33 0 32 0;
#X connect 34 0 8 0;
