#N canvas 472 290 1013 577 10;
#X obj 38 -949 == 1;
#X obj 89 -951 == 2;
#X obj 38 -923 moses 1;
#X obj 89 -923 moses 1;
#X obj 141 -923 moses 1;
#X obj 191 -923 moses 1;
#X obj 141 -951 == 3;
#X obj 191 -951 == 4;
#X obj 25 -1235 table \$1-drum2;
#X obj 25 -1216 table \$1-drum3;
#X obj 25 -1197 table \$1-drum4;
#X obj 244 -1245 receive \$1-filename;
#X obj 244 -1155 soundfiler;
#X obj 25 -1254 table \$1-drum1;
#X msg 244 -1177 read -resize \$1 drums1-drum\$2;
#X obj 244 -1221 pack s f;
#X obj 262 -747 throw~ mainoutput;
#X obj 262 -769 catch~ \$1-instrumentoutput;
#X obj 141 -992 receive \$1-noteon;
#X obj 158 -1170 unpack s f;
#X obj 244 -1198 t l l;
#X obj 244 -1117 pack f f s;
#X obj 315 -1155 loadbang;
#X obj 315 -1134 symbol \$1;
#X msg 244 -1097 \; \$3-samplelength-\$2 \$1;
#X obj 77 -830 playdrum \$1-drum1 \$1 1;
#X obj 128 -851 playdrum \$1-drum2 \$1 2;
#X obj 180 -872 playdrum \$1-drum3 \$1 3;
#X obj 230 -892 playdrum \$1-drum4 \$1 4;
#X connect 0 0 2 0;
#X connect 1 0 3 0;
#X connect 2 1 25 0;
#X connect 3 1 26 0;
#X connect 4 1 27 0;
#X connect 5 1 28 0;
#X connect 6 0 4 0;
#X connect 7 0 5 0;
#X connect 11 0 15 0;
#X connect 12 0 21 0;
#X connect 14 0 12 0;
#X connect 15 0 20 0;
#X connect 17 0 16 0;
#X connect 18 0 0 0;
#X connect 18 0 1 0;
#X connect 18 0 6 0;
#X connect 18 0 7 0;
#X connect 19 1 21 1;
#X connect 20 0 14 0;
#X connect 20 1 19 0;
#X connect 21 0 24 0;
#X connect 22 0 23 0;
#X connect 23 0 21 2;
