#N canvas 434 428 642 421 10;
#X obj 58 371 throw~ mainoutput;
#X obj 57 210 catch~ \$1-instrumentoutput;
#X obj 235 20 receive \$1-noteon;
#X obj 74 329 line~;
#X obj 74 282 receive \$1-volume;
#X msg 74 303 \$1 50;
#X obj 57 351 *~;
#X obj 206 291 loadbang;
#X msg 206 312 1 0;
#X obj 456 101 receive \$1-noteoff;
#N canvas 595 314 327 61 paramwriters 1;
#N canvas 274 250 754 301 trackparams 0;
#X obj 8 10 r \$1-volume;
#X obj 8 38 paramwriter \$1 0;
#X obj 285 11 table \$1-params;
#X obj 153 87 r \$1-rev-damp;
#X obj 153 120 paramwriter \$1 20;
#X obj 13 87 r \$1-rev-enable;
#X obj 13 120 paramwriter \$1 19;
#X obj 309 87 r \$1-rev-roomsize;
#X obj 309 120 paramwriter \$1 21;
#X obj 453 87 r \$1-rev-dry;
#X obj 453 120 paramwriter \$1 22;
#X obj 588 87 r \$1-rev-wet;
#X obj 588 120 paramwriter \$1 23;
#X obj 14 154 r \$1-del-enable;
#X obj 14 187 paramwriter \$1 24;
#X obj 151 154 r \$1-del-delay;
#X obj 151 187 paramwriter \$1 25;
#X obj 309 154 r \$1-del-feedback;
#X obj 309 187 paramwriter \$1 26;
#X obj 453 154 r \$1-del-wet;
#X obj 453 187 paramwriter \$1 27;
#X obj 14 219 r \$1-flg-enable;
#X obj 14 252 paramwriter \$1 28;
#X obj 151 219 r \$1-flg-speed;
#X obj 151 252 paramwriter \$1 29;
#X obj 309 219 r \$1-flg-offset;
#X obj 309 252 paramwriter \$1 30;
#X obj 459 219 r \$1-flg-delay;
#X obj 459 252 paramwriter \$1 31;
#X obj 600 219 r \$1-flg-feedback;
#X obj 600 252 paramwriter \$1 32;
#X connect 0 0 1 0;
#X connect 3 0 4 0;
#X connect 5 0 6 0;
#X connect 7 0 8 0;
#X connect 9 0 10 0;
#X connect 11 0 12 0;
#X connect 13 0 14 0;
#X connect 15 0 16 0;
#X connect 17 0 18 0;
#X connect 19 0 20 0;
#X connect 21 0 22 0;
#X connect 23 0 24 0;
#X connect 25 0 26 0;
#X connect 27 0 28 0;
#X connect 29 0 30 0;
#X restore 13 15 pd trackparams;
#N canvas 65 205 343 348 slotparams 0;
#X obj 7 15 drumparamreceivers \$1 0;
#X obj 7 35 drumparamreceivers \$1 1;
#X obj 7 55 drumparamreceivers \$1 2;
#X obj 7 75 drumparamreceivers \$1 3;
#X obj 7 95 drumparamreceivers \$1 4;
#X obj 7 115 drumparamreceivers \$1 5;
#X obj 7 135 drumparamreceivers \$1 6;
#X obj 7 155 drumparamreceivers \$1 7;
#X obj 7 175 drumparamreceivers \$1 8;
#X obj 7 195 drumparamreceivers \$1 9;
#X obj 7 215 drumparamreceivers \$1 10;
#X obj 7 235 drumparamreceivers \$1 11;
#X obj 7 255 drumparamreceivers \$1 12;
#X obj 7 275 drumparamreceivers \$1 13;
#X obj 7 295 drumparamreceivers \$1 14;
#X obj 7 315 drumparamreceivers \$1 15;
#X obj 196 15 table \$1-params-0;
#X obj 196 35 table \$1-params-1;
#X obj 196 55 table \$1-params-2;
#X obj 196 75 table \$1-params-3;
#X obj 196 95 table \$1-params-4;
#X obj 196 115 table \$1-params-5;
#X obj 196 135 table \$1-params-6;
#X obj 196 155 table \$1-params-7;
#X obj 196 175 table \$1-params-8;
#X obj 196 195 table \$1-params-9;
#X obj 196 215 table \$1-params-10;
#X obj 196 235 table \$1-params-11;
#X obj 196 255 table \$1-params-12;
#X obj 196 275 table \$1-params-13;
#X obj 196 295 table \$1-params-14;
#X obj 196 315 table \$1-params-15;
#X restore 131 15 pd slotparams;
#X restore 55 85 pd paramwriters;
#X obj 57 245 effects \$1;
#N canvas 101 512 450 300 setinitvolumes 0;
#X msg 94 82 1;
#X obj 94 18 loadbang;
#X obj 155 117 s \$1-volume-0;
#X obj 154 145 s \$1-volume-1;
#X obj 155 172 s \$1-volume-2;
#X obj 155 199 s \$1-volume-3;
#X connect 0 0 2 0;
#X connect 0 0 3 0;
#X connect 0 0 4 0;
#X connect 0 0 5 0;
#X connect 1 0 0 0;
#X restore 55 46 pd setinitvolumes;
#X obj 235 41 poly 4 1;
#X obj 235 63 pack f f f;
#X obj 301 109 playdrumpoly \$1;
#X obj 235 87 route 1 2 3 4;
#N canvas 620 462 450 300 wavetables 0;
#X obj 40 19 table \$1-drum0;
#X obj 40 38 table \$1-drum1;
#X obj 40 57 table \$1-drum2;
#X obj 40 76 table \$1-drum3;
#X obj 40 96 table \$1-drum4;
#X obj 40 115 table \$1-drum5;
#X obj 40 134 table \$1-drum6;
#X obj 40 153 table \$1-drum7;
#X obj 155 19 table \$1-drum8;
#X obj 155 38 table \$1-drum9;
#X obj 155 57 table \$1-drum10;
#X obj 155 76 table \$1-drum11;
#X obj 155 96 table \$1-drum12;
#X obj 155 115 table \$1-drum13;
#X obj 155 134 table \$1-drum14;
#X obj 155 153 table \$1-drum15;
#X restore 55 26 pd wavetables;
#N canvas 270 299 825 248 loadwave 0;
#X obj 108 21 receive \$1-filename;
#X obj 108 111 soundfiler;
#X obj 22 96 unpack s f;
#X obj 108 68 t l l;
#X obj 108 149 pack f f s;
#X obj 196 111 loadbang;
#X obj 196 132 symbol \$1;
#X obj 108 45 pack s f s;
#X obj 259 4 loadbang;
#X obj 259 28 symbol \$1;
#X msg 108 89 read -resize \$1 \$3-drum\$2;
#X obj 348 17 receive \$1-tabwrite;
#X obj 401 148 receive \$1-tabindex;
#X obj 348 168 tabwrite;
#X obj 397 41 receive \$1-setwriteslot;
#X obj 450 62 loadbang;
#X obj 450 84 symbol \$1;
#X obj 397 106 pack f s;
#X msg 397 127 set \$2-drum\$1;
#X obj 598 60 receive \$1-resize;
#X obj 665 79 loadbang;
#X obj 665 101 symbol \$1;
#X obj 598 121 pack f f s;
#X text 597 43 slot/length;
#X msg 108 169 \; \$3-samplelength-\$2 \$1 \; \$3-sampleend-\$2 \$1
\; \$3-samplestart-\$2 0 \;;
#X msg 598 141 \; \$3-drum\$1 resize \$2 \; \$3-samplelength-\$1 \$2
\; \$3-sampleend-\$1 \$2 \; \$3-samplestart-\$1 0 \;;
#X connect 0 0 7 0;
#X connect 1 0 4 0;
#X connect 2 1 4 1;
#X connect 3 0 10 0;
#X connect 3 1 2 0;
#X connect 4 0 24 0;
#X connect 5 0 6 0;
#X connect 6 0 4 2;
#X connect 7 0 3 0;
#X connect 8 0 9 0;
#X connect 9 0 7 2;
#X connect 10 0 1 0;
#X connect 11 0 13 0;
#X connect 12 0 13 1;
#X connect 14 0 17 0;
#X connect 15 0 16 0;
#X connect 16 0 17 1;
#X connect 17 0 18 0;
#X connect 18 0 13 0;
#X connect 19 0 22 0;
#X connect 20 0 21 0;
#X connect 21 0 22 2;
#X connect 22 0 25 0;
#X restore 55 66 pd loadwave;
#X obj 257 149 playdrumpoly \$1;
#X obj 235 169 playdrumpoly \$1;
#X obj 279 129 playdrumpoly \$1;
#N canvas 674 511 664 329 automationhub 0;
#X obj 15 116 line;
#X obj 15 93 r \$1-auto-rev-damp;
#X obj 15 139 s \$1-rev-damp;
#X obj 183 116 line;
#X obj 183 93 r \$1-auto-rev-roomsize;
#X obj 183 139 s \$1-rev-roomsize;
#X obj 349 116 line;
#X obj 349 93 r \$1-auto-rev-dry;
#X obj 349 139 s \$1-rev-dry;
#X obj 483 116 line;
#X obj 483 93 r \$1-auto-rev-wet;
#X obj 483 139 s \$1-rev-wet;
#X obj 15 199 line;
#X obj 15 176 r \$1-auto-del-delay;
#X obj 15 222 s \$1-del-delay;
#X obj 182 199 line;
#X obj 182 176 r \$1-auto-del-feedback;
#X obj 182 222 s \$1-del-feedback;
#X obj 350 199 line;
#X obj 350 176 r \$1-auto-del-wet;
#X obj 350 222 s \$1-del-wet;
#X obj 15 279 line;
#X obj 15 256 r \$1-auto-flg-speed;
#X obj 15 302 s \$1-flg-speed;
#X obj 181 279 line;
#X obj 181 256 r \$1-auto-flg-offset;
#X obj 181 302 s \$1-flg-offset;
#X obj 349 279 line;
#X obj 349 256 r \$1-auto-flg-delay;
#X obj 349 302 s \$1-flg-delay;
#X obj 496 279 line;
#X obj 496 256 r \$1-auto-flg-feedback;
#X obj 496 302 s \$1-flg-feedback;
#X obj 15 40 line;
#X obj 15 17 r \$1-auto-volume;
#X obj 15 61 s \$1-volume;
#X connect 0 0 2 0;
#X connect 1 0 0 0;
#X connect 3 0 5 0;
#X connect 4 0 3 0;
#X connect 6 0 8 0;
#X connect 7 0 6 0;
#X connect 9 0 11 0;
#X connect 10 0 9 0;
#X connect 12 0 14 0;
#X connect 13 0 12 0;
#X connect 15 0 17 0;
#X connect 16 0 15 0;
#X connect 18 0 20 0;
#X connect 19 0 18 0;
#X connect 21 0 23 0;
#X connect 22 0 21 0;
#X connect 24 0 26 0;
#X connect 25 0 24 0;
#X connect 27 0 29 0;
#X connect 28 0 27 0;
#X connect 30 0 32 0;
#X connect 31 0 30 0;
#X connect 33 0 35 0;
#X connect 34 0 33 0;
#X restore 55 105 pd automationhub;
#X connect 1 0 11 0;
#X connect 2 0 13 0;
#X connect 3 0 6 1;
#X connect 4 0 5 0;
#X connect 5 0 3 0;
#X connect 6 0 0 0;
#X connect 7 0 8 0;
#X connect 8 0 3 0;
#X connect 11 0 6 0;
#X connect 13 0 14 0;
#X connect 13 1 14 1;
#X connect 13 2 14 2;
#X connect 14 0 16 0;
#X connect 16 0 20 0;
#X connect 16 1 19 0;
#X connect 16 2 21 0;
#X connect 16 3 15 0;
