#N canvas 699 244 847 563 10;
#X obj 21 277 moses 1;
#X obj 72 277 moses 1;
#X obj 124 277 moses 1;
#X obj 174 277 moses 1;
#X obj 40 38 table \$1-drum2;
#X obj 40 57 table \$1-drum3;
#X obj 40 76 table \$1-drum4;
#X obj 259 28 receive \$1-filename;
#X obj 259 118 soundfiler;
#X obj 40 19 table \$1-drum1;
#X msg 259 96 read -resize \$1 drums1-drum\$2;
#X obj 259 52 pack s f;
#X obj 277 530 throw~ mainoutput;
#X obj 277 411 catch~ \$1-instrumentoutput;
#X obj 83 153 receive \$1-noteon;
#X obj 173 103 unpack s f;
#X obj 259 75 t l l;
#X obj 259 156 pack f f s;
#X obj 330 118 loadbang;
#X obj 330 139 symbol \$1;
#X msg 259 176 \; \$3-samplelength-\$2 \$1;
#X obj 60 370 playdrum \$1-drum1 \$1 1;
#X obj 111 349 playdrum \$1-drum2 \$1 2;
#X obj 163 328 playdrum \$1-drum3 \$1 3;
#X obj 213 308 playdrum \$1-drum4 \$1 4;
#X obj 558 84 receive \$1-resize;
#X obj 615 103 loadbang;
#X obj 615 125 symbol \$1;
#X obj 558 145 pack f f s;
#X msg 558 165 \; \$3-drum\$1 resize \$2;
#X obj 488 300 receive \$1-tabwrite;
#X obj 533 445 receive \$1-tabindex;
#X text 557 67 slot/length;
#X obj 720 311 s drums1-tabwrite;
#X obj 488 469 tabwrite;
#X obj 537 324 receive \$1-setwriteslot;
#X obj 582 345 loadbang;
#X obj 582 367 symbol \$1;
#X obj 537 389 pack f s;
#X msg 537 410 set \$2-drum\$1;
#X msg 689 357 1;
#X obj 689 380 s drums1-setwriteslot;
#X msg 689 413 3;
#X obj 689 434 s drums1-tabindex;
#X msg 720 287 20;
#X obj 83 177 unpack f f;
#X obj 21 251 == 0;
#X obj 72 249 == 1;
#X obj 124 249 == 2;
#X obj 174 249 == 3;
#X obj 83 206 - 35;
#X text 115 198 MIDI basenote for drums = 35, f 14;
#X obj 292 487 line~;
#X obj 292 440 receive \$1-volume;
#X msg 292 461 \$1 50;
#X obj 276 509 *~;
#X obj 405 440 loadbang;
#X msg 405 461 1 0;
#X obj 437 254 receive \$1-noteoff;
#X connect 0 1 21 0;
#X connect 1 1 22 0;
#X connect 2 1 23 0;
#X connect 3 1 24 0;
#X connect 7 0 11 0;
#X connect 8 0 17 0;
#X connect 10 0 8 0;
#X connect 11 0 16 0;
#X connect 13 0 55 0;
#X connect 14 0 45 0;
#X connect 15 1 17 1;
#X connect 16 0 10 0;
#X connect 16 1 15 0;
#X connect 17 0 20 0;
#X connect 18 0 19 0;
#X connect 19 0 17 2;
#X connect 25 0 28 0;
#X connect 26 0 27 0;
#X connect 27 0 28 2;
#X connect 28 0 29 0;
#X connect 30 0 34 0;
#X connect 31 0 34 1;
#X connect 35 0 38 0;
#X connect 36 0 37 0;
#X connect 37 0 38 1;
#X connect 38 0 39 0;
#X connect 39 0 34 0;
#X connect 40 0 41 0;
#X connect 42 0 43 0;
#X connect 44 0 33 0;
#X connect 45 0 50 0;
#X connect 46 0 0 0;
#X connect 47 0 1 0;
#X connect 48 0 2 0;
#X connect 49 0 3 0;
#X connect 50 0 46 0;
#X connect 50 0 47 0;
#X connect 50 0 48 0;
#X connect 50 0 49 0;
#X connect 52 0 55 1;
#X connect 53 0 54 0;
#X connect 54 0 52 0;
#X connect 55 0 12 0;
#X connect 56 0 57 0;
#X connect 57 0 52 0;
