#N canvas 259 264 714 681 10;
#X obj 40 38 table \$1-drum2;
#X obj 40 57 table \$1-drum3;
#X obj 40 76 table \$1-drum4;
#X obj 269 21 receive \$1-filename;
#X obj 269 111 soundfiler;
#X obj 40 19 table \$1-drum1;
#X obj 179 635 throw~ mainoutput;
#X obj 179 474 catch~ \$1-instrumentoutput;
#X obj 60 218 receive \$1-noteon;
#X obj 183 96 unpack s f;
#X obj 269 68 t l l;
#X obj 269 149 pack f f s;
#X obj 357 111 loadbang;
#X obj 357 132 symbol \$1;
#X msg 269 169 \; \$3-samplelength-\$2 \$1;
#X obj 535 50 receive \$1-resize;
#X obj 602 69 loadbang;
#X obj 602 91 symbol \$1;
#X obj 535 111 pack f f s;
#X msg 535 131 \; \$3-drum\$1 resize \$2;
#X obj 348 239 receive \$1-tabwrite;
#X obj 393 384 receive \$1-tabindex;
#X text 534 33 slot/length;
#X obj 580 250 s drums1-tabwrite;
#X obj 348 408 tabwrite;
#X obj 397 263 receive \$1-setwriteslot;
#X obj 442 284 loadbang;
#X obj 442 306 symbol \$1;
#X obj 397 328 pack f s;
#X msg 397 349 set \$2-drum\$1;
#X msg 549 296 1;
#X obj 549 319 s drums1-setwriteslot;
#X msg 549 352 3;
#X obj 549 373 s drums1-tabindex;
#X msg 580 226 20;
#X text 76 244 MIDI basenote for drums = 35, f 14;
#X obj 195 593 line~;
#X obj 195 546 receive \$1-volume;
#X msg 195 567 \$1 50;
#X obj 178 615 *~;
#X obj 327 546 loadbang;
#X msg 327 567 1 0;
#X obj 563 415 receive \$1-noteoff;
#N canvas 227 576 621 344 paramwriters 1;
#X obj 4 66 paramwriter \$1 0;
#X obj 4 38 r \$1-volume;
#X obj 162 5 table \$1-params;
#X connect 1 0 0 0;
#X restore 34 474 pd paramwriters;
#X obj 60 277 route 35 36 37 38;
#X obj 269 45 pack s f s;
#X obj 420 4 loadbang;
#X obj 420 28 symbol \$1;
#X msg 269 89 read -resize \$1 \$3-drum\$2;
#X obj 147 324 playdrum \$1-drum4 \$1 4;
#X obj 60 384 playdrum \$1-drum1 \$1 1;
#X obj 89 364 playdrum \$1-drum2 \$1 2;
#X obj 118 344 playdrum \$1-drum3 \$1 3;
#X obj 178 509 effects \$1;
#X connect 3 0 45 0;
#X connect 4 0 11 0;
#X connect 7 0 53 0;
#X connect 8 0 44 0;
#X connect 9 1 11 1;
#X connect 10 0 48 0;
#X connect 10 1 9 0;
#X connect 11 0 14 0;
#X connect 12 0 13 0;
#X connect 13 0 11 2;
#X connect 15 0 18 0;
#X connect 16 0 17 0;
#X connect 17 0 18 2;
#X connect 18 0 19 0;
#X connect 20 0 24 0;
#X connect 21 0 24 1;
#X connect 25 0 28 0;
#X connect 26 0 27 0;
#X connect 27 0 28 1;
#X connect 28 0 29 0;
#X connect 29 0 24 0;
#X connect 30 0 31 0;
#X connect 32 0 33 0;
#X connect 34 0 23 0;
#X connect 36 0 39 1;
#X connect 37 0 38 0;
#X connect 38 0 36 0;
#X connect 39 0 6 0;
#X connect 40 0 41 0;
#X connect 41 0 36 0;
#X connect 44 0 50 0;
#X connect 44 1 51 0;
#X connect 44 2 52 0;
#X connect 44 3 49 0;
#X connect 45 0 10 0;
#X connect 46 0 47 0;
#X connect 47 0 45 2;
#X connect 48 0 4 0;
#X connect 53 0 39 0;
