#N canvas 812 298 677 572 10;
#X obj 171 539 throw~ mainoutput;
#X obj 170 378 catch~ \$1-instrumentoutput;
#X obj 52 144 receive \$1-noteon;
#X obj 187 497 line~;
#X obj 187 450 receive \$1-volume;
#X msg 187 471 \$1 50;
#X obj 170 519 *~;
#X obj 319 459 loadbang;
#X msg 319 480 1 0;
#X obj 473 323 receive \$1-noteoff;
#N canvas 191 392 408 451 paramwriters 1;
#X obj 15 42 r \$1-volume;
#X obj 253 47 table \$1-params;
#X obj 15 70 paramwriter \$1 0;
#X obj 253 68 table \$1-params-1;
#X obj 253 91 table \$1-params-2;
#X obj 253 113 table \$1-params-3;
#X obj 253 136 table \$1-params-4;
#X obj 253 157 table \$1-params-5;
#X obj 253 180 table \$1-params-6;
#X obj 253 202 table \$1-params-7;
#X obj 253 225 table \$1-params-8;
#X obj 253 248 table \$1-params-9;
#X obj 253 271 table \$1-params-10;
#X obj 253 293 table \$1-params-11;
#X obj 253 316 table \$1-params-12;
#X obj 253 337 table \$1-params-13;
#X obj 253 360 table \$1-params-14;
#X obj 253 382 table \$1-params-15;
#X obj 253 405 table \$1-params-16;
#X obj 14 108 drumparamreceivers \$1 1;
#X obj 14 128 drumparamreceivers \$1 2;
#X obj 14 148 drumparamreceivers \$1 3;
#X obj 14 168 drumparamreceivers \$1 4;
#X obj 14 188 drumparamreceivers \$1 5;
#X obj 14 208 drumparamreceivers \$1 6;
#X obj 14 228 drumparamreceivers \$1 7;
#X obj 14 248 drumparamreceivers \$1 8;
#X obj 14 268 drumparamreceivers \$1 9;
#X obj 14 288 drumparamreceivers \$1 10;
#X obj 14 308 drumparamreceivers \$1 11;
#X obj 14 328 drumparamreceivers \$1 12;
#X obj 14 348 drumparamreceivers \$1 13;
#X obj 14 368 drumparamreceivers \$1 14;
#X obj 14 388 drumparamreceivers \$1 15;
#X obj 14 408 drumparamreceivers \$1 16;
#X connect 0 0 2 0;
#X restore 26 378 pd paramwriters;
#X obj 170 413 effects \$1;
#X msg 504 392 35 127;
#N canvas 939 509 450 300 setinitvolumes 0;
#X msg 94 82 1;
#X obj 94 18 loadbang;
#X obj 155 117 s \$1-volume-1;
#X obj 154 145 s \$1-volume-2;
#X obj 155 172 s \$1-volume-3;
#X obj 155 199 s \$1-volume-4;
#X connect 0 0 2 0;
#X connect 0 0 3 0;
#X connect 0 0 4 0;
#X connect 0 0 5 0;
#X connect 1 0 0 0;
#X restore 55 57 pd setinitvolumes;
#X msg 582 391 36 127;
#X obj 52 165 poly 4 1;
#X obj 52 187 pack f f f;
#X obj 118 233 playdrumpoly \$1;
#X obj 52 211 route 1 2 3 4;
#N canvas 623 458 450 300 wavetables 1;
#X obj 40 38 table \$1-drum2;
#X obj 40 57 table \$1-drum3;
#X obj 40 76 table \$1-drum4;
#X obj 40 19 table \$1-drum1;
#X obj 40 96 table \$1-drum5;
#X obj 40 115 table \$1-drum6;
#X obj 40 134 table \$1-drum7;
#X obj 40 153 table \$1-drum8;
#X obj 155 19 table \$1-drum9;
#X obj 155 38 table \$1-drum10;
#X obj 155 57 table \$1-drum11;
#X obj 155 76 table \$1-drum12;
#X obj 155 96 table \$1-drum13;
#X obj 155 115 table \$1-drum14;
#X obj 155 134 table \$1-drum15;
#X obj 155 153 table \$1-drum16;
#X restore 55 26 pd wavetables;
#N canvas 270 299 825 248 loadwave 1;
#X obj 108 21 receive \$1-filename;
#X obj 108 111 soundfiler;
#X obj 22 96 unpack s f;
#X obj 108 68 t l l;
#X obj 108 149 pack f f s;
#X obj 196 111 loadbang;
#X obj 196 132 symbol \$1;
#X obj 108 45 pack s f s;
#X obj 259 4 loadbang;
#X obj 259 28 symbol \$1;
#X msg 108 89 read -resize \$1 \$3-drum\$2;
#X obj 348 17 receive \$1-tabwrite;
#X obj 401 148 receive \$1-tabindex;
#X obj 348 168 tabwrite;
#X obj 397 41 receive \$1-setwriteslot;
#X obj 450 62 loadbang;
#X obj 450 84 symbol \$1;
#X obj 397 106 pack f s;
#X msg 397 127 set \$2-drum\$1;
#X obj 598 60 receive \$1-resize;
#X obj 665 79 loadbang;
#X obj 665 101 symbol \$1;
#X obj 598 121 pack f f s;
#X text 597 43 slot/length;
#X msg 108 169 \; \$3-samplelength-\$2 \$1 \; \$3-sampleend-\$2 \$1
\; \$3-samplestart-\$2 0 \;;
#X msg 598 141 \; \$3-drum\$1 resize \$2 \; \$3-samplelength-\$1 \$2
\; \$3-sampleend-\$1 \$2 \; \$3-samplestart-\$1 0 \;;
#X connect 0 0 7 0;
#X connect 1 0 4 0;
#X connect 2 1 4 1;
#X connect 3 0 10 0;
#X connect 3 1 2 0;
#X connect 4 0 24 0;
#X connect 5 0 6 0;
#X connect 6 0 4 2;
#X connect 7 0 3 0;
#X connect 8 0 9 0;
#X connect 9 0 7 2;
#X connect 10 0 1 0;
#X connect 11 0 13 0;
#X connect 12 0 13 1;
#X connect 14 0 17 0;
#X connect 15 0 16 0;
#X connect 16 0 17 1;
#X connect 17 0 18 0;
#X connect 18 0 13 0;
#X connect 19 0 22 0;
#X connect 20 0 21 0;
#X connect 21 0 22 2;
#X connect 22 0 25 0;
#X restore 56 85 pd loadwave;
#X obj 524 478 playdrumpoly \$1;
#X obj 74 273 playdrumpoly \$1;
#X obj 52 293 playdrumpoly \$1;
#X obj 96 253 playdrumpoly \$1;
#X connect 1 0 11 0;
#X connect 2 0 15 0;
#X connect 3 0 6 1;
#X connect 4 0 5 0;
#X connect 5 0 3 0;
#X connect 6 0 0 0;
#X connect 7 0 8 0;
#X connect 8 0 3 0;
#X connect 11 0 6 0;
#X connect 12 0 21 0;
#X connect 14 0 21 0;
#X connect 15 0 16 0;
#X connect 15 1 16 1;
#X connect 15 2 16 2;
#X connect 16 0 18 0;
#X connect 18 0 23 0;
#X connect 18 1 22 0;
#X connect 18 2 24 0;
#X connect 18 3 17 0;
