#N canvas 1718 237 922 651 10;
#X obj -59 151 openpanel;
#X obj -59 133 bng 15 250 50 0 empty empty empty 17 7 0 10 -262144
-1 -1;
#X msg 201 5 8;
#X msg 161 5 7;
#X msg 124 5 6;
#X msg 27 5 3;
#X msg 58 5 4;
#X msg 90 5 5;
#X obj 45 39 send \$1-noteon;
#X obj -59 195 send \$1-filename;
#X obj -59 257 openpanel;
#X obj -59 239 bng 15 250 50 0 empty empty empty 17 7 0 10 -262144
-1 -1;
#X obj -59 301 send \$1-filename;
#X obj -59 279 pack s 2;
#X obj -59 173 pack s 1;
#X obj -59 375 openpanel;
#X obj -59 357 bng 15 250 50 0 empty empty empty 17 7 0 10 -262144
-1 -1;
#X obj -59 419 send \$1-filename;
#X obj -59 397 pack s 3;
#X obj -59 487 openpanel;
#X obj -59 469 bng 15 250 50 0 empty empty empty 17 7 0 10 -262144
-1 -1;
#X obj -59 531 send \$1-filename;
#X obj -59 509 pack s 4;
#X obj 77 134 hsl 128 15 0 29271 0 0 \$1-samplestart-1 \$1-samplestart-ui-1
samplestart -2 -8 0 10 -262144 -1 -1 0 1;
#X obj 78 190 hsl 128 15 0 29271 0 0 \$1-sampleend-1 \$1-sampleend-ui-1
sampleend -2 -8 0 10 -262144 -1 -1 12700 1;
#X floatatom 75 208 10 0 0 0 - - -, f 10;
#X floatatom 74 155 10 0 0 0 - - -, f 10;
#X obj 77 244 hsl 128 15 0 16482 0 0 \$1-samplestart-2 \$1-samplestart-ui-2
samplestart -2 -8 0 10 -262144 -1 -1 0 1;
#X obj 78 300 hsl 128 15 0 16482 0 0 \$1-sampleend-2 \$1-sampleend-ui-2
sampleend -2 -8 0 10 -262144 -1 -1 12700 1;
#X floatatom 75 318 10 0 0 0 - - -, f 10;
#X floatatom 74 265 10 0 0 0 - - -, f 10;
#N canvas 492 585 138 94 setsamplelengths 0;
#N canvas 1009 309 284 180 setsamplelength1 0;
#X msg -57 -24 set \$1;
#X obj -94 -97 trigger b f f;
#X msg -94 -39 0;
#X obj -9 -73 pack f s;
#X obj 67 -112 loadbang;
#X obj 67 -90 symbol \$1;
#X obj -94 -122 receive \$1-samplelength-1;
#X obj -57 3 send \$1-sampleend-ui-1;
#X obj -94 28 send \$1-samplestart-ui-1;
#X msg -9 -49 \; \$2-sampleend-ui-1 range 0 \$1 \; \$2-samplestart-ui-1
range 0 \$1;
#X connect 0 0 7 0;
#X connect 1 0 2 0;
#X connect 1 1 0 0;
#X connect 1 2 3 0;
#X connect 2 0 8 0;
#X connect 3 0 9 0;
#X connect 4 0 5 0;
#X connect 5 0 3 1;
#X connect 6 0 1 0;
#X restore -62 -74 pd setsamplelength1;
#N canvas 1006 342 284 180 setsamplelength2 0;
#X msg -57 -24 set \$1;
#X obj -94 -97 trigger b f f;
#X msg -94 -39 0;
#X obj -9 -73 pack f s;
#X obj 67 -112 loadbang;
#X obj 67 -90 symbol \$1;
#X msg -9 -49 \; \$2-sampleend-ui-2 range 0 \$1 \; \$2-samplestart-ui-2
range 0 \$1;
#X obj -57 3 send \$1-sampleend-ui-2;
#X obj -94 28 send \$1-samplestart-ui-2;
#X obj -94 -122 receive \$1-samplelength-2;
#X connect 0 0 7 0;
#X connect 1 0 2 0;
#X connect 1 1 0 0;
#X connect 1 2 3 0;
#X connect 2 0 8 0;
#X connect 3 0 6 0;
#X connect 4 0 5 0;
#X connect 5 0 3 1;
#X connect 9 0 1 0;
#X restore -62 -52 pd setsamplelength2;
#N canvas 1006 342 284 180 setsamplelength3 0;
#X msg -57 -24 set \$1;
#X obj -94 -97 trigger b f f;
#X msg -94 -39 0;
#X obj -9 -73 pack f s;
#X obj 67 -112 loadbang;
#X obj 67 -90 symbol \$1;
#X msg -9 -49 \; \$2-sampleend-ui-3 range 0 \$1 \; \$2-samplestart-ui-3
range 0 \$1;
#X obj -57 3 send \$1-sampleend-ui-3;
#X obj -94 28 send \$1-samplestart-ui-3;
#X obj -94 -122 receive \$1-samplelength-3;
#X connect 0 0 7 0;
#X connect 1 0 2 0;
#X connect 1 1 0 0;
#X connect 1 2 3 0;
#X connect 2 0 8 0;
#X connect 3 0 6 0;
#X connect 4 0 5 0;
#X connect 5 0 3 1;
#X connect 9 0 1 0;
#X restore -62 -30 pd setsamplelength3;
#N canvas 1006 342 284 180 setsamplelength4 0;
#X msg -57 -24 set \$1;
#X obj -94 -97 trigger b f f;
#X msg -94 -39 0;
#X obj -9 -73 pack f s;
#X obj 67 -112 loadbang;
#X obj 67 -90 symbol \$1;
#X msg -9 -49 \; \$2-sampleend-ui-4 range 0 \$1 \; \$2-samplestart-ui-4
range 0 \$1;
#X obj -57 3 send \$1-sampleend-ui-4;
#X obj -94 28 send \$1-samplestart-ui-4;
#X obj -94 -122 receive \$1-samplelength-4;
#X connect 0 0 7 0;
#X connect 1 0 2 0;
#X connect 1 1 0 0;
#X connect 1 2 3 0;
#X connect 2 0 8 0;
#X connect 3 0 6 0;
#X connect 4 0 5 0;
#X connect 5 0 3 1;
#X connect 9 0 1 0;
#X restore -62 -9 pd setsamplelength4;
#X restore 1 -37 pd setsamplelengths;
#X obj 77 358 hsl 128 15 0 29271 0 0 \$1-samplestart-3 \$1-samplestart-ui-3
samplestart -2 -8 0 10 -262144 -1 -1 0 1;
#X obj 78 414 hsl 128 15 0 29271 0 0 \$1-sampleend-3 \$1-sampleend-ui-3
sampleend -2 -8 0 10 -262144 -1 -1 12700 1;
#X floatatom 75 432 10 0 0 0 - - -, f 10;
#X floatatom 74 379 10 0 0 0 - - -, f 10;
#X obj 77 465 hsl 128 15 0 29271 0 0 \$1-samplestart-4 \$1-samplestart-ui-4
samplestart -2 -8 0 10 -262144 -1 -1 0 1;
#X obj 78 521 hsl 128 15 0 29271 0 0 \$1-sampleend-4 \$1-sampleend-ui-4
sampleend -2 -8 0 10 -262144 -1 -1 12700 1;
#X floatatom 75 539 10 0 0 0 - - -, f 10;
#X floatatom 74 486 10 0 0 0 - - -, f 10;
#X obj 236 133 hsl 128 15 0 127 0 0 empty empty basenote -2 -8 0 10
-262144 -1 -1 0 1;
#X obj 235 190 hsl 128 15 0 127 0 0 empty empty finetune -2 -8 0 10
-262144 -1 -1 0 1;
#X floatatom 232 210 5 0 0 0 - - -, f 5;
#X floatatom 233 153 5 0 0 0 - - -, f 5;
#X obj 385 160 hsl 128 15 0 1 0 0 empty empty volume -2 -8 0 10 -262144
-1 -1 12700 1;
#X floatatom 382 180 5 0 0 0 - - -, f 5;
#X msg -33 5 1 20;
#X msg -3 5 2 20;
#X connect 0 0 14 0;
#X connect 1 0 0 0;
#X connect 2 0 8 0;
#X connect 3 0 8 0;
#X connect 4 0 8 0;
#X connect 5 0 8 0;
#X connect 6 0 8 0;
#X connect 7 0 8 0;
#X connect 10 0 13 0;
#X connect 11 0 10 0;
#X connect 13 0 12 0;
#X connect 14 0 9 0;
#X connect 15 0 18 0;
#X connect 16 0 15 0;
#X connect 18 0 17 0;
#X connect 19 0 22 0;
#X connect 20 0 19 0;
#X connect 22 0 21 0;
#X connect 23 0 26 0;
#X connect 24 0 25 0;
#X connect 27 0 30 0;
#X connect 28 0 29 0;
#X connect 32 0 35 0;
#X connect 33 0 34 0;
#X connect 36 0 39 0;
#X connect 37 0 38 0;
#X connect 40 0 43 0;
#X connect 41 0 42 0;
#X connect 44 0 45 0;
#X connect 46 0 8 0;
#X connect 47 0 8 0;
