#N canvas 1618 132 1535 846 10;
#X obj 321 -165 soundfiler;
#X obj 753 -279 == 1;
#X obj 813 -281 == 2;
#X obj 753 -253 moses 1;
#X obj 813 -253 moses 1;
#X obj 882 -253 moses 1;
#X obj 945 -254 moses 1;
#X obj 882 -281 == 3;
#X obj 945 -282 == 4;
#X obj 427 91 outlet~;
#X obj 864 -406 receive \$1-playnote;
#X obj 44 -389 table \$0-drum1;
#X obj 42 -361 table \$0-drum2;
#X obj 43 -330 table \$0-drum3;
#X obj 43 -298 table \$0-drum4;
#X obj 299 -412 receive \$1-filenames;
#X obj 298 -362 unpack s s s s;
#X obj 450 -359 float \$0;
#X obj 179 -297 pack s f;
#X obj 449 -387 loadbang;
#X msg 44 -238 read -resize \$1 \$2-drum1;
#X obj 96 -72 playit \$0-drum1 1;
#X obj 222 -71 playit \$0-drum2 1;
#X obj 351 -72 playit \$0-drum3 1;
#X obj 486 -74 playit \$0-drum4 1;
#X msg 207 -240 read -resize \$1 \$2-drum2;
#X msg 371 -240 read -resize \$1 \$2-drum3;
#X msg 542 -241 read -resize \$1 \$2-drum4;
#X obj 253 -298 pack s f;
#X obj 335 -298 pack s f;
#X obj 415 -297 pack s f;
#X connect 0 0 21 0;
#X connect 0 0 22 0;
#X connect 0 0 23 0;
#X connect 0 0 24 0;
#X connect 1 0 3 0;
#X connect 2 0 4 0;
#X connect 3 1 21 1;
#X connect 4 1 22 1;
#X connect 5 1 23 1;
#X connect 6 1 24 1;
#X connect 7 0 5 0;
#X connect 8 0 6 0;
#X connect 10 0 1 0;
#X connect 10 0 2 0;
#X connect 10 0 7 0;
#X connect 10 0 8 0;
#X connect 15 0 16 0;
#X connect 16 0 18 0;
#X connect 16 1 28 0;
#X connect 16 2 29 0;
#X connect 16 3 30 0;
#X connect 17 0 18 1;
#X connect 17 0 28 1;
#X connect 17 0 29 1;
#X connect 17 0 30 1;
#X connect 18 0 20 0;
#X connect 19 0 17 0;
#X connect 20 0 0 0;
#X connect 21 0 9 0;
#X connect 22 0 9 0;
#X connect 23 0 9 0;
#X connect 24 0 9 0;
#X connect 25 0 0 0;
#X connect 26 0 0 0;
#X connect 27 0 0 0;
#X connect 28 0 25 0;
#X connect 29 0 26 0;
#X connect 30 0 27 0;
