#N canvas 768 142 670 525 10;
#X obj 16 181 catch~ \$1-instrumentoutput;
#X obj 347 67 receive \$1-noteon;
#X obj 33 263 line~;
#X obj 33 202 receive \$1-volume;
#X msg 33 242 \$1 50;
#X obj 359 176 receive \$1-noteoff;
#N canvas 211 322 327 80 paramwriters 1;
#N canvas 131 299 343 348 slotparams 0;
#X obj 7 15 drumparamreceivers \$1 0;
#X obj 196 15 table \$1-params-0;
#X obj 196 35 table \$1-params-1;
#X obj 196 55 table \$1-params-2;
#X obj 196 75 table \$1-params-3;
#X obj 196 95 table \$1-params-4;
#X obj 196 115 table \$1-params-5;
#X obj 196 135 table \$1-params-6;
#X obj 196 155 table \$1-params-7;
#X obj 196 175 table \$1-params-8;
#X obj 196 195 table \$1-params-9;
#X obj 196 215 table \$1-params-10;
#X obj 196 235 table \$1-params-11;
#X obj 196 255 table \$1-params-12;
#X obj 196 275 table \$1-params-13;
#X obj 196 295 table \$1-params-14;
#X obj 196 315 table \$1-params-15;
#X obj 7 35 drumparamreceivers \$1 1;
#X obj 7 55 drumparamreceivers \$1 2;
#X obj 7 75 drumparamreceivers \$1 3;
#X obj 7 95 drumparamreceivers \$1 4;
#X obj 7 115 drumparamreceivers \$1 5;
#X obj 7 135 drumparamreceivers \$1 6;
#X obj 7 155 drumparamreceivers \$1 7;
#X obj 7 175 drumparamreceivers \$1 8;
#X obj 7 195 drumparamreceivers \$1 9;
#X obj 7 215 drumparamreceivers \$1 10;
#X obj 7 235 drumparamreceivers \$1 11;
#X obj 7 255 drumparamreceivers \$1 12;
#X obj 7 275 drumparamreceivers \$1 13;
#X obj 7 295 drumparamreceivers \$1 14;
#X obj 7 315 drumparamreceivers \$1 15;
#X restore 177 17 pd slotparams;
#X obj 11 36 mixerparamwriters \$1;
#X obj 11 16 fxparamwriters \$1;
#X restore 26 76 pd paramwriters;
#X obj 347 249 pack f f f;
#N canvas 604 346 450 300 wavetables 0;
#X obj 40 19 table \$1-drum0;
#X obj 40 38 table \$1-drum1;
#X obj 40 57 table \$1-drum2;
#X obj 40 76 table \$1-drum3;
#X obj 40 96 table \$1-drum4;
#X obj 40 115 table \$1-drum5;
#X obj 40 134 table \$1-drum6;
#X obj 40 153 table \$1-drum7;
#X obj 155 19 table \$1-drum8;
#X obj 155 38 table \$1-drum9;
#X obj 155 57 table \$1-drum10;
#X obj 155 76 table \$1-drum11;
#X obj 155 96 table \$1-drum12;
#X obj 155 115 table \$1-drum13;
#X obj 155 134 table \$1-drum14;
#X obj 155 153 table \$1-drum15;
#X restore 26 34 pd wavetables;
#N canvas 106 137 825 267 loadwave 0;
#X obj 108 21 receive \$1-filename;
#X obj 108 111 soundfiler;
#X obj 22 96 unpack s f;
#X obj 108 68 t l l;
#X obj 108 149 pack f f s;
#X obj 196 111 loadbang;
#X obj 196 132 symbol \$1;
#X obj 108 45 pack s f s;
#X obj 259 4 loadbang;
#X obj 259 28 symbol \$1;
#X msg 108 89 read -resize \$1 \$3-drum\$2;
#X obj 348 17 receive \$1-tabwrite;
#X obj 401 148 receive \$1-tabindex;
#X obj 348 168 tabwrite;
#X obj 397 41 receive \$1-setwriteslot;
#X obj 450 62 loadbang;
#X obj 450 84 symbol \$1;
#X obj 397 106 pack f s;
#X msg 397 127 set \$2-drum\$1;
#X obj 598 28 receive \$1-resize;
#X obj 701 120 loadbang;
#X obj 701 142 symbol \$1;
#X text 597 11 slot/length;
#X obj 682 96 - 1;
#X obj 598 52 unpack f f;
#X obj 655 75 t f f;
#X obj 598 165 pack f f f s;
#X msg 598 185 \; \$4-drum\$1 resize \$2 \; \$4-samplelength-\$1 \$2
\; \$4-sampleend-\$1 \$3 \; \$4-samplestart-\$1 0 \;;
#X msg 108 169 \; \$3-samplelength-\$2 \$1 \; \$3-sampleend-\$2 \$1
\; \$3-samplestart-\$2 0 \;;
#X connect 0 0 7 0;
#X connect 1 0 4 0;
#X connect 2 1 4 1;
#X connect 3 0 10 0;
#X connect 3 1 2 0;
#X connect 4 0 28 0;
#X connect 5 0 6 0;
#X connect 6 0 4 2;
#X connect 7 0 3 0;
#X connect 8 0 9 0;
#X connect 9 0 7 2;
#X connect 10 0 1 0;
#X connect 11 0 13 0;
#X connect 12 0 13 1;
#X connect 14 0 17 0;
#X connect 15 0 16 0;
#X connect 16 0 17 1;
#X connect 17 0 18 0;
#X connect 18 0 13 0;
#X connect 19 0 24 0;
#X connect 20 0 21 0;
#X connect 21 0 26 3;
#X connect 23 0 26 2;
#X connect 24 0 26 0;
#X connect 24 1 25 0;
#X connect 25 0 26 1;
#X connect 25 1 23 0;
#X connect 26 0 27 0;
#X restore 26 55 pd loadwave;
#N canvas 1691 156 881 668 automationhub 1;
#X obj 15 40 line;
#X obj 15 17 r \$1-auto-volume;
#X obj 15 61 s \$1-volume;
#X obj 16 308 r \$1-auto-del-delay;
#X obj 16 354 s \$1-del-delay;
#X obj 183 308 r \$1-auto-del-feedback;
#X obj 183 354 s \$1-del-feedback;
#X obj 351 308 r \$1-auto-del-wet;
#X obj 351 354 s \$1-del-wet;
#X obj 497 308 r \$1-auto-del-spread;
#X obj 14 450 r \$1-auto-chorus-depth;
#X obj 14 496 s \$1-chorus-depth;
#X obj 183 450 r \$1-auto-chorus-speed;
#X obj 183 496 s \$1-chorus-speed;
#X obj 350 450 r \$1-auto-chorus-spread;
#X obj 350 496 s \$1-chorus-spread;
#X obj 14 377 r \$1-auto-flg-freq;
#X obj 14 423 s \$1-flg-freq;
#X obj 180 377 r \$1-auto-flg-width;
#X obj 180 423 s \$1-flg-width;
#X obj 348 377 r \$1-auto-flg-feedback;
#X obj 348 423 s \$1-flg-feedback;
#X obj 527 377 r \$1-auto-flg-wet;
#X obj 527 423 s \$1-flg-wet;
#X obj 14 520 r \$1-auto-rev-damp;
#X obj 14 566 s \$1-rev-damp;
#X obj 182 520 r \$1-auto-rev-roomsize;
#X obj 182 566 s \$1-rev-roomsize;
#X obj 505 520 r \$1-auto-rev-wet;
#X obj 505 566 s \$1-rev-wet;
#X obj 349 520 r \$1-auto-rev-spread;
#X obj 349 566 s \$1-rev-spread;
#X obj 15 139 s \$1-fxfilter-freq;
#X obj 183 139 s \$1-fxfilter-q;
#X obj 15 93 r \$1-auto-fxfilter-freq;
#X obj 183 93 r \$1-auto-fxfilter-q;
#X obj 15 163 r \$1-auto-3eq-lowgain;
#X obj 15 209 s \$1-3eq-lowgain;
#X obj 182 163 r \$1-auto-3eq-midgain;
#X obj 182 209 s \$1-3eq-midgain;
#X obj 350 163 r \$1-auto-3eq-midfreq;
#X obj 350 209 s \$1-3eq-midfreq;
#X obj 529 163 r \$1-auto-3eq-midbw;
#X obj 529 209 s \$1-3eq-midbw;
#X obj 680 163 r \$1-auto-3eq-highgain;
#X obj 680 209 s \$1-3eq-highgain;
#X obj 16 238 r \$1-auto-tremolo-rate;
#X obj 16 284 s \$1-tremolo-rate;
#X obj 184 238 r \$1-auto-tremolo-smooth;
#X obj 184 284 s \$1-tremolo-smooth;
#X obj 366 238 r \$1-auto-tremolo-depth;
#X obj 366 284 s \$1-tremolo-depth;
#X obj 531 450 r \$1-auto-chorus-wet;
#X obj 531 496 s \$1-chorus-wet;
#X obj 14 593 r \$1-auto-gainer-gain;
#X obj 14 639 s \$1-gainer-gain;
#X obj 182 593 r \$1-auto-gainer-pan;
#X obj 182 639 s \$1-gainer-pan;
#X obj 14 616 autoline \$1-fxparams 35;
#X obj 15 115 autoline \$1-fxparams 22;
#X obj 183 117 autoline \$1-fxparams 23;
#X obj 15 186 autoline \$1-fxparams 25;
#X obj 182 187 autoline \$1-fxparams 26;
#X obj 350 187 autoline \$1-fxparams 27;
#X obj 529 186 autoline \$1-fxparams 28;
#X obj 680 186 autoline \$1-fxparams 29;
#X obj 16 261 autoline \$1-fxparams 31;
#X obj 184 261 autoline \$1-fxparams 32;
#X obj 366 261 autoline \$1-fxparams 33;
#X obj 16 330 autoline \$1-fxparams 6;
#X obj 183 332 autoline \$1-fxparams 7;
#X obj 351 331 autoline \$1-fxparams 8;
#X obj 497 332 autoline \$1-fxparams 9;
#X obj 497 354 s \$1-del-spread;
#X obj 14 400 autoline \$1-fxparams 11;
#X obj 180 401 autoline \$1-fxparams 12;
#X obj 348 400 autoline \$1-fxparams 13;
#X obj 527 401 autoline \$1-fxparams 14;
#X obj 14 473 autoline \$1-fxparams 16;
#X obj 183 474 autoline \$1-fxparams 17;
#X obj 350 474 autoline \$1-fxparams 18;
#X obj 531 474 autoline \$1-fxparams 19;
#X obj 14 545 autoline \$1-fxparams 1;
#X obj 182 543 autoline \$1-fxparams 2;
#X obj 349 544 autoline \$1-fxparams 3;
#X obj 505 544 autoline \$1-fxparams 4;
#X obj 182 617 autoline \$1-fxparams 36;
#X connect 0 0 2 0;
#X connect 1 0 0 0;
#X connect 3 0 69 0;
#X connect 5 0 70 0;
#X connect 7 0 71 0;
#X connect 9 0 72 0;
#X connect 10 0 78 0;
#X connect 12 0 79 0;
#X connect 14 0 80 0;
#X connect 16 0 74 0;
#X connect 18 0 75 0;
#X connect 20 0 76 0;
#X connect 22 0 77 0;
#X connect 24 0 82 0;
#X connect 26 0 83 0;
#X connect 28 0 85 0;
#X connect 30 0 84 0;
#X connect 34 0 59 0;
#X connect 35 0 60 0;
#X connect 36 0 61 0;
#X connect 38 0 62 0;
#X connect 40 0 63 0;
#X connect 42 0 64 0;
#X connect 44 0 65 0;
#X connect 46 0 66 0;
#X connect 48 0 67 0;
#X connect 50 0 68 0;
#X connect 52 0 81 0;
#X connect 54 0 58 0;
#X connect 56 0 86 0;
#X connect 58 0 55 0;
#X connect 59 0 32 0;
#X connect 60 0 33 0;
#X connect 61 0 37 0;
#X connect 62 0 39 0;
#X connect 63 0 41 0;
#X connect 64 0 43 0;
#X connect 65 0 45 0;
#X connect 66 0 47 0;
#X connect 67 0 49 0;
#X connect 68 0 51 0;
#X connect 69 0 4 0;
#X connect 70 0 6 0;
#X connect 71 0 8 0;
#X connect 72 0 73 0;
#X connect 74 0 17 0;
#X connect 75 0 19 0;
#X connect 76 0 21 0;
#X connect 77 0 23 0;
#X connect 78 0 11 0;
#X connect 79 0 13 0;
#X connect 80 0 15 0;
#X connect 81 0 53 0;
#X connect 82 0 25 0;
#X connect 83 0 27 0;
#X connect 84 0 31 0;
#X connect 85 0 29 0;
#X connect 86 0 57 0;
#X restore 26 96 pd automationhub;
#X obj 35 307 r \$1-pan;
#X obj 17 328 pan;
#X obj 17 439 throw~ mainoutputL;
#X obj 111 418 throw~ mainoutputR;
#X obj 151 225 loadbang;
#X msg 151 246 1 0;
#X obj 16 283 *~;
#X obj 33 223 logvolume -50 0;
#X obj 126 311 r \$1-mute;
#X msg 126 350 \$1 50;
#X obj 126 372 line~;
#X obj 17 396 *~;
#X obj 110 396 *~;
#X obj 205 334 loadbang;
#X msg 205 355 1 0;
#X obj 126 331 expr 1-$i1;
#X obj 347 273 route 1 2 3 4 5 6 7 8;
#X obj 16 365 effectschain~ \$1;
#X obj 359 199 pack 0 0;
#X obj 454 297 playdrumpoly \$1;
#X msg 492 192 clear;
#X obj 541 461 r stopallnotes;
#X obj 492 170 r \$1-stopnotes;
#X obj 541 482 s \$1-stopnotes;
#X obj 347 94 t l l;
#X msg 354 130 \$1;
#X obj 354 151 pack f 0;
#X obj 347 227 poly 8 1;
#X obj 347 440 playdrumpoly \$1;
#X obj 393 380 playdrumpoly \$1;
#X obj 362 420 playdrumpoly \$1;
#X obj 377 400 playdrumpoly \$1;
#X obj 408 359 playdrumpoly \$1;
#X obj 423 338 playdrumpoly \$1;
#X obj 439 318 playdrumpoly \$1;
#X connect 0 0 17 0;
#X connect 1 0 35 0;
#X connect 2 0 17 1;
#X connect 3 0 18 0;
#X connect 4 0 2 0;
#X connect 5 0 29 0;
#X connect 7 0 27 0;
#X connect 11 0 12 1;
#X connect 12 0 28 0;
#X connect 12 1 28 1;
#X connect 15 0 16 0;
#X connect 16 0 2 0;
#X connect 17 0 12 0;
#X connect 18 0 4 0;
#X connect 19 0 26 0;
#X connect 20 0 21 0;
#X connect 21 0 22 1;
#X connect 21 0 23 1;
#X connect 22 0 13 0;
#X connect 23 0 14 0;
#X connect 24 0 25 0;
#X connect 25 0 21 0;
#X connect 26 0 20 0;
#X connect 27 0 39 0;
#X connect 27 1 41 0;
#X connect 27 2 42 0;
#X connect 27 3 40 0;
#X connect 27 4 43 0;
#X connect 27 5 44 0;
#X connect 27 6 45 0;
#X connect 27 7 30 0;
#X connect 28 0 22 0;
#X connect 28 1 23 0;
#X connect 29 0 38 0;
#X connect 31 0 38 0;
#X connect 32 0 34 0;
#X connect 33 0 31 0;
#X connect 35 0 38 0;
#X connect 35 1 36 0;
#X connect 36 0 37 0;
#X connect 37 0 38 0;
#X connect 38 0 7 0;
#X connect 38 1 7 1;
#X connect 38 2 7 2;
