#N canvas 555 113 529 544 10;
#X obj 26 181 catch~ \$1-instrumentoutput;
#X obj 227 93 receive \$1-noteon;
#X obj 238 119 receive \$1-noteoff;
#N canvas 211 322 327 80 paramwriters 0;
#N canvas 131 299 343 348 slotparams 0;
#X obj 7 15 drumparamreceivers \$1 0;
#X obj 196 15 table \$1-params-0;
#X obj 196 35 table \$1-params-1;
#X obj 196 55 table \$1-params-2;
#X obj 196 75 table \$1-params-3;
#X obj 196 95 table \$1-params-4;
#X obj 196 115 table \$1-params-5;
#X obj 196 135 table \$1-params-6;
#X obj 196 155 table \$1-params-7;
#X obj 196 175 table \$1-params-8;
#X obj 196 195 table \$1-params-9;
#X obj 196 215 table \$1-params-10;
#X obj 196 235 table \$1-params-11;
#X obj 196 255 table \$1-params-12;
#X obj 196 275 table \$1-params-13;
#X obj 196 295 table \$1-params-14;
#X obj 196 315 table \$1-params-15;
#X obj 7 35 drumparamreceivers \$1 1;
#X obj 7 55 drumparamreceivers \$1 2;
#X obj 7 75 drumparamreceivers \$1 3;
#X obj 7 95 drumparamreceivers \$1 4;
#X obj 7 115 drumparamreceivers \$1 5;
#X obj 7 135 drumparamreceivers \$1 6;
#X obj 7 155 drumparamreceivers \$1 7;
#X obj 7 175 drumparamreceivers \$1 8;
#X obj 7 195 drumparamreceivers \$1 9;
#X obj 7 215 drumparamreceivers \$1 10;
#X obj 7 235 drumparamreceivers \$1 11;
#X obj 7 255 drumparamreceivers \$1 12;
#X obj 7 275 drumparamreceivers \$1 13;
#X obj 7 295 drumparamreceivers \$1 14;
#X obj 7 315 drumparamreceivers \$1 15;
#X restore 177 17 pd slotparams;
#X obj 11 36 mixerparamwriters \$1;
#X obj 11 16 fxparamwriters \$1;
#X restore 26 76 pd paramwriters;
#X obj 227 315 pack f f f;
#N canvas 604 346 450 300 wavetables 0;
#X obj 40 19 table \$1-drum0;
#X obj 40 38 table \$1-drum1;
#X obj 40 57 table \$1-drum2;
#X obj 40 76 table \$1-drum3;
#X obj 40 96 table \$1-drum4;
#X obj 40 115 table \$1-drum5;
#X obj 40 134 table \$1-drum6;
#X obj 40 153 table \$1-drum7;
#X obj 155 19 table \$1-drum8;
#X obj 155 38 table \$1-drum9;
#X obj 155 57 table \$1-drum10;
#X obj 155 76 table \$1-drum11;
#X obj 155 96 table \$1-drum12;
#X obj 155 115 table \$1-drum13;
#X obj 155 134 table \$1-drum14;
#X obj 155 153 table \$1-drum15;
#X restore 26 34 pd wavetables;
#N canvas 106 137 825 267 loadwave 0;
#X obj 108 21 receive \$1-filename;
#X obj 108 111 soundfiler;
#X obj 22 96 unpack s f;
#X obj 108 68 t l l;
#X obj 108 149 pack f f s;
#X obj 196 111 loadbang;
#X obj 196 132 symbol \$1;
#X obj 108 45 pack s f s;
#X obj 259 4 loadbang;
#X obj 259 28 symbol \$1;
#X msg 108 89 read -resize \$1 \$3-drum\$2;
#X obj 348 17 receive \$1-tabwrite;
#X obj 401 148 receive \$1-tabindex;
#X obj 348 168 tabwrite;
#X obj 397 41 receive \$1-setwriteslot;
#X obj 450 62 loadbang;
#X obj 450 84 symbol \$1;
#X obj 397 106 pack f s;
#X msg 397 127 set \$2-drum\$1;
#X obj 598 28 receive \$1-resize;
#X obj 701 120 loadbang;
#X obj 701 142 symbol \$1;
#X text 597 11 slot/length;
#X obj 682 96 - 1;
#X obj 598 52 unpack f f;
#X obj 655 75 t f f;
#X obj 598 165 pack f f f s;
#X msg 598 185 \; \$4-drum\$1 resize \$2 \; \$4-samplelength-\$1 \$2 \; \$4-sampleend-\$1 \$3 \; \$4-samplestart-\$1 0 \;;
#X msg 108 169 \; \$3-samplelength-\$2 \$1 \; \$3-sampleend-\$2 \$1 \; \$3-samplestart-\$2 0 \;;
#X connect 0 0 7 0;
#X connect 1 0 4 0;
#X connect 2 1 4 1;
#X connect 3 0 10 0;
#X connect 3 1 2 0;
#X connect 4 0 28 0;
#X connect 5 0 6 0;
#X connect 6 0 4 2;
#X connect 7 0 3 0;
#X connect 8 0 9 0;
#X connect 9 0 7 2;
#X connect 10 0 1 0;
#X connect 11 0 13 0;
#X connect 12 0 13 1;
#X connect 14 0 17 0;
#X connect 15 0 16 0;
#X connect 16 0 17 1;
#X connect 17 0 18 0;
#X connect 18 0 13 0;
#X connect 19 0 24 0;
#X connect 20 0 21 0;
#X connect 21 0 26 3;
#X connect 23 0 26 2;
#X connect 24 0 26 0;
#X connect 24 1 25 0;
#X connect 25 0 26 1;
#X connect 25 1 23 0;
#X connect 26 0 27 0;
#X restore 26 55 pd loadwave;
#N canvas 690 183 322 955 automationhub 0;
#X obj 13 388 autoline \$1 fxparams 22 fxfilter-freq;
#X obj 13 409 autoline \$1 fxparams 23 fxfilter-q;
#X obj 13 448 autoline \$1 fxparams 25 3eq-lowgain;
#X obj 13 468 autoline \$1 fxparams 26 3eq-midgain;
#X obj 13 488 autoline \$1 fxparams 27 3eq-midfreq;
#X obj 13 508 autoline \$1 fxparams 28 3eq-midbw;
#X obj 13 528 autoline \$1 fxparams 29 3eq-highgain;
#X obj 13 563 autoline \$1 fxparams 31 tremolo-rate;
#X obj 13 583 autoline \$1 fxparams 32 tremolo-smooth;
#X obj 13 603 autoline \$1 fxparams 33 tremolo-depth;
#X obj 13 110 autoline \$1 fxparams 6 del-delay;
#X obj 13 130 autoline \$1 fxparams 7 del-feedback;
#X obj 13 150 autoline \$1 fxparams 8 del-wet;
#X obj 13 170 autoline \$1 fxparams 9 del-spread;
#X obj 13 201 autoline \$1 fxparams 11 flg-freq;
#X obj 13 221 autoline \$1 fxparams 12 flg-width;
#X obj 13 241 autoline \$1 fxparams 13 flg-feedback;
#X obj 13 261 autoline \$1 fxparams 14 flg-wet;
#X obj 13 294 autoline \$1 fxparams 16 chorus-depth;
#X obj 13 314 autoline \$1 fxparams 17 chorus-speed;
#X obj 13 334 autoline \$1 fxparams 18 chorus-spread;
#X obj 13 354 autoline \$1 fxparams 19 chorus-wet;
#X obj 13 23 autoline \$1 fxparams 1 rev-damp;
#X obj 13 43 autoline \$1 fxparams 2 rev-roomsize;
#X obj 13 63 autoline \$1 fxparams 3 rev-spread;
#X obj 13 83 autoline \$1 fxparams 4 rev-wet;
#X obj 13 641 autoline \$1 fxparams 35 gainer-gain;
#X obj 13 661 autoline \$1 fxparams 36 gainer-pan;
#X obj 12 694 autoline \$1 fxparams 38 bitcrusher-crush;
#X obj 12 714 autoline \$1 fxparams 39 bitcrusher-rate;
#X obj 12 734 autoline \$1 fxparams 40 bitcrusher-noise;
#X obj 12 755 autoline \$1 fxparams 41 bitcrusher-mix;
#X obj 12 789 autoline \$1 fxparams 43 distortion-drive;
#X obj 12 809 autoline \$1 fxparams 44 distortion-fuzziness;
#X obj 12 829 autoline \$1 fxparams 45 distortion-fuzzfreq;
#X obj 12 872 autoline \$1 fxparams 47 distortion-mix;
#X obj 12 850 autoline \$1 fxparams 46 distortion-postgain;
#X restore 26 96 pd automationhub;
#X obj 45 211 r \$1-pan;
#X obj 27 232 pan;
#X obj 25 477 throw~ mainoutputL;
#X obj 64 433 throw~ mainoutputR;
#X obj 26 269 effectschain~ \$1;
#X obj 238 142 pack 0 0;
#X msg 396 189 clear;
#X obj 400 28 r stopallnotes;
#N canvas 719 872 450 300 mute 0;
#X obj 110 41 inlet~;
#X obj 192 41 inlet~;
#X obj 252 33 r \$1-mute;
#X msg 252 74 \$1 50;
#X obj 252 107 line~;
#X obj 109 150 *~;
#X obj 193 150 *~;
#X obj 324 44 loadbang;
#X msg 324 68 1 0;
#X obj 252 53 expr 1-$i1;
#X obj 108 211 outlet~;
#X obj 192 211 outlet~;
#X connect 0 0 5 0;
#X connect 1 0 6 0;
#X connect 2 0 9 0;
#X connect 3 0 4 0;
#X connect 4 0 5 1;
#X connect 4 0 6 1;
#X connect 5 0 10 0;
#X connect 6 0 11 0;
#X connect 7 0 8 0;
#X connect 8 0 4 0;
#X connect 9 0 3 0;
#X restore 26 382 pd mute;
#N canvas 1461 642 412 356 volume 0;
#X obj 30 42 inlet~;
#X obj 160 42 inlet~;
#X obj 31 237 *~;
#X msg 174 145 \$1 50;
#X obj 229 136 loadbang;
#X msg 229 157 1 0;
#X obj 174 89 receive \$1-volume;
#X obj 174 108 logvolume -50 0;
#X obj 174 188 line~;
#X obj 159 237 *~;
#X obj 30 282 outlet~;
#X obj 158 282 outlet~;
#X connect 0 0 2 0;
#X connect 1 0 9 0;
#X connect 2 0 10 0;
#X connect 3 0 8 0;
#X connect 4 0 5 0;
#X connect 5 0 8 0;
#X connect 6 0 7 0;
#X connect 7 0 3 0;
#X connect 8 0 2 1;
#X connect 8 0 9 1;
#X connect 9 0 11 0;
#X restore 25 318 pd volume;
#X obj 227 282 - 1;
#X obj 227 253 poly 64 1;
#X obj 227 349 clone -x playdrumpoly 64 \$1;
#N canvas 1325 239 468 320 waveplayback 0;
#X obj 17 27 r \$1-waveplaybackstart;
#X obj 17 203 pack f f;
#X obj 17 139 t f b;
#X obj 62 182 127;
#X obj 17 160 + 35;
#X obj 17 239 playdrumpoly \$1 1;
#X obj 116 214 r \$1-waveplaybackstop;
#X obj 244 12 r \$1-waveplaybackstopinstant;
#X obj 164 110 switch~;
#X obj 283 65 s \$1-waveplaybackstop;
#X obj 164 76 1;
#X obj 244 134 0 0 0 1;
#X obj 244 159 s libpdhost-waveplaybackframe;
#X obj 244 38 t b 0 b;
#X obj 17 58 t f b;
#X connect 0 0 14 0;
#X connect 1 0 5 0;
#X connect 2 0 4 0;
#X connect 2 1 3 0;
#X connect 3 0 1 1;
#X connect 4 0 1 0;
#X connect 6 0 5 1;
#X connect 7 0 13 0;
#X connect 10 0 8 0;
#X connect 11 0 12 0;
#X connect 13 0 11 0;
#X connect 13 1 8 0;
#X connect 13 2 9 0;
#X connect 14 0 2 0;
#X connect 14 1 10 0;
#X restore 26 117 pd waveplayback;
#N canvas 1122 616 450 300 noteplayback 1;
#X obj 32 20 r \$1-noteplayback;
#X obj 32 258 s \$1-noteon;
#X obj 32 195 pack f f;
#X obj 32 52 t l b;
#X obj 59 97 s \$1-stopnotes;
#X obj 32 126 unpack f f;
#X connect 0 0 3 0;
#X connect 2 0 1 0;
#X connect 3 0 5 0;
#X connect 3 1 4 0;
#X connect 5 0 2 0;
#X connect 5 1 2 1;
#X restore 26 137 pd noteplayback;
#N canvas 1179 342 366 387 drumnotesloop 0;
#X obj 47 54 t b b;
#X obj 47 199 f;
#X obj 62 171 35;
#X obj 47 127 until;
#X obj 100 198 + 1;
#X obj 100 221 mod 51;
#X obj 100 245 sel 0;
#X obj 47 27 inlet;
#X obj 47 300 outlet;
#X obj 74 101 r \$0-untilstop;
#X obj 100 268 s \$0-untilstop;
#X obj 74 76 s \$0-initval;
#X obj 62 149 r \$0-initval;
#X connect 0 0 3 0;
#X connect 0 1 11 0;
#X connect 1 0 4 0;
#X connect 1 0 8 0;
#X connect 2 0 1 1;
#X connect 3 0 1 0;
#X connect 4 0 5 0;
#X connect 5 0 1 1;
#X connect 5 0 6 0;
#X connect 6 0 10 0;
#X connect 7 0 0 0;
#X connect 9 0 3 1;
#X connect 12 0 2 0;
#X restore 423 145 pd drumnotesloop;
#X obj 423 166 s \$1-noteoff;
#X obj 396 90 r \$1-stopnotes;
#X obj 400 49 s \$1-stopnotes;
#X obj 396 113 t b b;
#X connect 0 0 9 0;
#X connect 1 0 19 0;
#X connect 2 0 13 0;
#X connect 4 0 20 0;
#X connect 8 0 9 1;
#X connect 9 0 12 0;
#X connect 9 1 12 1;
#X connect 12 0 17 0;
#X connect 12 1 17 1;
#X connect 13 0 19 0;
#X connect 14 0 19 0;
#X connect 15 0 26 0;
#X connect 16 0 10 0;
#X connect 16 1 11 0;
#X connect 17 0 16 0;
#X connect 17 1 16 1;
#X connect 18 0 4 0;
#X connect 19 0 18 0;
#X connect 19 1 4 1;
#X connect 19 2 4 2;
#X connect 23 0 24 0;
#X connect 25 0 27 0;
#X connect 27 0 14 0;
#X connect 27 1 23 0;
