#N canvas 812 298 677 572 10;
#X obj 171 539 throw~ mainoutput;
#X obj 170 378 catch~ \$1-instrumentoutput;
#X obj 52 144 receive \$1-noteon;
#X obj 187 497 line~;
#X obj 187 450 receive \$1-volume;
#X msg 187 471 \$1 50;
#X obj 170 519 *~;
#X obj 319 459 loadbang;
#X msg 319 480 1 0;
#X obj 473 323 receive \$1-noteoff;
#N canvas 301 457 1062 466 paramwriters 1;
#X obj 15 42 r \$1-volume;
#X obj 173 9 table \$1-params;
#X obj 358 99 r \$1-samplelength-1;
#X obj 189 100 r \$1-sampleend-1;
#X obj 15 100 r \$1-samplestart-1;
#X obj 15 70 paramwriter \$1 0;
#X obj 15 128 drumparamwriter \$1 1 1;
#X obj 189 128 drumparamwriter \$1 1 2;
#X obj 358 128 drumparamwriter \$1 1 3;
#X obj 15 156 r \$1-samplestart-2;
#X obj 189 156 r \$1-sampleend-2;
#X obj 358 155 r \$1-samplelength-2;
#X obj 306 9 table \$1-params-1;
#X obj 15 184 drumparamwriter \$1 2 1;
#X obj 189 184 drumparamwriter \$1 2 2;
#X obj 358 184 drumparamwriter \$1 2 3;
#X obj 529 99 r \$1-volume-1;
#X obj 529 128 drumparamwriter \$1 1 4;
#X obj 529 155 r \$1-volume-2;
#X obj 529 184 drumparamwriter \$1 2 4;
#X obj 701 99 r \$1-finetune-1;
#X obj 701 128 drumparamwriter \$1 1 5;
#X obj 701 155 r \$1-finetune-2;
#X obj 701 184 drumparamwriter \$1 2 5;
#X obj 15 214 r \$1-samplestart-3;
#X obj 189 214 r \$1-sampleend-3;
#X obj 358 213 r \$1-samplelength-3;
#X obj 529 213 r \$1-volume-3;
#X obj 701 213 r \$1-finetune-3;
#X obj 15 242 drumparamwriter \$1 3 1;
#X obj 189 242 drumparamwriter \$1 3 2;
#X obj 358 242 drumparamwriter \$1 3 3;
#X obj 529 242 drumparamwriter \$1 3 4;
#X obj 701 242 drumparamwriter \$1 3 5;
#X obj 15 270 r \$1-samplestart-4;
#X obj 189 270 r \$1-sampleend-4;
#X obj 358 269 r \$1-samplelength-4;
#X obj 529 269 r \$1-volume-4;
#X obj 701 269 r \$1-finetune-4;
#X obj 15 298 drumparamwriter \$1 4 1;
#X obj 189 298 drumparamwriter \$1 4 2;
#X obj 358 298 drumparamwriter \$1 4 3;
#X obj 529 298 drumparamwriter \$1 4 4;
#X obj 701 298 drumparamwriter \$1 4 5;
#X obj 436 10 table \$1-params-2;
#X obj 567 9 table \$1-params-3;
#X obj 702 9 table \$1-params-4;
#X obj 25 382 print samplestart1;
#X obj 246 406 print sampleend1;
#X obj 413 404 print samplelength1;
#X obj 647 387 print volume1;
#X connect 0 0 5 0;
#X connect 2 0 8 0;
#X connect 2 0 49 0;
#X connect 3 0 7 0;
#X connect 3 0 48 0;
#X connect 4 0 6 0;
#X connect 4 0 47 0;
#X connect 9 0 13 0;
#X connect 10 0 14 0;
#X connect 11 0 15 0;
#X connect 16 0 17 0;
#X connect 16 0 50 0;
#X connect 18 0 19 0;
#X connect 20 0 21 0;
#X connect 22 0 23 0;
#X connect 24 0 29 0;
#X connect 25 0 30 0;
#X connect 26 0 31 0;
#X connect 27 0 32 0;
#X connect 28 0 33 0;
#X connect 34 0 39 0;
#X connect 35 0 40 0;
#X connect 36 0 41 0;
#X connect 37 0 42 0;
#X connect 38 0 43 0;
#X restore 26 378 pd paramwriters;
#X obj 170 413 effects \$1;
#X msg 504 392 35 127;
#N canvas 939 509 450 300 setinitvolumes 0;
#X msg 94 82 1;
#X obj 94 18 loadbang;
#X obj 155 117 s \$1-volume-1;
#X obj 154 145 s \$1-volume-2;
#X obj 155 172 s \$1-volume-3;
#X obj 155 199 s \$1-volume-4;
#X connect 0 0 2 0;
#X connect 0 0 3 0;
#X connect 0 0 4 0;
#X connect 0 0 5 0;
#X connect 1 0 0 0;
#X restore 55 57 pd setinitvolumes;
#X msg 582 391 36 127;
#X obj 52 165 poly 4 1;
#X obj 52 187 pack f f f;
#X obj 118 233 playdrumpoly \$1;
#X obj 524 478 playdrumpoly \$1;
#X obj 74 273 playdrumpoly \$1;
#X obj 52 293 playdrumpoly \$1;
#X obj 96 253 playdrumpoly \$1;
#X obj 52 211 route 1 2 3 4;
#N canvas 626 454 450 300 wavetables 0;
#X obj 40 38 table \$1-drum2;
#X obj 40 57 table \$1-drum3;
#X obj 40 76 table \$1-drum4;
#X obj 40 19 table \$1-drum1;
#X obj 40 96 table \$1-drum5;
#X obj 40 115 table \$1-drum6;
#X obj 40 134 table \$1-drum7;
#X obj 40 153 table \$1-drum8;
#X restore 55 26 pd wavetables;
#N canvas 270 299 825 248 loadwave 1;
#X obj 108 21 receive \$1-filename;
#X obj 108 111 soundfiler;
#X obj 22 96 unpack s f;
#X obj 108 68 t l l;
#X obj 108 149 pack f f s;
#X obj 196 111 loadbang;
#X obj 196 132 symbol \$1;
#X obj 108 45 pack s f s;
#X obj 259 4 loadbang;
#X obj 259 28 symbol \$1;
#X msg 108 89 read -resize \$1 \$3-drum\$2;
#X obj 348 17 receive \$1-tabwrite;
#X obj 401 148 receive \$1-tabindex;
#X obj 348 168 tabwrite;
#X obj 397 41 receive \$1-setwriteslot;
#X obj 450 62 loadbang;
#X obj 450 84 symbol \$1;
#X obj 397 106 pack f s;
#X msg 397 127 set \$2-drum\$1;
#X obj 598 60 receive \$1-resize;
#X obj 665 79 loadbang;
#X obj 665 101 symbol \$1;
#X obj 598 121 pack f f s;
#X text 597 43 slot/length;
#X msg 108 169 \; \$3-samplelength-\$2 \$1 \; \$3-sampleend-\$2 \$1
\; \$3-samplestart-\$2 0 \;;
#X msg 598 141 \; \$3-drum\$1 resize \$2 \; \$3-samplelength-\$1 \$2
\; \$3-sampleend-\$1 \$2 \; \$3-samplestart-\$1 0 \;;
#X connect 0 0 7 0;
#X connect 1 0 4 0;
#X connect 2 1 4 1;
#X connect 3 0 10 0;
#X connect 3 1 2 0;
#X connect 4 0 24 0;
#X connect 5 0 6 0;
#X connect 6 0 4 2;
#X connect 7 0 3 0;
#X connect 8 0 9 0;
#X connect 9 0 7 2;
#X connect 10 0 1 0;
#X connect 11 0 13 0;
#X connect 12 0 13 1;
#X connect 14 0 17 0;
#X connect 15 0 16 0;
#X connect 16 0 17 1;
#X connect 17 0 18 0;
#X connect 18 0 13 0;
#X connect 19 0 22 0;
#X connect 20 0 21 0;
#X connect 21 0 22 2;
#X connect 22 0 25 0;
#X restore 56 85 pd loadwave;
#X connect 1 0 11 0;
#X connect 2 0 15 0;
#X connect 3 0 6 1;
#X connect 4 0 5 0;
#X connect 5 0 3 0;
#X connect 6 0 0 0;
#X connect 7 0 8 0;
#X connect 8 0 3 0;
#X connect 11 0 6 0;
#X connect 12 0 18 0;
#X connect 14 0 18 0;
#X connect 15 0 16 0;
#X connect 15 1 16 1;
#X connect 15 2 16 2;
#X connect 16 0 22 0;
#X connect 22 0 20 0;
#X connect 22 1 19 0;
#X connect 22 2 21 0;
#X connect 22 3 17 0;
