#N canvas 254 433 422 418 10;
#X obj 57 221 catch~ \$1-instrumentoutput;
#X obj 235 20 receive \$1-noteon;
#X obj 164 325 line~;
#X obj 164 278 receive \$1-volume;
#X msg 164 299 \$1 50;
#X obj 57 340 *~;
#X obj 296 287 loadbang;
#X msg 296 308 1 0;
#X obj 261 203 receive \$1-noteoff;
#N canvas 571 346 327 61 paramwriters 0;
#N canvas 182 290 866 437 trackparams 0;
#X obj 8 10 r \$1-volume;
#X obj 8 38 paramwriter \$1 0;
#X obj 285 11 table \$1-params;
#X obj 147 62 r \$1-rev-damp;
#X obj 7 62 r \$1-rev-enable;
#X obj 303 62 r \$1-rev-roomsize;
#X obj 582 62 r \$1-rev-dry;
#X obj 717 62 r \$1-rev-wet;
#X obj 8 118 r \$1-del-enable;
#X obj 145 118 r \$1-del-delay;
#X obj 303 118 r \$1-del-feedback;
#X obj 447 118 r \$1-del-wet;
#X obj 8 172 r \$1-flg-enable;
#X obj 449 62 r \$1-rev-spread;
#X obj 585 118 r \$1-del-spread;
#X obj 8 220 r \$1-chorus-enable;
#X obj 145 220 r \$1-chorus-depth;
#X obj 303 220 r \$1-chorus-speed;
#X obj 453 220 r \$1-chorus-spread;
#X obj 594 220 r \$1-chorus-drywet;
#X obj 145 172 r \$1-flg-freq;
#X obj 303 172 r \$1-flg-width;
#X obj 453 172 r \$1-flg-feedback;
#X obj 594 172 r \$1-flg-wet;
#X obj 7 84 paramwriter \$1 20;
#X obj 147 84 paramwriter \$1 21;
#X obj 303 84 paramwriter \$1 22;
#X obj 449 84 paramwriter \$1 23;
#X obj 582 84 paramwriter \$1 24;
#X obj 717 84 paramwriter \$1 25;
#X obj 8 140 paramwriter \$1 26;
#X obj 145 140 paramwriter \$1 27;
#X obj 303 140 paramwriter \$1 28;
#X obj 447 140 paramwriter \$1 29;
#X obj 585 140 paramwriter \$1 30;
#X obj 8 192 paramwriter \$1 31;
#X obj 145 193 paramwriter \$1 32;
#X obj 303 192 paramwriter \$1 33;
#X obj 453 192 paramwriter \$1 34;
#X obj 594 192 paramwriter \$1 35;
#X obj 8 242 paramwriter \$1 36;
#X obj 145 243 paramwriter \$1 37;
#X obj 303 242 paramwriter \$1 38;
#X obj 453 242 paramwriter \$1 39;
#X obj 594 242 paramwriter \$1 40;
#X obj 8 271 r \$1-fxfilter-enable;
#X obj 8 296 paramwriter \$1 41;
#X obj 162 271 r \$1-fxfilter-mode;
#X obj 162 297 paramwriter \$1 42;
#X obj 303 271 r \$1-fxfilter-freq;
#X obj 303 296 paramwriter \$1 43;
#X obj 453 271 r \$1-fxfilter-q;
#X obj 453 296 paramwriter \$1 44;
#X obj 8 323 r \$1-3eq-enable;
#X obj 8 346 paramwriter \$1 45;
#X obj 162 323 r \$1-3eq-lowgain;
#X obj 162 347 paramwriter \$1 46;
#X obj 303 323 r \$1-3eq-midgain;
#X obj 303 346 paramwriter \$1 47;
#X obj 453 323 r \$1-3eq-midfreq;
#X obj 453 346 paramwriter \$1 48;
#X obj 584 323 r \$1-3eq-midbw;
#X obj 584 346 paramwriter \$1 49;
#X obj 719 323 r \$1-3eq-highgain;
#X obj 719 346 paramwriter \$1 50;
#X obj 8 374 r \$1-tremolo-enable;
#X obj 8 399 paramwriter \$1 51;
#X obj 162 374 r \$1-tremolo-rate;
#X obj 162 400 paramwriter \$1 52;
#X obj 303 374 r \$1-tremolo-smooth;
#X obj 303 399 paramwriter \$1 53;
#X obj 453 374 r \$1-tremolo-depth;
#X obj 453 399 paramwriter \$1 54;
#X connect 0 0 1 0;
#X connect 3 0 25 0;
#X connect 4 0 24 0;
#X connect 5 0 26 0;
#X connect 6 0 28 0;
#X connect 7 0 29 0;
#X connect 8 0 30 0;
#X connect 9 0 31 0;
#X connect 10 0 32 0;
#X connect 11 0 33 0;
#X connect 12 0 35 0;
#X connect 13 0 27 0;
#X connect 14 0 34 0;
#X connect 15 0 40 0;
#X connect 16 0 41 0;
#X connect 17 0 42 0;
#X connect 18 0 43 0;
#X connect 19 0 44 0;
#X connect 20 0 36 0;
#X connect 21 0 37 0;
#X connect 22 0 38 0;
#X connect 23 0 39 0;
#X connect 45 0 46 0;
#X connect 47 0 48 0;
#X connect 49 0 50 0;
#X connect 51 0 52 0;
#X connect 53 0 54 0;
#X connect 55 0 56 0;
#X connect 57 0 58 0;
#X connect 59 0 60 0;
#X connect 61 0 62 0;
#X connect 63 0 64 0;
#X connect 65 0 66 0;
#X connect 67 0 68 0;
#X connect 69 0 70 0;
#X connect 71 0 72 0;
#X restore 13 15 pd trackparams;
#N canvas 65 221 343 348 slotparams 0;
#X obj 7 15 drumparamreceivers \$1 0;
#X obj 7 35 drumparamreceivers \$1 1;
#X obj 7 55 drumparamreceivers \$1 2;
#X obj 7 75 drumparamreceivers \$1 3;
#X obj 7 95 drumparamreceivers \$1 4;
#X obj 7 115 drumparamreceivers \$1 5;
#X obj 7 135 drumparamreceivers \$1 6;
#X obj 7 155 drumparamreceivers \$1 7;
#X obj 7 175 drumparamreceivers \$1 8;
#X obj 7 195 drumparamreceivers \$1 9;
#X obj 7 215 drumparamreceivers \$1 10;
#X obj 7 235 drumparamreceivers \$1 11;
#X obj 7 255 drumparamreceivers \$1 12;
#X obj 7 275 drumparamreceivers \$1 13;
#X obj 7 295 drumparamreceivers \$1 14;
#X obj 7 315 drumparamreceivers \$1 15;
#X obj 196 15 table \$1-params-0;
#X obj 196 35 table \$1-params-1;
#X obj 196 55 table \$1-params-2;
#X obj 196 75 table \$1-params-3;
#X obj 196 95 table \$1-params-4;
#X obj 196 115 table \$1-params-5;
#X obj 196 135 table \$1-params-6;
#X obj 196 155 table \$1-params-7;
#X obj 196 175 table \$1-params-8;
#X obj 196 195 table \$1-params-9;
#X obj 196 215 table \$1-params-10;
#X obj 196 235 table \$1-params-11;
#X obj 196 255 table \$1-params-12;
#X obj 196 275 table \$1-params-13;
#X obj 196 295 table \$1-params-14;
#X obj 196 315 table \$1-params-15;
#X restore 131 15 pd slotparams;
#X restore 55 85 pd paramwriters;
#N canvas 101 512 450 300 setinitvolumes 0;
#X msg 94 82 1;
#X obj 94 18 loadbang;
#X obj 155 117 s \$1-volume-0;
#X obj 154 145 s \$1-volume-1;
#X obj 155 172 s \$1-volume-2;
#X obj 155 199 s \$1-volume-3;
#X connect 0 0 2 0;
#X connect 0 0 3 0;
#X connect 0 0 4 0;
#X connect 0 0 5 0;
#X connect 1 0 0 0;
#X restore 55 46 pd setinitvolumes;
#X obj 235 41 poly 4 1;
#X obj 235 63 pack f f f;
#X obj 301 109 playdrumpoly \$1;
#X obj 235 87 route 1 2 3 4;
#N canvas 620 462 450 300 wavetables 0;
#X obj 40 19 table \$1-drum0;
#X obj 40 38 table \$1-drum1;
#X obj 40 57 table \$1-drum2;
#X obj 40 76 table \$1-drum3;
#X obj 40 96 table \$1-drum4;
#X obj 40 115 table \$1-drum5;
#X obj 40 134 table \$1-drum6;
#X obj 40 153 table \$1-drum7;
#X obj 155 19 table \$1-drum8;
#X obj 155 38 table \$1-drum9;
#X obj 155 57 table \$1-drum10;
#X obj 155 76 table \$1-drum11;
#X obj 155 96 table \$1-drum12;
#X obj 155 115 table \$1-drum13;
#X obj 155 134 table \$1-drum14;
#X obj 155 153 table \$1-drum15;
#X restore 55 26 pd wavetables;
#N canvas 270 299 825 248 loadwave 0;
#X obj 108 21 receive \$1-filename;
#X obj 108 111 soundfiler;
#X obj 22 96 unpack s f;
#X obj 108 68 t l l;
#X obj 108 149 pack f f s;
#X obj 196 111 loadbang;
#X obj 196 132 symbol \$1;
#X obj 108 45 pack s f s;
#X obj 259 4 loadbang;
#X obj 259 28 symbol \$1;
#X msg 108 89 read -resize \$1 \$3-drum\$2;
#X obj 348 17 receive \$1-tabwrite;
#X obj 401 148 receive \$1-tabindex;
#X obj 348 168 tabwrite;
#X obj 397 41 receive \$1-setwriteslot;
#X obj 450 62 loadbang;
#X obj 450 84 symbol \$1;
#X obj 397 106 pack f s;
#X msg 397 127 set \$2-drum\$1;
#X obj 598 60 receive \$1-resize;
#X obj 665 79 loadbang;
#X obj 665 101 symbol \$1;
#X obj 598 121 pack f f s;
#X text 597 43 slot/length;
#X msg 108 169 \; \$3-samplelength-\$2 \$1 \; \$3-sampleend-\$2 \$1
\; \$3-samplestart-\$2 0 \;;
#X msg 598 141 \; \$3-drum\$1 resize \$2 \; \$3-samplelength-\$1 \$2
\; \$3-sampleend-\$1 \$2 \; \$3-samplestart-\$1 0 \;;
#X connect 0 0 7 0;
#X connect 1 0 4 0;
#X connect 2 1 4 1;
#X connect 3 0 10 0;
#X connect 3 1 2 0;
#X connect 4 0 24 0;
#X connect 5 0 6 0;
#X connect 6 0 4 2;
#X connect 7 0 3 0;
#X connect 8 0 9 0;
#X connect 9 0 7 2;
#X connect 10 0 1 0;
#X connect 11 0 13 0;
#X connect 12 0 13 1;
#X connect 14 0 17 0;
#X connect 15 0 16 0;
#X connect 16 0 17 1;
#X connect 17 0 18 0;
#X connect 18 0 13 0;
#X connect 19 0 22 0;
#X connect 20 0 21 0;
#X connect 21 0 22 2;
#X connect 22 0 25 0;
#X restore 55 66 pd loadwave;
#X obj 257 149 playdrumpoly \$1;
#X obj 235 169 playdrumpoly \$1;
#X obj 279 129 playdrumpoly \$1;
#N canvas 202 310 849 585 automationhub 1;
#X obj 15 40 line;
#X obj 15 17 r \$1-auto-volume;
#X obj 15 61 s \$1-volume;
#X obj 16 323 line;
#X obj 16 300 r \$1-auto-del-delay;
#X obj 16 346 s \$1-del-delay;
#X obj 183 323 line;
#X obj 183 300 r \$1-auto-del-feedback;
#X obj 183 346 s \$1-del-feedback;
#X obj 351 323 line;
#X obj 351 300 r \$1-auto-del-wet;
#X obj 351 346 s \$1-del-wet;
#X obj 14 392 line;
#X obj 180 392 line;
#X obj 348 392 line;
#X obj 527 392 line;
#X obj 497 323 line;
#X obj 497 346 s \$1-del-wet;
#X obj 497 300 r \$1-auto-del-spread;
#X obj 14 465 line;
#X obj 14 442 r \$1-auto-chorus-depth;
#X obj 14 488 s \$1-chorus-depth;
#X obj 183 465 line;
#X obj 350 465 line;
#X obj 531 465 line;
#X obj 183 442 r \$1-auto-chorus-speed;
#X obj 183 488 s \$1-chorus-speed;
#X obj 350 442 r \$1-auto-chorus-spread;
#X obj 350 488 s \$1-chorus-spread;
#X obj 531 488 s \$1-chorus-drywet;
#X obj 531 442 r \$1-auto-chorus-drywet;
#X obj 14 369 r \$1-auto-flg-freq;
#X obj 14 415 s \$1-flg-freq;
#X obj 180 369 r \$1-auto-flg-width;
#X obj 180 415 s \$1-flg-width;
#X obj 348 369 r \$1-auto-flg-feedback;
#X obj 348 415 s \$1-flg-feedback;
#X obj 527 369 r \$1-auto-flg-wet;
#X obj 527 415 s \$1-flg-wet;
#X obj 14 535 line;
#X obj 14 512 r \$1-auto-rev-damp;
#X obj 14 558 s \$1-rev-damp;
#X obj 182 535 line;
#X obj 182 512 r \$1-auto-rev-roomsize;
#X obj 182 558 s \$1-rev-roomsize;
#X obj 512 535 line;
#X obj 512 512 r \$1-auto-rev-dry;
#X obj 512 558 s \$1-rev-dry;
#X obj 646 535 line;
#X obj 646 512 r \$1-auto-rev-wet;
#X obj 646 558 s \$1-rev-wet;
#X obj 349 535 line;
#X obj 349 512 r \$1-auto-rev-spread;
#X obj 349 558 s \$1-rev-spread;
#X obj 15 108 line;
#X obj 183 108 line;
#X obj 15 131 s \$1-fxfilter-freq;
#X obj 183 131 s \$1-fxfilter-q;
#X obj 15 85 r \$1-auto-fxfilter-freq;
#X obj 183 85 r \$1-auto-fxfilter-q;
#X obj 15 178 line;
#X obj 15 155 r \$1-auto-3eq-lowgain;
#X obj 15 201 s \$1-3eq-lowgain;
#X obj 182 178 line;
#X obj 182 155 r \$1-auto-3eq-midgain;
#X obj 182 201 s \$1-3eq-midgain;
#X obj 350 178 line;
#X obj 350 155 r \$1-auto-3eq-midfreq;
#X obj 350 201 s \$1-3eq-midfreq;
#X obj 529 178 line;
#X obj 529 155 r \$1-auto-3eq-midbw;
#X obj 529 201 s \$1-3eq-midbw;
#X obj 680 178 line;
#X obj 680 155 r \$1-auto-3eq-highgain;
#X obj 680 201 s \$1-3eq-highgain;
#X obj 16 253 line;
#X obj 184 253 line;
#X obj 366 253 line;
#X obj 16 230 r \$1-auto-tremolo-rate;
#X obj 16 276 s \$1-tremolo-rate;
#X obj 184 230 r \$1-auto-tremolo-smooth;
#X obj 184 276 s \$1-tremolo-smooth;
#X obj 366 230 r \$1-auto-tremolo-depth;
#X obj 366 276 s \$1-tremolo-depth;
#X connect 0 0 2 0;
#X connect 1 0 0 0;
#X connect 3 0 5 0;
#X connect 4 0 3 0;
#X connect 6 0 8 0;
#X connect 7 0 6 0;
#X connect 9 0 11 0;
#X connect 10 0 9 0;
#X connect 12 0 32 0;
#X connect 13 0 34 0;
#X connect 14 0 36 0;
#X connect 15 0 38 0;
#X connect 16 0 17 0;
#X connect 18 0 16 0;
#X connect 19 0 21 0;
#X connect 20 0 19 0;
#X connect 22 0 26 0;
#X connect 23 0 28 0;
#X connect 24 0 29 0;
#X connect 25 0 22 0;
#X connect 27 0 23 0;
#X connect 30 0 24 0;
#X connect 31 0 12 0;
#X connect 33 0 13 0;
#X connect 35 0 14 0;
#X connect 37 0 15 0;
#X connect 39 0 41 0;
#X connect 40 0 39 0;
#X connect 42 0 44 0;
#X connect 43 0 42 0;
#X connect 45 0 47 0;
#X connect 46 0 45 0;
#X connect 48 0 50 0;
#X connect 49 0 48 0;
#X connect 51 0 53 0;
#X connect 52 0 51 0;
#X connect 54 0 56 0;
#X connect 55 0 57 0;
#X connect 58 0 54 0;
#X connect 59 0 55 0;
#X connect 60 0 62 0;
#X connect 61 0 60 0;
#X connect 63 0 65 0;
#X connect 64 0 63 0;
#X connect 66 0 68 0;
#X connect 67 0 66 0;
#X connect 69 0 71 0;
#X connect 70 0 69 0;
#X connect 72 0 74 0;
#X connect 73 0 72 0;
#X connect 75 0 79 0;
#X connect 76 0 81 0;
#X connect 77 0 83 0;
#X connect 78 0 75 0;
#X connect 80 0 76 0;
#X connect 82 0 77 0;
#X restore 55 105 pd automationhub;
#X obj 76 244 r \$1-pan;
#X obj 58 265 pan;
#X obj 58 385 throw~ mainoutputL;
#X obj 124 341 *~;
#X obj 123 364 throw~ mainoutputR;
#X obj 57 306 effects \$1;
#X connect 0 0 22 0;
#X connect 1 0 11 0;
#X connect 2 0 5 1;
#X connect 2 0 24 1;
#X connect 3 0 4 0;
#X connect 4 0 2 0;
#X connect 5 0 23 0;
#X connect 6 0 7 0;
#X connect 7 0 2 0;
#X connect 11 0 12 0;
#X connect 11 1 12 1;
#X connect 11 2 12 2;
#X connect 12 0 14 0;
#X connect 14 0 18 0;
#X connect 14 1 17 0;
#X connect 14 2 19 0;
#X connect 14 3 13 0;
#X connect 21 0 22 1;
#X connect 22 0 26 0;
#X connect 22 1 26 1;
#X connect 24 0 25 0;
#X connect 26 0 5 0;
#X connect 26 1 24 0;
