#N canvas 769 548 981 570 12;
#X obj 52 149 openpanel;
#X obj 205 134 bng 15 250 50 0 empty empty load_wave 17 7 0 10 #fcfcfc
#000000 #000000;
#X obj 52 197 send \$1-filename;
#X obj 497 137 hsl 128 15 0 161280 0 0 empty empty samplestart -2 -8
0 10 #fcfcfc #000000 #000000 0 1;
#X floatatom 556 212 10 0 0 0 - - - 0;
#X floatatom 559 152 10 0 0 0 - - - 0;
#X obj 651 141 hsl 128 15 -12 12 0 0 empty empty finetune -2 -8 0 10
#fcfcfc #000000 #000000 0 1;
#X floatatom 749 156 5 0 0 0 - - - 0;
#X obj 650 198 hsl 128 15 -50 0 0 0 empty empty volume -2 -8 0 10 #fcfcfc
#000000 #000000 0 1;
#X floatatom 747 213 5 0 0 0 - - - 0;
#X obj 52 174 pack s \$2;
#X obj 424 45 s \$1-samplestart-\$2;
#X obj 494 197 hsl 128 15 0 161280 0 0 empty empty sampleend -2 -8
0 10 #fcfcfc #000000 #000000 0 1;
#X obj 491 262 s \$1-sampleend-\$2;
#X obj 636 44 loadbang;
#X obj 636 67 0;
#X obj 819 156 s \$1-finetune-\$2;
#X obj 834 213 s \$1-volume-\$2;
#X obj 462 70 r \$1-samplestart-ui-\$2;
#X obj 503 236 r \$1-sampleend-ui-\$2;
#X obj 28 368 samplerate~;
#X obj 28 392 s \$1-samplerate-\$2;
#X obj 28 344 loadbang;
#N canvas 994 137 366 304 setsamplelength 0;
#X msg 66 219 set \$1;
#X obj 22 51 trigger b f f;
#X msg 22 204 0;
#X obj 186 36 loadbang;
#X obj 143 70 symbol \$1;
#X obj 22 12 receive \$1-samplelength-\$2;
#X obj 22 271 send \$1-samplestart-ui-\$2;
#X obj 66 246 send \$1-sampleend-ui-\$2;
#X msg 110 153 \; \$2-sampleend-ui-\$3 range 0 \$1 \; \$2-samplestart-ui-\$3
range 0 \$1;
#X obj 217 70 \$2;
#X obj 110 118 pack f s f;
#X connect 0 0 7 0;
#X connect 1 0 2 0;
#X connect 1 1 0 0;
#X connect 1 2 10 0;
#X connect 2 0 6 0;
#X connect 3 0 4 0;
#X connect 3 0 9 0;
#X connect 4 0 10 1;
#X connect 5 0 1 0;
#X connect 9 0 10 2;
#X connect 10 0 8 0;
#X restore 27 435 pd setsamplelength;
#X obj 369 125 bng 15 250 50 0 \$0-trig empty trigger 17 7 0 10 #fcfcfc
#000000 #000000;
#X obj 448 358 + 35;
#X obj 336 187 hsl 128 15 0 127 0 0 empty empty Velocity -2 -8 0 10
#fcfcfc #000000 #000000 0 1;
#X floatatom 432 202 5 0 0 0 - \$0-vel - 0;
#X obj 333 246 expr $i1;
#X obj 448 384 pack f f;
#X obj 448 410 send \$1-noteon;
#X obj 333 270 s \$0-vel;
#X obj 501 361 r \$0-vel;
#X obj 448 299 r \$0-trig;
#X obj 333 47 loadbang;
#X obj 333 74 127;
#X obj 205 199 bng 15 250 50 0 \$0-waveplaybackstart empty waveplaybackstart
17 7 0 10 #fcfcfc #000000 #000000;
#X obj 205 222 bng 15 250 50 0 \$1-waveplaybackstop empty waveplaybackstop
17 7 0 10 #fcfcfc #000000 #000000;
#X obj 603 299 r \$0-waveplaybackstart;
#X obj 603 350 s \$1-waveplaybackstart;
#X obj 603 325 f \$2;
#X obj 448 333 f \$2;
#X connect 0 0 10 0;
#X connect 1 0 0 0;
#X connect 3 0 11 0;
#X connect 3 0 5 0;
#X connect 6 0 7 0;
#X connect 6 0 16 0;
#X connect 8 0 9 0;
#X connect 8 0 17 0;
#X connect 10 0 2 0;
#X connect 12 0 13 0;
#X connect 12 0 4 0;
#X connect 14 0 15 0;
#X connect 15 0 8 0;
#X connect 15 0 6 0;
#X connect 18 0 3 0;
#X connect 19 0 12 0;
#X connect 20 0 21 0;
#X connect 22 0 20 0;
#X connect 25 0 29 0;
#X connect 26 0 28 0;
#X connect 28 0 31 0;
#X connect 29 0 30 0;
#X connect 32 0 29 1;
#X connect 33 0 41 0;
#X connect 34 0 35 0;
#X connect 35 0 26 0;
#X connect 38 0 40 0;
#X connect 40 0 39 0;
#X connect 41 0 25 0;
#X coords 0 -1 1 1 600 140 1 200 100;
