#N canvas 315 432 991 494 10;
#X obj 67 112 inlet~;
#X obj 156 300 outlet~;
#X obj 68 208 fxchain~ 3, f 17;
#N canvas 1958 455 642 256 reverb 0;
#X obj 73 168 pureverb, f 12;
#X obj 89 54 r \$1-rev-damp;
#X obj 105 76 r \$1-rev-roomsize;
#X obj 121 98 r \$1-rev-dry;
#X obj 137 119 r \$1-rev-wet;
#X obj 72 31 inlet~;
#X obj 72 223 outlet~;
#X obj 154 142 r \$1-rev-enable;
#X obj 16 183 *~;
#X obj 34 159 == 0;
#X obj 520 17 loadbang;
#X obj 520 40 0;
#X obj 520 64 s \$1-rev-enable;
#X obj 332 168 pureverb, f 12;
#X obj 348 54 r \$1-rev-damp;
#X obj 364 76 r \$1-rev-roomsize;
#X obj 380 98 r \$1-rev-dry;
#X obj 396 119 r \$1-rev-wet;
#X obj 331 31 inlet~;
#X obj 331 223 outlet~;
#X obj 413 142 r \$1-rev-enable;
#X obj 275 183 *~;
#X obj 293 159 == 0;
#X connect 0 0 6 0;
#X connect 1 0 0 1;
#X connect 2 0 0 2;
#X connect 3 0 0 3;
#X connect 4 0 0 4;
#X connect 5 0 0 0;
#X connect 5 0 8 0;
#X connect 7 0 0 5;
#X connect 7 0 9 0;
#X connect 8 0 6 0;
#X connect 9 0 8 1;
#X connect 10 0 11 0;
#X connect 11 0 12 0;
#X connect 13 0 19 0;
#X connect 14 0 13 1;
#X connect 15 0 13 2;
#X connect 16 0 13 3;
#X connect 17 0 13 4;
#X connect 18 0 13 0;
#X connect 18 0 21 0;
#X connect 20 0 13 5;
#X connect 20 0 22 0;
#X connect 21 0 19 0;
#X connect 22 0 21 1;
#X restore 820 334 pd reverb;
#N canvas 1635 306 644 204 delay 0;
#X obj 107 125 johsdelay;
#X obj 122 31 r \$1-del-delay;
#X obj 137 53 r \$1-del-feedback;
#X obj 152 74 r \$1-del-wet;
#X obj 108 9 inlet~;
#X obj 108 170 outlet~;
#X obj 167 96 r \$1-del-enable;
#X obj 68 113 == 0;
#X obj 50 139 *~;
#X obj 525 21 loadbang;
#X obj 525 44 0;
#X obj 525 68 s \$1-del-enable;
#X obj 337 125 johsdelay;
#X obj 352 31 r \$1-del-delay;
#X obj 367 53 r \$1-del-feedback;
#X obj 382 74 r \$1-del-wet;
#X obj 338 9 inlet~;
#X obj 338 170 outlet~;
#X obj 397 96 r \$1-del-enable;
#X obj 298 113 == 0;
#X obj 280 139 *~;
#X connect 0 0 5 0;
#X connect 1 0 0 1;
#X connect 2 0 0 2;
#X connect 3 0 0 3;
#X connect 4 0 0 0;
#X connect 4 0 8 0;
#X connect 6 0 0 4;
#X connect 6 0 7 0;
#X connect 7 0 8 1;
#X connect 8 0 5 0;
#X connect 9 0 10 0;
#X connect 10 0 11 0;
#X connect 12 0 17 0;
#X connect 13 0 12 1;
#X connect 14 0 12 2;
#X connect 15 0 12 3;
#X connect 16 0 12 0;
#X connect 16 0 20 0;
#X connect 18 0 12 4;
#X connect 18 0 19 0;
#X connect 19 0 20 1;
#X connect 20 0 17 0;
#X restore 603 333 pd delay;
#N canvas 1673 182 667 241 flanger 0;
#X obj 103 8 inlet~;
#X obj 102 206 outlet~;
#X obj 102 154 johsflanger;
#X obj 116 33 r \$1-flg-speed;
#X obj 131 57 r \$1-flg-offset;
#X obj 146 81 r \$1-flg-delay;
#X obj 161 104 r \$1-flg-feedback;
#X obj 176 126 r \$1-flg-enable;
#X obj 45 166 *~;
#X obj 63 143 == 0;
#X obj 547 24 loadbang;
#X obj 547 47 0;
#X obj 547 70 s \$1-flg-enable;
#X obj 364 8 inlet~;
#X obj 363 206 outlet~;
#X obj 363 154 johsflanger;
#X obj 377 33 r \$1-flg-speed;
#X obj 392 57 r \$1-flg-offset;
#X obj 407 81 r \$1-flg-delay;
#X obj 422 104 r \$1-flg-feedback;
#X obj 437 126 r \$1-flg-enable;
#X obj 306 166 *~;
#X obj 324 143 == 0;
#X connect 0 0 2 0;
#X connect 0 0 8 0;
#X connect 2 0 1 0;
#X connect 3 0 2 1;
#X connect 4 0 2 2;
#X connect 5 0 2 3;
#X connect 6 0 2 4;
#X connect 7 0 2 5;
#X connect 7 0 9 0;
#X connect 8 0 1 0;
#X connect 9 0 8 1;
#X connect 10 0 11 0;
#X connect 11 0 12 0;
#X connect 13 0 15 0;
#X connect 13 0 21 0;
#X connect 15 0 14 0;
#X connect 16 0 15 1;
#X connect 17 0 15 2;
#X connect 18 0 15 3;
#X connect 19 0 15 4;
#X connect 20 0 15 5;
#X connect 20 0 22 0;
#X connect 21 0 14 0;
#X connect 22 0 21 1;
#X restore 718 334 pd flanger;
#X obj 619 30 r \$1-del-moveup;
#X obj 753 30 r \$1-del-movedown;
#X obj 45 69 r \$0-movedown;
#X msg 45 90 movedown \$1;
#X obj 753 79 s \$0-movedown;
#X obj 753 55 0;
#X obj 22 17 r \$0-moveup;
#X msg 22 42 moveup \$1;
#X obj 619 55 0;
#X obj 619 79 s \$0-moveup;
#X obj 753 152 s \$0-movedown;
#X obj 619 152 s \$0-moveup;
#X obj 619 103 r \$1-flg-moveup;
#X obj 753 103 r \$1-flg-movedown;
#X obj 619 128 1;
#X obj 753 128 1;
#X obj 753 225 s \$0-movedown;
#X obj 619 225 s \$0-moveup;
#X obj 619 200 2;
#X obj 619 176 r \$1-rev-moveup;
#X obj 753 176 r \$1-rev-movedown;
#X obj 753 201 2;
#X obj 184 277 array set \$1-fxlist;
#X obj 621 253 table \$1-fxlist;
#X obj 202 257 s \$1-fxlistctl;
#X msg 202 227 list 0 1 2;
#X obj 202 202 loadbang;
#X obj 107 135 r~ \$0-out1L;
#X obj 146 155 r~ \$0-out2L;
#X obj 183 179 r~ \$0-out3L;
#X obj 68 363 s~ \$0-in1L;
#X obj 97 343 s~ \$0-in2L;
#X obj 127 323 s~ \$0-in3L;
#X obj 603 287 r~ \$0-in1L;
#X obj 604 380 s~ \$0-out1L;
#X obj 717 287 r~ \$0-in2L;
#X obj 717 379 s~ \$0-out2L;
#X obj 820 287 r~ \$0-in3L;
#X obj 820 380 s~ \$0-out3L;
#X obj 611 309 r~ \$0-in1R;
#X obj 617 359 s~ \$0-out1R;
#X obj 727 309 r~ \$0-in2R;
#X obj 827 310 r~ \$0-in3R;
#X obj 832 359 s~ \$0-out3R;
#X obj 728 359 s~ \$0-out2R;
#X obj 339 112 inlet~;
#X obj 428 300 outlet~;
#X obj 340 208 fxchain~ 3, f 17;
#X obj 317 69 r \$0-movedown;
#X msg 317 90 movedown \$1;
#X obj 294 17 r \$0-moveup;
#X msg 294 42 moveup \$1;
#X obj 379 135 r~ \$0-out1R;
#X obj 418 155 r~ \$0-out2R;
#X obj 455 179 r~ \$0-out3R;
#X obj 399 323 s~ \$0-in3R;
#X obj 369 343 s~ \$0-in2R;
#X obj 340 363 s~ \$0-in1R;
#X connect 0 0 2 0;
#X connect 2 0 36 0;
#X connect 2 1 37 0;
#X connect 2 2 38 0;
#X connect 2 3 1 0;
#X connect 2 4 28 0;
#X connect 2 4 30 0;
#X connect 3 0 44 0;
#X connect 3 1 49 0;
#X connect 4 0 40 0;
#X connect 4 1 46 0;
#X connect 5 0 42 0;
#X connect 5 1 50 0;
#X connect 6 0 14 0;
#X connect 7 0 11 0;
#X connect 8 0 9 0;
#X connect 9 0 2 0;
#X connect 11 0 10 0;
#X connect 12 0 13 0;
#X connect 13 0 2 0;
#X connect 14 0 15 0;
#X connect 18 0 20 0;
#X connect 19 0 21 0;
#X connect 20 0 17 0;
#X connect 21 0 16 0;
#X connect 24 0 23 0;
#X connect 25 0 24 0;
#X connect 26 0 27 0;
#X connect 27 0 22 0;
#X connect 31 0 30 0;
#X connect 31 0 28 0;
#X connect 32 0 31 0;
#X connect 33 0 2 1;
#X connect 34 0 2 2;
#X connect 35 0 2 3;
#X connect 39 0 4 0;
#X connect 41 0 5 0;
#X connect 43 0 3 0;
#X connect 45 0 4 1;
#X connect 47 0 5 1;
#X connect 48 0 3 1;
#X connect 51 0 53 0;
#X connect 53 0 63 0;
#X connect 53 1 62 0;
#X connect 53 2 61 0;
#X connect 53 3 52 0;
#X connect 54 0 55 0;
#X connect 55 0 53 0;
#X connect 56 0 57 0;
#X connect 57 0 53 0;
#X connect 58 0 53 1;
#X connect 59 0 53 2;
#X connect 60 0 53 3;
