#N canvas 2089 436 1235 533 10;
#X obj 67 114 inlet~;
#X obj 166 361 outlet~;
#N canvas 117 297 420 282 reverb 0;
#X obj 277 12 loadbang;
#X obj 277 35 0;
#X obj 277 59 s \$1-rev-enable;
#X obj 84 184 stereoreverb~, f 17;
#X obj 117 56 r \$1-rev-damp;
#X obj 133 78 r \$1-rev-roomsize;
#X obj 150 100 r \$1-rev-dry;
#X obj 166 121 r \$1-rev-wet;
#X obj 200 163 r \$1-rev-enable;
#X obj 183 143 r \$1-rev-spread;
#X obj 19 204 *~;
#X obj 37 180 == 0;
#X obj 99 17 inlet~;
#X obj 40 17 inlet~;
#X obj 199 241 outlet~;
#X obj 84 244 outlet~;
#X obj 52 204 *~;
#X connect 0 0 1 0;
#X connect 1 0 2 0;
#X connect 3 0 15 0;
#X connect 3 1 14 0;
#X connect 4 0 3 2;
#X connect 5 0 3 3;
#X connect 6 0 3 4;
#X connect 7 0 3 5;
#X connect 8 0 3 7;
#X connect 8 0 11 0;
#X connect 9 0 3 6;
#X connect 10 0 15 0;
#X connect 11 0 10 1;
#X connect 11 0 16 1;
#X connect 12 0 3 1;
#X connect 12 0 16 0;
#X connect 13 0 3 0;
#X connect 13 0 10 0;
#X connect 16 0 14 0;
#X restore 1043 419 pd reverb;
#N canvas 1949 187 437 277 delay 0;
#X obj 92 7 inlet~;
#X obj 129 253 outlet~;
#X obj 321 7 loadbang;
#X obj 321 30 0;
#X obj 321 54 s \$1-del-enable;
#X obj 144 7 inlet~;
#X obj 224 252 outlet~;
#X obj 128 146 pingpongdelay~;
#X obj 159 35 r \$1-del-delay;
#X obj 175 59 r \$1-del-feedback;
#X obj 191 81 r \$1-del-wet;
#X obj 223 122 r \$1-del-enable;
#X obj 207 102 r \$1-del-spread;
#X obj 45 139 == 0;
#X obj 27 164 *~;
#X obj 57 164 *~;
#X connect 0 0 14 0;
#X connect 0 0 7 0;
#X connect 2 0 3 0;
#X connect 3 0 4 0;
#X connect 5 0 15 0;
#X connect 5 0 7 1;
#X connect 7 0 1 0;
#X connect 7 1 6 0;
#X connect 8 0 7 2;
#X connect 9 0 7 3;
#X connect 10 0 7 4;
#X connect 11 0 7 6;
#X connect 11 0 13 0;
#X connect 12 0 7 5;
#X connect 13 0 14 1;
#X connect 13 0 15 1;
#X connect 14 0 1 0;
#X connect 15 0 6 0;
#X restore 719 416 pd delay;
#N canvas 645 444 418 291 flanger 0;
#X obj 89 8 inlet~;
#X obj 102 259 outlet~;
#X obj 185 147 r \$1-flg-enable;
#X obj 294 15 loadbang;
#X obj 294 37 0;
#X obj 294 82 s \$1-flg-enable;
#X obj 105 29 inlet~;
#X obj 171 259 outlet~;
#X obj 90 174 stereoflanger~;
#X obj 39 164 == 0;
#X obj 21 189 *~;
#X obj 51 189 *~;
#X obj 121 54 r \$1-flg-freq;
#X obj 137 78 r \$1-flg-width;
#X obj 153 102 r \$1-flg-feedback;
#X obj 169 125 r \$1-flg-wet;
#X obj 312 62 s \$1-flg-wet;
#X connect 0 0 8 0;
#X connect 0 0 10 0;
#X connect 2 0 8 6;
#X connect 2 0 9 0;
#X connect 3 0 4 0;
#X connect 4 0 5 0;
#X connect 4 0 16 0;
#X connect 6 0 8 1;
#X connect 6 0 11 0;
#X connect 8 0 1 0;
#X connect 8 1 7 0;
#X connect 9 0 10 1;
#X connect 9 0 11 1;
#X connect 10 0 1 0;
#X connect 11 0 7 0;
#X connect 12 0 8 2;
#X connect 13 0 8 3;
#X connect 14 0 8 4;
#X connect 15 0 8 5;
#X restore 834 417 pd flanger;
#X obj 619 201 r \$1-del-moveup;
#X obj 769 201 r \$1-del-movedown;
#X obj 45 71 r \$0-movedown;
#X msg 45 92 movedown \$1;
#X obj 769 250 s \$0-movedown;
#X obj 22 19 r \$0-moveup;
#X msg 22 44 moveup \$1;
#X obj 619 250 s \$0-moveup;
#X obj 769 323 s \$0-movedown;
#X obj 619 323 s \$0-moveup;
#X obj 619 274 r \$1-flg-moveup;
#X obj 769 274 r \$1-flg-movedown;
#X obj 1065 177 s \$0-movedown;
#X obj 923 177 s \$0-moveup;
#X obj 923 128 r \$1-rev-moveup;
#X obj 1065 128 r \$1-rev-movedown;
#X obj 190 499 table \$1-fxlist;
#X obj 87 134 r~ \$0-out1L;
#X obj 105 156 r~ \$0-out2L;
#X obj 127 176 r~ \$0-out3L;
#X obj 68 488 s~ \$0-in1L;
#X obj 84 468 s~ \$0-in2L;
#X obj 102 448 s~ \$0-in3L;
#X obj 340 110 inlet~;
#X obj 440 280 outlet~;
#X obj 318 69 r \$0-movedown;
#X msg 318 90 movedown \$1;
#X obj 295 17 r \$0-moveup;
#X msg 295 42 moveup \$1;
#X obj 360 130 r~ \$0-out1R;
#X obj 379 150 r~ \$0-out2R;
#X obj 400 169 r~ \$0-out3R;
#X obj 374 364 s~ \$0-in3R;
#X obj 357 384 s~ \$0-in2R;
#X obj 341 404 s~ \$0-in1R;
#N canvas 2108 521 450 300 chorus 0;
#X obj 142 8 inlet~;
#X obj 152 34 inlet~;
#X obj 140 254 outlet~;
#X obj 216 253 outlet~;
#X obj 141 167 stereochorus~;
#X obj 215 143 r \$1-chorus-enable;
#X obj 165 56 r \$1-chorus-depth;
#X obj 178 80 r \$1-chorus-speed;
#X obj 190 102 r \$1-chorus-spread;
#X obj 202 123 r \$1-chorus-drywet;
#X obj 57 160 == 0;
#X obj 39 185 *~;
#X obj 69 185 *~;
#X obj 310 6 loadbang;
#X obj 310 29 0;
#X obj 310 53 s \$1-chorus-enable;
#X connect 0 0 4 0;
#X connect 0 0 11 0;
#X connect 1 0 4 1;
#X connect 1 0 12 0;
#X connect 4 0 2 0;
#X connect 4 1 3 0;
#X connect 5 0 4 6;
#X connect 5 0 10 0;
#X connect 6 0 4 2;
#X connect 7 0 4 3;
#X connect 8 0 4 4;
#X connect 9 0 4 5;
#X connect 10 0 11 1;
#X connect 10 0 12 1;
#X connect 11 0 2 0;
#X connect 12 0 3 0;
#X connect 13 0 14 0;
#X connect 14 0 15 0;
#X restore 944 418 pd chorus;
#X obj 1073 104 s \$0-movedown;
#X obj 923 104 s \$0-moveup;
#X obj 923 55 r \$1-chorus-moveup;
#X obj 1073 55 r \$1-chorus-movedown;
#X obj 391 344 s~ \$0-in4R;
#X obj 419 190 r~ \$0-out4R;
#X obj 184 340 array set \$1-fxlist;
#X obj 202 318 s \$1-fxlistctl;
#X obj 202 263 loadbang;
#X obj 118 427 s~ \$0-in4L;
#X obj 146 197 r~ \$0-out4L;
#X obj 438 210 r~ \$0-out5R;
#X obj 408 325 s~ \$0-in5R;
#N canvas 645 588 456 299 tremolo 0;
#X obj 277 12 loadbang;
#X obj 277 35 0;
#X obj 19 204 *~;
#X obj 37 180 == 0;
#X obj 99 17 inlet~;
#X obj 40 17 inlet~;
#X obj 159 248 outlet~;
#X obj 86 289 outlet~;
#X obj 52 204 *~;
#X obj 277 59 s \$1-tremolo-enable;
#X obj 160 163 r \$1-tremolo-enable;
#X obj 86 191 tremolo~, f 11;
#X obj 115 98 r \$1-tremolo-rate;
#X obj 130 119 r \$1-tremolo-smooth;
#X obj 145 142 r \$1-tremolo-depth;
#X connect 0 0 1 0;
#X connect 1 0 9 0;
#X connect 2 0 7 0;
#X connect 3 0 2 1;
#X connect 3 0 8 1;
#X connect 4 0 8 0;
#X connect 4 0 11 1;
#X connect 5 0 2 0;
#X connect 5 0 11 0;
#X connect 8 0 6 0;
#X connect 10 0 3 0;
#X connect 10 0 11 5;
#X connect 11 0 7 0;
#X connect 11 1 6 0;
#X connect 12 0 11 2;
#X connect 13 0 11 3;
#X connect 14 0 11 4;
#X restore 617 416 pd tremolo;
#X obj 769 174 s \$0-movedown;
#X obj 618 174 s \$0-moveup;
#X obj 618 125 r \$1-tremolo-moveup;
#X obj 769 125 r \$1-tremolo-movedown;
#X obj 135 407 s~ \$0-in5L;
#X obj 165 218 r~ \$0-out5L;
#X obj 68 262 fxchain~ 6, f 17;
#X obj 184 240 r~ \$0-out6L;
#X obj 341 251 fxchain~ 6, f 17;
#X obj 457 231 r~ \$0-out6R;
#X obj 151 386 s~ \$0-in6L;
#X obj 422 305 s~ \$0-in6R;
#X obj 517 370 r~ \$0-in1L;
#X obj 518 463 s~ \$0-out1L;
#X obj 525 392 r~ \$0-in1R;
#X obj 531 442 s~ \$0-out1R;
#N canvas 1767 430 476 277 filter 1;
#X obj 92 7 inlet~;
#X obj 129 253 outlet~;
#X obj 321 7 loadbang;
#X obj 321 30 0;
#X obj 144 7 inlet~;
#X obj 224 252 outlet~;
#X obj 45 139 == 0;
#X obj 27 164 *~;
#X obj 57 164 *~;
#X obj 321 54 s \$1-filter-enable;
#X obj 167 83 r \$1-filter-q;
#N canvas 1695 539 633 228 filter 1;
#X obj 14 106 faustreson~;
#X obj 150 106 faustreson~;
#X obj 151 16 inlet~;
#X obj 14 11 inlet~;
#X obj 150 203 outlet~;
#X obj 13 201 outlet~;
#X obj 290 17 inlet freq;
#X obj 387 19 inlet q;
#X obj 290 63 line~;
#X msg 290 39 \$1 30;
#X obj 51 63 r~ \$0-freq;
#X obj 291 86 s~ \$0-freq;
#X obj 538 20 inlet enable;
#X obj 538 43 switch~;
#X obj 186 61 r~ \$0-freq;
#X obj 387 44 s \$0-q;
#X obj 88 83 r \$0-q;
#X obj 224 81 r \$0-q;
#X obj 456 19 inlet mode;
#X obj 25 36 r \$0-mode;
#X obj 164 38 r \$0-mode;
#X obj 473 180 s \$0-mode;
#X obj 419 111 select 0;
#X obj 486 112 select 1;
#X msg 419 132 lp;
#X msg 486 132 hp;
#X msg 551 132 bp;
#X obj 551 112 select 2;
#X connect 0 0 5 0;
#X connect 1 0 4 0;
#X connect 2 0 1 0;
#X connect 3 0 0 0;
#X connect 6 0 9 0;
#X connect 7 0 15 0;
#X connect 8 0 11 0;
#X connect 9 0 8 0;
#X connect 10 0 0 1;
#X connect 12 0 13 0;
#X connect 14 0 1 1;
#X connect 16 0 0 2;
#X connect 17 0 1 2;
#X connect 18 0 22 0;
#X connect 18 0 23 0;
#X connect 18 0 27 0;
#X connect 19 0 0 0;
#X connect 20 0 1 0;
#X connect 22 0 24 0;
#X connect 23 0 25 0;
#X connect 24 0 21 0;
#X connect 25 0 21 0;
#X connect 26 0 21 0;
#X connect 27 0 26 0;
#X restore 131 145 pd filter;
#X obj 155 64 r \$1-filter-freq;
#X obj 179 103 r \$1-filter-mode;
#X obj 191 122 r \$1-filter-enable;
#X connect 0 0 7 0;
#X connect 0 0 11 0;
#X connect 2 0 3 0;
#X connect 3 0 9 0;
#X connect 4 0 8 0;
#X connect 4 0 11 1;
#X connect 6 0 7 1;
#X connect 6 0 8 1;
#X connect 7 0 1 0;
#X connect 8 0 5 0;
#X connect 10 0 11 3;
#X connect 11 0 1 0;
#X connect 11 1 5 0;
#X connect 12 0 11 2;
#X connect 13 0 11 4;
#X connect 14 0 6 0;
#X connect 14 0 11 5;
#X restore 517 416 pd filter;
#X obj 1043 372 r~ \$0-in6L;
#X obj 1050 395 r~ \$0-in6R;
#X obj 1055 444 s~ \$0-out6R;
#X obj 1042 465 s~ \$0-out6L;
#X obj 923 152 5;
#X obj 1065 153 5;
#X obj 769 103 s \$0-movedown;
#X obj 619 103 s \$0-moveup;
#X obj 619 79 0;
#X obj 769 79 0;
#X obj 619 54 r \$1-filter-moveup;
#X obj 769 54 r \$1-filter-movedown;
#X obj 617 369 r~ \$0-in2L;
#X obj 624 392 r~ \$0-in2R;
#X obj 629 441 s~ \$0-out2R;
#X obj 616 462 s~ \$0-out2L;
#X obj 719 370 r~ \$0-in3L;
#X obj 727 392 r~ \$0-in3R;
#X obj 733 442 s~ \$0-out3R;
#X obj 720 463 s~ \$0-out3L;
#X obj 833 370 r~ \$0-in4L;
#X obj 843 392 r~ \$0-in4R;
#X obj 844 442 s~ \$0-out4R;
#X obj 833 462 s~ \$0-out4L;
#X obj 945 369 r~ \$0-in5L;
#X obj 952 392 r~ \$0-in5R;
#X obj 956 442 s~ \$0-out5R;
#X obj 944 463 s~ \$0-out5L;
#X obj 619 226 2;
#X obj 769 226 2;
#X obj 619 299 3;
#X obj 769 299 3;
#X obj 923 79 4;
#X obj 1073 80 4;
#X obj 618 149 1;
#X obj 769 150 1;
#X msg 202 288 list 0 1 2 3 4 5;
#X connect 0 0 61 0;
#X connect 2 0 75 0;
#X connect 2 1 74 0;
#X connect 3 0 91 0;
#X connect 3 1 90 0;
#X connect 4 0 95 0;
#X connect 4 1 94 0;
#X connect 5 0 100 0;
#X connect 6 0 101 0;
#X connect 7 0 8 0;
#X connect 8 0 61 0;
#X connect 10 0 11 0;
#X connect 11 0 61 0;
#X connect 15 0 102 0;
#X connect 16 0 103 0;
#X connect 19 0 76 0;
#X connect 20 0 77 0;
#X connect 22 0 61 1;
#X connect 23 0 61 2;
#X connect 24 0 61 3;
#X connect 28 0 63 0;
#X connect 30 0 31 0;
#X connect 31 0 63 0;
#X connect 32 0 33 0;
#X connect 33 0 63 0;
#X connect 34 0 63 1;
#X connect 35 0 63 2;
#X connect 36 0 63 3;
#X connect 40 0 99 0;
#X connect 40 1 98 0;
#X connect 43 0 104 0;
#X connect 44 0 105 0;
#X connect 46 0 63 4;
#X connect 49 0 108 0;
#X connect 51 0 61 4;
#X connect 52 0 63 5;
#X connect 54 0 87 0;
#X connect 54 1 86 0;
#X connect 57 0 106 0;
#X connect 58 0 107 0;
#X connect 60 0 61 5;
#X connect 61 0 25 0;
#X connect 61 1 26 0;
#X connect 61 2 27 0;
#X connect 61 3 50 0;
#X connect 61 4 59 0;
#X connect 61 5 65 0;
#X connect 61 6 1 0;
#X connect 61 7 48 0;
#X connect 61 7 47 0;
#X connect 62 0 61 6;
#X connect 63 0 39 0;
#X connect 63 1 38 0;
#X connect 63 2 37 0;
#X connect 63 3 45 0;
#X connect 63 4 53 0;
#X connect 63 5 66 0;
#X connect 63 6 29 0;
#X connect 64 0 63 6;
#X connect 67 0 71 0;
#X connect 69 0 71 1;
#X connect 71 0 68 0;
#X connect 71 1 70 0;
#X connect 72 0 2 0;
#X connect 73 0 2 1;
#X connect 76 0 18 0;
#X connect 77 0 17 0;
#X connect 80 0 79 0;
#X connect 81 0 78 0;
#X connect 82 0 80 0;
#X connect 83 0 81 0;
#X connect 84 0 54 0;
#X connect 85 0 54 1;
#X connect 88 0 3 0;
#X connect 89 0 3 1;
#X connect 92 0 4 0;
#X connect 93 0 4 1;
#X connect 96 0 40 0;
#X connect 97 0 40 1;
#X connect 100 0 12 0;
#X connect 101 0 9 0;
#X connect 102 0 14 0;
#X connect 103 0 13 0;
#X connect 104 0 42 0;
#X connect 105 0 41 0;
#X connect 106 0 56 0;
#X connect 107 0 55 0;
#X connect 108 0 48 0;
#X connect 108 0 47 0;
