#N canvas 258 330 1206 500 10;
#X obj 67 109 inlet~;
#X obj 164 338 outlet~;
#N canvas 117 297 420 282 reverb 1;
#X obj 277 12 loadbang;
#X obj 277 35 0;
#X obj 277 59 s \$1-rev-enable;
#X obj 84 184 stereoreverb~, f 17;
#X obj 117 56 r \$1-rev-damp;
#X obj 133 78 r \$1-rev-roomsize;
#X obj 150 100 r \$1-rev-dry;
#X obj 166 121 r \$1-rev-wet;
#X obj 200 163 r \$1-rev-enable;
#X obj 183 143 r \$1-rev-spread;
#X obj 19 204 *~;
#X obj 37 180 == 0;
#X obj 99 17 inlet~;
#X obj 40 17 inlet~;
#X obj 199 241 outlet~;
#X obj 84 244 outlet~;
#X obj 52 204 *~;
#X connect 0 0 1 0;
#X connect 1 0 2 0;
#X connect 3 0 15 0;
#X connect 3 1 14 0;
#X connect 4 0 3 2;
#X connect 5 0 3 3;
#X connect 6 0 3 4;
#X connect 7 0 3 5;
#X connect 8 0 3 7;
#X connect 8 0 11 0;
#X connect 9 0 3 6;
#X connect 10 0 15 0;
#X connect 11 0 10 1;
#X connect 11 0 16 1;
#X connect 12 0 3 1;
#X connect 12 0 16 0;
#X connect 13 0 3 0;
#X connect 13 0 10 0;
#X connect 16 0 14 0;
#X restore 989 396 pd reverb;
#N canvas 1952 183 437 277 delay 0;
#X obj 92 7 inlet~;
#X obj 129 253 outlet~;
#X obj 321 7 loadbang;
#X obj 321 30 0;
#X obj 321 54 s \$1-del-enable;
#X obj 144 7 inlet~;
#X obj 224 252 outlet~;
#X obj 128 146 pingpongdelay~;
#X obj 159 35 r \$1-del-delay;
#X obj 175 59 r \$1-del-feedback;
#X obj 191 81 r \$1-del-wet;
#X obj 223 122 r \$1-del-enable;
#X obj 207 102 r \$1-del-spread;
#X obj 45 139 == 0;
#X obj 27 164 *~;
#X obj 57 164 *~;
#X connect 0 0 14 0;
#X connect 0 0 7 0;
#X connect 2 0 3 0;
#X connect 3 0 4 0;
#X connect 5 0 15 0;
#X connect 5 0 7 1;
#X connect 7 0 1 0;
#X connect 7 1 6 0;
#X connect 8 0 7 2;
#X connect 9 0 7 3;
#X connect 10 0 7 4;
#X connect 11 0 7 6;
#X connect 11 0 13 0;
#X connect 12 0 7 5;
#X connect 13 0 14 1;
#X connect 13 0 15 1;
#X connect 14 0 1 0;
#X connect 15 0 6 0;
#X restore 552 393 pd delay;
#N canvas 645 444 418 291 flanger 0;
#X obj 89 8 inlet~;
#X obj 102 259 outlet~;
#X obj 185 147 r \$1-flg-enable;
#X obj 294 15 loadbang;
#X obj 294 37 0;
#X obj 294 82 s \$1-flg-enable;
#X obj 105 29 inlet~;
#X obj 171 259 outlet~;
#X obj 90 174 stereoflanger~;
#X obj 39 164 == 0;
#X obj 21 189 *~;
#X obj 51 189 *~;
#X obj 121 54 r \$1-flg-freq;
#X obj 137 78 r \$1-flg-width;
#X obj 153 102 r \$1-flg-feedback;
#X obj 169 125 r \$1-flg-wet;
#X obj 312 62 s \$1-flg-wet;
#X connect 0 0 8 0;
#X connect 0 0 10 0;
#X connect 2 0 8 6;
#X connect 2 0 9 0;
#X connect 3 0 4 0;
#X connect 4 0 5 0;
#X connect 4 0 16 0;
#X connect 6 0 8 1;
#X connect 6 0 11 0;
#X connect 8 0 1 0;
#X connect 8 1 7 0;
#X connect 9 0 10 1;
#X connect 9 0 11 1;
#X connect 10 0 1 0;
#X connect 11 0 7 0;
#X connect 12 0 8 2;
#X connect 13 0 8 3;
#X connect 14 0 8 4;
#X connect 15 0 8 5;
#X restore 667 394 pd flanger;
#X obj 619 30 r \$1-del-moveup;
#X obj 769 30 r \$1-del-movedown;
#X obj 45 66 r \$0-movedown;
#X msg 45 87 movedown \$1;
#X obj 769 79 s \$0-movedown;
#X obj 769 55 0;
#X obj 22 14 r \$0-moveup;
#X msg 22 39 moveup \$1;
#X obj 619 55 0;
#X obj 619 79 s \$0-moveup;
#X obj 769 152 s \$0-movedown;
#X obj 619 152 s \$0-moveup;
#X obj 619 103 r \$1-flg-moveup;
#X obj 769 103 r \$1-flg-movedown;
#X obj 619 128 1;
#X obj 769 128 1;
#X obj 1049 79 s \$0-movedown;
#X obj 915 79 s \$0-moveup;
#X obj 915 30 r \$1-rev-moveup;
#X obj 1049 30 r \$1-rev-movedown;
#X obj 190 476 table \$1-fxlist;
#X obj 92 129 r~ \$0-out1L;
#X obj 115 151 r~ \$0-out2L;
#X obj 138 171 r~ \$0-out3L;
#X obj 68 439 s~ \$0-in1L;
#X obj 88 419 s~ \$0-in2L;
#X obj 107 399 s~ \$0-in3L;
#X obj 552 347 r~ \$0-in1L;
#X obj 553 440 s~ \$0-out1L;
#X obj 666 347 r~ \$0-in2L;
#X obj 666 439 s~ \$0-out2L;
#X obj 560 369 r~ \$0-in1R;
#X obj 566 419 s~ \$0-out1R;
#X obj 676 369 r~ \$0-in2R;
#X obj 677 419 s~ \$0-out2R;
#X obj 340 103 inlet~;
#X obj 436 272 outlet~;
#X obj 318 62 r \$0-movedown;
#X msg 318 83 movedown \$1;
#X obj 295 10 r \$0-moveup;
#X msg 295 35 moveup \$1;
#X obj 365 123 r~ \$0-out1R;
#X obj 388 143 r~ \$0-out2R;
#X obj 411 162 r~ \$0-out3R;
#X obj 380 341 s~ \$0-in3R;
#X obj 360 361 s~ \$0-in2R;
#X obj 341 381 s~ \$0-in1R;
#N canvas 2108 521 450 300 chorus 0;
#X obj 142 8 inlet~;
#X obj 152 34 inlet~;
#X obj 140 254 outlet~;
#X obj 216 253 outlet~;
#X obj 141 167 stereochorus~;
#X obj 215 143 r \$1-chorus-enable;
#X obj 165 56 r \$1-chorus-depth;
#X obj 178 80 r \$1-chorus-speed;
#X obj 190 102 r \$1-chorus-spread;
#X obj 202 123 r \$1-chorus-drywet;
#X obj 57 160 == 0;
#X obj 39 185 *~;
#X obj 69 185 *~;
#X obj 310 6 loadbang;
#X obj 310 29 0;
#X obj 310 53 s \$1-chorus-enable;
#X connect 0 0 4 0;
#X connect 0 0 11 0;
#X connect 1 0 4 1;
#X connect 1 0 12 0;
#X connect 4 0 2 0;
#X connect 4 1 3 0;
#X connect 5 0 4 6;
#X connect 5 0 10 0;
#X connect 6 0 4 2;
#X connect 7 0 4 3;
#X connect 8 0 4 4;
#X connect 9 0 4 5;
#X connect 10 0 11 1;
#X connect 10 0 12 1;
#X connect 11 0 2 0;
#X connect 12 0 3 0;
#X connect 13 0 14 0;
#X connect 14 0 15 0;
#X restore 777 395 pd chorus;
#X obj 778 346 r~ \$0-in3L;
#X obj 785 369 r~ \$0-in3R;
#X obj 777 440 s~ \$0-out3L;
#X obj 789 419 s~ \$0-out3R;
#X obj 769 225 s \$0-movedown;
#X obj 619 225 s \$0-moveup;
#X obj 619 176 r \$1-chorus-moveup;
#X obj 769 176 r \$1-chorus-movedown;
#X obj 619 200 2;
#X obj 769 201 2;
#X obj 399 321 s~ \$0-in4R;
#X obj 433 183 r~ \$0-out4R;
#X obj 184 317 array set \$1-fxlist;
#X obj 202 295 s \$1-fxlistctl;
#X obj 202 240 loadbang;
#X obj 126 378 s~ \$0-in4L;
#X obj 160 192 r~ \$0-out4L;
#X msg 202 265 list 0 1 2 3;
#X obj 341 228 fxchain~ 5, f 17;
#X obj 456 204 r~ \$0-out5R;
#X obj 417 297 s~ \$0-in5R;
#X obj 989 349 r~ \$0-in5L;
#X obj 996 372 r~ \$0-in5R;
#X obj 1001 421 s~ \$0-out5R;
#X obj 988 442 s~ \$0-out5L;
#X obj 915 54 4;
#X obj 1049 55 4;
#N canvas 645 588 456 299 tremolo 1;
#X obj 277 12 loadbang;
#X obj 277 35 0;
#X obj 19 204 *~;
#X obj 37 180 == 0;
#X obj 99 17 inlet~;
#X obj 40 17 inlet~;
#X obj 159 248 outlet~;
#X obj 86 289 outlet~;
#X obj 52 204 *~;
#X obj 277 59 s \$1-tremolo-enable;
#X obj 160 163 r \$1-tremolo-enable;
#X obj 86 191 tremolo~, f 11;
#X obj 115 98 r \$1-tremolo-rate;
#X obj 130 119 r \$1-tremolo-smooth;
#X obj 145 142 r \$1-tremolo-depth;
#X connect 0 0 1 0;
#X connect 1 0 9 0;
#X connect 2 0 7 0;
#X connect 3 0 2 1;
#X connect 3 0 8 1;
#X connect 4 0 8 0;
#X connect 4 0 11 1;
#X connect 5 0 2 0;
#X connect 5 0 11 0;
#X connect 8 0 6 0;
#X connect 10 0 3 0;
#X connect 10 0 11 5;
#X connect 11 0 7 0;
#X connect 11 1 6 0;
#X connect 12 0 11 2;
#X connect 13 0 11 3;
#X connect 14 0 11 4;
#X restore 875 396 pd tremolo;
#X obj 875 349 r~ \$0-in4L;
#X obj 882 372 r~ \$0-in4R;
#X obj 887 421 s~ \$0-out4R;
#X obj 874 442 s~ \$0-out4L;
#X obj 769 299 s \$0-movedown;
#X obj 619 299 s \$0-moveup;
#X obj 619 274 3;
#X obj 769 275 3;
#X obj 619 250 r \$1-tremolo-moveup;
#X obj 769 250 r \$1-tremolo-movedown;
#X obj 68 239 fxchain~ 5, f 17;
#X obj 144 358 s~ \$0-in5L;
#X obj 183 213 r~ \$0-out5L;
#X connect 0 0 91 0;
#X connect 2 0 77 0;
#X connect 2 1 76 0;
#X connect 3 0 33 0;
#X connect 3 1 37 0;
#X connect 4 0 35 0;
#X connect 4 1 39 0;
#X connect 5 0 13 0;
#X connect 6 0 10 0;
#X connect 7 0 8 0;
#X connect 8 0 91 0;
#X connect 10 0 9 0;
#X connect 11 0 12 0;
#X connect 12 0 91 0;
#X connect 13 0 14 0;
#X connect 17 0 19 0;
#X connect 18 0 20 0;
#X connect 19 0 16 0;
#X connect 20 0 15 0;
#X connect 23 0 78 0;
#X connect 24 0 79 0;
#X connect 26 0 91 1;
#X connect 27 0 91 2;
#X connect 28 0 91 3;
#X connect 32 0 3 0;
#X connect 34 0 4 0;
#X connect 36 0 3 1;
#X connect 38 0 4 1;
#X connect 40 0 71 0;
#X connect 42 0 43 0;
#X connect 43 0 71 0;
#X connect 44 0 45 0;
#X connect 45 0 71 0;
#X connect 46 0 71 1;
#X connect 47 0 71 2;
#X connect 48 0 71 3;
#X connect 52 0 55 0;
#X connect 52 1 56 0;
#X connect 53 0 52 0;
#X connect 54 0 52 1;
#X connect 59 0 61 0;
#X connect 60 0 62 0;
#X connect 61 0 58 0;
#X connect 62 0 57 0;
#X connect 64 0 71 4;
#X connect 67 0 70 0;
#X connect 69 0 91 4;
#X connect 70 0 66 0;
#X connect 70 0 65 0;
#X connect 71 0 51 0;
#X connect 71 1 50 0;
#X connect 71 2 49 0;
#X connect 71 3 63 0;
#X connect 71 4 73 0;
#X connect 71 5 41 0;
#X connect 72 0 71 5;
#X connect 74 0 2 0;
#X connect 75 0 2 1;
#X connect 78 0 22 0;
#X connect 79 0 21 0;
#X connect 80 0 84 0;
#X connect 80 1 83 0;
#X connect 81 0 80 0;
#X connect 82 0 80 1;
#X connect 87 0 86 0;
#X connect 88 0 85 0;
#X connect 89 0 87 0;
#X connect 90 0 88 0;
#X connect 91 0 29 0;
#X connect 91 1 30 0;
#X connect 91 2 31 0;
#X connect 91 3 68 0;
#X connect 91 4 92 0;
#X connect 91 5 1 0;
#X connect 91 6 66 0;
#X connect 91 6 65 0;
#X connect 93 0 91 5;
