#N canvas 146 283 697 470 10;
#X obj 54 20 inlet~;
#X obj 25 395 outlet~;
#X obj 25 370 catch~ fxoutput;
#X obj 54 56 throw~ fxoutput;
#X obj 278 18 r \$1-fxorder;
#N canvas 47 544 450 300 gainer 0;
#X obj 90 30 catch~ gainer;
#X obj 94 213 throw~ fxoutput;
#X obj 122 183 r setoutput0;
#X connect 0 0 1 0;
#X connect 2 0 1 0;
#X restore 50 118 pd gainer;
#N canvas 63 317 450 300 delay 0;
#X obj 94 213 throw~ fxoutput;
#X obj 90 30 catch~ delay;
#X obj 122 183 r setoutput1;
#X connect 1 0 0 0;
#X connect 2 0 0 0;
#X restore 49 145 pd delay;
#N canvas 90 317 450 300 reverb 0;
#X obj 94 213 throw~ fxoutput;
#X obj 90 30 catch~ reverb;
#X obj 112 185 r setoutput2;
#X connect 1 0 0 0;
#X connect 2 0 0 0;
#X restore 49 176 pd reverb;
#X obj 219 290 r \$1-gainer-moveup;
#X obj 363 290 r \$1-gainer-movedown;
#X obj 219 331 r \$1-del-moveup;
#X obj 369 331 r \$1-del-movedown;
#X obj 215 396 r \$1-rev-moveup;
#X obj 365 396 r \$1-rev-movedown;
#X obj 107 29 r setoutputfx;
#X obj 278 51 unpack 0 0 0;
#X obj 226 124 r \$1-gainer-enable;
#N canvas 821 261 486 323 isenabled 0;
#X obj 70 55 inlet;
#X obj 70 219 outlet;
#X obj 210 102 r enable;
#X obj 298 92 r disable;
#X obj 203 226 table fxlist;
#X obj 210 181 tabwrite fxlist;
#X obj 210 127 t b f;
#X obj 210 155 1;
#X obj 298 119 t b f;
#X obj 287 146 0;
#X obj 70 124 tabread fxlist;
#X connect 0 0 10 0;
#X connect 2 0 6 0;
#X connect 3 0 8 0;
#X connect 6 0 7 0;
#X connect 6 1 5 1;
#X connect 7 0 5 0;
#X connect 8 0 9 0;
#X connect 8 1 5 1;
#X connect 9 0 5 0;
#X connect 10 0 1 0;
#X restore 407 48 pd isenabled;
#X obj 226 146 moses 1;
#X obj 226 168 0;
#X obj 226 190 s disable;
#X obj 291 190 s enable;
#X obj 291 168 0;
#X obj 360 146 moses 1;
#X obj 360 190 s disable;
#X obj 425 190 s enable;
#X obj 360 124 r \$1-del-enable;
#X obj 360 168 1;
#X obj 425 168 1;
#X obj 494 146 moses 1;
#X obj 494 190 s disable;
#X obj 559 190 s enable;
#X obj 494 124 r \$1-rev-enable;
#X obj 494 168 2;
#X obj 559 168 2;
#N canvas 982 311 450 300 fxlisttest 1;
#X obj 111 32 bng 15 250 50 0 empty empty empty 17 7 0 10 -262144 -1
-1;
#X obj 91 201 print 0;
#X obj 113 77 fxlist 3, f 15;
#X obj 145 202 print 1;
#X obj 198 203 print 2;
#X obj 242 131 print fxlist;
#X msg 186 31 moveup 1;
#X msg 258 39 movedown 1;
#X obj 265 176 print fxinput;
#X obj 18 235 print fxoutput;
#X msg 20 3 enable 1 1;
#X msg 29 31 enable 2 1;
#X msg 152 3 list 2 1 0;
#X connect 0 0 2 0;
#X connect 2 0 9 0;
#X connect 2 1 1 0;
#X connect 2 2 3 0;
#X connect 2 3 4 0;
#X connect 2 4 8 0;
#X connect 2 5 5 0;
#X connect 6 0 2 0;
#X connect 7 0 2 0;
#X connect 10 0 2 0;
#X connect 11 0 2 0;
#X connect 12 0 2 0;
#X restore 60 293 pd fxlisttest;
#X connect 0 0 3 0;
#X connect 2 0 1 0;
#X connect 4 0 15 0;
#X connect 14 0 3 0;
#X connect 16 0 18 0;
#X connect 18 0 19 0;
#X connect 18 1 22 0;
#X connect 19 0 20 0;
#X connect 22 0 21 0;
#X connect 23 0 27 0;
#X connect 23 1 28 0;
#X connect 26 0 23 0;
#X connect 27 0 24 0;
#X connect 28 0 25 0;
#X connect 29 0 33 0;
#X connect 29 1 34 0;
#X connect 32 0 29 0;
#X connect 33 0 30 0;
#X connect 34 0 31 0;
