#N canvas 1600 295 1280 636 10;
#X obj 95 124 inlet~;
#X obj 198 414 outlet~;
#N canvas 1931 376 420 282 reverb 0;
#X obj 277 12 loadbang;
#X obj 277 35 0;
#X obj 277 59 s \$1-rev-enable;
#X obj 84 184 stereoreverb~, f 17;
#X obj 117 56 r \$1-rev-damp;
#X obj 133 78 r \$1-rev-roomsize;
#X obj 150 100 r \$1-rev-dry;
#X obj 166 121 r \$1-rev-wet;
#X obj 200 163 r \$1-rev-enable;
#X obj 183 143 r \$1-rev-spread;
#X obj 19 204 *~;
#X obj 37 180 == 0;
#X obj 99 17 inlet~;
#X obj 40 17 inlet~;
#X obj 199 241 outlet~;
#X obj 84 244 outlet~;
#X obj 52 204 *~;
#X connect 0 0 1 0;
#X connect 1 0 2 0;
#X connect 3 0 15 0;
#X connect 3 1 14 0;
#X connect 4 0 3 2;
#X connect 5 0 3 3;
#X connect 7 0 3 4;
#X connect 8 0 3 6;
#X connect 8 0 11 0;
#X connect 9 0 3 5;
#X connect 10 0 15 0;
#X connect 11 0 10 1;
#X connect 11 0 16 1;
#X connect 12 0 3 1;
#X connect 12 0 16 0;
#X connect 13 0 3 0;
#X connect 13 0 10 0;
#X connect 16 0 14 0;
#X restore 1007 553 pd reverb;
#N canvas 1940 199 437 277 delay 0;
#X obj 92 7 inlet~;
#X obj 129 253 outlet~;
#X obj 321 7 loadbang;
#X obj 321 30 0;
#X obj 321 54 s \$1-del-enable;
#X obj 144 7 inlet~;
#X obj 224 252 outlet~;
#X obj 128 146 pingpongdelay~;
#X obj 159 35 r \$1-del-delay;
#X obj 175 59 r \$1-del-feedback;
#X obj 191 81 r \$1-del-wet;
#X obj 223 122 r \$1-del-enable;
#X obj 207 102 r \$1-del-spread;
#X obj 45 139 == 0;
#X obj 27 164 *~;
#X obj 57 164 *~;
#X connect 0 0 14 0;
#X connect 0 0 7 0;
#X connect 2 0 3 0;
#X connect 3 0 4 0;
#X connect 5 0 15 0;
#X connect 5 0 7 1;
#X connect 7 0 1 0;
#X connect 7 1 6 0;
#X connect 8 0 7 2;
#X connect 9 0 7 3;
#X connect 10 0 7 4;
#X connect 11 0 7 6;
#X connect 11 0 13 0;
#X connect 12 0 7 5;
#X connect 13 0 14 1;
#X connect 13 0 15 1;
#X connect 14 0 1 0;
#X connect 15 0 6 0;
#X restore 683 550 pd delay;
#N canvas 2029 437 418 291 flanger 0;
#X obj 89 8 inlet~;
#X obj 102 259 outlet~;
#X obj 185 147 r \$1-flg-enable;
#X obj 294 15 loadbang;
#X obj 294 37 0;
#X obj 294 82 s \$1-flg-enable;
#X obj 105 29 inlet~;
#X obj 171 259 outlet~;
#X obj 90 174 stereoflanger~;
#X obj 39 164 == 0;
#X obj 21 189 *~;
#X obj 51 189 *~;
#X obj 121 54 r \$1-flg-freq;
#X obj 137 78 r \$1-flg-width;
#X obj 153 102 r \$1-flg-feedback;
#X obj 169 125 r \$1-flg-wet;
#X obj 312 62 s \$1-flg-wet;
#X connect 0 0 8 0;
#X connect 0 0 10 0;
#X connect 2 0 8 6;
#X connect 2 0 9 0;
#X connect 3 0 4 0;
#X connect 4 0 5 0;
#X connect 4 0 16 0;
#X connect 6 0 8 1;
#X connect 6 0 11 0;
#X connect 8 0 1 0;
#X connect 8 1 7 0;
#X connect 9 0 10 1;
#X connect 9 0 11 1;
#X connect 10 0 1 0;
#X connect 11 0 7 0;
#X connect 12 0 8 2;
#X connect 13 0 8 3;
#X connect 14 0 8 4;
#X connect 15 0 8 5;
#X restore 798 551 pd flanger;
#X obj 1019 63 r \$1-del-moveup;
#X obj 1169 63 r \$1-del-movedown;
#X obj 73 81 r \$0-movedown;
#X msg 73 102 movedown \$1;
#X obj 1169 112 s \$0-movedown;
#X obj 50 29 r \$0-moveup;
#X msg 50 54 moveup \$1;
#X obj 1019 112 s \$0-moveup;
#X obj 1153 195 s \$0-movedown;
#X obj 1020 195 s \$0-moveup;
#X obj 1020 146 r \$1-flg-moveup;
#X obj 1153 146 r \$1-flg-movedown;
#X obj 1156 343 s \$0-movedown;
#X obj 1021 343 s \$0-moveup;
#X obj 1021 294 r \$1-rev-moveup;
#X obj 1156 294 r \$1-rev-movedown;
#X obj 472 555 table \$1-fxlist;
#X obj 111 144 r~ \$0-out1L;
#X obj 126 166 r~ \$0-out2L;
#X obj 140 186 r~ \$0-out3L;
#X obj 96 585 s~ \$0-in1L;
#X obj 108 565 s~ \$0-in2L;
#X obj 122 545 s~ \$0-in3L;
#X obj 394 135 inlet~;
#X obj 498 348 outlet~;
#X obj 372 94 r \$0-movedown;
#X msg 372 115 movedown \$1;
#X obj 349 42 r \$0-moveup;
#X msg 349 67 moveup \$1;
#X obj 410 155 r~ \$0-out1R;
#X obj 425 175 r~ \$0-out2R;
#X obj 439 194 r~ \$0-out3R;
#X obj 421 470 s~ \$0-in3R;
#X obj 408 490 s~ \$0-in2R;
#X obj 395 510 s~ \$0-in1R;
#N canvas 2025 514 450 300 chorus 0;
#X obj 142 8 inlet~;
#X obj 154 34 inlet~;
#X obj 140 254 outlet~;
#X obj 216 253 outlet~;
#X obj 141 167 stereochorus~;
#X obj 229 143 r \$1-chorus-enable;
#X obj 170 56 r \$1-chorus-depth;
#X obj 185 80 r \$1-chorus-speed;
#X obj 199 102 r \$1-chorus-spread;
#X obj 57 160 == 0;
#X obj 39 185 *~;
#X obj 69 185 *~;
#X obj 310 6 loadbang;
#X obj 310 29 0;
#X obj 310 53 s \$1-chorus-enable;
#X obj 214 123 r \$1-chorus-wet;
#X connect 0 0 4 0;
#X connect 0 0 10 0;
#X connect 1 0 4 1;
#X connect 1 0 11 0;
#X connect 4 0 2 0;
#X connect 4 1 3 0;
#X connect 5 0 4 6;
#X connect 5 0 9 0;
#X connect 6 0 4 2;
#X connect 7 0 4 3;
#X connect 8 0 4 4;
#X connect 9 0 10 1;
#X connect 9 0 11 1;
#X connect 10 0 2 0;
#X connect 11 0 3 0;
#X connect 12 0 13 0;
#X connect 13 0 14 0;
#X connect 15 0 4 5;
#X restore 908 552 pd chorus;
#X obj 1154 270 s \$0-movedown;
#X obj 1021 270 s \$0-moveup;
#X obj 1021 221 r \$1-chorus-moveup;
#X obj 1154 221 r \$1-chorus-movedown;
#X obj 432 450 s~ \$0-in4R;
#X obj 453 215 r~ \$0-out4R;
#X obj 212 393 array set \$1-fxlist;
#X obj 230 371 s \$1-fxlistctl;
#X obj 230 316 loadbang;
#X obj 135 524 s~ \$0-in4L;
#X obj 155 207 r~ \$0-out4L;
#X obj 468 236 r~ \$0-out5R;
#X obj 447 431 s~ \$0-in5R;
#N canvas 1730 497 456 320 tremolo 0;
#X obj 277 12 loadbang;
#X obj 277 35 0;
#X obj 19 204 *~;
#X obj 37 180 == 0;
#X obj 99 17 inlet~;
#X obj 40 17 inlet~;
#X obj 159 248 outlet~;
#X obj 86 289 outlet~;
#X obj 52 204 *~;
#X obj 277 59 s \$1-tremolo-enable;
#X obj 160 163 r \$1-tremolo-enable;
#X obj 86 191 tremolo~, f 11;
#X obj 115 98 r \$1-tremolo-rate;
#X obj 130 119 r \$1-tremolo-smooth;
#X obj 145 142 r \$1-tremolo-depth;
#X connect 0 0 1 0;
#X connect 1 0 9 0;
#X connect 2 0 7 0;
#X connect 3 0 2 1;
#X connect 3 0 8 1;
#X connect 4 0 8 0;
#X connect 4 0 11 1;
#X connect 5 0 2 0;
#X connect 5 0 11 0;
#X connect 8 0 6 0;
#X connect 10 0 3 0;
#X connect 10 0 11 5;
#X connect 11 0 7 0;
#X connect 11 1 6 0;
#X connect 12 0 11 2;
#X connect 13 0 11 3;
#X connect 14 0 11 4;
#X restore 1004 420 pd tremolo;
#X obj 833 343 s \$0-movedown;
#X obj 682 343 s \$0-moveup;
#X obj 682 294 r \$1-tremolo-moveup;
#X obj 833 294 r \$1-tremolo-movedown;
#X obj 148 504 s~ \$0-in5L;
#X obj 169 228 r~ \$0-out5L;
#X obj 184 250 r~ \$0-out6L;
#X obj 483 257 r~ \$0-out6R;
#X obj 161 484 s~ \$0-in6L;
#X obj 460 412 s~ \$0-in6R;
#X obj 833 190 s \$0-movedown;
#X obj 683 190 s \$0-moveup;
#N canvas 2151 497 495 342 3bandeq 1;
#X obj 114 41 inlet~;
#X obj 93 13 inlet~;
#N canvas 1651 177 1093 291 eq 1;
#X obj 7 9 inlet~;
#X obj 7 267 outlet~;
#X obj 6 87 faustlowshelf~;
#X obj 7 239 fausthighshelf~;
#X obj 7 173 faustpeakeq~;
#X obj 272 9 inlet~;
#X obj 272 267 outlet~;
#X obj 271 87 faustlowshelf~;
#X obj 272 239 fausthighshelf~;
#X obj 272 173 faustpeakeq~;
#X obj 496 22 inlet lowgain;
#X obj 595 22 inlet midgain;
#X obj 694 22 inlet midfreq;
#X obj 887 22 inlet highgain;
#X obj 53 42 r \$0-lowshelffreq;
#X obj 318 42 r \$0-lowshelffreq;
#X obj 672 117 loadbang;
#X obj 581 193 s \$0-lowshelffreq;
#X obj 58 197 r \$0-highshelffreq;
#X obj 323 197 r \$0-highshelffreq;
#X obj 720 170 5000;
#X obj 720 193 s \$0-highshelffreq;
#X obj 101 62 r \$0-lowgain;
#X obj 366 62 r \$0-lowgain;
#X obj 496 43 s \$0-lowgain;
#X obj 61 132 r \$0-midgain;
#X obj 326 132 r \$0-midgain;
#X obj 595 43 s \$0-midgain;
#X obj 34 112 r \$0-midfreq;
#X obj 299 112 r \$0-midfreq;
#X obj 694 43 s \$0-midfreq;
#X obj 88 152 r \$0-midbw;
#X obj 353 152 r \$0-midbw;
#X obj 796 43 s \$0-midbw;
#X obj 796 22 inlet midbw;
#X obj 109 218 r \$0-highgain;
#X obj 374 218 r \$0-highgain;
#X obj 887 42 s \$0-highgain;
#X obj 996 22 inlet enable;
#X obj 996 42 switch~;
#X obj 581 170 200;
#X connect 0 0 2 0;
#X connect 2 0 4 0;
#X connect 3 0 1 0;
#X connect 4 0 3 0;
#X connect 5 0 7 0;
#X connect 7 0 9 0;
#X connect 8 0 6 0;
#X connect 9 0 8 0;
#X connect 10 0 24 0;
#X connect 11 0 27 0;
#X connect 12 0 30 0;
#X connect 13 0 37 0;
#X connect 14 0 2 1;
#X connect 15 0 7 1;
#X connect 16 0 20 0;
#X connect 16 0 40 0;
#X connect 18 0 3 1;
#X connect 19 0 8 1;
#X connect 20 0 21 0;
#X connect 22 0 2 2;
#X connect 23 0 7 2;
#X connect 25 0 4 2;
#X connect 26 0 9 2;
#X connect 28 0 4 1;
#X connect 29 0 9 1;
#X connect 31 0 4 3;
#X connect 32 0 9 3;
#X connect 34 0 33 0;
#X connect 35 0 3 2;
#X connect 36 0 8 2;
#X connect 38 0 39 0;
#X connect 40 0 17 0;
#X restore 92 240 pd eq;
#X obj 91 310 outlet~;
#X obj 251 311 outlet~;
#X obj 137 101 r \$1-3eq-lowgain;
#X obj 159 121 r \$1-3eq-midgain;
#X obj 182 140 r \$1-3eq-midfreq;
#X obj 204 160 r \$1-3eq-midbw;
#X obj 227 179 r \$1-3eq-highgain;
#X obj 250 200 r \$1-3eq-enable;
#X obj 18 241 *~;
#X obj 36 217 == 0;
#X obj 51 241 *~;
#X obj 373 18 loadbang;
#X obj 373 41 0;
#X obj 373 65 s \$1-3eq-enable;
#X connect 0 0 2 1;
#X connect 0 0 13 0;
#X connect 1 0 2 0;
#X connect 1 0 11 0;
#X connect 2 0 3 0;
#X connect 2 1 4 0;
#X connect 5 0 2 2;
#X connect 6 0 2 3;
#X connect 7 0 2 4;
#X connect 8 0 2 5;
#X connect 9 0 2 6;
#X connect 10 0 2 7;
#X connect 10 0 12 0;
#X connect 11 0 3 0;
#X connect 12 0 11 1;
#X connect 12 0 13 1;
#X connect 13 0 4 0;
#X connect 14 0 15 0;
#X connect 15 0 16 0;
#X restore 898 419 pd 3bandeq;
#X obj 198 270 r~ \$0-out7L;
#X obj 174 462 s~ \$0-in7L;
#X obj 473 392 s~ \$0-in7R;
#X obj 497 276 r~ \$0-out7R;
#X obj 833 267 s \$0-movedown;
#X obj 683 267 s \$0-moveup;
#X obj 683 218 r \$1-3eq-moveup;
#X obj 833 218 r \$1-3eq-movedown;
#N canvas 1928 457 476 277 fxfilter 0;
#X obj 92 7 inlet~;
#X obj 129 253 outlet~;
#X obj 321 7 loadbang;
#X obj 321 30 0;
#X obj 144 7 inlet~;
#X obj 224 252 outlet~;
#X obj 45 139 == 0;
#X obj 27 164 *~;
#X obj 57 164 *~;
#N canvas 1692 543 633 228 filter 0;
#X obj 14 106 faustreson~;
#X obj 150 106 faustreson~;
#X obj 151 16 inlet~;
#X obj 14 11 inlet~;
#X obj 150 203 outlet~;
#X obj 13 201 outlet~;
#X obj 290 17 inlet freq;
#X obj 387 19 inlet q;
#X obj 290 63 line~;
#X msg 290 39 \$1 30;
#X obj 51 63 r~ \$0-freq;
#X obj 291 86 s~ \$0-freq;
#X obj 538 20 inlet enable;
#X obj 538 43 switch~;
#X obj 186 61 r~ \$0-freq;
#X obj 387 44 s \$0-q;
#X obj 88 83 r \$0-q;
#X obj 224 81 r \$0-q;
#X obj 456 19 inlet mode;
#X obj 25 36 r \$0-mode;
#X obj 164 38 r \$0-mode;
#X obj 473 180 s \$0-mode;
#X obj 419 111 select 0;
#X obj 486 112 select 1;
#X msg 419 132 lp;
#X msg 486 132 hp;
#X msg 551 132 bp;
#X obj 551 112 select 2;
#X connect 0 0 5 0;
#X connect 1 0 4 0;
#X connect 2 0 1 0;
#X connect 3 0 0 0;
#X connect 6 0 9 0;
#X connect 7 0 15 0;
#X connect 8 0 11 0;
#X connect 9 0 8 0;
#X connect 10 0 0 1;
#X connect 12 0 13 0;
#X connect 14 0 1 1;
#X connect 16 0 0 2;
#X connect 17 0 1 2;
#X connect 18 0 22 0;
#X connect 18 0 23 0;
#X connect 18 0 27 0;
#X connect 19 0 0 0;
#X connect 20 0 1 0;
#X connect 22 0 24 0;
#X connect 23 0 25 0;
#X connect 24 0 21 0;
#X connect 25 0 21 0;
#X connect 26 0 21 0;
#X connect 27 0 26 0;
#X restore 131 145 pd filter;
#X obj 155 64 r \$1-fxfilter-freq;
#X obj 167 83 r \$1-fxfilter-q;
#X obj 179 103 r \$1-fxfilter-mode;
#X obj 191 122 r \$1-fxfilter-enable;
#X obj 321 54 s \$1-fxfilter-enable;
#X connect 0 0 7 0;
#X connect 0 0 9 0;
#X connect 2 0 3 0;
#X connect 3 0 14 0;
#X connect 4 0 8 0;
#X connect 4 0 9 1;
#X connect 6 0 7 1;
#X connect 6 0 8 1;
#X connect 7 0 1 0;
#X connect 8 0 5 0;
#X connect 9 0 1 0;
#X connect 9 1 5 0;
#X connect 10 0 9 2;
#X connect 11 0 9 3;
#X connect 12 0 9 4;
#X connect 13 0 6 0;
#X connect 13 0 9 5;
#X restore 796 421 pd fxfilter;
#X obj 683 141 r \$1-fxfilter-moveup;
#X obj 833 141 r \$1-fxfilter-movedown;
#X obj 544 31 r \$1-fxorder;
#X obj 544 59 s \$0-fxorder;
#X obj 35 7 r \$0-fxorder;
#X obj 329 19 r \$0-fxorder;
#N canvas 784 558 463 359 gainer 0;
#N canvas 1878 411 437 418 internals 0;
#X obj 129 16 inlet~;
#X obj 42 16 inlet~;
#X obj 43 383 outlet~;
#X obj 129 381 outlet~;
#X obj 197 40 moses 0.5;
#X obj 197 139 / 0.5;
#X obj 257 64 - 0.5;
#X obj 257 84 / 0.5;
#X obj 257 104 t b f;
#X obj 257 129 1;
#X obj 146 140 1;
#X msg 60 166 \$1 50;
#X obj 60 186 line~;
#X obj 43 208 *~;
#X msg 146 169 \$1 50;
#X obj 146 189 line~;
#X obj 128 211 *~;
#X obj 60 68 loadbang;
#X obj 145 265 inlet gain;
#X obj 197 15 inlet pan;
#X obj 323 13 inlet enable;
#X obj 323 36 switch~;
#X obj 75 119 bng 15 250 50 0 empty empty empty 17 7 0 10 -262144 -1
-1;
#X obj 161 117 bng 15 250 50 0 empty empty empty 17 7 0 10 -262144
-1 -1;
#X obj 60 147 1;
#X obj 271 149 -;
#X obj 128 331 *~;
#X obj 43 331 *~;
#X msg 60 290 \$1 50;
#X obj 60 310 line~;
#X msg 145 290 \$1 50;
#X obj 145 310 line~;
#X obj 60 240 loadbang;
#X obj 60 264 1;
#X connect 0 0 16 0;
#X connect 1 0 13 0;
#X connect 4 0 5 0;
#X connect 4 0 22 0;
#X connect 4 1 6 0;
#X connect 4 1 23 0;
#X connect 5 0 14 0;
#X connect 6 0 7 0;
#X connect 7 0 8 0;
#X connect 8 0 9 0;
#X connect 8 1 25 1;
#X connect 9 0 25 0;
#X connect 10 0 14 0;
#X connect 11 0 12 0;
#X connect 12 0 13 1;
#X connect 13 0 27 0;
#X connect 14 0 15 0;
#X connect 15 0 16 1;
#X connect 16 0 26 0;
#X connect 17 0 10 0;
#X connect 17 0 24 0;
#X connect 18 0 30 0;
#X connect 18 0 28 0;
#X connect 19 0 4 0;
#X connect 20 0 21 0;
#X connect 22 0 24 0;
#X connect 23 0 10 0;
#X connect 24 0 11 0;
#X connect 25 0 11 0;
#X connect 26 0 3 0;
#X connect 27 0 2 0;
#X connect 28 0 29 0;
#X connect 29 0 27 1;
#X connect 30 0 31 0;
#X connect 31 0 26 1;
#X connect 32 0 33 0;
#X connect 33 0 28 0;
#X connect 33 0 30 0;
#X restore 98 161 pd internals;
#X obj 138 54 r \$1-gainer-gain;
#X obj 158 102 r \$1-gainer-pan;
#X obj 69 27 inlet~;
#X obj 119 27 inlet~;
#X obj 45 139 == 0;
#X obj 27 164 *~;
#X obj 57 164 *~;
#X obj 40 264 outlet~;
#X obj 135 263 outlet~;
#X obj 179 122 r \$1-gainer-enable;
#X obj 282 6 loadbang;
#X obj 282 29 0;
#X obj 282 53 s \$1-gainer-enable;
#X obj 138 79 logvolume -50 12;
#X connect 0 0 8 0;
#X connect 0 1 9 0;
#X connect 1 0 14 0;
#X connect 2 0 0 3;
#X connect 3 0 0 0;
#X connect 3 0 6 0;
#X connect 4 0 0 1;
#X connect 4 0 7 0;
#X connect 5 0 6 1;
#X connect 5 0 7 1;
#X connect 6 0 8 0;
#X connect 7 0 9 0;
#X connect 10 0 0 4;
#X connect 10 0 5 0;
#X connect 11 0 12 0;
#X connect 12 0 13 0;
#X connect 14 0 0 2;
#X restore 682 424 pd gainer;
#X obj 96 315 fxchain~ 8, f 17;
#X obj 185 441 s~ \$0-in8L;
#X obj 211 293 r~ \$0-out8L;
#X obj 395 322 fxchain~ 8, f 17;
#X obj 484 372 s~ \$0-in8R;
#X obj 510 298 r~ \$0-out8R;
#X obj 683 374 r~ \$0-in1L;
#X obj 683 467 s~ \$0-out1L;
#X obj 691 396 r~ \$0-in1R;
#X obj 697 446 s~ \$0-out1R;
#X obj 795 374 r~ \$0-in2L;
#X obj 803 396 r~ \$0-in2R;
#X obj 809 446 s~ \$0-out2R;
#X obj 796 467 s~ \$0-out2L;
#X obj 899 373 r~ \$0-in3L;
#X obj 906 396 r~ \$0-in3R;
#X obj 912 445 s~ \$0-out3R;
#X obj 899 466 s~ \$0-out3L;
#X obj 1004 373 r~ \$0-in4L;
#X obj 1011 396 r~ \$0-in4R;
#X obj 1016 445 s~ \$0-out4R;
#X obj 1003 466 s~ \$0-out4L;
#X obj 683 504 r~ \$0-in5L;
#X obj 691 526 r~ \$0-in5R;
#X obj 697 576 s~ \$0-out5R;
#X obj 684 597 s~ \$0-out5L;
#X obj 797 504 r~ \$0-in6L;
#X obj 807 526 r~ \$0-in6R;
#X obj 808 576 s~ \$0-out6R;
#X obj 797 596 s~ \$0-out6L;
#X obj 909 503 r~ \$0-in7L;
#X obj 916 526 r~ \$0-in7R;
#X obj 920 576 s~ \$0-out7R;
#X obj 908 597 s~ \$0-out7L;
#X obj 1007 506 r~ \$0-in8L;
#X obj 1014 528 r~ \$0-in8R;
#X obj 1019 578 s~ \$0-out8R;
#X obj 1006 599 s~ \$0-out8L;
#X obj 683 166 1;
#X obj 833 166 1;
#X obj 683 243 2;
#X obj 833 243 2;
#X obj 682 318 3;
#X obj 833 319 3;
#X obj 1019 88 4;
#X obj 1169 89 4;
#X obj 1020 171 5;
#X obj 1153 171 5;
#X obj 1021 245 6;
#X obj 1154 246 6;
#X obj 1021 318 7;
#X obj 1156 319 7;
#X obj 833 111 s \$0-movedown;
#X obj 683 111 s \$0-moveup;
#X obj 683 62 r \$1-gainer-moveup;
#X obj 683 87 0;
#X obj 833 87 0;
#X obj 833 62 r \$1-gainer-movedown;
#X msg 230 341 list 0 1 2 3 4 5 6 7;
#X connect 0 0 84 0;
#X connect 2 0 121 0;
#X connect 2 1 120 0;
#X connect 3 0 109 0;
#X connect 3 1 108 0;
#X connect 4 0 113 0;
#X connect 4 1 112 0;
#X connect 5 0 128 0;
#X connect 6 0 129 0;
#X connect 7 0 8 0;
#X connect 8 0 84 0;
#X connect 10 0 11 0;
#X connect 11 0 84 0;
#X connect 15 0 130 0;
#X connect 16 0 131 0;
#X connect 19 0 134 0;
#X connect 20 0 135 0;
#X connect 22 0 84 1;
#X connect 23 0 84 2;
#X connect 24 0 84 3;
#X connect 28 0 87 0;
#X connect 30 0 31 0;
#X connect 31 0 87 0;
#X connect 32 0 33 0;
#X connect 33 0 87 0;
#X connect 34 0 87 1;
#X connect 35 0 87 2;
#X connect 36 0 87 3;
#X connect 40 0 117 0;
#X connect 40 1 116 0;
#X connect 43 0 132 0;
#X connect 44 0 133 0;
#X connect 46 0 87 4;
#X connect 49 0 142 0;
#X connect 51 0 84 4;
#X connect 52 0 87 5;
#X connect 54 0 105 0;
#X connect 54 1 104 0;
#X connect 57 0 126 0;
#X connect 58 0 127 0;
#X connect 60 0 84 5;
#X connect 61 0 84 6;
#X connect 62 0 87 6;
#X connect 67 0 101 0;
#X connect 67 1 100 0;
#X connect 68 0 84 7;
#X connect 71 0 87 7;
#X connect 74 0 124 0;
#X connect 75 0 125 0;
#X connect 76 0 97 0;
#X connect 76 1 96 0;
#X connect 77 0 122 0;
#X connect 78 0 123 0;
#X connect 79 0 80 0;
#X connect 81 0 84 0;
#X connect 82 0 87 0;
#X connect 83 0 91 0;
#X connect 83 1 93 0;
#X connect 84 0 25 0;
#X connect 84 1 26 0;
#X connect 84 2 27 0;
#X connect 84 3 50 0;
#X connect 84 4 59 0;
#X connect 84 5 63 0;
#X connect 84 6 69 0;
#X connect 84 7 85 0;
#X connect 84 8 1 0;
#X connect 84 9 48 0;
#X connect 84 9 47 0;
#X connect 86 0 84 8;
#X connect 87 0 39 0;
#X connect 87 1 38 0;
#X connect 87 2 37 0;
#X connect 87 3 45 0;
#X connect 87 4 53 0;
#X connect 87 5 64 0;
#X connect 87 6 70 0;
#X connect 87 7 88 0;
#X connect 87 8 29 0;
#X connect 89 0 87 8;
#X connect 90 0 83 0;
#X connect 92 0 83 1;
#X connect 94 0 76 0;
#X connect 95 0 76 1;
#X connect 98 0 67 0;
#X connect 99 0 67 1;
#X connect 102 0 54 0;
#X connect 103 0 54 1;
#X connect 106 0 3 0;
#X connect 107 0 3 1;
#X connect 110 0 4 0;
#X connect 111 0 4 1;
#X connect 114 0 40 0;
#X connect 115 0 40 1;
#X connect 118 0 2 0;
#X connect 119 0 2 1;
#X connect 122 0 66 0;
#X connect 123 0 65 0;
#X connect 124 0 73 0;
#X connect 125 0 72 0;
#X connect 126 0 56 0;
#X connect 127 0 55 0;
#X connect 128 0 12 0;
#X connect 129 0 9 0;
#X connect 130 0 14 0;
#X connect 131 0 13 0;
#X connect 132 0 42 0;
#X connect 133 0 41 0;
#X connect 134 0 18 0;
#X connect 135 0 17 0;
#X connect 138 0 139 0;
#X connect 139 0 137 0;
#X connect 140 0 136 0;
#X connect 141 0 140 0;
#X connect 142 0 48 0;
#X connect 142 0 47 0;
