#N canvas 388 187 943 541 10;
#X obj 54 20 inlet~;
#X obj 53 466 outlet~;
#N canvas 306 520 450 300 fxlisttest 1;
#X obj 111 32 bng 15 250 50 0 empty empty empty 17 7 0 10 -262144 -1
-1;
#X obj 91 201 print 0;
#X obj 113 77 fxlist 3, f 15;
#X obj 145 202 print 1;
#X obj 198 203 print 2;
#X obj 242 131 print fxlist;
#X msg 186 31 moveup 1;
#X msg 258 39 movedown 1;
#X obj 265 176 print fxinput;
#X obj 18 235 print fxoutput;
#X msg 20 3 enable 1 1;
#X msg 29 31 enable 2 1;
#X msg 152 3 list 2 1 0;
#X connect 0 0 2 0;
#X connect 2 0 9 0;
#X connect 2 1 1 0;
#X connect 2 2 3 0;
#X connect 2 3 4 0;
#X connect 2 4 8 0;
#X connect 2 5 5 0;
#X connect 6 0 2 0;
#X connect 7 0 2 0;
#X connect 10 0 2 0;
#X connect 11 0 2 0;
#X connect 12 0 2 0;
#X restore 122 497 pd fxlisttest;
#X obj 229 22 inlet~;
#X obj 229 466 outlet~;
#N canvas 120 312 396 327 3bandeq 0;
#N canvas 1624 177 998 291 eq 0;
#X obj 7 9 inlet~;
#X obj 7 267 outlet~;
#X obj 6 87 faustlowshelf~;
#X obj 7 239 fausthighshelf~;
#X obj 7 173 faustpeakeq~;
#X obj 272 9 inlet~;
#X obj 272 267 outlet~;
#X obj 271 87 faustlowshelf~;
#X obj 272 239 fausthighshelf~;
#X obj 272 173 faustpeakeq~;
#X obj 496 22 inlet lowgain;
#X obj 595 22 inlet midgain;
#X obj 694 22 inlet midfreq;
#X obj 887 22 inlet highgain;
#X obj 53 42 r \$0-lowshelffreq;
#X obj 318 42 r \$0-lowshelffreq;
#X obj 672 117 loadbang;
#X obj 581 193 s \$0-lowshelffreq;
#X obj 58 197 r \$0-highshelffreq;
#X obj 323 197 r \$0-highshelffreq;
#X obj 720 170 5000;
#X obj 720 193 s \$0-highshelffreq;
#X obj 101 62 r \$0-lowgain;
#X obj 366 62 r \$0-lowgain;
#X obj 496 43 s \$0-lowgain;
#X obj 61 132 r \$0-midgain;
#X obj 326 132 r \$0-midgain;
#X obj 595 43 s \$0-midgain;
#X obj 34 112 r \$0-midfreq;
#X obj 299 112 r \$0-midfreq;
#X obj 694 43 s \$0-midfreq;
#X obj 88 152 r \$0-midbw;
#X obj 353 152 r \$0-midbw;
#X obj 796 43 s \$0-midbw;
#X obj 796 22 inlet midbw;
#X obj 109 218 r \$0-highgain;
#X obj 374 218 r \$0-highgain;
#X obj 887 42 s \$0-highgain;
#X obj 581 170 200, f 17;
#X connect 0 0 2 0;
#X connect 2 0 4 0;
#X connect 3 0 1 0;
#X connect 4 0 3 0;
#X connect 5 0 7 0;
#X connect 7 0 9 0;
#X connect 8 0 6 0;
#X connect 9 0 8 0;
#X connect 10 0 24 0;
#X connect 11 0 27 0;
#X connect 12 0 30 0;
#X connect 13 0 37 0;
#X connect 14 0 2 1;
#X connect 15 0 7 1;
#X connect 16 0 20 0;
#X connect 16 0 38 0;
#X connect 18 0 3 1;
#X connect 19 0 8 1;
#X connect 20 0 21 0;
#X connect 22 0 2 2;
#X connect 23 0 7 2;
#X connect 25 0 4 2;
#X connect 26 0 9 2;
#X connect 28 0 4 1;
#X connect 29 0 9 1;
#X connect 31 0 4 3;
#X connect 32 0 9 3;
#X connect 34 0 33 0;
#X connect 35 0 3 2;
#X connect 36 0 8 2;
#X connect 38 0 17 0;
#X restore 49 230 pd eq, f 17;
#X obj 82 91 r \$1-3eq-lowgain;
#X obj 98 114 r \$1-3eq-midgain;
#X obj 115 136 r \$1-3eq-midfreq;
#X obj 131 159 r \$1-3eq-midbw;
#X obj 148 181 r \$1-3eq-highgain;
#X obj 258 25 r \$1-3eq-enable;
#X obj 48 286 throw~;
#X obj 148 286 throw~;
#X obj 258 53 switch~;
#X obj 50 33 catch~ \$0-2L;
#X obj 64 61 catch~ \$0-2R;
#X obj 58 258 r fx-\$0-2L;
#X obj 156 260 r fx-\$0-2R;
#X connect 0 0 7 0;
#X connect 0 1 8 0;
#X connect 1 0 0 2;
#X connect 2 0 0 3;
#X connect 3 0 0 4;
#X connect 4 0 0 5;
#X connect 5 0 0 6;
#X connect 6 0 9 0;
#X connect 10 0 0 0;
#X connect 11 0 0 1;
#X connect 12 0 7 0;
#X connect 13 0 8 0;
#X restore 53 142 pd 3bandeq;
#N canvas 499 384 382 224 fxfilter 0;
#N canvas 705 555 633 228 filter 0;
#X obj 14 106 faustreson~;
#X obj 150 106 faustreson~;
#X obj 151 16 inlet~;
#X obj 14 11 inlet~;
#X obj 150 203 outlet~;
#X obj 13 201 outlet~;
#X obj 290 17 inlet freq;
#X obj 387 19 inlet q;
#X obj 290 63 line~;
#X msg 290 39 \$1 30;
#X obj 51 63 r~ \$0-freq;
#X obj 291 86 s~ \$0-freq;
#X obj 186 61 r~ \$0-freq;
#X obj 387 44 s \$0-q;
#X obj 88 83 r \$0-q;
#X obj 224 81 r \$0-q;
#X obj 456 19 inlet mode;
#X obj 25 36 r \$0-mode;
#X obj 164 38 r \$0-mode;
#X obj 473 180 s \$0-mode;
#X obj 419 111 select 0;
#X obj 486 112 select 1;
#X msg 419 132 lp;
#X msg 486 132 hp;
#X msg 551 132 bp;
#X obj 551 112 select 2, f 16;
#X connect 0 0 5 0;
#X connect 1 0 4 0;
#X connect 2 0 1 0;
#X connect 3 0 0 0;
#X connect 6 0 9 0;
#X connect 7 0 13 0;
#X connect 8 0 11 0;
#X connect 9 0 8 0;
#X connect 10 0 0 1;
#X connect 12 0 1 1;
#X connect 14 0 0 2;
#X connect 15 0 1 2;
#X connect 16 0 20 0;
#X connect 16 0 21 0;
#X connect 16 0 25 0;
#X connect 17 0 0 0;
#X connect 18 0 1 0;
#X connect 20 0 22 0;
#X connect 21 0 23 0;
#X connect 22 0 19 0;
#X connect 23 0 19 0;
#X connect 24 0 19 0;
#X connect 25 0 24 0;
#X restore 23 129 pd filter, f 16;
#X obj 69 62 r \$1-fxfilter-freq;
#X obj 92 85 r \$1-fxfilter-q;
#X obj 116 105 r \$1-fxfilter-mode;
#X obj 249 26 r \$1-fxfilter-enable;
#X obj 116 187 throw~;
#X obj 22 187 throw~;
#X obj 249 52 switch~;
#X obj 23 18 catch~ \$0-1L;
#X obj 45 40 catch~ \$0-1R;
#X obj 31 162 r fx-\$0-1L;
#X obj 123 162 r fx-\$0-1R;
#X connect 0 0 6 0;
#X connect 0 1 5 0;
#X connect 1 0 0 2;
#X connect 2 0 0 3;
#X connect 3 0 0 4;
#X connect 4 0 7 0;
#X connect 8 0 0 0;
#X connect 9 0 0 1;
#X connect 10 0 6 0;
#X connect 11 0 5 0;
#X restore 53 118 pd fxfilter;
#N canvas 668 380 389 239 gainer 0;
#N canvas 1851 411 437 418 internals 0;
#X obj 129 16 inlet~;
#X obj 42 16 inlet~;
#X obj 43 383 outlet~;
#X obj 129 381 outlet~;
#X obj 197 40 moses 0.5;
#X obj 197 139 / 0.5;
#X obj 257 64 - 0.5;
#X obj 257 84 / 0.5;
#X obj 257 104 t b f;
#X obj 257 129 1;
#X obj 146 140 1;
#X msg 60 166 \$1 50;
#X obj 60 186 line~;
#X obj 43 208 *~;
#X msg 146 169 \$1 50;
#X obj 146 189 line~;
#X obj 128 211 *~;
#X obj 60 68 loadbang;
#X obj 145 265 inlet gain;
#X obj 197 15 inlet pan;
#X obj 75 119 bng 15 250 50 0 empty empty empty 17 7 0 10 -262144 -1
-1;
#X obj 161 117 bng 15 250 50 0 empty empty empty 17 7 0 10 -262144
-1 -1;
#X obj 60 147 1;
#X obj 271 149 -;
#X obj 128 331 *~;
#X obj 43 331 *~;
#X msg 60 290 \$1 50;
#X obj 60 310 line~;
#X msg 145 290 \$1 50;
#X obj 145 310 line~;
#X obj 60 240 loadbang;
#X obj 60 264 1, f 16;
#X connect 0 0 16 0;
#X connect 1 0 13 0;
#X connect 4 0 5 0;
#X connect 4 0 20 0;
#X connect 4 1 6 0;
#X connect 4 1 21 0;
#X connect 5 0 14 0;
#X connect 6 0 7 0;
#X connect 7 0 8 0;
#X connect 8 0 9 0;
#X connect 8 1 23 1;
#X connect 9 0 23 0;
#X connect 10 0 14 0;
#X connect 11 0 12 0;
#X connect 12 0 13 1;
#X connect 13 0 25 0;
#X connect 14 0 15 0;
#X connect 15 0 16 1;
#X connect 16 0 24 0;
#X connect 17 0 10 0;
#X connect 17 0 22 0;
#X connect 18 0 28 0;
#X connect 18 0 26 0;
#X connect 19 0 4 0;
#X connect 20 0 22 0;
#X connect 21 0 10 0;
#X connect 22 0 11 0;
#X connect 23 0 11 0;
#X connect 24 0 3 0;
#X connect 25 0 2 0;
#X connect 26 0 27 0;
#X connect 27 0 25 1;
#X connect 28 0 29 0;
#X connect 29 0 24 1;
#X connect 30 0 31 0;
#X connect 31 0 26 0;
#X connect 31 0 28 0;
#X restore 37 136 pd internals;
#X obj 99 64 r \$1-gainer-gain;
#X obj 130 112 r \$1-gainer-pan;
#X obj 240 26 r \$1-gainer-enable;
#X obj 99 89 logvolume -50 12;
#X obj 240 53 switch~;
#X obj 130 194 throw~;
#X obj 37 193 throw~;
#X obj 37 20 catch~ \$0-0L;
#X obj 67 41 catch~ \$0-0R;
#X obj 139 167 r fx-\$0-0R;
#X obj 47 167 r fx-\$0-0L;
#X connect 0 0 7 0;
#X connect 0 1 6 0;
#X connect 1 0 4 0;
#X connect 2 0 0 3;
#X connect 3 0 5 0;
#X connect 4 0 0 2;
#X connect 8 0 0 0;
#X connect 9 0 0 1;
#X connect 10 0 6 0;
#X connect 11 0 7 0;
#X restore 53 93 pd gainer;
#X obj 492 346 fxlist 3, f 19;
#X obj 502 307 r \$0-enable;
#X obj 673 405 array set \$1-fxlist;
#X obj 691 383 s \$1-fxlistctl;
#X obj 691 328 loadbang;
#X msg 691 353 list 0 1 2 3 4 5 6 7;
#X obj 107 29 r \$0-setoutputfxL;
#X obj 229 58 throw~ \$0-fxoutputR;
#X obj 54 56 throw~ \$0-fxoutputL;
#X obj 53 441 catch~ \$0-fxoutputL;
#X obj 229 441 catch~ \$0-fxoutputR;
#X obj 277 29 r \$0-setoutputfxR;
#N canvas 1081 301 404 427 setinput 1;
#X obj 49 34 inlet;
#X obj 49 66 moses 0;
#X obj 76 303 s \$0-setoutputfxR;
#X obj 49 349 s \$0-setoutputfxL;
#X obj 88 223 s \$0-setoutputfxL;
#X obj 174 198 s \$0-setoutputfxR;
#X obj 88 89 t f b;
#X obj 88 134 pack;
#X obj 115 111 \$0;
#X msg 88 199 set \$2-\$1L;
#X msg 174 174 set \$2-\$1R;
#X obj 49 244 \$0;
#X msg 76 281 set \$1-fxoutputR;
#X msg 49 326 set \$1-fxoutputL;
#X obj 49 161 bng 15 250 50 0 empty empty empty 17 7 0 10 -262144 -1
-1;
#X connect 0 0 1 0;
#X connect 1 0 14 0;
#X connect 1 1 6 0;
#X connect 6 0 7 0;
#X connect 6 1 8 0;
#X connect 7 0 9 0;
#X connect 7 0 10 0;
#X connect 8 0 7 1;
#X connect 9 0 4 0;
#X connect 10 0 5 0;
#X connect 11 0 13 0;
#X connect 11 0 12 0;
#X connect 12 0 2 0;
#X connect 13 0 3 0;
#X connect 14 0 11 0;
#X restore 580 404 pd setinput;
#X obj 492 281 r \$1-fxorder;
#X obj 558 429 effectsender \$0 2;
#X obj 425 306 bng 15 250 50 0 empty empty empty 17 7 0 10 -262144
-1 -1;
#X obj 536 451 effectsender \$0 1;
#X obj 514 475 effectsender \$0 0;
#N canvas 220 548 450 300 setoutput 1;
#X obj 61 64 moses 0;
#X obj 100 115 t f b;
#X obj 100 160 pack;
#X obj 127 137 \$0;
#X obj 61 21 inlet;
#X msg 100 210 \; fx-\$2-\$1L set \$2-fxoutputL \; fx-\$2-\$1R set
\$2-fxoutputR;
#X connect 0 1 1 0;
#X connect 1 0 2 0;
#X connect 1 1 3 0;
#X connect 2 0 5 0;
#X connect 3 0 2 1;
#X connect 4 0 0 0;
#X restore 492 499 pd setoutput;
#N canvas 404 254 450 300 move 0;
#X obj 180 149 s \$0-movedown;
#X obj 30 149 s \$0-moveup;
#X obj 180 226 s \$0-movedown;
#X obj 30 226 s \$0-moveup;
#X obj 30 177 r \$1-3eq-moveup;
#X obj 180 177 r \$1-3eq-movedown;
#X obj 30 100 r \$1-fxfilter-moveup;
#X obj 180 100 r \$1-fxfilter-movedown;
#X obj 30 125 1;
#X obj 180 125 1;
#X obj 30 202 2;
#X obj 180 202 2;
#X obj 180 70 s \$0-movedown;
#X obj 30 70 s \$0-moveup;
#X obj 30 21 r \$1-gainer-moveup;
#X obj 30 46 0;
#X obj 180 46 0;
#X obj 180 21 r \$1-gainer-movedown;
#X connect 4 0 10 0;
#X connect 5 0 11 0;
#X connect 6 0 8 0;
#X connect 7 0 9 0;
#X connect 8 0 1 0;
#X connect 9 0 0 0;
#X connect 10 0 3 0;
#X connect 11 0 2 0;
#X connect 14 0 15 0;
#X connect 15 0 13 0;
#X connect 16 0 12 0;
#X connect 17 0 16 0;
#X restore 469 26 pd move;
#N canvas 508 205 450 300 enable 0;
#X obj 19 31 r \$1-gainer-enable;
#X obj 19 81 s \$0-enable;
#X msg 19 57 0 \$1;
#X obj 139 31 r \$1-fxfilter-enable;
#X obj 139 81 s \$0-enable;
#X msg 139 57 1 \$1;
#X obj 267 31 r \$1-3eq-enable;
#X obj 267 81 s \$0-enable;
#X msg 267 57 2 \$1;
#X connect 0 0 2 0;
#X connect 2 0 1 0;
#X connect 3 0 5 0;
#X connect 5 0 4 0;
#X connect 6 0 8 0;
#X connect 8 0 7 0;
#X restore 525 26 pd enable;
#X connect 0 0 16 0;
#X connect 3 0 15 0;
#X connect 8 0 26 0;
#X connect 8 1 25 0;
#X connect 8 2 24 0;
#X connect 8 3 22 0;
#X connect 8 4 20 0;
#X connect 8 5 11 0;
#X connect 8 5 10 0;
#X connect 9 0 8 0;
#X connect 12 0 13 0;
#X connect 13 0 11 0;
#X connect 13 0 10 0;
#X connect 14 0 16 0;
#X connect 17 0 1 0;
#X connect 18 0 4 0;
#X connect 19 0 15 0;
#X connect 21 0 8 0;
#X connect 23 0 8 0;
