#N canvas 794 410 348 218 10;
#X obj 70 22 inlet;
#X obj 70 54 t f b;
#X obj 70 99 pack;
#X obj 97 76 \$1;
#X msg 141 145 set \$2-\$1R;
#X msg 59 145 set \$2-\$1L;
#X obj 59 171 s fx-\$1-\$2L;
#X obj 141 171 s fx-\$1-\$2R;
#X connect 0 0 1 0;
#X connect 1 0 2 0;
#X connect 1 1 3 0;
#X connect 2 0 4 0;
#X connect 2 0 5 0;
#X connect 3 0 2 1;
#X connect 4 0 7 0;
#X connect 5 0 6 0;
