#N canvas 623 316 943 555 10;
#X obj 54 20 inlet~;
#X obj 53 466 outlet~;
#X obj 229 22 inlet~;
#X obj 229 466 outlet~;
#N canvas 385 214 507 505 3bandeq 0;
#N canvas 1602 103 998 378 eq 0;
#X obj 7 9 inlet~;
#X obj 7 267 outlet~;
#X obj 6 87 faustlowshelf~;
#X obj 7 239 fausthighshelf~;
#X obj 7 173 faustpeakeq~;
#X obj 272 9 inlet~;
#X obj 272 267 outlet~;
#X obj 271 87 faustlowshelf~;
#X obj 272 239 fausthighshelf~;
#X obj 272 173 faustpeakeq~;
#X obj 496 22 inlet lowgain;
#X obj 595 22 inlet midgain;
#X obj 694 22 inlet midfreq;
#X obj 887 22 inlet highgain;
#X obj 53 42 r \$0-lowshelffreq;
#X obj 318 42 r \$0-lowshelffreq;
#X obj 672 117 loadbang;
#X obj 581 193 s \$0-lowshelffreq;
#X obj 58 197 r \$0-highshelffreq;
#X obj 323 197 r \$0-highshelffreq;
#X obj 720 170 5000;
#X obj 720 193 s \$0-highshelffreq;
#X obj 101 62 r \$0-lowgain;
#X obj 366 62 r \$0-lowgain;
#X obj 496 43 s \$0-lowgain;
#X obj 61 132 r \$0-midgain;
#X obj 326 132 r \$0-midgain;
#X obj 595 43 s \$0-midgain;
#X obj 34 112 r \$0-midfreq;
#X obj 299 112 r \$0-midfreq;
#X obj 694 43 s \$0-midfreq;
#X obj 88 152 r \$0-midbw;
#X obj 353 152 r \$0-midbw;
#X obj 796 43 s \$0-midbw;
#X obj 796 22 inlet midbw;
#X obj 109 218 r \$0-highgain;
#X obj 374 218 r \$0-highgain;
#X obj 887 42 s \$0-highgain;
#X obj 581 170 200, f 17;
#X connect 0 0 2 0;
#X connect 2 0 4 0;
#X connect 3 0 1 0;
#X connect 4 0 3 0;
#X connect 5 0 7 0;
#X connect 7 0 9 0;
#X connect 8 0 6 0;
#X connect 9 0 8 0;
#X connect 10 0 24 0;
#X connect 11 0 27 0;
#X connect 12 0 30 0;
#X connect 13 0 37 0;
#X connect 14 0 2 1;
#X connect 15 0 7 1;
#X connect 16 0 20 0;
#X connect 16 0 38 0;
#X connect 18 0 3 1;
#X connect 19 0 8 1;
#X connect 20 0 21 0;
#X connect 22 0 2 2;
#X connect 23 0 7 2;
#X connect 25 0 4 2;
#X connect 26 0 9 2;
#X connect 28 0 4 1;
#X connect 29 0 9 1;
#X connect 31 0 4 3;
#X connect 32 0 9 3;
#X connect 34 0 33 0;
#X connect 35 0 3 2;
#X connect 36 0 8 2;
#X connect 38 0 17 0;
#X restore 89 280 pd eq;
#X obj 122 75 r \$1-3eq-lowgain;
#X obj 138 156 r \$1-3eq-midgain;
#X obj 155 178 r \$1-3eq-midfreq;
#X obj 171 201 r \$1-3eq-midbw;
#X obj 188 223 r \$1-3eq-highgain;
#X obj 365 18 r \$1-3eq-enable;
#X obj 365 42 switch~;
#X obj 374 125 s \$1-3eq-enable;
#X obj 374 80 loadbang;
#X obj 374 102 0;
#X obj 89 399 throw~ \$0-fxoutputL;
#X obj 188 359 throw~ \$0-fxoutputR;
#X obj 122 119 line;
#X msg 122 97 \$1 50;
#X obj 90 32 catch~ \$0-4L;
#X obj 104 54 catch~ \$0-4R;
#X obj 196 333 r fx-\$0-4R;
#X obj 99 371 r fx-\$0-4L;
#X connect 0 0 11 0;
#X connect 0 1 12 0;
#X connect 1 0 14 0;
#X connect 2 0 0 3;
#X connect 3 0 0 4;
#X connect 4 0 0 5;
#X connect 5 0 0 6;
#X connect 6 0 7 0;
#X connect 9 0 10 0;
#X connect 10 0 8 0;
#X connect 13 0 0 2;
#X connect 14 0 13 0;
#X connect 15 0 0 0;
#X connect 16 0 0 1;
#X connect 17 0 12 0;
#X connect 18 0 11 0;
#X restore 53 178 pd 3bandeq;
#N canvas 964 366 434 224 fxfilter 0;
#N canvas 677 533 715 272 filter 0;
#X obj 14 106 faustreson~;
#X obj 150 106 faustreson~;
#X obj 151 16 inlet~;
#X obj 14 11 inlet~;
#X obj 150 203 outlet~;
#X obj 13 201 outlet~;
#X obj 290 17 inlet freq;
#X obj 387 19 inlet q;
#X obj 290 63 line~;
#X msg 290 39 \$1 30;
#X obj 51 63 r~ \$0-freq;
#X obj 291 86 s~ \$0-freq;
#X obj 186 61 r~ \$0-freq;
#X obj 387 44 s \$0-q;
#X obj 88 83 r \$0-q;
#X obj 224 81 r \$0-q;
#X obj 456 19 inlet mode;
#X obj 25 36 r \$0-mode;
#X obj 164 38 r \$0-mode;
#X obj 473 180 s \$0-mode;
#X obj 419 111 select 0;
#X obj 486 112 select 1;
#X msg 419 132 lp;
#X msg 486 132 hp;
#X msg 551 132 bp;
#X obj 551 112 select 2, f 16;
#X connect 0 0 5 0;
#X connect 1 0 4 0;
#X connect 2 0 1 0;
#X connect 3 0 0 0;
#X connect 6 0 9 0;
#X connect 7 0 13 0;
#X connect 8 0 11 0;
#X connect 9 0 8 0;
#X connect 10 0 0 1;
#X connect 12 0 1 1;
#X connect 14 0 0 2;
#X connect 15 0 1 2;
#X connect 16 0 20 0;
#X connect 16 0 21 0;
#X connect 16 0 25 0;
#X connect 17 0 0 0;
#X connect 18 0 1 0;
#X connect 20 0 22 0;
#X connect 21 0 23 0;
#X connect 22 0 19 0;
#X connect 23 0 19 0;
#X connect 24 0 19 0;
#X connect 25 0 24 0;
#X restore 23 129 pd filter;
#X obj 69 62 r \$1-fxfilter-freq;
#X obj 92 85 r \$1-fxfilter-q;
#X obj 116 105 r \$1-fxfilter-mode;
#X obj 277 22 r \$1-fxfilter-enable;
#X obj 277 45 switch~;
#X obj 279 82 loadbang;
#X obj 279 104 0;
#X obj 279 129 s \$1-fxfilter-enable;
#X obj 22 187 throw~ \$0-fxoutputL;
#X obj 155 187 throw~ \$0-fxoutputR;
#X obj 23 18 catch~ \$0-3L;
#X obj 45 40 catch~ \$0-3R;
#X obj 31 162 r fx-\$0-3L;
#X obj 162 162 r fx-\$0-3R;
#X connect 0 0 9 0;
#X connect 0 1 10 0;
#X connect 1 0 0 2;
#X connect 2 0 0 3;
#X connect 3 0 0 4;
#X connect 4 0 5 0;
#X connect 6 0 7 0;
#X connect 7 0 8 0;
#X connect 11 0 0 0;
#X connect 12 0 0 1;
#X connect 13 0 9 0;
#X connect 14 0 10 0;
#X restore 53 156 pd fxfilter;
#N canvas 1464 458 414 239 gainer 0;
#N canvas 1920 326 437 418 internals 0;
#X obj 129 16 inlet~;
#X obj 42 16 inlet~;
#X obj 43 383 outlet~;
#X obj 129 381 outlet~;
#X obj 197 40 moses 0.5;
#X obj 197 139 / 0.5;
#X obj 257 64 - 0.5;
#X obj 257 84 / 0.5;
#X obj 257 104 t b f;
#X obj 257 129 1;
#X obj 146 140 1;
#X msg 60 166 \$1 50;
#X obj 60 186 line~;
#X obj 43 208 *~;
#X msg 146 169 \$1 50;
#X obj 146 189 line~;
#X obj 128 211 *~;
#X obj 60 68 loadbang;
#X obj 145 265 inlet gain;
#X obj 197 15 inlet pan;
#X obj 75 119 bng 15 250 50 0 empty empty empty 17 7 0 10 #fcfcfc #000000
#000000;
#X obj 161 117 bng 15 250 50 0 empty empty empty 17 7 0 10 #fcfcfc
#000000 #000000;
#X obj 60 147 1;
#X obj 271 149 -;
#X obj 128 331 *~;
#X obj 43 331 *~;
#X msg 60 290 \$1 50;
#X obj 60 310 line~;
#X msg 145 290 \$1 50;
#X obj 145 310 line~;
#X obj 60 240 loadbang;
#X obj 60 264 1, f 16;
#X connect 0 0 16 0;
#X connect 1 0 13 0;
#X connect 4 0 5 0;
#X connect 4 0 20 0;
#X connect 4 1 6 0;
#X connect 4 1 21 0;
#X connect 5 0 14 0;
#X connect 6 0 7 0;
#X connect 7 0 8 0;
#X connect 8 0 9 0;
#X connect 8 1 23 1;
#X connect 9 0 23 0;
#X connect 10 0 14 0;
#X connect 11 0 12 0;
#X connect 12 0 13 1;
#X connect 13 0 25 0;
#X connect 14 0 15 0;
#X connect 15 0 16 1;
#X connect 16 0 24 0;
#X connect 17 0 10 0;
#X connect 17 0 22 0;
#X connect 18 0 28 0;
#X connect 18 0 26 0;
#X connect 19 0 4 0;
#X connect 20 0 22 0;
#X connect 21 0 10 0;
#X connect 22 0 11 0;
#X connect 23 0 11 0;
#X connect 24 0 3 0;
#X connect 25 0 2 0;
#X connect 26 0 27 0;
#X connect 27 0 25 1;
#X connect 28 0 29 0;
#X connect 29 0 24 1;
#X connect 30 0 31 0;
#X connect 31 0 26 0;
#X connect 31 0 28 0;
#X restore 37 136 pd internals;
#X obj 99 64 r \$1-gainer-gain;
#X obj 130 112 r \$1-gainer-pan;
#X obj 240 26 r \$1-gainer-enable;
#X obj 99 89 logvolume -50 12;
#X obj 240 52 switch~;
#X obj 37 20 catch~ \$0-0L;
#X obj 67 41 catch~ \$0-0R;
#X obj 180 167 r fx-\$0-0R;
#X obj 47 167 r fx-\$0-0L;
#X obj 278 86 loadbang;
#X obj 278 108 0;
#X obj 278 131 s \$1-gainer-enable;
#X obj 37 193 throw~ \$0-fxoutputL;
#X obj 171 194 throw~ \$0-fxoutputR;
#X connect 0 0 13 0;
#X connect 0 1 14 0;
#X connect 1 0 4 0;
#X connect 2 0 0 3;
#X connect 3 0 5 0;
#X connect 4 0 0 2;
#X connect 6 0 0 0;
#X connect 7 0 0 1;
#X connect 8 0 14 0;
#X connect 9 0 13 0;
#X connect 10 0 11 0;
#X connect 11 0 12 0;
#X restore 53 93 pd gainer;
#X obj 550 178 r \$0-enable;
#X obj 752 267 array set \$1-fxlist;
#X obj 770 245 s \$1-fxlistctl;
#X obj 714 147 loadbang;
#X obj 107 29 r \$0-setoutputfxL;
#X obj 229 58 throw~ \$0-fxoutputR;
#X obj 54 56 throw~ \$0-fxoutputL;
#X obj 53 441 catch~ \$0-fxoutputL;
#X obj 229 441 catch~ \$0-fxoutputR;
#X obj 277 29 r \$0-setoutputfxR;
#N canvas 1053 205 404 427 setinput 0;
#X obj 49 34 inlet;
#X obj 49 66 moses 0;
#X obj 76 303 s \$0-setoutputfxR;
#X obj 49 349 s \$0-setoutputfxL;
#X obj 88 223 s \$0-setoutputfxL;
#X obj 174 198 s \$0-setoutputfxR;
#X obj 88 89 t f b;
#X obj 88 134 pack;
#X obj 115 111 \$0;
#X msg 88 199 set \$2-\$1L;
#X msg 174 174 set \$2-\$1R;
#X obj 49 244 \$0;
#X msg 76 281 set \$1-fxoutputR;
#X msg 49 326 set \$1-fxoutputL;
#X obj 49 161 bng 15 250 50 0 empty empty empty 17 7 0 10 #fcfcfc #000000
#000000;
#X connect 0 0 1 0;
#X connect 1 0 14 0;
#X connect 1 1 6 0;
#X connect 6 0 7 0;
#X connect 6 1 8 0;
#X connect 7 0 9 0;
#X connect 7 0 10 0;
#X connect 8 0 7 1;
#X connect 9 0 4 0;
#X connect 10 0 5 0;
#X connect 11 0 13 0;
#X connect 11 0 12 0;
#X connect 12 0 2 0;
#X connect 13 0 3 0;
#X connect 14 0 11 0;
#X restore 666 268 pd setinput;
#X obj 515 58 r \$1-fxorder;
#X obj 448 187 bng 15 250 50 0 empty empty empty 17 7 0 10 #fcfcfc
#000000 #000000;
#N canvas 1731 587 450 300 setoutput 0;
#X obj 61 64 moses 0;
#X obj 100 115 t f b;
#X obj 100 160 pack;
#X obj 127 137 \$0;
#X obj 61 21 inlet;
#X msg 100 210 \; fx-\$2-\$1L set \$2-fxoutputL \; fx-\$2-\$1R set
\$2-fxoutputR;
#X connect 0 1 1 0;
#X connect 1 0 2 0;
#X connect 1 1 3 0;
#X connect 2 0 5 0;
#X connect 3 0 2 1;
#X connect 4 0 0 0;
#X restore 515 498 pd setoutput;
#N canvas 701 367 894 457 move 0;
#X obj 369 92 r \$1-del-moveup;
#X obj 519 92 r \$1-del-movedown;
#X obj 519 141 s \$0-movedown;
#X obj 369 141 s \$0-moveup;
#X obj 519 223 s \$0-movedown;
#X obj 369 223 s \$0-moveup;
#X obj 369 174 r \$1-flg-moveup;
#X obj 519 174 r \$1-flg-movedown;
#X obj 522 371 s \$0-movedown;
#X obj 370 371 s \$0-moveup;
#X obj 370 322 r \$1-rev-moveup;
#X obj 522 322 r \$1-rev-movedown;
#X obj 520 298 s \$0-movedown;
#X obj 370 298 s \$0-moveup;
#X obj 370 249 r \$1-chorus-moveup;
#X obj 520 249 r \$1-chorus-movedown;
#X obj 520 63 s \$0-movedown;
#X obj 369 63 s \$0-moveup;
#X obj 369 14 r \$1-tremolo-moveup;
#X obj 520 14 r \$1-tremolo-movedown;
#X obj 163 292 s \$0-movedown;
#X obj 13 292 s \$0-moveup;
#X obj 163 369 s \$0-movedown;
#X obj 13 369 s \$0-moveup;
#X obj 13 320 r \$1-3eq-moveup;
#X obj 163 320 r \$1-3eq-movedown;
#X obj 13 243 r \$1-fxfilter-moveup;
#X obj 163 243 r \$1-fxfilter-movedown;
#X obj 163 63 s \$0-movedown;
#X obj 13 63 s \$0-moveup;
#X obj 13 14 r \$1-gainer-moveup;
#X obj 13 39 0;
#X obj 163 39 0;
#X obj 163 14 r \$1-gainer-movedown;
#X obj 163 211 s \$0-movedown;
#X obj 13 211 s \$0-moveup;
#X obj 13 162 r \$1-bitcrusher-moveup;
#X obj 163 162 r \$1-bitcrusher-movedown;
#X obj 163 138 s \$0-movedown;
#X obj 13 138 s \$0-moveup;
#X obj 13 114 1;
#X obj 163 114 1;
#X obj 13 89 r \$1-distortion-moveup;
#X obj 163 89 r \$1-distortion-movedown;
#X obj 13 187 2;
#X obj 163 187 2;
#X obj 13 268 3;
#X obj 163 268 3;
#X obj 13 345 4;
#X obj 163 345 4;
#X obj 369 38 5;
#X obj 520 39 5;
#X obj 369 117 6;
#X obj 519 118 6;
#X obj 369 199 7;
#X obj 519 199 7;
#X obj 370 273 8;
#X obj 520 274 8;
#X obj 370 346 9;
#X obj 522 347 9;
#X connect 0 0 52 0;
#X connect 1 0 53 0;
#X connect 6 0 54 0;
#X connect 7 0 55 0;
#X connect 10 0 58 0;
#X connect 11 0 59 0;
#X connect 14 0 56 0;
#X connect 15 0 57 0;
#X connect 18 0 50 0;
#X connect 19 0 51 0;
#X connect 24 0 48 0;
#X connect 25 0 49 0;
#X connect 26 0 46 0;
#X connect 27 0 47 0;
#X connect 30 0 31 0;
#X connect 31 0 29 0;
#X connect 32 0 28 0;
#X connect 33 0 32 0;
#X connect 36 0 44 0;
#X connect 37 0 45 0;
#X connect 40 0 39 0;
#X connect 41 0 38 0;
#X connect 42 0 40 0;
#X connect 43 0 41 0;
#X connect 44 0 35 0;
#X connect 45 0 34 0;
#X connect 46 0 21 0;
#X connect 47 0 20 0;
#X connect 48 0 23 0;
#X connect 49 0 22 0;
#X connect 50 0 17 0;
#X connect 51 0 16 0;
#X connect 52 0 3 0;
#X connect 53 0 2 0;
#X connect 54 0 5 0;
#X connect 55 0 4 0;
#X connect 56 0 13 0;
#X connect 57 0 12 0;
#X connect 58 0 9 0;
#X connect 59 0 8 0;
#X restore 469 26 pd move;
#N canvas 841 205 720 266 enable 0;
#X obj 19 31 r \$1-gainer-enable;
#X obj 19 81 s \$0-enable;
#X obj 426 30 r \$1-fxfilter-enable;
#X obj 426 80 s \$0-enable;
#X obj 554 30 r \$1-3eq-enable;
#X obj 554 80 s \$0-enable;
#X obj 16 121 r \$1-tremolo-enable;
#X obj 16 171 s \$0-enable;
#X obj 140 121 r \$1-del-enable;
#X obj 140 171 s \$0-enable;
#X obj 260 120 r \$1-flg-enable;
#X obj 260 171 s \$0-enable;
#X obj 380 119 r \$1-chorus-enable;
#X obj 380 171 s \$0-enable;
#X obj 503 119 r \$1-rev-enable;
#X obj 503 171 s \$0-enable;
#X msg 19 57 enable 0 \$1;
#X obj 287 80 s \$0-enable;
#X obj 287 30 r \$1-bitcrusher-enable;
#X obj 141 80 s \$0-enable;
#X msg 141 56 enable 1 \$1;
#X obj 141 30 r \$1-distortion-enable;
#X msg 287 56 enable 2 \$1;
#X msg 426 56 enable 3 \$1;
#X msg 554 56 enable 4 \$1;
#X msg 16 147 enable 5 \$1;
#X msg 140 147 enable 6 \$1;
#X msg 260 147 enable 7 \$1;
#X msg 380 147 enable 8 \$1;
#X msg 503 147 enable 9 \$1;
#X connect 0 0 16 0;
#X connect 2 0 23 0;
#X connect 4 0 24 0;
#X connect 6 0 25 0;
#X connect 8 0 26 0;
#X connect 10 0 27 0;
#X connect 12 0 28 0;
#X connect 14 0 29 0;
#X connect 16 0 1 0;
#X connect 18 0 22 0;
#X connect 20 0 19 0;
#X connect 21 0 20 0;
#X connect 22 0 17 0;
#X connect 23 0 3 0;
#X connect 24 0 5 0;
#X connect 25 0 7 0;
#X connect 26 0 9 0;
#X connect 27 0 11 0;
#X connect 28 0 13 0;
#X connect 29 0 15 0;
#X restore 525 26 pd enable;
#N canvas 730 365 456 320 tremolo 0;
#X obj 125 141 r \$1-tremolo-enable;
#X obj 50 169 tremolo~, f 13;
#X obj 80 76 r \$1-tremolo-rate;
#X obj 95 97 r \$1-tremolo-smooth;
#X obj 110 120 r \$1-tremolo-depth;
#X obj 290 28 r \$1-tremolo-enable;
#X obj 290 53 switch~;
#X obj 291 86 loadbang;
#X obj 291 113 0;
#X obj 291 138 s \$1-tremolo-enable;
#X obj 49 279 throw~ \$0-fxoutputL;
#X obj 126 251 throw~ \$0-fxoutputR;
#X obj 50 33 catch~ \$0-5L;
#X obj 64 54 catch~ \$0-5R;
#X obj 60 223 r fx-\$0-5L;
#X obj 134 225 r fx-\$0-5R;
#X connect 0 0 1 5;
#X connect 1 0 10 0;
#X connect 1 1 11 0;
#X connect 2 0 1 2;
#X connect 3 0 1 3;
#X connect 4 0 1 4;
#X connect 5 0 6 0;
#X connect 7 0 8 0;
#X connect 8 0 9 0;
#X connect 12 0 1 0;
#X connect 13 0 1 1;
#X connect 14 0 10 0;
#X connect 15 0 11 0;
#X restore 53 200 pd tremolo;
#N canvas 958 261 926 603 delay 0;
#X obj 242 109 r \$1-del-delay;
#X obj 258 134 r \$1-del-feedback;
#X obj 274 204 r \$1-del-wet;
#X obj 445 35 r \$1-del-enable;
#X obj 445 56 switch~;
#X obj 449 105 loadbang;
#X obj 449 127 0;
#X obj 449 149 s \$1-del-enable;
#X obj 76 537 throw~ \$0-fxoutputL;
#X obj 469 534 throw~ \$0-fxoutputR;
#X obj 192 472 pan;
#X obj 288 465 pan;
#X obj 499 193 r \$1-del-spread;
#X obj 306 421 r \$0-spread;
#X obj 207 423 r \$0-spread;
#X obj 499 219 * 0.5;
#X obj 499 240 s \$0-spread;
#X obj 211 249 faustdelay~;
#X obj 111 107 r \$1-del-enable;
#X msg 111 148 clear;
#X obj 111 129 bng 15 250 50 0 empty empty empty 17 7 0 10 #fcfcfc
#000000 #000000;
#X obj 258 158 * 0.9;
#X obj 207 443 expr 0.5-$f1;
#X obj 306 445 expr 0.5+$f1;
#X obj 68 71 r clearfx;
#X obj 210 66 catch~ \$0-6L;
#X obj 227 87 catch~ \$0-6R;
#X obj 152 510 r fx-\$0-6L;
#X obj 477 508 r fx-\$0-6R;
#X connect 0 0 17 2;
#X connect 1 0 21 0;
#X connect 2 0 17 4;
#X connect 3 0 4 0;
#X connect 5 0 6 0;
#X connect 6 0 7 0;
#X connect 10 0 8 0;
#X connect 10 1 9 0;
#X connect 11 0 8 0;
#X connect 11 1 9 0;
#X connect 12 0 15 0;
#X connect 13 0 23 0;
#X connect 14 0 22 0;
#X connect 15 0 16 0;
#X connect 17 0 8 0;
#X connect 17 1 10 0;
#X connect 17 2 11 0;
#X connect 17 3 9 0;
#X connect 18 0 20 0;
#X connect 19 0 17 0;
#X connect 20 0 19 0;
#X connect 21 0 17 3;
#X connect 22 0 10 1;
#X connect 23 0 11 1;
#X connect 24 0 19 0;
#X connect 25 0 17 0;
#X connect 26 0 17 1;
#X connect 27 0 8 0;
#X connect 28 0 9 0;
#X restore 53 223 pd delay;
#N canvas 838 318 734 540 flanger 0;
#X obj 568 141 r \$1-flg-enable;
#X obj 152 207 r \$1-flg-freq;
#X obj 187 269 r \$1-flg-width;
#X obj 169 228 r \$1-flg-feedback;
#X obj 568 168 switch~;
#X obj 569 207 loadbang;
#X obj 569 229 0;
#X obj 569 252 s \$1-flg-enable;
#X obj 74 507 throw~ \$0-fxoutputL;
#X obj 275 513 throw~ \$0-fxoutputR;
#X obj 118 333 faustflange~;
#N canvas 1910 341 450 300 feedback 0;
#X obj 158 96 inlet;
#X obj 158 238 outlet;
#X msg 158 178 \$1 20;
#X obj 158 128 * 0.9;
#X obj 158 151 + 0.05;
#X obj 160 212 line;
#X connect 0 0 3 0;
#X connect 2 0 5 0;
#X connect 3 0 4 0;
#X connect 4 0 2 0;
#X connect 5 0 1 0;
#X restore 169 248 pd feedback;
#X obj 362 408 r \$1-flg-wet;
#X obj 187 309 + 2;
#X obj 187 289 * 18;
#X msg 25 168 clear;
#X obj 25 143 r clearfx;
#X obj 275 453 crossfadeequal~;
#X obj 362 429 * 0.5;
#X obj 161 402 r \$1-flg-wet;
#X obj 74 447 crossfadeequal~;
#X obj 161 423 * 0.5;
#X obj 117 6 catch~ \$0-7L;
#X obj 135 28 catch~ \$0-7R;
#X obj 103 480 r fx-\$0-7L;
#X obj 283 487 r fx-\$0-7R;
#X connect 0 0 4 0;
#X connect 1 0 10 2;
#X connect 2 0 14 0;
#X connect 3 0 11 0;
#X connect 5 0 6 0;
#X connect 6 0 7 0;
#X connect 10 0 20 1;
#X connect 10 1 17 1;
#X connect 11 0 10 3;
#X connect 12 0 18 0;
#X connect 13 0 10 4;
#X connect 14 0 13 0;
#X connect 15 0 10 0;
#X connect 16 0 15 0;
#X connect 17 0 9 0;
#X connect 18 0 17 2;
#X connect 19 0 21 0;
#X connect 20 0 8 0;
#X connect 21 0 20 2;
#X connect 22 0 10 0;
#X connect 22 0 20 0;
#X connect 23 0 10 1;
#X connect 23 0 17 0;
#X connect 24 0 8 0;
#X connect 25 0 9 0;
#X restore 53 246 pd flanger;
#N canvas 1244 298 441 300 chorus 0;
#X obj 279 22 r \$1-chorus-enable;
#X obj 84 71 r \$1-chorus-depth;
#X obj 66 51 r \$1-chorus-speed;
#X obj 101 94 r \$1-chorus-spread;
#X obj 119 116 r \$1-chorus-wet;
#X obj 279 49 switch~;
#X obj 282 96 loadbang;
#X obj 282 118 0;
#X obj 282 142 s \$1-chorus-enable;
#X obj 33 251 throw~ \$0-fxoutputL;
#X obj 119 203 throw~ \$0-fxoutputR;
#X obj 32 150 chorus~, f 15;
#X obj 32 5 catch~ \$0-8L;
#X obj 48 27 catch~ \$0-8R;
#X obj 130 176 r fx-\$0-8R;
#X obj 43 223 r fx-\$0-8L;
#X connect 0 0 5 0;
#X connect 1 0 11 3;
#X connect 2 0 11 2;
#X connect 3 0 11 4;
#X connect 4 0 11 5;
#X connect 6 0 7 0;
#X connect 7 0 8 0;
#X connect 11 0 9 0;
#X connect 11 1 10 0;
#X connect 12 0 11 0;
#X connect 13 0 11 1;
#X connect 14 0 10 0;
#X connect 15 0 9 0;
#X restore 53 267 pd chorus;
#X obj 540 132 r \$0-movedown;
#X msg 540 153 movedown \$1;
#X obj 527 84 r \$0-moveup;
#X msg 527 109 moveup \$1;
#X obj 823 370 table \$1-fxlist;
#X obj 611 354 effectsender \$0 6;
#X obj 625 332 effectsender \$0 7;
#X obj 556 436 effectsender \$0 2;
#X obj 542 456 effectsender \$0 1;
#X obj 528 477 effectsender \$0 0;
#X obj 570 415 effectsender \$0 3;
#X obj 597 375 effectsender \$0 5;
#X obj 583 395 effectsender \$0 4;
#N canvas 1124 302 901 518 reverb 0;
#X obj 144 229 faustrevstereo~;
#X obj 209 119 r \$1-rev-damp;
#X obj 187 67 r \$1-rev-roomsize;
#X msg 27 139 clear;
#X obj 187 94 * 0.9;
#X obj 27 20 r clearfx;
#X obj 44 43 r \$1-rev-enable;
#X obj 44 66 bng 15 250 50 0 empty empty empty 17 7 0 10 #fcfcfc #000000
#000000;
#X obj 231 143 r \$1-rev-spread;
#X obj 78 442 throw~ \$0-fxoutputL;
#X obj 338 447 throw~ \$0-fxoutputR;
#X obj 532 17 r \$1-rev-enable;
#X obj 532 41 switch~;
#X obj 530 79 loadbang;
#X obj 530 101 0;
#X obj 530 125 s \$1-rev-enable;
#X obj 166 332 r \$1-rev-wet;
#X obj 425 342 r \$1-rev-wet;
#X obj 338 388 crossfadeequal~;
#X obj 79 379 crossfadeequal~;
#X obj 166 355 * 0.4;
#X obj 425 366 * 0.4;
#X text 482 370 crossfade not going quite to the right \, since this
subjectively makes the reverb a bit too loud compared to the dry signal
;
#X obj 143 13 catch~ \$0-9L;
#X obj 337 176 catch~ \$0-9R;
#X obj 103 414 r fx-\$0-9L;
#X obj 347 421 r fx-\$0-9R;
#X connect 0 0 19 1;
#X connect 0 1 18 1;
#X connect 1 0 0 3;
#X connect 2 0 4 0;
#X connect 3 0 0 0;
#X connect 4 0 0 2;
#X connect 5 0 3 0;
#X connect 6 0 7 0;
#X connect 7 0 3 0;
#X connect 8 0 0 4;
#X connect 11 0 12 0;
#X connect 13 0 14 0;
#X connect 14 0 15 0;
#X connect 16 0 20 0;
#X connect 17 0 21 0;
#X connect 18 0 10 0;
#X connect 19 0 9 0;
#X connect 20 0 19 2;
#X connect 21 0 18 2;
#X connect 23 0 0 0;
#X connect 23 0 19 0;
#X connect 24 0 0 1;
#X connect 24 0 18 0;
#X connect 25 0 9 0;
#X connect 26 0 10 0;
#X restore 54 289 pd reverb;
#X obj 638 312 effectsender \$0 8;
#N canvas 738 275 803 687 bitcrusher 1;
#X obj 109 109 noise~;
#X obj 108 189 *~ 1;
#N canvas 734 608 293 381 noiseenv 0;
#X obj 31 179 *~;
#X obj 32 13 inlet~;
#X obj 31 210 outlet~;
#X obj 46 51 inlet~;
#X obj 46 76 env~;
#X obj 46 101 dbtorms;
#X obj 46 150 line~;
#X msg 46 126 \$1 4;
#X connect 0 0 2 0;
#X connect 1 0 0 0;
#X connect 3 0 4 0;
#X connect 4 0 5 0;
#X connect 5 0 7 0;
#X connect 6 0 0 1;
#X connect 7 0 6 0;
#X restore 108 136 pd noiseenv;
#X obj 93 341 bitcrusher~;
#X obj 386 232 bitcrusher~;
#X obj 167 316 r \$1-bitcrusher-rate;
#X obj 148 292 r \$1-bitcrusher-crush;
#X obj 129 166 r \$1-bitcrusher-noise;
#X obj 130 268 r \$1-bitcrusher-drive;
#X obj 460 204 r \$1-bitcrusher-rate;
#X obj 441 180 r \$1-bitcrusher-crush;
#X obj 423 156 r \$1-bitcrusher-drive;
#X obj 52 496 throw~ \$0-fxoutputL;
#X obj 342 494 throw~ \$0-fxoutputR;
#X obj 51 416 crossfadeequal~;
#X obj 342 424 crossfadeequal~;
#X obj 430 42 switch~;
#X obj 430 72 loadbang;
#X obj 430 94 0;
#X obj 430 16 r \$1-bitcrusher-enable;
#X obj 430 117 s \$1-bitcrusher-enable;
#X obj 138 392 * 1;
#X obj 429 400 * 1;
#X obj 94 17 catch~ \$0-2L;
#X obj 288 18 catch~ \$0-2R;
#X obj 61 471 r fx-\$0-2L;
#X obj 349 469 r fx-\$0-2R;
#X obj 107 213 else/highshelf~ 14750 1 30;
#X obj 138 367 r \$1-bitcrusher-mix;
#X obj 429 375 r \$1-bitcrusher-mix;
#X connect 0 0 2 0;
#X connect 1 0 27 0;
#X connect 2 0 1 0;
#X connect 3 0 14 1;
#X connect 4 0 15 1;
#X connect 5 0 3 4;
#X connect 6 0 3 3;
#X connect 7 0 1 1;
#X connect 8 0 3 2;
#X connect 9 0 4 4;
#X connect 10 0 4 3;
#X connect 11 0 4 2;
#X connect 14 0 12 0;
#X connect 15 0 13 0;
#X connect 17 0 18 0;
#X connect 18 0 20 0;
#X connect 19 0 16 0;
#X connect 21 0 14 2;
#X connect 22 0 15 2;
#X connect 23 0 3 0;
#X connect 23 0 14 0;
#X connect 23 0 2 1;
#X connect 24 0 15 0;
#X connect 24 0 4 0;
#X connect 24 0 2 1;
#X connect 25 0 12 0;
#X connect 26 0 13 0;
#X connect 27 0 3 1;
#X connect 27 0 4 1;
#X connect 28 0 21 0;
#X connect 29 0 22 0;
#X restore 53 135 pd bitcrusher;
#N canvas 459 584 708 367 distortion 0;
#X obj 551 44 switch~;
#X obj 551 74 loadbang;
#X obj 551 96 0;
#X obj 551 18 r \$1-distortion-enable;
#X obj 551 119 s \$1-distortion-enable;
#X obj 54 22 catch~ \$0-1L;
#X obj 314 22 catch~ \$0-1R;
#X obj 20 303 r fx-\$0-1L;
#X obj 279 303 r fx-\$0-1R;
#X obj 11 328 throw~ \$0-fxoutputL;
#X obj 272 328 throw~ \$0-fxoutputR;
#X obj 53 132 distortion~;
#X obj 74 64 r \$1-distortion-drive;
#X obj 95 85 r \$1-distortion-fuzziness;
#X obj 116 106 r \$1-distortion-fuzzfreq;
#X obj 313 132 distortion~;
#X obj 334 64 r \$1-distortion-drive;
#X obj 355 85 r \$1-distortion-fuzziness;
#X obj 376 106 r \$1-distortion-fuzzfreq;
#X obj 11 255 crossfadeequal~;
#X obj 98 231 * 1;
#X obj 271 265 crossfadeequal~;
#X obj 358 241 * 1;
#X obj 98 206 r \$1-distortion-mix;
#X obj 358 216 r \$1-distortion-mix;
#X connect 1 0 2 0;
#X connect 2 0 4 0;
#X connect 3 0 0 0;
#X connect 5 0 11 0;
#X connect 5 0 19 0;
#X connect 6 0 21 0;
#X connect 6 0 15 0;
#X connect 7 0 9 0;
#X connect 8 0 10 0;
#X connect 11 0 19 1;
#X connect 12 0 11 1;
#X connect 13 0 11 2;
#X connect 14 0 11 3;
#X connect 15 0 21 1;
#X connect 16 0 15 1;
#X connect 17 0 15 2;
#X connect 18 0 15 3;
#X connect 19 0 9 0;
#X connect 20 0 19 2;
#X connect 21 0 10 0;
#X connect 22 0 21 2;
#X connect 23 0 20 0;
#X connect 24 0 22 0;
#X restore 53 114 pd distortion;
#X msg 714 172 list 0 1 2 3 4 5 6 7 8 9;
#X obj 515 227 fxlist 10, f 28;
#X obj 652 292 effectsender \$0 9;
#X connect 0 0 13 0;
#X connect 2 0 12 0;
#X connect 7 0 45 0;
#X connect 10 0 44 0;
#X connect 11 0 13 0;
#X connect 14 0 1 0;
#X connect 15 0 3 0;
#X connect 16 0 12 0;
#X connect 18 0 45 0;
#X connect 19 0 45 0;
#X connect 27 0 28 0;
#X connect 28 0 45 0;
#X connect 29 0 30 0;
#X connect 30 0 45 0;
#X connect 44 0 9 0;
#X connect 44 0 8 0;
#X connect 44 0 45 0;
#X connect 45 0 20 0;
#X connect 45 1 36 0;
#X connect 45 2 35 0;
#X connect 45 3 34 0;
#X connect 45 4 37 0;
#X connect 45 5 39 0;
#X connect 45 6 38 0;
#X connect 45 7 32 0;
#X connect 45 8 33 0;
#X connect 45 9 41 0;
#X connect 45 10 46 0;
#X connect 45 11 17 0;
#X connect 45 12 8 0;
#X connect 45 12 9 0;
