#N canvas 1731 243 661 507 10;
#X obj 67 112 inlet~;
#X obj 156 300 outlet~;
#X obj 68 208 fxchain~ 3, f 17;
#N canvas 1961 451 403 276 reverb 0;
#X obj 73 168 pureverb, f 12;
#X obj 89 54 r \$1-rev-damp;
#X obj 105 76 r \$1-rev-roomsize;
#X obj 121 98 r \$1-rev-dry;
#X obj 137 119 r \$1-rev-wet;
#X obj 72 31 inlet~;
#X obj 72 223 outlet~;
#X obj 154 142 r \$1-rev-enable;
#X obj 16 183 *~;
#X obj 34 159 == 0;
#X obj 266 15 loadbang;
#X obj 266 38 0;
#X obj 266 62 s \$1-rev-enable;
#X connect 0 0 6 0;
#X connect 1 0 0 1;
#X connect 2 0 0 2;
#X connect 3 0 0 3;
#X connect 4 0 0 4;
#X connect 5 0 0 0;
#X connect 5 0 8 0;
#X connect 7 0 0 5;
#X connect 7 0 9 0;
#X connect 8 0 6 0;
#X connect 9 0 8 1;
#X connect 10 0 11 0;
#X connect 11 0 12 0;
#X restore 562 334 pd reverb;
#N canvas 1647 290 461 230 delay 1;
#X obj 107 125 johsdelay;
#X obj 122 31 r \$1-del-delay;
#X obj 137 53 r \$1-del-feedback;
#X obj 152 74 r \$1-del-wet;
#X obj 108 9 inlet~;
#X obj 108 170 outlet~;
#X obj 167 96 r \$1-del-enable;
#X obj 68 113 == 0;
#X obj 50 139 *~;
#X obj 337 21 loadbang;
#X obj 337 44 0;
#X obj 337 68 s \$1-del-enable;
#X connect 0 0 5 0;
#X connect 1 0 0 1;
#X connect 2 0 0 2;
#X connect 3 0 0 3;
#X connect 4 0 0 0;
#X connect 4 0 8 0;
#X connect 6 0 0 4;
#X connect 6 0 7 0;
#X connect 7 0 8 1;
#X connect 8 0 5 0;
#X connect 9 0 10 0;
#X connect 10 0 11 0;
#X restore 371 333 pd delay;
#N canvas 1679 174 450 292 flanger 0;
#X obj 103 8 inlet~;
#X obj 102 206 outlet~;
#X obj 102 154 johsflanger;
#X obj 116 33 r \$1-flg-speed;
#X obj 131 57 r \$1-flg-offset;
#X obj 146 81 r \$1-flg-delay;
#X obj 161 104 r \$1-flg-feedback;
#X obj 176 126 r \$1-flg-enable;
#X obj 45 166 *~;
#X obj 63 143 == 0;
#X obj 307 23 loadbang;
#X obj 307 46 0;
#X obj 307 69 s \$1-flg-enable;
#X connect 0 0 2 0;
#X connect 0 0 8 0;
#X connect 2 0 1 0;
#X connect 3 0 2 1;
#X connect 4 0 2 2;
#X connect 5 0 2 3;
#X connect 6 0 2 4;
#X connect 7 0 2 5;
#X connect 7 0 9 0;
#X connect 8 0 1 0;
#X connect 9 0 8 1;
#X connect 10 0 11 0;
#X connect 11 0 12 0;
#X restore 460 334 pd flanger;
#X obj 371 298 r~ \$0-in1;
#X obj 371 374 s~ \$0-out1;
#X obj 459 299 r~ \$0-in2;
#X obj 459 375 s~ \$0-out2;
#X obj 562 298 r~ \$0-in3;
#X obj 562 375 s~ \$0-out3;
#X obj 107 135 r~ \$0-out1;
#X obj 146 155 r~ \$0-out2;
#X obj 183 179 r~ \$0-out3;
#X obj 68 363 s~ \$0-in1;
#X obj 97 343 s~ \$0-in2;
#X obj 127 323 s~ \$0-in3;
#X obj 387 30 r \$1-del-moveup;
#X obj 521 30 r \$1-del-movedown;
#X obj 45 69 r \$0-movedown;
#X msg 45 90 movedown \$1;
#X obj 521 79 s \$0-movedown;
#X obj 521 55 0;
#X obj 22 17 r \$0-moveup;
#X msg 22 42 moveup \$1;
#X obj 387 55 0;
#X obj 387 79 s \$0-moveup;
#X obj 521 152 s \$0-movedown;
#X obj 387 152 s \$0-moveup;
#X obj 387 103 r \$1-flg-moveup;
#X obj 521 103 r \$1-flg-movedown;
#X obj 387 128 1;
#X obj 521 128 1;
#X obj 521 225 s \$0-movedown;
#X obj 387 225 s \$0-moveup;
#X obj 387 200 2;
#X obj 387 176 r \$1-rev-moveup;
#X obj 521 176 r \$1-rev-movedown;
#X obj 521 201 2;
#X obj 184 277 array set \$1-fxlist;
#X obj 214 349 table \$1-fxlist;
#X obj 202 257 s \$1-fxlistctl;
#X msg 202 227 list 0 1 2;
#X obj 202 202 loadbang;
#X connect 0 0 2 0;
#X connect 2 0 15 0;
#X connect 2 1 16 0;
#X connect 2 2 17 0;
#X connect 2 3 1 0;
#X connect 2 4 40 0;
#X connect 2 4 42 0;
#X connect 3 0 11 0;
#X connect 4 0 7 0;
#X connect 5 0 9 0;
#X connect 6 0 4 0;
#X connect 8 0 5 0;
#X connect 10 0 3 0;
#X connect 12 0 2 1;
#X connect 13 0 2 2;
#X connect 14 0 2 3;
#X connect 18 0 26 0;
#X connect 19 0 23 0;
#X connect 20 0 21 0;
#X connect 21 0 2 0;
#X connect 23 0 22 0;
#X connect 24 0 25 0;
#X connect 25 0 2 0;
#X connect 26 0 27 0;
#X connect 30 0 32 0;
#X connect 31 0 33 0;
#X connect 32 0 29 0;
#X connect 33 0 28 0;
#X connect 36 0 35 0;
#X connect 37 0 36 0;
#X connect 38 0 39 0;
#X connect 39 0 34 0;
#X connect 43 0 42 0;
#X connect 43 0 40 0;
#X connect 44 0 43 0;
