#N canvas 577 260 943 541 10;
#X obj 54 20 inlet~;
#X obj 53 466 outlet~;
#N canvas 1110 228 450 300 fxlisttest 1;
#X obj 111 32 bng 15 250 50 0 empty empty empty 17 7 0 10 -262144 -1
-1;
#X obj 91 201 print 0;
#X obj 113 77 fxlist 3, f 15;
#X obj 145 202 print 1;
#X obj 198 203 print 2;
#X obj 242 131 print fxlist;
#X msg 186 31 moveup 1;
#X msg 258 39 movedown 1;
#X obj 265 176 print fxinput;
#X obj 18 235 print fxoutput;
#X msg 20 3 enable 1 1;
#X msg 29 31 enable 2 1;
#X msg 152 3 list 2 1 0;
#X connect 0 0 2 0;
#X connect 2 0 9 0;
#X connect 2 1 1 0;
#X connect 2 2 3 0;
#X connect 2 3 4 0;
#X connect 2 4 8 0;
#X connect 2 5 5 0;
#X connect 6 0 2 0;
#X connect 7 0 2 0;
#X connect 10 0 2 0;
#X connect 11 0 2 0;
#X connect 12 0 2 0;
#X restore 122 497 pd fxlisttest;
#X obj 229 22 inlet~;
#X obj 229 466 outlet~;
#N canvas 897 266 495 405 3bandeq 1;
#N canvas 1624 177 998 291 eq 0;
#X obj 7 9 inlet~;
#X obj 7 267 outlet~;
#X obj 6 87 faustlowshelf~;
#X obj 7 239 fausthighshelf~;
#X obj 7 173 faustpeakeq~;
#X obj 272 9 inlet~;
#X obj 272 267 outlet~;
#X obj 271 87 faustlowshelf~;
#X obj 272 239 fausthighshelf~;
#X obj 272 173 faustpeakeq~;
#X obj 496 22 inlet lowgain;
#X obj 595 22 inlet midgain;
#X obj 694 22 inlet midfreq;
#X obj 887 22 inlet highgain;
#X obj 53 42 r \$0-lowshelffreq;
#X obj 318 42 r \$0-lowshelffreq;
#X obj 672 117 loadbang;
#X obj 581 193 s \$0-lowshelffreq;
#X obj 58 197 r \$0-highshelffreq;
#X obj 323 197 r \$0-highshelffreq;
#X obj 720 170 5000;
#X obj 720 193 s \$0-highshelffreq;
#X obj 101 62 r \$0-lowgain;
#X obj 366 62 r \$0-lowgain;
#X obj 496 43 s \$0-lowgain;
#X obj 61 132 r \$0-midgain;
#X obj 326 132 r \$0-midgain;
#X obj 595 43 s \$0-midgain;
#X obj 34 112 r \$0-midfreq;
#X obj 299 112 r \$0-midfreq;
#X obj 694 43 s \$0-midfreq;
#X obj 88 152 r \$0-midbw;
#X obj 353 152 r \$0-midbw;
#X obj 796 43 s \$0-midbw;
#X obj 796 22 inlet midbw;
#X obj 109 218 r \$0-highgain;
#X obj 374 218 r \$0-highgain;
#X obj 887 42 s \$0-highgain;
#X obj 581 170 200;
#X connect 0 0 2 0;
#X connect 2 0 4 0;
#X connect 3 0 1 0;
#X connect 4 0 3 0;
#X connect 5 0 7 0;
#X connect 7 0 9 0;
#X connect 8 0 6 0;
#X connect 9 0 8 0;
#X connect 10 0 24 0;
#X connect 11 0 27 0;
#X connect 12 0 30 0;
#X connect 13 0 37 0;
#X connect 14 0 2 1;
#X connect 15 0 7 1;
#X connect 16 0 20 0;
#X connect 16 0 38 0;
#X connect 18 0 3 1;
#X connect 19 0 8 1;
#X connect 20 0 21 0;
#X connect 22 0 2 2;
#X connect 23 0 7 2;
#X connect 25 0 4 2;
#X connect 26 0 9 2;
#X connect 28 0 4 1;
#X connect 29 0 9 1;
#X connect 31 0 4 3;
#X connect 32 0 9 3;
#X connect 34 0 33 0;
#X connect 35 0 3 2;
#X connect 36 0 8 2;
#X connect 38 0 17 0;
#X restore 49 230 pd eq, f 17;
#X obj 82 91 r \$1-3eq-lowgain;
#X obj 98 114 r \$1-3eq-midgain;
#X obj 115 136 r \$1-3eq-midfreq;
#X obj 131 159 r \$1-3eq-midbw;
#X obj 148 182 r \$1-3eq-highgain;
#X obj 319 73 r \$1-3eq-enable;
#X obj 48 372 throw~;
#X obj 148 372 throw~;
#X obj 319 101 switch~;
#X obj 61 258 r \$0-2L;
#X obj 50 33 catch~ \$0-2L;
#X obj 64 61 catch~ \$0-2R;
#X obj 157 259 r \$0-2R;
#X obj 88 302 f \$0;
#X obj 61 280 t f b;
#X obj 61 325 pack;
#X msg 61 347 set \$2-\$1L;
#X obj 184 302 f \$0;
#X obj 157 280 t f b;
#X obj 157 325 pack;
#X msg 157 347 set \$2-\$1R;
#X connect 0 0 7 0;
#X connect 0 1 8 0;
#X connect 1 0 0 2;
#X connect 2 0 0 3;
#X connect 3 0 0 4;
#X connect 4 0 0 5;
#X connect 5 0 0 6;
#X connect 6 0 9 0;
#X connect 10 0 15 0;
#X connect 11 0 0 0;
#X connect 12 0 0 1;
#X connect 13 0 19 0;
#X connect 14 0 16 1;
#X connect 15 0 16 0;
#X connect 15 1 14 0;
#X connect 16 0 17 0;
#X connect 17 0 7 0;
#X connect 18 0 20 1;
#X connect 19 0 20 0;
#X connect 19 1 18 0;
#X connect 20 0 21 0;
#X connect 21 0 8 0;
#X restore 268 200 pd 3bandeq;
#N canvas 325 239 398 410 fxfilter 1;
#N canvas 705 555 633 228 filter 0;
#X obj 14 106 faustreson~;
#X obj 150 106 faustreson~;
#X obj 151 16 inlet~;
#X obj 14 11 inlet~;
#X obj 150 203 outlet~;
#X obj 13 201 outlet~;
#X obj 290 17 inlet freq;
#X obj 387 19 inlet q;
#X obj 290 63 line~;
#X msg 290 39 \$1 30;
#X obj 51 63 r~ \$0-freq;
#X obj 291 86 s~ \$0-freq;
#X obj 186 61 r~ \$0-freq;
#X obj 387 44 s \$0-q;
#X obj 88 83 r \$0-q;
#X obj 224 81 r \$0-q;
#X obj 456 19 inlet mode;
#X obj 25 36 r \$0-mode;
#X obj 164 38 r \$0-mode;
#X obj 473 180 s \$0-mode;
#X obj 419 111 select 0;
#X obj 486 112 select 1;
#X msg 419 132 lp;
#X msg 486 132 hp;
#X msg 551 132 bp;
#X obj 551 112 select 2;
#X connect 0 0 5 0;
#X connect 1 0 4 0;
#X connect 2 0 1 0;
#X connect 3 0 0 0;
#X connect 6 0 9 0;
#X connect 7 0 13 0;
#X connect 8 0 11 0;
#X connect 9 0 8 0;
#X connect 10 0 0 1;
#X connect 12 0 1 1;
#X connect 14 0 0 2;
#X connect 15 0 1 2;
#X connect 16 0 20 0;
#X connect 16 0 21 0;
#X connect 16 0 25 0;
#X connect 17 0 0 0;
#X connect 18 0 1 0;
#X connect 20 0 22 0;
#X connect 21 0 23 0;
#X connect 22 0 19 0;
#X connect 23 0 19 0;
#X connect 24 0 19 0;
#X connect 25 0 24 0;
#X restore 55 130 pd filter;
#X obj 80 63 r \$1-fxfilter-freq;
#X obj 93 86 r \$1-fxfilter-q;
#X obj 106 106 r \$1-fxfilter-mode;
#X obj 243 64 r \$1-fxfilter-enable;
#X obj 148 300 throw~;
#X obj 54 301 throw~;
#X obj 243 90 switch~;
#X obj 91 228 f \$0;
#X obj 64 206 t f b;
#X obj 64 251 pack;
#X msg 64 273 set \$2-\$1L;
#X obj 64 184 r \$0-1L;
#X obj 181 228 f \$0;
#X msg 154 273 set \$2-\$1L;
#X obj 154 184 r \$0-1R;
#X obj 54 19 catch~ \$0-1L;
#X obj 66 41 catch~ \$0-1R;
#X obj 154 251 pack;
#X obj 154 206 t f b;
#X connect 0 0 6 0;
#X connect 0 1 5 0;
#X connect 1 0 0 2;
#X connect 2 0 0 3;
#X connect 3 0 0 4;
#X connect 4 0 7 0;
#X connect 8 0 10 1;
#X connect 9 0 10 0;
#X connect 9 1 8 0;
#X connect 10 0 11 0;
#X connect 11 0 6 0;
#X connect 12 0 9 0;
#X connect 13 0 18 1;
#X connect 14 0 5 0;
#X connect 15 0 19 0;
#X connect 16 0 0 0;
#X connect 17 0 0 1;
#X connect 18 0 14 0;
#X connect 19 0 18 0;
#X connect 19 1 13 0;
#X restore 166 202 pd fxfilter;
#N canvas 112 316 463 356 gainer 0;
#N canvas 1851 411 437 418 internals 0;
#X obj 129 16 inlet~;
#X obj 42 16 inlet~;
#X obj 43 383 outlet~;
#X obj 129 381 outlet~;
#X obj 197 40 moses 0.5;
#X obj 197 139 / 0.5;
#X obj 257 64 - 0.5;
#X obj 257 84 / 0.5;
#X obj 257 104 t b f;
#X obj 257 129 1;
#X obj 146 140 1;
#X msg 60 166 \$1 50;
#X obj 60 186 line~;
#X obj 43 208 *~;
#X msg 146 169 \$1 50;
#X obj 146 189 line~;
#X obj 128 211 *~;
#X obj 60 68 loadbang;
#X obj 145 265 inlet gain;
#X obj 197 15 inlet pan;
#X obj 75 119 bng 15 250 50 0 empty empty empty 17 7 0 10 -262144 -1
-1;
#X obj 161 117 bng 15 250 50 0 empty empty empty 17 7 0 10 -262144
-1 -1;
#X obj 60 147 1;
#X obj 271 149 -;
#X obj 128 331 *~;
#X obj 43 331 *~;
#X msg 60 290 \$1 50;
#X obj 60 310 line~;
#X msg 145 290 \$1 50;
#X obj 145 310 line~;
#X obj 60 240 loadbang;
#X obj 60 264 1;
#X connect 0 0 16 0;
#X connect 1 0 13 0;
#X connect 4 0 5 0;
#X connect 4 0 20 0;
#X connect 4 1 6 0;
#X connect 4 1 21 0;
#X connect 5 0 14 0;
#X connect 6 0 7 0;
#X connect 7 0 8 0;
#X connect 8 0 9 0;
#X connect 8 1 23 1;
#X connect 9 0 23 0;
#X connect 10 0 14 0;
#X connect 11 0 12 0;
#X connect 12 0 13 1;
#X connect 13 0 25 0;
#X connect 14 0 15 0;
#X connect 15 0 16 1;
#X connect 16 0 24 0;
#X connect 17 0 10 0;
#X connect 17 0 22 0;
#X connect 18 0 28 0;
#X connect 18 0 26 0;
#X connect 19 0 4 0;
#X connect 20 0 22 0;
#X connect 21 0 10 0;
#X connect 22 0 11 0;
#X connect 23 0 11 0;
#X connect 24 0 3 0;
#X connect 25 0 2 0;
#X connect 26 0 27 0;
#X connect 27 0 25 1;
#X connect 28 0 29 0;
#X connect 29 0 24 1;
#X connect 30 0 31 0;
#X connect 31 0 26 0;
#X connect 31 0 28 0;
#X restore 37 136 pd internals;
#X obj 83 64 r \$1-gainer-gain;
#X obj 106 112 r \$1-gainer-pan;
#X obj 216 26 r \$1-gainer-enable;
#X obj 83 89 logvolume -50 12;
#X obj 216 53 switch~;
#X obj 154 275 throw~;
#X obj 37 274 throw~;
#X obj 37 20 catch~ \$0-0L;
#X obj 60 41 catch~ \$0-0R;
#X obj 74 204 f \$0;
#X obj 47 182 t f b;
#X obj 47 227 pack;
#X msg 47 249 set \$2-\$1L;
#X obj 47 160 r \$0-0L;
#X obj 189 204 f \$0;
#X obj 162 182 t f b;
#X obj 162 227 pack;
#X msg 162 249 set \$2-\$1L;
#X obj 162 160 r \$0-0R;
#X connect 0 0 7 0;
#X connect 0 1 6 0;
#X connect 1 0 4 0;
#X connect 2 0 0 3;
#X connect 3 0 5 0;
#X connect 4 0 0 2;
#X connect 8 0 0 0;
#X connect 9 0 0 1;
#X connect 10 0 12 1;
#X connect 11 0 12 0;
#X connect 11 1 10 0;
#X connect 12 0 13 0;
#X connect 13 0 7 0;
#X connect 14 0 11 0;
#X connect 15 0 17 1;
#X connect 16 0 17 0;
#X connect 16 1 15 0;
#X connect 17 0 18 0;
#X connect 18 0 6 0;
#X connect 19 0 16 0;
#X restore 52 205 pd gainer;
#X obj 526 258 fxlist 3, f 19;
#X obj 517 33 r \$1-gainer-enable;
#X obj 536 219 r \$0-enable;
#X obj 517 83 s \$0-enable;
#X msg 517 59 0 \$1;
#X obj 637 33 r \$1-fxfilter-enable;
#X obj 637 83 s \$0-enable;
#X msg 637 59 1 \$1;
#X obj 765 33 r \$1-3eq-enable;
#X obj 765 83 s \$0-enable;
#X msg 765 59 2 \$1;
#X obj 707 317 array set \$1-fxlist;
#X obj 725 295 s \$1-fxlistctl;
#X obj 725 240 loadbang;
#X msg 725 265 list 0 1 2 3 4 5 6 7;
#X obj 107 29 r \$0-setoutputfxL;
#X obj 229 58 throw~ \$0-fxoutputR;
#X obj 54 56 throw~ \$0-fxoutputL;
#X obj 53 441 catch~ \$0-fxoutputL;
#X obj 229 441 catch~ \$0-fxoutputR;
#X obj 277 29 r \$0-setoutputfxR;
#N canvas 734 307 313 300 setinput 0;
#X obj 49 34 inlet;
#X obj 49 66 moses 0;
#X msg 76 169 set fxoutputR;
#X obj 76 191 s \$0-setoutputfxR;
#X obj 49 237 s \$0-setoutputfxL;
#X msg 88 118 set \$1L;
#X msg 49 214 set fxoutputL;
#X obj 88 142 s \$0-setoutputfxL;
#X msg 151 95 set \$1R;
#X obj 151 119 s \$0-setoutputfxR;
#X connect 0 0 1 0;
#X connect 1 0 2 0;
#X connect 1 0 6 0;
#X connect 1 1 5 0;
#X connect 1 1 8 0;
#X connect 2 0 3 0;
#X connect 5 0 7 0;
#X connect 6 0 4 0;
#X connect 8 0 9 0;
#X restore 614 316 pd setinput;
#X obj 526 193 r \$1-fxorder;
#X obj 592 368 s \$0-2L;
#X obj 601 347 s \$0-2R;
#X obj 579 393 s \$0-1R;
#X obj 570 414 s \$0-1L;
#X obj 557 435 s \$0-0R;
#X obj 548 456 s \$0-0L;
#X obj 252 312 s \$0-1R;
#X obj 251 280 0;
#X obj 250 258 bng 15 250 50 0 empty empty empty 17 7 0 10 -262144
-1 -1;
#X msg 296 277 symbol asddsa;
#X connect 0 0 25 0;
#X connect 3 0 24 0;
#X connect 8 1 35 0;
#X connect 8 1 36 0;
#X connect 8 2 33 0;
#X connect 8 2 34 0;
#X connect 8 3 31 0;
#X connect 8 3 32 0;
#X connect 8 4 29 0;
#X connect 8 5 20 0;
#X connect 8 5 19 0;
#X connect 9 0 12 0;
#X connect 10 0 8 0;
#X connect 12 0 11 0;
#X connect 13 0 15 0;
#X connect 15 0 14 0;
#X connect 16 0 18 0;
#X connect 18 0 17 0;
#X connect 21 0 22 0;
#X connect 22 0 20 0;
#X connect 22 0 19 0;
#X connect 23 0 25 0;
#X connect 26 0 1 0;
#X connect 27 0 4 0;
#X connect 28 0 24 0;
#X connect 30 0 8 0;
#X connect 38 0 37 0;
#X connect 39 0 38 0;
#X connect 40 0 37 0;
