#N canvas 1007 554 450 300 10;
#X obj 70 22 inlet;
#X obj 241 53 bng 15 250 50 0 empty empty empty 17 7 0 10 -262144 -1
-1;
#X obj 240 79 \$2;
#X obj 70 54 t f b;
#X obj 70 99 pack;
#X obj 97 76 \$1;
#X msg 141 145 set \$2-\$1R;
#X msg 59 145 set \$2-\$1L;
#X obj 59 171 s fx-\$1-\$2L;
#X obj 141 171 s fx-\$1-\$2R;
#X connect 0 0 3 0;
#X connect 1 0 2 0;
#X connect 3 0 4 0;
#X connect 3 1 5 0;
#X connect 4 0 6 0;
#X connect 4 0 7 0;
#X connect 5 0 4 1;
#X connect 6 0 9 0;
#X connect 7 0 8 0;
