#N canvas 1793 334 699 655 10;
#X obj 13 -88 inlet~;
#X obj 144 526 outlet~;
#X obj 143 317 *~;
#N canvas 1807 584 523 303 reverb 0;
#X obj 16 -102 inlet~;
#X obj 17 22 outlet~;
#N canvas 612 361 720 582 workings 0;
#X obj 32 505 outlet~;
#X obj 55 114 *~ 1;
#X obj 161 65 r \$0-dry;
#X obj 58 42 inlet~;
#X obj 429 192 s \$0-damping;
#X obj 514 219 * 0.28;
#X obj 515 242 + 0.7;
#X obj 515 263 s \$0-feedback;
#X obj 513 126 - 1;
#X obj 514 170 - 1;
#X obj 515 191 abs;
#X obj 112 437 *~ 1;
#N canvas 800 423 842 542 LEFT 0;
#N canvas 66 211 522 372 comb-1 0;
#X obj 216 112 r \$0-damping;
#X obj 152 208 delwrite~ \$0-rev1 26;
#X obj 154 146 lop~ 20000;
#X obj 154 169 *~ 0.5;
#X obj 155 61 delread~ \$0-rev1 25.3061;
#X obj 72 37 inlet~;
#X obj 67 234 outlet~;
#X obj 233 147 r \$0-feedback;
#X connect 0 0 2 1;
#X connect 2 0 3 0;
#X connect 3 0 1 0;
#X connect 3 0 6 0;
#X connect 4 0 2 0;
#X connect 5 0 1 0;
#X connect 7 0 3 1;
#X restore 236 189 pd comb-1;
#N canvas 547 241 494 344 comb-2 0;
#X obj 236 93 r \$0-damping;
#X obj 174 127 lop~ 20000;
#X obj 174 150 *~ 0.5;
#X obj 90 36 inlet~;
#X obj 88 231 outlet~;
#X obj 253 128 r \$0-feedback;
#X obj 169 63 delread~ \$0-rev2 26.9388;
#X obj 171 202 delwrite~ \$0-rev2 27;
#X connect 0 0 1 1;
#X connect 1 0 2 0;
#X connect 2 0 7 0;
#X connect 2 0 4 0;
#X connect 3 0 7 0;
#X connect 5 0 2 1;
#X connect 6 0 1 0;
#X restore 298 189 pd comb-2;
#N canvas 394 216 490 340 comb-3 0;
#X obj 203 102 r \$0-damping;
#X obj 141 136 lop~ 20000;
#X obj 139 165 *~ 0.5;
#X obj 57 43 inlet~;
#X obj 57 248 outlet~;
#X obj 220 137 r \$0-feedback;
#X obj 117 67 delread~ \$0-rev3 28.9569;
#X obj 137 210 delwrite~ \$0-rev3 29;
#X connect 0 0 1 1;
#X connect 1 0 2 0;
#X connect 2 0 7 0;
#X connect 2 0 4 0;
#X connect 3 0 7 0;
#X connect 5 0 2 1;
#X connect 6 0 1 0;
#X restore 359 189 pd comb-3;
#N canvas 744 206 494 344 comb-4 0;
#X obj 244 103 r \$0-damping;
#X obj 182 137 lop~ 20000;
#X obj 182 160 *~ 0.5;
#X obj 90 36 inlet~;
#X obj 88 231 outlet~;
#X obj 261 138 r \$0-feedback;
#X obj 175 73 delread~ \$0-rev4 30.7483;
#X obj 171 206 delwrite~ \$0-rev4 31;
#X connect 0 0 1 1;
#X connect 1 0 2 0;
#X connect 2 0 7 0;
#X connect 2 0 4 0;
#X connect 3 0 7 0;
#X connect 5 0 2 1;
#X connect 6 0 1 0;
#X restore 421 189 pd comb-4;
#N canvas 805 59 474 324 comb-5 0;
#X obj 196 95 r \$0-damping;
#X obj 134 129 lop~ 20000;
#X obj 134 152 *~ 0.5;
#X obj 90 36 inlet~;
#X obj 88 231 outlet~;
#X obj 213 130 r \$0-feedback;
#X obj 135 61 delread~ \$0-rev5 34.2449;
#X obj 132 203 delwrite~ \$0-rev5 35;
#X connect 0 0 1 1;
#X connect 1 0 2 0;
#X connect 2 0 7 0;
#X connect 2 0 4 0;
#X connect 3 0 7 0;
#X connect 5 0 2 1;
#X connect 6 0 1 0;
#X restore 483 189 pd comb-5;
#N canvas 702 107 474 324 comb-6 0;
#X obj 238 87 r \$0-damping;
#X obj 176 121 lop~ 20000;
#X obj 176 144 *~ 0.5;
#X obj 90 36 inlet~;
#X obj 88 231 outlet~;
#X obj 255 122 r \$0-feedback;
#X obj 238 54 delread~ \$0-rev6 33.8095;
#X obj 177 197 delwrite~ \$0-rev6 34;
#X connect 0 0 1 1;
#X connect 1 0 2 0;
#X connect 2 0 4 0;
#X connect 2 0 7 0;
#X connect 3 0 7 0;
#X connect 5 0 2 1;
#X connect 6 0 1 0;
#X restore 545 189 pd comb-6;
#N canvas 742 153 474 324 comb-7 0;
#X obj 193 101 r \$0-damping;
#X obj 131 135 lop~ 20000;
#X obj 131 158 *~ 0.5;
#X obj 80 50 inlet~;
#X obj 88 231 outlet~;
#X obj 210 136 r \$0-feedback;
#X obj 194 70 delread~ \$0-rev7 35.7596;
#X obj 129 207 delwrite~ \$0-rev7 36;
#X connect 0 0 1 1;
#X connect 1 0 2 0;
#X connect 2 0 4 0;
#X connect 2 0 7 0;
#X connect 3 0 7 0;
#X connect 5 0 2 1;
#X connect 6 0 1 0;
#X restore 606 189 pd comb-7;
#N canvas 727 211 478 328 comb-8 0;
#X obj 202 100 r \$0-damping;
#X obj 140 134 lop~ 20000;
#X obj 140 157 *~ 0.5;
#X obj 90 36 inlet~;
#X obj 88 231 outlet~;
#X obj 219 135 r \$0-feedback;
#X obj 204 67 delread~ \$0-rev8 36.6667;
#X obj 140 205 delwrite~ \$0-rev8 26;
#X connect 0 0 1 1;
#X connect 1 0 2 0;
#X connect 2 0 4 0;
#X connect 2 0 7 0;
#X connect 3 0 7 0;
#X connect 5 0 2 1;
#X connect 6 0 1 0;
#X restore 668 189 pd comb-8;
#N canvas 584 211 648 562 allpass-1 0;
#X obj 186 65 inlet~;
#X obj 245 422 *~ 0.5;
#X obj 213 389 delread~ \$0-fbcf-1 12.6077;
#X obj 175 490 outlet~;
#X obj 437 474 delwrite~ \$0-fbcf-1 13;
#X obj 168 391 *~ -1;
#X connect 0 0 5 0;
#X connect 0 0 4 0;
#X connect 1 0 4 0;
#X connect 2 0 1 0;
#X connect 2 0 3 0;
#X connect 5 0 3 0;
#X restore 241 319 pd allpass-1;
#N canvas 0 22 640 554 allpass-2 0;
#X obj 186 65 inlet~;
#X obj 245 422 *~ 0.5;
#X obj 175 490 outlet~;
#X obj 168 391 *~ -1;
#X obj 213 389 delread~ \$0-fbcf-2 10;
#X obj 439 474 delwrite~ \$0-fbcf-2 11;
#X connect 0 0 3 0;
#X connect 0 0 5 0;
#X connect 1 0 5 0;
#X connect 3 0 2 0;
#X connect 4 0 1 0;
#X connect 4 0 2 0;
#X restore 241 339 pd allpass-2;
#N canvas 0 22 644 558 allpass-3 0;
#X obj 186 65 inlet~;
#X obj 245 422 *~ 0.5;
#X obj 175 490 outlet~;
#X obj 168 391 *~ -1;
#X obj 213 389 delread~ \$0-fbcf-3 7.77324;
#X obj 437 474 delwrite~ \$0-fbcf-3 8;
#X connect 0 0 3 0;
#X connect 0 0 5 0;
#X connect 1 0 5 0;
#X connect 3 0 2 0;
#X connect 4 0 1 0;
#X connect 4 0 2 0;
#X restore 240 360 pd allpass-3;
#N canvas 0 22 636 550 allpass-4 0;
#X obj 186 65 inlet~;
#X obj 245 422 *~ 0.5;
#X obj 175 490 outlet~;
#X obj 168 391 *~ -1;
#X obj 214 389 delread~ \$0-fbcf-4 5.10204;
#X obj 437 474 delwrite~ \$0-fbcf-4 6;
#X connect 0 0 3 0;
#X connect 0 0 5 0;
#X connect 1 0 5 0;
#X connect 3 0 2 0;
#X connect 4 0 1 0;
#X connect 4 0 2 0;
#X restore 242 381 pd allpass-4;
#X obj 234 90 *~ 0.05;
#X obj 244 469 outlet~;
#X obj 217 18 inlet~;
#X obj 241 299 *~ 0.25;
#X connect 0 0 15 0;
#X connect 1 0 15 0;
#X connect 2 0 15 0;
#X connect 3 0 15 0;
#X connect 4 0 15 0;
#X connect 5 0 15 0;
#X connect 6 0 15 0;
#X connect 7 0 15 0;
#X connect 8 0 9 0;
#X connect 9 0 10 0;
#X connect 10 0 11 0;
#X connect 11 0 13 0;
#X connect 12 0 0 0;
#X connect 12 0 1 0;
#X connect 12 0 2 0;
#X connect 12 0 3 0;
#X connect 12 0 4 0;
#X connect 12 0 5 0;
#X connect 12 0 6 0;
#X connect 12 0 7 0;
#X connect 14 0 12 0;
#X connect 15 0 8 0;
#X restore 145 117 pd LEFT;
#X obj 512 102 r \$0-feedbk;
#X obj 413 35 r \$0-dampen;
#X obj 429 167 * 44100;
#X obj 389 135 expr pow($f1 \, 4);
#X obj 421 58 * 0.9;
#X obj 420 82 + 0.1;
#X obj 513 148 expr pow($f1 \, 2);
#X obj 139 390 r \$0-wet;
#X connect 1 0 0 0;
#X connect 2 0 1 1;
#X connect 3 0 1 0;
#X connect 3 0 12 0;
#X connect 5 0 6 0;
#X connect 6 0 7 0;
#X connect 8 0 19 0;
#X connect 9 0 10 0;
#X connect 10 0 5 0;
#X connect 11 0 0 0;
#X connect 12 0 11 0;
#X connect 13 0 8 0;
#X connect 14 0 17 0;
#X connect 15 0 4 0;
#X connect 16 0 15 0;
#X connect 17 0 18 0;
#X connect 18 0 16 0;
#X connect 19 0 9 0;
#X connect 20 0 11 1;
#X restore 17 -37 pd workings;
#X obj 85 21 inlet;
#X obj 83 79 send \$0-dampen;
#X obj 189 24 inlet;
#X obj 187 82 send \$0-feedbk;
#X obj 297 26 inlet;
#X obj 295 84 send \$0-dry;
#X obj 377 28 inlet;
#X obj 375 86 send \$0-wet;
#X obj 174 -32 switch~;
#X msg 230 -66 0;
#X obj 270 -93 loadbang;
#X obj 69 -101 inlet;
#X connect 0 0 2 0;
#X connect 2 0 1 0;
#X connect 3 0 4 0;
#X connect 5 0 6 0;
#X connect 7 0 8 0;
#X connect 9 0 10 0;
#X connect 12 0 11 0;
#X connect 13 0 12 0;
#X connect 14 0 11 0;
#X restore 117 41 pd reverb;
#X obj 319 303 unpack 0 0 0;
#N canvas 66 221 453 417 simpledelay 0;
#X obj 95 20 inlet~;
#X obj 86 367 outlet~;
#X obj 114 282 *~ 0.6;
#X obj 175 249 inlet;
#X obj 309 227 inlet;
#X obj 85 113 block;
#X obj 135 68 inlet;
#X obj 94 217 delwrite~ \$0-delayname 500;
#X obj 152 327 delread~ \$0-delayname 150;
#X connect 0 0 5 0;
#X connect 2 0 7 0;
#X connect 3 0 2 1;
#X connect 4 0 8 0;
#X connect 5 0 1 0;
#X connect 5 1 7 0;
#X connect 6 0 5 1;
#X connect 8 0 1 0;
#X connect 8 0 2 0;
#X restore 300 334 pd simpledelay;
#N canvas 104 332 554 474 lowpass 0;
#X obj 12 31 outlet~;
#N canvas 297 311 535 659 workings 0;
#X obj 80 36 inlet~ signal;
#X obj 225 580 outlet~;
#X obj 220 86 r \$0-cutoff;
#X msg 267 144 20;
#X msg 313 144 40000;
#N canvas 0 22 458 308 rh_scalelog 0;
#X obj 20 155 exp;
#X obj 20 107 *;
#X obj 20 130 +;
#X obj 98 87 log;
#X obj 194 84 log;
#X obj 123 123 t b f;
#X obj 123 145 -;
#X obj 20 183 outlet;
#X obj 20 19 inlet;
#X obj 98 23 inlet;
#X obj 194 24 inlet;
#X connect 0 0 7 0;
#X connect 1 0 2 0;
#X connect 2 0 0 0;
#X connect 3 0 2 1;
#X connect 3 0 5 0;
#X connect 4 0 6 0;
#X connect 5 0 6 0;
#X connect 5 1 6 1;
#X connect 6 0 1 1;
#X connect 8 0 1 0;
#X connect 9 0 3 0;
#X connect 10 0 4 0;
#X restore 220 168 pd rh_scalelog;
#X obj 168 280 lop~;
#X obj 171 305 lop~;
#X obj 237 292 r \$0-amount;
#X obj 129 349 *~;
#X obj 222 338 line~;
#X msg 238 313 \$1 5;
#X obj 226 390 abs~;
#X obj 176 335 *~;
#X msg 302 326 1;
#X obj 224 365 -~ 1;
#X obj 305 457 r \$0-gain;
#N canvas 66 211 462 312 rh_scalelog 0;
#X obj 20 155 exp;
#X obj 20 107 *;
#X obj 20 130 +;
#X obj 98 87 log;
#X obj 194 84 log;
#X obj 123 123 t b f;
#X obj 123 145 -;
#X obj 20 183 outlet;
#X obj 20 19 inlet;
#X obj 98 23 inlet;
#X obj 194 24 inlet;
#X connect 0 0 7 0;
#X connect 1 0 2 0;
#X connect 2 0 0 0;
#X connect 3 0 2 1;
#X connect 3 0 5 0;
#X connect 4 0 6 0;
#X connect 5 0 6 0;
#X connect 5 1 6 1;
#X connect 6 0 1 1;
#X connect 8 0 1 0;
#X connect 9 0 3 0;
#X connect 10 0 4 0;
#X restore 305 542 pd rh_scalelog;
#X msg 352 518 0.1;
#X msg 398 518 10;
#X obj 225 553 *~;
#X obj 267 116 r \$0-loadbang;
#X obj 325 302 r \$0-loadbang;
#X obj 352 490 r \$0-loadbang;
#X connect 0 0 6 0;
#X connect 0 0 9 0;
#X connect 2 0 5 0;
#X connect 3 0 5 1;
#X connect 4 0 5 2;
#X connect 5 0 6 1;
#X connect 5 0 7 1;
#X connect 6 0 7 0;
#X connect 7 0 13 0;
#X connect 8 0 11 0;
#X connect 9 0 20 0;
#X connect 10 0 13 1;
#X connect 10 0 15 0;
#X connect 11 0 10 0;
#X connect 12 0 9 1;
#X connect 13 0 20 0;
#X connect 14 0 11 0;
#X connect 15 0 12 0;
#X connect 16 0 17 0;
#X connect 17 0 20 1;
#X connect 18 0 17 1;
#X connect 19 0 17 2;
#X connect 20 0 1 0;
#X connect 21 0 3 0;
#X connect 21 0 4 0;
#X connect 22 0 14 0;
#X connect 23 0 18 0;
#X connect 23 0 19 0;
#X restore 35 -14 pd workings;
#X obj 98 73 inlet;
#X obj 202 76 inlet;
#X obj 310 78 inlet;
#X obj 96 131 send \$0-cutoff;
#X obj 200 134 send \$0-amount;
#X obj 308 136 send \$0-gain;
#X obj 11 -97 inlet~;
#X obj 65 -100 inlet;
#X obj 12 158 print;
#X obj 162 162 print;
#X obj 269 167 print;
#X obj 255 -106 loadbang;
#X obj 258 -47 s \$0-loadbang;
#X obj 11 -59 block;
#X connect 1 0 0 0;
#X connect 2 0 5 0;
#X connect 2 0 10 0;
#X connect 3 0 6 0;
#X connect 3 0 11 0;
#X connect 4 0 7 0;
#X connect 4 0 12 0;
#X connect 8 0 15 0;
#X connect 9 0 15 1;
#X connect 13 0 14 0;
#X connect 15 0 0 0;
#X connect 15 1 1 0;
#X restore 413 69 pd lowpass;
#X obj 417 8 unpack 0 0 0 0;
#X obj 15 301 loadbang;
#X msg 75 300 1;
#X obj 419 -38 receive \$1-lowpass;
#X obj 321 252 receive \$1-delay;
#X obj 140 -35 receive \$1-reverb;
#X obj 159 290 receive \$1-volume;
#X obj 137 -2 unpack 0 0 0 0;
#X obj 102 -44 inlet;
#X connect 0 0 3 0;
#X connect 2 0 1 0;
#X connect 3 0 2 0;
#X connect 4 0 5 1;
#X connect 4 1 5 2;
#X connect 4 2 5 3;
#X connect 7 0 6 1;
#X connect 7 1 6 2;
#X connect 7 2 6 3;
#X connect 7 3 6 4;
#X connect 8 0 9 0;
#X connect 9 0 2 1;
#X connect 10 0 7 0;
#X connect 11 0 4 0;
#X connect 12 0 14 0;
#X connect 13 0 2 1;
#X connect 14 0 3 2;
#X connect 14 1 3 3;
#X connect 14 2 3 4;
#X connect 14 3 3 5;
#X connect 15 0 3 1;
