#N canvas 315 263 1101 584 12;
#X obj 529 321 cnv 15 160 15 empty empty Reverb(fx7) 10 8 0 12 -191407
-66577 0;
#X obj 529 345 tgl 15 0 \$1-rev-enable empty enable 17 7 0 10 -262144
-1 -1 0 1;
#X obj 597 345 bng 15 250 50 0 \$1-rev-moveup empty up 17 7 0 10 -262144
-1 -1;
#X obj 644 345 bng 15 250 50 0 \$1-rev-movedown empty down 17 7 0 10
-262144 -1 -1;
#X obj 38 321 cnv 15 160 15 empty empty Delay(fx4) 10 8 0 12 -191407
-66577 0;
#X obj 38 345 tgl 15 0 \$1-del-enable empty enable 17 7 0 10 -262144
-1 -1 0 1;
#X obj 106 345 bng 15 250 50 0 \$1-del-moveup empty up 17 7 0 10 -262144
-1 -1;
#X obj 153 345 bng 15 250 50 0 \$1-del-movedown empty down 17 7 0 10
-262144 -1 -1;
#X obj 201 321 cnv 15 160 15 empty empty Flanger(fx5) 10 8 0 12 -191407
-66577 0;
#X obj 201 345 tgl 15 0 \$1-flg-enable empty enable 17 7 0 10 -262144
-1 -1 0 1;
#X obj 260 345 bng 15 250 50 0 \$1-flg-moveup empty up 17 7 0 10 -262144
-1 -1;
#X obj 307 345 bng 15 250 50 0 \$1-flg-movedown empty down 17 7 0 10
-262144 -1 -1;
#X obj 532 383 hsl 128 15 0 1 0 1 \$1-rev-damp empty damp -2 -8 0 10
-262144 -1 -1 0 1;
#X obj 532 416 hsl 128 15 0 1 0 1 \$1-rev-roomsize empty roomsize -2
-8 0 10 -262144 -1 -1 8300 1;
#X obj 532 480 hsl 128 15 0 1 0 1 \$1-rev-wet empty wet -2 -8 0 10
-262144 -1 -1 12700 1;
#X obj 45 383 hsl 128 15 0 1000 0 0 \$1-del-delay empty delay_(ms)
-2 -8 0 10 -262144 -1 -1 0 1;
#X obj 45 419 hsl 128 15 0 1 0 0 \$1-del-feedback empty feedback -2
-8 0 10 -262144 -1 -1 0 1;
#X obj 45 484 hsl 128 15 0 1 0 0 \$1-del-wet empty wet -2 -8 0 10 -262144
-1 -1 0 1;
#X obj 203 383 hsl 128 15 0 2 0 0 \$1-flg-freq empty freq_(Hz) -2 -8
0 10 -262144 -1 -1 0 1;
#X obj 203 419 hsl 128 15 0 1 0 0 \$1-flg-width empty width -2 -8 0
10 -262144 -1 -1 0 1;
#X obj 203 450 hsl 128 15 0 1 0 0 \$1-flg-feedback empty feedback -2
-8 0 10 -262144 -1 -1 0 1;
#X obj 203 484 hsl 128 15 0 1 0 0 \$1-flg-wet empty wet -2 -8 0 10
-262144 -1 -1 0 1;
#X obj 750 264 r \$1-fxlistctl;
#X obj 532 448 hsl 128 15 0 1 0 1 \$1-rev-spread empty stereo_spread
-2 -8 0 10 -262144 -1 -1 1800 1;
#X obj 45 451 hsl 128 15 0 1 0 0 \$1-del-spread empty spread -2 -8
0 10 -262144 -1 -1 0 1;
#X obj 365 321 cnv 15 160 15 empty empty Chorus(fx6) 10 8 0 12 -191407
-66577 0;
#X obj 365 345 tgl 15 0 \$1-chorus-enable empty enable 17 7 0 10 -262144
-1 -1 0 1;
#X obj 433 345 bng 15 250 50 0 \$1-chorus-moveup empty up 17 7 0 10
-262144 -1 -1;
#X obj 480 345 bng 15 250 50 0 \$1-chorus-movedown empty down 17 7
0 10 -262144 -1 -1;
#X obj 368 383 hsl 128 15 0 1 0 1 \$1-chorus-depth empty depth -2 -8
0 10 -262144 -1 -1 12700 1;
#X obj 368 416 hsl 128 15 0.01 10 0 1 \$1-chorus-speed empty speed_(Hz)
-2 -8 0 10 -262144 -1 -1 6400 1;
#X obj 368 491 hsl 128 15 0 1 0 1 \$1-chorus-wet empty wet -2 -8 0
10 -262144 -1 -1 0 1;
#X obj 368 459 hsl 128 15 0 1 0 1 \$1-chorus-spread empty spread -2
-8 0 10 -262144 -1 -1 0 1;
#X obj 529 92 cnv 15 160 15 empty empty Tremolo(fx3) 10 8 0 12 -191407
-66577 0;
#X obj 529 116 tgl 15 0 \$1-tremolo-enable empty enable 17 7 0 10 -262144
-1 -1 0 1;
#X obj 597 116 bng 15 250 50 0 \$1-tremolo-moveup empty up 17 7 0 10
-262144 -1 -1;
#X obj 644 116 bng 15 250 50 0 \$1-tremolo-movedown empty down 17 7
0 10 -262144 -1 -1;
#X obj 532 154 hsl 128 15 1 20 0 1 \$1-tremolo-rate empty rate_(Hz)
-2 -8 0 10 -262144 -1 -1 12500 1;
#X obj 532 193 hsl 128 15 0.05 1 0 1 \$1-tremolo-smooth empty smooth
-2 -8 0 10 -262144 -1 -1 12700 1;
#X obj 532 241 hsl 128 15 0 1 0 1 \$1-tremolo-depth empty depth -2
-8 0 10 -262144 -1 -1 12400 1;
#X obj 201 92 cnv 15 160 15 empty empty Filter(fx1) 10 8 0 12 -191407
-66577 0;
#X obj 201 116 tgl 15 0 \$1-fxfilter-enable empty enable 17 7 0 10
-262144 -1 -1 0 1;
#X obj 269 116 bng 15 250 50 0 \$1-fxfilter-moveup empty up 17 7 0
10 -262144 -1 -1;
#X obj 316 116 bng 15 250 50 0 \$1-fxfilter-movedown empty down 17
7 0 10 -262144 -1 -1;
#X obj 208 216 hsl 128 15 200 20000 0 0 \$1-fxfilter-freq empty freq_(Hz)
-2 -8 0 10 -262144 -1 -1 0 1;
#X obj 208 265 hsl 128 15 1 30 0 0 \$1-fxfilter-q empty q_(dB?) -2
-8 0 10 -262144 -1 -1 0 1;
#X obj 207 159 hradio 15 1 0 3 \$1-fxfilter-mode empty mode 0 -8 0
10 -262144 -1 -1 1;
#X text 203 179 lp;
#X text 220 179 hp;
#X text 237 179 bp;
#X obj 364 92 cnv 15 160 15 empty empty 3_Band_EQ(fx2) 10 8 0 12 -191407
-66577 0;
#X obj 364 116 tgl 15 0 \$1-3eq-enable empty enable 17 7 0 10 -262144
-1 -1 0 1;
#X obj 432 116 bng 15 250 50 0 \$1-3eq-moveup empty up 17 7 0 10 -262144
-1 -1;
#X obj 479 116 bng 15 250 50 0 \$1-3eq-movedown empty down 17 7 0 10
-262144 -1 -1;
#X obj 367 154 hsl 128 15 -36 36 0 1 \$1-3eq-lowgain empty low_(dB)
-2 -8 0 10 -262144 -1 -1 6400 1;
#X obj 367 187 hsl 128 15 -36 36 0 1 \$1-3eq-midgain empty mid-gain_(dB)
-2 -8 0 10 -262144 -1 -1 9400 1;
#X obj 367 219 hsl 128 15 400 3500 0 1 \$1-3eq-midfreq empty mid-freq_(Hz)
-2 -8 0 10 -262144 -1 -1 3500 1;
#X obj 367 251 hsl 128 15 20 1000 0 1 \$1-3eq-midbw empty mid-bw_(Hz)
-2 -8 0 10 -262144 -1 -1 10800 1;
#X obj 367 283 hsl 128 15 -36 36 0 1 \$1-3eq-highgain empty high_(dB)
-2 -8 0 10 -262144 -1 -1 6400 1;
#X obj 38 92 cnv 15 160 15 empty empty Gainer(fx0) 10 8 0 12 -191407
-66577 0;
#X obj 38 116 tgl 15 0 \$1-gainer-enable empty enable 17 7 0 10 -262144
-1 -1 0 1;
#X obj 106 116 bng 15 250 50 0 \$1-gainer-moveup empty up 17 7 0 10
-262144 -1 -1;
#X obj 153 116 bng 15 250 50 0 \$1-gainer-movedown empty down 17 7
0 10 -262144 -1 -1;
#X obj 45 180 hsl 128 15 -50 12 0 0 \$1-gainer-gain empty gain_(dB)
-2 -8 0 10 -262144 -1 -1 0 1;
#X obj 45 238 hsl 128 15 0 1 0 0 \$1-gainer-pan empty pan -2 -8 0 10
-262144 -1 -1 0 1;
#X floatatom 625 169 5 0 0 0 - - -;
#X floatatom 297 398 5 0 0 0 - - -;
#X floatatom 461 431 5 0 0 0 - - -;
#X floatatom 139 195 5 0 0 0 - - -;
#X floatatom 138 398 5 0 0 0 - - -;
#X floatatom 460 169 5 0 0 0 - - -;
#X floatatom 460 202 5 0 0 0 - - -;
#X floatatom 460 234 5 0 0 0 - - -;
#X floatatom 460 266 5 0 0 0 - - -;
#X floatatom 460 298 5 0 0 0 - - -;
#X obj 285 231 nbx 5 14 -1e+37 1e+37 0 0 empty empty empty 0 -8 0 10
-262144 -1 -1 0 256;
#X obj 284 280 nbx 5 14 -1e+37 1e+37 0 0 empty empty empty 0 -8 0 10
-262144 -1 -1 0 256;
#X floatatom 138 253 5 0 0 0 - - -;
#X floatatom 625 208 5 0 0 0 - - -;
#X floatatom 625 256 5 0 0 0 - - -;
#X floatatom 642 495 5 0 0 0 - - -;
#X msg 750 286 set fx\$1 fx\$2 fx\$3 fx\$4 fx\$5 fx\$6 fx\$7 fx\$8
;
#X obj 750 312 outlet;
#X text 747 238 order of effects;
#X connect 14 0 80 0;
#X connect 15 0 69 0;
#X connect 18 0 66 0;
#X connect 22 0 81 0;
#X connect 30 0 67 0;
#X connect 37 0 65 0;
#X connect 38 0 78 0;
#X connect 39 0 79 0;
#X connect 44 0 75 0;
#X connect 45 0 76 0;
#X connect 54 0 70 0;
#X connect 55 0 71 0;
#X connect 56 0 72 0;
#X connect 57 0 73 0;
#X connect 58 0 74 0;
#X connect 63 0 68 0;
#X connect 64 0 77 0;
#X connect 81 0 82 0;
#X coords 0 -1 1 1 700 470 1 20 60;
