#N canvas 246 333 1146 597 12;
#X obj 206 565 cnv 15 160 15 empty empty Reverb(fx9) 10 8 0 12 #b8b8b8
#404040 0;
#X obj 206 589 tgl 15 0 \$1-rev-enable empty enable 17 7 0 10 #fcfcfc
#000000 #000000 0 1;
#X obj 274 589 bng 15 250 50 0 \$1-rev-moveup empty up 17 7 0 10 #fcfcfc
#000000 #000000;
#X obj 321 589 bng 15 250 50 0 \$1-rev-movedown empty down 17 7 0 10
#fcfcfc #000000 #000000;
#X obj 369 332 cnv 15 160 15 empty empty Delay(fx6) 10 8 0 12 #b8b8b8
#404040 0;
#X obj 369 356 tgl 15 0 \$1-del-enable empty enable 17 7 0 10 #fcfcfc
#000000 #000000 0 1;
#X obj 437 356 bng 15 250 50 0 \$1-del-moveup empty up 17 7 0 10 #fcfcfc
#000000 #000000;
#X obj 484 356 bng 15 250 50 0 \$1-del-movedown empty down 17 7 0 10
#fcfcfc #000000 #000000;
#X obj 532 332 cnv 15 160 15 empty empty Flanger(fx7) 10 8 0 12 #b8b8b8
#404040 0;
#X obj 532 356 tgl 15 0 \$1-flg-enable empty enable 17 7 0 10 #fcfcfc
#000000 #000000 0 1;
#X obj 591 356 bng 15 250 50 0 \$1-flg-moveup empty up 17 7 0 10 #fcfcfc
#000000 #000000;
#X obj 638 356 bng 15 250 50 0 \$1-flg-movedown empty down 17 7 0 10
#fcfcfc #000000 #000000;
#X obj 209 627 hsl 128 15 0 1 0 1 \$1-rev-damp empty damp -2 -8 0 10
#fcfcfc #000000 #000000 11000 1;
#X obj 209 660 hsl 128 15 0 1 0 1 \$1-rev-roomsize empty roomsize -2
-8 0 10 #fcfcfc #000000 #000000 12700 1;
#X obj 209 724 hsl 128 15 0 1 0 1 \$1-rev-wet empty wet -2 -8 0 10
#fcfcfc #000000 #000000 10200 1;
#X obj 376 394 hsl 128 15 0 1000 0 0 \$1-del-delay empty delay_(ms)
-2 -8 0 10 #fcfcfc #000000 #000000 0 1;
#X obj 376 430 hsl 128 15 0 1 0 0 \$1-del-feedback empty feedback -2
-8 0 10 #fcfcfc #000000 #000000 0 1;
#X obj 376 495 hsl 128 15 0 1 0 0 \$1-del-wet empty wet -2 -8 0 10
#fcfcfc #000000 #000000 0 1;
#X obj 534 394 hsl 128 15 0 2 0 0 \$1-flg-freq empty freq_(Hz) -2 -8
0 10 #fcfcfc #000000 #000000 0 1;
#X obj 534 430 hsl 128 15 0 1 0 0 \$1-flg-width empty width -2 -8 0
10 #fcfcfc #000000 #000000 0 1;
#X obj 534 461 hsl 128 15 0 1 0 0 \$1-flg-feedback empty feedback -2
-8 0 10 #fcfcfc #000000 #000000 0 1;
#X obj 534 495 hsl 128 15 0 1 0 0 \$1-flg-wet empty wet -2 -8 0 10
#fcfcfc #000000 #000000 0 1;
#X obj 750 264 r \$1-fxlistctl;
#X obj 209 692 hsl 128 15 0 1 0 1 \$1-rev-spread empty stereo_spread
-2 -8 0 10 #fcfcfc #000000 #000000 12700 1;
#X obj 376 462 hsl 128 15 0 1 0 0 \$1-del-spread empty spread -2 -8
0 10 #fcfcfc #000000 #000000 0 1;
#X obj 43 565 cnv 15 160 15 empty empty Chorus(fx8) 10 8 0 12 #b8b8b8
#404040 0;
#X obj 43 589 tgl 15 0 \$1-chorus-enable empty enable 17 7 0 10 #fcfcfc
#000000 #000000 0 1;
#X obj 111 589 bng 15 250 50 0 \$1-chorus-moveup empty up 17 7 0 10
#fcfcfc #000000 #000000;
#X obj 158 589 bng 15 250 50 0 \$1-chorus-movedown empty down 17 7
0 10 #fcfcfc #000000 #000000;
#X obj 46 627 hsl 128 15 0 1 0 1 \$1-chorus-depth empty depth -2 -8
0 10 #fcfcfc #000000 #000000 12700 1;
#X obj 46 660 hsl 128 15 0.01 10 0 1 \$1-chorus-speed empty speed_(Hz)
-2 -8 0 10 #fcfcfc #000000 #000000 6400 1;
#X obj 46 735 hsl 128 15 0 1 0 1 \$1-chorus-wet empty wet -2 -8 0 10
#fcfcfc #000000 #000000 0 1;
#X obj 46 703 hsl 128 15 0 1 0 1 \$1-chorus-spread empty spread -2
-8 0 10 #fcfcfc #000000 #000000 0 1;
#X obj 206 332 cnv 15 160 15 empty empty Tremolo(fx5) 10 8 0 12 #b8b8b8
#404040 0;
#X obj 206 356 tgl 15 0 \$1-tremolo-enable empty enable 17 7 0 10 #fcfcfc
#000000 #000000 0 1;
#X obj 274 356 bng 15 250 50 0 \$1-tremolo-moveup empty up 17 7 0 10
#fcfcfc #000000 #000000;
#X obj 321 356 bng 15 250 50 0 \$1-tremolo-movedown empty down 17 7
0 10 #fcfcfc #000000 #000000;
#X obj 209 394 hsl 128 15 1 20 0 1 \$1-tremolo-rate empty rate_(Hz)
-2 -8 0 10 #fcfcfc #000000 #000000 12500 1;
#X obj 209 433 hsl 128 15 0.05 1 0 1 \$1-tremolo-smooth empty smooth
-2 -8 0 10 #fcfcfc #000000 #000000 12700 1;
#X obj 209 481 hsl 128 15 0 1 0 1 \$1-tremolo-depth empty depth -2
-8 0 10 #fcfcfc #000000 #000000 12400 1;
#X obj 551 90 cnv 15 160 15 empty empty Filter(fx3) 10 8 0 12 #b8b8b8
#404040 0;
#X obj 551 114 tgl 15 0 \$1-fxfilter-enable empty enable 17 7 0 10
#fcfcfc #000000 #000000 0 1;
#X obj 619 114 bng 15 250 50 0 \$1-fxfilter-moveup empty up 17 7 0
10 #fcfcfc #000000 #000000;
#X obj 666 114 bng 15 250 50 0 \$1-fxfilter-movedown empty down 17
7 0 10 #fcfcfc #000000 #000000;
#X obj 558 214 hsl 128 15 200 20000 0 0 \$1-fxfilter-freq empty freq_(Hz)
-2 -8 0 10 #fcfcfc #000000 #000000 0 1;
#X obj 558 263 hsl 128 15 1 30 0 0 \$1-fxfilter-q empty q_(dB?) -2
-8 0 10 #fcfcfc #000000 #000000 0 1;
#X obj 557 157 hradio 15 1 0 3 \$1-fxfilter-mode empty mode 0 -8 0
10 #fcfcfc #000000 #000000 0;
#X text 553 177 lp;
#X text 570 177 hp;
#X text 587 177 bp;
#X obj 43 332 cnv 15 160 15 empty empty 3_Band_EQ(fx4) 10 8 0 12 #b8b8b8
#404040 0;
#X obj 43 356 tgl 15 0 \$1-3eq-enable empty enable 17 7 0 10 #fcfcfc
#000000 #000000 0 1;
#X obj 111 356 bng 15 250 50 0 \$1-3eq-moveup empty up 17 7 0 10 #fcfcfc
#000000 #000000;
#X obj 158 356 bng 15 250 50 0 \$1-3eq-movedown empty down 17 7 0 10
#fcfcfc #000000 #000000;
#X obj 46 394 hsl 128 15 -36 36 0 1 \$1-3eq-lowgain empty low_(dB)
-2 -8 0 10 #fcfcfc #000000 #000000 6400 1;
#X obj 46 427 hsl 128 15 -36 36 0 1 \$1-3eq-midgain empty mid-gain_(dB)
-2 -8 0 10 #fcfcfc #000000 #000000 9400 1;
#X obj 46 459 hsl 128 15 400 3500 0 1 \$1-3eq-midfreq empty mid-freq_(Hz)
-2 -8 0 10 #fcfcfc #000000 #000000 3500 1;
#X obj 46 491 hsl 128 15 20 1000 0 1 \$1-3eq-midbw empty mid-bw_(Hz)
-2 -8 0 10 #fcfcfc #000000 #000000 10800 1;
#X obj 46 523 hsl 128 15 -36 36 0 1 \$1-3eq-highgain empty high_(dB)
-2 -8 0 10 #fcfcfc #000000 #000000 6400 1;
#X obj 38 90 cnv 15 160 15 empty empty Gainer(fx0) 10 8 0 12 #b8b8b8
#404040 0;
#X obj 38 114 tgl 15 0 \$1-gainer-enable empty enable 17 7 0 10 #fcfcfc
#000000 #000000 0 1;
#X obj 106 114 bng 15 250 50 0 \$1-gainer-moveup empty up 17 7 0 10
#fcfcfc #000000 #000000;
#X obj 153 114 bng 15 250 50 0 \$1-gainer-movedown empty down 17 7
0 10 #fcfcfc #000000 #000000;
#X obj 41 168 hsl 128 15 -50 12 0 0 \$1-gainer-gain empty gain_(dB)
-2 -8 0 10 #fcfcfc #000000 #000000 0 1;
#X obj 41 236 hsl 128 15 0 1 0 0 \$1-gainer-pan empty pan -2 -8 0 10
#fcfcfc #000000 #000000 0 1;
#X floatatom 302 409 5 0 0 0 - - - 0;
#X floatatom 628 409 5 0 0 0 - - - 0;
#X floatatom 139 675 5 0 0 0 - - - 0;
#X floatatom 135 183 5 0 0 0 - - - 0;
#X floatatom 469 409 5 0 0 0 - - - 0;
#X floatatom 139 409 5 0 0 0 - - - 0;
#X floatatom 139 442 5 0 0 0 - - - 0;
#X floatatom 139 474 5 0 0 0 - - - 0;
#X floatatom 139 506 5 0 0 0 - - - 0;
#X floatatom 139 538 5 0 0 0 - - - 0;
#X obj 635 229 nbx 5 14 -1e+37 1e+37 0 0 empty empty empty 0 -8 0 10
#fcfcfc #000000 #000000 0 256;
#X obj 634 278 nbx 5 14 -1e+37 1e+37 0 0 empty empty empty 0 -8 0 10
#fcfcfc #000000 #000000 0 256;
#X floatatom 134 251 5 0 0 0 - - - 0;
#X floatatom 302 496 5 0 0 0 - - - 0;
#X floatatom 319 739 5 0 0 0 - - - 0;
#X obj 750 312 outlet;
#X text 747 238 order of effects;
#X obj 384 90 cnv 15 160 15 empty empty Bitcrusher(fx2) 10 8 0 12 #b8b8b8
#404040 0;
#X obj 384 114 tgl 15 0 \$1-bitcrusher-enable empty enable 17 7 0 10
#fcfcfc #000000 #000000 0 1;
#X obj 452 114 bng 15 250 50 0 \$1-bitcrusher-moveup empty up 17 7
0 10 #fcfcfc #000000 #000000;
#X obj 499 114 bng 15 250 50 0 \$1-bitcrusher-movedown empty down 17
7 0 10 #fcfcfc #000000 #000000;
#X obj 387 154 hsl 128 15 0 1 0 1 \$1-bitcrusher-crush empty crush
-2 -8 0 10 #fcfcfc #000000 #000000 12700 1;
#X obj 387 257 hsl 128 15 0 1 0 1 \$1-bitcrusher-mix empty mix -2 -8
0 10 #fcfcfc #000000 #000000 12700 1;
#X obj 387 186 hsl 128 15 0 1 0 1 \$1-bitcrusher-rate empty rate -2
-8 0 10 #fcfcfc #000000 #000000 0 1;
#X obj 387 220 hsl 128 15 0 3 0 1 \$1-bitcrusher-noise empty noise
-2 -8 0 10 #fcfcfc #000000 #000000 4500 1;
#X obj 206 90 cnv 15 160 15 empty empty Distortion(fx1) 10 8 0 12 #b8b8b8
#404040 0;
#X obj 206 114 tgl 15 0 \$1-distortion-enable empty enable 17 7 0 10
#fcfcfc #000000 #000000 0 1;
#X obj 274 114 bng 15 250 50 0 \$1-distortion-moveup empty up 17 7
0 10 #fcfcfc #000000 #000000;
#X obj 321 114 bng 15 250 50 0 \$1-distortion-movedown empty down 17
7 0 10 #fcfcfc #000000 #000000;
#X obj 209 152 hsl 128 15 1 200 0 1 \$1-distortion-drive empty drive
-2 -8 0 10 #fcfcfc #000000 #000000 12700 1;
#X msg 750 286 set fx\$1 fx\$2 fx\$3 fx\$4 fx\$5 fx\$6 fx\$7 fx\$8
fx\$9 fx\$10;
#X obj 209 188 hsl 128 15 0 1 0 1 \$1-distortion-fuzziness empty fuzziness
-2 -8 0 10 #fcfcfc #000000 #000000 9300 1;
#X obj 209 222 hsl 128 15 200 16000 0 1 \$1-distortion-fuzzfreq empty
fuzzfreq -2 -8 0 10 #fcfcfc #000000 #000000 1700 1;
#X obj 209 288 hsl 128 15 0 1 0 1 \$1-distortion-mix empty mix -2 -8
0 10 #fcfcfc #000000 #000000 12700 1;
#X obj 288 167 nbx 5 14 -1e+37 1e+37 0 0 empty empty empty 0 -8 0 10
#fcfcfc #000000 #000000 0 256;
#X obj 288 203 nbx 5 14 -1e+37 1e+37 0 0 empty empty empty 0 -8 0 10
#fcfcfc #000000 #000000 0 256;
#X obj 288 237 nbx 5 14 -1e+37 1e+37 0 0 empty empty empty 0 -8 0 10
#fcfcfc #000000 #000000 0 256;
#X obj 289 303 nbx 5 14 -1e+37 1e+37 0 0 empty empty empty 0 -8 0 10
#fcfcfc #000000 #000000 0 256;
#X obj 466 169 nbx 5 14 -1e+37 1e+37 0 0 empty empty empty 0 -8 0 10
#fcfcfc #000000 #000000 0 256;
#X obj 466 201 nbx 5 14 -1e+37 1e+37 0 0 empty empty empty 0 -8 0 10
#fcfcfc #000000 #000000 0 256;
#X obj 466 235 nbx 5 14 -1e+37 1e+37 0 0 empty empty empty 0 -8 0 10
#fcfcfc #000000 #000000 0 256;
#X obj 466 272 nbx 5 14 -1e+37 1e+37 0 0 empty empty empty 0 -8 0 10
#fcfcfc #000000 #000000 0 256;
#X obj 209 255 hsl 128 15 -30 0 0 1 \$1-distortion-postgain empty postgain
-2 -8 0 10 #fcfcfc #000000 #000000 12700 1;
#X obj 289 270 nbx 5 14 -1e+37 1e+37 0 0 empty empty empty 0 -8 0 10
#fcfcfc #000000 #000000 0 256;
#X connect 14 0 79 0;
#X connect 15 0 69 0;
#X connect 18 0 66 0;
#X connect 22 0 95 0;
#X connect 30 0 67 0;
#X connect 37 0 65 0;
#X connect 39 0 78 0;
#X connect 44 0 75 0;
#X connect 45 0 76 0;
#X connect 54 0 70 0;
#X connect 55 0 71 0;
#X connect 56 0 72 0;
#X connect 57 0 73 0;
#X connect 58 0 74 0;
#X connect 63 0 68 0;
#X connect 64 0 77 0;
#X connect 86 0 103 0;
#X connect 87 0 106 0;
#X connect 88 0 104 0;
#X connect 89 0 105 0;
#X connect 94 0 99 0;
#X connect 95 0 80 0;
#X connect 96 0 100 0;
#X connect 97 0 101 0;
#X connect 98 0 102 0;
#X connect 107 0 108 0;
#X coords 0 -1 1 1 700 700 1 20 60;
