#N canvas 306 213 1117 597 12;
#X obj 38 530 cnv 15 160 15 empty empty Reverb(fx8) 10 8 0 12 -191407
-66577 0;
#X obj 38 554 tgl 15 0 \$1-rev-enable empty enable 17 7 0 10 -262144
-1 -1 1 1;
#X obj 106 554 bng 15 250 50 0 \$1-rev-moveup empty up 17 7 0 10 -262144
-1 -1;
#X obj 153 554 bng 15 250 50 0 \$1-rev-movedown empty down 17 7 0 10
-262144 -1 -1;
#X obj 202 332 cnv 15 160 15 empty empty Delay(fx5) 10 8 0 12 -191407
-66577 0;
#X obj 202 356 tgl 15 0 \$1-del-enable empty enable 17 7 0 10 -262144
-1 -1 0 1;
#X obj 270 356 bng 15 250 50 0 \$1-del-moveup empty up 17 7 0 10 -262144
-1 -1;
#X obj 317 356 bng 15 250 50 0 \$1-del-movedown empty down 17 7 0 10
-262144 -1 -1;
#X obj 365 332 cnv 15 160 15 empty empty Flanger(fx6) 10 8 0 12 -191407
-66577 0;
#X obj 365 356 tgl 15 0 \$1-flg-enable empty enable 17 7 0 10 -262144
-1 -1 1 1;
#X obj 424 356 bng 15 250 50 0 \$1-flg-moveup empty up 17 7 0 10 -262144
-1 -1;
#X obj 471 356 bng 15 250 50 0 \$1-flg-movedown empty down 17 7 0 10
-262144 -1 -1;
#X obj 41 592 hsl 128 15 0 1 0 1 \$1-rev-damp empty damp -2 -8 0 10
-262144 -1 -1 7600 1;
#X obj 41 625 hsl 128 15 0 1 0 1 \$1-rev-roomsize empty roomsize -2
-8 0 10 -262144 -1 -1 10000 1;
#X obj 41 689 hsl 128 15 0 1 0 1 \$1-rev-wet empty wet -2 -8 0 10 -262144
-1 -1 10200 1;
#X obj 209 394 hsl 128 15 0 1000 0 0 \$1-del-delay empty delay_(ms)
-2 -8 0 10 -262144 -1 -1 0 1;
#X obj 209 430 hsl 128 15 0 1 0 0 \$1-del-feedback empty feedback -2
-8 0 10 -262144 -1 -1 0 1;
#X obj 209 495 hsl 128 15 0 1 0 0 \$1-del-wet empty wet -2 -8 0 10
-262144 -1 -1 0 1;
#X obj 367 394 hsl 128 15 0 2 0 0 \$1-flg-freq empty freq_(Hz) -2 -8
0 10 -262144 -1 -1 2000 1;
#X obj 367 430 hsl 128 15 0 1 0 0 \$1-flg-width empty width -2 -8 0
10 -262144 -1 -1 12700 1;
#X obj 367 461 hsl 128 15 0 1 0 0 \$1-flg-feedback empty feedback -2
-8 0 10 -262144 -1 -1 12700 1;
#X obj 367 495 hsl 128 15 0 1 0 0 \$1-flg-wet empty wet -2 -8 0 10
-262144 -1 -1 10100 1;
#X obj 750 264 r \$1-fxlistctl;
#X obj 41 657 hsl 128 15 0 1 0 1 \$1-rev-spread empty stereo_spread
-2 -8 0 10 -262144 -1 -1 12700 1;
#X obj 209 462 hsl 128 15 0 1 0 0 \$1-del-spread empty spread -2 -8
0 10 -262144 -1 -1 0 1;
#X obj 529 332 cnv 15 160 15 empty empty Chorus(fx7) 10 8 0 12 -191407
-66577 0;
#X obj 529 356 tgl 15 0 \$1-chorus-enable empty enable 17 7 0 10 -262144
-1 -1 0 1;
#X obj 597 356 bng 15 250 50 0 \$1-chorus-moveup empty up 17 7 0 10
-262144 -1 -1;
#X obj 644 356 bng 15 250 50 0 \$1-chorus-movedown empty down 17 7
0 10 -262144 -1 -1;
#X obj 532 394 hsl 128 15 0 1 0 1 \$1-chorus-depth empty depth -2 -8
0 10 -262144 -1 -1 12700 1;
#X obj 532 427 hsl 128 15 0.01 10 0 1 \$1-chorus-speed empty speed_(Hz)
-2 -8 0 10 -262144 -1 -1 6400 1;
#X obj 532 502 hsl 128 15 0 1 0 1 \$1-chorus-wet empty wet -2 -8 0
10 -262144 -1 -1 0 1;
#X obj 532 470 hsl 128 15 0 1 0 1 \$1-chorus-spread empty spread -2
-8 0 10 -262144 -1 -1 0 1;
#X obj 39 332 cnv 15 160 15 empty empty Tremolo(fx4) 10 8 0 12 -191407
-66577 0;
#X obj 39 356 tgl 15 0 \$1-tremolo-enable empty enable 17 7 0 10 -262144
-1 -1 0 1;
#X obj 107 356 bng 15 250 50 0 \$1-tremolo-moveup empty up 17 7 0 10
-262144 -1 -1;
#X obj 154 356 bng 15 250 50 0 \$1-tremolo-movedown empty down 17 7
0 10 -262144 -1 -1;
#X obj 42 394 hsl 128 15 1 20 0 1 \$1-tremolo-rate empty rate_(Hz)
-2 -8 0 10 -262144 -1 -1 12500 1;
#X obj 42 433 hsl 128 15 0.05 1 0 1 \$1-tremolo-smooth empty smooth
-2 -8 0 10 -262144 -1 -1 12700 1;
#X obj 42 481 hsl 128 15 0 1 0 1 \$1-tremolo-depth empty depth -2 -8
0 10 -262144 -1 -1 12400 1;
#X obj 371 92 cnv 15 160 15 empty empty Filter(fx2) 10 8 0 12 -191407
-66577 0;
#X obj 371 116 tgl 15 0 \$1-fxfilter-enable empty enable 17 7 0 10
-262144 -1 -1 1 1;
#X obj 439 116 bng 15 250 50 0 \$1-fxfilter-moveup empty up 17 7 0
10 -262144 -1 -1;
#X obj 486 116 bng 15 250 50 0 \$1-fxfilter-movedown empty down 17
7 0 10 -262144 -1 -1;
#X obj 378 216 hsl 128 15 200 20000 0 0 \$1-fxfilter-freq empty freq_(Hz)
-2 -8 0 10 -262144 -1 -1 3700 1;
#X obj 378 265 hsl 128 15 1 30 0 0 \$1-fxfilter-q empty q_(dB?) -2
-8 0 10 -262144 -1 -1 400 1;
#X obj 377 159 hradio 15 1 0 3 \$1-fxfilter-mode empty mode 0 -8 0
10 -262144 -1 -1 0;
#X text 373 179 lp;
#X text 390 179 hp;
#X text 407 179 bp;
#X obj 534 92 cnv 15 160 15 empty empty 3_Band_EQ(fx3) 10 8 0 12 -191407
-66577 0;
#X obj 534 116 tgl 15 0 \$1-3eq-enable empty enable 17 7 0 10 -262144
-1 -1 0 1;
#X obj 602 116 bng 15 250 50 0 \$1-3eq-moveup empty up 17 7 0 10 -262144
-1 -1;
#X obj 649 116 bng 15 250 50 0 \$1-3eq-movedown empty down 17 7 0 10
-262144 -1 -1;
#X obj 537 154 hsl 128 15 -36 36 0 1 \$1-3eq-lowgain empty low_(dB)
-2 -8 0 10 -262144 -1 -1 6400 1;
#X obj 537 187 hsl 128 15 -36 36 0 1 \$1-3eq-midgain empty mid-gain_(dB)
-2 -8 0 10 -262144 -1 -1 9400 1;
#X obj 537 219 hsl 128 15 400 3500 0 1 \$1-3eq-midfreq empty mid-freq_(Hz)
-2 -8 0 10 -262144 -1 -1 3500 1;
#X obj 537 251 hsl 128 15 20 1000 0 1 \$1-3eq-midbw empty mid-bw_(Hz)
-2 -8 0 10 -262144 -1 -1 10800 1;
#X obj 537 283 hsl 128 15 -36 36 0 1 \$1-3eq-highgain empty high_(dB)
-2 -8 0 10 -262144 -1 -1 6400 1;
#X obj 38 92 cnv 15 160 15 empty empty Gainer(fx0) 10 8 0 12 -191407
-66577 0;
#X obj 38 116 tgl 15 0 \$1-gainer-enable empty enable 17 7 0 10 -262144
-1 -1 1 1;
#X obj 106 116 bng 15 250 50 0 \$1-gainer-moveup empty up 17 7 0 10
-262144 -1 -1;
#X obj 153 116 bng 15 250 50 0 \$1-gainer-movedown empty down 17 7
0 10 -262144 -1 -1;
#X obj 45 180 hsl 128 15 -50 12 0 0 \$1-gainer-gain empty gain_(dB)
-2 -8 0 10 -262144 -1 -1 9300 1;
#X obj 45 238 hsl 128 15 0 1 0 0 \$1-gainer-pan empty pan -2 -8 0 10
-262144 -1 -1 0 1;
#X floatatom 135 409 5 0 0 0 - - -;
#X floatatom 461 409 5 0 0 0 - - -;
#X floatatom 625 442 5 0 0 0 - - -;
#X floatatom 139 195 5 0 0 0 - - -;
#X floatatom 302 409 5 0 0 0 - - -;
#X floatatom 630 169 5 0 0 0 - - -;
#X floatatom 630 202 5 0 0 0 - - -;
#X floatatom 630 234 5 0 0 0 - - -;
#X floatatom 630 266 5 0 0 0 - - -;
#X floatatom 630 298 5 0 0 0 - - -;
#X obj 455 231 nbx 5 14 -1e+37 1e+37 0 0 empty empty empty 0 -8 0 10
-262144 -1 -1 5968.5 256;
#X obj 454 280 nbx 5 14 -1e+37 1e+37 0 0 empty empty empty 0 -8 0 10
-262144 -1 -1 1.91339 256;
#X floatatom 138 253 5 0 0 0 - - -;
#X floatatom 135 496 5 0 0 0 - - -;
#X floatatom 151 704 5 0 0 0 - - -;
#X obj 750 312 outlet;
#X text 747 238 order of effects;
#X msg 750 286 set fx\$1 fx\$2 fx\$3 fx\$4 fx\$5 fx\$6 fx\$7 fx\$8
fx\$9;
#X obj 204 92 cnv 15 160 15 empty empty Bitcrusher(fx2) 10 8 0 12 -191407
-66577 0;
#X obj 204 116 tgl 15 0 \$1-bitcrusher-enable empty enable 17 7 0 10
-262144 -1 -1 1 1;
#X obj 272 116 bng 15 250 50 0 \$1-bitcrusher-moveup empty up 17 7
0 10 -262144 -1 -1;
#X obj 319 116 bng 15 250 50 0 \$1-bitcrusher-movedown empty down 17
7 0 10 -262144 -1 -1;
#X obj 207 154 hsl 128 15 1 8 0 1 \$1-bitcrusher-drive empty drive
-2 -8 0 10 -262144 -1 -1 0 1;
#X obj 207 187 hsl 128 15 0 1 0 1 \$1-bitcrusher-crush empty crush
-2 -8 0 10 -262144 -1 -1 12700 1;
#X obj 207 290 hsl 128 15 0 1 0 1 \$1-bitcrusher-wet empty wet_(skal_denne_heite_mix?)
-2 -8 0 10 -262144 -1 -1 12700 1;
#X obj 207 219 hsl 128 15 0 1 0 1 \$1-bitcrusher-rate empty rate -2
-8 0 10 -262144 -1 -1 0 1;
#X obj 207 253 hsl 128 15 0 1 0 1 \$1-bitcrusher-noise empty noise
-2 -8 0 10 -262144 -1 -1 12700 1;
#X connect 14 0 79 0;
#X connect 15 0 69 0;
#X connect 18 0 66 0;
#X connect 22 0 82 0;
#X connect 30 0 67 0;
#X connect 37 0 65 0;
#X connect 39 0 78 0;
#X connect 44 0 75 0;
#X connect 45 0 76 0;
#X connect 54 0 70 0;
#X connect 55 0 71 0;
#X connect 56 0 72 0;
#X connect 57 0 73 0;
#X connect 58 0 74 0;
#X connect 63 0 68 0;
#X connect 64 0 77 0;
#X connect 82 0 80 0;
#X coords 0 -1 1 1 700 670 1 20 60;
