#N canvas 1687 138 856 651 10;
#X obj 136 14 table \$1-fxparams;
#X obj 8 109 r \$1-rev-damp;
#X obj 8 66 r \$1-rev-enable;
#X obj 9 154 r \$1-rev-roomsize;
#X obj 10 245 r \$1-rev-wet;
#X obj 217 67 r \$1-del-enable;
#X obj 217 118 r \$1-del-delay;
#X obj 217 164 r \$1-del-feedback;
#X obj 217 212 r \$1-del-wet;
#X obj 437 66 r \$1-flg-enable;
#X obj 9 201 r \$1-rev-spread;
#X obj 217 257 r \$1-del-spread;
#X obj 645 63 r \$1-chorus-enable;
#X obj 645 111 r \$1-chorus-depth;
#X obj 644 158 r \$1-chorus-speed;
#X obj 644 204 r \$1-chorus-spread;
#X obj 435 111 r \$1-flg-freq;
#X obj 435 157 r \$1-flg-width;
#X obj 434 202 r \$1-flg-feedback;
#X obj 433 247 r \$1-flg-wet;
#X obj 11 349 r \$1-fxfilter-enable;
#X obj 10 400 r \$1-fxfilter-mode;
#X obj 11 450 r \$1-fxfilter-freq;
#X obj 12 500 r \$1-fxfilter-q;
#X obj 230 352 r \$1-3eq-enable;
#X obj 229 403 r \$1-3eq-lowgain;
#X obj 228 450 r \$1-3eq-midgain;
#X obj 228 498 r \$1-3eq-midfreq;
#X obj 228 542 r \$1-3eq-midbw;
#X obj 228 588 r \$1-3eq-highgain;
#X obj 441 352 r \$1-tremolo-enable;
#X obj 441 403 r \$1-tremolo-rate;
#X obj 441 452 r \$1-tremolo-smooth;
#X obj 443 502 r \$1-tremolo-depth;
#X obj 643 248 r \$1-chorus-wet;
#X text 18 328 -------------------------------------------------------------------------------------------
, f 92;
#X obj 8 88 paramwriter \$1-fxparams 0;
#X obj 8 131 paramwriter \$1-fxparams 1;
#X obj 9 176 paramwriter \$1-fxparams 2;
#X obj 9 223 paramwriter \$1-fxparams 3;
#X obj 10 267 paramwriter \$1-fxparams 4;
#X obj 217 89 paramwriter \$1-fxparams 5;
#X obj 217 140 paramwriter \$1-fxparams 6;
#X obj 217 186 paramwriter \$1-fxparams 7;
#X obj 217 234 paramwriter \$1-fxparams 8;
#X obj 217 279 paramwriter \$1-fxparams 9;
#X obj 437 87 paramwriter \$1-fxparams 10;
#X obj 435 132 paramwriter \$1-fxparams 11;
#X obj 435 177 paramwriter \$1-fxparams 12;
#X obj 434 222 paramwriter \$1-fxparams 13;
#X obj 433 267 paramwriter \$1-fxparams 14;
#X obj 645 85 paramwriter \$1-fxparams 15;
#X obj 645 134 paramwriter \$1-fxparams 16;
#X obj 644 180 paramwriter \$1-fxparams 17;
#X obj 644 226 paramwriter \$1-fxparams 18;
#X obj 643 270 paramwriter \$1-fxparams 19;
#X obj 11 374 paramwriter \$1-fxparams 20;
#X obj 10 426 paramwriter \$1-fxparams 21;
#X obj 11 475 paramwriter \$1-fxparams 22;
#X obj 12 525 paramwriter \$1-fxparams 23;
#X obj 230 375 paramwriter \$1-fxparams 24;
#X obj 229 427 paramwriter \$1-fxparams 25;
#X obj 228 473 paramwriter \$1-fxparams 26;
#X obj 228 521 paramwriter \$1-fxparams 27;
#X obj 228 565 paramwriter \$1-fxparams 28;
#X obj 228 611 paramwriter \$1-fxparams 29;
#X obj 441 377 paramwriter \$1-fxparams 30;
#X obj 441 429 paramwriter \$1-fxparams 31;
#X obj 441 477 paramwriter \$1-fxparams 32;
#X obj 443 527 paramwriter \$1-fxparams 33;
#X obj 642 352 r \$1-gainer-enable;
#X obj 642 377 paramwriter \$1-fxparams 34;
#X obj 642 403 r \$1-gainer-gain;
#X obj 642 429 paramwriter \$1-fxparams 35;
#X obj 642 452 r \$1-gainer-pan;
#X obj 642 477 paramwriter \$1-fxparams 36;
#X connect 1 0 37 0;
#X connect 2 0 36 0;
#X connect 3 0 38 0;
#X connect 4 0 40 0;
#X connect 5 0 41 0;
#X connect 6 0 42 0;
#X connect 7 0 43 0;
#X connect 8 0 44 0;
#X connect 9 0 46 0;
#X connect 10 0 39 0;
#X connect 11 0 45 0;
#X connect 12 0 51 0;
#X connect 13 0 52 0;
#X connect 14 0 53 0;
#X connect 15 0 54 0;
#X connect 16 0 47 0;
#X connect 17 0 48 0;
#X connect 18 0 49 0;
#X connect 19 0 50 0;
#X connect 20 0 56 0;
#X connect 21 0 57 0;
#X connect 22 0 58 0;
#X connect 23 0 59 0;
#X connect 24 0 60 0;
#X connect 25 0 61 0;
#X connect 26 0 62 0;
#X connect 27 0 63 0;
#X connect 28 0 64 0;
#X connect 29 0 65 0;
#X connect 30 0 66 0;
#X connect 31 0 67 0;
#X connect 32 0 68 0;
#X connect 33 0 69 0;
#X connect 34 0 55 0;
#X connect 70 0 71 0;
#X connect 72 0 73 0;
#X connect 74 0 75 0;
