#N canvas 1807 343 662 619 10;
#X obj 311 214 +~ 1;
#X obj 54 398 +~;
#X obj 311 278 +~ 1;
#X obj 311 243 *~ 1;
#X obj 311 186 osc~ 0.1;
#X text 355 199 delay magnitude(ms);
#X text 352 236 delay offset(ms);
#X text 445 362 feedback amount;
#X obj 48 54 inlet~;
#X obj 398 362 *~ 0.5;
#X obj 107 53 inlet;
#X obj 164 53 inlet;
#X obj 107 77 s \$0-osc;
#X obj 311 153 r \$0-osc;
#X obj 164 77 s \$0-off;
#X obj 358 255 r \$0-off;
#X obj 221 53 inlet;
#X obj 221 77 s \$0-del;
#X obj 357 215 r \$0-del;
#X obj 279 52 inlet;
#X obj 279 77 s \$0-feed;
#X obj 431 272 r \$0-feed;
#X obj 156 383 delwrite~ \$0-line 1000;
#X obj 311 307 vd~ \$0-line;
#X obj 54 427 outlet~;
#X text 114 418 In addition to the sliders \, the inlets allow the
user to fully control the internals of the patch with no range-limits
;
#X obj 431 328 expr if($f1 > 1 \, 0.99 \, $f1);
#X obj 431 305 expr if($f1 < -1 \, -0.99 \, $f1);
#X text 59 19 From AndrewLngdn/basic-pure-data-audio-effects;
#X obj 361 52 inlet;
#X obj 361 77 switch~;
#X connect 0 0 3 0;
#X connect 1 0 24 0;
#X connect 2 0 23 0;
#X connect 3 0 2 0;
#X connect 4 0 0 0;
#X connect 8 0 1 0;
#X connect 8 0 22 0;
#X connect 9 0 22 0;
#X connect 10 0 12 0;
#X connect 11 0 14 0;
#X connect 13 0 4 0;
#X connect 15 0 2 1;
#X connect 16 0 17 0;
#X connect 18 0 3 1;
#X connect 19 0 20 0;
#X connect 21 0 27 0;
#X connect 23 0 1 1;
#X connect 23 0 9 0;
#X connect 26 0 9 1;
#X connect 27 0 26 0;
#X connect 29 0 30 0;
#X coords 0 619 1 618 200 70 0;
