#N canvas 310 644 497 131 10;
#X obj 21 26 inlet~;
#X obj 21 87 outlet~;
#X obj 121 26 inlet;
#X obj 200 26 inlet;
#X obj 302 27 inlet;
#X text 124 6 delay;
#X text 197 5 feedback;
#N canvas 520 371 327 389 workings 1;
#X obj 73 36 inlet~ signal;
#X obj 72 364 outlet~;
#X obj 121 77 r \$0-delay;
#X obj 121 240 *~;
#X obj 151 202 r \$0-feedback;
#X obj 151 223 * 0.95;
#X obj 89 335 *~ 1;
#X obj 120 182 vd~ \$0-fbbb 100;
#X msg 121 131 \$1 20;
#X obj 121 155 line~;
#X obj 110 307 r \$0-wet;
#X obj 121 105 * 500;
#X obj 115 266 delwrite~ \$0-fbbb 500;
#X text 16 9 From hardoff's excellent DIY2 library;
#X connect 0 0 1 0;
#X connect 0 0 12 0;
#X connect 2 0 11 0;
#X connect 3 0 12 0;
#X connect 4 0 5 0;
#X connect 5 0 3 1;
#X connect 6 0 1 0;
#X connect 7 0 3 0;
#X connect 7 0 6 0;
#X connect 8 0 9 0;
#X connect 9 0 7 0;
#X connect 10 0 6 1;
#X connect 11 0 8 0;
#X restore 20 57 pd workings;
#X obj 121 58 s \$0-delay;
#X obj 200 58 s \$0-feedback;
#X obj 302 58 s \$0-wet;
#X text 301 5 wet;
#X obj 375 58 switch~;
#X obj 375 28 inlet;
#X connect 0 0 7 0;
#X connect 2 0 8 0;
#X connect 3 0 9 0;
#X connect 4 0 10 0;
#X connect 7 0 1 0;
#X connect 13 0 12 0;
