#N canvas 400 608 356 484 10;
#X obj 19 405 outlet;
#X obj 47 -23 inlet list;
#X obj 228 17 inlet enabled;
#X obj 23 94 list-find;
#X obj 19 215 list-delete;
#X obj 19 367 list-insert;
#X obj 47 34 f;
#X obj 47 9 t b l;
#X obj 90 190 list;
#X obj 23 164 t b f;
#X obj 129 17 inlet value;
#X obj 252 113 *;
#X obj 228 40 moses 1;
#X obj 19 300 f;
#X obj 50 342 f;
#X obj 19 242 t b b l;
#X msg 228 62 -1;
#X obj 74 64 list-abs;
#X obj 23 117 t f f;
#X obj 252 139 s \$0-multiplyby;
#X obj 34 273 r \$0-multiplyby;
#X obj 50 141 s \$0-index;
#X obj 65 301 r \$0-index;
#X connect 1 0 7 0;
#X connect 2 0 12 0;
#X connect 3 0 18 0;
#X connect 4 0 15 0;
#X connect 5 0 0 0;
#X connect 6 0 3 0;
#X connect 7 0 6 0;
#X connect 7 1 8 1;
#X connect 7 1 17 0;
#X connect 8 0 4 0;
#X connect 9 0 8 0;
#X connect 9 1 4 1;
#X connect 10 0 11 0;
#X connect 10 0 6 1;
#X connect 11 0 19 0;
#X connect 12 0 16 0;
#X connect 12 1 11 1;
#X connect 13 0 5 0;
#X connect 14 0 5 1;
#X connect 15 0 13 0;
#X connect 15 1 14 0;
#X connect 15 2 5 2;
#X connect 16 0 11 1;
#X connect 17 0 3 1;
#X connect 18 0 9 0;
#X connect 18 1 21 0;
#X connect 20 0 13 1;
#X connect 22 0 14 1;
