#N canvas 1042 676 331 423 10;
#X obj -6 29 inlet list;
#X obj 73 29 inlet value;
#X obj -6 124 list-find;
#X obj -6 88 f;
#X obj 45 94 list-abs;
#X obj -18 321 list-swap;
#X obj 13 233 - 1;
#X obj -18 194 list;
#X obj -6 148 t b f f;
#X obj -55 284 spigot;
#X obj -22 257 >= 0;
#N canvas 523 655 376 312 sel 0;
#X obj 48 88 inlet;
#X obj 158 220 outlet;
#X obj 48 222 outlet;
#X obj 169 69 inlet enabled;
#X obj 158 160 spigot;
#X obj 48 163 spigot;
#X text 21 5 if disabled (0) \, pass through left inlet;
#X text 20 23 if enabled (1) \, pass through right inlet;
#X obj 81 261 loadbang;
#X msg 78 283 1;
#X obj 126 106 moses 1;
#X msg 90 135 1;
#X msg 126 157 0;
#X msg 199 134 0;
#X connect 0 0 5 0;
#X connect 0 0 4 0;
#X connect 3 0 10 0;
#X connect 4 0 1 0;
#X connect 5 0 2 0;
#X connect 8 0 9 0;
#X connect 9 0 5 1;
#X connect 10 0 11 0;
#X connect 10 0 13 0;
#X connect 10 1 4 1;
#X connect 10 1 12 0;
#X connect 11 0 5 1;
#X connect 12 0 5 1;
#X connect 13 0 4 1;
#X restore 13 207 pd sel;
#X obj 174 29 inlet movedown;
#X obj 46 233 + 1;
#X obj -18 376 outlet;
#X obj 3 172 r \$0-tmplist;
#X obj -6 55 t b l l;
#X obj 45 72 s \$0-tmplist;
#X connect 0 0 16 0;
#X connect 1 0 3 1;
#X connect 2 0 8 0;
#X connect 3 0 2 0;
#X connect 4 0 2 1;
#X connect 5 0 14 0;
#X connect 6 0 10 0;
#X connect 6 0 5 1;
#X connect 7 0 9 0;
#X connect 8 0 7 0;
#X connect 8 1 11 0;
#X connect 8 2 5 2;
#X connect 9 0 5 0;
#X connect 10 0 9 1;
#X connect 11 0 6 0;
#X connect 11 1 13 0;
#X connect 12 0 11 1;
#X connect 13 0 5 1;
#X connect 13 0 10 0;
#X connect 15 0 7 1;
#X connect 16 0 3 0;
#X connect 16 1 4 0;
#X connect 16 2 17 0;
