#N canvas 853 372 579 297 10;
#X obj 22 182 \$1;
#X obj 51 182 \$2;
#X obj 34 11 inlet;
#X obj 34 258 outlet;
#X text 166 175 formula from https://www.reddit.com/r/programming/comments/9n2y0/stop_making_linear_volume_controls/c0dgsjj/
, f 45;
#X obj 34 70 \$1;
#X obj 67 70 \$2;
#X obj 34 96 pack f f f;
#X obj 34 38 t b b f;
#X obj 34 123 expr ($f3+abs($f1))/(abs($f1)+abs($f2));
#X obj 34 205 pack f f f f;
#X obj 34 149 t b b f b;
#X obj 103 183 \$3;
#X obj 34 234 expr if($f3==0 && $f4 == 0 \, 0 \, exp((($f1)+($f2-($f1))*$f3)/20*log(10)))
, f 73;
#X text 252 31 1: min db;
#X text 252 45 2: max db;
#X text 252 60 3: cut to zero at min db (optional);
#X text 252 17 parameters:;
#X connect 0 0 10 0;
#X connect 1 0 10 1;
#X connect 2 0 8 0;
#X connect 5 0 7 0;
#X connect 6 0 7 1;
#X connect 7 0 9 0;
#X connect 8 0 5 0;
#X connect 8 1 6 0;
#X connect 8 2 7 2;
#X connect 9 0 11 0;
#X connect 10 0 13 0;
#X connect 11 0 0 0;
#X connect 11 1 1 0;
#X connect 11 2 10 2;
#X connect 11 3 12 0;
#X connect 12 0 10 3;
#X connect 13 0 3 0;
