#N canvas 720 525 366 183 10;
#X obj 13 66 \$1;
#X obj 46 66 \$2;
#X obj 13 101 pack f f f;
#X obj 34 39 t b b f;
#X obj 34 11 inlet;
#X obj 13 151 outlet;
#X obj 13 127 expr exp((($f1)+($f2-($f1))*$f3)/20*log(10));
#X connect 0 0 2 0;
#X connect 1 0 2 1;
#X connect 2 0 6 0;
#X connect 3 0 0 0;
#X connect 3 1 1 0;
#X connect 3 2 2 2;
#X connect 4 0 3 0;
#X connect 6 0 5 0;
