#N canvas 1600 147 888 556 10;
#X obj 294 528 dac~;
#N canvas 0 50 450 300 (subpatch) 0;
#X array outputmonitor 100 float 0;
#X coords 0 -1 100 1 200 100 1;
#X restore 663 293 graph;
#X obj 572 478 tabwrite~ outputmonitor;
#X obj 572 430 tgl 15 0 empty empty empty 17 7 0 10 -262144 -1 -1 0
1;
#X obj 572 454 metro 50;
#N canvas 420 349 460 322 ticks 0;
#X obj 207 124 tgl 15 0 empty empty empty 17 7 0 10 -262144 -1 -1 0
1;
#X obj 194 87 receive timerstart;
#X obj 21 11 receive timerstop;
#X msg 188 64 stop;
#N canvas 874 317 453 254 tickcounter 0;
#X obj 21 10 inlet;
#X obj 80 96 + 1;
#X obj 21 97 float;
#X obj 53 75 0;
#X obj 53 29 r \$0-reset;
#X obj 374 184 s \$0-reset;
#X obj 62 51 r timerstop;
#X obj 21 190 sel 1;
#X obj 374 133 == 3;
#X obj 374 157 sel 1;
#X obj 21 164 == 0;
#X obj 21 215 outlet tick0;
#X obj 107 190 sel 1;
#X obj 107 164 == 1;
#X obj 191 164 == 2;
#X obj 286 164 == 3;
#X obj 107 215 outlet tick1;
#X obj 191 215 outlet tick2;
#X obj 286 215 outlet tick3;
#X obj 191 190 sel 1;
#X obj 286 190 sel 1;
#X connect 0 0 2 0;
#X connect 1 0 2 1;
#X connect 2 0 1 0;
#X connect 2 0 8 0;
#X connect 2 0 10 0;
#X connect 2 0 13 0;
#X connect 2 0 14 0;
#X connect 2 0 15 0;
#X connect 3 0 2 1;
#X connect 4 0 3 0;
#X connect 6 0 3 0;
#X connect 7 0 11 0;
#X connect 8 0 9 0;
#X connect 9 0 5 0;
#X connect 10 0 7 0;
#X connect 12 0 16 0;
#X connect 13 0 12 0;
#X connect 14 0 19 0;
#X connect 15 0 20 0;
#X connect 19 0 17 0;
#X connect 20 0 18 0;
#X restore 188 187 pd tickcounter;
#X obj 21 113 s stopallnotes;
#X obj 231 110 receive semitickperiod;
#X msg 231 135 tempo \$1 samp;
#X obj 188 163 metro;
#X obj 188 238 send android-tick;
#X obj 188 211 0;
#X obj 21 46 t b b;
#X connect 0 0 8 0;
#X connect 1 0 8 0;
#X connect 2 0 11 0;
#X connect 3 0 8 0;
#X connect 4 0 10 0;
#X connect 6 0 7 0;
#X connect 7 0 8 0;
#X connect 8 0 4 0;
#X connect 10 0 9 0;
#X connect 11 0 5 0;
#X connect 11 1 3 0;
#X restore 10 181 pd ticks;
#N canvas 77 409 645 379 sampleplayers 0;
#N canvas 65 546 450 300 subpatchsampler1 0;
#X restore 9 52 pd subpatchsampler1;
#N canvas 65 209 450 300 subpatchsampler2 0;
#X restore 9 73 pd subpatchsampler2;
#N canvas 65 205 450 300 subpatchsampler3 0;
#X restore 9 94 pd subpatchsampler3;
#N canvas 65 205 450 300 subpatchsampler4 0;
#X restore 9 115 pd subpatchsampler4;
#N canvas 65 205 450 300 subpatchsampler5 0;
#X restore 9 137 pd subpatchsampler5;
#N canvas 65 205 450 300 subpatchsampler6 0;
#X restore 9 158 pd subpatchsampler6;
#N canvas 65 205 450 300 subpatchsampler7 0;
#X restore 9 179 pd subpatchsampler7;
#N canvas 65 205 450 300 subpatchsampler8 0;
#X restore 9 200 pd subpatchsampler8;
#N canvas 65 205 450 300 subpatchsampler9 0;
#X restore 9 221 pd subpatchsampler9;
#N canvas 65 205 450 300 subpatchsampler10 0;
#X restore 9 242 pd subpatchsampler10;
#N canvas 65 205 450 300 subpatchsampler12 0;
#X restore 9 284 pd subpatchsampler12;
#N canvas 65 205 450 300 subpatchsampler13 0;
#X restore 9 306 pd subpatchsampler13;
#N canvas 65 205 450 300 subpatchsampler14 0;
#X restore 9 327 pd subpatchsampler14;
#N canvas 65 205 450 300 subpatchsampler15 0;
#X restore 9 348 pd subpatchsampler15;
#N canvas 65 205 450 300 subpatchsampler16 0;
#X restore 161 31 pd subpatchsampler16;
#N canvas 65 205 450 300 subpatchsampler11 0;
#X restore 9 263 pd subpatchsampler11;
#N canvas 65 205 450 300 subpatchsampler17 0;
#X restore 161 52 pd subpatchsampler17;
#N canvas 65 205 450 300 subpatchsampler18 0;
#X restore 161 73 pd subpatchsampler18;
#N canvas 65 205 450 300 subpatchsampler19 0;
#X restore 161 94 pd subpatchsampler19;
#N canvas 65 205 450 300 subpatchsampler20 0;
#X restore 161 115 pd subpatchsampler20;
#N canvas 65 205 450 300 subpatchsampler21 0;
#X restore 161 137 pd subpatchsampler21;
#N canvas 65 205 450 300 subpatchsampler22 0;
#X restore 161 158 pd subpatchsampler22;
#N canvas 65 205 450 300 subpatchsampler23 0;
#X restore 161 179 pd subpatchsampler23;
#N canvas 65 205 450 300 subpatchsampler24 0;
#X restore 161 200 pd subpatchsampler24;
#N canvas 65 205 450 300 subpatchsampler25 0;
#X restore 161 221 pd subpatchsampler25;
#N canvas 65 205 450 300 subpatchsampler26 0;
#X restore 161 242 pd subpatchsampler26;
#N canvas 65 205 450 300 subpatchsampler27 0;
#X restore 161 263 pd subpatchsampler27;
#N canvas 65 205 450 300 subpatchsampler28 0;
#X restore 161 284 pd subpatchsampler28;
#N canvas 65 205 450 300 subpatchsampler29 0;
#X restore 161 306 pd subpatchsampler29;
#N canvas 65 205 450 300 subpatchsampler30 0;
#X restore 161 327 pd subpatchsampler30;
#N canvas 65 205 450 300 subpatchsampler31 0;
#X restore 161 348 pd subpatchsampler31;
#N canvas 65 205 450 300 subpatchsampler32 0;
#X restore 321 31 pd subpatchsampler32;
#N canvas 65 205 450 300 subpatchsampler33 0;
#X restore 321 52 pd subpatchsampler33;
#N canvas 65 205 450 300 subpatchsampler34 0;
#X restore 321 73 pd subpatchsampler34;
#N canvas 65 205 450 300 subpatchsampler35 0;
#X restore 321 94 pd subpatchsampler35;
#N canvas 65 205 450 300 subpatchsampler36 0;
#X restore 321 115 pd subpatchsampler36;
#N canvas 65 205 450 300 subpatchsampler37 0;
#X restore 321 137 pd subpatchsampler37;
#N canvas 65 205 450 300 subpatchsampler38 0;
#X restore 321 158 pd subpatchsampler38;
#N canvas 65 205 450 300 subpatchsampler39 0;
#X restore 321 179 pd subpatchsampler39;
#N canvas 65 205 450 300 subpatchsampler40 0;
#X restore 321 200 pd subpatchsampler40;
#N canvas 65 205 450 300 subpatchsampler41 0;
#X restore 321 221 pd subpatchsampler41;
#N canvas 65 205 450 300 subpatchsampler42 0;
#X restore 321 242 pd subpatchsampler42;
#N canvas 65 205 450 300 subpatchsampler43 0;
#X restore 321 263 pd subpatchsampler43;
#N canvas 65 205 450 300 subpatchsampler44 0;
#X restore 321 284 pd subpatchsampler44;
#N canvas 65 205 450 300 subpatchsampler45 0;
#X restore 321 306 pd subpatchsampler45;
#N canvas 65 205 450 300 subpatchsampler46 0;
#X restore 321 327 pd subpatchsampler46;
#N canvas 65 205 450 300 subpatchsampler47 0;
#X restore 321 348 pd subpatchsampler47;
#N canvas 65 205 450 300 subpatchsampler48 0;
#X restore 486 31 pd subpatchsampler48;
#N canvas 65 205 450 300 subpatchsampler49 0;
#X restore 486 52 pd subpatchsampler49;
#N canvas 65 205 450 300 subpatchsampler50 0;
#X restore 486 73 pd subpatchsampler50;
#N canvas 65 205 450 300 subpatchsampler51 0;
#X restore 486 94 pd subpatchsampler51;
#N canvas 65 205 450 300 subpatchsampler52 0;
#X restore 486 115 pd subpatchsampler52;
#N canvas 65 205 450 300 subpatchsampler53 0;
#X restore 486 137 pd subpatchsampler53;
#N canvas 65 205 450 300 subpatchsampler54 0;
#X restore 486 158 pd subpatchsampler54;
#N canvas 65 205 450 300 subpatchsampler55 0;
#X restore 486 179 pd subpatchsampler55;
#N canvas 65 205 450 300 subpatchsampler56 0;
#X restore 486 200 pd subpatchsampler56;
#N canvas 65 205 450 300 subpatchsampler57 0;
#X restore 486 221 pd subpatchsampler57;
#N canvas 65 205 450 300 subpatchsampler58 0;
#X restore 486 242 pd subpatchsampler58;
#N canvas 65 205 450 300 subpatchsampler59 0;
#X restore 486 263 pd subpatchsampler59;
#N canvas 65 205 450 300 subpatchsampler60 0;
#X restore 486 284 pd subpatchsampler60;
#N canvas 65 205 450 300 subpatchsampler61 0;
#X restore 486 306 pd subpatchsampler61;
#N canvas 65 205 450 300 subpatchsampler62 0;
#X restore 486 327 pd subpatchsampler62;
#N canvas 65 205 450 300 subpatchsampler63 0;
#X restore 486 348 pd subpatchsampler63;
#N canvas 161 697 450 300 subpatchsampler0 0;
#X restore 9 31 pd subpatchsampler0;
#N canvas 218 388 440 476 addsamplertrack 1;
#X obj 64 5 r addsamplertrack;
#X msg 78 406 \; pd-subpatchsampler\$1 obj 0 0 sampleplayer sound\$1
;
#X obj 46 352 f;
#X msg 175 158 \; mastervol 0;
#X msg 114 277 \; mastervol 1;
#X msg 170 211 \; pd dsp 0 \;;
#X msg 133 243 \; pd dsp 1 \;;
#X obj 96 185 t b b b b b;
#X msg 46 442 \; pd-subpatchsampler\$1 loadbang;
#X obj 96 163 delay 100;
#X obj 96 312 delay 100;
#X obj 46 382 t f f;
#X obj 96 357 s android-trackadded;
#X msg 96 335 track_added;
#X obj 64 40 t l b l;
#X msg 64 98 \$1;
#X msg 110 66 \$2;
#X obj 96 98 t b b b;
#X obj 176 136 s clearfx;
#X connect 0 0 14 0;
#X connect 2 0 11 0;
#X connect 7 0 10 0;
#X connect 7 1 4 0;
#X connect 7 2 6 0;
#X connect 7 3 2 0;
#X connect 7 4 5 0;
#X connect 9 0 7 0;
#X connect 10 0 13 0;
#X connect 11 0 8 0;
#X connect 11 1 1 0;
#X connect 13 0 12 0;
#X connect 14 0 15 0;
#X connect 14 1 17 0;
#X connect 14 2 16 0;
#X connect 15 0 2 1;
#X connect 16 0 9 1;
#X connect 16 0 10 1;
#X connect 17 0 9 0;
#X connect 17 1 3 0;
#X connect 17 2 18 0;
#X restore 246 8 pd addsamplertrack;
#X restore 7 212 pd sampleplayers;
#X obj 16 400 r dsp-on;
#X msg 99 429 \; pd dsp 0 \;;
#X obj 99 400 r dsp-off;
#X msg 16 429 \; pd dsp 1 \;;
#N canvas 168 350 294 370 drumplayers 1;
#N canvas 65 209 450 300 subpatchdrum0 0;
#X restore 11 30 pd subpatchdrum0;
#N canvas 65 205 450 300 subpatchdrum1 0;
#X restore 11 51 pd subpatchdrum1;
#N canvas 65 205 450 300 subpatchdrum2 0;
#X restore 11 72 pd subpatchdrum2;
#N canvas 65 205 450 300 subpatchdrum3 0;
#X restore 11 94 pd subpatchdrum3;
#N canvas 65 205 450 300 subpatchdrum4 0;
#X restore 11 114 pd subpatchdrum4;
#N canvas 65 205 450 300 subpatchdrum5 0;
#X restore 11 135 pd subpatchdrum5;
#N canvas 65 205 450 300 subpatchdrum6 0;
#X restore 11 156 pd subpatchdrum6;
#N canvas 65 205 450 300 subpatchdrum7 0;
#X restore 11 178 pd subpatchdrum7;
#N canvas 65 205 450 300 subpatchdrum8 0;
#X restore 11 199 pd subpatchdrum8;
#N canvas 65 205 450 300 subpatchdrum9 0;
#X restore 11 220 pd subpatchdrum9;
#N canvas 65 205 450 300 subpatchdrum10 0;
#X restore 11 241 pd subpatchdrum10;
#N canvas 65 205 450 300 subpatchdrum11 0;
#X restore 11 263 pd subpatchdrum11;
#N canvas 65 205 450 300 subpatchdrum12 0;
#X restore 11 283 pd subpatchdrum12;
#N canvas 65 205 450 300 subpatchdrum13 0;
#X restore 11 304 pd subpatchdrum13;
#N canvas 65 205 450 300 subpatchdrum14 0;
#X restore 11 325 pd subpatchdrum14;
#N canvas 65 205 450 300 subpatchdrum15 0;
#X restore 11 347 pd subpatchdrum15;
#N canvas 65 205 450 300 subpatchdrum16 0;
#X restore 156 30 pd subpatchdrum16;
#N canvas 65 205 450 300 subpatchdrum17 0;
#X restore 156 51 pd subpatchdrum17;
#N canvas 65 205 450 300 subpatchdrum18 0;
#X restore 156 72 pd subpatchdrum18;
#N canvas 65 205 450 300 subpatchdrum19 0;
#X restore 156 94 pd subpatchdrum19;
#N canvas 65 205 450 300 subpatchdrum20 0;
#X restore 156 114 pd subpatchdrum20;
#N canvas 65 205 450 300 subpatchdrum21 0;
#X restore 156 135 pd subpatchdrum21;
#N canvas 65 205 450 300 subpatchdrum22 0;
#X restore 156 156 pd subpatchdrum22;
#N canvas 65 205 450 300 subpatchdrum23 0;
#X restore 156 178 pd subpatchdrum23;
#N canvas 65 205 450 300 subpatchdrum24 0;
#X restore 156 199 pd subpatchdrum24;
#N canvas 65 205 450 300 subpatchdrum25 0;
#X restore 156 220 pd subpatchdrum25;
#N canvas 65 205 450 300 subpatchdrum26 0;
#X restore 156 241 pd subpatchdrum26;
#N canvas 65 205 450 300 subpatchdrum27 0;
#X restore 156 263 pd subpatchdrum27;
#N canvas 65 205 450 300 subpatchdrum28 0;
#X restore 156 283 pd subpatchdrum28;
#N canvas 65 205 450 300 subpatchdrum29 0;
#X restore 156 304 pd subpatchdrum29;
#N canvas 65 205 450 300 subpatchdrum30 0;
#X restore 155 325 pd subpatchdrum30;
#N canvas 65 205 450 300 subpatchdrum31 0;
#X restore 156 347 pd subpatchdrum31;
#N canvas 698 234 416 523 adddrumtrack 1;
#X obj 46 362 f;
#X msg 170 161 \; mastervol 0;
#X msg 114 288 \; mastervol 1;
#X msg 170 222 \; pd dsp 0 \;;
#X msg 133 254 \; pd dsp 1 \;;
#X obj 96 196 t b b b b b;
#X obj 96 174 delay 100;
#X obj 96 323 delay 100;
#X obj 46 392 t f f;
#X obj 96 368 s android-trackadded;
#X obj 64 4 r adddrumtrack;
#X msg 96 346 track_added;
#X msg 46 453 \; pd-subpatchdrum\$1 loadbang;
#X msg 78 417 \; pd-subpatchdrum\$1 obj 0 0 drumplayer drums\$1;
#X obj 64 38 t l b l;
#X msg 64 121 \$1;
#X msg 110 65 \$2;
#X obj 96 108 t b b b;
#X obj 170 138 s clearfx;
#X connect 0 0 8 0;
#X connect 5 0 7 0;
#X connect 5 1 2 0;
#X connect 5 2 4 0;
#X connect 5 3 0 0;
#X connect 5 4 3 0;
#X connect 6 0 5 0;
#X connect 7 0 11 0;
#X connect 8 0 12 0;
#X connect 8 1 13 0;
#X connect 10 0 14 0;
#X connect 11 0 9 0;
#X connect 14 0 15 0;
#X connect 14 1 17 0;
#X connect 14 2 16 0;
#X connect 15 0 0 1;
#X connect 16 0 6 1;
#X connect 16 0 7 1;
#X connect 17 0 6 0;
#X connect 17 1 1 0;
#X connect 17 2 18 0;
#X restore 92 6 pd adddrumtrack;
#X restore 6 240 pd drumplayers;
#X obj 288 4 bng 15 250 50 0 empty empty empty 17 7 0 10 -262144 -1
-1;
#X obj 5 15 controlsui testsampleplayer;
#X msg 350 49 loadbang;
#N canvas 1600 468 953 470 test 0;
#X obj 10 30 drumplayer testdrumplayer;
#X obj 202 26 //clone sampleplayer 100;
#X obj 10 10 sampleplayer testsampleplayer;
#X restore 7 270 pd test;
#X obj 412 93 send pd-test;
#X obj 350 113 send pd-test;
#X obj 288 27 trigger bang bang bang bang;
#X obj 474 49 s dsp-off;
#X obj 288 55 s dsp-on;
#X msg 412 72 obj 10 10 sampleplayer testsampleplayer;
#X obj 290 122 bng 15 250 50 0 empty empty empty 17 7 0 10 -262144
-1 -1;
#X msg 352 167 loadbang;
#X obj 414 211 send pd-test;
#X obj 352 231 send pd-test;
#X obj 290 145 trigger bang bang bang bang;
#X obj 476 167 s dsp-off;
#X obj 290 173 s dsp-on;
#X msg 414 190 obj 10 30 drumplayer testdrumplayer;
#X obj 5 44 drumcontrolsui testdrumplayer;
#X obj 204 264 catch~ mainoutputL;
#X obj 424 264 catch~ mainoutputR;
#N canvas 648 546 534 263 lowpass 0;
#X obj 76 22 inlet~;
#X obj 221 25 inlet~;
#X obj 76 168 faustreson~;
#X obj 221 168 faustreson~;
#X obj 76 214 outlet~;
#X obj 221 216 outlet~;
#X obj 99 101 sig~;
#X obj 245 101 sig~;
#X obj 144 31 loadbang;
#X obj 361 64 loadbang;
#X obj 361 126 switch~;
#X msg 361 97 1;
#X msg 144 59 16000;
#X connect 0 0 2 0;
#X connect 1 0 3 0;
#X connect 2 0 4 0;
#X connect 3 0 5 0;
#X connect 6 0 2 1;
#X connect 7 0 3 1;
#X connect 8 0 12 0;
#X connect 9 0 11 0;
#X connect 11 0 10 0;
#X connect 12 0 7 0;
#X connect 12 0 6 0;
#X restore 277 452 pd lowpass;
#X obj 292 292 r mastervol;
#X obj 423 396 *~;
#X obj 203 392 *~;
#X obj 219 318 loadbang;
#X msg 219 339 1 0;
#X obj 232 489 expr~ tanh($v1);
#X obj 357 489 expr~ tanh($v1);
#X obj 292 313 logvolume -50 0;
#X msg 292 334 \$1 50;
#X obj 292 356 line~;
#N canvas 978 197 438 405 lfowaves 0;
#X obj 80 108 soundfiler;
#X obj 80 65 loadbang;
#X obj 226 11 table tmpwave;
#X msg 80 87 read -resize ../sounds/sine1hz.wav tmpwave;
#X obj 226 34 table lfowavesine;
#X obj 80 165 until;
#X obj 80 225 trigger float float;
#X obj 80 193 float 0;
#X obj 144 192 + 1;
#X obj 80 137 trigger float float;
#X msg 191 163 resize 44100;
#X obj 80 288 expr ($f1+1)/2;
#X obj 80 258 tabread tmpwave;
#X obj 191 191 s lfowavesine;
#X obj 80 321 tabwrite lfowavesine;
#X connect 0 0 9 0;
#X connect 1 0 3 0;
#X connect 3 0 0 0;
#X connect 5 0 7 0;
#X connect 6 0 12 0;
#X connect 6 1 14 1;
#X connect 7 0 6 0;
#X connect 7 0 8 0;
#X connect 8 0 7 1;
#X connect 9 0 5 0;
#X connect 9 1 10 0;
#X connect 10 0 13 0;
#X connect 11 0 14 0;
#X connect 12 0 11 0;
#X restore 8 298 pd lfowaves;
#X obj 204 287 *~ 0.4;
#X obj 424 288 *~ 0.4;
#X connect 3 0 4 0;
#X connect 4 0 2 0;
#X connect 7 0 10 0;
#X connect 9 0 8 0;
#X connect 12 0 18 0;
#X connect 14 0 17 0;
#X connect 18 0 20 0;
#X connect 18 1 14 0;
#X connect 18 2 21 0;
#X connect 18 3 19 0;
#X connect 21 0 16 0;
#X connect 22 0 26 0;
#X connect 23 0 25 0;
#X connect 26 0 28 0;
#X connect 26 1 23 0;
#X connect 26 2 29 0;
#X connect 26 3 27 0;
#X connect 29 0 24 0;
#X connect 31 0 45 0;
#X connect 32 0 46 0;
#X connect 33 0 39 0;
#X connect 33 1 40 0;
#X connect 34 0 41 0;
#X connect 35 0 33 1;
#X connect 36 0 33 0;
#X connect 37 0 38 0;
#X connect 38 0 43 0;
#X connect 39 0 0 0;
#X connect 40 0 0 1;
#X connect 41 0 42 0;
#X connect 42 0 43 0;
#X connect 43 0 35 1;
#X connect 43 0 36 1;
#X connect 45 0 36 0;
#X connect 46 0 35 0;
