#N canvas 543 318 699 552 10;
#X obj 54 88 send sound1-filename;
#X obj 46 404 catch~ soundoutput;
#X obj 40 531 dac~;
#X obj 448 199 send android;
#X obj 482 116 receive playlist;
#X obj 449 29 tgl 15 0 empty empty empty 17 7 0 10 -262144 -1 -1 0
1;
#X msg 527 416 add 123;
#X obj 524 481 send playlist;
#X msg 518 389 set \;;
#X obj 41 255 sampleplayer sound1;
#X msg 546 443 add sound1-playnote 3;
#X msg 481 163 123 \;;
#X obj 483 23 receive timerstart;
#X obj 448 68 metro 250;
#X msg 37 114 1;
#X obj 35 185 send sound1-noteon;
#X msg 338 142 7;
#X obj 244 191 send sound1-noteoff;
#X msg 194 137 8;
#X msg 151 139 7;
#X msg 372 143 8;
#X msg 19 12 ../sounds/fluidc4.wav;
#X msg 39 35 ../sounds/saw400.wav;
#X msg 193 8 ../sounds/trumpet55.wav;
#X msg 206 29 ../sounds/sine400.wav;
#X msg 206 51 ../sounds/ohh.wav;
#X obj 365 31 midicontrol;
#N canvas 0 0 450 300 (subpatch) 0;
#X array outputmonitor 100 float 0;
#X coords 0 -1 100 1 200 100 1;
#X restore 293 387 graph;
#X obj 128 524 tabwrite~ outputmonitor;
#X obj 128 492 metro 50;
#X msg 101 142 6;
#X msg 289 149 6;
#X msg 222 81 ../sounds/sine400lowamp.wav;
#X msg 71 115 2;
#X msg 114 115 3;
#X msg 150 115 4;
#X msg 65 144 5;
#X msg 243 116 1;
#X msg 280 117 2;
#X msg 323 117 3;
#X msg 359 117 4;
#X msg 244 147 5;
#X obj 128 468 tgl 15 0 empty empty empty 17 7 0 10 -262144 -1 -1 0
1;
#X obj 42 283 sampleplayer sound5;
#X obj 180 255 sampleplayer sound2;
#X obj 181 316 sampleplayer sound10;
#X obj 181 283 sampleplayer sound6;
#X obj 315 255 sampleplayer sound3;
#X obj 453 254 sampleplayer sound4;
#X obj 316 283 sampleplayer sound7;
#X obj 454 282 sampleplayer sound8;
#X obj 42 315 sampleplayer sound9;
#X obj 316 315 sampleplayer sound11;
#X obj 454 314 sampleplayer sound12;
#X obj 43 343 sampleplayer sound13;
#X obj 182 343 sampleplayer sound14;
#X obj 317 343 sampleplayer sound15;
#X obj 455 342 sampleplayer sound16;
#N canvas 141 591 489 314 limiter 1;
#X obj 109 42 inlet~;
#X obj 107 272 outlet~;
#X obj 108 240 *~;
#X obj 171 58 env~;
#X obj 171 86 dbtorms;
#X msg 171 141 1 \$1;
#X obj 171 169 /;
#X obj 171 197 min 1;
#X obj 171 113 + 0.5;
#X obj 171 224 lop~ 5;
#X text 17 2 Simple limiter from http://puredata.hurleur.com/sujet-5718-limiter-vanilla-objects-expr
;
#X connect 0 0 2 0;
#X connect 0 0 3 0;
#X connect 2 0 1 0;
#X connect 3 0 4 0;
#X connect 4 0 8 0;
#X connect 5 0 6 0;
#X connect 6 0 7 0;
#X connect 7 0 9 0;
#X connect 8 0 5 0;
#X connect 9 0 2 1;
#X restore 47 462 pd limiter;
#X obj 46 506 *~ 0.25;
#X connect 1 0 58 0;
#X connect 4 0 11 0;
#X connect 5 0 13 0;
#X connect 6 0 7 0;
#X connect 8 0 7 0;
#X connect 10 0 7 0;
#X connect 12 0 13 0;
#X connect 13 0 11 0;
#X connect 13 0 3 0;
#X connect 14 0 15 0;
#X connect 16 0 17 0;
#X connect 18 0 15 0;
#X connect 19 0 15 0;
#X connect 20 0 17 0;
#X connect 21 0 0 0;
#X connect 22 0 0 0;
#X connect 23 0 0 0;
#X connect 24 0 0 0;
#X connect 25 0 0 0;
#X connect 29 0 28 0;
#X connect 30 0 15 0;
#X connect 31 0 17 0;
#X connect 32 0 0 0;
#X connect 33 0 15 0;
#X connect 34 0 15 0;
#X connect 35 0 15 0;
#X connect 36 0 15 0;
#X connect 37 0 17 0;
#X connect 38 0 17 0;
#X connect 39 0 17 0;
#X connect 40 0 17 0;
#X connect 41 0 17 0;
#X connect 42 0 29 0;
#X connect 58 0 28 0;
#X connect 58 0 59 0;
#X connect 59 0 2 0;
#X connect 59 0 2 1;
