#N canvas 127 379 1065 502 10;
#X obj 327 153 dac~;
#N canvas 0 50 450 300 (subpatch) 0;
#X array outputmonitor 100 float 0;
#X coords 0 -1 100 1 200 100 1;
#X restore 478 30 graph;
#X obj 415 146 tabwrite~ outputmonitor;
#X obj 415 90 tgl 15 0 empty empty empty 17 7 0 10 -262144 -1 -1 0
1;
#N canvas 132 606 489 314 limiter 0;
#X obj 109 42 inlet~;
#X obj 107 272 outlet~;
#X obj 108 240 *~;
#X obj 171 58 env~;
#X obj 171 86 dbtorms;
#X msg 171 141 1 \$1;
#X obj 171 169 /;
#X obj 171 197 min 1;
#X obj 171 113 + 0.5;
#X obj 171 224 lop~ 5;
#X text 17 2 Simple limiter from http://puredata.hurleur.com/sujet-5718-limiter-vanilla-objects-expr
;
#X connect 0 0 2 0;
#X connect 0 0 3 0;
#X connect 2 0 1 0;
#X connect 3 0 4 0;
#X connect 4 0 8 0;
#X connect 5 0 6 0;
#X connect 6 0 7 0;
#X connect 7 0 9 0;
#X connect 8 0 5 0;
#X connect 9 0 2 1;
#X restore 334 84 pd limiter;
#X obj 333 128 *~ 0.25;
#X obj 333 26 catch~ mainoutput;
#X obj 415 114 metro 50;
#X obj 3 96 drumcontrolsui drums1;
#N canvas 883 415 226 233 ticks 0;
#X obj 88 157 receive playlist;
#X obj 13 63 tgl 15 0 empty empty empty 17 7 0 10 -262144 -1 -1 0 1
;
#X obj 40 60 receive timerstart;
#X obj 34 11 receive timerstop;
#X msg 34 37 stop;
#X obj 101 82 receive setdelayms;
#X obj 34 137 metro 1500;
#X obj 34 206 send android-tick;
#X msg 88 179 123 \;;
#X connect 0 0 8 0;
#X connect 1 0 6 0;
#X connect 2 0 6 0;
#X connect 3 0 4 0;
#X connect 4 0 6 0;
#X connect 5 0 6 1;
#X connect 6 0 8 0;
#X connect 6 0 7 0;
#X restore 10 181 pd ticks;
#X obj 5 124 drumplayer drums1;
#X obj 136 124 drumplayer drums2;
#X obj 5 148 drumplayer drums3;
#X obj 136 148 drumplayer drums4;
#N canvas 1074 431 501 379 sampleplayers 1;
#N canvas 65 205 450 300 subpatch1 0;
#X restore 16 17 pd subpatch1;
#N canvas 65 205 450 300 subpatch2 0;
#X restore 16 38 pd subpatch2;
#N canvas 65 205 450 300 subpatch3 0;
#X restore 16 59 pd subpatch3;
#N canvas 65 205 450 300 subpatch4 0;
#X restore 16 80 pd subpatch4;
#N canvas 65 205 450 300 subpatch5 0;
#X restore 16 102 pd subpatch5;
#N canvas 65 205 450 300 subpatch6 0;
#X restore 16 123 pd subpatch6;
#N canvas 65 205 450 300 subpatch7 0;
#X restore 16 144 pd subpatch7;
#N canvas 65 205 450 300 subpatch8 0;
#X restore 16 165 pd subpatch8;
#N canvas 65 205 450 300 subpatch9 0;
#X restore 16 186 pd subpatch9;
#N canvas 65 205 450 300 subpatch10 0;
#X restore 16 207 pd subpatch10;
#N canvas 65 205 450 300 subpatch12 0;
#X restore 16 249 pd subpatch12;
#N canvas 65 205 450 300 subpatch13 0;
#X restore 16 271 pd subpatch13;
#N canvas 65 205 450 300 subpatch14 0;
#X restore 16 292 pd subpatch14;
#N canvas 65 205 450 300 subpatch15 0;
#X restore 16 313 pd subpatch15;
#N canvas 65 205 450 300 subpatch16 0;
#X restore 16 334 pd subpatch16;
#N canvas 65 205 450 300 subpatch11 0;
#X restore 16 228 pd subpatch11;
#N canvas 65 205 450 300 subpatch17 0;
#X restore 126 17 pd subpatch17;
#N canvas 65 205 450 300 subpatch18 0;
#X restore 126 38 pd subpatch18;
#N canvas 65 205 450 300 subpatch19 0;
#X restore 126 59 pd subpatch19;
#N canvas 65 205 450 300 subpatch20 0;
#X restore 126 80 pd subpatch20;
#N canvas 65 205 450 300 subpatch21 0;
#X restore 126 102 pd subpatch21;
#N canvas 65 205 450 300 subpatch22 0;
#X restore 126 123 pd subpatch22;
#N canvas 65 205 450 300 subpatch23 0;
#X restore 126 144 pd subpatch23;
#N canvas 65 205 450 300 subpatch24 0;
#X restore 126 165 pd subpatch24;
#N canvas 65 205 450 300 subpatch25 0;
#X restore 126 186 pd subpatch25;
#N canvas 65 205 450 300 subpatch26 0;
#X restore 126 207 pd subpatch26;
#N canvas 65 205 450 300 subpatch27 0;
#X restore 126 228 pd subpatch27;
#N canvas 65 205 450 300 subpatch28 0;
#X restore 126 249 pd subpatch28;
#N canvas 65 205 450 300 subpatch29 0;
#X restore 126 271 pd subpatch29;
#N canvas 65 205 450 300 subpatch30 0;
#X restore 126 292 pd subpatch30;
#N canvas 65 205 450 300 subpatch31 0;
#X restore 126 313 pd subpatch31;
#N canvas 65 205 450 300 subpatch32 0;
#X restore 126 334 pd subpatch32;
#N canvas 65 205 450 300 subpatch33 0;
#X restore 239 17 pd subpatch33;
#N canvas 65 205 450 300 subpatch34 0;
#X restore 239 38 pd subpatch34;
#N canvas 65 205 450 300 subpatch35 0;
#X restore 239 59 pd subpatch35;
#N canvas 65 205 450 300 subpatch36 0;
#X restore 239 80 pd subpatch36;
#N canvas 65 205 450 300 subpatch37 0;
#X restore 239 102 pd subpatch37;
#N canvas 65 205 450 300 subpatch38 0;
#X restore 239 123 pd subpatch38;
#N canvas 65 205 450 300 subpatch39 0;
#X restore 239 144 pd subpatch39;
#N canvas 65 205 450 300 subpatch40 0;
#X restore 239 165 pd subpatch40;
#N canvas 65 205 450 300 subpatch41 0;
#X restore 239 186 pd subpatch41;
#N canvas 65 205 450 300 subpatch42 0;
#X restore 239 207 pd subpatch42;
#N canvas 65 205 450 300 subpatch43 0;
#X restore 239 228 pd subpatch43;
#N canvas 65 205 450 300 subpatch44 0;
#X restore 239 249 pd subpatch44;
#N canvas 65 205 450 300 subpatch45 0;
#X restore 239 271 pd subpatch45;
#N canvas 65 205 450 300 subpatch46 0;
#X restore 239 292 pd subpatch46;
#N canvas 65 205 450 300 subpatch47 0;
#X restore 239 313 pd subpatch47;
#N canvas 65 205 450 300 subpatch48 0;
#X restore 239 334 pd subpatch48;
#N canvas 65 205 450 300 subpatch49 0;
#X restore 347 17 pd subpatch49;
#N canvas 65 205 450 300 subpatch50 0;
#X restore 347 38 pd subpatch50;
#N canvas 65 205 450 300 subpatch51 0;
#X restore 347 59 pd subpatch51;
#N canvas 65 205 450 300 subpatch52 0;
#X restore 347 80 pd subpatch52;
#N canvas 65 205 450 300 subpatch53 0;
#X restore 347 102 pd subpatch53;
#N canvas 65 205 450 300 subpatch54 0;
#X restore 347 123 pd subpatch54;
#N canvas 65 205 450 300 subpatch55 0;
#X restore 347 144 pd subpatch55;
#N canvas 65 205 450 300 subpatch56 0;
#X restore 347 165 pd subpatch56;
#N canvas 65 205 450 300 subpatch57 0;
#X restore 347 186 pd subpatch57;
#N canvas 65 205 450 300 subpatch58 0;
#X restore 347 207 pd subpatch58;
#N canvas 65 205 450 300 subpatch59 0;
#X restore 347 228 pd subpatch59;
#N canvas 65 205 450 300 subpatch60 0;
#X restore 347 249 pd subpatch60;
#N canvas 65 205 450 300 subpatch61 0;
#X restore 347 271 pd subpatch61;
#N canvas 65 205 450 300 subpatch62 0;
#X restore 347 292 pd subpatch62;
#N canvas 65 205 450 300 subpatch63 0;
#X restore 347 313 pd subpatch63;
#N canvas 65 205 450 300 subpatch64 0;
#X restore 347 334 pd subpatch64;
#X restore 13 443 pd sampleplayers;
#X obj 5 15 controlsui sound1;
#X obj 140 14 controlsui sound17;
#X obj 280 322 send pd-sampleplayers;
#X msg 302 294 loadbang;
#X obj 389 399 r dsp-on;
#X msg 472 428 \; pd dsp 0 \;;
#X obj 472 399 r dsp-off;
#X msg 389 428 \; pd dsp 1 \;;
#X msg 295 270 editmode 1 \, mouse 0 50 0 0 0 \, cut \, editmode 0
;
#X msg 280 246 obj 0 50 sampleplayer sound17;
#X obj 152 382 r cutcoords;
#X obj 152 435 send pd-sampleplayers;
#X msg 107 299 editmode 1;
#X msg 141 355 cut;
#X msg 123 328 0 50;
#X msg 152 409 mouse \$1 \$2 0 0 0;
#X msg 56 379 clear;
#X obj 597 374 send pd-sampleplayers;
#X msg 660 411 obj 0 50 sampleplayer sound17;
#X msg 594 423 clear;
#X msg 597 344 obj 0 50 pd subpatch17;
#X obj 691 450 send pd-subpatch17;
#X msg 781 342 find subpatch17 1 \, cut;
#X msg 777 299 find sound17 1 \, cut;
#X msg 741 246 find pd 1 \, cut;
#X connect 3 0 7 0;
#X connect 4 0 5 0;
#X connect 5 0 0 0;
#X connect 5 0 0 1;
#X connect 5 0 2 0;
#X connect 6 0 4 0;
#X connect 7 0 2 0;
#X connect 18 0 17 0;
#X connect 19 0 22 0;
#X connect 21 0 20 0;
#X connect 23 0 17 0;
#X connect 24 0 17 0;
#X connect 25 0 30 0;
#X connect 27 0 26 0;
#X connect 28 0 26 0;
#X connect 29 0 30 0;
#X connect 30 0 26 0;
#X connect 31 0 26 0;
#X connect 33 0 36 0;
#X connect 34 0 36 0;
#X connect 35 0 32 0;
#X connect 37 0 32 0;
#X connect 38 0 32 0;
#X connect 39 0 32 0;
