#N canvas 420 320 771 371 10;
#X obj 403 332 dac~;
#X obj 6 40 sampleplayer sound1;
#N canvas 0 50 450 300 (subpatch) 0;
#X array outputmonitor 100 float 0;
#X coords 0 -1 100 1 200 100 1;
#X restore 554 209 graph;
#X obj 491 325 tabwrite~ outputmonitor;
#X obj 491 269 tgl 15 0 empty empty empty 17 7 0 10 -262144 -1 -1 0
1;
#N canvas 132 606 489 314 limiter 0;
#X obj 109 42 inlet~;
#X obj 107 272 outlet~;
#X obj 108 240 *~;
#X obj 171 58 env~;
#X obj 171 86 dbtorms;
#X msg 171 141 1 \$1;
#X obj 171 169 /;
#X obj 171 197 min 1;
#X obj 171 113 + 0.5;
#X obj 171 224 lop~ 5;
#X text 17 2 Simple limiter from http://puredata.hurleur.com/sujet-5718-limiter-vanilla-objects-expr
;
#X connect 0 0 2 0;
#X connect 0 0 3 0;
#X connect 2 0 1 0;
#X connect 3 0 4 0;
#X connect 4 0 8 0;
#X connect 5 0 6 0;
#X connect 6 0 7 0;
#X connect 7 0 9 0;
#X connect 8 0 5 0;
#X connect 9 0 2 1;
#X restore 410 263 pd limiter;
#X obj 409 307 *~ 0.25;
#X obj 409 205 catch~ mainoutput;
#X obj 491 293 metro 50;
#X obj 5 15 controlsui sound1;
#X obj 10 160 drumcontrolsui drums1;
#X obj 39 311 send playlist;
#X msg 39 286 add sound1-noteon 1;
#X obj 252 321 send sound1-noteon;
#X msg 203 281 1 5000;
#X msg 258 281 12 1000;
#X msg 308 280 30 1000;
#N canvas 889 353 226 233 ticks 0;
#X obj 88 157 receive playlist;
#X obj 13 63 tgl 15 0 empty empty empty 17 7 0 10 -262144 -1 -1 0 1
;
#X obj 40 60 receive timerstart;
#X obj 34 11 receive timerstop;
#X msg 34 37 stop;
#X obj 101 82 receive setdelayms;
#X obj 34 137 metro 1500;
#X obj 34 206 send android-tick;
#X msg 88 179 123 \;;
#X connect 0 0 8 0;
#X connect 1 0 6 0;
#X connect 2 0 6 0;
#X connect 3 0 4 0;
#X connect 4 0 6 0;
#X connect 5 0 6 1;
#X connect 6 0 8 0;
#X connect 6 0 7 0;
#X restore 638 72 pd ticks;
#X obj 11 189 drumplayer drums1;
#X obj 142 189 drumplayer drums2;
#X obj 11 213 drumplayer drums3;
#X obj 142 213 drumplayer drums4;
#X obj 8 68 sampleplayer sound5;
#X obj 157 40 sampleplayer sound2;
#X obj 158 68 sampleplayer sound6;
#X obj 311 40 sampleplayer sound3;
#X obj 465 39 sampleplayer sound4;
#X obj 312 68 sampleplayer sound7;
#X obj 466 67 sampleplayer sound8;
#X obj 158 101 sampleplayer sound10;
#X obj 8 100 sampleplayer sound9;
#X obj 312 100 sampleplayer sound11;
#X obj 466 99 sampleplayer sound12;
#X obj 9 128 sampleplayer sound13;
#X obj 159 128 sampleplayer sound14;
#X obj 313 128 sampleplayer sound15;
#X obj 467 127 sampleplayer sound16;
#X obj 147 14 controlsui sound2;
#X connect 4 0 8 0;
#X connect 5 0 6 0;
#X connect 6 0 0 0;
#X connect 6 0 0 1;
#X connect 6 0 3 0;
#X connect 7 0 5 0;
#X connect 8 0 3 0;
#X connect 12 0 11 0;
#X connect 14 0 13 0;
#X connect 15 0 13 0;
#X connect 16 0 13 0;
