#N canvas 143 451 1065 502 10;
#X obj 327 153 dac~;
#N canvas 0 50 450 300 (subpatch) 0;
#X array outputmonitor 100 float 0;
#X coords 0 -1 100 1 200 100 1;
#X restore 478 30 graph;
#X obj 415 146 tabwrite~ outputmonitor;
#X obj 415 90 tgl 15 0 empty empty empty 17 7 0 10 -262144 -1 -1 0
1;
#N canvas 132 606 489 314 limiter 0;
#X obj 109 42 inlet~;
#X obj 107 272 outlet~;
#X obj 108 240 *~;
#X obj 171 58 env~;
#X obj 171 86 dbtorms;
#X msg 171 141 1 \$1;
#X obj 171 169 /;
#X obj 171 197 min 1;
#X obj 171 113 + 0.5;
#X obj 171 224 lop~ 5;
#X text 17 2 Simple limiter from http://puredata.hurleur.com/sujet-5718-limiter-vanilla-objects-expr
;
#X connect 0 0 2 0;
#X connect 0 0 3 0;
#X connect 2 0 1 0;
#X connect 3 0 4 0;
#X connect 4 0 8 0;
#X connect 5 0 6 0;
#X connect 6 0 7 0;
#X connect 7 0 9 0;
#X connect 8 0 5 0;
#X connect 9 0 2 1;
#X restore 334 84 pd limiter;
#X obj 333 128 *~ 0.25;
#X obj 333 26 catch~ mainoutput;
#X obj 415 114 metro 50;
#X obj 3 96 drumcontrolsui drums1;
#N canvas 883 415 226 233 ticks 0;
#X obj 88 157 receive playlist;
#X obj 13 63 tgl 15 0 empty empty empty 17 7 0 10 -262144 -1 -1 0 1
;
#X obj 40 60 receive timerstart;
#X obj 34 11 receive timerstop;
#X msg 34 37 stop;
#X obj 101 82 receive setdelayms;
#X obj 34 137 metro 1500;
#X obj 34 206 send android-tick;
#X msg 88 179 123 \;;
#X connect 0 0 8 0;
#X connect 1 0 6 0;
#X connect 2 0 6 0;
#X connect 3 0 4 0;
#X connect 4 0 6 0;
#X connect 5 0 6 1;
#X connect 6 0 8 0;
#X connect 6 0 7 0;
#X restore 10 181 pd ticks;
#X obj 5 124 drumplayer drums1;
#X obj 136 124 drumplayer drums2;
#X obj 5 148 drumplayer drums3;
#X obj 136 148 drumplayer drums4;
#N canvas 1705 489 268 352 sampleplayers 1;
#X restore 13 443 pd sampleplayers;
#X obj 5 15 controlsui sound1;
#X obj 140 14 controlsui sound17;
#X obj 280 322 send pd-sampleplayers;
#X obj 6 40 sampleplayer sound1;
#X msg 302 294 loadbang;
#X obj 389 399 r dsp-on;
#X msg 472 428 \; pd dsp 0 \;;
#X obj 472 399 r dsp-off;
#X msg 389 428 \; pd dsp 1 \;;
#X msg 295 270 editmode 1 \, mouse 0 50 0 0 0 \, cut \, editmode 0
;
#X msg 280 246 obj 0 50 sampleplayer sound17;
#X obj 152 382 r cutcoords;
#X obj 152 435 send pd-sampleplayers;
#X msg 107 299 editmode 1;
#X msg 141 355 cut;
#X msg 123 328 0 50;
#X msg 152 409 mouse \$1 \$2 0 0 0;
#X msg 56 379 clear;
#X obj 597 374 send pd-sampleplayers;
#X msg 660 411 obj 0 50 sampleplayer sound17;
#X msg 594 423 clear;
#X msg 597 344 obj 0 50 pd subpatch17;
#X obj 691 450 send pd-subpatch17;
#X msg 781 342 find subpatch17 1 \, cut;
#X msg 777 299 find sound17 1 \, cut;
#X msg 741 246 find pd 1 \, cut;
#X connect 3 0 7 0;
#X connect 4 0 5 0;
#X connect 5 0 0 0;
#X connect 5 0 0 1;
#X connect 5 0 2 0;
#X connect 6 0 4 0;
#X connect 7 0 2 0;
#X connect 19 0 17 0;
#X connect 20 0 23 0;
#X connect 22 0 21 0;
#X connect 24 0 17 0;
#X connect 25 0 17 0;
#X connect 26 0 31 0;
#X connect 28 0 27 0;
#X connect 29 0 27 0;
#X connect 30 0 31 0;
#X connect 31 0 27 0;
#X connect 32 0 27 0;
#X connect 34 0 37 0;
#X connect 35 0 37 0;
#X connect 36 0 33 0;
#X connect 38 0 33 0;
#X connect 39 0 33 0;
#X connect 40 0 33 0;
