#N canvas 1664 192 914 839 10;
#X obj 69 743 send sound1-volume;
#X msg 661 650 list 0 0.5 300;
#X msg 560 650 list 1 0.5 500;
#X msg 432 565 list 1 0.5 1 0.5;
#X msg 554 568 list 0 0.5 1 0.5;
#X obj 613 687 send sound3-delay;
#X obj 484 605 send sound3-lowpass;
#X obj 476 522 send drum1-filenames;
#X floatatom 433 749 5 0 0 0 - - -;
#X obj 357 807 send drum1-playnote;
#X msg 476 485 drums/chh.wav drums/clap.wav drums/kick.wav;
#X msg 384 761 2;
#X obj 54 88 send sound1-filename;
#X obj 51 372 catch~ soundoutput;
#X obj 42 427 dac~;
#X obj 82 660 send fx1-reverb;
#X msg 35 607 list 0.7 1 1 0.5;
#X msg 122 628 list 0.9 1 0.9 0.3;
#X obj 495 403 catch~ effectsoutput;
#X obj 514 811 send sound1-fxsend;
#X msg 500 740 0.1;
#X msg 564 736 0.5;
#X msg 615 738 1;
#X obj 448 199 send android;
#X obj 482 116 receive playlist;
#X obj 449 29 tgl 15 0 empty empty empty 17 7 0 10 -262144 -1 -1 0
1;
#X obj 357 438 loadbang;
#X msg 632 131 add 123;
#X obj 604 261 send playlist;
#X msg 623 104 set \;;
#X obj 41 255 sampleplayer sound1;
#X msg 651 158 add sound1-playnote 3;
#X msg 481 163 123 \;;
#X obj 483 23 receive timerstart;
#X obj 448 68 metro 250;
#X msg 251 682 0;
#X msg 303 681 1;
#X msg 35 114 1;
#X obj 239 734 send sound1-loopon;
#X obj 673 436 send sound1-loopstart;
#X obj 654 341 send sound1-loopend;
#X msg 704 390 3000;
#X msg 656 298 10000;
#X msg 701 299 20000;
#X msg 756 389 300;
#X obj 328 535 switch~;
#X msg 353 488 1;
#X msg 413 490 0;
#X msg 69 706 1;
#X obj 35 185 send sound1-noteon;
#X msg 338 142 7;
#X obj 244 191 send sound1-noteoff;
#X msg 656 386 0;
#X msg 790 301 60000;
#X msg 796 389 9000;
#X msg 840 389 60000;
#X msg 853 299 71000;
#X msg 194 137 8;
#X msg 151 139 7;
#X msg 748 300 30000;
#X msg 372 143 8;
#X msg 460 650 2;
#X msg 423 650 1;
#X msg 377 650 0;
#X obj 396 691 send sound1-lfoconnection;
#X msg 509 651 3;
#X obj 375 613 loadbang;
#X obj 303 639 loadbang;
#X msg 19 12 ../sounds/fluidc4.wav;
#X msg 39 35 ../sounds/saw400.wav;
#X msg 193 8 ../sounds/trumpet55.wav;
#X msg 206 29 ../sounds/sine400.wav;
#X msg 206 51 ../sounds/ohh.wav;
#X obj 732 42 midicontrol;
#N canvas 0 0 450 300 (subpatch) 0;
#X array outputmonitor 100 float 0;
#X coords 0 -1 100 1 200 100 1;
#X restore 31 497 graph;
#X obj 161 401 bng 15 250 50 0 empty empty empty 17 7 0 10 -262144
-1 -1;
#X obj 104 457 tabwrite~ outputmonitor;
#X obj 141 429 metro 50;
#X msg 101 142 6;
#X msg 289 149 6;
#X msg 222 81 ../sounds/sine400lowamp.wav;
#X msg 71 115 2;
#X msg 114 115 3;
#X msg 150 115 4;
#X msg 65 144 5;
#X msg 243 116 1;
#X msg 280 117 2;
#X msg 323 117 3;
#X msg 359 117 4;
#X msg 244 147 5;
#X obj 42 283 sampleplayer sound5;
#X obj 180 255 sampleplayer sound2;
#X obj 181 316 sampleplayer sound10;
#X obj 181 283 sampleplayer sound6;
#X obj 315 255 sampleplayer sound3;
#X obj 453 254 sampleplayer sound4;
#X obj 316 283 sampleplayer sound7;
#X obj 454 282 sampleplayer sound8;
#X obj 42 315 sampleplayer sound9;
#X obj 316 315 sampleplayer sound11;
#X obj 454 314 sampleplayer sound12;
#X obj 43 343 sampleplayer sound13;
#X obj 182 343 sampleplayer sound14;
#X obj 317 343 sampleplayer sound15;
#X obj 455 342 sampleplayer sound16;
#X connect 1 0 5 0;
#X connect 2 0 5 0;
#X connect 3 0 6 0;
#X connect 4 0 6 0;
#X connect 8 0 9 0;
#X connect 10 0 7 0;
#X connect 11 0 9 0;
#X connect 13 0 14 0;
#X connect 13 0 14 1;
#X connect 13 0 76 0;
#X connect 16 0 15 0;
#X connect 17 0 15 0;
#X connect 20 0 19 0;
#X connect 21 0 19 0;
#X connect 22 0 19 0;
#X connect 24 0 32 0;
#X connect 25 0 34 0;
#X connect 26 0 46 0;
#X connect 27 0 28 0;
#X connect 29 0 28 0;
#X connect 31 0 28 0;
#X connect 33 0 34 0;
#X connect 34 0 32 0;
#X connect 34 0 23 0;
#X connect 35 0 38 0;
#X connect 36 0 38 0;
#X connect 37 0 49 0;
#X connect 41 0 39 0;
#X connect 42 0 40 0;
#X connect 43 0 40 0;
#X connect 44 0 39 0;
#X connect 46 0 45 0;
#X connect 47 0 45 0;
#X connect 48 0 0 0;
#X connect 50 0 51 0;
#X connect 52 0 39 0;
#X connect 53 0 40 0;
#X connect 54 0 39 0;
#X connect 55 0 39 0;
#X connect 56 0 40 0;
#X connect 57 0 49 0;
#X connect 58 0 49 0;
#X connect 59 0 40 0;
#X connect 60 0 51 0;
#X connect 61 0 64 0;
#X connect 62 0 64 0;
#X connect 63 0 64 0;
#X connect 65 0 64 0;
#X connect 66 0 63 0;
#X connect 67 0 36 0;
#X connect 68 0 12 0;
#X connect 69 0 12 0;
#X connect 70 0 12 0;
#X connect 71 0 12 0;
#X connect 72 0 12 0;
#X connect 75 0 77 0;
#X connect 77 0 76 0;
#X connect 78 0 49 0;
#X connect 79 0 51 0;
#X connect 80 0 12 0;
#X connect 81 0 49 0;
#X connect 82 0 49 0;
#X connect 83 0 49 0;
#X connect 84 0 49 0;
#X connect 85 0 51 0;
#X connect 86 0 51 0;
#X connect 87 0 51 0;
#X connect 88 0 51 0;
#X connect 89 0 51 0;
