#N canvas 1095 227 492 295 10;
#X declare -path ../externals/bin;
#N canvas 386 88 438 474 ticks 0;
#X obj 59 395 tgl 15 0 empty empty empty 17 7 0 10 -262144 -1 -1 0
1;
#X obj 177 13 receive timerstart;
#X obj 23 33 receive timerstop;
#X msg 107 84 stop;
#N canvas 1202 388 453 316 tickcounter 0;
#X obj 21 10 inlet;
#X obj 80 124 + 1;
#X obj 21 125 float;
#X obj 53 103 0;
#X obj 53 29 r \$0-reset;
#X obj 374 239 s \$0-reset;
#X obj 62 51 r timerstop;
#X obj 21 217 sel 1;
#X obj 374 188 == 3;
#X obj 374 212 sel 1;
#X obj 21 191 == 0;
#X obj 21 242 outlet tick0;
#X obj 107 217 sel 1;
#X obj 107 191 == 1;
#X obj 191 191 == 2;
#X obj 286 191 == 3;
#X obj 107 242 outlet tick1;
#X obj 191 242 outlet tick2;
#X obj 286 242 outlet tick3;
#X obj 191 217 sel 1;
#X obj 286 217 sel 1;
#X connect 0 0 2 0;
#X connect 1 0 2 1;
#X connect 2 0 1 0;
#X connect 2 0 8 0;
#X connect 2 0 10 0;
#X connect 2 0 13 0;
#X connect 2 0 14 0;
#X connect 2 0 15 0;
#X connect 3 0 2 1;
#X connect 4 0 3 0;
#X connect 6 0 3 0;
#X connect 7 0 11 0;
#X connect 8 0 9 0;
#X connect 9 0 5 0;
#X connect 10 0 7 0;
#X connect 12 0 16 0;
#X connect 13 0 12 0;
#X connect 14 0 19 0;
#X connect 15 0 20 0;
#X connect 19 0 17 0;
#X connect 20 0 18 0;
#X restore 177 350 pd tickcounter;
#X obj 23 128 s stopallnotes;
#X obj 177 327 metro;
#X obj 23 66 t b b;
#X msg 204 249 tempo \$1 permin;
#X obj 204 205 receive bpm;
#X obj 204 227 * 4;
#X obj 177 408 send libpdhost-tick;
#X obj 177 102 delay;
#X obj 216 116 send libpdhost-tick;
#X obj 204 280 loadbang;
#X obj 204 302 0.25;
#X obj 177 381 0;
#X obj 177 62 t b f b;
#X obj 216 89 1;
#X connect 0 0 6 0;
#X connect 1 0 17 0;
#X connect 2 0 7 0;
#X connect 3 0 6 0;
#X connect 3 0 12 0;
#X connect 4 0 16 0;
#X connect 6 0 4 0;
#X connect 7 0 5 0;
#X connect 7 1 3 0;
#X connect 8 0 6 0;
#X connect 9 0 10 0;
#X connect 10 0 8 0;
#X connect 12 0 6 0;
#X connect 14 0 15 0;
#X connect 15 0 6 1;
#X connect 16 0 11 0;
#X connect 17 0 12 0;
#X connect 17 1 12 1;
#X connect 17 2 18 0;
#X connect 18 0 13 0;
#X restore 14 17 pd ticks;
#N canvas 1617 337 645 379 sampleplayers 0;
#N canvas 65 546 450 300 subpatchsampler1 0;
#X restore 9 52 pd subpatchsampler1;
#N canvas 65 209 450 300 subpatchsampler2 0;
#X restore 9 73 pd subpatchsampler2;
#N canvas 65 205 450 300 subpatchsampler3 0;
#X restore 9 94 pd subpatchsampler3;
#N canvas 65 205 450 300 subpatchsampler4 0;
#X restore 9 115 pd subpatchsampler4;
#N canvas 65 205 450 300 subpatchsampler5 0;
#X restore 9 137 pd subpatchsampler5;
#N canvas 65 205 450 300 subpatchsampler6 0;
#X restore 9 158 pd subpatchsampler6;
#N canvas 65 205 450 300 subpatchsampler7 0;
#X restore 9 179 pd subpatchsampler7;
#N canvas 65 205 450 300 subpatchsampler8 0;
#X restore 9 200 pd subpatchsampler8;
#N canvas 65 205 450 300 subpatchsampler9 0;
#X restore 9 221 pd subpatchsampler9;
#N canvas 65 205 450 300 subpatchsampler10 0;
#X restore 9 242 pd subpatchsampler10;
#N canvas 65 205 450 300 subpatchsampler12 0;
#X restore 9 284 pd subpatchsampler12;
#N canvas 65 205 450 300 subpatchsampler13 0;
#X restore 9 306 pd subpatchsampler13;
#N canvas 65 205 450 300 subpatchsampler14 0;
#X restore 9 327 pd subpatchsampler14;
#N canvas 65 205 450 300 subpatchsampler15 0;
#X restore 9 348 pd subpatchsampler15;
#N canvas 65 205 450 300 subpatchsampler16 0;
#X restore 161 31 pd subpatchsampler16;
#N canvas 65 205 450 300 subpatchsampler11 0;
#X restore 9 263 pd subpatchsampler11;
#N canvas 65 205 450 300 subpatchsampler17 0;
#X restore 161 52 pd subpatchsampler17;
#N canvas 65 205 450 300 subpatchsampler18 0;
#X restore 161 73 pd subpatchsampler18;
#N canvas 65 205 450 300 subpatchsampler19 0;
#X restore 161 94 pd subpatchsampler19;
#N canvas 65 205 450 300 subpatchsampler20 0;
#X restore 161 115 pd subpatchsampler20;
#N canvas 65 205 450 300 subpatchsampler21 0;
#X restore 161 137 pd subpatchsampler21;
#N canvas 65 205 450 300 subpatchsampler22 0;
#X restore 161 158 pd subpatchsampler22;
#N canvas 65 205 450 300 subpatchsampler23 0;
#X restore 161 179 pd subpatchsampler23;
#N canvas 65 205 450 300 subpatchsampler24 0;
#X restore 161 200 pd subpatchsampler24;
#N canvas 65 205 450 300 subpatchsampler25 0;
#X restore 161 221 pd subpatchsampler25;
#N canvas 65 205 450 300 subpatchsampler26 0;
#X restore 161 242 pd subpatchsampler26;
#N canvas 65 205 450 300 subpatchsampler27 0;
#X restore 161 263 pd subpatchsampler27;
#N canvas 65 205 450 300 subpatchsampler28 0;
#X restore 161 284 pd subpatchsampler28;
#N canvas 65 205 450 300 subpatchsampler29 0;
#X restore 161 306 pd subpatchsampler29;
#N canvas 65 205 450 300 subpatchsampler30 0;
#X restore 161 327 pd subpatchsampler30;
#N canvas 65 205 450 300 subpatchsampler31 0;
#X restore 161 348 pd subpatchsampler31;
#N canvas 65 205 450 300 subpatchsampler32 0;
#X restore 321 31 pd subpatchsampler32;
#N canvas 65 205 450 300 subpatchsampler33 0;
#X restore 321 52 pd subpatchsampler33;
#N canvas 65 205 450 300 subpatchsampler34 0;
#X restore 321 73 pd subpatchsampler34;
#N canvas 65 205 450 300 subpatchsampler35 0;
#X restore 321 94 pd subpatchsampler35;
#N canvas 65 205 450 300 subpatchsampler36 0;
#X restore 321 115 pd subpatchsampler36;
#N canvas 65 205 450 300 subpatchsampler37 0;
#X restore 321 137 pd subpatchsampler37;
#N canvas 65 205 450 300 subpatchsampler38 0;
#X restore 321 158 pd subpatchsampler38;
#N canvas 65 205 450 300 subpatchsampler39 0;
#X restore 321 179 pd subpatchsampler39;
#N canvas 65 205 450 300 subpatchsampler40 0;
#X restore 321 200 pd subpatchsampler40;
#N canvas 65 205 450 300 subpatchsampler41 0;
#X restore 321 221 pd subpatchsampler41;
#N canvas 65 205 450 300 subpatchsampler42 0;
#X restore 321 242 pd subpatchsampler42;
#N canvas 65 205 450 300 subpatchsampler43 0;
#X restore 321 263 pd subpatchsampler43;
#N canvas 65 205 450 300 subpatchsampler44 0;
#X restore 321 284 pd subpatchsampler44;
#N canvas 65 205 450 300 subpatchsampler45 0;
#X restore 321 306 pd subpatchsampler45;
#N canvas 65 205 450 300 subpatchsampler46 0;
#X restore 321 327 pd subpatchsampler46;
#N canvas 65 205 450 300 subpatchsampler47 0;
#X restore 321 348 pd subpatchsampler47;
#N canvas 65 205 450 300 subpatchsampler48 0;
#X restore 486 31 pd subpatchsampler48;
#N canvas 65 205 450 300 subpatchsampler49 0;
#X restore 486 52 pd subpatchsampler49;
#N canvas 65 205 450 300 subpatchsampler50 0;
#X restore 486 73 pd subpatchsampler50;
#N canvas 65 205 450 300 subpatchsampler51 0;
#X restore 486 94 pd subpatchsampler51;
#N canvas 65 205 450 300 subpatchsampler52 0;
#X restore 486 115 pd subpatchsampler52;
#N canvas 65 205 450 300 subpatchsampler53 0;
#X restore 486 137 pd subpatchsampler53;
#N canvas 65 205 450 300 subpatchsampler54 0;
#X restore 486 158 pd subpatchsampler54;
#N canvas 65 205 450 300 subpatchsampler55 0;
#X restore 486 179 pd subpatchsampler55;
#N canvas 65 205 450 300 subpatchsampler56 0;
#X restore 486 200 pd subpatchsampler56;
#N canvas 65 205 450 300 subpatchsampler57 0;
#X restore 486 221 pd subpatchsampler57;
#N canvas 65 205 450 300 subpatchsampler58 0;
#X restore 486 242 pd subpatchsampler58;
#N canvas 65 205 450 300 subpatchsampler59 0;
#X restore 486 263 pd subpatchsampler59;
#N canvas 65 205 450 300 subpatchsampler60 0;
#X restore 486 284 pd subpatchsampler60;
#N canvas 65 205 450 300 subpatchsampler61 0;
#X restore 486 306 pd subpatchsampler61;
#N canvas 65 205 450 300 subpatchsampler62 0;
#X restore 486 327 pd subpatchsampler62;
#N canvas 65 205 450 300 subpatchsampler63 0;
#X restore 486 348 pd subpatchsampler63;
#N canvas 161 697 450 300 subpatchsampler0 0;
#X restore 9 31 pd subpatchsampler0;
#N canvas 2022 172 576 265 addsamplertrack 0;
#X obj 38 36 r addsamplertrack;
#X msg 192 168 \; pd-subpatchsampler\$1 obj 0 0 sampleplayer sound\$1
;
#X msg 77 165 \; pd dsp 0 \;;
#X msg 38 200 \; pd dsp 1 \;;
#X msg 160 204 \; pd-subpatchsampler\$1 loadbang;
#X obj 160 144 t f f;
#X obj 38 67 t b f b;
#X connect 0 0 6 0;
#X connect 5 0 4 0;
#X connect 5 1 1 0;
#X connect 6 0 3 0;
#X connect 6 1 5 0;
#X connect 6 2 2 0;
#X restore 246 8 pd addsamplertrack;
#X restore 14 38 pd sampleplayers;
#X obj 14 185 r dsp-on;
#X msg 97 214 \; pd dsp 0 \;;
#X obj 97 185 r dsp-off;
#X msg 14 214 \; pd dsp 1 \;;
#N canvas 2281 415 294 370 drumplayers 0;
#N canvas 65 209 450 300 subpatchdrum0 0;
#X restore 11 30 pd subpatchdrum0;
#N canvas 65 205 450 300 subpatchdrum1 0;
#X restore 11 51 pd subpatchdrum1;
#N canvas 65 205 450 300 subpatchdrum2 0;
#X restore 11 72 pd subpatchdrum2;
#N canvas 65 205 450 300 subpatchdrum3 0;
#X restore 11 94 pd subpatchdrum3;
#N canvas 65 205 450 300 subpatchdrum4 0;
#X restore 11 114 pd subpatchdrum4;
#N canvas 65 205 450 300 subpatchdrum5 0;
#X restore 11 135 pd subpatchdrum5;
#N canvas 65 205 450 300 subpatchdrum6 0;
#X restore 11 156 pd subpatchdrum6;
#N canvas 65 205 450 300 subpatchdrum7 0;
#X restore 11 178 pd subpatchdrum7;
#N canvas 65 205 450 300 subpatchdrum8 0;
#X restore 11 199 pd subpatchdrum8;
#N canvas 65 205 450 300 subpatchdrum9 0;
#X restore 11 220 pd subpatchdrum9;
#N canvas 65 205 450 300 subpatchdrum10 0;
#X restore 11 241 pd subpatchdrum10;
#N canvas 65 205 450 300 subpatchdrum11 0;
#X restore 11 263 pd subpatchdrum11;
#N canvas 65 205 450 300 subpatchdrum12 0;
#X restore 11 283 pd subpatchdrum12;
#N canvas 65 205 450 300 subpatchdrum13 0;
#X restore 11 304 pd subpatchdrum13;
#N canvas 65 205 450 300 subpatchdrum14 0;
#X restore 11 325 pd subpatchdrum14;
#N canvas 65 205 450 300 subpatchdrum15 0;
#X restore 11 347 pd subpatchdrum15;
#N canvas 65 205 450 300 subpatchdrum16 0;
#X restore 156 30 pd subpatchdrum16;
#N canvas 65 205 450 300 subpatchdrum17 0;
#X restore 156 51 pd subpatchdrum17;
#N canvas 65 205 450 300 subpatchdrum18 0;
#X restore 156 72 pd subpatchdrum18;
#N canvas 65 205 450 300 subpatchdrum19 0;
#X restore 156 94 pd subpatchdrum19;
#N canvas 65 205 450 300 subpatchdrum20 0;
#X restore 156 114 pd subpatchdrum20;
#N canvas 65 205 450 300 subpatchdrum21 0;
#X restore 156 135 pd subpatchdrum21;
#N canvas 65 205 450 300 subpatchdrum22 0;
#X restore 156 156 pd subpatchdrum22;
#N canvas 65 205 450 300 subpatchdrum23 0;
#X restore 156 178 pd subpatchdrum23;
#N canvas 65 205 450 300 subpatchdrum24 0;
#X restore 156 199 pd subpatchdrum24;
#N canvas 65 205 450 300 subpatchdrum25 0;
#X restore 156 220 pd subpatchdrum25;
#N canvas 65 205 450 300 subpatchdrum26 0;
#X restore 156 241 pd subpatchdrum26;
#N canvas 65 205 450 300 subpatchdrum27 0;
#X restore 156 263 pd subpatchdrum27;
#N canvas 65 205 450 300 subpatchdrum28 0;
#X restore 156 283 pd subpatchdrum28;
#N canvas 65 205 450 300 subpatchdrum29 0;
#X restore 156 304 pd subpatchdrum29;
#N canvas 65 205 450 300 subpatchdrum30 0;
#X restore 155 325 pd subpatchdrum30;
#N canvas 65 205 450 300 subpatchdrum31 0;
#X restore 156 347 pd subpatchdrum31;
#N canvas 1710 370 686 258 adddrumtrack 0;
#X obj 189 113 t f f;
#X obj 64 4 r adddrumtrack;
#X msg 189 174 \; pd-subpatchdrum\$1 loadbang;
#X msg 221 138 \; pd-subpatchdrum\$1 obj 0 0 drumplayer drums\$1;
#X obj 64 38 t b f b;
#X msg 103 176 \; pd dsp 0 \;;
#X msg 64 211 \; pd dsp 1 \;;
#X connect 0 0 2 0;
#X connect 0 1 3 0;
#X connect 1 0 4 0;
#X connect 4 0 6 0;
#X connect 4 1 0 0;
#X connect 4 2 5 0;
#X restore 92 6 pd adddrumtrack;
#X restore 14 59 pd drumplayers;
#N canvas 978 137 438 405 lfowaves 0;
#X obj 80 108 soundfiler;
#X obj 80 65 loadbang;
#X obj 226 11 table tmpwave;
#X obj 226 34 table lfowavesine;
#X obj 80 165 until;
#X obj 80 225 trigger float float;
#X obj 80 193 float 0;
#X obj 144 192 + 1;
#X obj 80 137 trigger float float;
#X msg 191 163 resize 44100;
#X obj 80 288 expr ($f1+1)/2;
#X obj 80 258 tabread tmpwave;
#X obj 191 191 s lfowavesine;
#X obj 80 321 tabwrite lfowavesine;
#X msg 80 87 read -resize ../wavs/sine1hz.wav tmpwave;
#X connect 0 0 8 0;
#X connect 1 0 14 0;
#X connect 4 0 6 0;
#X connect 5 0 11 0;
#X connect 5 1 13 1;
#X connect 6 0 5 0;
#X connect 6 0 7 0;
#X connect 7 0 6 1;
#X connect 8 0 4 0;
#X connect 8 1 9 0;
#X connect 9 0 12 0;
#X connect 10 0 13 0;
#X connect 11 0 10 0;
#X connect 14 0 0 0;
#X restore 14 80 pd lfowaves;
#N canvas 270 366 450 368 onpause 0;
#X obj 91 33 r onpause;
#X obj 118 239 s clearfx, f 10;
#X obj 91 191 delay 200;
#X msg 91 264 onpause;
#X obj 106 168 s clearfx;
#X obj 91 213 t b b;
#X obj 91 58 t b b b b b;
#X obj 122 146 s muteallnotes;
#X obj 138 126 s stopallnotes;
#X obj 154 82 0;
#X obj 154 105 s mastervol;
#X obj 91 289 s libpdhost-onpause;
#X connect 0 0 6 0;
#X connect 2 0 5 0;
#X connect 3 0 11 0;
#X connect 5 0 3 0;
#X connect 5 1 1 0;
#X connect 6 0 2 0;
#X connect 6 1 4 0;
#X connect 6 2 7 0;
#X connect 6 3 8 0;
#X connect 6 4 9 0;
#X connect 9 0 10 0;
#X restore 14 101 pd onpause;
#N canvas 53 115 392 348 output 0;
#X obj 128 304 dac~;
#X obj 38 40 catch~ mainoutputL;
#X obj 258 40 catch~ mainoutputR;
#N canvas 648 546 534 263 lowpass 0;
#X obj 76 22 inlet~;
#X obj 221 25 inlet~;
#X obj 76 168 faustreson~;
#X obj 221 168 faustreson~;
#X obj 76 214 outlet~;
#X obj 221 216 outlet~;
#X obj 99 101 sig~;
#X obj 245 101 sig~;
#X obj 144 31 loadbang;
#X obj 361 64 loadbang;
#X obj 361 126 switch~;
#X msg 361 97 1;
#X msg 144 59 16000;
#X connect 0 0 2 0;
#X connect 1 0 3 0;
#X connect 2 0 4 0;
#X connect 3 0 5 0;
#X connect 6 0 2 1;
#X connect 7 0 3 1;
#X connect 8 0 12 0;
#X connect 9 0 11 0;
#X connect 11 0 10 0;
#X connect 12 0 7 0;
#X connect 12 0 6 0;
#X restore 111 228 pd lowpass;
#X obj 126 88 r mastervol;
#X obj 257 172 *~;
#X obj 37 168 *~;
#X obj 53 94 loadbang;
#X msg 53 115 1 0;
#X obj 66 265 expr~ tanh($v1);
#X obj 191 265 expr~ tanh($v1);
#X obj 126 132 line~;
#X msg 126 110 \$1 100;
#X obj 38 63 *~ 0.3;
#X obj 258 64 *~ 0.3;
#X connect 1 0 13 0;
#X connect 2 0 14 0;
#X connect 3 0 9 0;
#X connect 3 1 10 0;
#X connect 4 0 12 0;
#X connect 5 0 3 1;
#X connect 6 0 3 0;
#X connect 7 0 8 0;
#X connect 8 0 11 0;
#X connect 9 0 0 0;
#X connect 10 0 0 1;
#X connect 11 0 5 1;
#X connect 11 0 6 1;
#X connect 12 0 11 0;
#X connect 13 0 6 0;
#X connect 14 0 5 0;
#X restore 14 145 pd output;
#X text 263 29 start in one of these;
#X obj 264 77 drumcontrolsui testdrumplayer;
#X obj 264 53 samplercontrolsui testsampleplayer;
#X obj 14 261 declare -path ../externals/bin;
#N canvas 354 245 576 389 synctick 1;
#X obj 50 128 metro 500;
#X obj 112 160 + 1;
#X obj 50 161 float;
#X obj 112 136 0;
#X obj 120 205 == 1;
#X obj 120 231 sel 1;
#X obj 50 20 r synctickstart;
#X obj 50 275 == 0;
#X obj 50 298 sel 1;
#X obj 245 224 *~;
#X obj 261 200 line~;
#X obj 245 347 throw~ mainoutputL;
#X obj 295 322 throw~ mainoutputR;
#X obj 261 138 delay 70;
#X obj 261 102 trigger bang bang;
#X obj 261 77 r \$0-playsound;
#X obj 131 268 s \$0-playsound;
#X msg 316 168 1 2;
#N canvas 656 519 665 408 oscillators 0;
#X obj 296 66 osc~ 880;
#X obj 296 112 *~ 0.4;
#X obj 106 134 *~ 0.3;
#X obj 142 112 hsl 128 15 0 1 0 0 empty empty empty -2 -8 0 10 -262144
-1 -1 0 1;
#X obj 332 92 hsl 128 15 0 1 0 0 empty empty empty -2 -8 0 10 -262144
-1 -1 0 1;
#X obj 468 118 *~ 0.4;
#X obj 504 98 hsl 128 15 0 1 0 0 empty empty empty -2 -8 0 10 -262144
-1 -1 0 1;
#X obj 105 193 lop~;
#X floatatom 126 164 0 0 0 0 - - -;
#X obj 468 74 osc~ 1760;
#X obj 408 107 nbx 5 14 -1e+37 1e+37 0 0 empty empty empty 0 -8 0 10
-262144 -1 -1 0 256;
#X obj 580 113 nbx 5 14 -1e+37 1e+37 0 0 empty empty empty 0 -8 0 10
-262144 -1 -1 0 256;
#X obj 218 127 nbx 5 14 -1e+37 1e+37 0 0 empty empty empty 0 -8 0 10
-262144 -1 -1 0 256;
#X obj 107 86 phasor~ 440;
#X obj 288 319 outlet~;
#X connect 0 0 1 0;
#X connect 1 0 14 0;
#X connect 2 0 7 0;
#X connect 3 0 2 1;
#X connect 3 0 12 0;
#X connect 4 0 1 1;
#X connect 4 0 10 0;
#X connect 5 0 14 0;
#X connect 6 0 5 1;
#X connect 6 0 11 0;
#X connect 7 0 14 0;
#X connect 8 0 7 1;
#X connect 9 0 5 0;
#X connect 13 0 2 0;
#X restore 245 49 pd oscillators;
#X obj 50 49 1;
#X obj 112 65 0;
#X obj 112 42 r synctickstop;
#X obj 425 184 r synctickstart;
#X obj 425 213 1;
#X obj 458 236 0;
#X obj 458 209 r synctickstop;
#X obj 425 271 switch~;
#X obj 426 49 bng 15 250 50 0 empty empty empty 17 7 0 10 -262144 -1
-1;
#X obj 426 68 s synctickstart;
#X obj 426 101 bng 15 250 50 0 empty empty empty 17 7 0 10 -262144
-1 -1;
#X obj 426 120 s synctickstop;
#X obj 50 326 2;
#X obj 50 351 s libpdhost-tick;
#X obj 122 113 r \$0-counterreset;
#X obj 120 292 s \$0-counterreset;
#X msg 261 168 0 70;
#N canvas 471 336 855 625 reverb 1;
#X obj 144 229 faustrevstereo~;
#X obj 187 129 * 0.9;
#X obj 103 414 r fx-\$0-7L;
#X obj 376 416 r fx-\$0-7R;
#X obj 338 388 crossfadeequal~;
#X obj 79 379 crossfadeequal~;
#X obj 166 355 * 0.4;
#X obj 425 366 * 0.4;
#X obj 337 176 inlet~ R;
#X obj 143 13 inlet~ L;
#X obj 78 442 outlet~;
#X obj 338 447 outlet~;
#X obj 257 100 1;
#X obj 222 16 loadbang;
#X obj 172 297 loadbang;
#X obj 355 69 hsl 128 15 0 1 0 0 empty empty damp -2 -8 0 10 -262144
-1 -1 0 1;
#X obj 355 22 hsl 128 15 0 1 0 0 empty empty roomsize -2 -8 0 10 -262144
-1 -1 0 1;
#X obj 357 115 hsl 128 15 0 1 0 0 empty empty spread -2 -8 0 10 -262144
-1 -1 0 1;
#X obj 431 84 nbx 5 14 -1e+37 1e+37 0 0 empty empty empty 0 -8 0 10
-262144 -1 -1 0 256;
#X obj 431 37 nbx 5 14 -1e+37 1e+37 0 0 empty empty empty 0 -8 0 10
-262144 -1 -1 0 256;
#X obj 433 130 nbx 5 14 -1e+37 1e+37 0 0 empty empty empty 0 -8 0 10
-262144 -1 -1 0 256;
#X obj 420 260 hsl 128 15 0 1 0 0 empty empty wet -2 -8 0 10 -262144
-1 -1 0 1;
#X obj 496 275 nbx 5 14 -1e+37 1e+37 0 0 empty empty empty 0 -8 0 10
-262144 -1 -1 0 256;
#X obj 187 99 0.6;
#X obj 225 99 0.74;
#X obj 170 324 0.7;
#X connect 0 0 5 1;
#X connect 0 1 4 1;
#X connect 1 0 0 2;
#X connect 2 0 10 0;
#X connect 3 0 11 0;
#X connect 4 0 11 0;
#X connect 5 0 10 0;
#X connect 6 0 5 2;
#X connect 7 0 4 2;
#X connect 8 0 0 1;
#X connect 8 0 4 0;
#X connect 9 0 0 0;
#X connect 9 0 5 0;
#X connect 12 0 0 4;
#X connect 13 0 12 0;
#X connect 13 0 23 0;
#X connect 13 0 24 0;
#X connect 14 0 25 0;
#X connect 15 0 18 0;
#X connect 15 0 0 3;
#X connect 16 0 19 0;
#X connect 16 0 0 2;
#X connect 17 0 20 0;
#X connect 17 0 0 4;
#X connect 21 0 22 0;
#X connect 21 0 7 0;
#X connect 21 0 6 0;
#X connect 23 0 1 0;
#X connect 24 0 0 3;
#X connect 25 0 6 0;
#X connect 25 0 7 0;
#X restore 244 274 pd reverb;
#X connect 0 0 2 0;
#X connect 1 0 2 1;
#X connect 2 0 1 0;
#X connect 2 0 4 0;
#X connect 2 0 7 0;
#X connect 3 0 2 1;
#X connect 4 0 5 0;
#X connect 5 0 16 0;
#X connect 5 0 34 0;
#X connect 6 0 19 0;
#X connect 7 0 8 0;
#X connect 8 0 31 0;
#X connect 9 0 36 0;
#X connect 9 0 36 1;
#X connect 10 0 9 1;
#X connect 13 0 35 0;
#X connect 14 0 13 0;
#X connect 14 1 17 0;
#X connect 15 0 14 0;
#X connect 17 0 10 0;
#X connect 18 0 9 0;
#X connect 19 0 0 0;
#X connect 20 0 0 0;
#X connect 20 0 3 0;
#X connect 21 0 20 0;
#X connect 22 0 23 0;
#X connect 23 0 26 0;
#X connect 24 0 26 0;
#X connect 25 0 24 0;
#X connect 27 0 28 0;
#X connect 29 0 30 0;
#X connect 31 0 32 0;
#X connect 33 0 3 0;
#X connect 35 0 10 0;
#X connect 36 0 11 0;
#X connect 36 1 12 0;
#X restore 14 123 pd synctick;
#X connect 2 0 5 0;
#X connect 4 0 3 0;
