#N canvas 1811 303 930 604 10;
#X obj 46 404 catch~ soundoutput;
#X obj 40 531 dac~;
#X obj 483 180 send android;
#X obj 537 122 receive playlist;
#X obj 462 63 tgl 15 0 empty empty empty 17 7 0 10 -262144 -1 -1 1
1;
#X msg 527 416 add 123;
#X obj 524 481 send playlist;
#X msg 518 389 set \;;
#X obj 40 255 sampleplayer sound1;
#X obj 489 60 receive timerstart;
#X msg 37 114 1;
#X msg 338 142 7;
#X msg 194 137 8;
#X msg 151 139 7;
#X msg 372 143 8;
#X msg 19 12 ../sounds/fluidc4.wav;
#X msg 39 35 ../sounds/saw400.wav;
#X msg 193 8 ../sounds/trumpet55.wav;
#X msg 206 29 ../sounds/sine400.wav;
#X msg 206 51 ../sounds/ohh.wav;
#X obj 365 31 midicontrol;
#N canvas 0 50 450 300 (subpatch) 0;
#X array outputmonitor 100 float 0;
#X coords 0 -1 100 1 200 100 1;
#X restore 293 387 graph;
#X obj 128 524 tabwrite~ outputmonitor;
#X obj 128 492 metro 50;
#X msg 101 142 6;
#X msg 289 149 6;
#X msg 222 81 ../sounds/sine400lowamp.wav;
#X msg 71 115 2;
#X msg 114 115 3;
#X msg 150 115 4;
#X msg 65 144 5;
#X msg 243 116 1;
#X msg 280 117 2;
#X msg 323 117 3;
#X msg 359 117 4;
#X msg 244 147 5;
#X obj 128 468 tgl 15 0 empty empty empty 17 7 0 10 -262144 -1 -1 0
1;
#N canvas 132 606 489 314 limiter 0;
#X obj 109 42 inlet~;
#X obj 107 272 outlet~;
#X obj 108 240 *~;
#X obj 171 58 env~;
#X obj 171 86 dbtorms;
#X msg 171 141 1 \$1;
#X obj 171 169 /;
#X obj 171 197 min 1;
#X obj 171 113 + 0.5;
#X obj 171 224 lop~ 5;
#X text 17 2 Simple limiter from http://puredata.hurleur.com/sujet-5718-limiter-vanilla-objects-expr
;
#X connect 0 0 2 0;
#X connect 0 0 3 0;
#X connect 2 0 1 0;
#X connect 3 0 4 0;
#X connect 4 0 8 0;
#X connect 5 0 6 0;
#X connect 6 0 7 0;
#X connect 7 0 9 0;
#X connect 8 0 5 0;
#X connect 9 0 2 1;
#X restore 47 462 pd limiter;
#X obj 46 506 *~ 0.25;
#X obj 483 11 receive timerstop;
#X msg 483 37 stop;
#X obj 550 82 receive setdelayms;
#X msg 546 443 add sound1-noteon 3;
#X msg 490 506 add sound1-line-attack 1 4000;
#X msg 537 153 123 \;;
#X obj 54 88 send sound1-filename;
#X obj 700 203 loadbang;
#X obj 627 285 send sound2-attack;
#X obj 660 307 send sound2-decay;
#X obj 691 332 send sound2-sustain;
#X obj 726 354 send sound2-release;
#X msg 628 253 150;
#X msg 660 253 150;
#X msg 691 253 0.8;
#X msg 726 253 400;
#X obj 41 189 send sound1-noteon;
#X obj 217 193 send sound1-noteoff;
#X obj 748 174 send sound1-noteon;
#X obj 811 139 send sound1-noteoff;
#X msg 728 136 20;
#X msg 807 104 20;
#X obj 42 283 sampleplayer sound5;
#X obj 180 255 sampleplayer sound2;
#X obj 181 316 sampleplayer sound10;
#X obj 181 283 sampleplayer sound6;
#X obj 315 255 sampleplayer sound3;
#X obj 453 254 sampleplayer sound4;
#X obj 316 283 sampleplayer sound7;
#X obj 454 282 sampleplayer sound8;
#X obj 42 315 sampleplayer sound9;
#X obj 316 315 sampleplayer sound11;
#X obj 454 314 sampleplayer sound12;
#X obj 43 343 sampleplayer sound13;
#X obj 182 343 sampleplayer sound14;
#X obj 317 343 sampleplayer sound15;
#X obj 455 342 sampleplayer sound16;
#X obj 483 99 metro 1500;
#X obj 787 81 delay 300;
#X connect 0 0 37 0;
#X connect 3 0 44 0;
#X connect 4 0 76 0;
#X connect 5 0 6 0;
#X connect 7 0 6 0;
#X connect 9 0 76 0;
#X connect 10 0 55 0;
#X connect 11 0 56 0;
#X connect 12 0 55 0;
#X connect 13 0 55 0;
#X connect 14 0 56 0;
#X connect 15 0 45 0;
#X connect 16 0 45 0;
#X connect 17 0 45 0;
#X connect 18 0 45 0;
#X connect 19 0 45 0;
#X connect 23 0 22 0;
#X connect 24 0 55 0;
#X connect 25 0 56 0;
#X connect 26 0 45 0;
#X connect 27 0 55 0;
#X connect 28 0 55 0;
#X connect 29 0 55 0;
#X connect 30 0 55 0;
#X connect 31 0 56 0;
#X connect 32 0 56 0;
#X connect 33 0 56 0;
#X connect 34 0 56 0;
#X connect 35 0 56 0;
#X connect 36 0 23 0;
#X connect 37 0 38 0;
#X connect 38 0 1 0;
#X connect 38 0 1 1;
#X connect 38 0 22 0;
#X connect 39 0 40 0;
#X connect 40 0 76 0;
#X connect 41 0 76 1;
#X connect 42 0 6 0;
#X connect 43 0 6 0;
#X connect 46 0 51 0;
#X connect 46 0 52 0;
#X connect 46 0 53 0;
#X connect 46 0 54 0;
#X connect 51 0 47 0;
#X connect 52 0 48 0;
#X connect 53 0 49 0;
#X connect 54 0 50 0;
#X connect 59 0 57 0;
#X connect 60 0 58 0;
#X connect 76 0 44 0;
#X connect 76 0 2 0;
#X connect 76 0 59 0;
#X connect 76 0 77 0;
#X connect 77 0 60 0;
