#N canvas 613 500 1379 534 10;
#X obj 72 -362 vsl 15 128 0 1 0 0 sound1-filtercutoff empty empty 0
-9 0 10 -262144 -1 -1 0 1;
#X obj 94 -327 vradio 15 1 0 3 sound1-filterselect empty empty 0 -8
0 10 -262144 -1 -1 0;
#X text 110 -327 off;
#X text 111 -294 lowpass;
#X text 111 -311 highpass;
#X obj 177 -361 hsl 45 15 0 2000 0 0 sound1-filterattack sound1-filterattack-ui
empty -2 -8 0 5 -262144 -1 -1 0 1;
#X text 227 -362 attack;
#X obj 177 -341 hsl 45 15 0 2000 0 0 sound1-filterdecay sound1-filterdecay-ui
empty -2 -8 0 5 -262144 -1 -1 0 1;
#X obj 177 -321 hsl 45 15 0 1 0 0 sound1-filtersustain sound1-filtersustain-ui
empty -2 -8 0 5 -262144 -1 -1 4400 1;
#X obj 177 -300 hsl 45 15 0 2000 0 0 sound1-filterrelease sound1-filterrelease-ui
empty -2 -8 0 5 -262144 -1 -1 4400 1;
#X text 227 -322 sustain;
#X text 227 -301 release;
#X text 227 -342 decay;
#X text 60 -382 cutoff;
#X obj 50 -407 cnv 15 230 25 empty empty FILTER2 20 12 0 20 -257985
-66577 0;
#X text 60 -382 cutoff;
#X obj 50 -407 cnv 15 230 25 empty empty FILTER 20 12 0 20 -257985
-66577 0;
#X obj 344 -406 cnv 15 200 25 empty empty LFO 20 12 0 20 -257985 -66577
0;
#X obj 355 -362 vsl 15 128 0.25 10 0 0 sound1-lforate empty empty 0
-9 0 10 -262144 -1 -1 0 1;
#X text 349 -381 rate;
#X obj 391 -362 vsl 15 128 0 1 0 0 sound1-lfodepth empty empty 0 -9
0 10 -262144 -1 -1 0 1;
#X text 385 -381 depth;
#X obj 434 -355 vradio 15 1 0 4 sound1-lfoconnection empty empty 0
-8 0 10 -262144 -1 -1 0;
#X text 452 -356 off;
#X text 451 -341 volume;
#X text 452 -326 pitch;
#X text 450 -309 filter;
#X obj 737 -406 cnv 15 100 25 sound1-loopon empty LOOP 20 12 0 20 -257985
-66577 0;
#X obj 785 -127 cnv 15 160 15 empty empty Reverb 10 8 0 12 -191407
-66577 0;
#X obj 909 -352 hsl 128 15 0 2000 0 0 sound1-attack sound1-attack-ui
empty -2 -8 0 10 -262144 -1 -1 0 1;
#X text 903 -368 attack;
#X obj 909 -319 hsl 128 15 0 2000 0 0 sound1-decay sound1-decay-ui
empty -2 -8 0 10 -262144 -1 -1 0 1;
#X obj 910 -286 hsl 128 15 0 1 0 0 sound1-sustain sound1-sustain-ui
empty -2 -8 0 10 -262144 -1 -1 12700 1;
#X obj 911 -254 hsl 128 15 0 2000 0 0 sound1-release sound1-release-ui
empty -2 -8 0 10 -262144 -1 -1 0 1;
#X text 903 -335 decay;
#X text 904 -302 sustain;
#X text 905 -270 release;
#X obj 743 -323 hsl 128 15 0 103897 0 0 sound1-loopstart sound1-loopstart-ui
loopstart -2 -8 0 10 -262144 -1 -1 0 1;
#X obj 744 -267 hsl 128 15 0 103897 0 0 sound1-loopend sound1-loopend-ui
loopend -2 -8 0 10 -262144 -1 -1 4900 1;
#X obj 741 -361 tgl 15 1 sound1-loopon empty loop 17 7 0 10 -262144
-1 -1 1 1;
#X obj 347 -111 receive sound1-samplelength;
#X obj -103 -176 cnv 15 610 30 empty empty DEFAULTS 20 12 0 18 -233017
-66577 0;
#X obj -30 -106 loadbang;
#X obj -103 -24 send sound1-attack-ui;
#X obj -70 -2 send sound1-decay-ui;
#X obj -39 23 send sound1-sustain-ui;
#X obj -4 45 send sound1-release-ui;
#X obj 121 -110 loadbang;
#X obj 48 -28 send sound1-filterattack-ui;
#X obj 81 -6 send sound1-filterdecay-ui;
#X obj 112 19 send sound1-filtersustain-ui;
#X obj 147 41 send sound1-filterrelease-ui;
#X msg 49 -60 0;
#X msg 81 -60 0;
#X msg 112 -60 1;
#X msg 147 -60 2000;
#X msg 384 -32 set \$1;
#X floatatom 741 -249 10 0 0 0 - - -, f 10;
#X floatatom 740 -302 10 0 0 0 - - -, f 10;
#X msg -102 -56 0;
#X msg -70 -56 0;
#X msg -39 -56 1;
#X msg -4 -56 0;
#X obj -39 -357 notein;
#X obj -67 -265 send sound1-noteon;
#X obj -92 -244 send sound1-noteoff;
#X obj -92 -289 route 0 1;
#X obj -92 -311 list prepend;
#X obj -23 -333 > 0;
#X obj -92 -334 - 47;
#X floatatom 1048 -337 10 0 0 0 - - -, f 10;
#X floatatom 1048 -304 10 0 0 0 - - -, f 10;
#X floatatom 1048 -271 10 0 0 0 - - -, f 10;
#X floatatom 1049 -239 10 0 0 0 - - -, f 10;
#X obj 902 -405 cnv 15 150 25 empty empty VOL-ENV 20 12 0 25 -257985
-66577 0;
#X obj 783 -159 cnv 15 160 25 empty empty FX 10 12 0 25 -257985 -66577
0;
#X obj 785 -103 tgl 15 0 empty empty empty 17 7 0 10 -262144 -1 -1
0 1;
#X text 803 -104 enable;
#X obj 853 -103 bng 15 250 50 0 empty empty empty 17 7 0 10 -262144
-1 -1;
#X text 872 -104 up;
#X obj 900 -103 bng 15 250 50 0 empty empty empty 17 7 0 10 -262144
-1 -1;
#X text 919 -104 down;
#X obj 567 -406 cnv 15 100 25 sound1-loopon empty SAMPLE 20 12 0 20
-257985 -66577 0;
#X obj 572 -352 hsl 128 15 0 103897 0 0 sound1-samplestart sound1-samplestart-ui
samplestart -2 -8 0 10 -262144 -1 -1 1500 1;
#X obj 573 -296 hsl 128 15 0 103897 0 0 sound1-sampleend sound1-sampleend-ui
sampleend -2 -8 0 10 -262144 -1 -1 9500 1;
#X floatatom 570 -278 10 0 0 0 - - -, f 10;
#X floatatom 569 -331 10 0 0 0 - - -, f 10;
#X msg 444 -63 \; sound1-loopend-ui range 0 \$1 \; sound1-loopstart-ui
range 0 \$1 \; sound1-sampleend-ui range 0 \$1 \; sound1-samplestart-ui
range 0 \$1;
#X obj 347 -80 trigger b f f;
#X msg 347 -47 0;
#X obj 376 60 send sound1-samplestart-ui;
#X obj 397 12 send sound1-loopend-ui;
#X obj 384 35 send sound1-sampleend-ui;
#X obj 347 81 send sound1-loopstart-ui;
#X connect 29 0 70 0;
#X connect 31 0 71 0;
#X connect 32 0 72 0;
#X connect 33 0 73 0;
#X connect 37 0 58 0;
#X connect 38 0 57 0;
#X connect 40 0 88 0;
#X connect 42 0 59 0;
#X connect 42 0 60 0;
#X connect 42 0 61 0;
#X connect 42 0 62 0;
#X connect 47 0 52 0;
#X connect 47 0 53 0;
#X connect 47 0 54 0;
#X connect 47 0 55 0;
#X connect 52 0 48 0;
#X connect 53 0 49 0;
#X connect 54 0 50 0;
#X connect 55 0 51 0;
#X connect 56 0 91 0;
#X connect 56 0 92 0;
#X connect 59 0 43 0;
#X connect 60 0 44 0;
#X connect 61 0 45 0;
#X connect 62 0 46 0;
#X connect 63 0 69 0;
#X connect 63 1 68 0;
#X connect 66 0 65 0;
#X connect 66 1 64 0;
#X connect 67 0 66 0;
#X connect 68 0 67 1;
#X connect 69 0 67 0;
#X connect 83 0 86 0;
#X connect 84 0 85 0;
#X connect 88 0 89 0;
#X connect 88 1 87 0;
#X connect 88 1 56 0;
#X connect 89 0 90 0;
#X connect 89 0 93 0;
#X coords 0 0 1 1 85 60 0;
