#N canvas 109 561 1360 515 10;
#X obj 72 -362 vsl 15 128 0 1 0 0 sound1-filtercutoff empty cutoff
-10 -9 0 10 -262144 -1 -1 0 1;
#X obj 94 -327 vradio 15 1 0 3 sound1-filterselect empty empty 0 -8
0 10 -262144 -1 -1 0;
#X text 110 -327 off;
#X text 111 -294 lowpass;
#X text 111 -311 highpass;
#X obj 177 -361 hsl 45 15 0 2000 0 1 sound1-filterattack sound1-filterattack-ui
attack 52 7 0 10 -262144 -1 -1 0 1;
#X obj 177 -341 hsl 45 15 0 2000 0 1 sound1-filterdecay sound1-filterdecay-ui
decay 52 7 0 10 -262144 -1 -1 0 1;
#X obj 177 -321 hsl 45 15 0 1 0 1 sound1-filtersustain sound1-filtersustain-ui
sustain 52 7 0 10 -262144 -1 -1 4400 1;
#X obj 177 -300 hsl 45 15 0 2000 0 1 sound1-filterrelease sound1-filterrelease-ui
release 52 7 0 10 -262144 -1 -1 4400 1;
#X obj 50 -407 cnv 15 230 25 empty empty FILTER2 20 12 0 20 -257985
-66577 0;
#X obj 50 -407 cnv 15 230 25 empty empty FILTER 20 12 0 20 -257985
-66577 0;
#X obj 344 -406 cnv 15 200 25 empty empty LFO 20 12 0 20 -257985 -66577
0;
#X obj 355 -362 vsl 15 128 0.25 10 0 0 sound1-lforate empty rate -5
-9 0 10 -262144 -1 -1 0 1;
#X obj 391 -362 vsl 15 128 0 1 0 0 sound1-lfodepth empty depth -5 -9
0 10 -262144 -1 -1 0 1;
#X obj 434 -355 vradio 15 1 0 4 sound1-lfoconnection empty empty 0
-8 0 10 -262144 -1 -1 0;
#X text 452 -356 off;
#X text 451 -341 volume;
#X text 452 -326 pitch;
#X text 450 -309 filter;
#X obj 737 -406 cnv 15 100 25 sound1-loopon empty LOOP 20 12 0 20 -257985
-66577 0;
#X obj 909 -352 hsl 128 15 0 2000 0 1 sound1-attack sound1-attack-ui
attack -2 -8 0 10 -262144 -1 -1 0 1;
#X obj 909 -319 hsl 128 15 0 2000 0 1 sound1-decay sound1-decay-ui
decay -2 -8 0 10 -262144 -1 -1 0 1;
#X obj 910 -286 hsl 128 15 0 1 0 1 sound1-sustain sound1-sustain-ui
sustain -2 -8 0 10 -262144 -1 -1 12700 1;
#X obj 911 -254 hsl 128 15 0 2000 0 1 sound1-release sound1-release-ui
release -2 -8 0 10 -262144 -1 -1 0 1;
#X obj 743 -323 hsl 128 15 0 103897 0 0 sound1-loopstart sound1-loopstart-ui
loopstart -2 -8 0 10 -262144 -1 -1 0 1;
#X obj 744 -267 hsl 128 15 0 103897 0 0 sound1-loopend sound1-loopend-ui
loopend -2 -8 0 10 -262144 -1 -1 12700 1;
#X obj 741 -361 tgl 15 1 sound1-loopon empty loop 17 7 0 10 -262144
-1 -1 1 1;
#X obj -94 -126 receive sound1-samplelength;
#X obj -103 -176 cnv 15 610 30 empty empty DEFAULTS 20 12 0 18 -233017
-66577 0;
#X msg -57 -47 set \$1;
#X floatatom 741 -249 10 0 0 0 - - -, f 10;
#X floatatom 740 -302 10 0 0 0 - - -, f 10;
#X obj -39 -357 notein;
#X obj -67 -265 send sound1-noteon;
#X obj -92 -244 send sound1-noteoff;
#X obj -92 -289 route 0 1;
#X obj -92 -311 list prepend;
#X obj -23 -333 > 0;
#X obj -92 -334 - 47;
#X floatatom 1048 -337 10 0 0 0 - - -, f 10;
#X floatatom 1048 -304 10 0 0 0 - - -, f 10;
#X floatatom 1048 -271 10 0 0 0 - - -, f 10;
#X floatatom 1049 -239 10 0 0 0 - - -, f 10;
#X obj 902 -405 cnv 15 150 25 empty empty VOL-ENV 20 12 0 25 -257985
-66577 0;
#X obj 567 -406 cnv 15 100 25 sound1-loopon empty SAMPLE 20 12 0 20
-257985 -66577 0;
#X obj 572 -352 hsl 128 15 0 103897 0 0 sound1-samplestart sound1-samplestart-ui
samplestart -2 -8 0 10 -262144 -1 -1 0 1;
#X obj 573 -296 hsl 128 15 0 103897 0 0 sound1-sampleend sound1-sampleend-ui
sampleend -2 -8 0 10 -262144 -1 -1 12700 1;
#X floatatom 570 -278 10 0 0 0 - - -, f 10;
#X floatatom 569 -331 10 0 0 0 - - -, f 10;
#X msg -10 -78 \; sound1-loopend-ui range 0 \$1 \; sound1-loopstart-ui
range 0 \$1 \; sound1-sampleend-ui range 0 \$1 \; sound1-samplestart-ui
range 0 \$1;
#X obj -94 -95 trigger b f f;
#X msg -94 -62 0;
#X obj -65 45 send sound1-samplestart-ui;
#X obj -44 -3 send sound1-loopend-ui;
#X obj -57 20 send sound1-sampleend-ui;
#X obj -94 66 send sound1-loopstart-ui;
#X obj 750 -155 cnv 15 160 15 empty empty Reverb 10 8 0 12 -191407
-66577 0;
#X obj 629 -190 cnv 15 616 25 empty empty FX 10 12 0 25 -257985 -66577
0;
#X obj 750 -131 tgl 15 0 sound1-rev-enable empty enable 17 7 0 10 -262144
-1 -1 0 1;
#X obj 818 -131 bng 15 250 50 0 sound1-rev-moveup empty up 17 7 0 10
-262144 -1 -1;
#X obj 865 -131 bng 15 250 50 0 sound1-rev-movedown empty down 17 7
0 10 -262144 -1 -1;
#X obj 918 -155 cnv 15 160 15 empty empty Delay 10 8 0 12 -191407 -66577
0;
#X obj 918 -131 tgl 15 0 sound1-del-enable empty enable 17 7 0 10 -262144
-1 -1 0 1;
#X obj 986 -131 bng 15 250 50 0 sound1-del-moveup empty up 17 7 0 10
-262144 -1 -1;
#X obj 1033 -131 bng 15 250 50 0 sound1-del-movedown empty down 17
7 0 10 -262144 -1 -1;
#X obj 1085 -155 cnv 15 160 15 empty empty Flanger 10 8 0 12 -191407
-66577 0;
#X obj 1085 -131 tgl 15 0 sound1-flg-enable empty enable 17 7 0 10
-262144 -1 -1 0 1;
#X obj 1144 -131 bng 15 250 50 0 sound1-flg-moveup empty up 17 7 0
10 -262144 -1 -1;
#X obj 1191 -131 bng 15 250 50 0 sound1-flg-movedown empty down 17
7 0 10 -262144 -1 -1;
#X obj 753 -93 hsl 128 15 0 1 0 1 sound1-rev-damp empty damp -2 -8
0 10 -262144 -1 -1 10100 1;
#X obj 753 -60 hsl 128 15 0 1 0 1 sound1-rev-roomsize empty roomsize
-2 -8 0 10 -262144 -1 -1 6700 1;
#X obj 753 -28 hsl 128 15 0 1 0 1 sound1-rev-dry empty dry -2 -8 0
10 -262144 -1 -1 12700 1;
#X obj 753 5 hsl 128 15 0 1 0 1 sound1-rev-wet empty wet -2 -8 0 10
-262144 -1 -1 8800 1;
#X obj 925 -93 hsl 128 15 0 1 0 0 sound1-del-delay empty delay -2 -8
0 10 -262144 -1 -1 0 1;
#X obj 925 -60 hsl 128 15 0 1 0 0 sound1-del-feedback empty feedback
-2 -8 0 10 -262144 -1 -1 0 1;
#X obj 925 -29 hsl 128 15 0 1 0 0 sound1-del-wet empty wet -2 -8 0
10 -262144 -1 -1 0 1;
#X obj 1087 -93 hsl 128 15 0.001 10 0 0 sound1-flg-speed empty speed
-2 -8 0 10 -262144 -1 -1 0 1;
#X obj 1087 -60 hsl 128 15 0 10 0 0 sound1-flg-offset empty offset
-2 -8 0 10 -262144 -1 -1 0 1;
#X obj 1087 -29 hsl 128 15 0 20 0 0 sound1-flg-delay empty delay -2
-8 0 10 -262144 -1 -1 0 1;
#X obj 1087 5 hsl 128 15 0 0.99 0 0 sound1-flg-feedback empty feedback
-2 -8 0 10 -262144 -1 -1 0 1;
#X obj 630 -144 r sound1-fxlist;
#X msg 630 -98 (reverb) \; (delay) \; (flanger) \;;
#N canvas 65 357 149 228 fixlist 0;
#X obj 15 13 inlet;
#X obj 17 169 outlet;
#X obj 18 36 t l b;
#X msg 93 137 set;
#X obj 44 84 list-seek;
#X obj 18 58 t b l;
#X msg 19 131 add \$1;
#X obj 21 107 t b s;
#X connect 0 0 2 0;
#X connect 2 0 5 0;
#X connect 2 1 3 0;
#X connect 3 0 1 0;
#X connect 4 0 7 0;
#X connect 5 0 4 0;
#X connect 5 1 4 1;
#X connect 6 0 1 0;
#X connect 7 0 4 0;
#X connect 7 1 6 0;
#X restore 630 -121 pd fixlist;
#X connect 20 0 39 0;
#X connect 21 0 40 0;
#X connect 22 0 41 0;
#X connect 23 0 42 0;
#X connect 24 0 31 0;
#X connect 25 0 30 0;
#X connect 27 0 50 0;
#X connect 29 0 53 0;
#X connect 29 0 54 0;
#X connect 32 0 38 0;
#X connect 32 1 37 0;
#X connect 35 0 34 0;
#X connect 35 1 33 0;
#X connect 36 0 35 0;
#X connect 37 0 36 1;
#X connect 38 0 36 0;
#X connect 45 0 48 0;
#X connect 46 0 47 0;
#X connect 50 0 51 0;
#X connect 50 1 49 0;
#X connect 50 1 29 0;
#X connect 51 0 52 0;
#X connect 51 0 55 0;
#X connect 80 0 82 0;
#X connect 82 0 81 0;
#X coords 0 0 1 1 85 60 0;
