#N canvas 273 809 183 212 10;
#X obj -257 11 inlet;
#X obj -257 101 *;
#X obj -158 61 loadbang;
#X obj -158 84 float \$1;
#X obj -239 156 outlet;
#X obj -239 127 pack 0 0;
#X obj -257 44 trigger l l;
#X msg -257 67 \$1;
#X msg -194 68 \$2;
#X connect 0 0 6 0;
#X connect 1 0 5 0;
#X connect 2 0 3 0;
#X connect 3 0 1 1;
#X connect 5 0 4 0;
#X connect 6 0 7 0;
#X connect 6 1 8 0;
#X connect 7 0 1 0;
#X connect 8 0 5 1;
