#N canvas 1651 590 329 168 10;
#X obj 25 97 s \$1-setavailable;
#X obj 25 63 playit \$1-wave \$1;
#X obj 37 11 send android-noteon;
#X obj 142 64 send android-noteoff;
#X text 142 85 TODO Consider sending to android-noteoff at the same
point as setavailable, f 29;
#X obj 25 -15 r \$1-noteon-\$2;
#X obj 124 40 r \$1-noteoff-\$2;
#N canvas 65 143 232 252 delaynote 0;
#X obj 19 18 inlet;
#X obj 19 159 outlet noteon;
#X obj 117 210 outlet noteoff;
#X obj 117 131 delay;
#X obj 117 184 float;
#X obj 150 83 > 0;
#X obj 117 105 spigot;
#X obj 117 60 t f f;
#X obj 19 43 unpack;
#X connect 0 0 8 0;
#X connect 3 0 4 0;
#X connect 4 0 2 0;
#X connect 5 0 6 1;
#X connect 6 0 3 0;
#X connect 7 0 6 0;
#X connect 7 1 5 0;
#X connect 8 0 1 0;
#X connect 8 0 4 1;
#X connect 8 1 7 0;
#X restore 25 35 pd delaynote;
#X connect 1 0 0 0;
#X connect 5 0 2 0;
#X connect 5 0 7 0;
#X connect 6 0 1 1;
#X connect 6 0 3 0;
#X connect 7 0 1 0;
#X connect 7 1 1 1;
