#N canvas 1125 571 394 242 12;
#X obj 25 19 inlet;
#X obj 25 131 outlet;
#X obj 25 72 until;
#X obj 115 97 sel 0;
#X obj 25 99 f;
#X obj 56 99 + 1;
#X obj 115 59 mod 128;
#X obj 25 50 bng 15 250 50 0 empty empty empty 17 7 0 10 #fcfcfc #000000 #000000;
#X connect 0 0 7 0;
#X connect 2 0 4 0;
#X connect 3 0 2 1;
#X connect 4 0 5 0;
#X connect 4 0 1 0;
#X connect 5 0 4 1;
#X connect 5 0 6 0;
#X connect 6 0 3 0;
#X connect 6 0 4 1;
#X connect 7 0 2 0;
