#N canvas 1886 448 505 415 10;
#X obj 9 176 s \$1-setavailable;
#X obj 9 142 playit \$1-wave \$1;
#X obj 9 12 r \$1-noteon-\$2;
#X obj 108 119 r \$1-noteoff-\$2;
#N canvas 1772 242 232 252 delaynote 0;
#X obj 19 18 inlet;
#X obj 19 159 outlet noteon;
#X obj 117 210 outlet noteoff;
#X obj 117 131 delay;
#X obj 117 184 float;
#X obj 150 83 > 0;
#X obj 117 105 spigot;
#X obj 117 60 t f f;
#X obj 19 43 unpack;
#X connect 0 0 8 0;
#X connect 3 0 4 0;
#X connect 4 0 2 0;
#X connect 5 0 6 1;
#X connect 6 0 3 0;
#X connect 7 0 6 0;
#X connect 7 1 5 0;
#X connect 8 0 1 0;
#X connect 8 0 4 1;
#X connect 8 1 7 0;
#X restore 9 58 pd delaynote;
#X obj 78 81 s \$1-noteoff;
#X obj 314 182 list;
#X obj 314 154 symbol \$1;
#X obj 128 220 list;
#X obj 128 169 symbol \$1;
#X obj 314 128 t b l;
#X obj 314 11 r \$0-notenumdur;
#X obj 22 36 s \$0-notenumdur;
#X obj 149 197 r \$0-notenumdur;
#X obj 128 145 bng 15 250 50 0 empty empty empty 17 7 0 10 -262144
-1 -1;
#X obj 347 81 <= 0;
#X obj 314 36 t l l;
#X obj 314 103 spigot;
#X obj 161 293 <= 0;
#X obj 128 251 t l l;
#X obj 128 314 spigot;
#X msg 161 272 \$3;
#X msg 347 57 \$2;
#X obj 128 344 s android-sustainednoteoff;
#X obj 314 204 s android-sustainednoteon;
#X connect 1 0 0 0;
#X connect 2 0 4 0;
#X connect 2 0 12 0;
#X connect 3 0 1 1;
#X connect 3 0 14 0;
#X connect 4 0 1 0;
#X connect 4 1 5 0;
#X connect 6 0 24 0;
#X connect 7 0 6 0;
#X connect 8 0 19 0;
#X connect 9 0 8 0;
#X connect 10 0 7 0;
#X connect 10 1 6 1;
#X connect 11 0 16 0;
#X connect 13 0 8 1;
#X connect 14 0 9 0;
#X connect 15 0 17 1;
#X connect 16 0 17 0;
#X connect 16 1 22 0;
#X connect 17 0 10 0;
#X connect 18 0 20 1;
#X connect 19 0 20 0;
#X connect 19 1 21 0;
#X connect 20 0 23 0;
#X connect 21 0 18 0;
#X connect 22 0 15 0;
