#N canvas 1919 395 190 310 10;
#X obj 45 205 inlet~;
#X obj 11 263 outlet~;
#X obj 95 263 outlet~;
#X obj 112 38 inlet;
#X obj 112 62 * 0.25;
#X msg 28 100 \$1 50;
#X obj 112 100 + 0.75;
#X msg 112 125 \$1 50;
#X obj 94 234 *~;
#X obj 12 232 *~;
#X obj 29 13 loadbang;
#X msg 29 45 0.5;
#X obj 29 182 cos;
#X obj 111 182 cos;
#X obj 112 154 line;
#X obj 28 153 line;
#X connect 0 0 8 0;
#X connect 0 0 9 0;
#X connect 3 0 4 0;
#X connect 4 0 5 0;
#X connect 4 0 6 0;
#X connect 5 0 15 0;
#X connect 6 0 7 0;
#X connect 7 0 14 0;
#X connect 8 0 2 0;
#X connect 9 0 1 0;
#X connect 10 0 11 0;
#X connect 11 0 4 0;
#X connect 12 0 9 1;
#X connect 13 0 8 1;
#X connect 14 0 13 0;
#X connect 15 0 12 0;
