#N canvas 1924 248 350 374 10;
#X obj 97 262 inlet~;
#X obj 63 320 outlet~;
#X obj 147 320 outlet~;
#X obj 162 45 inlet;
#X obj 162 69 * 0.25;
#X obj 162 98 + 0.75;
#X obj 146 291 *~;
#X obj 64 289 *~;
#X obj 81 19 loadbang;
#X msg 81 51 0.5;
#X obj 162 173 cos;
#X obj 80 137 * 6.28319;
#X obj 162 137 * 6.28319;
#X msg 162 203 \$1 50;
#X msg 80 207 \$1 50;
#X obj 80 172 cos;
#X obj 80 233 line~;
#X obj 162 234 line~;
#X connect 0 0 6 0;
#X connect 0 0 7 0;
#X connect 3 0 4 0;
#X connect 4 0 5 0;
#X connect 4 0 11 0;
#X connect 5 0 12 0;
#X connect 6 0 2 0;
#X connect 7 0 1 0;
#X connect 8 0 9 0;
#X connect 9 0 4 0;
#X connect 10 0 13 0;
#X connect 11 0 15 0;
#X connect 12 0 10 0;
#X connect 13 0 17 0;
#X connect 14 0 16 0;
#X connect 15 0 14 0;
#X connect 16 0 7 1;
#X connect 17 0 6 1;
