#N canvas 1763 535 902 442 10;
#X obj 18 15 inlet~;
#X obj 126 208 *~ 0.7;
#X obj 117 412 outlet~;
#X obj 293 410 outlet~;
#X obj 253 15 inlet~;
#X obj 412 213 *~ 0.7;
#X obj 738 29 inlet spread;
#X obj 118 333 pan;
#X obj 275 327 pan;
#X obj 738 50 * 0.5;
#X obj 136 314 expr 0.5-$f1;
#X obj 293 307 expr 0.5+$f1;
#X obj 451 28 inlet delay;
#X msg 451 94 \$1 20;
#X obj 278 111 line~;
#X obj 277 148 /~ 2;
#X obj 451 52 * 1000;
#X obj 548 28 inlet feedback;
#X obj 548 53 * 0.95;
#X obj 665 29 inlet wet;
#X obj 117 275 *~ 1;
#X obj 276 265 *~ 1;
#X obj 19 86 s~ \$0-dryL;
#X obj 33 65 delwrite~ \$0-delayL 1000;
#X obj 34 40 r~ \$0-feedbackL;
#X obj 252 82 s~ \$0-dryR;
#X obj 263 36 r~ \$0-feedbackR;
#X obj 262 61 delwrite~ \$0-delayR 1000;
#X obj 118 168 vd~ \$0-delayL 500;
#X obj 165 188 r \$0-feedback;
#X obj 126 228 s~ \$0-feedbackL;
#X obj 136 294 r \$0-spread;
#X obj 178 394 r~ \$0-dryL;
#X obj 276 168 vd~ \$0-delayR 250;
#X obj 142 252 r \$0-wet;
#X obj 301 243 r \$0-wet;
#X obj 293 286 r \$0-spread;
#X obj 356 392 r~ \$0-dryR;
#X obj 412 168 vd~ \$0-delayR 500;
#X obj 451 190 r \$0-feedback;
#X obj 412 234 s~ \$0-feedbackR;
#X obj 548 79 s \$0-feedback;
#X obj 665 74 s \$0-wet;
#X obj 738 71 s \$0-spread;
#X obj 833 30 inlet;
#X obj 833 72 switch~;
#X connect 0 0 22 0;
#X connect 0 0 23 0;
#X connect 1 0 30 0;
#X connect 4 0 25 0;
#X connect 4 0 27 0;
#X connect 5 0 40 0;
#X connect 6 0 9 0;
#X connect 7 0 2 0;
#X connect 7 1 3 0;
#X connect 8 0 2 0;
#X connect 8 1 3 0;
#X connect 9 0 43 0;
#X connect 10 0 7 1;
#X connect 11 0 8 1;
#X connect 12 0 16 0;
#X connect 13 0 14 0;
#X connect 14 0 15 0;
#X connect 14 0 28 0;
#X connect 14 0 38 0;
#X connect 15 0 33 0;
#X connect 16 0 13 0;
#X connect 17 0 18 0;
#X connect 18 0 41 0;
#X connect 19 0 42 0;
#X connect 20 0 7 0;
#X connect 21 0 8 0;
#X connect 24 0 23 0;
#X connect 26 0 27 0;
#X connect 28 0 1 0;
#X connect 28 0 20 0;
#X connect 29 0 1 1;
#X connect 31 0 10 0;
#X connect 32 0 2 0;
#X connect 33 0 21 0;
#X connect 34 0 20 1;
#X connect 35 0 21 1;
#X connect 36 0 11 0;
#X connect 37 0 3 0;
#X connect 38 0 5 0;
#X connect 39 0 5 1;
#X connect 44 0 45 0;
