#N canvas 1687 220 839 578 10;
#X obj 18 8 inlet~;
#X obj 357 489 outlet~;
#X obj 533 487 outlet~;
#X obj 253 15 inlet~;
#X obj 738 29 inlet spread;
#X obj 358 410 pan;
#X obj 515 422 pan;
#X obj 738 50 * 0.5;
#X obj 376 391 expr 0.5-$f1;
#X obj 533 402 expr 0.5+$f1;
#X obj 418 27 inlet delay;
#X msg 418 119 \$1 20;
#X obj 548 28 inlet feedback;
#X obj 665 29 inlet wet;
#X obj 357 352 *~ 1;
#X obj 516 360 *~ 1;
#X obj 19 167 s~ \$0-dryL;
#X obj 43 84 r~ \$0-feedbackL;
#X obj 252 150 s~ \$0-dryR;
#X obj 295 70 r~ \$0-feedbackR;
#X obj 405 265 r \$0-feedback;
#X obj 366 305 s~ \$0-feedbackL;
#X obj 376 371 r \$0-spread;
#X obj 424 472 r~ \$0-dryL;
#X obj 382 329 r \$0-wet;
#X obj 541 337 r \$0-wet;
#X obj 533 381 r \$0-spread;
#X obj 594 471 r~ \$0-dryR;
#X obj 570 267 r \$0-feedback;
#X obj 531 311 s~ \$0-feedbackR;
#X obj 548 79 s \$0-feedback;
#X obj 665 74 s \$0-wet;
#X obj 738 71 s \$0-spread;
#X obj 262 129 delwrite~ \$0-delayR 2000;
#X obj 33 146 delwrite~ \$0-delayL 2000;
#X obj 358 245 delread~ \$0-delayL 500;
#X obj 357 223 * 2;
#X obj 422 188 line;
#X obj 517 245 delread~ \$0-delayR 250;
#X msg 173 71 clear;
#X obj 468 91 s \$0-clear;
#X obj 173 8 r \$0-clear;
#X obj 418 66 t f b;
#X obj 366 285 *~ 0;
#X obj 531 290 *~ 0;
#X obj 53 35 r \$0-feedback;
#X obj 32 58 *~ 0;
#X obj 283 41 r \$0-feedback;
#X obj 262 64 *~ 0;
#X connect 0 0 16 0;
#X connect 0 0 46 0;
#X connect 3 0 18 0;
#X connect 3 0 48 0;
#X connect 4 0 7 0;
#X connect 5 0 1 0;
#X connect 5 1 2 0;
#X connect 6 0 1 0;
#X connect 6 1 2 0;
#X connect 7 0 32 0;
#X connect 8 0 5 1;
#X connect 9 0 6 1;
#X connect 10 0 42 0;
#X connect 11 0 37 0;
#X connect 12 0 30 0;
#X connect 13 0 31 0;
#X connect 14 0 5 0;
#X connect 15 0 6 0;
#X connect 17 0 34 0;
#X connect 19 0 33 0;
#X connect 20 0 43 1;
#X connect 22 0 8 0;
#X connect 23 0 1 0;
#X connect 24 0 14 1;
#X connect 25 0 15 1;
#X connect 26 0 9 0;
#X connect 27 0 2 0;
#X connect 28 0 44 1;
#X connect 35 0 14 0;
#X connect 35 0 43 0;
#X connect 36 0 35 0;
#X connect 37 0 36 0;
#X connect 37 0 38 0;
#X connect 38 0 15 0;
#X connect 38 0 44 0;
#X connect 39 0 34 0;
#X connect 39 0 33 0;
#X connect 41 0 39 0;
#X connect 42 0 11 0;
#X connect 42 1 40 0;
#X connect 43 0 21 0;
#X connect 44 0 29 0;
#X connect 45 0 46 1;
#X connect 46 0 34 0;
#X connect 47 0 48 1;
#X connect 48 0 33 0;
