#N canvas 715 435 783 677 10;
#X obj 101 10 inlet noteon;
#N canvas 431 362 723 437 samplelooper 1;
#X obj 122 254 samplelooper~;
#X obj 121 291 outlet~;
#X obj 210 306 outlet;
#X obj 300 94 s \$0-trigger;
#X obj 421 198 s \$0-setpitch;
#X obj 25 194 r \$0-setpitch;
#X obj 300 30 inlet noteon;
#X obj 31 215 r \$0-trigger;
#X msg 210 279 0;
#X obj 88 62 loadbang;
#X obj 300 61 trigger bang float;
#X obj 421 175 *;
#X obj 460 117 samplerate~;
#X obj 436 143 /;
#X obj 436 48 t f b;
#X obj 436 22 r \$0-samplerate;
#X obj 451 72 r updatesamplerate;
#X obj 460 96 loadbang;
#X msg 134 124 enableloop 0;
#X msg 122 85 enablelfo 0;
#X obj 316 352 s \$0-sampleend;
#X obj 448 352 s \$0-loopend;
#X obj 144 164 r \$0-samplestart;
#X obj 166 184 r \$0-sampleend;
#X obj 188 204 r \$0-loopstart;
#X obj 210 224 r \$0-loopend;
#X obj 374 310 r \$0-samplelength;
#X connect 0 0 1 0;
#X connect 0 2 8 0;
#X connect 5 0 0 0;
#X connect 6 0 10 0;
#X connect 7 0 0 0;
#X connect 8 0 2 0;
#X connect 9 0 19 0;
#X connect 9 0 18 0;
#X connect 10 0 3 0;
#X connect 10 1 11 0;
#X connect 11 0 4 0;
#X connect 12 0 13 1;
#X connect 13 0 11 1;
#X connect 14 0 13 0;
#X connect 15 0 14 0;
#X connect 16 0 13 1;
#X connect 17 0 12 0;
#X connect 18 0 0 0;
#X connect 19 0 0 0;
#X connect 22 0 0 1;
#X connect 23 0 0 2;
#X connect 24 0 0 3;
#X connect 25 0 0 4;
#X connect 26 0 20 0;
#X connect 26 0 21 0;
#X restore 101 368 pd samplelooper;
#X obj 101 302 trigger bang bang;
#X obj 314 594 switch~;
#X obj 314 569 r \$0-switch;
#X obj 200 346 s \$0-switch;
#X obj 188 397 s \$0-switch;
#X obj 102 516 *~;
#X msg 200 325 1;
#X obj 120 473 r \$0-vel;
#X obj 120 494 / 127;
#X obj 128 84 s \$0-vel;
#X obj 102 565 *~ 1, f 5;
#N canvas 322 629 285 182 calcpitch 0;
#X obj 57 15 inlet;
#X obj 57 139 outlet;
#X msg 57 51 1;
#X obj 57 98 * 1;
#X obj 171 60 / 12;
#X obj 139 81 pow;
#X msg 139 60 2;
#X obj 139 39 t b f;
#X obj 139 14 r \$0-finetune;
#X connect 0 0 2 0;
#X connect 2 0 3 0;
#X connect 3 0 1 0;
#X connect 4 0 5 1;
#X connect 5 0 3 1;
#X connect 6 0 5 0;
#X connect 7 0 6 0;
#X connect 7 1 4 0;
#X connect 8 0 7 0;
#X restore 101 328 pd calcpitch;
#X obj 101 157 pack f s;
#X obj 146 115 loadbang;
#X obj 146 136 symbol \$1;
#X obj 110 427 r \$0-setarray;
#X obj 101 451 tabread4~;
#X obj 120 271 s \$0-setarray;
#X obj 405 301 tabread;
#X msg 120 242 set \$2-drum\$1;
#X msg 405 214 set \$2-params-\$1;
#X obj 466 301 tabread;
#X obj 183 196 t b l;
#X obj 526 243 r \$0-parambang;
#X obj 183 221 s \$0-parambang;
#X obj 525 301 tabread;
#X obj 134 519 r \$0-volume;
#X obj 525 361 s \$0-volume;
#X obj 101 178 t b l l;
#X obj 582 301 tabread;
#X obj 582 342 s \$0-finetune;
#X obj 101 608 throw~ \$1-instrumentoutput;
#X msg 128 63 \$2;
#X msg 101 108 \$1;
#X obj 101 131 - 35;
#X msg 413 276 0;
#X msg 466 278 1;
#X msg 525 280 3;
#X msg 582 280 4;
#X msg 640 279 5;
#X obj 640 301 tabread;
#X obj 640 322 s \$0-samplerate;
#X obj 102 587 *~;
#X obj 134 542 logvolume -50 0;
#X obj 101 34 t l l;
#X obj 445 40 0;
#X obj 445 19 r muteallnotes;
#X obj 445 64 s \$0-switch;
#X obj 405 401 s \$0-samplestart;
#X obj 466 382 s \$0-sampleend;
#X connect 0 0 46 0;
#X connect 1 0 18 0;
#X connect 1 1 6 0;
#X connect 2 0 13 0;
#X connect 2 1 8 0;
#X connect 4 0 3 0;
#X connect 4 0 44 1;
#X connect 7 0 12 0;
#X connect 8 0 5 0;
#X connect 9 0 10 0;
#X connect 10 0 7 1;
#X connect 12 0 44 0;
#X connect 13 0 1 0;
#X connect 14 0 30 0;
#X connect 15 0 16 0;
#X connect 16 0 14 1;
#X connect 17 0 18 0;
#X connect 18 0 7 0;
#X connect 20 0 50 0;
#X connect 21 0 19 0;
#X connect 22 0 20 0;
#X connect 22 0 23 0;
#X connect 22 0 27 0;
#X connect 22 0 31 0;
#X connect 22 0 42 0;
#X connect 23 0 51 0;
#X connect 24 0 26 0;
#X connect 24 1 22 0;
#X connect 25 0 37 0;
#X connect 25 0 38 0;
#X connect 25 0 39 0;
#X connect 25 0 40 0;
#X connect 25 0 41 0;
#X connect 27 0 29 0;
#X connect 28 0 45 0;
#X connect 30 0 2 0;
#X connect 30 1 24 0;
#X connect 30 1 21 0;
#X connect 31 0 32 0;
#X connect 34 0 11 0;
#X connect 35 0 36 0;
#X connect 36 0 14 0;
#X connect 37 0 20 0;
#X connect 38 0 23 0;
#X connect 39 0 27 0;
#X connect 40 0 31 0;
#X connect 41 0 42 0;
#X connect 42 0 43 0;
#X connect 44 0 33 0;
#X connect 45 0 12 1;
#X connect 46 0 35 0;
#X connect 46 1 34 0;
#X connect 47 0 49 0;
#X connect 48 0 47 0;
