#N canvas 1601 82 1190 851 10;
#X obj -491 180 float;
#X obj -424 197 *;
#X obj -538 180 float;
#X obj -507 249 inlet;
#X obj -433 88 expr $f1/44.1;
#X obj -538 214 pack 0 0;
#X obj -409 165 float \$2;
#X obj -538 122 trigger bang bang bang;
#X obj -536 561 *~;
#X obj -660 433 loadbang;
#X msg -660 462 1;
#X obj -660 543 line~;
#X msg -660 520 \$1 50;
#X obj -40 833 throw~ soundoutput;
#N canvas 1764 119 1079 869 lineloop 1;
#X obj 149 17 inlet;
#X text 130 -1 samples \, ms;
#X obj 607 11 inlet;
#X obj 736 12 inlet;
#X obj 149 96 unpack f f;
#X obj 133 852 outlet~;
#X obj 134 617 phasor~;
#X obj 149 390 expr 44100/$f1;
#X obj 313 304 float \$2;
#X obj 134 716 *~;
#X obj 179 215 delay;
#X obj 179 261 send \$0-cut;
#X obj 154 800 receive \$0-cut;
#X obj 259 85 send \$0-cut;
#X obj 173 590 receive \$0-cut;
#X obj 501 11 inlet;
#X text 480 -4 loop on/off;
#X msg 259 58 1;
#X msg 179 237 0;
#X obj 637 436 expr $f2 - $f1;
#X obj 761 493 delay;
#X obj 134 775 +~;
#X msg 341 60 0;
#X obj 761 560 send \$0-cut;
#X msg 761 530 1;
#X msg 637 392 0;
#X obj 341 87 send \$0-samplestart;
#X obj 149 314 send \$0-samplesize;
#X obj 149 359 receive \$0-samplesize;
#X obj 149 686 receive \$0-samplesize;
#X obj 637 474 send \$0-samplesize;
#X obj 149 740 receive \$0-samplestart;
#X obj 510 409 send \$0-samplestart;
#X obj 468 97 spigot;
#X text 601 -6 loop start;
#X text 736 -7 loop end;
#X msg 841 115 set \$1;
#X msg 718 338 44100;
#X obj 149 287 trigger float bang;
#X obj 133 824 *~ 0;
#X obj 385 14 inlet;
#X text 382 -3 trigger;
#X obj 243 173 bng 15 250 50 0 empty empty empty 17 7 0 10 -262144
-1 -1;
#X obj 149 188 float;
#X msg 28 198 stop;
#X obj 769 88 receive \$0-cut;
#X obj 736 119 spigot;
#X obj 736 54 trigger bang float;
#X obj 640 80 receive \$0-cut;
#X obj 607 103 spigot;
#X obj 607 53 trigger bang float;
#X obj 158 76 send \$0-cut;
#X msg 158 49 0;
#X obj 532 117 send \$0-cut;
#X msg 532 88 0;
#X obj 791 321 receive \$0-loopend;
#X obj 841 147 send \$0-loopend;
#X obj 607 132 send \$0-loopend;
#X obj 468 139 send \$0-loopend;
#X obj 637 314 receive \$0-loopstart;
#X obj 712 198 send \$0-loopstart;
#X obj 736 148 send \$0-loopend;
#X obj 822 510 send \$0-stopcut;
#X obj 28 177 receive \$0-stopcut;
#X obj 25 136 send \$0-loopend;
#X obj 25 85 send \$0-loopstart;
#X msg 25 113 set \$1;
#X obj 335 130 tgl 15 0 empty empty empty 17 7 0 10 -262144 -1 -1 0
1;
#X obj 422 113 == 0;
#X obj 302 156 spigot;
#X msg 712 170 set \$1;
#X msg 25 52 set 0;
#X obj 761 381 expr ($f1/44.1);
#X obj 791 355 send \$0-samplesize;
#X obj 761 466 *;
#X obj 313 396 expr 1/$f1;
#X obj 440 10 loadbang;
#X obj 268 254 outlet;
#X obj 341 337 send \$0-timeratio;
#X obj 776 404 receive \$0-timeratio;
#X msg 440 32 0;
#X obj 134 509 *;
#X obj 149 413 *;
#X msg 134 473 1;
#X text 190 432 lfo ratio;
#X obj 282 444 inlet;
#X text 280 426 lfo enable;
#X obj 282 472 sel 0;
#X obj 134 664 +~;
#X obj 192 523 *~;
#X obj 192 494 +~;
#X obj 193 468 expr~ 1-$v1;
#X obj 193 446 inlet~;
#X obj 356 814 hsl 128 15 0 44100 0 0 empty empty empty -2 -8 0 10
-262144 -1 -1 10544 1;
#X obj 251 834 snapshot~;
#X msg 335 771 set \$1;
#X obj 264 797 metro 10;
#X obj 264 770 tgl 15 0 empty empty empty 17 7 0 10 -262144 -1 -1 1
1;
#X connect 0 0 4 0;
#X connect 0 0 52 0;
#X connect 2 0 50 0;
#X connect 3 0 47 0;
#X connect 4 0 43 0;
#X connect 4 0 71 0;
#X connect 4 0 66 0;
#X connect 4 1 10 1;
#X connect 6 0 88 0;
#X connect 7 0 82 0;
#X connect 8 0 75 0;
#X connect 8 0 78 0;
#X connect 9 0 21 0;
#X connect 10 0 18 0;
#X connect 12 0 39 1;
#X connect 15 0 33 1;
#X connect 15 0 54 0;
#X connect 15 0 68 0;
#X connect 17 0 13 0;
#X connect 18 0 11 0;
#X connect 18 0 77 0;
#X connect 19 0 30 0;
#X connect 20 0 25 0;
#X connect 20 0 24 0;
#X connect 20 0 62 0;
#X connect 21 0 39 0;
#X connect 22 0 26 0;
#X connect 24 0 23 0;
#X connect 25 0 19 0;
#X connect 25 0 32 0;
#X connect 28 0 7 0;
#X connect 28 0 83 0;
#X connect 29 0 9 1;
#X connect 31 0 21 1;
#X connect 33 0 58 0;
#X connect 36 0 56 0;
#X connect 37 0 19 1;
#X connect 37 0 72 0;
#X connect 37 0 73 0;
#X connect 38 0 27 0;
#X connect 38 1 8 0;
#X connect 39 0 5 0;
#X connect 39 0 94 0;
#X connect 40 0 33 0;
#X connect 40 0 69 0;
#X connect 40 0 22 0;
#X connect 40 0 17 0;
#X connect 42 0 10 0;
#X connect 42 0 43 0;
#X connect 43 0 38 0;
#X connect 44 0 10 0;
#X connect 45 0 46 1;
#X connect 46 0 61 0;
#X connect 47 0 46 0;
#X connect 47 1 36 0;
#X connect 48 0 49 1;
#X connect 49 0 57 0;
#X connect 50 0 49 0;
#X connect 50 1 70 0;
#X connect 52 0 51 0;
#X connect 54 0 53 0;
#X connect 55 0 37 0;
#X connect 59 0 25 0;
#X connect 63 0 44 0;
#X connect 66 0 64 0;
#X connect 67 0 69 1;
#X connect 68 0 67 0;
#X connect 69 0 42 0;
#X connect 70 0 60 0;
#X connect 71 0 65 0;
#X connect 72 0 74 0;
#X connect 74 0 20 0;
#X connect 75 0 82 1;
#X connect 76 0 80 0;
#X connect 79 0 74 1;
#X connect 80 0 33 1;
#X connect 80 0 68 0;
#X connect 81 0 6 0;
#X connect 82 0 81 1;
#X connect 82 0 89 1;
#X connect 83 0 81 0;
#X connect 85 0 87 0;
#X connect 88 0 9 0;
#X connect 89 0 6 0;
#X connect 90 0 89 0;
#X connect 91 0 90 0;
#X connect 92 0 91 0;
#X connect 94 0 95 0;
#X connect 95 0 93 0;
#X connect 96 0 94 0;
#X connect 97 0 96 0;
#X restore -538 391 pd lineloop;
#X obj -496 327 receive \$3-loopon;
#X obj -486 347 receive \$3-loopstart;
#X obj -475 367 receive \$3-loopend;
#X obj -538 28 receive \$3-samplelength;
#X obj -538 55 trigger bang float;
#X obj -660 494 receive \$3-volume;
#X obj -536 532 *~;
#X msg -331 305 1;
#X msg -287 349 0;
#X obj -287 218 inlet;
#X text -508 233 noteon;
#X text -290 200 noteoff;
#X obj -287 244 bng 15 250 50 0 empty empty empty 17 7 0 10 -262144
-1 -1;
#X obj -143 408 switch~;
#X msg -143 381 0;
#X obj -143 350 loadbang;
#X obj -331 515 adsr 500 5 0.2 200;
#X obj -305 426 receive \$3-attack;
#X obj -279 447 receive \$3-decay;
#X obj -253 467 receive \$3-sustain;
#X obj -226 489 receive \$3-release;
#X obj -189 324 receive \$3-release;
#X obj -216 346 delay;
#X obj -537 473 tabread4~ \$1;
#X obj -517 308 r \$3-lfopitchenable;
#X obj 10 647 r \$3-filterattack;
#X obj 22 669 r \$3-filterdecay;
#X obj 35 690 r \$3-filtersustain;
#X obj 47 712 r \$3-filterrelease;
#X obj -15 601 r \$3-filtercutoff;
#N canvas 1907 303 914 689 filtersmanager 0;
#X obj 251 339 inlet;
#X obj 156 16 inlet~;
#X obj 156 439 outlet~;
#X text 240 322 noteon/off;
#X obj 431 356 adsr 500 5 1 500;
#X obj 415 322 inlet;
#X text 411 306 attack;
#X obj 467 321 inlet;
#X text 466 306 decay;
#X obj 513 321 inlet;
#X obj 558 321 inlet;
#X text 512 306 sustain;
#X text 557 306 release;
#X obj 613 93 select 1;
#X obj 683 93 select 2;
#X obj 535 93 select 0;
#X obj 626 41 inlet;
#X text 509 22 filter connection 0=none \, 1=highpass \, 2=lowpass
;
#X obj 157 98 *~ 0;
#X obj 291 101 *~ 0;
#X obj 178 71 r \$0-hpenable;
#X obj 312 73 r \$0-lpenable;
#X msg 535 188 0;
#X obj 535 230 s \$0-hpenable;
#X obj 535 208 s \$0-lpenable;
#X msg 613 122 0;
#X obj 625 164 s \$0-hpenable;
#X obj 613 187 s \$0-lpenable;
#X msg 625 143 1;
#X obj 722 172 s \$0-hpenable;
#X obj 710 195 s \$0-lpenable;
#X msg 710 130 1;
#X msg 722 151 0;
#X obj 157 274 *~ 0;
#X obj 37 278 *~ 1;
#X msg 439 192 1;
#X obj 178 247 r \$0-outfilter;
#X obj 58 244 r \$0-outbypass;
#X obj 535 253 s \$0-outfilter;
#X obj 439 219 s \$0-outbypass;
#X obj 642 231 s \$0-outfilter;
#X obj 632 263 s \$0-outbypass;
#N canvas 1804 488 314 153 sighighpass 0;
#X obj 21 57 inlet~;
#X text 104 10 cutoff;
#X obj 192 25 inlet;
#X obj 192 57 switch~;
#X obj 106 26 inlet~;
#X obj 75 102 outlet~;
#X obj 74 73 hipmmb;
#X obj 107 49 *~ 10000;
#X connect 0 0 6 0;
#X connect 2 0 3 0;
#X connect 4 0 7 0;
#X connect 6 0 5 0;
#X connect 7 0 6 1;
#X restore 157 171 pd sighighpass;
#X obj 345 370 inlet~;
#X obj 346 625 s~ \$0-cutoffinlet;
#X obj 170 140 r~ \$0-cutoffinlet;
#N canvas 1601 701 354 166 siglowpass 0;
#X obj 18 62 inlet~;
#X obj 75 99 outlet~;
#X text 105 10 cutoff;
#X obj 107 26 inlet~;
#X obj 76 78 lopmmb;
#X obj 195 30 inlet;
#X obj 195 62 switch~;
#X obj 108 51 *~ 10000;
#X connect 0 0 4 0;
#X connect 3 0 7 0;
#X connect 4 0 1 0;
#X connect 5 0 6 0;
#X connect 7 0 4 1;
#X restore 291 173 pd siglowpass;
#X obj 305 141 r~ \$0-cutoffinlet;
#X obj 361 539 sig~;
#X obj 346 511 *~;
#X obj 347 576 *~;
#X obj 440 384 r \$3-lfofilterenable;
#X text 332 355 cutoff lfo;
#X obj 281 522 inlet;
#X text 263 506 cutoff slider;
#X obj 345 407 expr~ 1-$v1;
#X obj 440 404 select 0;
#N canvas 425 442 450 300 switch 0;
#X obj 112 83 inlet~;
#X obj 111 150 outlet~;
#X obj 192 84 inlet;
#X obj 192 151 switch~;
#X connect 0 0 1 0;
#X connect 2 0 3 0;
#X restore 346 450 pd switch;
#X msg 440 441 0;
#X obj 420 493 sig~;
#X msg 420 473 1;
#X msg 485 476 0;
#X connect 0 0 4 0;
#X connect 1 0 18 0;
#X connect 1 0 19 0;
#X connect 1 0 34 0;
#X connect 4 0 49 1;
#X connect 5 0 4 1;
#X connect 7 0 4 2;
#X connect 9 0 4 3;
#X connect 10 0 4 4;
#X connect 13 0 25 0;
#X connect 13 0 28 0;
#X connect 14 0 31 0;
#X connect 14 0 32 0;
#X connect 15 0 22 0;
#X connect 15 0 35 0;
#X connect 16 0 15 0;
#X connect 16 0 13 0;
#X connect 16 0 14 0;
#X connect 18 0 42 0;
#X connect 19 0 46 0;
#X connect 20 0 18 1;
#X connect 20 0 42 2;
#X connect 21 0 19 1;
#X connect 21 0 46 2;
#X connect 22 0 23 0;
#X connect 22 0 24 0;
#X connect 22 0 38 0;
#X connect 25 0 27 0;
#X connect 25 0 41 0;
#X connect 28 0 26 0;
#X connect 28 0 40 0;
#X connect 31 0 30 0;
#X connect 31 0 40 0;
#X connect 32 0 29 0;
#X connect 32 0 41 0;
#X connect 33 0 2 0;
#X connect 34 0 2 0;
#X connect 35 0 39 0;
#X connect 36 0 33 1;
#X connect 37 0 34 1;
#X connect 42 0 33 0;
#X connect 43 0 55 0;
#X connect 45 0 42 1;
#X connect 46 0 2 0;
#X connect 47 0 46 1;
#X connect 48 0 50 1;
#X connect 49 0 50 0;
#X connect 50 0 44 0;
#X connect 51 0 56 0;
#X connect 53 0 48 0;
#X connect 55 0 57 0;
#X connect 56 0 58 0;
#X connect 56 1 57 1;
#X connect 56 1 61 0;
#X connect 57 0 49 0;
#X connect 58 0 57 1;
#X connect 58 0 60 0;
#X connect 59 0 49 0;
#X connect 60 0 59 0;
#X connect 61 0 59 0;
#X restore -39 766 pd filtersmanager;
#X obj 60 737 r \$3-filterselect;
#X obj -1 625 receive~ \$3-siglfo;
#X msg -216 305 stop;
#X obj -537 435 +~ 1;
#X obj -519 608 receive~ \$3-siglfo;
#X obj -536 748 *~;
#X obj -520 711 *~;
#X msg -399 699 1;
#X obj -399 732 sig~;
#X msg -354 699 0;
#X obj -399 608 receive \$3-lfovolumeenable;
#X obj -399 638 select 0;
#X msg -436 655 0;
#X msg -323 655 1;
#X obj -520 656 expr~ 1-$v1;
#X obj -527 283 receive~ \$3-siglfopitch;
#X connect 0 0 1 0;
#X connect 1 0 5 1;
#X connect 2 0 5 0;
#X connect 3 0 14 3;
#X connect 3 0 22 0;
#X connect 3 0 48 0;
#X connect 4 0 0 1;
#X connect 5 0 14 0;
#X connect 6 0 1 1;
#X connect 7 0 2 0;
#X connect 7 1 0 0;
#X connect 7 2 6 0;
#X connect 8 0 51 0;
#X connect 9 0 10 0;
#X connect 10 0 12 0;
#X connect 11 0 8 1;
#X connect 12 0 11 0;
#X connect 14 0 49 0;
#X connect 14 1 28 0;
#X connect 14 1 31 0;
#X connect 15 0 14 4;
#X connect 16 0 14 5;
#X connect 17 0 14 6;
#X connect 18 0 19 0;
#X connect 19 0 7 0;
#X connect 19 1 4 0;
#X connect 19 1 2 1;
#X connect 20 0 12 0;
#X connect 21 0 8 0;
#X connect 22 0 28 0;
#X connect 22 0 31 0;
#X connect 22 0 45 1;
#X connect 23 0 31 0;
#X connect 23 0 45 1;
#X connect 24 0 27 0;
#X connect 27 0 23 0;
#X connect 27 0 37 0;
#X connect 29 0 28 0;
#X connect 30 0 29 0;
#X connect 31 0 21 1;
#X connect 32 0 31 1;
#X connect 33 0 31 2;
#X connect 34 0 31 3;
#X connect 35 0 31 4;
#X connect 36 0 37 1;
#X connect 37 0 29 0;
#X connect 38 0 21 0;
#X connect 39 0 14 2;
#X connect 40 0 45 4;
#X connect 41 0 45 5;
#X connect 42 0 45 6;
#X connect 43 0 45 7;
#X connect 44 0 45 2;
#X connect 45 0 13 0;
#X connect 46 0 45 8;
#X connect 47 0 45 3;
#X connect 48 0 37 0;
#X connect 49 0 38 0;
#X connect 50 0 60 0;
#X connect 51 0 45 0;
#X connect 52 0 51 1;
#X connect 53 0 54 0;
#X connect 54 0 51 1;
#X connect 55 0 54 0;
#X connect 56 0 57 0;
#X connect 57 0 58 0;
#X connect 57 0 53 0;
#X connect 57 1 55 0;
#X connect 57 1 59 0;
#X connect 58 0 52 1;
#X connect 59 0 52 1;
#X connect 60 0 52 0;
#X connect 61 0 14 1;
