#N canvas 1869 195 776 671 10;
#X obj -479 131 inlet;
#X obj -514 424 *~;
#X obj -638 296 loadbang;
#X msg -638 325 1;
#X obj -638 406 line~;
#X msg -638 383 \$1 50;
#X obj -209 643 throw~ soundoutput;
#X obj -514 395 *~;
#X msg -257 170 1;
#X msg -213 214 0;
#X obj -213 81 inlet;
#X text -480 115 noteon;
#X text -216 63 noteoff;
#X obj -213 107 bng 15 250 50 0 empty empty empty 17 7 0 10 -262144
-1 -1;
#X obj -69 271 switch~;
#X msg -69 246 0;
#X obj -69 215 loadbang;
#X obj -257 378 adsr 500 5 0.2 200;
#X obj -142 211 delay;
#X obj -515 336 tabread4~ \$1;
#N canvas 252 219 815 668 filtersmanager 0;
#X obj 123 340 inlet;
#X obj 28 17 inlet~;
#X obj 28 440 outlet~;
#X text 112 323 noteon/off;
#X obj 303 357 adsr 500 5 1 500;
#X obj 287 323 inlet;
#X text 283 307 attack;
#X obj 339 322 inlet;
#X text 338 307 decay;
#X obj 385 322 inlet;
#X obj 430 322 inlet;
#X text 384 307 sustain;
#X text 429 307 release;
#X obj 485 94 select 1;
#X obj 555 94 select 2;
#X obj 407 94 select 0;
#X obj 498 42 inlet;
#X text 381 23 filter connection 0=none \, 1=highpass \, 2=lowpass
;
#X obj 29 99 *~ 0;
#X obj 163 102 *~ 0;
#X obj 50 72 r \$0-hpenable;
#X obj 184 74 r \$0-lpenable;
#X msg 407 189 0;
#X obj 407 231 s \$0-hpenable;
#X obj 407 209 s \$0-lpenable;
#X msg 485 123 0;
#X obj 497 165 s \$0-hpenable;
#X obj 485 188 s \$0-lpenable;
#X msg 497 144 1;
#X obj 594 173 s \$0-hpenable;
#X obj 582 196 s \$0-lpenable;
#X msg 582 131 1;
#X msg 594 152 0;
#X obj 29 275 *~ 0;
#X obj -91 279 *~ 1;
#X msg 311 193 1;
#X obj 50 248 r \$0-outfilter;
#X obj -70 245 r \$0-outbypass;
#X obj 407 254 s \$0-outfilter;
#X obj 311 220 s \$0-outbypass;
#X obj 514 232 s \$0-outfilter;
#X obj 504 264 s \$0-outbypass;
#N canvas 122 527 357 244 sighighpass 0;
#X obj 50 89 inlet~;
#X text 104 10 cutoff;
#X obj 249 22 inlet;
#X obj 249 54 switch~;
#X obj 106 26 inlet~;
#X obj 85 181 outlet~;
#X obj 84 147 vcf_hp2~;
#X obj 128 72 loadbang;
#X obj 128 123 sig~;
#X msg 128 98 1;
#X obj 107 49 *~ 12000;
#X connect 0 0 6 0;
#X connect 2 0 3 0;
#X connect 4 0 10 0;
#X connect 6 0 5 0;
#X connect 7 0 9 0;
#X connect 8 0 6 2;
#X connect 9 0 8 0;
#X connect 10 0 6 1;
#X restore 29 172 pd sighighpass;
#X obj 217 371 inlet~;
#X obj 218 626 s~ \$0-cutoffinlet;
#X obj 68 142 r~ \$0-cutoffinlet;
#N canvas 560 425 309 249 siglowpass 0;
#X obj 50 118 inlet~;
#X text 104 5 cutoff;
#X obj 208 51 inlet;
#X obj 208 83 switch~;
#X obj 106 21 inlet~;
#X obj 85 210 outlet~;
#X obj 128 101 loadbang;
#X obj 128 152 sig~;
#X msg 128 127 1;
#X obj 107 78 *~ 12000;
#X obj 84 176 vcf_lp2~;
#X obj 107 50 expr~ 1-$v1;
#X connect 0 0 10 0;
#X connect 2 0 3 0;
#X connect 4 0 11 0;
#X connect 6 0 8 0;
#X connect 7 0 10 2;
#X connect 8 0 7 0;
#X connect 9 0 10 1;
#X connect 10 0 5 0;
#X connect 11 0 9 0;
#X restore 163 174 pd siglowpass;
#X obj 200 141 r~ \$0-cutoffinlet;
#X obj 218 512 *~;
#X obj 219 577 *~;
#X text 204 356 cutoff lfo;
#X obj 153 516 inlet;
#X text 135 500 cutoff slider;
#X obj 217 436 expr~ 1-$v1;
#X obj 233 557 line~;
#X msg 233 533 \$1 30;
#X connect 0 0 4 0;
#X connect 1 0 18 0;
#X connect 1 0 19 0;
#X connect 1 0 34 0;
#X connect 4 0 48 1;
#X connect 5 0 4 1;
#X connect 7 0 4 2;
#X connect 9 0 4 3;
#X connect 10 0 4 4;
#X connect 13 0 25 0;
#X connect 13 0 28 0;
#X connect 14 0 31 0;
#X connect 14 0 32 0;
#X connect 15 0 22 0;
#X connect 15 0 35 0;
#X connect 16 0 15 0;
#X connect 16 0 13 0;
#X connect 16 0 14 0;
#X connect 18 0 42 0;
#X connect 19 0 46 0;
#X connect 20 0 18 1;
#X connect 20 0 42 2;
#X connect 21 0 19 1;
#X connect 21 0 46 2;
#X connect 22 0 23 0;
#X connect 22 0 24 0;
#X connect 22 0 38 0;
#X connect 25 0 27 0;
#X connect 25 0 41 0;
#X connect 28 0 26 0;
#X connect 28 0 40 0;
#X connect 31 0 30 0;
#X connect 31 0 40 0;
#X connect 32 0 29 0;
#X connect 32 0 41 0;
#X connect 33 0 2 0;
#X connect 34 0 2 0;
#X connect 35 0 39 0;
#X connect 36 0 33 1;
#X connect 37 0 34 1;
#X connect 42 0 33 0;
#X connect 43 0 53 0;
#X connect 45 0 42 1;
#X connect 46 0 33 0;
#X connect 47 0 46 1;
#X connect 48 0 49 0;
#X connect 49 0 44 0;
#X connect 51 0 55 0;
#X connect 53 0 48 0;
#X connect 54 0 49 1;
#X connect 55 0 54 0;
#X restore -208 576 pd filtersmanager;
#X msg -142 170 stop;
#X obj -514 560 *~;
#X obj -499 537 expr~ 1-$v1;
#N canvas 295 423 1033 511 sampleindexer 0;
#X obj 317 -88 inlet;
#X text 315 -108 trigger;
#X obj 159 -88 inlet~;
#X text 158 -106 lfo;
#X obj 632 -88 inlet;
#X text 623 -107 loop on/off;
#X obj 423 -88 inlet;
#X obj 536 -88 inlet;
#X text 535 -109 sample end;
#X obj 158 41 johsloop~;
#X text 418 -108 samplestart;
#X obj 159 107 outlet~;
#X obj 565 188 outlet;
#X obj 565 138 delay;
#X obj 592 113 expr $f1/44.1;
#X obj 598 21 == 0;
#X obj 565 63 spigot;
#X obj 598 43 tgl 15 0 empty empty empty 17 7 0 10 -262144 -1 -1 0
1;
#X msg 565 163 0;
#X obj 218 -88 inlet;
#X text 216 -105 lfoenable;
#X obj 317 -12 trigger bang float;
#X obj 422 20 expr pow(2 \, ($f1/12));
#X obj 218 -61 s \$0-lfoenable;
#X obj 317 21 s \$0-trigger;
#X obj 422 52 s \$0-setpitch;
#X obj 423 -61 s \$0-samplestart;
#X obj 536 -61 s \$0-sampleend;
#X obj 632 -61 s \$0-looponoff;
#X obj 565 -26 r \$0-trigger;
#X obj 598 0 r \$0-looponoff;
#X obj 592 86 r \$0-sampleend;
#X obj 33 -50 r \$0-lfoenable;
#X obj 16 8 r \$0-setpitch;
#X obj 175 -22 r \$0-trigger;
#X obj 192 -2 r \$0-samplestart;
#X obj 209 17 r \$0-sampleend;
#X connect 0 0 21 0;
#X connect 2 0 9 0;
#X connect 4 0 28 0;
#X connect 6 0 26 0;
#X connect 7 0 27 0;
#X connect 9 0 11 0;
#X connect 13 0 18 0;
#X connect 14 0 13 1;
#X connect 15 0 17 0;
#X connect 16 0 13 0;
#X connect 17 0 16 1;
#X connect 18 0 12 0;
#X connect 19 0 23 0;
#X connect 21 0 24 0;
#X connect 21 1 22 0;
#X connect 22 0 25 0;
#X connect 29 0 16 0;
#X connect 30 0 15 0;
#X connect 31 0 14 0;
#X connect 32 0 9 0;
#X connect 33 0 9 0;
#X connect 34 0 9 1;
#X connect 35 0 9 2;
#X connect 36 0 9 3;
#X restore -516 254 pd sampleindexer;
#X msg -498 56 enable;
#X msg -490 100 disable;
#X obj 14 306 outlet;
#X obj 14 277 float;
#X obj 14 254 bng 15 250 50 0 empty empty empty 17 7 0 10 -262144 -1
-1;
#X obj 41 254 r \$0-noteon;
#X obj -142 143 r \$0-noteon;
#X obj -257 143 r \$0-noteon;
#X obj -470 154 s \$0-noteon;
#X obj -517 8 receive~ \$2-siglfopitch;
#X obj -498 32 r \$2-lfopitchenable;
#X obj -488 76 r \$2-lfopitchdisable;
#X obj -461 174 receive \$2-loopstart;
#X obj -442 194 receive \$2-loopend;
#X obj -423 216 receive \$2-loopon;
#X obj -406 237 receive \$2-samplelength;
#X obj -115 189 receive \$2-release;
#X obj -231 289 receive \$2-attack;
#X obj -205 310 receive \$2-decay;
#X obj -179 330 receive \$2-sustain;
#X obj -152 352 receive \$2-release;
#X obj -638 357 receive \$2-volume;
#X obj -498 500 receive~ \$2-siglfovolume;
#X obj -184 420 r \$2-filtercutoff;
#X obj -170 440 r~ \$2-siglfofilter;
#X obj -159 462 r \$2-filterattack;
#X obj -147 484 r \$2-filterdecay;
#X obj -134 505 r \$2-filtersustain;
#X obj -122 526 r \$2-filterrelease;
#X obj -109 547 r \$2-filterselect;
#X obj -516 298 +~ 1;
#X obj -196 400 r notefilter;
#X obj -249 240 s notefilter;
#X connect 0 0 24 2;
#X connect 0 0 33 0;
#X connect 1 0 22 0;
#X connect 2 0 3 0;
#X connect 3 0 5 0;
#X connect 4 0 1 1;
#X connect 5 0 4 0;
#X connect 7 0 1 0;
#X connect 8 0 14 0;
#X connect 8 0 17 0;
#X connect 8 0 57 0;
#X connect 9 0 17 0;
#X connect 9 0 57 0;
#X connect 10 0 13 0;
#X connect 13 0 9 0;
#X connect 13 0 18 0;
#X connect 15 0 14 0;
#X connect 16 0 15 0;
#X connect 17 0 7 1;
#X connect 18 0 15 0;
#X connect 18 0 29 0;
#X connect 19 0 7 0;
#X connect 20 0 6 0;
#X connect 21 0 18 0;
#X connect 22 0 20 0;
#X connect 23 0 22 1;
#X connect 24 0 55 0;
#X connect 24 1 14 0;
#X connect 24 1 17 0;
#X connect 24 1 29 0;
#X connect 25 0 24 1;
#X connect 26 0 24 1;
#X connect 28 0 27 0;
#X connect 29 0 28 0;
#X connect 30 0 28 1;
#X connect 31 0 21 0;
#X connect 32 0 8 0;
#X connect 34 0 24 0;
#X connect 35 0 25 0;
#X connect 36 0 26 0;
#X connect 37 0 24 3;
#X connect 38 0 24 4;
#X connect 39 0 24 5;
#X connect 40 0 24 4;
#X connect 41 0 18 1;
#X connect 42 0 17 1;
#X connect 43 0 17 2;
#X connect 44 0 17 3;
#X connect 45 0 17 4;
#X connect 46 0 5 0;
#X connect 47 0 23 0;
#X connect 48 0 20 2;
#X connect 49 0 20 3;
#X connect 50 0 20 4;
#X connect 51 0 20 5;
#X connect 52 0 20 6;
#X connect 53 0 20 7;
#X connect 54 0 20 8;
#X connect 55 0 19 0;
#X connect 56 0 20 1;
