#N canvas 623 451 301 386 10;
#X obj 90 4 inlet noteon;
#N canvas 802 398 654 370 samplelooper 0;
#X obj 122 254 samplelooper~;
#X obj 121 291 outlet~;
#X obj 210 306 outlet;
#X msg 122 22 enablelfo;
#X msg 129 44 disablelfo;
#X msg 136 67 enableloop;
#X msg 142 90 disableloop;
#X obj 300 94 s \$0-trigger;
#X obj 423 96 s \$0-setpitch;
#X obj 25 194 r \$0-setpitch;
#X obj 300 30 inlet noteon;
#X obj 31 215 r \$0-trigger;
#X msg 210 279 0;
#X obj 30 27 loadbang;
#X obj 300 61 trigger bang float;
#X obj 144 164 r \$2-samplestart-\$3;
#X obj 166 184 r \$2-sampleend-\$3;
#X obj 188 204 r \$2-loopstart-\$3;
#X obj 210 224 r \$2-loopend-\$3;
#X obj 415 194 r \$2-samplelength-\$3;
#X obj 357 236 s \$2-sampleend-\$3;
#X obj 489 236 s \$2-loopend-\$3;
#X connect 0 0 1 0;
#X connect 0 1 12 0;
#X connect 3 0 0 0;
#X connect 4 0 0 0;
#X connect 5 0 0 0;
#X connect 6 0 0 0;
#X connect 9 0 0 0;
#X connect 10 0 14 0;
#X connect 11 0 0 0;
#X connect 12 0 2 0;
#X connect 13 0 4 0;
#X connect 13 0 6 0;
#X connect 14 0 7 0;
#X connect 14 1 8 0;
#X connect 15 0 0 1;
#X connect 16 0 0 2;
#X connect 17 0 0 3;
#X connect 18 0 0 4;
#X connect 19 0 20 0;
#X connect 19 0 21 0;
#X restore 3 192 pd samplelooper;
#X obj 3 214 tabread4~ \$1;
#X obj 3 356 throw~ \$2-instrumentoutput;
#X obj 90 89 trigger bang bang;
#X obj 170 307 switch~;
#X obj 170 282 r \$0-switch;
#X obj 206 131 s \$0-switch;
#X obj 105 214 s \$0-switch;
#X obj 4 279 *~;
#X msg 206 110 1;
#X obj 22 236 r \$0-vel;
#X obj 22 257 / 127;
#X obj 122 66 s \$0-vel;
#X obj 90 28 t f f;
#X obj 29 300 r \$1-volume;
#X obj 4 325 *~ 1;
#N canvas 958 569 450 300 calcpitch 0;
#X obj 57 15 inlet;
#X obj 57 228 outlet;
#X obj 139 103 r \$1-finetune;
#X obj 139 16 r \$1-basenote;
#X obj 57 95 * 1;
#X obj 171 57 / 12;
#X obj 139 78 pow;
#X msg 139 57 2;
#X obj 139 36 t b f;
#X msg 57 51 1;
#X obj 57 187 * 1;
#X obj 171 149 / 12;
#X obj 139 170 pow;
#X msg 139 149 2;
#X obj 139 128 t b f;
#X connect 0 0 9 0;
#X connect 2 0 14 0;
#X connect 3 0 8 0;
#X connect 4 0 10 0;
#X connect 5 0 6 1;
#X connect 6 0 4 1;
#X connect 7 0 6 0;
#X connect 8 0 7 0;
#X connect 8 1 5 0;
#X connect 9 0 4 0;
#X connect 10 0 1 0;
#X connect 11 0 12 1;
#X connect 12 0 10 1;
#X connect 13 0 12 0;
#X connect 14 0 13 0;
#X connect 14 1 11 0;
#X restore 90 130 pd calcpitch;
#X connect 0 0 14 0;
#X connect 1 0 2 0;
#X connect 1 1 8 0;
#X connect 2 0 9 0;
#X connect 4 0 17 0;
#X connect 4 1 10 0;
#X connect 6 0 5 0;
#X connect 9 0 16 0;
#X connect 10 0 7 0;
#X connect 11 0 12 0;
#X connect 12 0 9 1;
#X connect 14 0 4 0;
#X connect 14 1 13 0;
#X connect 15 0 16 1;
#X connect 16 0 3 0;
#X connect 17 0 1 0;
