#N canvas 234 312 615 644 10;
#X obj 101 10 inlet noteon;
#N canvas 826 499 654 370 samplelooper 1;
#X obj 122 254 samplelooper~;
#X obj 121 291 outlet~;
#X obj 210 306 outlet;
#X msg 122 22 enablelfo;
#X msg 129 44 disablelfo;
#X msg 136 67 enableloop;
#X msg 142 90 disableloop;
#X obj 300 94 s \$0-trigger;
#X obj 423 96 s \$0-setpitch;
#X obj 25 194 r \$0-setpitch;
#X obj 300 30 inlet noteon;
#X obj 31 215 r \$0-trigger;
#X msg 210 279 0;
#X obj 30 27 loadbang;
#X obj 300 61 trigger bang float;
#X obj 415 194 r \$0-samplelength-\$3;
#X obj 357 236 s \$0-sampleend-\$3;
#X obj 489 236 s \$0-loopend-\$3;
#X obj 144 164 r \$0-samplestart-\$3;
#X obj 166 184 r \$0-sampleend-\$3;
#X obj 188 204 r \$0-loopstart-\$3;
#X obj 210 224 r \$0-loopend-\$3;
#X connect 0 0 1 0;
#X connect 0 1 12 0;
#X connect 3 0 0 0;
#X connect 4 0 0 0;
#X connect 5 0 0 0;
#X connect 6 0 0 0;
#X connect 9 0 0 0;
#X connect 10 0 14 0;
#X connect 11 0 0 0;
#X connect 12 0 2 0;
#X connect 13 0 4 0;
#X connect 13 0 6 0;
#X connect 14 0 7 0;
#X connect 14 1 8 0;
#X connect 15 0 16 0;
#X connect 15 0 17 0;
#X connect 18 0 0 1;
#X connect 19 0 0 2;
#X connect 20 0 0 3;
#X connect 21 0 0 4;
#X restore 101 395 pd samplelooper;
#X obj 101 329 trigger bang bang;
#X obj 268 571 switch~;
#X obj 268 546 r \$0-switch;
#X obj 217 371 s \$0-switch;
#X obj 203 417 s \$0-switch;
#X obj 102 543 *~;
#X msg 217 350 1;
#X obj 120 500 r \$0-vel;
#X obj 120 521 / 127;
#X obj 169 72 s \$0-vel;
#X obj 102 589 *~ 1;
#N canvas 328 568 285 182 calcpitch 0;
#X obj 57 15 inlet;
#X obj 57 139 outlet;
#X msg 57 51 1;
#X obj 57 98 * 1;
#X obj 171 60 / 12;
#X obj 139 81 pow;
#X msg 139 60 2;
#X obj 139 39 t b f;
#X obj 139 14 r \$0-finetune;
#X connect 0 0 2 0;
#X connect 2 0 3 0;
#X connect 3 0 1 0;
#X connect 4 0 5 1;
#X connect 5 0 3 1;
#X connect 6 0 5 0;
#X connect 7 0 6 0;
#X connect 7 1 4 0;
#X connect 8 0 7 0;
#X restore 101 355 pd calcpitch;
#X obj 101 145 pack f s;
#X obj 154 98 loadbang;
#X obj 154 119 symbol \$1;
#X obj 110 454 r \$0-setarray;
#X obj 101 478 tabread4~;
#X obj 124 269 s \$0-setarray;
#X obj 328 297 tabread;
#X msg 124 240 set \$2-drum\$1;
#X msg 328 210 set \$2-params-\$1;
#X obj 389 297 tabread;
#X obj 216 193 t b l;
#X obj 449 239 r \$0-parambang;
#X obj 216 218 s \$0-parambang;
#X obj 448 297 tabread;
#X obj 127 564 r \$0-volume;
#X obj 448 341 s \$0-volume;
#X obj 101 176 t b l l;
#X obj 505 297 tabread;
#X obj 505 318 s \$0-finetune;
#X obj 101 620 throw~ \$1-instrumentoutput;
#X obj 328 381 s \$0-samplestart-\$3;
#X obj 389 362 s \$0-sampleend-\$3;
#X obj 101 34 t l l;
#X msg 169 51 \$2;
#X msg 101 61 \$1;
#X obj 101 84 - 35;
#X msg 336 272 0;
#X msg 389 274 1;
#X msg 448 276 3;
#X msg 505 276 4;
#X connect 0 0 36 0;
#X connect 1 0 18 0;
#X connect 1 1 6 0;
#X connect 2 0 13 0;
#X connect 2 1 8 0;
#X connect 4 0 3 0;
#X connect 7 0 12 0;
#X connect 8 0 5 0;
#X connect 9 0 10 0;
#X connect 10 0 7 1;
#X connect 12 0 33 0;
#X connect 13 0 1 0;
#X connect 14 0 30 0;
#X connect 15 0 16 0;
#X connect 16 0 14 1;
#X connect 17 0 18 0;
#X connect 18 0 7 0;
#X connect 20 0 34 0;
#X connect 21 0 19 0;
#X connect 22 0 20 0;
#X connect 22 0 23 0;
#X connect 22 0 27 0;
#X connect 22 0 31 0;
#X connect 23 0 35 0;
#X connect 24 0 26 0;
#X connect 24 1 22 0;
#X connect 25 0 40 0;
#X connect 25 0 41 0;
#X connect 25 0 42 0;
#X connect 25 0 43 0;
#X connect 27 0 29 0;
#X connect 28 0 12 1;
#X connect 30 0 2 0;
#X connect 30 1 24 0;
#X connect 30 1 21 0;
#X connect 31 0 32 0;
#X connect 36 0 38 0;
#X connect 36 1 37 0;
#X connect 37 0 11 0;
#X connect 38 0 39 0;
#X connect 39 0 14 0;
#X connect 40 0 20 0;
#X connect 41 0 23 0;
#X connect 42 0 27 0;
#X connect 43 0 31 0;
