#N canvas 1689 164 1190 779 10;
#X obj -491 180 float;
#X obj -424 197 *;
#X obj -538 180 float;
#X obj -513 254 inlet;
#X obj -433 88 expr $f1/44.1;
#X obj -538 214 pack 0 0;
#X obj -409 165 float \$2;
#X obj -538 122 trigger bang bang bang;
#X obj -537 522 *~;
#X obj -660 394 loadbang;
#X msg -660 423 1;
#X obj -660 504 line~;
#X msg -660 481 \$1 50;
#X obj -38 731 throw~ soundoutput;
#N canvas 1775 176 1000 707 lineloop 0;
#X obj 149 17 inlet;
#X text 130 -1 samples \, ms;
#X obj 607 11 inlet;
#X obj 736 12 inlet;
#X obj 149 96 unpack f f;
#X obj 133 728 outlet~;
#X obj 134 535 phasor~;
#X obj 149 390 expr 44100/$f1;
#X obj 313 304 float \$2;
#X obj 134 592 *~;
#X obj 179 215 delay;
#X obj 179 261 send \$0-cut;
#X obj 154 676 receive \$0-cut;
#X obj 259 85 send \$0-cut;
#X obj 173 508 receive \$0-cut;
#X obj 501 11 inlet;
#X text 480 -4 loop on/off;
#X msg 259 58 1;
#X msg 179 237 0;
#X obj 637 436 expr $f2 - $f1;
#X obj 761 493 delay;
#X obj 134 651 +~;
#X msg 341 60 0;
#X obj 761 560 send \$0-cut;
#X msg 761 530 1;
#X msg 637 392 0;
#X obj 341 87 send \$0-samplestart;
#X obj 149 314 send \$0-samplesize;
#X obj 149 359 receive \$0-samplesize;
#X obj 149 562 receive \$0-samplesize;
#X obj 637 474 send \$0-samplesize;
#X obj 149 616 receive \$0-samplestart;
#X obj 510 409 send \$0-samplestart;
#X obj 468 97 spigot;
#X text 601 -6 loop start;
#X text 736 -7 loop end;
#X msg 841 115 set \$1;
#X msg 718 338 131824;
#X obj 149 287 trigger float bang;
#X obj 133 700 *~ 0;
#X obj 385 14 inlet;
#X text 382 -3 trigger;
#X obj 243 173 bng 15 250 50 0 empty empty empty 17 7 0 10 -262144
-1 -1;
#X obj 149 188 float;
#X msg 28 198 stop;
#X obj 769 88 receive \$0-cut;
#X obj 736 119 spigot;
#X obj 736 54 trigger bang float;
#X obj 640 80 receive \$0-cut;
#X obj 607 103 spigot;
#X obj 607 53 trigger bang float;
#X obj 158 76 send \$0-cut;
#X msg 158 49 0;
#X obj 532 117 send \$0-cut;
#X msg 532 88 0;
#X obj 791 321 receive \$0-loopend;
#X obj 841 147 send \$0-loopend;
#X obj 607 132 send \$0-loopend;
#X obj 468 139 send \$0-loopend;
#X obj 637 314 receive \$0-loopstart;
#X obj 712 198 send \$0-loopstart;
#X obj 736 148 send \$0-loopend;
#X obj 822 510 send \$0-stopcut;
#X obj 28 177 receive \$0-stopcut;
#X obj 25 136 send \$0-loopend;
#X obj 25 85 send \$0-loopstart;
#X msg 25 113 set \$1;
#X obj 335 130 tgl 15 0 empty empty empty 17 7 0 10 -262144 -1 -1 0
1;
#X obj 422 113 == 0;
#X obj 302 156 spigot;
#X msg 712 170 set \$1;
#X msg 25 52 set 0;
#X obj 761 381 expr ($f1/44.1);
#X obj 791 355 send \$0-samplesize;
#X obj 761 466 *;
#X obj 313 404 expr 1/$f1;
#X obj 440 10 loadbang;
#X obj 268 254 outlet;
#X obj 341 345 send \$0-timeratio;
#X obj 776 404 receive \$0-timeratio;
#X msg 440 32 0;
#X obj 134 498 *;
#X obj 149 421 *;
#X obj 224 481 inlet;
#X text 221 467 freq ratio;
#X msg 134 462 1;
#X connect 0 0 4 0;
#X connect 0 0 52 0;
#X connect 2 0 50 0;
#X connect 3 0 47 0;
#X connect 4 0 43 0;
#X connect 4 0 71 0;
#X connect 4 0 66 0;
#X connect 4 1 10 1;
#X connect 6 0 9 0;
#X connect 7 0 82 0;
#X connect 8 0 75 0;
#X connect 8 0 78 0;
#X connect 9 0 21 0;
#X connect 10 0 18 0;
#X connect 12 0 39 1;
#X connect 14 0 6 1;
#X connect 15 0 33 1;
#X connect 15 0 54 0;
#X connect 15 0 68 0;
#X connect 17 0 13 0;
#X connect 18 0 11 0;
#X connect 18 0 77 0;
#X connect 19 0 30 0;
#X connect 20 0 25 0;
#X connect 20 0 24 0;
#X connect 20 0 62 0;
#X connect 21 0 39 0;
#X connect 22 0 26 0;
#X connect 24 0 23 0;
#X connect 25 0 19 0;
#X connect 25 0 32 0;
#X connect 28 0 7 0;
#X connect 28 0 85 0;
#X connect 29 0 9 1;
#X connect 31 0 21 1;
#X connect 33 0 58 0;
#X connect 36 0 56 0;
#X connect 37 0 19 1;
#X connect 37 0 72 0;
#X connect 37 0 73 0;
#X connect 38 0 27 0;
#X connect 38 1 8 0;
#X connect 39 0 5 0;
#X connect 40 0 33 0;
#X connect 40 0 69 0;
#X connect 40 0 22 0;
#X connect 40 0 17 0;
#X connect 42 0 10 0;
#X connect 42 0 43 0;
#X connect 43 0 38 0;
#X connect 44 0 10 0;
#X connect 45 0 46 1;
#X connect 46 0 61 0;
#X connect 47 0 46 0;
#X connect 47 1 36 0;
#X connect 48 0 49 1;
#X connect 49 0 57 0;
#X connect 50 0 49 0;
#X connect 50 1 70 0;
#X connect 52 0 51 0;
#X connect 54 0 53 0;
#X connect 55 0 37 0;
#X connect 59 0 25 0;
#X connect 63 0 44 0;
#X connect 66 0 64 0;
#X connect 67 0 69 1;
#X connect 68 0 67 0;
#X connect 69 0 42 0;
#X connect 70 0 60 0;
#X connect 71 0 65 0;
#X connect 72 0 74 0;
#X connect 74 0 20 0;
#X connect 75 0 82 1;
#X connect 76 0 80 0;
#X connect 79 0 74 1;
#X connect 80 0 33 1;
#X connect 80 0 68 0;
#X connect 81 0 6 0;
#X connect 82 0 81 1;
#X connect 83 0 81 0;
#X connect 85 0 81 0;
#X restore -538 352 pd lineloop;
#X obj -501 288 receive \$3-loopon;
#X obj -488 308 receive \$3-loopstart;
#X obj -475 328 receive \$3-loopend;
#X obj -538 28 receive \$3-samplelength;
#X obj -538 55 trigger bang float;
#X obj -660 455 receive \$3-volume;
#X obj -536 493 *~;
#X msg -331 271 1;
#X msg -287 310 0;
#X obj -287 218 inlet;
#X text -514 238 noteon;
#X text -290 200 noteoff;
#X obj -287 244 bng 15 250 50 0 empty empty empty 17 7 0 10 -262144
-1 -1;
#X obj -143 369 switch~;
#X msg -143 342 0;
#X obj -143 311 loadbang;
#X obj -331 476 adsr 500 5 0.2 200;
#X obj -305 387 receive \$3-attack;
#X obj -279 408 receive \$3-decay;
#X obj -253 428 receive \$3-sustain;
#X obj -226 450 receive \$3-release;
#X obj -189 230 receive \$3-release;
#X obj -216 259 delay;
#X msg -222 66 500;
#X msg -190 66 5;
#X obj -150 16 loadbang;
#X obj -223 98 send \$3-attack;
#X obj -190 120 send \$3-decay;
#X obj -159 145 send \$3-sustain;
#X obj -124 167 send \$3-release;
#X msg -159 66 1;
#X obj -38 540 *~ 1;
#X obj -17 441 receive \$3-lfo;
#X obj -537 434 tabread4~ \$1;
#X obj -17 511 spigot;
#X obj 16 464 receive \$3-lfovolumeenable;
#X obj -691 251 receive \$3-lfo;
#X obj -691 335 spigot;
#X obj -619 301 select 0;
#X msg -619 327 1;
#X obj -658 274 r \$3-lfopitchenable;
#X obj 40 490 select 0;
#X msg 40 523 1;
#X msg -124 66 500;
#X obj 3 584 r \$3-filterattack;
#X obj 17 606 r \$3-filterdecay;
#X obj 31 627 r \$3-filtersustain;
#X obj 45 649 r \$3-filterrelease;
#X obj -11 564 r \$3-filtercutoff;
#N canvas 1692 385 883 570 filtersmanager 1;
#N canvas 1691 638 560 307 highpass 1;
#X obj 19 112 inlet~;
#X obj 19 165 outlet~;
#X obj 289 178 s \$0-gain;
#X obj 113 177 s \$0-cutoff;
#X obj 192 177 s \$0-amount;
#X obj 192 110 inlet;
#X obj 289 101 inlet;
#X obj 113 110 inlet;
#X text 111 94 cutoff;
#X text 190 95 amount;
#X text 287 85 gain;
#X msg 303 149 0.5;
#X obj 303 126 loadbang;
#X obj 207 131 loadbang;
#X msg 207 154 1;
#X msg 124 154 0.5;
#X obj 124 131 loadbang;
#N canvas 1900 318 558 632 workings 1;
#X obj 80 36 inlet~ signal;
#X obj 225 580 outlet~;
#X obj 230 43 r \$0-cutoff;
#X msg 267 144 20;
#X msg 313 144 40000;
#X obj 267 116 loadbang;
#N canvas 66 87 458 308 rh_scalelog 0;
#X obj 20 155 exp;
#X obj 20 107 *;
#X obj 20 130 +;
#X obj 98 87 log;
#X obj 194 84 log;
#X obj 123 123 t b f;
#X obj 123 145 -;
#X obj 20 183 outlet;
#X obj 20 19 inlet;
#X obj 98 23 inlet;
#X obj 194 24 inlet;
#X connect 0 0 7 0;
#X connect 1 0 2 0;
#X connect 2 0 0 0;
#X connect 3 0 2 1;
#X connect 3 0 5 0;
#X connect 4 0 6 0;
#X connect 5 0 6 0;
#X connect 5 1 6 1;
#X connect 6 0 1 1;
#X connect 8 0 1 0;
#X connect 9 0 3 0;
#X connect 10 0 4 0;
#X restore 220 168 pd rh_scalelog;
#X obj 237 292 r \$0-amount;
#X obj 129 349 *~;
#X obj 222 338 line~;
#X msg 238 313 \$1 5;
#X obj 226 390 abs~;
#X obj 176 335 *~;
#X msg 302 326 1;
#X obj 224 365 -~ 1;
#X obj 305 472 r \$0-gain;
#N canvas 0 22 462 312 rh_scalelog 0;
#X obj 20 155 exp;
#X obj 20 107 *;
#X obj 20 130 +;
#X obj 98 87 log;
#X obj 194 84 log;
#X obj 123 123 t b f;
#X obj 123 145 -;
#X obj 20 183 outlet;
#X obj 20 19 inlet;
#X obj 98 23 inlet;
#X obj 194 24 inlet;
#X connect 0 0 7 0;
#X connect 1 0 2 0;
#X connect 2 0 0 0;
#X connect 3 0 2 1;
#X connect 3 0 5 0;
#X connect 4 0 6 0;
#X connect 5 0 6 0;
#X connect 5 1 6 1;
#X connect 6 0 1 1;
#X connect 8 0 1 0;
#X connect 9 0 3 0;
#X connect 10 0 4 0;
#X restore 305 542 pd rh_scalelog;
#X msg 352 518 0.1;
#X msg 398 518 10;
#X obj 225 553 *~;
#X obj 168 280 hip~;
#X obj 171 305 hip~;
#X obj 324 302 r \$0-loadbang;
#X obj 352 490 r \$0-loadbang;
#X obj 351 55 s \$0-loadbang;
#X obj 351 19 loadbang;
#X obj 182 136 snapshot~;
#X obj 120 93 metro 10;
#X obj 134 62 bng 15 250 50 0 empty empty empty 17 7 0 10 -262144 -1
-1;
#X obj 184 83 osc~ 1;
#X obj 418 120 vsl 15 128 0 1 0 0 empty empty empty 0 -9 0 10 -262144
-1 -1 5000 1;
#X connect 0 0 8 0;
#X connect 0 0 20 0;
#X connect 2 0 6 0;
#X connect 3 0 6 1;
#X connect 4 0 6 2;
#X connect 5 0 3 0;
#X connect 5 0 4 0;
#X connect 6 0 20 1;
#X connect 6 0 21 1;
#X connect 7 0 10 0;
#X connect 8 0 19 0;
#X connect 9 0 12 1;
#X connect 9 0 14 0;
#X connect 10 0 9 0;
#X connect 11 0 8 1;
#X connect 12 0 19 0;
#X connect 13 0 10 0;
#X connect 14 0 11 0;
#X connect 15 0 16 0;
#X connect 16 0 19 1;
#X connect 17 0 16 1;
#X connect 18 0 16 2;
#X connect 19 0 1 0;
#X connect 20 0 21 0;
#X connect 21 0 12 0;
#X connect 22 0 13 0;
#X connect 23 0 17 0;
#X connect 23 0 18 0;
#X connect 25 0 24 0;
#X connect 27 0 26 0;
#X connect 28 0 27 0;
#X connect 29 0 26 0;
#X restore 20 138 pd workings;
#X obj 374 105 inlet;
#X obj 374 179 switch~;
#X connect 0 0 17 0;
#X connect 5 0 4 0;
#X connect 6 0 2 0;
#X connect 7 0 3 0;
#X connect 11 0 2 0;
#X connect 12 0 11 0;
#X connect 13 0 14 0;
#X connect 14 0 4 0;
#X connect 15 0 3 0;
#X connect 16 0 15 0;
#X connect 17 0 1 0;
#X connect 18 0 19 0;
#X restore 156 130 pd highpass;
#X obj 194 339 inlet;
#X msg 566 339 5;
#X obj 606 289 loadbang;
#X msg 597 339 1;
#X obj 155 16 inlet~;
#X obj 156 439 outlet~;
#X obj 157 372 *~;
#X obj 36 422 *~;
#X obj 320 404 abs~;
#X obj 320 379 -~ 1;
#X msg 632 339 500;
#X text 183 322 noteon/off;
#X obj 321 356 adsr 500 5 1 500;
#X obj 265 17 inlet;
#X text 262 -1 cutoff;
#X obj 305 322 inlet;
#X text 301 306 attack;
#X obj 357 321 inlet;
#X text 356 306 decay;
#X obj 403 321 inlet;
#X obj 448 321 inlet;
#X text 402 306 sustain;
#X text 447 306 release;
#X msg 534 339 5000;
#X obj 613 93 select 1;
#X obj 683 93 select 2;
#X obj 535 93 select 0;
#X obj 626 41 inlet;
#X text 509 22 filter connection 0=none \, 1=highpass \, 2=lowpass
;
#X obj 156 98 *~ 0;
#X obj 266 100 *~ 0;
#X obj 177 71 r \$0-hpenable;
#X obj 287 72 r \$0-lpenable;
#X msg 535 188 0;
#X obj 535 230 s \$0-hpenable;
#X obj 535 208 s \$0-lpenable;
#X msg 613 122 0;
#X obj 625 164 s \$0-hpenable;
#X obj 613 187 s \$0-lpenable;
#X msg 625 143 1;
#X obj 722 172 s \$0-hpenable;
#X obj 710 195 s \$0-lpenable;
#X msg 710 130 1;
#X msg 722 151 0;
#N canvas 66 122 562 317 lowpass 0;
#X obj 19 112 inlet~;
#X obj 19 165 outlet~;
#X obj 331 175 s \$0-gain;
#X obj 155 174 s \$0-cutoff;
#X obj 234 174 s \$0-amount;
#X obj 234 107 inlet;
#X obj 331 98 inlet;
#X obj 155 107 inlet;
#X text 153 91 cutoff;
#X text 232 92 amount;
#X text 329 82 gain;
#X msg 345 146 0.5;
#X obj 345 123 loadbang;
#X obj 249 128 loadbang;
#X msg 249 151 1;
#X msg 166 151 0.5;
#X obj 166 128 loadbang;
#N canvas 259 149 558 632 workings 0;
#X obj 80 36 inlet~ signal;
#X obj 225 580 outlet~;
#X obj 220 86 r \$0-cutoff;
#X msg 267 144 20;
#X msg 313 144 40000;
#N canvas 66 82 458 308 rh_scalelog 0;
#X obj 20 155 exp;
#X obj 20 107 *;
#X obj 20 130 +;
#X obj 98 87 log;
#X obj 194 84 log;
#X obj 123 123 t b f;
#X obj 123 145 -;
#X obj 20 183 outlet;
#X obj 20 19 inlet;
#X obj 98 23 inlet;
#X obj 194 24 inlet;
#X connect 0 0 7 0;
#X connect 1 0 2 0;
#X connect 2 0 0 0;
#X connect 3 0 2 1;
#X connect 3 0 5 0;
#X connect 4 0 6 0;
#X connect 5 0 6 0;
#X connect 5 1 6 1;
#X connect 6 0 1 1;
#X connect 8 0 1 0;
#X connect 9 0 3 0;
#X connect 10 0 4 0;
#X restore 220 168 pd rh_scalelog;
#X obj 168 280 lop~;
#X obj 171 305 lop~;
#X obj 237 292 r \$0-amount;
#X obj 129 349 *~;
#X obj 222 338 line~;
#X msg 238 313 \$1 5;
#X obj 226 390 abs~;
#X obj 176 335 *~;
#X msg 302 326 1;
#X obj 224 365 -~ 1;
#X obj 305 457 r \$0-gain;
#N canvas 66 211 462 312 rh_scalelog 0;
#X obj 20 155 exp;
#X obj 20 107 *;
#X obj 20 130 +;
#X obj 98 87 log;
#X obj 194 84 log;
#X obj 123 123 t b f;
#X obj 123 145 -;
#X obj 20 183 outlet;
#X obj 20 19 inlet;
#X obj 98 23 inlet;
#X obj 194 24 inlet;
#X connect 0 0 7 0;
#X connect 1 0 2 0;
#X connect 2 0 0 0;
#X connect 3 0 2 1;
#X connect 3 0 5 0;
#X connect 4 0 6 0;
#X connect 5 0 6 0;
#X connect 5 1 6 1;
#X connect 6 0 1 1;
#X connect 8 0 1 0;
#X connect 9 0 3 0;
#X connect 10 0 4 0;
#X restore 305 542 pd rh_scalelog;
#X msg 352 518 0.1;
#X msg 398 518 10;
#X obj 225 553 *~;
#X obj 267 116 r \$0-loadbang;
#X obj 325 302 r \$0-loadbang;
#X obj 352 490 r \$0-loadbang;
#X obj 351 55 s \$0-loadbang;
#X obj 351 19 loadbang;
#X connect 0 0 6 0;
#X connect 0 0 9 0;
#X connect 2 0 5 0;
#X connect 3 0 5 1;
#X connect 4 0 5 2;
#X connect 5 0 6 1;
#X connect 5 0 7 1;
#X connect 6 0 7 0;
#X connect 7 0 13 0;
#X connect 8 0 11 0;
#X connect 9 0 20 0;
#X connect 10 0 13 1;
#X connect 10 0 15 0;
#X connect 11 0 10 0;
#X connect 12 0 9 1;
#X connect 13 0 20 0;
#X connect 14 0 11 0;
#X connect 15 0 12 0;
#X connect 16 0 17 0;
#X connect 17 0 20 1;
#X connect 18 0 17 1;
#X connect 19 0 17 2;
#X connect 20 0 1 0;
#X connect 21 0 3 0;
#X connect 21 0 4 0;
#X connect 22 0 14 0;
#X connect 23 0 18 0;
#X connect 23 0 19 0;
#X connect 25 0 24 0;
#X restore 19 140 pd workings;
#X obj 415 102 inlet;
#X obj 415 176 switch~;
#X connect 0 0 17 0;
#X connect 5 0 4 0;
#X connect 6 0 2 0;
#X connect 7 0 3 0;
#X connect 11 0 2 0;
#X connect 12 0 11 0;
#X connect 13 0 14 0;
#X connect 14 0 4 0;
#X connect 15 0 3 0;
#X connect 16 0 15 0;
#X connect 17 0 1 0;
#X connect 18 0 19 0;
#X restore 267 129 pd lowpass;
#X obj 37 323 *~ 0;
#X obj 95 234 *~ 1;
#X msg 439 192 1;
#X obj 58 296 r \$0-outfilter;
#X obj 116 200 r \$0-outbypass;
#X obj 535 253 s \$0-outfilter;
#X obj 439 219 s \$0-outbypass;
#X obj 642 231 s \$0-outfilter;
#X obj 632 263 s \$0-outbypass;
#X connect 0 0 7 0;
#X connect 1 0 13 0;
#X connect 2 0 13 2;
#X connect 3 0 24 0;
#X connect 3 0 2 0;
#X connect 3 0 4 0;
#X connect 3 0 11 0;
#X connect 4 0 13 3;
#X connect 5 0 30 0;
#X connect 5 0 31 0;
#X connect 5 0 46 0;
#X connect 5 0 47 0;
#X connect 7 0 6 0;
#X connect 8 0 6 0;
#X connect 9 0 8 1;
#X connect 10 0 9 0;
#X connect 11 0 13 4;
#X connect 13 0 7 1;
#X connect 13 0 10 0;
#X connect 14 0 0 1;
#X connect 14 0 45 1;
#X connect 16 0 13 1;
#X connect 18 0 13 2;
#X connect 20 0 13 3;
#X connect 21 0 13 4;
#X connect 24 0 13 1;
#X connect 25 0 37 0;
#X connect 25 0 40 0;
#X connect 26 0 43 0;
#X connect 26 0 44 0;
#X connect 27 0 34 0;
#X connect 27 0 48 0;
#X connect 28 0 27 0;
#X connect 28 0 25 0;
#X connect 28 0 26 0;
#X connect 30 0 0 0;
#X connect 31 0 45 0;
#X connect 32 0 30 1;
#X connect 32 0 0 4;
#X connect 33 0 31 1;
#X connect 33 0 45 4;
#X connect 34 0 35 0;
#X connect 34 0 36 0;
#X connect 34 0 51 0;
#X connect 37 0 39 0;
#X connect 37 0 54 0;
#X connect 40 0 38 0;
#X connect 40 0 53 0;
#X connect 43 0 42 0;
#X connect 43 0 53 0;
#X connect 44 0 41 0;
#X connect 44 0 54 0;
#X connect 45 0 7 0;
#X connect 46 0 8 0;
#X connect 47 0 6 0;
#X connect 48 0 52 0;
#X connect 49 0 46 1;
#X connect 50 0 47 1;
#X restore -39 703 pd filtersmanager;
#X msg 135 726 1;
#X msg 186 732 2;
#X msg 97 704 0;
#X obj 133 703 loadbang;
#X obj 60 674 r \$3-filterselect;
#X obj -415 570 receive \$3-lfo;
#X obj -415 640 spigot;
#X obj -358 617 select 0;
#X obj -382 593 receive \$3-lfofilterenable;
#X msg -358 640 0.5;
#X connect 0 0 1 0;
#X connect 1 0 5 1;
#X connect 2 0 5 0;
#X connect 3 0 14 2;
#X connect 3 0 22 0;
#X connect 4 0 0 1;
#X connect 5 0 14 0;
#X connect 6 0 1 1;
#X connect 7 0 2 0;
#X connect 7 1 0 0;
#X connect 7 2 6 0;
#X connect 8 0 46 0;
#X connect 9 0 10 0;
#X connect 10 0 12 0;
#X connect 11 0 8 1;
#X connect 12 0 11 0;
#X connect 14 0 48 0;
#X connect 14 1 28 0;
#X connect 14 1 31 0;
#X connect 15 0 14 3;
#X connect 16 0 14 4;
#X connect 17 0 14 5;
#X connect 18 0 19 0;
#X connect 19 0 7 0;
#X connect 19 1 4 0;
#X connect 19 1 2 1;
#X connect 20 0 12 0;
#X connect 21 0 8 0;
#X connect 22 0 28 0;
#X connect 22 0 31 0;
#X connect 22 0 64 1;
#X connect 23 0 31 0;
#X connect 23 0 64 1;
#X connect 24 0 27 0;
#X connect 27 0 23 0;
#X connect 27 0 37 0;
#X connect 29 0 28 0;
#X connect 30 0 29 0;
#X connect 31 0 21 1;
#X connect 32 0 31 1;
#X connect 33 0 31 2;
#X connect 34 0 31 3;
#X connect 35 0 31 4;
#X connect 36 0 37 1;
#X connect 37 0 29 0;
#X connect 38 0 41 0;
#X connect 39 0 42 0;
#X connect 40 0 38 0;
#X connect 40 0 39 0;
#X connect 40 0 45 0;
#X connect 40 0 58 0;
#X connect 45 0 43 0;
#X connect 46 0 64 0;
#X connect 47 0 49 0;
#X connect 48 0 21 0;
#X connect 49 0 46 1;
#X connect 50 0 49 1;
#X connect 50 0 56 0;
#X connect 51 0 52 0;
#X connect 52 0 14 1;
#X connect 53 0 54 0;
#X connect 54 0 14 1;
#X connect 55 0 52 1;
#X connect 55 0 53 0;
#X connect 56 0 57 0;
#X connect 57 0 46 1;
#X connect 58 0 44 0;
#X connect 59 0 64 3;
#X connect 60 0 64 4;
#X connect 61 0 64 5;
#X connect 62 0 64 6;
#X connect 63 0 64 2;
#X connect 64 0 13 0;
#X connect 65 0 64 7;
#X connect 66 0 64 7;
#X connect 67 0 64 7;
#X connect 68 0 65 0;
#X connect 69 0 64 7;
#X connect 70 0 71 0;
#X connect 71 0 64 2;
#X connect 72 0 74 0;
#X connect 73 0 71 1;
#X connect 73 0 72 0;
