#N canvas 1962 333 828 578 10;
#X obj 21 336 line~;
#X msg 21 313 \$1 50;
#X obj 154 272 *~;
#X msg 411 47 1;
#X msg 455 91 0;
#X obj 455 68 bng 15 250 50 0 empty empty empty 17 7 0 10 -262144 -1
-1;
#X obj 599 148 switch~;
#X msg 599 123 0;
#X obj 599 92 loadbang;
#X obj 153 213 tabread4~ \$1;
#N canvas 214 248 735 655 filtersmanager 0;
#X obj 109 268 inlet;
#X obj 33 17 inlet~;
#X obj 33 227 outlet~;
#X text 98 251 noteon/off;
#X obj 335 370 inlet;
#X text 331 354 attack;
#X obj 387 369 inlet;
#X text 386 354 decay;
#X obj 433 369 inlet;
#X obj 478 369 inlet;
#X text 432 354 sustain;
#X text 477 354 release;
#X obj 499 90 inlet;
#X text 392 68 filter connection 0=none \, 1=highpass \, 2=lowpass
;
#X obj 208 319 inlet~;
#X obj 209 588 s~ \$0-cutoffinlet;
#X obj 209 460 *~;
#X obj 210 563 *~;
#X text 195 301 cutoff lfo;
#X obj 133 496 inlet;
#X text 115 480 cutoff slider;
#X obj 208 384 expr~ 1-$v1;
#X obj 237 543 line~;
#X msg 237 519 \$1 30;
#X obj 308 393 adsr 500 5 1 500;
#X obj 64 40 r~ \$0-cutoffinlet;
#X obj 219 9 r \$0-bypass;
#X obj 194 34 *~ 1;
#X obj 308 285 t f f;
#X obj 333 479 snapshot~;
#X obj 344 521 print;
#X obj 375 455 metro 10;
#N canvas 98 408 627 300 filter 0;
#X obj 57 2 inlet~;
#X obj 83 27 inlet~;
#X obj 56 264 outlet~;
#X obj 57 173 faustreson~;
#X obj 273 25 inlet;
#X text 202 5 0=none \, 1=highpass \, 2=lowpass;
#X obj 207 63 select 0;
#X obj 273 63 select 1;
#X obj 342 63 select 2;
#X obj 527 110 switch~;
#X msg 518 80 0;
#X msg 553 80 1;
#X obj 518 50 loadbang;
#X msg 195 133 lp;
#X msg 147 126 hp;
#X obj 82 50 *~ 22000;
#X connect 0 0 3 0;
#X connect 1 0 15 0;
#X connect 3 0 2 0;
#X connect 4 0 6 0;
#X connect 4 0 7 0;
#X connect 4 0 8 0;
#X connect 6 0 10 0;
#X connect 7 0 11 0;
#X connect 7 0 14 0;
#X connect 8 0 11 0;
#X connect 8 0 13 0;
#X connect 10 0 9 0;
#X connect 11 0 9 0;
#X connect 12 0 10 0;
#X connect 13 0 3 0;
#X connect 14 0 3 0;
#X connect 15 0 3 1;
#X restore 33 107 pd filter;
#X obj 427 130 select 0;
#X obj 497 131 select 1;
#X obj 566 131 select 2;
#X msg 529 170 0;
#X obj 529 203 s \$0-bypass;
#X msg 427 152 1;
#X connect 0 0 28 0;
#X connect 1 0 27 0;
#X connect 1 0 32 0;
#X connect 4 0 24 1;
#X connect 6 0 24 2;
#X connect 8 0 24 3;
#X connect 9 0 24 4;
#X connect 12 0 32 2;
#X connect 12 0 34 0;
#X connect 12 0 35 0;
#X connect 12 0 33 0;
#X connect 14 0 21 0;
#X connect 16 0 17 0;
#X connect 17 0 15 0;
#X connect 19 0 23 0;
#X connect 21 0 16 0;
#X connect 22 0 17 1;
#X connect 23 0 22 0;
#X connect 24 0 16 1;
#X connect 25 0 32 1;
#X connect 26 0 27 1;
#X connect 27 0 2 0;
#X connect 28 0 24 0;
#X connect 29 0 30 0;
#X connect 31 0 29 0;
#X connect 32 0 2 0;
#X connect 33 0 38 0;
#X connect 34 0 36 0;
#X connect 35 0 36 0;
#X connect 36 0 37 0;
#X connect 38 0 37 0;
#X restore 460 453 pd filtersmanager;
#X obj 154 437 *~;
#X obj 172 414 expr~ 1-$v1;
#X obj 682 183 outlet;
#X obj 682 154 float;
#X obj 682 131 bng 15 250 50 0 empty empty empty 17 7 0 10 -262144
-1 -1;
#X obj 709 131 r \$0-noteon;
#X obj 411 7 r \$0-noteon;
#X obj 265 177 s \$0-noteon;
#X obj 151 61 receive~ \$2-siglfopitch;
#X obj 441 166 receive \$2-attack;
#X obj 472 187 receive \$2-decay;
#X obj 503 207 receive \$2-sustain;
#X obj 534 229 receive \$2-release;
#X obj 21 168 receive \$2-volume;
#X obj 173 377 receive~ \$2-siglfovolume;
#X obj 489 297 r \$2-filtercutoff;
#X obj 503 317 r~ \$2-siglfofilter;
#X obj 518 339 r \$2-filterattack;
#X obj 532 361 r \$2-filterdecay;
#X obj 547 382 r \$2-filtersustain;
#X obj 561 403 r \$2-filterrelease;
#X obj 576 424 r \$2-filterselect;
#X obj 152 175 +~ 1;
#X obj 419 117 s \$0-notefilter;
#X obj 474 277 r \$0-notefilter;
#X obj 460 536 throw~ \$2-instrumentoutput;
#X obj 254 96 inlet noteon;
#X obj 455 42 inlet noteoff;
#N canvas 1917 402 625 402 samplelooper 1;
#X obj 205 123 inlet~ lfosignal;
#X obj 179 265 samplelooper~;
#X obj 180 313 outlet~;
#X obj 267 313 outlet;
#X msg 179 33 enablelfo;
#X msg 186 55 disablelfo;
#X msg 193 78 enableloop;
#X msg 199 101 disableloop;
#X obj 20 16 r \$2-lfopitchenable;
#X obj 20 38 r \$2-lfopitchdisable;
#X obj 357 72 trigger bang float;
#X obj 357 105 s \$0-trigger;
#X obj 480 263 s \$0-setpitch;
#X obj 82 222 r \$0-setpitch;
#X obj 201 184 r \$2-samplestart;
#X obj 223 205 r \$2-sampleend;
#X obj 245 225 r \$2-loopstart;
#X obj 267 245 r \$2-loopend;
#X obj 357 41 inlet noteon;
#X obj 82 248 r \$0-trigger;
#X obj 20 58 r \$2-loopon;
#X obj 100 75 moses 1;
#X msg 267 289 0;
#X obj 452 320 r \$2-samplelength;
#X obj 394 362 s \$2-sampleend;
#X obj 502 362 s \$2-loopend;
#X obj 515 218 mtof;
#X obj 480 197 mtof;
#X obj 480 241 /;
#X obj 515 196 r \$2-rootnote;
#X obj 525 144 / 100;
#X obj 480 170 + 0;
#X obj 480 144 float;
#X obj 493 117 t b f;
#X obj 493 94 r \$2-finetune;
#X connect 0 0 1 0;
#X connect 1 0 2 0;
#X connect 1 1 22 0;
#X connect 4 0 1 0;
#X connect 5 0 1 0;
#X connect 6 0 1 0;
#X connect 7 0 1 0;
#X connect 8 0 4 0;
#X connect 9 0 5 0;
#X connect 10 0 11 0;
#X connect 10 1 32 0;
#X connect 13 0 1 0;
#X connect 14 0 1 1;
#X connect 15 0 1 2;
#X connect 16 0 1 3;
#X connect 17 0 1 4;
#X connect 18 0 10 0;
#X connect 19 0 1 0;
#X connect 20 0 21 0;
#X connect 21 0 7 0;
#X connect 21 1 6 0;
#X connect 22 0 3 0;
#X connect 23 0 24 0;
#X connect 23 0 25 0;
#X connect 26 0 28 1;
#X connect 27 0 28 0;
#X connect 28 0 12 0;
#X connect 29 0 26 0;
#X connect 30 0 31 1;
#X connect 31 0 27 0;
#X connect 32 0 31 0;
#X connect 33 0 32 0;
#X connect 33 1 30 0;
#X connect 34 0 33 0;
#X restore 152 148 pd samplelooper;
#X obj 312 221 r \$0-stopplay;
#X obj 660 104 r \$0-stopplay;
#X obj 254 199 s \$0-stopplay;
#X obj 71 292 loadbang;
#X obj 154 354 *~;
#X msg 71 313 1 0;
#X obj 461 512 *~;
#X obj 477 473 r \$0-velocity;
#X obj 265 120 t l l;
#X msg 265 142 \$1;
#X msg 318 137 \$2;
#X obj 318 157 s \$0-velocity;
#X obj 477 492 / 127;
#X obj 243 247 s \$0-velocity;
#X obj 411 255 adsr 500 5 0.2 200;
#X connect 0 0 44 1;
#X connect 1 0 0 0;
#X connect 2 0 44 0;
#X connect 3 0 6 0;
#X connect 3 0 34 0;
#X connect 3 0 54 0;
#X connect 4 0 34 0;
#X connect 4 0 54 0;
#X connect 5 0 4 0;
#X connect 7 0 6 0;
#X connect 8 0 7 0;
#X connect 9 0 2 0;
#X connect 10 0 46 0;
#X connect 11 0 10 0;
#X connect 12 0 11 1;
#X connect 14 0 13 0;
#X connect 15 0 14 0;
#X connect 16 0 14 1;
#X connect 17 0 3 0;
#X connect 19 0 39 0;
#X connect 20 0 54 1;
#X connect 21 0 54 2;
#X connect 22 0 54 3;
#X connect 23 0 54 4;
#X connect 24 0 1 0;
#X connect 25 0 12 0;
#X connect 26 0 10 2;
#X connect 27 0 10 3;
#X connect 28 0 10 4;
#X connect 29 0 10 5;
#X connect 30 0 10 6;
#X connect 31 0 10 7;
#X connect 32 0 10 8;
#X connect 33 0 9 0;
#X connect 35 0 10 1;
#X connect 37 0 39 1;
#X connect 37 0 48 0;
#X connect 38 0 5 0;
#X connect 39 0 33 0;
#X connect 39 1 42 0;
#X connect 39 1 53 0;
#X connect 40 0 54 0;
#X connect 41 0 6 0;
#X connect 41 0 15 0;
#X connect 43 0 45 0;
#X connect 44 0 11 0;
#X connect 45 0 0 0;
#X connect 46 0 36 0;
#X connect 47 0 52 0;
#X connect 48 0 49 0;
#X connect 48 1 50 0;
#X connect 49 0 18 0;
#X connect 50 0 51 0;
#X connect 52 0 46 1;
#X connect 54 0 2 1;
#X connect 54 1 7 0;
