#N canvas 1923 127 942 829 10;
#X obj -483 274 inlet;
#X obj -518 561 *~;
#X obj -642 433 loadbang;
#X msg -642 462 1;
#X obj -642 543 line~;
#X msg -642 520 \$1 50;
#X obj -213 780 throw~ soundoutput;
#X obj -642 494 receive \$3-volume;
#X obj -518 532 *~;
#X msg -261 307 1;
#X msg -217 351 0;
#X obj -217 218 inlet;
#X text -484 258 noteon;
#X text -220 200 noteoff;
#X obj -217 244 bng 15 250 50 0 empty empty empty 17 7 0 10 -262144
-1 -1;
#X obj -73 408 switch~;
#X msg -73 383 0;
#X obj -73 352 loadbang;
#X obj -261 515 adsr 500 5 0.2 200;
#X obj -235 426 receive \$3-attack;
#X obj -209 447 receive \$3-decay;
#X obj -183 467 receive \$3-sustain;
#X obj -156 489 receive \$3-release;
#X obj -119 326 receive \$3-release;
#X obj -146 348 delay;
#X obj -519 473 tabread4~ \$1;
#X obj -163 594 r \$3-filterattack;
#X obj -151 616 r \$3-filterdecay;
#X obj -138 637 r \$3-filtersustain;
#X obj -126 659 r \$3-filterrelease;
#X obj -188 548 r \$3-filtercutoff;
#N canvas 1755 264 914 689 filtersmanager 0;
#X obj 251 339 inlet;
#X obj 156 16 inlet~;
#X obj 156 439 outlet~;
#X text 240 322 noteon/off;
#X obj 431 356 adsr 500 5 1 500;
#X obj 415 322 inlet;
#X text 411 306 attack;
#X obj 467 321 inlet;
#X text 466 306 decay;
#X obj 513 321 inlet;
#X obj 558 321 inlet;
#X text 512 306 sustain;
#X text 557 306 release;
#X obj 613 93 select 1;
#X obj 683 93 select 2;
#X obj 535 93 select 0;
#X obj 626 41 inlet;
#X text 509 22 filter connection 0=none \, 1=highpass \, 2=lowpass
;
#X obj 157 98 *~ 0;
#X obj 291 101 *~ 0;
#X obj 178 71 r \$0-hpenable;
#X obj 312 73 r \$0-lpenable;
#X msg 535 188 0;
#X obj 535 230 s \$0-hpenable;
#X obj 535 208 s \$0-lpenable;
#X msg 613 122 0;
#X obj 625 164 s \$0-hpenable;
#X obj 613 187 s \$0-lpenable;
#X msg 625 143 1;
#X obj 722 172 s \$0-hpenable;
#X obj 710 195 s \$0-lpenable;
#X msg 710 130 1;
#X msg 722 151 0;
#X obj 157 274 *~ 0;
#X obj 37 278 *~ 1;
#X msg 439 192 1;
#X obj 178 247 r \$0-outfilter;
#X obj 58 244 r \$0-outbypass;
#X obj 535 253 s \$0-outfilter;
#X obj 439 219 s \$0-outbypass;
#X obj 642 231 s \$0-outfilter;
#X obj 632 263 s \$0-outbypass;
#N canvas 1804 488 314 153 sighighpass 0;
#X obj 21 57 inlet~;
#X text 104 10 cutoff;
#X obj 192 25 inlet;
#X obj 192 57 switch~;
#X obj 106 26 inlet~;
#X obj 75 102 outlet~;
#X obj 74 73 hipmmb;
#X obj 107 49 *~ 10000;
#X connect 0 0 6 0;
#X connect 2 0 3 0;
#X connect 4 0 7 0;
#X connect 6 0 5 0;
#X connect 7 0 6 1;
#X restore 157 171 pd sighighpass;
#X obj 345 370 inlet~;
#X obj 346 625 s~ \$0-cutoffinlet;
#X obj 170 140 r~ \$0-cutoffinlet;
#N canvas 1601 701 354 166 siglowpass 0;
#X obj 18 62 inlet~;
#X obj 75 99 outlet~;
#X text 105 10 cutoff;
#X obj 107 26 inlet~;
#X obj 76 78 lopmmb;
#X obj 195 30 inlet;
#X obj 195 62 switch~;
#X obj 108 51 *~ 10000;
#X connect 0 0 4 0;
#X connect 3 0 7 0;
#X connect 4 0 1 0;
#X connect 5 0 6 0;
#X connect 7 0 4 1;
#X restore 291 173 pd siglowpass;
#X obj 305 141 r~ \$0-cutoffinlet;
#X obj 361 539 sig~;
#X obj 346 511 *~;
#X obj 347 576 *~;
#X text 332 355 cutoff lfo;
#X obj 281 522 inlet;
#X text 263 506 cutoff slider;
#X obj 345 407 expr~ 1-$v1;
#X connect 0 0 4 0;
#X connect 1 0 18 0;
#X connect 1 0 19 0;
#X connect 1 0 34 0;
#X connect 4 0 49 1;
#X connect 5 0 4 1;
#X connect 7 0 4 2;
#X connect 9 0 4 3;
#X connect 10 0 4 4;
#X connect 13 0 25 0;
#X connect 13 0 28 0;
#X connect 14 0 31 0;
#X connect 14 0 32 0;
#X connect 15 0 22 0;
#X connect 15 0 35 0;
#X connect 16 0 15 0;
#X connect 16 0 13 0;
#X connect 16 0 14 0;
#X connect 18 0 42 0;
#X connect 19 0 46 0;
#X connect 20 0 18 1;
#X connect 20 0 42 2;
#X connect 21 0 19 1;
#X connect 21 0 46 2;
#X connect 22 0 23 0;
#X connect 22 0 24 0;
#X connect 22 0 38 0;
#X connect 25 0 27 0;
#X connect 25 0 41 0;
#X connect 28 0 26 0;
#X connect 28 0 40 0;
#X connect 31 0 30 0;
#X connect 31 0 40 0;
#X connect 32 0 29 0;
#X connect 32 0 41 0;
#X connect 33 0 2 0;
#X connect 34 0 2 0;
#X connect 35 0 39 0;
#X connect 36 0 33 1;
#X connect 37 0 34 1;
#X connect 42 0 33 0;
#X connect 43 0 54 0;
#X connect 45 0 42 1;
#X connect 46 0 2 0;
#X connect 47 0 46 1;
#X connect 48 0 50 1;
#X connect 49 0 50 0;
#X connect 50 0 44 0;
#X connect 52 0 48 0;
#X connect 54 0 49 0;
#X restore -212 713 pd filtersmanager;
#X obj -113 684 r \$3-filterselect;
#X msg -146 307 stop;
#X obj -518 697 *~;
#X obj -502 670 expr~ 1-$v1;
#X obj -501 643 receive~ \$3-siglfovolume;
#X obj -174 572 receive~ \$3-siglfofilter;
#N canvas 222 298 1033 511 sampleindexer 0;
#X obj 296 78 inlet;
#X text 294 58 trigger;
#X obj 150 78 inlet~;
#X text 149 60 lfo;
#X obj 559 78 inlet;
#X text 550 59 loop on/off;
#X obj 368 78 inlet;
#X obj 463 78 inlet;
#X text 462 57 sample end;
#X obj 149 207 johsloop~;
#X text 363 58 samplestart;
#X obj 150 273 outlet~;
#X obj 449 355 outlet;
#X obj 13 190 float \$2;
#X obj 13 165 loadbang;
#X obj 449 305 delay;
#X obj 476 280 expr $f1/44.1;
#X obj 476 253 r sampleend;
#X obj 200 183 r sampleend;
#X obj 183 164 r samplestart;
#X obj 166 144 r trigger;
#X obj 296 105 s trigger;
#X obj 368 105 s samplestart;
#X obj 463 105 s sampleend;
#X obj 559 105 s looponoff;
#X obj 449 141 r trigger;
#X obj 482 167 r looponoff;
#X obj 482 188 == 0;
#X obj 449 230 spigot;
#X obj 482 210 tgl 15 0 empty empty empty 17 7 0 10 -262144 -1 -1 0
1;
#X msg 449 330 0;
#X obj 215 78 inlet;
#X text 213 61 lfoenable;
#X obj 215 105 s lfoenable;
#X obj 64 113 r lfoenable;
#X connect 0 0 21 0;
#X connect 2 0 9 0;
#X connect 4 0 24 0;
#X connect 6 0 22 0;
#X connect 7 0 23 0;
#X connect 9 0 11 0;
#X connect 13 0 9 0;
#X connect 14 0 13 0;
#X connect 15 0 30 0;
#X connect 16 0 15 1;
#X connect 17 0 16 0;
#X connect 18 0 9 3;
#X connect 19 0 9 2;
#X connect 20 0 9 1;
#X connect 25 0 28 0;
#X connect 26 0 27 0;
#X connect 27 0 29 0;
#X connect 28 0 15 0;
#X connect 29 0 28 1;
#X connect 30 0 12 0;
#X connect 31 0 33 0;
#X connect 34 0 9 0;
#X restore -520 391 pd sampleindexer;
#X obj -502 175 r \$3-lfopitchenable;
#X msg -502 199 enable;
#X msg -494 243 disable;
#X obj -492 219 r \$3-lfopitchdisable;
#X obj -521 151 receive~ \$3-siglfopitch;
#X obj -427 353 receive \$3-loopon;
#X obj -465 311 receive \$3-loopstart;
#X obj -446 332 receive \$3-loopend;
#X obj -410 374 receive \$3-samplelength;
#X obj -483 334 bng 15 250 50 0 empty empty empty 17 7 0 10 -262144
-1 -1;
#X obj -491 434 +~ 1;
#X connect 0 0 9 0;
#X connect 0 0 33 0;
#X connect 0 0 48 0;
#X connect 1 0 34 0;
#X connect 2 0 3 0;
#X connect 3 0 5 0;
#X connect 4 0 1 1;
#X connect 5 0 4 0;
#X connect 7 0 5 0;
#X connect 8 0 1 0;
#X connect 9 0 15 0;
#X connect 9 0 18 0;
#X connect 9 0 31 1;
#X connect 10 0 18 0;
#X connect 10 0 31 1;
#X connect 11 0 14 0;
#X connect 14 0 10 0;
#X connect 14 0 24 0;
#X connect 16 0 15 0;
#X connect 17 0 16 0;
#X connect 18 0 8 1;
#X connect 19 0 18 1;
#X connect 20 0 18 2;
#X connect 21 0 18 3;
#X connect 22 0 18 4;
#X connect 23 0 24 1;
#X connect 24 0 16 0;
#X connect 25 0 8 0;
#X connect 26 0 31 4;
#X connect 27 0 31 5;
#X connect 28 0 31 6;
#X connect 29 0 31 7;
#X connect 30 0 31 2;
#X connect 31 0 6 0;
#X connect 32 0 31 8;
#X connect 33 0 24 0;
#X connect 34 0 31 0;
#X connect 35 0 34 1;
#X connect 36 0 35 0;
#X connect 37 0 31 3;
#X connect 38 0 25 0;
#X connect 38 1 15 0;
#X connect 38 1 18 0;
#X connect 39 0 40 0;
#X connect 40 0 38 1;
#X connect 41 0 38 1;
#X connect 42 0 41 0;
#X connect 43 0 38 0;
#X connect 44 0 38 5;
#X connect 45 0 38 3;
#X connect 46 0 38 4;
#X connect 47 0 38 4;
#X connect 48 0 38 2;
#X connect 49 0 25 0;
