#N canvas 1138 210 828 578 10;
#X obj 34 292 *~;
#X msg 291 67 1;
#X msg 335 111 0;
#X obj 335 88 bng 15 250 50 0 empty empty empty 17 7 0 10 #fcfcfc #000000 #000000;
#X obj 479 188 switch~;
#X msg 479 163 0;
#X obj 479 132 loadbang;
#X obj 276 354 tabread4~ \$1;
#N canvas 1600 221 735 574 filtersmanager 0;
#X obj 33 293 inlet~;
#X obj 33 503 outlet~;
#X text 400 373 filter connection 0=none \, 1=highpass \, 2=lowpass;
#X obj 330 226 *~;
#X obj 329 150 expr~ 1-$v1;
#X obj 226 285 r \$0-bypass;
#X obj 201 310 *~ 1;
#N canvas 1716 537 543 287 filter 0;
#X obj 104 26 inlet~;
#X obj 129 49 inlet~;
#X obj 103 185 outlet~;
#X obj 104 158 faustreson~;
#X obj 288 49 inlet;
#X text 217 29 0=none \, 1=highpass \, 2=lowpass;
#X obj 222 87 select 0;
#X obj 288 87 select 1;
#X obj 357 87 select 2;
#X obj 431 176 switch~;
#X msg 422 146 0;
#X msg 457 146 1;
#X obj 422 105 loadbang;
#X msg 187 123 lp;
#X msg 152 123 hp;
#X obj 17 83 r \$0-noteoff;
#X msg 17 112 clear;
#X connect 0 0 3 0;
#X connect 1 0 3 1;
#X connect 3 0 2 0;
#X connect 4 0 6 0;
#X connect 4 0 7 0;
#X connect 4 0 8 0;
#X connect 6 0 10 0;
#X connect 7 0 11 0;
#X connect 7 0 14 0;
#X connect 8 0 11 0;
#X connect 8 0 13 0;
#X connect 10 0 9 0;
#X connect 11 0 9 0;
#X connect 12 0 10 0;
#X connect 13 0 3 0;
#X connect 14 0 3 0;
#X connect 15 0 16 0;
#X connect 16 0 3 0;
#X restore 33 412 pd filter;
#X obj 435 435 select 0;
#X obj 505 436 select 1;
#X obj 574 436 select 2;
#X msg 537 475 0;
#X obj 537 508 s \$0-bypass;
#X msg 435 457 1;
#X obj 429 48 r \$0-notefilter;
#X obj 330 23 r~ \$2-siglfofilter;
#X obj 446 71 r \$2-filterattack;
#X obj 463 93 r \$2-filterdecay;
#X obj 480 115 r \$2-filtersustain;
#X obj 498 136 r \$2-filterrelease;
#X obj 84 316 r \$2-filterselect;
#X obj 505 390 r \$2-filterselect;
#X obj 429 159 adsr 0 0 1 0;
#X msg 344 287 \$1 30;
#X obj 329 330 *~;
#X obj 344 308 vline~;
#X obj 344 247 r \$2-filtercutoff;
#X obj 344 267 - 200;
#X obj 329 352 +~ 200;
#X connect 0 0 6 0;
#X connect 0 0 7 0;
#X connect 3 0 24 0;
#X connect 4 0 3 0;
#X connect 5 0 6 1;
#X connect 6 0 1 0;
#X connect 7 0 1 0;
#X connect 8 0 13 0;
#X connect 9 0 11 0;
#X connect 10 0 11 0;
#X connect 11 0 12 0;
#X connect 13 0 12 0;
#X connect 14 0 22 0;
#X connect 15 0 4 0;
#X connect 16 0 22 1;
#X connect 17 0 22 2;
#X connect 18 0 22 3;
#X connect 19 0 22 4;
#X connect 20 0 7 2;
#X connect 21 0 8 0;
#X connect 21 0 9 0;
#X connect 21 0 10 0;
#X connect 22 0 3 1;
#X connect 23 0 25 0;
#X connect 24 0 28 0;
#X connect 25 0 24 1;
#X connect 26 0 27 0;
#X connect 27 0 23 0;
#X connect 28 0 7 1;
#X restore 340 444 pd filtersmanager;
#X obj 34 427 *~;
#X obj 52 377 expr~ 1-$v1;
#X obj 562 223 outlet;
#X obj 562 194 float;
#X obj 562 171 bng 15 250 50 0 empty empty empty 17 7 0 10 #fcfcfc #000000 #000000;
#X obj 589 171 r \$0-noteon;
#X obj 291 4 r \$0-noteon;
#X obj 145 197 s \$0-noteon;
#X obj 31 81 receive~ \$2-siglfopitch;
#X obj 321 186 receive \$2-attack;
#X obj 329 207 receive \$2-decay;
#X obj 342 227 receive \$2-sustain;
#X obj 360 249 receive \$2-release;
#X obj 52 355 receive~ \$2-siglfovolume;
#X obj 299 137 s \$0-notefilter;
#X obj 340 538 throw~ \$2-instrumentoutput;
#X obj 134 116 inlet noteon;
#X obj 335 24 inlet noteoff;
#N canvas 1120 393 857 533 samplelooper 0;
#X obj 176 149 inlet~ lfosignal;
#X obj 175 475 outlet~;
#X obj 268 400 outlet;
#X obj 152 53 r \$2-lfopitchenable;
#X obj 437 72 trigger bang float;
#X obj 437 105 s \$0-trigger;
#X obj 542 442 s \$0-setpitch;
#X obj 78 305 r \$0-setpitch;
#X obj 193 171 r \$2-samplestart;
#X obj 212 194 r \$2-sampleend;
#X obj 230 241 r \$2-loopstart;
#X obj 249 264 r \$2-loopend;
#X obj 437 41 inlet noteon;
#X obj 78 331 r \$0-trigger;
#X msg 268 376 0;
#X obj 577 218 mtof;
#X obj 542 197 mtof;
#X obj 542 241 /;
#X obj 577 196 r \$2-rootnote;
#X obj 587 144 / 100;
#X obj 542 170 + 0;
#X obj 542 144 float;
#X obj 555 117 t b f;
#X obj 555 94 r \$2-finetune;
#X obj 747 331 samplerate~;
#X obj 715 277 r \$2-samplerate;
#X obj 715 370 /;
#X obj 715 303 t f b;
#X obj 542 417 *;
#X obj 212 218 + 1;
#X obj 249 289 + 1;
#X obj 561 337 f;
#X obj 561 267 r updatesamplerate;
#X obj 663 365 /;
#X obj 561 292 trigger bang float, f 20;
#X obj 576 313 r \$2-samplerate;
#X msg 152 79 enablelfo \$1;
#X obj 237 422 s libpdhost-waveplaybackframe;
#X msg 129 26 onnoteoff;
#X obj 129 4 r \$0-slnoteoff;
#X obj 268 320 r \$2-seamsize;
#X obj 175 348 samplelooper~ \$3;
#X obj 167 102 r \$2-loopmode;
#X msg 167 124 loopmode \$1;
#X obj 411 472 s \$2-direction;
#X obj 207 449 outlet~;
#X connect 0 0 41 0;
#X connect 3 0 36 0;
#X connect 4 0 5 0;
#X connect 4 1 21 0;
#X connect 7 0 41 0;
#X connect 8 0 41 1;
#X connect 9 0 29 0;
#X connect 10 0 41 3;
#X connect 11 0 30 0;
#X connect 12 0 4 0;
#X connect 13 0 41 0;
#X connect 14 0 2 0;
#X connect 15 0 17 1;
#X connect 16 0 17 0;
#X connect 17 0 28 0;
#X connect 18 0 15 0;
#X connect 19 0 20 1;
#X connect 20 0 16 0;
#X connect 21 0 20 0;
#X connect 22 0 21 0;
#X connect 22 1 19 0;
#X connect 23 0 22 0;
#X connect 24 0 26 1;
#X connect 25 0 27 0;
#X connect 26 0 28 1;
#X connect 27 0 26 0;
#X connect 27 1 24 0;
#X connect 28 0 6 0;
#X connect 29 0 41 2;
#X connect 30 0 41 4;
#X connect 31 0 33 0;
#X connect 32 0 34 0;
#X connect 33 0 28 1;
#X connect 34 0 31 0;
#X connect 34 1 33 1;
#X connect 35 0 31 1;
#X connect 36 0 41 0;
#X connect 38 0 41 0;
#X connect 39 0 38 0;
#X connect 40 0 41 5;
#X connect 41 0 1 0;
#X connect 41 1 45 0;
#X connect 41 2 37 0;
#X connect 41 3 14 0;
#X connect 42 0 43 0;
#X connect 43 0 41 0;
#X restore 32 168 pd samplelooper;
#X obj 192 241 r \$0-stopplay;
#X obj 540 144 r \$0-stopplay;
#X obj 134 219 s \$0-stopplay;
#X obj 341 514 *~;
#X obj 356 467 r \$0-velocity;
#X obj 145 140 t l l;
#X msg 145 162 \$1;
#X msg 198 157 \$2;
#X obj 198 177 s \$0-velocity;
#X obj 356 490 / 127;
#X obj 123 267 s \$0-velocity;
#X obj 342 67 r \$2-stopnotes;
#X obj 52 401 logvolume~ -50 0;
#X obj 291 275 adsr 0 0 1 0;
#X obj 452 107 r \$0-noteoff;
#X obj 360 304 s \$0-noteoff;
#X obj 566 73 s \$0-stopplay;
#X obj 566 52 0;
#X obj 566 31 r muteallnotes;
#X obj 268 321 +~ 1;
#X obj 342 46 s \$0-slnoteoff;
#N canvas 862 580 603 533 seamless 1;
#X obj 178 109 inlet~;
#X obj 180 422 outlet~;
#X obj 179 253 seamless~;
#X obj 118 301 tabread4~ \$1;
#X obj 214 313 tabread4~ \$1;
#X obj 180 357 *~;
#X obj 213 357 *~;
#X obj 217 181 r \$2-loopstart;
#X obj 230 204 r \$2-loopend;
#X obj 230 229 + 1;
#X obj 204 160 r \$2-seamsize;
#X obj 150 65 r \$2-loopmode;
#X msg 150 87 loopmode \$1;
#X obj 366 254 r \$2-direction;
#X msg 122 43 direction \$1;
#X obj 17 84 r \$0-noteon;
#X msg 21 154 noteon;
#X obj 35 246 print noteon;
#X obj 192 134 inlet~;
#X connect 0 0 2 0;
#X connect 2 0 3 0;
#X connect 2 1 5 1;
#X connect 2 2 4 0;
#X connect 2 3 6 1;
#X connect 3 0 5 0;
#X connect 4 0 6 0;
#X connect 5 0 1 0;
#X connect 6 0 1 0;
#X connect 7 0 2 3;
#X connect 8 0 9 0;
#X connect 9 0 2 4;
#X connect 10 0 2 2;
#X connect 11 0 12 0;
#X connect 12 0 2 0;
#X connect 14 0 2 0;
#X connect 15 0 16 0;
#X connect 16 0 2 0;
#X connect 16 0 17 0;
#X connect 18 0 2 1;
#X restore 33 241 pd seamless;
#X connect 0 0 9 0;
#X connect 1 0 4 0;
#X connect 1 0 23 0;
#X connect 1 0 41 0;
#X connect 2 0 23 0;
#X connect 2 0 41 0;
#X connect 3 0 2 0;
#X connect 5 0 4 0;
#X connect 6 0 5 0;
#X connect 8 0 31 0;
#X connect 9 0 8 0;
#X connect 10 0 40 0;
#X connect 12 0 11 0;
#X connect 13 0 12 0;
#X connect 14 0 12 1;
#X connect 15 0 1 0;
#X connect 17 0 27 0;
#X connect 18 0 41 1;
#X connect 19 0 41 2;
#X connect 20 0 41 3;
#X connect 21 0 41 4;
#X connect 22 0 10 0;
#X connect 25 0 27 1;
#X connect 25 0 33 0;
#X connect 26 0 3 0;
#X connect 26 0 48 0;
#X connect 27 0 49 0;
#X connect 27 1 49 1;
#X connect 27 2 30 0;
#X connect 27 2 38 0;
#X connect 28 0 41 0;
#X connect 29 0 4 0;
#X connect 29 0 13 0;
#X connect 31 0 24 0;
#X connect 32 0 37 0;
#X connect 33 0 34 0;
#X connect 33 1 35 0;
#X connect 34 0 16 0;
#X connect 35 0 36 0;
#X connect 37 0 31 1;
#X connect 39 0 3 0;
#X connect 40 0 9 1;
#X connect 41 0 0 1;
#X connect 41 1 43 0;
#X connect 42 0 5 0;
#X connect 45 0 44 0;
#X connect 46 0 45 0;
#X connect 47 0 7 0;
#X connect 49 0 0 0;
