#N canvas 1795 353 749 655 10;
#X obj -661 336 line~;
#X msg -661 313 \$1 50;
#X obj -544 272 *~;
#X msg -287 47 1;
#X msg -243 91 0;
#X obj -243 68 bng 15 250 50 0 empty empty empty 17 7 0 10 -262144
-1 -1;
#X obj -99 148 switch~;
#X msg -99 123 0;
#X obj -99 92 loadbang;
#X obj -287 255 adsr 500 5 0.2 200;
#X obj -545 213 tabread4~ \$1;
#N canvas 1674 336 815 668 filtersmanager 0;
#X obj 123 340 inlet;
#X obj 28 17 inlet~;
#X obj 28 440 outlet~;
#X text 112 323 noteon/off;
#X obj 287 323 inlet;
#X text 283 307 attack;
#X obj 339 322 inlet;
#X text 338 307 decay;
#X obj 385 322 inlet;
#X obj 430 322 inlet;
#X text 384 307 sustain;
#X text 429 307 release;
#X obj 485 94 select 1;
#X obj 555 94 select 2;
#X obj 407 94 select 0;
#X obj 498 42 inlet;
#X text 381 23 filter connection 0=none \, 1=highpass \, 2=lowpass
;
#X obj 29 99 *~ 0;
#X obj 163 102 *~ 0;
#X obj 50 72 r \$0-hpenable;
#X obj 184 74 r \$0-lpenable;
#X msg 407 189 0;
#X obj 407 231 s \$0-hpenable;
#X obj 407 209 s \$0-lpenable;
#X msg 485 123 0;
#X obj 497 165 s \$0-hpenable;
#X obj 485 188 s \$0-lpenable;
#X msg 497 144 1;
#X obj 594 173 s \$0-hpenable;
#X obj 582 196 s \$0-lpenable;
#X msg 582 131 1;
#X msg 594 152 0;
#X obj 29 275 *~ 0;
#X obj -91 279 *~ 1;
#X msg 311 193 1;
#X obj 50 248 r \$0-outfilter;
#X obj -70 245 r \$0-outbypass;
#X obj 407 254 s \$0-outfilter;
#X obj 311 220 s \$0-outbypass;
#X obj 514 232 s \$0-outfilter;
#X obj 504 264 s \$0-outbypass;
#N canvas 122 527 357 244 sighighpass 0;
#X obj 50 89 inlet~;
#X text 104 10 cutoff;
#X obj 249 22 inlet;
#X obj 249 54 switch~;
#X obj 106 26 inlet~;
#X obj 85 181 outlet~;
#X obj 84 147 vcf_hp2~;
#X obj 128 72 loadbang;
#X obj 128 123 sig~;
#X msg 128 98 1;
#X obj 107 49 *~ 12000;
#X connect 0 0 6 0;
#X connect 2 0 3 0;
#X connect 4 0 10 0;
#X connect 6 0 5 0;
#X connect 7 0 9 0;
#X connect 8 0 6 2;
#X connect 9 0 8 0;
#X connect 10 0 6 1;
#X restore 29 172 pd sighighpass;
#X obj 217 371 inlet~;
#X obj 218 626 s~ \$0-cutoffinlet;
#X obj 68 142 r~ \$0-cutoffinlet;
#N canvas 560 425 309 249 siglowpass 0;
#X obj 50 118 inlet~;
#X text 104 5 cutoff;
#X obj 208 51 inlet;
#X obj 208 83 switch~;
#X obj 106 21 inlet~;
#X obj 85 210 outlet~;
#X obj 128 101 loadbang;
#X obj 128 152 sig~;
#X msg 128 127 1;
#X obj 107 78 *~ 12000;
#X obj 84 176 vcf_lp2~;
#X obj 107 50 expr~ 1-$v1;
#X connect 0 0 10 0;
#X connect 2 0 3 0;
#X connect 4 0 11 0;
#X connect 6 0 8 0;
#X connect 7 0 10 2;
#X connect 8 0 7 0;
#X connect 9 0 10 1;
#X connect 10 0 5 0;
#X connect 11 0 9 0;
#X restore 163 174 pd siglowpass;
#X obj 200 141 r~ \$0-cutoffinlet;
#X obj 218 512 *~;
#X obj 219 577 *~;
#X text 204 356 cutoff lfo;
#X obj 153 516 inlet;
#X text 135 500 cutoff slider;
#X obj 217 436 expr~ 1-$v1;
#X obj 233 557 line~;
#X msg 233 533 \$1 30;
#X obj 333 393 adsr 500 5 1 500;
#X connect 0 0 55 0;
#X connect 1 0 17 0;
#X connect 1 0 18 0;
#X connect 1 0 33 0;
#X connect 4 0 55 1;
#X connect 6 0 55 2;
#X connect 8 0 55 3;
#X connect 9 0 55 4;
#X connect 12 0 24 0;
#X connect 12 0 27 0;
#X connect 13 0 30 0;
#X connect 13 0 31 0;
#X connect 14 0 21 0;
#X connect 14 0 34 0;
#X connect 15 0 14 0;
#X connect 15 0 12 0;
#X connect 15 0 13 0;
#X connect 17 0 41 0;
#X connect 18 0 45 0;
#X connect 19 0 17 1;
#X connect 19 0 41 2;
#X connect 20 0 18 1;
#X connect 20 0 45 2;
#X connect 21 0 22 0;
#X connect 21 0 23 0;
#X connect 21 0 37 0;
#X connect 24 0 26 0;
#X connect 24 0 40 0;
#X connect 27 0 25 0;
#X connect 27 0 39 0;
#X connect 30 0 29 0;
#X connect 30 0 39 0;
#X connect 31 0 28 0;
#X connect 31 0 40 0;
#X connect 32 0 2 0;
#X connect 33 0 2 0;
#X connect 34 0 38 0;
#X connect 35 0 32 1;
#X connect 36 0 33 1;
#X connect 41 0 32 0;
#X connect 42 0 52 0;
#X connect 44 0 41 1;
#X connect 45 0 32 0;
#X connect 46 0 45 1;
#X connect 47 0 48 0;
#X connect 48 0 43 0;
#X connect 50 0 54 0;
#X connect 52 0 47 0;
#X connect 53 0 48 1;
#X connect 54 0 53 0;
#X connect 55 0 47 1;
#X restore -238 453 pd filtersmanager;
#X obj -544 437 *~;
#X obj -529 414 expr~ 1-$v1;
#X obj -16 183 outlet;
#X obj -16 154 float;
#X obj -16 131 bng 15 250 50 0 empty empty empty 17 7 0 10 -262144
-1 -1;
#X obj 11 131 r \$0-noteon;
#X obj -287 7 r \$0-noteon;
#X obj -446 162 s \$0-noteon;
#X obj -547 61 receive~ \$2-siglfopitch;
#X obj -261 166 receive \$2-attack;
#X obj -235 187 receive \$2-decay;
#X obj -209 207 receive \$2-sustain;
#X obj -182 229 receive \$2-release;
#X obj -661 168 receive \$2-volume;
#X obj -528 377 receive~ \$2-siglfovolume;
#X obj -214 297 r \$2-filtercutoff;
#X obj -200 317 r~ \$2-siglfofilter;
#X obj -189 339 r \$2-filterattack;
#X obj -177 361 r \$2-filterdecay;
#X obj -164 382 r \$2-filtersustain;
#X obj -152 403 r \$2-filterrelease;
#X obj -139 424 r \$2-filterselect;
#X obj -546 175 +~ 1;
#X obj -279 117 s \$0-notefilter;
#X obj -226 277 r \$0-notefilter;
#X obj -238 600 throw~ \$2-instrumentoutput;
#X obj -459 96 inlet noteon;
#X obj -243 42 inlet noteoff;
#N canvas 1775 636 595 326 samplelooper 0;
#X obj -272 39 inlet~ lfosignal;
#X obj -298 181 samplelooper~;
#X obj -297 229 outlet~;
#X obj -223 229 outlet;
#X msg -298 -51 enablelfo;
#X msg -291 -29 disablelfo;
#X msg -284 -6 enableloop;
#X msg -278 17 disableloop;
#X obj -457 -68 r \$2-lfopitchenable;
#X obj -457 -46 r \$2-lfopitchdisable;
#X obj -120 -12 trigger bang float;
#X obj -120 21 s \$0-trigger;
#X obj -15 54 s \$0-setpitch;
#X obj -395 138 r \$0-setpitch;
#X obj -268 66 r \$2-samplestart;
#X obj -261 87 r \$2-sampleend;
#X obj -242 107 r \$2-loopstart;
#X obj -223 127 r \$2-loopend;
#X obj -120 -43 inlet noteon;
#X obj -395 164 r \$0-trigger;
#X obj -457 -26 r \$2-loopon;
#X obj -377 -9 moses 1;
#X msg -223 205 0;
#X obj -25 121 r \$2-samplelength;
#X obj -83 163 s \$2-sampleend;
#X obj 11 163 s \$2-loopend;
#X obj 23 15 mtof;
#X obj 23 -9 r \$2-setrootnote;
#X obj -15 10 mtof;
#X obj -15 32 / 440;
#X connect 0 0 1 0;
#X connect 1 0 2 0;
#X connect 1 1 22 0;
#X connect 4 0 1 0;
#X connect 5 0 1 0;
#X connect 6 0 1 0;
#X connect 7 0 1 0;
#X connect 8 0 4 0;
#X connect 9 0 5 0;
#X connect 10 0 11 0;
#X connect 10 1 28 0;
#X connect 13 0 1 0;
#X connect 14 0 1 1;
#X connect 15 0 1 2;
#X connect 16 0 1 3;
#X connect 17 0 1 4;
#X connect 18 0 10 0;
#X connect 19 0 1 0;
#X connect 20 0 21 0;
#X connect 21 0 7 0;
#X connect 21 1 6 0;
#X connect 22 0 3 0;
#X connect 23 0 24 0;
#X connect 23 0 25 0;
#X connect 26 0 29 1;
#X connect 27 0 26 0;
#X connect 28 0 29 0;
#X connect 29 0 12 0;
#X restore -546 148 pd samplelooper;
#X obj -369 203 r \$0-stopplay;
#X obj -38 104 r \$0-stopplay;
#X obj -459 199 s \$0-stopplay;
#X obj -611 292 loadbang;
#X obj -544 354 *~;
#X msg -611 313 1 0;
#X obj -237 576 *~;
#X obj -221 557 line~;
#X msg -221 534 \$1 50;
#X obj -171 520 loadbang;
#X msg -171 541 1 0;
#X obj -221 475 r \$0-velocity;
#X obj -446 120 t l l;
#X msg -446 142 \$1;
#X msg -373 142 \$2;
#X obj -373 162 s \$0-velocity;
#X obj -221 503 / 127;
#X connect 0 0 45 1;
#X connect 1 0 0 0;
#X connect 2 0 45 0;
#X connect 3 0 6 0;
#X connect 3 0 9 0;
#X connect 3 0 35 0;
#X connect 4 0 9 0;
#X connect 4 0 35 0;
#X connect 5 0 4 0;
#X connect 7 0 6 0;
#X connect 8 0 7 0;
#X connect 9 0 2 1;
#X connect 9 1 7 0;
#X connect 9 1 16 0;
#X connect 10 0 2 0;
#X connect 11 0 47 0;
#X connect 12 0 11 0;
#X connect 13 0 12 1;
#X connect 15 0 14 0;
#X connect 16 0 15 0;
#X connect 17 0 15 1;
#X connect 18 0 3 0;
#X connect 20 0 40 0;
#X connect 21 0 9 1;
#X connect 22 0 9 2;
#X connect 23 0 9 3;
#X connect 24 0 9 4;
#X connect 25 0 1 0;
#X connect 26 0 13 0;
#X connect 27 0 11 2;
#X connect 28 0 11 3;
#X connect 29 0 11 4;
#X connect 30 0 11 5;
#X connect 31 0 11 6;
#X connect 32 0 11 7;
#X connect 33 0 11 8;
#X connect 34 0 10 0;
#X connect 36 0 11 1;
#X connect 38 0 40 1;
#X connect 38 0 53 0;
#X connect 39 0 5 0;
#X connect 40 0 34 0;
#X connect 40 1 43 0;
#X connect 41 0 9 0;
#X connect 42 0 6 0;
#X connect 42 0 16 0;
#X connect 44 0 46 0;
#X connect 45 0 12 0;
#X connect 46 0 0 0;
#X connect 47 0 37 0;
#X connect 48 0 47 1;
#X connect 49 0 48 0;
#X connect 50 0 51 0;
#X connect 51 0 48 0;
#X connect 52 0 57 0;
#X connect 53 0 54 0;
#X connect 53 1 55 0;
#X connect 54 0 19 0;
#X connect 55 0 56 0;
#X connect 57 0 49 0;
