#N canvas 501 547 338 333 10;
#X obj -393 4 inlet noteon;
#N canvas 1004 585 571 315 samplelooper 0;
#X obj -272 39 inlet~ lfosignal;
#X obj -298 181 samplelooper~;
#X obj -299 218 outlet~;
#X obj -223 233 outlet;
#X msg -298 -51 enablelfo;
#X msg -291 -29 disablelfo;
#X msg -284 -6 enableloop;
#X msg -278 17 disableloop;
#X obj -15 20 expr pow(2 \, ($f1/12));
#X obj -120 21 s \$0-trigger;
#X obj -15 52 s \$0-setpitch;
#X obj -395 138 r \$0-setpitch;
#X obj -120 -43 inlet noteon;
#X obj -395 164 r \$0-trigger;
#X msg -223 206 0;
#X obj -390 -46 loadbang;
#X obj -120 -12 trigger bang float;
#X obj -267 61 r \$2-samplestart-\$3;
#X obj -261 81 r \$2-sampleend-\$3;
#X obj -242 101 r \$2-loopstart-\$3;
#X obj -223 121 r \$2-loopend-\$3;
#X obj -5 121 r \$2-samplelength-\$3;
#X obj -63 163 s \$2-sampleend-\$3;
#X obj 51 163 s \$2-loopend-\$3;
#X connect 0 0 1 0;
#X connect 1 0 2 0;
#X connect 1 1 14 0;
#X connect 4 0 1 0;
#X connect 5 0 1 0;
#X connect 6 0 1 0;
#X connect 7 0 1 0;
#X connect 8 0 10 0;
#X connect 11 0 1 0;
#X connect 12 0 16 0;
#X connect 13 0 1 0;
#X connect 14 0 3 0;
#X connect 15 0 5 0;
#X connect 15 0 7 0;
#X connect 16 0 9 0;
#X connect 16 1 8 0;
#X connect 17 0 1 1;
#X connect 18 0 1 2;
#X connect 19 0 1 3;
#X connect 20 0 1 4;
#X connect 21 0 22 0;
#X connect 21 0 23 0;
#X restore -480 139 pd samplelooper;
#X obj -480 161 tabread4~ \$1;
#X obj -480 292 throw~ \$2-instrumentoutput;
#X obj -393 89 trigger bang bang;
#X obj -232 235 switch~;
#X msg -393 112 1;
#X obj -232 210 r \$0-switch;
#X obj -294 131 s \$0-switch;
#X obj -393 161 s \$0-switch;
#X obj -479 267 *~;
#X msg -294 110 1;
#X obj -465 183 r \$0-vel;
#X obj -465 245 line~;
#X msg -465 224 \$1 50;
#X obj -465 204 / 127;
#X obj -337 66 s \$0-vel;
#X obj -393 28 t f f;
#X connect 0 0 17 0;
#X connect 1 0 2 0;
#X connect 1 1 9 0;
#X connect 2 0 10 0;
#X connect 4 0 6 0;
#X connect 4 1 11 0;
#X connect 6 0 1 1;
#X connect 7 0 5 0;
#X connect 10 0 3 0;
#X connect 11 0 8 0;
#X connect 12 0 15 0;
#X connect 13 0 10 1;
#X connect 14 0 13 0;
#X connect 15 0 14 0;
#X connect 17 0 4 0;
#X connect 17 1 16 0;
