#N canvas 1651 338 460 461 10;
#X msg 136 109 \$1 100;
#X msg 188 105 \$1 0;
#X msg 83 166 \$2;
#X obj 56 92 t l l;
#X msg 194 142 stop;
#X msg 240 146 clear;
#X obj 102 214 pack f f f;
#X obj 102 362 spigot;
#X obj 268 362 spigot;
#X msg 301 339 0;
#X msg 135 339 0;
#X msg 165 345 1;
#X msg 269 338 1;
#X obj 136 174 poly \$1 1;
#X obj 56 17 inlet noteon;
#X obj 188 18 inlet noteoff;
#X obj 188 61 t f b;
#X obj 56 41 t l b;
#X obj 165 288 r enablenoteon;
#X obj 83 64 s enablenoteon;
#X obj 215 84 s enablenoteoff;
#X obj 102 395 outlet voiceon;
#X obj 268 395 outlet voiceoff;
#X obj 102 311 spigot;
#X obj 135 282 > 0;
#X obj 269 287 r enablenoteoff;
#X msg 194 261 \$1 \$2;
#X connect 0 0 13 0;
#X connect 1 0 13 0;
#X connect 2 0 6 2;
#X connect 3 0 0 0;
#X connect 3 1 2 0;
#X connect 4 0 13 0;
#X connect 5 0 13 0;
#X connect 6 0 23 0;
#X connect 6 0 26 0;
#X connect 7 0 21 0;
#X connect 8 0 22 0;
#X connect 9 0 8 1;
#X connect 10 0 7 1;
#X connect 11 0 7 1;
#X connect 12 0 8 1;
#X connect 13 0 6 0;
#X connect 13 1 6 1;
#X connect 13 2 24 0;
#X connect 14 0 17 0;
#X connect 15 0 16 0;
#X connect 16 0 1 0;
#X connect 16 1 20 0;
#X connect 17 0 3 0;
#X connect 17 1 19 0;
#X connect 18 0 11 0;
#X connect 18 0 9 0;
#X connect 23 0 7 0;
#X connect 24 0 23 1;
#X connect 25 0 12 0;
#X connect 25 0 10 0;
#X connect 26 0 8 0;
