#N canvas 1953 334 614 122 10;
#X obj 22 27 inlet~;
#X obj 22 90 outlet~;
#N canvas 682 399 509 262 workings 0;
#X obj 59 185 outlet~;
#X obj 58 140 *~ 1;
#X obj 79 108 r \$0-dry;
#X obj 58 42 inlet~;
#X obj 249 169 s \$0-damping;
#X obj 381 153 * 0.28;
#X obj 381 176 + 0.7;
#X obj 381 197 s \$0-feedback;
#X obj 381 60 - 1;
#X obj 381 104 - 1;
#X obj 381 125 abs;
#X obj 144 140 *~ 1;
#N canvas 533 454 544 424 LEFT 0;
#N canvas 65 334 522 372 comb-1 0;
#X obj 216 112 r \$0-damping;
#X obj 152 208 delwrite~ \$0-rev1 26;
#X obj 154 146 lop~ 20000;
#X obj 154 169 *~ 0.5;
#X obj 155 61 delread~ \$0-rev1 25.3061;
#X obj 72 37 inlet~;
#X obj 67 234 outlet~;
#X obj 233 147 r \$0-feedback;
#X connect 0 0 2 1;
#X connect 2 0 3 0;
#X connect 3 0 1 0;
#X connect 3 0 6 0;
#X connect 4 0 2 0;
#X connect 5 0 1 0;
#X connect 7 0 3 1;
#X restore 22 145 pd comb-1;
#N canvas 546 329 494 344 comb-2 0;
#X obj 236 93 r \$0-damping;
#X obj 174 127 lop~ 20000;
#X obj 174 150 *~ 0.5;
#X obj 90 36 inlet~;
#X obj 88 231 outlet~;
#X obj 253 128 r \$0-feedback;
#X obj 169 63 delread~ \$0-rev2 26.9388;
#X obj 171 202 delwrite~ \$0-rev2 27;
#X connect 0 0 1 1;
#X connect 1 0 2 0;
#X connect 2 0 7 0;
#X connect 2 0 4 0;
#X connect 3 0 7 0;
#X connect 5 0 2 1;
#X connect 6 0 1 0;
#X restore 84 145 pd comb-2;
#N canvas 397 329 490 340 comb-3 0;
#X obj 203 102 r \$0-damping;
#X obj 141 136 lop~ 20000;
#X obj 139 165 *~ 0.5;
#X obj 57 43 inlet~;
#X obj 57 248 outlet~;
#X obj 220 137 r \$0-feedback;
#X obj 117 67 delread~ \$0-rev3 28.9569;
#X obj 137 210 delwrite~ \$0-rev3 29;
#X connect 0 0 1 1;
#X connect 1 0 2 0;
#X connect 2 0 7 0;
#X connect 2 0 4 0;
#X connect 3 0 7 0;
#X connect 5 0 2 1;
#X connect 6 0 1 0;
#X restore 145 145 pd comb-3;
#N canvas 746 118 494 344 comb-4 0;
#X obj 244 103 r \$0-damping;
#X obj 182 137 lop~ 20000;
#X obj 182 160 *~ 0.5;
#X obj 90 36 inlet~;
#X obj 88 231 outlet~;
#X obj 261 138 r \$0-feedback;
#X obj 175 73 delread~ \$0-rev4 30.7483;
#X obj 171 206 delwrite~ \$0-rev4 31;
#X connect 0 0 1 1;
#X connect 1 0 2 0;
#X connect 2 0 7 0;
#X connect 2 0 4 0;
#X connect 3 0 7 0;
#X connect 5 0 2 1;
#X connect 6 0 1 0;
#X restore 207 145 pd comb-4;
#N canvas 805 59 474 324 comb-5 0;
#X obj 196 95 r \$0-damping;
#X obj 134 129 lop~ 20000;
#X obj 134 152 *~ 0.5;
#X obj 90 36 inlet~;
#X obj 88 231 outlet~;
#X obj 213 130 r \$0-feedback;
#X obj 135 61 delread~ \$0-rev5 34.2449;
#X obj 132 203 delwrite~ \$0-rev5 35;
#X connect 0 0 1 1;
#X connect 1 0 2 0;
#X connect 2 0 7 0;
#X connect 2 0 4 0;
#X connect 3 0 7 0;
#X connect 5 0 2 1;
#X connect 6 0 1 0;
#X restore 269 145 pd comb-5;
#N canvas 702 107 474 324 comb-6 0;
#X obj 238 87 r \$0-damping;
#X obj 176 121 lop~ 20000;
#X obj 176 144 *~ 0.5;
#X obj 90 36 inlet~;
#X obj 88 231 outlet~;
#X obj 255 122 r \$0-feedback;
#X obj 238 54 delread~ \$0-rev6 33.8095;
#X obj 177 197 delwrite~ \$0-rev6 34;
#X connect 0 0 1 1;
#X connect 1 0 2 0;
#X connect 2 0 4 0;
#X connect 2 0 7 0;
#X connect 3 0 7 0;
#X connect 5 0 2 1;
#X connect 6 0 1 0;
#X restore 331 145 pd comb-6;
#N canvas 742 153 474 324 comb-7 0;
#X obj 193 101 r \$0-damping;
#X obj 131 135 lop~ 20000;
#X obj 131 158 *~ 0.5;
#X obj 80 50 inlet~;
#X obj 88 231 outlet~;
#X obj 210 136 r \$0-feedback;
#X obj 194 70 delread~ \$0-rev7 35.7596;
#X obj 129 207 delwrite~ \$0-rev7 36;
#X connect 0 0 1 1;
#X connect 1 0 2 0;
#X connect 2 0 4 0;
#X connect 2 0 7 0;
#X connect 3 0 7 0;
#X connect 5 0 2 1;
#X connect 6 0 1 0;
#X restore 392 145 pd comb-7;
#N canvas 731 107 478 328 comb-8 0;
#X obj 202 100 r \$0-damping;
#X obj 140 134 lop~ 20000;
#X obj 140 157 *~ 0.5;
#X obj 90 36 inlet~;
#X obj 88 231 outlet~;
#X obj 219 135 r \$0-feedback;
#X obj 204 67 delread~ \$0-rev8 36.6667;
#X obj 140 205 delwrite~ \$0-rev8 26;
#X connect 0 0 1 1;
#X connect 1 0 2 0;
#X connect 2 0 4 0;
#X connect 2 0 7 0;
#X connect 3 0 7 0;
#X connect 5 0 2 1;
#X connect 6 0 1 0;
#X restore 454 145 pd comb-8;
#N canvas 822 445 648 562 allpass-1 0;
#X obj 186 65 inlet~;
#X obj 245 422 *~ 0.5;
#X obj 213 389 delread~ \$0-fbcf-1 12.6077;
#X obj 175 490 outlet~;
#X obj 437 474 delwrite~ \$0-fbcf-1 13;
#X obj 168 391 *~ -1;
#X connect 0 0 5 0;
#X connect 0 0 4 0;
#X connect 1 0 4 0;
#X connect 2 0 1 0;
#X connect 2 0 3 0;
#X connect 5 0 3 0;
#X restore 23 275 pd allpass-1;
#N canvas 0 50 640 554 allpass-2 0;
#X obj 186 65 inlet~;
#X obj 245 422 *~ 0.5;
#X obj 175 490 outlet~;
#X obj 168 391 *~ -1;
#X obj 213 389 delread~ \$0-fbcf-2 10;
#X obj 439 474 delwrite~ \$0-fbcf-2 11;
#X connect 0 0 3 0;
#X connect 0 0 5 0;
#X connect 1 0 5 0;
#X connect 3 0 2 0;
#X connect 4 0 1 0;
#X connect 4 0 2 0;
#X restore 23 295 pd allpass-2;
#N canvas 0 50 644 558 allpass-3 0;
#X obj 186 65 inlet~;
#X obj 245 422 *~ 0.5;
#X obj 175 490 outlet~;
#X obj 168 391 *~ -1;
#X obj 213 389 delread~ \$0-fbcf-3 7.77324;
#X obj 437 474 delwrite~ \$0-fbcf-3 8;
#X connect 0 0 3 0;
#X connect 0 0 5 0;
#X connect 1 0 5 0;
#X connect 3 0 2 0;
#X connect 4 0 1 0;
#X connect 4 0 2 0;
#X restore 23 316 pd allpass-3;
#N canvas 0 50 636 550 allpass-4 0;
#X obj 186 65 inlet~;
#X obj 245 422 *~ 0.5;
#X obj 175 490 outlet~;
#X obj 168 391 *~ -1;
#X obj 214 389 delread~ \$0-fbcf-4 5.10204;
#X obj 437 474 delwrite~ \$0-fbcf-4 6;
#X connect 0 0 3 0;
#X connect 0 0 5 0;
#X connect 1 0 5 0;
#X connect 3 0 2 0;
#X connect 4 0 1 0;
#X connect 4 0 2 0;
#X restore 23 337 pd allpass-4;
#X obj 21 46 *~ 0.05;
#X obj 24 377 outlet~;
#X obj 20 10 inlet~;
#X obj 23 255 *~ 0.25;
#X connect 0 0 15 0;
#X connect 1 0 15 0;
#X connect 2 0 15 0;
#X connect 3 0 15 0;
#X connect 4 0 15 0;
#X connect 5 0 15 0;
#X connect 6 0 15 0;
#X connect 7 0 15 0;
#X connect 8 0 9 0;
#X connect 9 0 10 0;
#X connect 10 0 11 0;
#X connect 11 0 13 0;
#X connect 12 0 0 0;
#X connect 12 0 1 0;
#X connect 12 0 2 0;
#X connect 12 0 3 0;
#X connect 12 0 4 0;
#X connect 12 0 5 0;
#X connect 12 0 6 0;
#X connect 12 0 7 0;
#X connect 14 0 12 0;
#X connect 15 0 8 0;
#X restore 145 76 pd LEFT;
#X obj 381 36 r \$0-feedbk;
#X obj 249 42 r \$0-dampen;
#X obj 249 144 * 44100;
#X obj 249 119 expr pow($f1 \, 4);
#X obj 249 65 * 0.9;
#X obj 249 89 + 0.1;
#X obj 381 82 expr pow($f1 \, 2);
#X obj 165 108 r \$0-wet;
#X text 56 9 From hardoff's excellent DIY2 library;
#X connect 1 0 0 0;
#X connect 2 0 1 1;
#X connect 3 0 1 0;
#X connect 3 0 12 0;
#X connect 5 0 6 0;
#X connect 6 0 7 0;
#X connect 8 0 19 0;
#X connect 9 0 10 0;
#X connect 10 0 5 0;
#X connect 11 0 0 0;
#X connect 12 0 11 0;
#X connect 13 0 8 0;
#X connect 14 0 17 0;
#X connect 15 0 4 0;
#X connect 16 0 15 0;
#X connect 17 0 18 0;
#X connect 18 0 16 0;
#X connect 19 0 9 0;
#X connect 20 0 11 1;
#X restore 21 60 pd workings;
#X obj 114 60 s \$0-dampen;
#X obj 204 60 s \$0-feedbk;
#X obj 316 60 s \$0-dry;
#X obj 406 60 s \$0-wet;
#X obj 114 27 inlet damp;
#X obj 204 27 inlet roomsize;
#X obj 316 27 inlet dry;
#X obj 406 27 inlet wet;
#X obj 482 27 inlet;
#X obj 482 60 switch~;
#X connect 0 0 2 0;
#X connect 2 0 1 0;
#X connect 7 0 3 0;
#X connect 8 0 4 0;
#X connect 9 0 5 0;
#X connect 10 0 6 0;
#X connect 11 0 12 0;
