#N canvas 1907 357 641 471 10;
#X obj 125 98 soundfiler;
#X obj 269 14 loadbang;
#X obj 125 23 receive \$1-filename;
#X obj 125 186 send \$1-samplelength;
#X msg 125 77 read -resize \$1 \$2-tmp;
#N canvas 460 327 685 630 makeguardpoints 0;
#X obj 28 32 inlet;
#X text 24 10 nr of samples;
#X obj 28 62 trigger bang float float float float float;
#X obj 277 94 + 3;
#X obj 277 122 trigger float bang;
#X obj 178 340 trigger bang float;
#X msg 178 372 0;
#X obj 283 423 + 1;
#X obj 34 230 trigger bang float;
#X msg 34 262 1;
#X obj 139 301 + 2;
#X obj -114 304 until;
#X msg -114 268 \$1;
#X obj -114 344 float;
#X obj -58 344 + 1;
#X obj -114 232 trigger float bang;
#X obj -114 522 float;
#X obj -114 481 trigger bang float;
#X obj -114 435 trigger float float;
#X msg -59 301 0;
#X obj -9 546 + 1;
#X obj 243 243 trigger float bang;
#X msg 348 287 0;
#X msg -203 124 \; \$1-tmp const 0 \; \$1-tmp resize 0 \;;
#X obj 382 145 symbol \$1;
#X obj 277 162 pack f s;
#X obj -114 567 tabwrite \$1-wave;
#X obj 178 450 tabwrite \$1-wave;
#X obj 243 304 tabwrite \$1-wave;
#X msg 277 189 \; \$2-wave resize \$1;
#X obj 34 330 tabwrite \$1-wave;
#X obj -3 505 tabread \$1-tmp;
#X obj 34 297 tabread \$1-tmp;
#X obj 178 407 tabread \$1-tmp;
#X obj 243 273 tabread \$1-tmp;
#X obj -203 79 symbol \$1;
#X connect 0 0 2 0;
#X connect 2 0 35 0;
#X connect 2 1 15 0;
#X connect 2 2 8 0;
#X connect 2 3 5 0;
#X connect 2 4 21 0;
#X connect 2 5 3 0;
#X connect 3 0 4 0;
#X connect 4 0 25 0;
#X connect 4 1 24 0;
#X connect 5 0 6 0;
#X connect 5 1 7 0;
#X connect 6 0 33 0;
#X connect 7 0 27 1;
#X connect 8 0 9 0;
#X connect 8 1 10 0;
#X connect 9 0 32 0;
#X connect 10 0 30 1;
#X connect 11 0 13 0;
#X connect 12 0 11 0;
#X connect 13 0 14 0;
#X connect 13 0 18 0;
#X connect 14 0 13 1;
#X connect 15 0 12 0;
#X connect 15 1 19 0;
#X connect 16 0 26 0;
#X connect 17 0 16 0;
#X connect 17 1 20 0;
#X connect 18 0 17 0;
#X connect 18 1 31 0;
#X connect 19 0 13 1;
#X connect 20 0 26 1;
#X connect 21 0 34 0;
#X connect 21 1 22 0;
#X connect 22 0 28 1;
#X connect 24 0 25 1;
#X connect 25 0 29 0;
#X connect 31 0 16 1;
#X connect 32 0 30 0;
#X connect 33 0 27 0;
#X connect 34 0 28 0;
#X connect 35 0 23 0;
#X restore 195 164 pd makeguardpoints;
#X obj 125 164 - 1;
#N canvas 1739 121 863 857 automationhub 0;
#X obj 14 99 r \$1-auto-attack;
#X obj 15 40 line;
#X obj 15 17 r \$1-auto-volume;
#X obj 15 67 s \$1-volume;
#X obj 146 126 line;
#X obj 146 99 r \$1-auto-decay;
#X obj 146 153 s \$1-decay;
#X obj 260 128 line;
#X obj 260 99 r \$1-auto-sustain;
#X obj 260 155 s \$1-sustain;
#X obj 395 128 line;
#X obj 395 99 r \$1-auto-release;
#X obj 395 155 s \$1-release;
#X obj 14 125 line;
#X obj 14 152 s \$1-attack;
#X obj 14 186 r \$1-auto-lforate;
#X obj 14 209 line;
#X obj 14 232 s \$1-lforate;
#X obj 146 186 r \$1-auto-lfodepth;
#X obj 146 209 line;
#X obj 146 236 s \$1-lfodepth;
#X obj 697 287 line;
#X obj 697 264 r \$1-auto-filtercutoff;
#X obj 697 310 s \$1-filtercutoff;
#X obj 14 287 line;
#X obj 14 264 r \$1-auto-filterattack;
#X obj 14 310 s \$1-filterattack;
#X obj 182 287 line;
#X obj 182 264 r \$1-auto-filterdecay;
#X obj 182 310 s \$1-filterdecay;
#X obj 349 287 line;
#X obj 349 264 r \$1-auto-filtersustain;
#X obj 349 310 s \$1-filtersustain;
#X obj 527 287 line;
#X obj 527 264 r \$1-auto-filterrelease;
#X obj 527 310 s \$1-filterrelease;
#X obj 15 598 line;
#X obj 15 575 r \$1-auto-del-delay;
#X obj 15 621 s \$1-del-delay;
#X obj 182 598 line;
#X obj 182 575 r \$1-auto-del-feedback;
#X obj 182 621 s \$1-del-feedback;
#X obj 350 598 line;
#X obj 350 575 r \$1-auto-del-wet;
#X obj 350 621 s \$1-del-wet;
#X obj 13 667 line;
#X obj 179 667 line;
#X obj 347 667 line;
#X obj 526 667 line;
#X obj 496 598 line;
#X obj 496 621 s \$1-del-wet;
#X obj 496 575 r \$1-auto-del-spread;
#X obj 13 740 line;
#X obj 13 717 r \$1-auto-chorus-depth;
#X obj 13 763 s \$1-chorus-depth;
#X obj 182 740 line;
#X obj 349 740 line;
#X obj 530 740 line;
#X obj 182 717 r \$1-auto-chorus-speed;
#X obj 182 763 s \$1-chorus-speed;
#X obj 349 717 r \$1-auto-chorus-spread;
#X obj 349 763 s \$1-chorus-spread;
#X obj 13 644 r \$1-auto-flg-freq;
#X obj 13 690 s \$1-flg-freq;
#X obj 179 644 r \$1-auto-flg-width;
#X obj 179 690 s \$1-flg-width;
#X obj 347 644 r \$1-auto-flg-feedback;
#X obj 347 690 s \$1-flg-feedback;
#X obj 526 644 r \$1-auto-flg-wet;
#X obj 526 690 s \$1-flg-wet;
#X obj 13 810 line;
#X obj 13 787 r \$1-auto-rev-damp;
#X obj 13 833 s \$1-rev-damp;
#X obj 181 810 line;
#X obj 181 787 r \$1-auto-rev-roomsize;
#X obj 181 833 s \$1-rev-roomsize;
#X obj 504 810 line;
#X obj 504 787 r \$1-auto-rev-wet;
#X obj 504 833 s \$1-rev-wet;
#X obj 348 810 line;
#X obj 348 787 r \$1-auto-rev-spread;
#X obj 348 833 s \$1-rev-spread;
#X obj 14 383 line;
#X obj 182 383 line;
#X obj 14 406 s \$1-fxfilter-freq;
#X obj 182 406 s \$1-fxfilter-q;
#X obj 14 360 r \$1-auto-fxfilter-freq;
#X obj 182 360 r \$1-auto-fxfilter-q;
#X obj 14 453 line;
#X obj 14 430 r \$1-auto-3eq-lowgain;
#X obj 14 476 s \$1-3eq-lowgain;
#X obj 181 453 line;
#X obj 181 430 r \$1-auto-3eq-midgain;
#X obj 181 476 s \$1-3eq-midgain;
#X obj 349 453 line;
#X obj 349 430 r \$1-auto-3eq-midfreq;
#X obj 349 476 s \$1-3eq-midfreq;
#X obj 528 453 line;
#X obj 528 430 r \$1-auto-3eq-midbw;
#X obj 528 476 s \$1-3eq-midbw;
#X obj 679 453 line;
#X obj 679 430 r \$1-auto-3eq-highgain;
#X obj 679 476 s \$1-3eq-highgain;
#X obj 15 528 line;
#X obj 183 528 line;
#X obj 365 528 line;
#X obj 15 505 r \$1-auto-tremolo-rate;
#X obj 15 551 s \$1-tremolo-rate;
#X obj 183 505 r \$1-auto-tremolo-smooth;
#X obj 183 551 s \$1-tremolo-smooth;
#X obj 365 505 r \$1-auto-tremolo-depth;
#X obj 365 551 s \$1-tremolo-depth;
#X text 15 334 -----------------------------FX-----------------------------
;
#X obj 530 717 r \$1-auto-chorus-wet;
#X obj 530 763 s \$1-chorus-wet;
#X connect 0 0 13 0;
#X connect 1 0 3 0;
#X connect 2 0 1 0;
#X connect 4 0 6 0;
#X connect 5 0 4 0;
#X connect 7 0 9 0;
#X connect 8 0 7 0;
#X connect 10 0 12 0;
#X connect 11 0 10 0;
#X connect 13 0 14 0;
#X connect 15 0 16 0;
#X connect 16 0 17 0;
#X connect 18 0 19 0;
#X connect 19 0 20 0;
#X connect 21 0 23 0;
#X connect 22 0 21 0;
#X connect 24 0 26 0;
#X connect 25 0 24 0;
#X connect 27 0 29 0;
#X connect 28 0 27 0;
#X connect 30 0 32 0;
#X connect 31 0 30 0;
#X connect 33 0 35 0;
#X connect 34 0 33 0;
#X connect 36 0 38 0;
#X connect 37 0 36 0;
#X connect 39 0 41 0;
#X connect 40 0 39 0;
#X connect 42 0 44 0;
#X connect 43 0 42 0;
#X connect 45 0 63 0;
#X connect 46 0 65 0;
#X connect 47 0 67 0;
#X connect 48 0 69 0;
#X connect 49 0 50 0;
#X connect 51 0 49 0;
#X connect 52 0 54 0;
#X connect 53 0 52 0;
#X connect 55 0 59 0;
#X connect 56 0 61 0;
#X connect 57 0 114 0;
#X connect 58 0 55 0;
#X connect 60 0 56 0;
#X connect 62 0 45 0;
#X connect 64 0 46 0;
#X connect 66 0 47 0;
#X connect 68 0 48 0;
#X connect 70 0 72 0;
#X connect 71 0 70 0;
#X connect 73 0 75 0;
#X connect 74 0 73 0;
#X connect 76 0 78 0;
#X connect 77 0 76 0;
#X connect 79 0 81 0;
#X connect 80 0 79 0;
#X connect 82 0 84 0;
#X connect 83 0 85 0;
#X connect 86 0 82 0;
#X connect 87 0 83 0;
#X connect 88 0 90 0;
#X connect 89 0 88 0;
#X connect 91 0 93 0;
#X connect 92 0 91 0;
#X connect 94 0 96 0;
#X connect 95 0 94 0;
#X connect 97 0 99 0;
#X connect 98 0 97 0;
#X connect 100 0 102 0;
#X connect 101 0 100 0;
#X connect 103 0 107 0;
#X connect 104 0 109 0;
#X connect 105 0 111 0;
#X connect 106 0 103 0;
#X connect 108 0 104 0;
#X connect 110 0 105 0;
#X connect 113 0 57 0;
#X restore 122 230 pd automationhub;
#N canvas 1710 528 681 450 lfoconnections 0;
#X obj 296 97 select 1;
#X obj 375 97 select 2;
#X obj 219 97 select 0;
#X obj 318 28 receive \$1-lfoconnection;
#X text 255 9 lfo connection 0=none \, 1=volume \, 2=pitch 3=filter
;
#X obj 465 97 select 3;
#X msg 562 297 1;
#X msg 531 287 0;
#X obj 492 221 r \$1-lforate;
#X obj 515 245 r \$1-lfodepth;
#X text 7 32 TODO: lfo's are running when no notes;
#X msg 341 272 1;
#X msg 375 281 0;
#X obj 308 217 r \$1-lforate;
#X obj 331 241 r \$1-lfodepth;
#X obj 309 360 send~ \$1-siglfopitch;
#X msg 188 285 1;
#X msg 219 294 0;
#X obj 149 230 r \$1-lforate;
#X obj 172 254 r \$1-lfodepth;
#X obj 150 345 send~ \$1-siglfovolume;
#X obj 491 343 send~ \$1-siglfofilter;
#X obj 318 317 send \$1-lfopitchenable;
#X obj 318 337 send \$1-lfopitchdisable;
#X text 8 48 TODO: lfo's can output 1-output.;
#X obj 149 311 siglfo~;
#X obj 308 298 siglfo~;
#X obj 492 314 siglfo~;
#X connect 0 0 12 0;
#X connect 0 0 7 0;
#X connect 0 0 16 0;
#X connect 1 0 7 0;
#X connect 1 0 11 0;
#X connect 1 0 17 0;
#X connect 2 0 7 0;
#X connect 2 0 12 0;
#X connect 2 0 17 0;
#X connect 3 0 2 0;
#X connect 3 0 0 0;
#X connect 3 0 1 0;
#X connect 3 0 5 0;
#X connect 5 0 6 0;
#X connect 5 0 12 0;
#X connect 5 0 17 0;
#X connect 6 0 27 2;
#X connect 7 0 27 2;
#X connect 8 0 27 0;
#X connect 9 0 27 1;
#X connect 11 0 22 0;
#X connect 11 0 26 2;
#X connect 12 0 23 0;
#X connect 12 0 26 2;
#X connect 13 0 26 0;
#X connect 14 0 26 1;
#X connect 16 0 25 2;
#X connect 17 0 25 2;
#X connect 18 0 25 0;
#X connect 19 0 25 1;
#X connect 25 0 20 0;
#X connect 26 0 15 0;
#X connect 27 0 21 0;
#X restore 122 270 pd lfoconnections;
#X obj 122 292 catch~ \$1-instrumentoutput;
#X obj 371 23 receive \$1-tabwrite;
#X obj 458 46 receive \$1-tabindex;
#X obj 369 118 receive \$1-resize;
#X obj 440 141 loadbang;
#X obj 168 121 receive \$1-makeguardpoints;
#X msg 369 206 \; \$2-tmp resize \$1;
#X obj 168 142 t f f;
#X obj 6 25 table \$1-wave;
#N canvas 280 289 957 711 paramwriters 1;
#X obj 25 42 paramwriter \$1 0;
#X obj 25 114 r \$1-samplestart;
#X obj 25 14 r \$1-volume;
#X obj 154 114 r \$1-sampleend;
#X obj 325 11 table \$1-params;
#X obj 410 114 r \$1-loopstart;
#X obj 542 114 r \$1-loopend;
#X obj 25 159 r \$1-attack;
#X obj 278 113 r \$1-samplelength;
#X obj 157 159 r \$1-decay;
#X obj 299 159 r \$1-sustain;
#X obj 440 159 r \$1-release;
#X obj 25 202 r \$1-lforate;
#X obj 165 202 r \$1-lfodepth;
#X obj 322 202 r \$1-lfoconnection;
#X obj 25 244 r \$1-filtercutoff;
#X obj 165 244 r \$1-filterselect;
#X obj 321 245 r \$1-filterattack;
#X obj 465 245 r \$1-filterdecay;
#X obj 600 245 r \$1-filtersustain;
#X obj 742 245 r \$1-filterrelease;
#X obj 166 317 r \$1-rev-damp;
#X obj 26 317 r \$1-rev-enable;
#X obj 322 317 r \$1-rev-roomsize;
#X obj 604 317 r \$1-rev-wet;
#X obj 27 373 r \$1-del-enable;
#X obj 164 373 r \$1-del-delay;
#X obj 322 373 r \$1-del-feedback;
#X obj 466 373 r \$1-del-wet;
#X obj 27 427 r \$1-flg-enable;
#X obj 670 113 r \$1-loopon;
#X obj 468 317 r \$1-rev-spread;
#X obj 604 373 r \$1-del-spread;
#X obj 27 475 r \$1-chorus-enable;
#X obj 164 475 r \$1-chorus-depth;
#X obj 322 475 r \$1-chorus-speed;
#X obj 472 475 r \$1-chorus-spread;
#X obj 164 427 r \$1-flg-freq;
#X obj 322 427 r \$1-flg-width;
#X obj 472 427 r \$1-flg-feedback;
#X obj 613 427 r \$1-flg-wet;
#X obj 27 526 r \$1-fxfilter-enable;
#X obj 181 526 r \$1-fxfilter-mode;
#X obj 322 526 r \$1-fxfilter-freq;
#X obj 472 526 r \$1-fxfilter-q;
#X obj 27 578 r \$1-3eq-enable;
#X obj 181 578 r \$1-3eq-lowgain;
#X obj 322 578 r \$1-3eq-midgain;
#X obj 472 578 r \$1-3eq-midfreq;
#X obj 603 578 r \$1-3eq-midbw;
#X obj 738 578 r \$1-3eq-highgain;
#X obj 27 629 r \$1-tremolo-enable;
#X obj 181 629 r \$1-tremolo-rate;
#X obj 322 629 r \$1-tremolo-smooth;
#X obj 472 629 r \$1-tremolo-depth;
#X text 23 292 -----------------------------FX------------------------------------------------------------------------------------------
, f 121;
#X obj 613 475 r \$1-chorus-wet;
#X obj 25 67 r \$1-rootnote;
#X obj 155 67 r \$1-finetune;
#X obj 155 14 r \$1-pan;
#X obj 155 42 paramwriter \$1 1;
#X obj 25 88 paramwriter \$1 2;
#X obj 155 88 paramwriter \$1 3;
#X obj 25 135 paramwriter \$1 4;
#X obj 154 135 paramwriter \$1 5;
#X obj 278 135 paramwriter \$1 6;
#X obj 410 135 paramwriter \$1 7;
#X obj 542 135 paramwriter \$1 8;
#X obj 670 135 paramwriter \$1 9;
#X obj 25 180 paramwriter \$1 10;
#X obj 157 180 paramwriter \$1 11;
#X obj 299 180 paramwriter \$1 12;
#X obj 440 180 paramwriter \$1 13;
#X obj 25 222 paramwriter \$1 14;
#X obj 165 222 paramwriter \$1 15;
#X obj 322 222 paramwriter \$1 16;
#X obj 25 265 paramwriter \$1 17;
#X obj 165 264 paramwriter \$1 18;
#X obj 321 265 paramwriter \$1 19;
#X obj 465 265 paramwriter \$1 20;
#X obj 600 265 paramwriter \$1 21;
#X obj 742 265 paramwriter \$1 22;
#X obj 26 339 paramwriter \$1 23;
#X obj 166 339 paramwriter \$1 24;
#X obj 322 339 paramwriter \$1 25;
#X obj 468 339 paramwriter \$1 26;
#X obj 604 339 paramwriter \$1 27;
#X obj 27 395 paramwriter \$1 28;
#X obj 164 395 paramwriter \$1 29;
#X obj 322 395 paramwriter \$1 30;
#X obj 466 395 paramwriter \$1 31;
#X obj 604 395 paramwriter \$1 32;
#X obj 27 447 paramwriter \$1 33;
#X obj 164 448 paramwriter \$1 34;
#X obj 322 447 paramwriter \$1 35;
#X obj 472 447 paramwriter \$1 36;
#X obj 613 447 paramwriter \$1 37;
#X obj 27 497 paramwriter \$1 38;
#X obj 164 498 paramwriter \$1 39;
#X obj 322 497 paramwriter \$1 40;
#X obj 472 497 paramwriter \$1 41;
#X obj 613 497 paramwriter \$1 42;
#X obj 27 551 paramwriter \$1 43;
#X obj 181 552 paramwriter \$1 44;
#X obj 322 551 paramwriter \$1 45;
#X obj 472 551 paramwriter \$1 46;
#X obj 27 601 paramwriter \$1 47;
#X obj 181 602 paramwriter \$1 48;
#X obj 322 601 paramwriter \$1 49;
#X obj 472 601 paramwriter \$1 50;
#X obj 603 601 paramwriter \$1 51;
#X obj 738 601 paramwriter \$1 52;
#X obj 27 654 paramwriter \$1 53;
#X obj 181 655 paramwriter \$1 54;
#X obj 322 654 paramwriter \$1 55;
#X obj 471 654 paramwriter \$1 56;
#X connect 1 0 63 0;
#X connect 2 0 0 0;
#X connect 3 0 64 0;
#X connect 5 0 66 0;
#X connect 6 0 67 0;
#X connect 7 0 69 0;
#X connect 8 0 65 0;
#X connect 9 0 70 0;
#X connect 10 0 71 0;
#X connect 11 0 72 0;
#X connect 12 0 73 0;
#X connect 13 0 74 0;
#X connect 14 0 75 0;
#X connect 15 0 76 0;
#X connect 16 0 77 0;
#X connect 17 0 78 0;
#X connect 18 0 79 0;
#X connect 19 0 80 0;
#X connect 20 0 81 0;
#X connect 21 0 83 0;
#X connect 22 0 82 0;
#X connect 23 0 84 0;
#X connect 24 0 86 0;
#X connect 25 0 87 0;
#X connect 26 0 88 0;
#X connect 27 0 89 0;
#X connect 28 0 90 0;
#X connect 29 0 92 0;
#X connect 30 0 68 0;
#X connect 31 0 85 0;
#X connect 32 0 91 0;
#X connect 33 0 97 0;
#X connect 34 0 98 0;
#X connect 35 0 99 0;
#X connect 36 0 100 0;
#X connect 37 0 93 0;
#X connect 38 0 94 0;
#X connect 39 0 95 0;
#X connect 40 0 96 0;
#X connect 41 0 102 0;
#X connect 42 0 103 0;
#X connect 43 0 104 0;
#X connect 44 0 105 0;
#X connect 45 0 106 0;
#X connect 46 0 107 0;
#X connect 47 0 108 0;
#X connect 48 0 109 0;
#X connect 49 0 110 0;
#X connect 50 0 111 0;
#X connect 51 0 112 0;
#X connect 52 0 113 0;
#X connect 53 0 114 0;
#X connect 54 0 115 0;
#X connect 56 0 101 0;
#X connect 57 0 61 0;
#X connect 58 0 62 0;
#X connect 59 0 60 0;
#X restore 248 230 pd paramwriters;
#X obj 269 36 symbol \$1;
#X obj 7 59 table \$1-tmp;
#X obj 125 53 pack s s;
#X obj 440 163 symbol \$1;
#X obj 369 180 pack f s;
#X obj 371 70 tabwrite \$1-tmp;
#N canvas 531 374 658 435 polyconnections 0;
#X obj 209 28 receive \$1-noteon;
#X obj 336 28 receive \$1-noteoff;
#X obj 336 50 pack 0 0;
#X obj 11 276 playit \$1-wave \$1;
#X obj 190 161 spigot;
#X obj 305 161 spigot;
#X obj 271 101 moses 1;
#X msg 344 136 0;
#X msg 223 136 0;
#X msg 314 136 1;
#X obj 190 101 pack f f f;
#N canvas 174 473 277 127 sendnoteon 0;
#X obj 7 10 inlet;
#X obj 7 50 symbol \$1;
#X msg 84 50 \$2;
#X obj 7 71 pack s f;
#X obj 7 30 t b l;
#X obj 7 92 s android-sustainednoteon;
#X connect 0 0 4 0;
#X connect 1 0 3 0;
#X connect 2 0 3 1;
#X connect 3 0 5 0;
#X connect 4 0 1 0;
#X connect 4 1 2 0;
#X restore 197 183 pd sendnoteon;
#N canvas 628 456 211 118 sendnoteoff 0;
#X obj 7 10 inlet;
#X obj 7 50 symbol \$1;
#X msg 81 50 \$2;
#X obj 7 71 pack s f;
#X obj 7 30 t b l;
#X obj 7 92 s android-sustainednoteoff;
#X connect 0 0 4 0;
#X connect 1 0 3 0;
#X connect 2 0 3 1;
#X connect 3 0 5 0;
#X connect 4 0 1 0;
#X connect 4 1 2 0;
#X restore 312 183 pd sendnoteoff;
#X obj 209 73 poly 5 1;
#X obj 190 220 route 1 2 3 4 5;
#X obj 305 220 route 1 2 3 4 5;
#X obj 235 344 s \$1-noteoff;
#X msg 449 81 clear;
#X obj 137 276 playit \$1-wave \$1;
#X obj 263 276 playit \$1-wave \$1;
#X obj 390 276 playit \$1-wave \$1;
#X obj 519 276 playit \$1-wave \$1;
#X connect 0 0 13 0;
#X connect 1 0 2 0;
#X connect 2 0 13 0;
#X connect 3 0 16 0;
#X connect 4 0 11 0;
#X connect 4 0 14 0;
#X connect 5 0 12 0;
#X connect 5 0 15 0;
#X connect 6 0 8 0;
#X connect 6 0 9 0;
#X connect 6 1 7 0;
#X connect 6 1 4 1;
#X connect 7 0 5 1;
#X connect 8 0 4 1;
#X connect 9 0 5 1;
#X connect 10 0 4 0;
#X connect 10 0 5 0;
#X connect 13 0 10 0;
#X connect 13 1 10 1;
#X connect 13 2 6 0;
#X connect 13 2 10 2;
#X connect 14 0 3 0;
#X connect 14 1 18 0;
#X connect 14 2 19 0;
#X connect 14 3 20 0;
#X connect 14 4 21 0;
#X connect 15 0 3 1;
#X connect 15 1 18 1;
#X connect 15 2 19 1;
#X connect 15 3 20 1;
#X connect 15 4 21 1;
#X connect 17 0 13 0;
#X connect 18 0 16 0;
#X connect 19 0 16 0;
#X connect 20 0 16 0;
#X connect 21 0 16 0;
#X restore 122 250 pd polyconnections;
#X obj 123 361 effects \$1;
#X obj 122 336 pan;
#X obj 123 405 throw~ mainoutputL;
#X obj 189 384 throw~ mainoutputR;
#X obj 140 315 r \$1-pan;
#X obj 6 103 loadbang;
#X obj 6 122 48;
#X obj 6 141 s \$1-rootnote;
#X obj 6 186 loadbang;
#X obj 6 224 s \$1-samplerate;
#X obj 6 205 44100;
#X connect 0 0 5 0;
#X connect 0 0 6 0;
#X connect 1 0 19 0;
#X connect 2 0 21 0;
#X connect 4 0 0 0;
#X connect 6 0 3 0;
#X connect 9 0 27 0;
#X connect 10 0 24 0;
#X connect 11 0 24 1;
#X connect 12 0 23 0;
#X connect 13 0 22 0;
#X connect 14 0 16 0;
#X connect 16 0 6 0;
#X connect 16 1 5 0;
#X connect 19 0 21 1;
#X connect 21 0 4 0;
#X connect 22 0 23 1;
#X connect 23 0 15 0;
#X connect 26 0 28 0;
#X connect 26 1 29 0;
#X connect 27 0 26 0;
#X connect 27 1 26 1;
#X connect 30 0 27 1;
#X connect 31 0 32 0;
#X connect 32 0 33 0;
#X connect 34 0 36 0;
#X connect 36 0 35 0;
#X coords 0 471 1 470 300 60 0;
