#N canvas 1912 192 641 471 10;
#X obj 125 98 soundfiler;
#X obj 269 14 loadbang;
#X obj 125 23 receive \$1-filename;
#X obj 125 186 send \$1-samplelength;
#X msg 125 77 read -resize \$1 \$2-tmp;
#N canvas 460 327 685 630 makeguardpoints 0;
#X obj 28 32 inlet;
#X text 24 10 nr of samples;
#X obj 28 62 trigger bang float float float float float;
#X obj 277 94 + 3;
#X obj 277 122 trigger float bang;
#X obj 178 340 trigger bang float;
#X msg 178 372 0;
#X obj 283 423 + 1;
#X obj 34 230 trigger bang float;
#X msg 34 262 1;
#X obj 139 301 + 2;
#X obj -114 304 until;
#X msg -114 268 \$1;
#X obj -114 344 float;
#X obj -58 344 + 1;
#X obj -114 232 trigger float bang;
#X obj -114 522 float;
#X obj -114 481 trigger bang float;
#X obj -114 435 trigger float float;
#X msg -59 301 0;
#X obj -9 546 + 1;
#X obj 243 243 trigger float bang;
#X msg 348 287 0;
#X msg -203 124 \; \$1-tmp const 0 \; \$1-tmp resize 0 \;;
#X obj 382 145 symbol \$1;
#X obj 277 162 pack f s;
#X obj -114 567 tabwrite \$1-wave;
#X obj 178 450 tabwrite \$1-wave;
#X obj 243 304 tabwrite \$1-wave;
#X msg 277 189 \; \$2-wave resize \$1;
#X obj 34 330 tabwrite \$1-wave;
#X obj -3 505 tabread \$1-tmp;
#X obj 34 297 tabread \$1-tmp;
#X obj 178 407 tabread \$1-tmp;
#X obj 243 273 tabread \$1-tmp;
#X obj -203 79 symbol \$1;
#X connect 0 0 2 0;
#X connect 2 0 35 0;
#X connect 2 1 15 0;
#X connect 2 2 8 0;
#X connect 2 3 5 0;
#X connect 2 4 21 0;
#X connect 2 5 3 0;
#X connect 3 0 4 0;
#X connect 4 0 25 0;
#X connect 4 1 24 0;
#X connect 5 0 6 0;
#X connect 5 1 7 0;
#X connect 6 0 33 0;
#X connect 7 0 27 1;
#X connect 8 0 9 0;
#X connect 8 1 10 0;
#X connect 9 0 32 0;
#X connect 10 0 30 1;
#X connect 11 0 13 0;
#X connect 12 0 11 0;
#X connect 13 0 14 0;
#X connect 13 0 18 0;
#X connect 14 0 13 1;
#X connect 15 0 12 0;
#X connect 15 1 19 0;
#X connect 16 0 26 0;
#X connect 17 0 16 0;
#X connect 17 1 20 0;
#X connect 18 0 17 0;
#X connect 18 1 31 0;
#X connect 19 0 13 1;
#X connect 20 0 26 1;
#X connect 21 0 34 0;
#X connect 21 1 22 0;
#X connect 22 0 28 1;
#X connect 24 0 25 1;
#X connect 25 0 29 0;
#X connect 31 0 16 1;
#X connect 32 0 30 0;
#X connect 33 0 27 0;
#X connect 34 0 28 0;
#X connect 35 0 23 0;
#X restore 195 164 pd makeguardpoints;
#X obj 125 164 - 1;
#N canvas 1751 174 843 710 automationhub 1;
#X obj 14 99 r \$1-auto-attack;
#X obj 15 40 line;
#X obj 15 17 r \$1-auto-volume;
#X obj 15 67 s \$1-volume;
#X obj 146 126 line;
#X obj 146 99 r \$1-auto-decay;
#X obj 146 153 s \$1-decay;
#X obj 260 128 line;
#X obj 260 99 r \$1-auto-sustain;
#X obj 260 155 s \$1-sustain;
#X obj 395 128 line;
#X obj 395 99 r \$1-auto-release;
#X obj 395 155 s \$1-release;
#X obj 14 125 line;
#X obj 14 152 s \$1-attack;
#X obj 14 186 r \$1-auto-lforate;
#X obj 14 209 line;
#X obj 14 232 s \$1-lforate;
#X obj 146 186 r \$1-auto-lfodepth;
#X obj 146 209 line;
#X obj 146 236 s \$1-lfodepth;
#X obj 15 292 line;
#X obj 15 269 r \$1-auto-filtercutoff;
#X obj 15 315 s \$1-filtercutoff;
#X obj 15 367 line;
#X obj 15 344 r \$1-auto-filterattack;
#X obj 15 390 s \$1-filterattack;
#X obj 183 367 line;
#X obj 183 344 r \$1-auto-filterdecay;
#X obj 183 390 s \$1-filterdecay;
#X obj 350 367 line;
#X obj 350 344 r \$1-auto-filtersustain;
#X obj 350 390 s \$1-filtersustain;
#X obj 528 367 line;
#X obj 528 344 r \$1-auto-filterrelease;
#X obj 528 390 s \$1-filterrelease;
#X obj 15 449 line;
#X obj 15 426 r \$1-auto-rev-damp;
#X obj 15 472 s \$1-rev-damp;
#X obj 183 449 line;
#X obj 183 426 r \$1-auto-rev-roomsize;
#X obj 183 472 s \$1-rev-roomsize;
#X obj 513 449 line;
#X obj 513 426 r \$1-auto-rev-dry;
#X obj 513 472 s \$1-rev-dry;
#X obj 647 449 line;
#X obj 647 426 r \$1-auto-rev-wet;
#X obj 647 472 s \$1-rev-wet;
#X obj 15 532 line;
#X obj 15 509 r \$1-auto-del-delay;
#X obj 15 555 s \$1-del-delay;
#X obj 182 532 line;
#X obj 182 509 r \$1-auto-del-feedback;
#X obj 182 555 s \$1-del-feedback;
#X obj 350 532 line;
#X obj 350 509 r \$1-auto-del-wet;
#X obj 350 555 s \$1-del-wet;
#X obj 15 612 line;
#X obj 15 589 r \$1-auto-flg-speed;
#X obj 15 635 s \$1-flg-speed;
#X obj 181 612 line;
#X obj 181 589 r \$1-auto-flg-offset;
#X obj 181 635 s \$1-flg-offset;
#X obj 349 612 line;
#X obj 349 589 r \$1-auto-flg-delay;
#X obj 349 635 s \$1-flg-delay;
#X obj 496 612 line;
#X obj 496 589 r \$1-auto-flg-feedback;
#X obj 496 635 s \$1-flg-feedback;
#X obj 350 449 line;
#X obj 350 426 r \$1-auto-rev-spread;
#X obj 350 472 s \$1-rev-spread;
#X connect 0 0 13 0;
#X connect 1 0 3 0;
#X connect 2 0 1 0;
#X connect 4 0 6 0;
#X connect 5 0 4 0;
#X connect 7 0 9 0;
#X connect 8 0 7 0;
#X connect 10 0 12 0;
#X connect 11 0 10 0;
#X connect 13 0 14 0;
#X connect 15 0 16 0;
#X connect 16 0 17 0;
#X connect 18 0 19 0;
#X connect 19 0 20 0;
#X connect 21 0 23 0;
#X connect 22 0 21 0;
#X connect 24 0 26 0;
#X connect 25 0 24 0;
#X connect 27 0 29 0;
#X connect 28 0 27 0;
#X connect 30 0 32 0;
#X connect 31 0 30 0;
#X connect 33 0 35 0;
#X connect 34 0 33 0;
#X connect 36 0 38 0;
#X connect 37 0 36 0;
#X connect 39 0 41 0;
#X connect 40 0 39 0;
#X connect 42 0 44 0;
#X connect 43 0 42 0;
#X connect 45 0 47 0;
#X connect 46 0 45 0;
#X connect 48 0 50 0;
#X connect 49 0 48 0;
#X connect 51 0 53 0;
#X connect 52 0 51 0;
#X connect 54 0 56 0;
#X connect 55 0 54 0;
#X connect 57 0 59 0;
#X connect 58 0 57 0;
#X connect 60 0 62 0;
#X connect 61 0 60 0;
#X connect 63 0 65 0;
#X connect 64 0 63 0;
#X connect 66 0 68 0;
#X connect 67 0 66 0;
#X connect 69 0 71 0;
#X connect 70 0 69 0;
#X restore 122 230 pd automationhub;
#N canvas 1710 528 681 450 lfoconnections 0;
#X obj 296 97 select 1;
#X obj 375 97 select 2;
#X obj 219 97 select 0;
#X obj 318 28 receive \$1-lfoconnection;
#X text 255 9 lfo connection 0=none \, 1=volume \, 2=pitch 3=filter
;
#X obj 465 97 select 3;
#X msg 562 297 1;
#X msg 531 287 0;
#X obj 492 221 r \$1-lforate;
#X obj 515 245 r \$1-lfodepth;
#X text 7 32 TODO: lfo's are running when no notes;
#X msg 341 272 1;
#X msg 375 281 0;
#X obj 308 217 r \$1-lforate;
#X obj 331 241 r \$1-lfodepth;
#X obj 309 360 send~ \$1-siglfopitch;
#X msg 188 285 1;
#X msg 219 294 0;
#X obj 149 230 r \$1-lforate;
#X obj 172 254 r \$1-lfodepth;
#X obj 150 345 send~ \$1-siglfovolume;
#X obj 491 343 send~ \$1-siglfofilter;
#X obj 318 317 send \$1-lfopitchenable;
#X obj 318 337 send \$1-lfopitchdisable;
#X text 8 48 TODO: lfo's can output 1-output.;
#X obj 149 311 siglfo~;
#X obj 308 298 siglfo~;
#X obj 492 314 siglfo~;
#X connect 0 0 12 0;
#X connect 0 0 7 0;
#X connect 0 0 16 0;
#X connect 1 0 7 0;
#X connect 1 0 11 0;
#X connect 1 0 17 0;
#X connect 2 0 7 0;
#X connect 2 0 12 0;
#X connect 2 0 17 0;
#X connect 3 0 2 0;
#X connect 3 0 0 0;
#X connect 3 0 1 0;
#X connect 3 0 5 0;
#X connect 5 0 6 0;
#X connect 5 0 12 0;
#X connect 5 0 17 0;
#X connect 6 0 27 2;
#X connect 7 0 27 2;
#X connect 8 0 27 0;
#X connect 9 0 27 1;
#X connect 11 0 22 0;
#X connect 11 0 26 2;
#X connect 12 0 23 0;
#X connect 12 0 26 2;
#X connect 13 0 26 0;
#X connect 14 0 26 1;
#X connect 16 0 25 2;
#X connect 17 0 25 2;
#X connect 18 0 25 0;
#X connect 19 0 25 1;
#X connect 25 0 20 0;
#X connect 26 0 15 0;
#X connect 27 0 21 0;
#X restore 122 270 pd lfoconnections;
#X obj 122 292 catch~ \$1-instrumentoutput;
#X obj 371 23 receive \$1-tabwrite;
#X obj 458 46 receive \$1-tabindex;
#X obj 369 118 receive \$1-resize;
#X obj 440 141 loadbang;
#X obj 168 121 receive \$1-makeguardpoints;
#X msg 369 206 \; \$2-tmp resize \$1;
#X obj 168 142 t f f;
#X obj 6 25 table \$1-wave;
#N canvas 1706 278 900 610 paramwriters 0;
#X obj 25 42 paramwriter \$1 0;
#X obj 25 80 r \$1-samplestart;
#X obj 25 108 paramwriter \$1 1;
#X obj 25 14 r \$1-volume;
#X obj 158 80 r \$1-sampleend;
#X obj 158 108 paramwriter \$1 2;
#X obj 325 11 table \$1-params;
#X obj 300 80 r \$1-loopstart;
#X obj 300 108 paramwriter \$1 3;
#X obj 449 108 paramwriter \$1 4;
#X obj 449 80 r \$1-loopend;
#X obj 25 146 r \$1-attack;
#X obj 585 108 paramwriter \$1 5;
#X obj 25 176 paramwriter \$1 6;
#X obj 585 79 r \$1-samplelength;
#X obj 157 146 r \$1-decay;
#X obj 299 146 r \$1-sustain;
#X obj 440 146 r \$1-release;
#X obj 157 176 paramwriter \$1 7;
#X obj 299 176 paramwriter \$1 8;
#X obj 440 176 paramwriter \$1 9;
#X obj 25 214 r \$1-lforate;
#X obj 25 244 paramwriter \$1 10;
#X obj 165 214 r \$1-lfodepth;
#X obj 165 244 paramwriter \$1 11;
#X obj 322 214 r \$1-lfoconnection;
#X obj 322 244 paramwriter \$1 12;
#X obj 26 279 r \$1-filtercutoff;
#X obj 166 279 r \$1-filterselect;
#X obj 26 310 paramwriter \$1 13;
#X obj 166 309 paramwriter \$1 14;
#X obj 322 280 r \$1-filterattack;
#X obj 466 280 r \$1-filterdecay;
#X obj 601 280 r \$1-filtersustain;
#X obj 743 280 r \$1-filterrelease;
#X obj 322 310 paramwriter \$1 15;
#X obj 466 310 paramwriter \$1 16;
#X obj 601 310 paramwriter \$1 17;
#X obj 743 310 paramwriter \$1 18;
#X obj 166 344 r \$1-rev-damp;
#X obj 166 377 paramwriter \$1 20;
#X obj 26 344 r \$1-rev-enable;
#X obj 26 377 paramwriter \$1 19;
#X obj 322 344 r \$1-rev-roomsize;
#X obj 322 377 paramwriter \$1 21;
#X obj 601 344 r \$1-rev-dry;
#X obj 736 344 r \$1-rev-wet;
#X obj 27 411 r \$1-del-enable;
#X obj 164 411 r \$1-del-delay;
#X obj 322 411 r \$1-del-feedback;
#X obj 466 411 r \$1-del-wet;
#X obj 27 476 r \$1-flg-enable;
#X obj 164 476 r \$1-flg-speed;
#X obj 322 476 r \$1-flg-offset;
#X obj 472 476 r \$1-flg-delay;
#X obj 613 476 r \$1-flg-feedback;
#X obj 743 79 r \$1-loopon;
#X obj 743 108 paramwriter \$1 33;
#X obj 468 377 paramwriter \$1 22;
#X obj 468 344 r \$1-rev-spread;
#X obj 601 377 paramwriter \$1 23;
#X obj 736 377 paramwriter \$1 24;
#X obj 27 444 paramwriter \$1 25;
#X obj 164 444 paramwriter \$1 26;
#X obj 322 444 paramwriter \$1 27;
#X obj 466 444 paramwriter \$1 28;
#X obj 27 509 paramwriter \$1 29;
#X obj 164 510 paramwriter \$1 30;
#X obj 322 509 paramwriter \$1 31;
#X obj 472 509 paramwriter \$1 32;
#X obj 613 509 paramwriter \$1 33;
#X connect 1 0 2 0;
#X connect 3 0 0 0;
#X connect 4 0 5 0;
#X connect 7 0 8 0;
#X connect 10 0 9 0;
#X connect 11 0 13 0;
#X connect 14 0 12 0;
#X connect 15 0 18 0;
#X connect 16 0 19 0;
#X connect 17 0 20 0;
#X connect 21 0 22 0;
#X connect 23 0 24 0;
#X connect 25 0 26 0;
#X connect 27 0 29 0;
#X connect 28 0 30 0;
#X connect 31 0 35 0;
#X connect 32 0 36 0;
#X connect 33 0 37 0;
#X connect 34 0 38 0;
#X connect 39 0 40 0;
#X connect 41 0 42 0;
#X connect 43 0 44 0;
#X connect 45 0 60 0;
#X connect 46 0 61 0;
#X connect 47 0 62 0;
#X connect 48 0 63 0;
#X connect 49 0 64 0;
#X connect 50 0 65 0;
#X connect 51 0 66 0;
#X connect 52 0 67 0;
#X connect 53 0 68 0;
#X connect 54 0 69 0;
#X connect 55 0 70 0;
#X connect 56 0 57 0;
#X connect 59 0 58 0;
#X restore 248 230 pd paramwriters;
#X obj 269 36 symbol \$1;
#X obj 7 59 table \$1-tmp;
#X obj 125 53 pack s s;
#X obj 440 163 symbol \$1;
#X obj 369 180 pack f s;
#X obj 371 70 tabwrite \$1-tmp;
#N canvas 1699 478 658 435 polyconnections 0;
#X obj 209 28 receive \$1-noteon;
#X obj 336 28 receive \$1-noteoff;
#X obj 336 50 pack 0 0;
#X obj 11 276 playit \$1-wave \$1;
#X obj 190 161 spigot;
#X obj 300 161 spigot;
#X obj 271 101 moses 1;
#X msg 333 136 0;
#X msg 223 136 0;
#X msg 303 136 1;
#X obj 190 101 pack f f f;
#N canvas 180 411 173 124 sendnoteon 0;
#X obj 7 10 inlet;
#X obj 7 50 symbol \$1;
#X msg 73 50 \$2;
#X obj 7 71 pack s f;
#X obj 7 30 t b l;
#X obj 7 92 s android-sustainednoteon;
#X connect 0 0 4 0;
#X connect 1 0 3 0;
#X connect 2 0 3 1;
#X connect 3 0 5 0;
#X connect 4 0 1 0;
#X connect 4 1 2 0;
#X restore 197 183 pd sendnoteon;
#N canvas 637 363 179 125 sendnoteoff 0;
#X obj 7 10 inlet;
#X obj 7 50 symbol \$1;
#X msg 73 50 \$2;
#X obj 7 71 pack s f;
#X obj 7 30 t b l;
#X obj 7 92 s android-sustainednoteoff;
#X connect 0 0 4 0;
#X connect 1 0 3 0;
#X connect 2 0 3 1;
#X connect 3 0 5 0;
#X connect 4 0 1 0;
#X connect 4 1 2 0;
#X restore 307 183 pd sendnoteoff;
#X obj 209 73 poly 5 1;
#X obj 190 220 route 1 2 3 4 5;
#X obj 300 220 route 1 2 3 4 5;
#X obj 235 344 s \$1-noteoff;
#X obj 137 276 playit \$1-wave \$1;
#X obj 263 276 playit \$1-wave \$1;
#X obj 390 276 playit \$1-wave \$1;
#X obj 519 276 playit \$1-wave \$1;
#X msg 449 81 clear;
#X connect 0 0 13 0;
#X connect 1 0 2 0;
#X connect 2 0 13 0;
#X connect 3 0 16 0;
#X connect 4 0 11 0;
#X connect 4 0 14 0;
#X connect 5 0 12 0;
#X connect 5 0 15 0;
#X connect 6 0 8 0;
#X connect 6 0 9 0;
#X connect 6 1 7 0;
#X connect 6 1 4 1;
#X connect 7 0 5 1;
#X connect 8 0 4 1;
#X connect 9 0 5 1;
#X connect 10 0 4 0;
#X connect 10 0 5 0;
#X connect 13 0 10 0;
#X connect 13 1 10 1;
#X connect 13 2 6 0;
#X connect 13 2 10 2;
#X connect 14 0 3 0;
#X connect 14 1 17 0;
#X connect 14 2 18 0;
#X connect 14 3 19 0;
#X connect 14 4 20 0;
#X connect 15 0 3 1;
#X connect 15 1 17 1;
#X connect 15 2 18 1;
#X connect 15 3 19 1;
#X connect 15 4 20 1;
#X connect 17 0 16 0;
#X connect 18 0 16 0;
#X connect 19 0 16 0;
#X connect 20 0 16 0;
#X connect 21 0 13 0;
#X restore 122 250 pd polyconnections;
#X obj 123 361 effects \$1;
#X obj 122 336 pan;
#X obj 123 405 throw~ mainoutputL;
#X obj 189 384 throw~ mainoutputR;
#X obj 140 315 r \$1-pan;
#X connect 0 0 5 0;
#X connect 0 0 6 0;
#X connect 1 0 19 0;
#X connect 2 0 21 0;
#X connect 4 0 0 0;
#X connect 6 0 3 0;
#X connect 9 0 27 0;
#X connect 10 0 24 0;
#X connect 11 0 24 1;
#X connect 12 0 23 0;
#X connect 13 0 22 0;
#X connect 14 0 16 0;
#X connect 16 0 6 0;
#X connect 16 1 5 0;
#X connect 19 0 21 1;
#X connect 21 0 4 0;
#X connect 22 0 23 1;
#X connect 23 0 15 0;
#X connect 26 0 28 0;
#X connect 26 1 29 0;
#X connect 27 0 26 0;
#X connect 27 1 26 1;
#X connect 30 0 27 1;
#X coords 0 471 1 470 300 60 0;
