#N canvas 580 102 1263 1001 10;
#X obj 186 57 vsl 15 128 200 20000 0 0 \$1-filtercutoff empty cutoff -10 -9 0 10 #fcfcfc #000000 #000000 0 1;
#X obj 208 92 vradio 15 1 0 3 \$1-filterselect empty empty 0 -8 0 10 #fcfcfc #000000 #000000 0;
#X text 224 92 off;
#X text 225 125 lowpass;
#X text 225 108 highpass;
#X obj 291 58 hsl 45 15 0 2000 0 1 \$1-filterattack \$1-filterattack-ui attack 52 7 0 10 #fcfcfc #000000 #000000 0 1;
#X obj 291 78 hsl 45 15 0 2000 0 1 \$1-filterdecay \$1-filterdecay-ui decay 52 7 0 10 #fcfcfc #000000 #000000 0 1;
#X obj 291 98 hsl 45 15 0 1 0 1 \$1-filtersustain \$1-filtersustain-ui sustain 52 7 0 10 #fcfcfc #000000 #000000 4400 1;
#X obj 291 119 hsl 45 15 0 2000 0 1 \$1-filterrelease \$1-filterrelease-ui release 52 7 0 10 #fcfcfc #000000 #000000 4400 1;
#X obj 21 220 cnv 15 230 25 empty empty MASTER_VOL 20 12 0 20 #f8fc00 #404040 0;
#X obj 164 12 cnv 15 230 25 empty empty FILTER 20 12 0 20 #f8fc00 #404040 0;
#X obj 421 13 cnv 15 200 25 empty empty LFO 20 12 0 20 #f8fc00 #404040 0;
#X obj 433 57 vsl 15 128 0.25 10 0 0 \$1-lforate empty rate_(Hz) -5 -9 0 10 #fcfcfc #000000 #000000 0 1;
#X obj 500 57 vsl 15 128 0 1 0 0 \$1-lfodepth empty depth -5 -9 0 10 #fcfcfc #000000 #000000 0 1;
#X obj 543 64 vradio 15 1 0 4 \$1-lfoconnection empty target 0 -8 0 10 #fcfcfc #000000 #000000 0;
#X text 561 78 volume;
#X text 561 93 pitch;
#X obj 814 13 cnv 15 220 25 sound1-loopon empty LOOP 20 12 0 20 #f8fc00 #404040 0;
#X obj 1056 67 hsl 128 15 0 2000 0 1 \$1-attack \$1-attack-ui attack -2 -8 0 10 #fcfcfc #000000 #000000 0 1;
#X obj 1056 100 hsl 128 15 0 2000 0 1 \$1-decay \$1-decay-ui decay -2 -8 0 10 #fcfcfc #000000 #000000 0 1;
#X obj 1057 133 hsl 128 15 0 1 0 1 \$1-sustain \$1-sustain-ui sustain -2 -8 0 10 #fcfcfc #000000 #000000 12700 1;
#X obj 1058 165 hsl 128 15 0 2000 0 1 \$1-release \$1-release-ui release -2 -8 0 10 #fcfcfc #000000 #000000 0 1;
#X obj 820 79 hsl 128 15 0 -1 0 0 \$1-loopstart \$1-loopstart-ui loopstart -2 -8 0 10 #fcfcfc #000000 #000000 0 1;
#X obj 821 135 hsl 128 15 0 -1 0 0 \$1-loopend \$1-loopend-ui loopend -2 -8 0 10 #fcfcfc #000000 #000000 0 1;
#X obj 818 46 tgl 15 1 \$1-loopon empty loop 17 7 0 10 #fcfcfc #000000 #000000 0 1;
#X obj 11 290 cnv 15 480 30 empty empty CONTROLS 20 12 0 18 #e0e0e0 #404040 0;
#X floatatom 818 153 10 0 0 0 - - - 0;
#X floatatom 817 100 10 0 0 0 - - - 0;
#X floatatom 1115 82 10 0 0 0 - - - 0;
#X floatatom 1114 115 10 0 0 0 - - - 0;
#X floatatom 1115 148 10 0 0 0 - - - 0;
#X floatatom 1116 180 10 0 0 0 - - - 0;
#X obj 1049 14 cnv 15 150 25 empty empty VOL-ENV 20 12 0 25 #f8fc00 #404040 0;
#X obj 644 13 cnv 15 100 25 sound1-loopon empty SAMPLE 20 12 0 20 #f8fc00 #404040 0;
#X obj 649 58 hsl 128 15 0 -1 0 0 \$1-samplestart \$1-samplestart-ui samplestart -2 -8 0 10 #fcfcfc #000000 #000000 0 1;
#X obj 650 113 hsl 128 15 0 -1 0 0 \$1-sampleend \$1-sampleend-ui sampleend -2 -8 0 10 #fcfcfc #000000 #000000 0 1;
#X floatatom 647 131 10 0 0 0 - - - 0;
#X floatatom 646 79 10 0 0 0 - - - 0;
#X obj 23 667 openpanel;
#X obj 23 649 bng 15 250 50 0 empty empty empty 17 7 0 10 #fcfcfc #000000 #000000;
#X obj 164 12 cnv 15 230 25 empty empty FILTER2 20 12 0 20 #f8fc00 #404040 0;
#X obj 164 12 cnv 15 230 25 empty empty FILTER 20 12 0 20 #f8fc00 #404040 0;
#X obj 30 251 hsl 128 15 -50 0 0 1 \$1-volume empty empty -2 -8 0 10 #fcfcfc #000000 #000000 12700 1;
#X floatatom 170 266 5 0 0 0 - - - 0;
#N canvas 283 261 440 482 setsamplelength 0;
#X msg 59 217 set \$1;
#X obj 22 84 trigger b f f;
#X msg 22 202 0;
#X obj 22 25 receive \$1-samplelength;
#X obj 72 300 send \$1-loopend-ui;
#X obj 59 323 send \$1-sampleend-ui;
#X obj 32 396 send \$1-samplestart-ui;
#X obj 22 417 send \$1-loopstart-ui;
#X obj 107 108 pack f s;
#X obj 152 54 loadbang;
#X obj 152 76 symbol \$1;
#X obj 22 57 - 1;
#X msg 107 192 \; \$2-loopend-ui range 0 \$1 \; \$2-loopstart-ui range 0 \$1 \; \$2-sampleend-ui range 0 \$1 \; \$2-samplestart-ui range 0 \$1 \;;
#X obj 41 372 send \$1-seamsize-ui;
#X connect 0 0 4 0;
#X connect 0 0 5 0;
#X connect 1 0 2 0;
#X connect 1 1 0 0;
#X connect 1 2 8 0;
#X connect 2 0 6 0;
#X connect 2 0 7 0;
#X connect 2 0 13 0;
#X connect 3 0 11 0;
#X connect 8 0 12 0;
#X connect 9 0 10 0;
#X connect 10 0 8 1;
#X connect 11 0 1 0;
#X restore 22 70 pd setsamplelength;
#N canvas 795 254 504 379 receivemidi 0;
#X obj 242 169 send \$1-noteoff;
#X obj 134 53 notein;
#X obj 134 124 spigot;
#X obj 153 104 > 0;
#X obj 134 144 list append;
#X obj 134 169 send \$1-noteon;
#X obj 242 124 spigot;
#X obj 242 144 list append;
#X obj 261 104 == 0;
#X obj 71 232 print noteon:;
#X obj 334 239 print noteoff:;
#X connect 1 0 2 0;
#X connect 1 0 6 0;
#X connect 1 1 3 0;
#X connect 1 1 4 1;
#X connect 1 1 8 0;
#X connect 2 0 4 0;
#X connect 2 0 9 0;
#X connect 3 0 2 1;
#X connect 4 0 5 0;
#X connect 6 0 7 0;
#X connect 6 0 10 0;
#X connect 7 0 0 0;
#X connect 8 0 6 1;
#X restore 22 35 pd receivemidi;
#X text 560 110 filter;
#X text 561 63 none;
#X obj 258 220 cnv 15 100 25 empty empty PAN 20 12 0 20 #f8fc00 #404040 0;
#X obj 267 251 hsl 128 15 0 1 0 1 \$1-pan \$1-pan empty -2 -8 0 10 #fcfcfc #000000 #000000 6400 1;
#X floatatom 407 266 5 0 0 0 - - - 0;
#X obj 23 827 s \$1-filename;
#X obj 414 188 nbx 5 14 -1e+37 1e+37 0 0 empty empty empty 0 -8 0 10 #fcfcfc #000000 #000000 0 256;
#X obj 167 188 nbx 5 14 -1e+37 1e+37 0 0 empty empty empty 0 -8 0 10 #fcfcfc #000000 #000000 0 256;
#X obj 481 188 nbx 5 14 -1e+37 1e+37 0 0 empty empty empty 0 -8 0 10 #fcfcfc #000000 #000000 0 256;
#N canvas 402 137 577 369 trigger 0;
#X obj 403 44 expr $i1;
#X obj 367 216 list;
#X obj 328 46 moses 1;
#X obj 328 70 bng 15 250 50 0 empty empty empty 17 7 0 10 #fcfcfc #000000 #000000;
#X obj 367 290 send \$1-noteon;
#X obj 328 312 send \$1-noteoff;
#X obj 403 198 pack f 127;
#X obj 460 115 expr $i1;
#X obj 93 138 hsl 128 15 0 127 0 0 \$0-note empty Note -2 -8 0 10 #fcfcfc #000000 #000000 0 1;
#X floatatom 195 153 5 0 0 0 - \$0-noteval - 0;
#X obj 403 18 r \$0-note;
#X obj 413 69 s \$0-noteval;
#X obj 92 100 tgl 15 0 \$0-onoff empty on/off 17 7 0 10 #fcfcfc #000000 #000000 0 1;
#X obj 328 21 r \$0-onoff;
#X obj 460 91 r \$0-velocity;
#X obj 94 182 hsl 128 15 0 127 0 0 \$0-velocity empty Velocity -2 -8 0 10 #fcfcfc #000000 #000000 0 1;
#X floatatom 196 197 5 0 0 0 - \$0-velval - 0;
#X obj 460 141 s \$0-velval;
#X msg 343 260 \$1;
#X obj 328 282 f;
#X obj 367 69 bng 15 250 50 0 empty empty empty 17 7 0 10 #fcfcfc #000000 #000000;
#X obj 433 166 t b f;
#X obj 27 7 loadbang;
#X obj 43 164 127;
#X obj 94 232 hsl 128 15 -50 50 0 0 \$1-finetune empty finetune -2 -8 0 10 #fcfcfc #000000 #000000 0 1;
#X floatatom 196 247 5 0 0 0 - - - 0;
#X obj 36 214 0;
#X obj 94 279 hsl 128 15 0 127 0 0 empty empty Root_note -2 -8 0 10 #fcfcfc #000000 #000000 0 1;
#X floatatom 195 294 5 0 0 0 - - - 0;
#X obj 240 294 expr $i1;
#X obj 240 328 s \$1-rootnote;
#X obj 27 261 48;
#X obj 50 120 48;
#X connect 0 0 6 0;
#X connect 0 0 11 0;
#X connect 1 0 4 0;
#X connect 1 0 18 0;
#X connect 2 0 3 0;
#X connect 2 1 20 0;
#X connect 3 0 19 0;
#X connect 6 0 1 1;
#X connect 7 0 17 0;
#X connect 7 0 21 0;
#X connect 10 0 0 0;
#X connect 13 0 2 0;
#X connect 14 0 7 0;
#X connect 18 0 19 1;
#X connect 19 0 5 0;
#X connect 20 0 1 0;
#X connect 21 0 6 0;
#X connect 21 1 6 1;
#X connect 22 0 23 0;
#X connect 22 0 26 0;
#X connect 22 0 31 0;
#X connect 22 0 32 0;
#X connect 23 0 15 0;
#X connect 24 0 25 0;
#X connect 26 0 24 0;
#X connect 27 0 29 0;
#X connect 29 0 28 0;
#X connect 29 0 30 0;
#X connect 31 0 27 0;
#X connect 32 0 8 0;
#X coords 0 -1 1 1 150 250 1 80 70;
#X restore 13 334 pd trigger;
#X text 20 625 open wave file;
#X obj 21 108 sampleplayer \$1;
#X obj 496 233 cnv 15 700 25 empty empty FX 10 12 0 25 #f8fc00 #404040 0;
#X obj 498 283 fxcontrolsui \$1;
#X msg 498 265 fx0 fx1 fx2 fx3 fx4 fx5 fx6 fx7 fx8 fx9;
#X obj 179 404 bng 15 250 50 0 \$1-waveplaybackstop empty waveplaybackstop 17 7 0 10 #fcfcfc #000000 #000000;
#X obj 179 429 bng 15 250 50 0 \$1-waveplaybackstopinstant empty waveplaybackstopinstant 17 7 0 10 #fcfcfc #000000 #000000;
#X obj 179 552 s \$1-noteplayback;
#X msg 179 531 48 127 500;
#X obj 179 374 s \$1-waveplaybackstart;
#X msg 179 350 48;
#X obj 821 188 hsl 128 15 0 0.4 0 0 \$1-seamsize empty seamsize -2 -8 0 10 #fcfcfc #000000 #000000 0 1;
#X floatatom 818 206 10 0 0 0 - - - 0;
#X msg 97 758 ../../wavs/aaahh.wav;
#X obj 959 60 vradio 15 1 1 4 \$1-loopmode empty loop\ mode 0 -8 0 10 #fcfcfc #000000 #000000 3;
#X text 977 59 none;
#X text 976 74 forward;
#X text 977 89 backward;
#X text 977 104 pingpong;
#X msg 97 687 ../../wavs/sweep.wav;
#X msg 97 781 ../../wavs/sine440.wav;
#X obj 716 151 loadbang;
#X msg 676 210 0.002;
#X msg 97 710 ../../wavs/sweep-rev.wav;
#X obj 287 634 loadbang;
#X msg 606 202 0.204724;
#X msg 723 175 0;
#X obj 287 661 t b b;
#X obj 314 690 s dsp-on;
#X msg 97 735 ../../wavs/sweepsaw.wav;
#X connect 0 0 53 0;
#X connect 12 0 52 0;
#X connect 13 0 54 0;
#X connect 18 0 28 0;
#X connect 19 0 29 0;
#X connect 20 0 30 0;
#X connect 21 0 31 0;
#X connect 22 0 27 0;
#X connect 23 0 26 0;
#X connect 34 0 37 0;
#X connect 35 0 36 0;
#X connect 38 0 51 0;
#X connect 39 0 38 0;
#X connect 42 0 43 0;
#X connect 49 0 50 0;
#X connect 59 0 60 0;
#X connect 64 0 63 0;
#X connect 66 0 65 0;
#X connect 67 0 68 0;
#X connect 69 0 51 0;
#X connect 75 0 51 0;
#X connect 76 0 51 0;
#X connect 77 0 82 0;
#X connect 78 0 67 0;
#X connect 79 0 51 0;
#X connect 80 0 83 0;
#X connect 81 0 67 0;
#X connect 82 0 67 0;
#X connect 83 0 85 0;
#X connect 83 1 84 0;
#X connect 85 0 51 0;
#X coords 0 0 1 1 85 60 0;
