#N canvas 1952 332 392 430 10;
#X obj 102 -1100 soundfiler;
#X obj -17 -1174 table \$0-lyden;
#X obj 233 -1162 float \$0;
#X obj 102 -1145 pack s f;
#X obj 233 -1184 loadbang;
#X obj 102 -1175 receive \$1-filename;
#X obj 102 -1055 send \$1-samplelength;
#X obj -16 -1139 table \$0-tmp;
#X msg 102 -1121 read -resize \$1 \$2-tmp;
#N canvas 516 305 685 630 makeguardpoints 0;
#X obj 28 32 inlet;
#X text 24 10 nr of samples;
#X obj 28 62 trigger bang float float float float float;
#X obj 277 94 + 3;
#X obj 382 145 float \$0;
#X obj 277 122 trigger float bang;
#X obj 277 162 pack f f;
#X msg 277 189 \; \$2-lyden resize \$1;
#X obj 178 340 trigger bang float;
#X msg 178 372 0;
#X obj 283 423 + 1;
#X obj 178 407 tabread \$0-tmp;
#X obj 178 450 tabwrite \$0-lyden;
#X obj 34 230 trigger bang float;
#X msg 34 262 1;
#X obj 139 301 + 2;
#X obj 34 297 tabread \$0-tmp;
#X obj 34 330 tabwrite \$0-lyden;
#X obj -114 304 until;
#X msg -114 268 \$1;
#X obj -114 344 float;
#X obj -58 344 + 1;
#X obj -114 232 trigger float bang;
#X obj -114 522 float;
#X obj -114 481 trigger bang float;
#X obj -114 435 trigger float float;
#X msg -59 301 0;
#X obj -9 546 + 1;
#X obj -3 505 tabread \$0-tmp;
#X obj -114 567 tabwrite \$0-lyden;
#X obj 243 243 trigger float bang;
#X msg 348 287 0;
#X obj 243 273 tabread \$0-tmp;
#X obj 243 304 tabwrite \$0-lyden;
#X msg -203 124 \; \$1-tmp const 0 \; \$1-tmp resize 0 \;;
#X obj -203 79 float \$0;
#X connect 0 0 2 0;
#X connect 2 0 35 0;
#X connect 2 1 22 0;
#X connect 2 2 13 0;
#X connect 2 3 8 0;
#X connect 2 4 30 0;
#X connect 2 5 3 0;
#X connect 3 0 5 0;
#X connect 4 0 6 1;
#X connect 5 0 6 0;
#X connect 5 1 4 0;
#X connect 6 0 7 0;
#X connect 8 0 9 0;
#X connect 8 1 10 0;
#X connect 9 0 11 0;
#X connect 10 0 12 1;
#X connect 11 0 12 0;
#X connect 13 0 14 0;
#X connect 13 1 15 0;
#X connect 14 0 16 0;
#X connect 15 0 17 1;
#X connect 16 0 17 0;
#X connect 18 0 20 0;
#X connect 19 0 18 0;
#X connect 20 0 21 0;
#X connect 20 0 25 0;
#X connect 21 0 20 1;
#X connect 22 0 19 0;
#X connect 22 1 26 0;
#X connect 23 0 29 0;
#X connect 24 0 23 0;
#X connect 24 1 27 0;
#X connect 25 0 24 0;
#X connect 25 1 28 0;
#X connect 26 0 20 1;
#X connect 27 0 29 1;
#X connect 28 0 23 1;
#X connect 30 0 32 0;
#X connect 30 1 31 0;
#X connect 31 0 33 1;
#X connect 32 0 33 0;
#X connect 35 0 34 0;
#X restore 186 -1083 pd makeguardpoints;
#X obj 102 -1078 - 1;
#N canvas 1864 403 565 265 automationhub 0;
#X obj 25 46 line;
#X obj 25 73 s \$1-attack;
#X obj 25 23 r \$1-auto-attack;
#X obj 145 46 line;
#X obj 145 23 r \$1-auto-volume;
#X obj 145 73 s \$1-volume;
#X connect 0 0 1 0;
#X connect 2 0 0 0;
#X connect 3 0 5 0;
#X connect 4 0 3 0;
#X restore 99 -1007 pd automationhub;
#X obj 99 -836 throw~ mainoutput;
#N canvas 65 339 681 450 lfoconnections 0;
#X obj 249 -336 select 1;
#X obj 328 -336 select 2;
#X obj 172 -336 select 0;
#X obj 271 -405 receive \$1-lfoconnection;
#X text 208 -424 lfo connection 0=none \, 1=volume \, 2=pitch 3=filter
;
#X obj 418 -336 select 3;
#X msg 515 -136 1;
#X msg 484 -146 0;
#X obj 445 -212 r \$1-lforate;
#X obj 464 -188 r \$1-lfodepth;
#X text -45 -242 TODO: lfo's are running when no notes;
#X msg 320 -139 1;
#X msg 348 -130 0;
#X obj 281 -194 r \$1-lforate;
#X obj 300 -170 r \$1-lfodepth;
#X obj 282 -51 send~ \$1-siglfopitch;
#X msg 177 -148 1;
#X msg 208 -139 0;
#X obj 138 -203 r \$1-lforate;
#X obj 157 -179 r \$1-lfodepth;
#X obj 139 -88 send~ \$1-siglfovolume;
#X obj 444 -90 send~ \$1-siglfofilter;
#X obj 291 -94 send \$1-lfopitchenable;
#X obj 291 -74 send \$1-lfopitchdisable;
#X text -44 -226 TODO: lfo's can output 1-output.;
#X obj 138 -122 siglfo~;
#X obj 281 -113 siglfo~;
#X obj 445 -119 siglfo~;
#X connect 0 0 12 0;
#X connect 0 0 7 0;
#X connect 0 0 16 0;
#X connect 1 0 7 0;
#X connect 1 0 11 0;
#X connect 1 0 17 0;
#X connect 2 0 7 0;
#X connect 2 0 12 0;
#X connect 2 0 17 0;
#X connect 3 0 2 0;
#X connect 3 0 0 0;
#X connect 3 0 1 0;
#X connect 3 0 5 0;
#X connect 5 0 6 0;
#X connect 5 0 12 0;
#X connect 5 0 17 0;
#X connect 6 0 27 2;
#X connect 7 0 27 2;
#X connect 8 0 27 0;
#X connect 9 0 27 1;
#X connect 11 0 22 0;
#X connect 11 0 26 2;
#X connect 12 0 23 0;
#X connect 12 0 26 2;
#X connect 13 0 26 0;
#X connect 14 0 26 1;
#X connect 16 0 25 2;
#X connect 17 0 25 2;
#X connect 18 0 25 0;
#X connect 19 0 25 1;
#X connect 25 0 20 0;
#X connect 26 0 15 0;
#X connect 27 0 21 0;
#X restore 99 -952 pd lfoconnections;
#N canvas 913 484 672 270 polyconnections 0;
#X obj 280 -656 receive \$1-noteon;
#X obj 361 -612 receive \$1-noteoff;
#X obj 280 -585 multitimbral 5;
#X obj 154 -559 route 0 1 2 3 4;
#X obj 397 -553 route 0 1 2 3 4;
#X obj 320 -635 receive \$1-setavailable;
#X obj -36 -458 s \$1-setavailable;
#X obj 94 -458 s \$1-setavailable;
#X obj 224 -458 s \$1-setavailable;
#X obj 357 -461 s \$1-setavailable;
#X obj 500 -461 s \$1-setavailable;
#X obj -36 -497 playit \$0-lyden \$1;
#X obj 94 -497 playit \$0-lyden \$1;
#X obj 224 -497 playit \$0-lyden \$1;
#X obj 357 -497 playit \$0-lyden \$1;
#X obj 500 -497 playit \$0-lyden \$1;
#X connect 0 0 2 0;
#X connect 1 0 2 2;
#X connect 2 0 3 0;
#X connect 2 1 4 0;
#X connect 3 0 11 0;
#X connect 3 1 12 0;
#X connect 3 2 13 0;
#X connect 3 3 14 0;
#X connect 3 4 15 0;
#X connect 4 0 11 1;
#X connect 4 1 12 1;
#X connect 4 2 13 1;
#X connect 4 3 14 1;
#X connect 4 4 15 1;
#X connect 5 0 2 1;
#X connect 11 0 6 0;
#X connect 12 0 7 0;
#X connect 13 0 8 0;
#X connect 14 0 9 0;
#X connect 15 0 10 0;
#X restore 99 -980 pd polyconnections;
#N canvas 1773 476 637 331 effects 1;
#X obj 77 5 inlet~;
#X obj 47 239 outlet~;
#X connect 0 0 1 0;
#X restore 184 -864 pd effects;
#X obj 99 -906 catch~ \$1-instrumentoutput;
#X connect 0 0 9 0;
#X connect 0 0 10 0;
#X connect 2 0 3 1;
#X connect 3 0 8 0;
#X connect 4 0 2 0;
#X connect 5 0 3 0;
#X connect 8 0 0 0;
#X connect 10 0 6 0;
#X connect 16 0 12 0;
#X coords 0 430 1 429 300 60 0;
