#N canvas 1625 100 1254 923 10;
#X obj 214 -504 soundfiler;
#X obj 95 -578 table \$0-lyden;
#X obj 345 -566 float \$0;
#X obj 214 -549 pack s f;
#X obj 345 -588 loadbang;
#X obj 214 -579 receive \$1-filename;
#X obj -123 -299 moses 1;
#X obj -61 -271 moses 1;
#X obj 0 -243 moses 1;
#X obj 58 -215 moses 1;
#X obj 120 -188 moses 1;
#X obj 178 -163 moses 1;
#X obj -123 -331 == 1;
#X obj -61 -332 == 2;
#X obj 0 -330 == 3;
#X obj 58 -330 == 4;
#X obj 120 -330 == 5;
#X obj 178 -330 == 6;
#X obj 240 -136 moses 1;
#X obj 298 -107 moses 1;
#X obj 240 -329 == 7;
#X obj 298 -329 == 8;
#X obj 214 -459 send \$1-samplelength;
#X obj 98 -435 receive \$1-noteon;
#X obj 613 -299 moses 1;
#X obj 675 -271 moses 1;
#X obj 736 -243 moses 1;
#X obj 794 -215 moses 1;
#X obj 856 -188 moses 1;
#X obj 914 -163 moses 1;
#X obj 613 -331 == 1;
#X obj 675 -332 == 2;
#X obj 736 -330 == 3;
#X obj 794 -330 == 4;
#X obj 856 -330 == 5;
#X obj 914 -330 == 6;
#X obj 976 -136 moses 1;
#X obj 1034 -107 moses 1;
#X obj 976 -329 == 7;
#X obj 1034 -329 == 8;
#X obj 834 -435 receive \$1-noteoff;
#X obj 384 36 select 1;
#X obj 463 36 select 2;
#X obj 307 36 select 0;
#X obj 406 -33 receive \$1-lfoconnection;
#X text 343 -52 lfo connection 0=none \, 1=volume \, 2=pitch 3=filter
;
#X obj 553 36 select 3;
#X msg 702 224 1;
#X msg 665 214 0;
#X obj 632 148 r \$1-lforate;
#X obj 648 172 r \$1-lfodepth;
#X text -57 66 TODO: lfo's are running when no notes;
#X obj 96 -543 table \$0-tmp;
#X msg 214 -525 read -resize \$1 \$2-tmp;
#N canvas 516 305 685 630 makeguardpoints 0;
#X obj 28 32 inlet;
#X text 24 10 nr of samples;
#X obj 28 62 trigger bang float float float float float;
#X obj 277 94 + 3;
#X obj 382 145 float \$0;
#X obj 277 122 trigger float bang;
#X obj 277 162 pack f f;
#X msg 277 189 \; \$2-lyden resize \$1;
#X obj 178 340 trigger bang float;
#X msg 178 372 0;
#X obj 283 423 + 1;
#X obj 178 407 tabread \$0-tmp;
#X obj 178 450 tabwrite \$0-lyden;
#X obj 34 230 trigger bang float;
#X msg 34 262 1;
#X obj 139 301 + 2;
#X obj 34 297 tabread \$0-tmp;
#X obj 34 330 tabwrite \$0-lyden;
#X obj -114 304 until;
#X msg -114 268 \$1;
#X obj -114 344 float;
#X obj -58 344 + 1;
#X obj -114 232 trigger float bang;
#X obj -114 522 float;
#X obj -114 481 trigger bang float;
#X obj -114 435 trigger float float;
#X msg -59 301 0;
#X obj -9 546 + 1;
#X obj -3 505 tabread \$0-tmp;
#X obj -114 567 tabwrite \$0-lyden;
#X obj 243 243 trigger float bang;
#X msg 348 287 0;
#X obj 243 273 tabread \$0-tmp;
#X obj 243 304 tabwrite \$0-lyden;
#X msg -203 124 \; \$1-tmp const 0 \; \$1-tmp resize 0 \;;
#X obj -203 79 float \$0;
#X connect 0 0 2 0;
#X connect 2 0 35 0;
#X connect 2 1 22 0;
#X connect 2 2 13 0;
#X connect 2 3 8 0;
#X connect 2 4 30 0;
#X connect 2 5 3 0;
#X connect 3 0 5 0;
#X connect 4 0 6 1;
#X connect 5 0 6 0;
#X connect 5 1 4 0;
#X connect 6 0 7 0;
#X connect 8 0 9 0;
#X connect 8 1 10 0;
#X connect 9 0 11 0;
#X connect 10 0 12 1;
#X connect 11 0 12 0;
#X connect 13 0 14 0;
#X connect 13 1 15 0;
#X connect 14 0 16 0;
#X connect 15 0 17 1;
#X connect 16 0 17 0;
#X connect 18 0 20 0;
#X connect 19 0 18 0;
#X connect 20 0 21 0;
#X connect 20 0 25 0;
#X connect 21 0 20 1;
#X connect 22 0 19 0;
#X connect 22 1 26 0;
#X connect 23 0 29 0;
#X connect 24 0 23 0;
#X connect 24 1 27 0;
#X connect 25 0 24 0;
#X connect 25 1 28 0;
#X connect 26 0 20 1;
#X connect 27 0 29 1;
#X connect 28 0 23 1;
#X connect 30 0 32 0;
#X connect 30 1 31 0;
#X connect 31 0 33 1;
#X connect 32 0 33 0;
#X connect 35 0 34 0;
#X restore 413 -487 pd makeguardpoints;
#X msg 501 222 1;
#X msg 530 230 0;
#X obj 468 166 r \$1-lforate;
#X obj 484 190 r \$1-lfodepth;
#X obj 469 309 send~ \$1-siglfopitch;
#X msg 358 213 1;
#X msg 395 221 0;
#X obj 325 157 r \$1-lforate;
#X obj 341 181 r \$1-lfodepth;
#X obj 326 272 send~ \$1-siglfovolume;
#X obj 631 270 send~ \$1-siglfofilter;
#X obj 478 266 send \$1-lfopitchenable;
#X obj 478 286 send \$1-lfopitchdisable;
#X obj 399 -282 playit \$0-lyden 1.18921 \$1;
#X obj 214 -482 - 1;
#X text -56 80 TODO: lfo's can output 1-output.;
#X obj 468 247 siglfo;
#X obj 325 238 siglfo;
#X obj 632 241 siglfo;
#X obj 398 -254 playit \$0-lyden 1.33484 \$1;
#X obj 398 -226 playit \$0-lyden 1.49831 \$1;
#X obj 398 -198 playit \$0-lyden 1.5874 \$1;
#X obj 397 -171 playit \$0-lyden 1.7818 \$1;
#X obj 396 -119 playit \$0-lyden 2.24492 \$1;
#X obj 395 -90 playit \$0-lyden 2.37841 \$1;
#X obj 397 -146 playit \$0-lyden 2 \$1;
#X connect 0 0 54 0;
#X connect 0 0 69 0;
#X connect 2 0 3 1;
#X connect 3 0 53 0;
#X connect 4 0 2 0;
#X connect 5 0 3 0;
#X connect 6 1 68 0;
#X connect 7 1 74 0;
#X connect 8 1 75 0;
#X connect 9 1 76 0;
#X connect 10 1 77 0;
#X connect 11 1 80 0;
#X connect 12 0 6 0;
#X connect 13 0 7 0;
#X connect 14 0 8 0;
#X connect 15 0 9 0;
#X connect 16 0 10 0;
#X connect 17 0 11 0;
#X connect 18 1 78 0;
#X connect 19 1 79 0;
#X connect 20 0 18 0;
#X connect 21 0 19 0;
#X connect 23 0 12 0;
#X connect 23 0 13 0;
#X connect 23 0 14 0;
#X connect 23 0 15 0;
#X connect 23 0 16 0;
#X connect 23 0 17 0;
#X connect 23 0 20 0;
#X connect 23 0 21 0;
#X connect 24 1 68 1;
#X connect 25 1 74 1;
#X connect 26 1 75 1;
#X connect 27 1 76 1;
#X connect 28 1 77 1;
#X connect 29 1 80 1;
#X connect 30 0 24 0;
#X connect 31 0 25 0;
#X connect 32 0 26 0;
#X connect 33 0 27 0;
#X connect 34 0 28 0;
#X connect 35 0 29 0;
#X connect 36 1 78 1;
#X connect 37 1 79 1;
#X connect 38 0 36 0;
#X connect 39 0 37 0;
#X connect 40 0 30 0;
#X connect 40 0 31 0;
#X connect 40 0 32 0;
#X connect 40 0 33 0;
#X connect 40 0 34 0;
#X connect 40 0 35 0;
#X connect 40 0 38 0;
#X connect 40 0 39 0;
#X connect 41 0 56 0;
#X connect 41 0 48 0;
#X connect 41 0 60 0;
#X connect 42 0 48 0;
#X connect 42 0 55 0;
#X connect 42 0 61 0;
#X connect 43 0 48 0;
#X connect 43 0 56 0;
#X connect 43 0 61 0;
#X connect 44 0 43 0;
#X connect 44 0 41 0;
#X connect 44 0 42 0;
#X connect 44 0 46 0;
#X connect 46 0 47 0;
#X connect 46 0 56 0;
#X connect 46 0 61 0;
#X connect 47 0 73 2;
#X connect 48 0 73 2;
#X connect 49 0 73 0;
#X connect 50 0 73 1;
#X connect 53 0 0 0;
#X connect 55 0 66 0;
#X connect 55 0 71 2;
#X connect 56 0 67 0;
#X connect 56 0 71 2;
#X connect 57 0 71 0;
#X connect 58 0 71 1;
#X connect 60 0 72 2;
#X connect 61 0 72 2;
#X connect 62 0 72 0;
#X connect 63 0 72 1;
#X connect 69 0 22 0;
#X connect 71 0 59 0;
#X connect 72 0 64 0;
#X connect 73 0 65 0;
#X coords 0 923 1 922 300 60 0;
