#N canvas 1697 452 565 385 10;
#X obj 102 -1145 soundfiler;
#X obj 233 -1207 float \$0;
#X obj 102 -1190 pack s f;
#X obj 233 -1229 loadbang;
#X obj 102 -1220 receive \$1-filename;
#X obj 102 -1057 send \$1-samplelength;
#X obj -16 -1184 table \$0-tmp;
#X msg 102 -1166 read -resize \$1 \$2-tmp;
#N canvas 492 394 685 630 makeguardpoints 0;
#X obj 28 32 inlet;
#X text 24 10 nr of samples;
#X obj 28 62 trigger bang float float float float float;
#X obj 277 94 + 3;
#X obj 382 145 float \$0;
#X obj 277 122 trigger float bang;
#X obj 277 162 pack f f;
#X msg 277 189 \; \$2-lyden resize \$1;
#X obj 178 340 trigger bang float;
#X msg 178 372 0;
#X obj 283 423 + 1;
#X obj 178 407 tabread \$0-tmp;
#X obj 34 230 trigger bang float;
#X msg 34 262 1;
#X obj 139 301 + 2;
#X obj 34 297 tabread \$0-tmp;
#X obj -114 304 until;
#X msg -114 268 \$1;
#X obj -114 344 float;
#X obj -58 344 + 1;
#X obj -114 232 trigger float bang;
#X obj -114 522 float;
#X obj -114 481 trigger bang float;
#X obj -114 435 trigger float float;
#X msg -59 301 0;
#X obj -9 546 + 1;
#X obj -3 505 tabread \$0-tmp;
#X obj 243 243 trigger float bang;
#X msg 348 287 0;
#X obj 243 273 tabread \$0-tmp;
#X msg -203 124 \; \$1-tmp const 0 \; \$1-tmp resize 0 \;;
#X obj -203 79 float \$0;
#X obj 243 304 tabwrite \$0-lyden;
#X obj 178 450 tabwrite \$0-lyden;
#X obj 34 330 tabwrite \$0-lyden;
#X obj -114 567 tabwrite \$0-lyden;
#X connect 0 0 2 0;
#X connect 2 0 31 0;
#X connect 2 1 20 0;
#X connect 2 2 12 0;
#X connect 2 3 8 0;
#X connect 2 4 27 0;
#X connect 2 5 3 0;
#X connect 3 0 5 0;
#X connect 4 0 6 1;
#X connect 5 0 6 0;
#X connect 5 1 4 0;
#X connect 6 0 7 0;
#X connect 8 0 9 0;
#X connect 8 1 10 0;
#X connect 9 0 11 0;
#X connect 10 0 33 1;
#X connect 11 0 33 0;
#X connect 12 0 13 0;
#X connect 12 1 14 0;
#X connect 13 0 15 0;
#X connect 14 0 34 1;
#X connect 15 0 34 0;
#X connect 16 0 18 0;
#X connect 17 0 16 0;
#X connect 18 0 19 0;
#X connect 18 0 23 0;
#X connect 19 0 18 1;
#X connect 20 0 17 0;
#X connect 20 1 24 0;
#X connect 21 0 35 0;
#X connect 22 0 21 0;
#X connect 22 1 25 0;
#X connect 23 0 22 0;
#X connect 23 1 26 0;
#X connect 24 0 18 1;
#X connect 25 0 35 1;
#X connect 26 0 21 1;
#X connect 27 0 29 0;
#X connect 27 1 28 0;
#X connect 28 0 32 1;
#X connect 29 0 32 0;
#X connect 31 0 30 0;
#X restore 172 -1079 pd makeguardpoints;
#X obj 102 -1079 - 1;
#N canvas 382 498 662 507 automationhub 0;
#X obj 165 71 line;
#X obj 165 98 s \$1-attack;
#X obj 165 16 r \$1-auto-attack;
#X obj 15 40 line;
#X obj 15 17 r \$1-auto-volume;
#X obj 15 67 s \$1-volume;
#X obj 286 71 line;
#X obj 286 16 r \$1-auto-decay;
#X obj 286 98 s \$1-decay;
#X obj 165 44 multiply 2000;
#X obj 286 44 multiply 2000;
#X obj 400 71 line;
#X obj 400 16 r \$1-auto-sustain;
#X obj 400 98 s \$1-sustain;
#X obj 522 73 line;
#X obj 522 46 multiply 2000;
#X obj 522 18 r \$1-auto-release;
#X obj 522 100 s \$1-release;
#X connect 0 0 1 0;
#X connect 2 0 9 0;
#X connect 3 0 5 0;
#X connect 4 0 3 0;
#X connect 6 0 8 0;
#X connect 7 0 10 0;
#X connect 9 0 0 0;
#X connect 10 0 6 0;
#X connect 11 0 13 0;
#X connect 12 0 11 0;
#X connect 14 0 17 0;
#X connect 15 0 14 0;
#X connect 16 0 15 0;
#X restore 99 -1013 pd automationhub;
#X obj 99 -881 throw~ mainoutput;
#N canvas 65 344 681 450 lfoconnections 0;
#X obj 249 -336 select 1;
#X obj 328 -336 select 2;
#X obj 172 -336 select 0;
#X obj 271 -405 receive \$1-lfoconnection;
#X text 208 -424 lfo connection 0=none \, 1=volume \, 2=pitch 3=filter
;
#X obj 418 -336 select 3;
#X msg 515 -136 1;
#X msg 484 -146 0;
#X obj 445 -212 r \$1-lforate;
#X obj 464 -188 r \$1-lfodepth;
#X text -45 -242 TODO: lfo's are running when no notes;
#X msg 320 -139 1;
#X msg 348 -130 0;
#X obj 281 -194 r \$1-lforate;
#X obj 300 -170 r \$1-lfodepth;
#X obj 282 -51 send~ \$1-siglfopitch;
#X msg 177 -148 1;
#X msg 208 -139 0;
#X obj 138 -203 r \$1-lforate;
#X obj 157 -179 r \$1-lfodepth;
#X obj 139 -88 send~ \$1-siglfovolume;
#X obj 444 -90 send~ \$1-siglfofilter;
#X obj 291 -94 send \$1-lfopitchenable;
#X obj 291 -74 send \$1-lfopitchdisable;
#X text -44 -226 TODO: lfo's can output 1-output.;
#X obj 138 -122 siglfo~;
#X obj 281 -113 siglfo~;
#X obj 445 -119 siglfo~;
#X connect 0 0 12 0;
#X connect 0 0 7 0;
#X connect 0 0 16 0;
#X connect 1 0 7 0;
#X connect 1 0 11 0;
#X connect 1 0 17 0;
#X connect 2 0 7 0;
#X connect 2 0 12 0;
#X connect 2 0 17 0;
#X connect 3 0 2 0;
#X connect 3 0 0 0;
#X connect 3 0 1 0;
#X connect 3 0 5 0;
#X connect 5 0 6 0;
#X connect 5 0 12 0;
#X connect 5 0 17 0;
#X connect 6 0 27 2;
#X connect 7 0 27 2;
#X connect 8 0 27 0;
#X connect 9 0 27 1;
#X connect 11 0 22 0;
#X connect 11 0 26 2;
#X connect 12 0 23 0;
#X connect 12 0 26 2;
#X connect 13 0 26 0;
#X connect 14 0 26 1;
#X connect 16 0 25 2;
#X connect 17 0 25 2;
#X connect 18 0 25 0;
#X connect 19 0 25 1;
#X connect 25 0 20 0;
#X connect 26 0 15 0;
#X connect 27 0 21 0;
#X restore 99 -973 pd lfoconnections;
#N canvas 1747 150 672 270 polyconnections 1;
#X obj 280 -656 receive \$1-noteon;
#X obj 361 -612 receive \$1-noteoff;
#X obj 280 -585 multitimbral 5;
#X obj 154 -559 route 0 1 2 3 4;
#X obj 397 -553 route 0 1 2 3 4;
#X obj 320 -635 receive \$1-setavailable;
#X obj -36 -458 s \$1-setavailable;
#X obj 94 -458 s \$1-setavailable;
#X obj 224 -458 s \$1-setavailable;
#X obj 357 -461 s \$1-setavailable;
#X obj 500 -461 s \$1-setavailable;
#X obj -36 -497 playit \$0-lyden \$1;
#X obj 94 -497 playit \$0-lyden \$1;
#X obj 224 -497 playit \$0-lyden \$1;
#X obj 357 -497 playit \$0-lyden \$1;
#X obj 500 -497 playit \$0-lyden \$1;
#X connect 0 0 2 0;
#X connect 1 0 2 2;
#X connect 2 0 3 0;
#X connect 2 1 4 0;
#X connect 3 0 11 0;
#X connect 3 1 12 0;
#X connect 3 2 13 0;
#X connect 3 3 14 0;
#X connect 3 4 15 0;
#X connect 4 0 11 1;
#X connect 4 1 12 1;
#X connect 4 2 13 1;
#X connect 4 3 14 1;
#X connect 4 4 15 1;
#X connect 5 0 2 1;
#X connect 11 0 6 0;
#X connect 12 0 7 0;
#X connect 13 0 8 0;
#X connect 14 0 9 0;
#X connect 15 0 10 0;
#X restore 99 -993 pd polyconnections;
#N canvas 1673 313 1065 470 effects 0;
#X obj 19 27 inlet~;
#X obj 21 327 outlet~;
#N canvas 1965 608 352 216 reverb 0;
#X obj -10 122 pureverb;
#X obj 236 35 switch~;
#X obj 236 11 inlet disable;
#X obj -10 14 catch~ \$0-signal-2;
#X obj -11 179 throw~ \$0-signal-1;
#X obj -2 153 r \$0-set-2;
#X obj 1 35 r \$1-rev-damp;
#X obj 12 57 r \$1-rev-roomsize;
#X obj 23 79 r \$1-rev-dry;
#X obj 35 100 r \$1-rev-wet;
#X connect 0 0 4 0;
#X connect 2 0 1 0;
#X connect 3 0 0 0;
#X connect 5 0 4 0;
#X connect 6 0 0 1;
#X connect 7 0 0 2;
#X connect 8 0 0 3;
#X connect 9 0 0 4;
#X restore 331 278 pd reverb;
#N canvas 1861 652 345 189 delay 0;
#X obj 7 105 johsdelay;
#X obj 248 47 switch~;
#X obj 248 19 inlet disable;
#X obj 8 156 throw~ \$0-signal-1;
#X obj 8 14 catch~ \$0-signal-3;
#X obj 16 130 r \$0-set-3;
#X obj 24 37 r \$1-del-delay;
#X obj 41 59 r \$1-del-feedback;
#X obj 58 80 r \$1-del-wet;
#X connect 0 0 3 0;
#X connect 2 0 1 0;
#X connect 4 0 0 0;
#X connect 5 0 3 0;
#X connect 6 0 0 1;
#X connect 7 0 0 2;
#X connect 8 0 0 3;
#X restore 549 276 pd delay;
#X obj 33 77 list-filter;
#X obj 122 78 > 0;
#X msg 414 344 2;
#X obj 383 322 list;
#X obj 395 278 t b b f;
#X obj 290 364 loadbang;
#X obj 594 320 list;
#X obj 606 276 t b b f;
#X obj 594 367 listenabler;
#X msg 625 342 3;
#X obj 302 110 list;
#X msg 332 109 2;
#X obj 33 108 list append 1;
#X msg 372 110 0;
#X obj 322 62 t b b b;
#X obj 426 113 list;
#X msg 456 112 2;
#X obj 446 65 t b b b;
#X msg 496 112 1;
#X obj 304 136 listmover;
#X obj 674 116 list;
#X obj 694 68 t b b b;
#X msg 744 115 1;
#X msg 704 115 3;
#X obj 558 114 list;
#X obj 578 66 t b b b;
#X msg 588 113 3;
#X msg 628 113 0;
#X obj 383 369 listenabler;
#X obj 428 139 listmover;
#X obj 676 142 listmover;
#X obj 560 140 listmover;
#X obj 33 134 unpack f;
#N canvas 1728 350 338 444 repatch 0;
#X obj 203 11 inlet;
#X obj 179 116 list-seek;
#X obj 151 394 send;
#X obj 179 154 t b f;
#X obj 72 262 list-seek;
#X obj 203 45 t b l l;
#X obj 22 201 t b l;
#X msg 22 228 set 1;
#X obj 72 303 t b f;
#X obj 99 330 pack f \$0;
#X msg 99 355 set \$2-signal-\$1;
#X obj 206 330 pack f \$0;
#X msg 206 355 symbol \$2-set-\$1;
#X obj 127 75 r \$0-doagain;
#X obj 13 355 s \$0-doagain;
#X obj 22 174 r \$0-nextlist;
#X obj 252 79 s \$0-nextlist;
#X connect 0 0 5 0;
#X connect 1 0 3 0;
#X connect 3 0 4 0;
#X connect 3 1 11 0;
#X connect 4 0 8 0;
#X connect 5 0 1 0;
#X connect 5 1 1 1;
#X connect 5 2 16 0;
#X connect 6 0 7 0;
#X connect 6 1 4 1;
#X connect 7 0 4 0;
#X connect 8 0 14 0;
#X connect 8 1 9 0;
#X connect 9 0 10 0;
#X connect 10 0 2 0;
#X connect 11 0 12 0;
#X connect 12 0 2 1;
#X connect 13 0 1 0;
#X connect 15 0 6 0;
#X restore 91 135 pd repatch;
#N canvas 1894 480 334 218 flanger 0;
#X obj 30 114 johsflanger;
#X obj 238 15 switch~;
#X obj 238 -13 inlet disable;
#X obj 29 173 throw~ \$0-signal-1;
#X obj 30 -8 catch~ \$0-signal-4;
#X obj 39 141 r \$0-set-4;
#X obj 45 20 r \$1-flg-speed;
#X obj 61 44 r \$1-flg-offset;
#X obj 77 68 r \$1-flg-delay;
#X obj 93 91 r \$1-flg-feedback;
#X connect 0 0 3 0;
#X connect 2 0 1 0;
#X connect 4 0 0 0;
#X connect 5 0 3 0;
#X connect 6 0 0 1;
#X connect 7 0 0 2;
#X connect 8 0 0 3;
#X connect 9 0 0 4;
#X restore 770 279 pd flanger;
#X obj 828 323 list;
#X obj 840 279 t b b f;
#X obj 828 370 listenabler;
#X msg 859 345 4;
#X msg 290 385 list -2 -3 -4;
#X obj 923 119 list;
#X obj 943 71 t b b b;
#X msg 993 118 1;
#X obj 805 117 list;
#X obj 825 69 t b b b;
#X msg 875 116 0;
#X obj 925 145 listmover;
#X obj 807 143 listmover;
#X msg 835 116 4;
#X msg 953 118 4;
#X obj 20 295 catch~ \$0-signal-1;
#X obj 33 164 pack f \$0;
#X msg 33 192 set \$2-signal-\$1;
#X obj 322 36 r \$1-rev-moveup;
#X obj 446 36 r \$1-rev-movedown;
#X obj 578 36 r \$1-del-moveup;
#X obj 694 36 r \$1-del-movedown;
#X obj 825 36 r \$1-flg-moveup;
#X obj 943 36 r \$1-flg-movedown;
#X obj 395 242 r \$1-rev-enable;
#X obj 606 245 r \$1-del-enable;
#X obj 840 250 r \$1-flg-enable;
#X obj 20 219 throw~ \$0-signal-1;
#X obj 323 89 r \$0-list;
#X obj 447 92 r \$0-list;
#X obj 579 93 r \$0-list;
#X obj 695 95 r \$0-list;
#X obj 826 96 r \$0-list;
#X obj 944 98 r \$0-list;
#X obj 304 164 s \$0-list;
#X obj 428 168 s \$0-list;
#X obj 560 168 s \$0-list;
#X obj 676 170 s \$0-list;
#X obj 807 171 s \$0-list;
#X obj 925 173 s \$0-list;
#X obj 404 301 r \$0-list;
#X obj 615 299 r \$0-list;
#X obj 849 302 r \$0-list;
#X obj 383 402 s \$0-list;
#X obj 594 400 s \$0-list;
#X obj 828 403 s \$0-list;
#X obj 33 52 r \$0-list;
#N canvas 1906 410 482 499 makefxlist 0;
#X obj 47 10 inlet;
#X obj 23 133 list-seek;
#X obj 47 101 t b l;
#X obj 23 76 r \$0-fxagain;
#X obj 23 162 t b f;
#X obj 23 198 s \$0-fxagain;
#X msg 50 449 list (reverb) (delay) (flanger);
#X obj 47 38 t l b;
#X obj 135 384 r \$0-clear;
#X obj 116 55 s \$0-clear;
#X obj 50 347 list-seek;
#X obj 50 227 t f f;
#X obj 77 253 moses 0;
#X obj 50 297 - 2;
#X obj 50 265 abs;
#X msg 101 306 list (reverb) (delay) (flanger);
#X msg 316 306 list reverb delay flanger;
#X msg 50 383 add2 \$1;
#X msg 135 405 set list;
#X obj 74 162 s \$0-fxlistfinished;
#X obj 135 426 r \$0-fxlistfinished;
#X obj 50 475 s \$1-fxlist;
#X connect 0 0 7 0;
#X connect 1 0 4 0;
#X connect 1 1 19 0;
#X connect 2 0 1 0;
#X connect 2 1 1 1;
#X connect 3 0 1 0;
#X connect 4 0 5 0;
#X connect 4 1 11 0;
#X connect 6 0 21 0;
#X connect 7 0 2 0;
#X connect 7 1 9 0;
#X connect 8 0 18 0;
#X connect 10 0 17 0;
#X connect 11 0 14 0;
#X connect 11 1 12 0;
#X connect 12 0 15 0;
#X connect 12 1 16 0;
#X connect 13 0 10 0;
#X connect 14 0 13 0;
#X connect 15 0 10 1;
#X connect 16 0 10 1;
#X connect 17 0 6 0;
#X connect 18 0 6 0;
#X connect 20 0 6 0;
#X restore 152 69 pd makefxlist;
#X connect 0 0 66 0;
#X connect 4 0 16 0;
#X connect 4 1 5 0;
#X connect 5 0 4 1;
#X connect 6 0 32 1;
#X connect 7 0 32 0;
#X connect 8 0 7 0;
#X connect 8 1 6 0;
#X connect 8 2 32 2;
#X connect 9 0 43 0;
#X connect 10 0 12 0;
#X connect 11 0 10 0;
#X connect 11 1 13 0;
#X connect 11 2 12 2;
#X connect 12 0 83 0;
#X connect 13 0 12 1;
#X connect 14 0 23 0;
#X connect 15 0 23 1;
#X connect 16 0 36 0;
#X connect 16 0 37 0;
#X connect 17 0 23 2;
#X connect 18 0 14 0;
#X connect 18 1 15 0;
#X connect 18 2 17 0;
#X connect 19 0 33 0;
#X connect 20 0 33 1;
#X connect 21 0 19 0;
#X connect 21 1 20 0;
#X connect 21 2 22 0;
#X connect 22 0 33 2;
#X connect 23 0 73 0;
#X connect 24 0 34 0;
#X connect 25 0 24 0;
#X connect 25 1 27 0;
#X connect 25 2 26 0;
#X connect 26 0 34 2;
#X connect 27 0 34 1;
#X connect 28 0 35 0;
#X connect 29 0 28 0;
#X connect 29 1 30 0;
#X connect 29 2 31 0;
#X connect 30 0 35 1;
#X connect 31 0 35 2;
#X connect 32 0 82 0;
#X connect 33 0 74 0;
#X connect 34 0 76 0;
#X connect 35 0 75 0;
#X connect 36 0 55 0;
#X connect 39 0 41 0;
#X connect 40 0 39 0;
#X connect 40 1 42 0;
#X connect 40 2 41 2;
#X connect 41 0 84 0;
#X connect 42 0 41 1;
#X connect 43 0 82 0;
#X connect 44 0 50 0;
#X connect 45 0 44 0;
#X connect 45 1 53 0;
#X connect 45 2 46 0;
#X connect 46 0 50 2;
#X connect 47 0 51 0;
#X connect 48 0 47 0;
#X connect 48 1 52 0;
#X connect 48 2 49 0;
#X connect 49 0 51 2;
#X connect 50 0 78 0;
#X connect 51 0 77 0;
#X connect 52 0 51 1;
#X connect 53 0 50 1;
#X connect 54 0 1 0;
#X connect 55 0 56 0;
#X connect 56 0 66 0;
#X connect 57 0 18 0;
#X connect 58 0 21 0;
#X connect 59 0 29 0;
#X connect 60 0 25 0;
#X connect 61 0 48 0;
#X connect 62 0 45 0;
#X connect 63 0 2 0;
#X connect 63 0 8 0;
#X connect 64 0 3 0;
#X connect 64 0 11 0;
#X connect 65 0 38 0;
#X connect 65 0 40 0;
#X connect 67 0 14 1;
#X connect 68 0 19 1;
#X connect 69 0 28 1;
#X connect 70 0 24 1;
#X connect 71 0 47 1;
#X connect 72 0 44 1;
#X connect 79 0 7 1;
#X connect 80 0 10 1;
#X connect 81 0 39 1;
#X connect 85 0 4 0;
#X connect 85 0 86 0;
#X restore 100 -915 pd effects;
#X obj 99 -951 catch~ \$1-instrumentoutput;
#X obj 333 -1220 receive \$1-tabwrite;
#X obj 420 -1197 receive \$1-tabindex;
#X obj 330 -1125 receive \$1-resize;
#X obj 401 -1080 float \$0;
#X obj 401 -1102 loadbang;
#X obj 330 -1063 pack f f;
#X obj 145 -1122 receive \$1-makeguardpoints;
#X obj 333 -1173 tabwrite \$0-tmp;
#X msg 330 -1037 \; \$2-tmp resize \$1;
#X obj 145 -1101 t f f;
#X obj -17 -1218 table \$0-lyden;
#X obj -16 -1138 table \$1-params;
#X connect 0 0 8 0;
#X connect 0 0 9 0;
#X connect 1 0 2 1;
#X connect 2 0 7 0;
#X connect 3 0 1 0;
#X connect 4 0 2 0;
#X connect 7 0 0 0;
#X connect 9 0 5 0;
#X connect 14 0 11 0;
#X connect 15 0 14 0;
#X connect 16 0 23 0;
#X connect 17 0 23 1;
#X connect 18 0 21 0;
#X connect 19 0 21 1;
#X connect 20 0 19 0;
#X connect 21 0 24 0;
#X connect 22 0 25 0;
#X connect 25 0 9 0;
#X connect 25 1 8 0;
#X coords 0 385 1 384 300 60 0;
