#N canvas 2863 344 708 800 10;
#N canvas 1370 337 709 848 automationhub 0;
#X obj 12 11 autoline \$1 samplerparams 9 attack;
#X obj 12 31 autoline \$1 samplerparams 10 decay;
#X obj 12 51 autoline \$1 samplerparams 11 sustain;
#X obj 12 71 autoline \$1 samplerparams 12 release;
#X obj 12 91 autoline \$1 samplerparams 13 lforate;
#X obj 12 111 autoline \$1 samplerparams 14 lfodepth;
#X obj 12 131 autoline \$1 samplerparams 16 filtercutoff;
#X obj 12 151 autoline \$1 samplerparams 18 filterattack;
#X obj 12 171 autoline \$1 samplerparams 19 filterdecay;
#X obj 12 191 autoline \$1 samplerparams 20 filtersustain;
#X obj 12 211 autoline \$1 samplerparams 21 filterrelease;
#X obj 296 376 autoline \$1 fxparams 22 fxfilter-freq;
#X obj 296 397 autoline \$1 fxparams 23 fxfilter-q;
#X obj 296 436 autoline \$1 fxparams 25 3eq-lowgain;
#X obj 296 456 autoline \$1 fxparams 26 3eq-midgain;
#X obj 296 476 autoline \$1 fxparams 27 3eq-midfreq;
#X obj 296 496 autoline \$1 fxparams 28 3eq-midbw;
#X obj 296 516 autoline \$1 fxparams 29 3eq-highgain;
#X obj 296 551 autoline \$1 fxparams 31 tremolo-rate;
#X obj 296 571 autoline \$1 fxparams 32 tremolo-smooth;
#X obj 296 591 autoline \$1 fxparams 33 tremolo-depth;
#X obj 296 98 autoline \$1 fxparams 6 del-delay;
#X obj 296 118 autoline \$1 fxparams 7 del-feedback;
#X obj 296 138 autoline \$1 fxparams 8 del-wet;
#X obj 296 158 autoline \$1 fxparams 9 del-spread;
#X obj 296 189 autoline \$1 fxparams 11 flg-freq;
#X obj 296 209 autoline \$1 fxparams 12 flg-width;
#X obj 296 229 autoline \$1 fxparams 13 flg-feedback;
#X obj 296 249 autoline \$1 fxparams 14 flg-wet;
#X obj 296 282 autoline \$1 fxparams 16 chorus-depth;
#X obj 296 302 autoline \$1 fxparams 17 chorus-speed;
#X obj 296 322 autoline \$1 fxparams 18 chorus-spread;
#X obj 296 342 autoline \$1 fxparams 19 chorus-wet;
#X obj 296 11 autoline \$1 fxparams 1 rev-damp;
#X obj 296 31 autoline \$1 fxparams 2 rev-roomsize;
#X obj 296 51 autoline \$1 fxparams 3 rev-spread;
#X obj 296 71 autoline \$1 fxparams 4 rev-wet;
#X obj 296 629 autoline \$1 fxparams 35 gainer-gain;
#X obj 296 649 autoline \$1 fxparams 36 gainer-pan;
#X obj 296 697 autoline \$1 fxparams 38 bitcrusher-crush;
#X obj 296 717 autoline \$1 fxparams 39 bitcrusher-rate;
#X obj 296 737 autoline \$1 fxparams 40 bitcrusher-noise;
#X obj 296 758 autoline \$1 fxparams 41 bitcrusher-mix;
#X obj 296 794 autoline \$1 fxparams 43 distortion-drive;
#X obj 296 814 autoline \$1 fxparams 44 distortion-fuzziness;
#X obj 295 834 autoline \$1 fxparams 45 distortion-fuzzfreq;
#X obj 295 855 autoline \$1 fxparams 46 distortion-postgain;
#X obj 295 876 autoline \$1 fxparams 47 distortion-mix;
#X restore 159 346 pd automationhub;
#N canvas 1731 170 681 397 lfoconnections 0;
#X obj 296 97 select 1;
#X obj 375 97 select 2;
#X obj 219 97 select 0;
#X obj 318 28 receive \$1-lfoconnection;
#X text 255 9 lfo connection 0=none \, 1=volume \, 2=pitch 3=filter
;
#X obj 465 97 select 3;
#X msg 588 297 1;
#X msg 557 287 0;
#X obj 518 221 r \$1-lforate;
#X obj 541 245 r \$1-lfodepth;
#X text 7 32 TODO: lfo's are running when no notes;
#X msg 341 272 1;
#X msg 375 281 0;
#X obj 308 217 r \$1-lforate;
#X obj 331 241 r \$1-lfodepth;
#X obj 309 360 send~ \$1-siglfopitch;
#X msg 188 285 1;
#X msg 219 294 0;
#X obj 149 230 r \$1-lforate;
#X obj 172 254 r \$1-lfodepth;
#X obj 150 345 send~ \$1-siglfovolume;
#X obj 517 343 send~ \$1-siglfofilter;
#X obj 370 333 send \$1-lfopitchenable;
#X text 8 48 TODO: lfo's can output 1-output.;
#X obj 149 311 siglfo~;
#X obj 308 319 siglfo~;
#X obj 518 314 siglfo~;
#X connect 0 0 12 0;
#X connect 0 0 7 0;
#X connect 0 0 16 0;
#X connect 1 0 7 0;
#X connect 1 0 11 0;
#X connect 1 0 17 0;
#X connect 2 0 7 0;
#X connect 2 0 12 0;
#X connect 2 0 17 0;
#X connect 3 0 2 0;
#X connect 3 0 0 0;
#X connect 3 0 1 0;
#X connect 3 0 5 0;
#X connect 5 0 6 0;
#X connect 5 0 12 0;
#X connect 5 0 17 0;
#X connect 6 0 26 2;
#X connect 7 0 26 2;
#X connect 8 0 26 0;
#X connect 9 0 26 1;
#X connect 11 0 22 0;
#X connect 11 0 25 2;
#X connect 12 0 25 2;
#X connect 12 0 22 0;
#X connect 13 0 25 0;
#X connect 14 0 25 1;
#X connect 16 0 24 2;
#X connect 17 0 24 2;
#X connect 18 0 24 0;
#X connect 19 0 24 1;
#X connect 24 0 20 0;
#X connect 25 0 15 0;
#X connect 26 0 21 0;
#X restore 159 386 pd lfoconnections;
#X obj 164 456 catch~ \$1-instrumentoutput;
#X obj 466 47 receive \$1-tabwrite;
#X obj 553 70 receive \$1-tabindex;
#X obj 464 142 receive \$1-resize;
#X obj 535 164 loadbang;
#X msg 464 230 \; \$2-tmp resize \$1;
#X obj 34 49 table \$1-wave;
#N canvas 1792 477 202 100 paramwriters 0;
#X obj 8 30 fxparamwriters \$1;
#N canvas 293 241 498 538 samplerparamwriters 0;
#X obj 136 12 table \$1-samplerparams;
#X obj 11 84 r \$1-rootnote;
#X obj 11 126 r \$1-finetune;
#X obj 11 170 r \$1-samplestart;
#X obj 11 214 r \$1-sampleend;
#X obj 10 305 r \$1-loopstart;
#X obj 11 352 r \$1-loopend;
#X obj 10 261 r \$1-samplelength;
#X obj 11 395 r \$1-loopon;
#X obj 12 438 r \$1-attack;
#X obj 12 478 r \$1-decay;
#X obj 251 41 r \$1-sustain;
#X obj 251 84 r \$1-release;
#X obj 251 125 r \$1-lforate;
#X obj 251 166 r \$1-lfodepth;
#X obj 251 209 r \$1-lfoconnection;
#X obj 250 252 r \$1-filtercutoff;
#X obj 249 295 r \$1-filterselect;
#X obj 250 336 r \$1-filterattack;
#X obj 249 378 r \$1-filterdecay;
#X obj 249 421 r \$1-filtersustain;
#X obj 249 463 r \$1-filterrelease;
#X obj 11 62 paramwriter \$1-samplerparams 0;
#X obj 11 41 r \$1-samplerate;
#X obj 11 105 paramwriter \$1-samplerparams 1;
#X obj 11 147 paramwriter \$1-samplerparams 2;
#X obj 11 191 paramwriter \$1-samplerparams 3;
#X obj 11 235 paramwriter \$1-samplerparams 4;
#X obj 10 283 paramwriter \$1-samplerparams 5;
#X obj 10 326 paramwriter \$1-samplerparams 6;
#X obj 11 371 paramwriter \$1-samplerparams 7;
#X obj 11 414 paramwriter \$1-samplerparams 8;
#X obj 12 457 paramwriter \$1-samplerparams 9;
#X obj 12 499 paramwriter \$1-samplerparams 10;
#X obj 251 62 paramwriter \$1-samplerparams 11;
#X obj 251 105 paramwriter \$1-samplerparams 12;
#X obj 251 145 paramwriter \$1-samplerparams 13;
#X obj 251 186 paramwriter \$1-samplerparams 14;
#X obj 251 229 paramwriter \$1-samplerparams 15;
#X obj 250 273 paramwriter \$1-samplerparams 16;
#X obj 249 315 paramwriter \$1-samplerparams 17;
#X obj 250 356 paramwriter \$1-samplerparams 18;
#X obj 249 398 paramwriter \$1-samplerparams 19;
#X obj 249 441 paramwriter \$1-samplerparams 20;
#X obj 249 483 paramwriter \$1-samplerparams 21;
#X connect 1 0 24 0;
#X connect 2 0 25 0;
#X connect 3 0 26 0;
#X connect 4 0 27 0;
#X connect 5 0 29 0;
#X connect 6 0 30 0;
#X connect 7 0 28 0;
#X connect 8 0 31 0;
#X connect 9 0 32 0;
#X connect 10 0 33 0;
#X connect 11 0 34 0;
#X connect 12 0 35 0;
#X connect 13 0 36 0;
#X connect 14 0 37 0;
#X connect 15 0 38 0;
#X connect 16 0 39 0;
#X connect 17 0 40 0;
#X connect 18 0 41 0;
#X connect 19 0 42 0;
#X connect 20 0 43 0;
#X connect 21 0 44 0;
#X connect 23 0 22 0;
#X restore 8 10 pd samplerparamwriters;
#X obj 8 50 mixerparamwriters \$1;
#X restore 285 346 pd paramwriters;
#X obj 35 83 table \$1-tmp;
#X obj 535 186 symbol \$1;
#X obj 464 204 pack f s;
#X obj 466 94 tabwrite \$1-tmp;
#N canvas 2621 321 1060 562 polyconnections 0;
#X obj 413 14 receive \$1-noteon;
#X obj 502 61 receive \$1-noteoff;
#X obj 502 83 pack 0 0;
#X obj 36 391 playit \$1-wave \$1;
#X obj 394 241 spigot;
#X obj 545 241 spigot;
#X obj 475 181 moses 1;
#X msg 584 216 0;
#X msg 427 216 0;
#X msg 554 216 1;
#X obj 394 181 pack f f f;
#N canvas 1827 572 312 154 sendnoteon 0;
#X obj 7 10 inlet;
#X obj 7 59 symbol \$1;
#X msg 75 56 \$2;
#X obj 7 30 t b l;
#X obj 7 108 s libpdhost-sustainednoteon;
#X msg 106 56 \$3;
#X obj 7 87 pack s f f;
#X connect 0 0 3 0;
#X connect 1 0 6 0;
#X connect 2 0 6 1;
#X connect 3 0 1 0;
#X connect 3 1 2 0;
#X connect 3 1 5 0;
#X connect 5 0 6 2;
#X connect 6 0 4 0;
#X restore 401 263 pd sendnoteon;
#N canvas 1967 430 322 146 sendnoteoff 0;
#X obj 7 10 inlet;
#X obj 7 50 symbol \$1;
#X msg 81 50 \$2;
#X obj 7 30 t b l;
#X obj 7 93 s libpdhost-sustainednoteoff;
#X msg 123 49 \$3;
#X obj 7 72 pack s f f;
#X connect 0 0 3 0;
#X connect 1 0 6 0;
#X connect 2 0 6 1;
#X connect 3 0 1 0;
#X connect 3 1 2 0;
#X connect 3 1 5 0;
#X connect 5 0 6 2;
#X connect 6 0 4 0;
#X restore 552 263 pd sendnoteoff;
#X msg 483 124 clear;
#X obj 627 42 r \$1-stopnotes;
#X obj 162 391 playit \$1-wave \$1;
#X obj 288 391 playit \$1-wave \$1;
#X obj 415 391 playit \$1-wave \$1;
#X obj 544 391 playit \$1-wave \$1;
#X obj 669 388 playit \$1-wave \$1;
#X obj 795 388 playit \$1-wave \$1;
#X obj 921 388 playit \$1-wave \$1;
#X obj 394 300 route 1 2 3 4 5 6 7 8;
#X obj 545 300 route 1 2 3 4 5 6 7 8;
#X obj 413 155 poly 8 1;
#X obj 413 37 t l l;
#X msg 440 60 \$1;
#X obj 440 81 pack f 0;
#X obj 791 40 r stopallnotes;
#X obj 791 64 s \$1-stopnotes;
#X obj 654 138 s \$1-noteoff;
#X obj 627 87 t b b;
#N canvas 2078 579 356 178 notesloop 0;
#X obj 25 19 inlet;
#X obj 25 131 outlet;
#X obj 25 72 until;
#X obj 115 97 sel 0;
#X obj 25 99 f;
#X obj 56 99 + 1;
#X obj 115 59 mod 128;
#X obj 25 50 bng 15 250 50 0 empty empty empty 17 7 0 10 #fcfcfc #000000
#000000;
#X connect 0 0 7 0;
#X connect 2 0 4 0;
#X connect 3 0 2 1;
#X connect 4 0 5 0;
#X connect 4 0 1 0;
#X connect 5 0 4 1;
#X connect 5 0 6 0;
#X connect 6 0 3 0;
#X connect 6 0 4 1;
#X connect 7 0 2 0;
#X restore 654 112 pd notesloop;
#X obj 525 483 s \$1-noteoff;
#X connect 0 0 25 0;
#X connect 1 0 2 0;
#X connect 2 0 24 0;
#X connect 4 0 11 0;
#X connect 4 0 22 0;
#X connect 5 0 12 0;
#X connect 5 0 23 0;
#X connect 6 0 8 0;
#X connect 6 0 9 0;
#X connect 6 1 7 0;
#X connect 6 1 4 1;
#X connect 7 0 5 1;
#X connect 8 0 4 1;
#X connect 9 0 5 1;
#X connect 10 0 4 0;
#X connect 10 0 5 0;
#X connect 13 0 24 0;
#X connect 14 0 31 0;
#X connect 22 0 3 0;
#X connect 22 1 15 0;
#X connect 22 2 16 0;
#X connect 22 3 17 0;
#X connect 22 4 18 0;
#X connect 22 5 19 0;
#X connect 22 6 20 0;
#X connect 22 7 21 0;
#X connect 23 0 3 1;
#X connect 23 1 15 1;
#X connect 23 2 16 1;
#X connect 23 3 17 1;
#X connect 23 4 18 1;
#X connect 23 5 19 1;
#X connect 23 6 20 1;
#X connect 23 7 21 1;
#X connect 24 0 10 0;
#X connect 24 1 10 1;
#X connect 24 2 6 0;
#X connect 24 2 10 2;
#X connect 25 0 24 0;
#X connect 25 1 26 0;
#X connect 26 0 27 0;
#X connect 27 0 24 0;
#X connect 28 0 29 0;
#X connect 31 0 13 0;
#X connect 31 1 32 0;
#X connect 32 0 30 0;
#X restore 159 366 pd polyconnections;
#X obj 164 513 pan;
#X obj 152 749 throw~ mainoutputL;
#X obj 190 725 throw~ mainoutputR;
#X obj 182 492 r \$1-pan;
#X obj 34 127 loadbang;
#X obj 34 146 48;
#X obj 34 165 s \$1-rootnote;
#X obj 34 210 loadbang;
#X obj 34 248 s \$1-samplerate;
#X obj 34 229 44100;
#X obj 130 553 effectschain~ \$1;
#X obj 184 110 soundfiler;
#X obj 328 25 loadbang;
#X obj 184 35 receive \$1-filename;
#N canvas 457 257 686 630 makeguardpoints 0;
#X obj 256 38 inlet;
#X text 252 16 nr of samples;
#X obj 256 68 trigger bang float float float float float;
#X obj 505 100 + 3;
#X obj 505 128 trigger float bang;
#X obj 406 346 trigger bang float;
#X msg 406 378 0;
#X obj 511 429 + 1;
#X obj 262 236 trigger bang float;
#X msg 262 268 1;
#X obj 367 307 + 2;
#X obj 114 310 until;
#X msg 114 274 \$1;
#X obj 114 350 float;
#X obj 170 350 + 1;
#X obj 114 238 trigger float bang;
#X obj 114 528 float;
#X obj 114 487 trigger bang float;
#X obj 114 441 trigger float float;
#X msg 169 307 0;
#X obj 219 552 + 1;
#X obj 471 249 trigger float bang;
#X msg 576 293 0;
#X msg 25 130 \; \$1-tmp const 0 \; \$1-tmp resize 0 \;;
#X obj 610 151 symbol \$1;
#X obj 505 168 pack f s;
#X obj 114 573 tabwrite \$1-wave;
#X obj 406 456 tabwrite \$1-wave;
#X obj 471 310 tabwrite \$1-wave;
#X msg 505 195 \; \$2-wave resize \$1;
#X obj 262 336 tabwrite \$1-wave;
#X obj 225 511 tabread \$1-tmp;
#X obj 262 303 tabread \$1-tmp;
#X obj 406 413 tabread \$1-tmp;
#X obj 471 279 tabread \$1-tmp;
#X obj 25 85 symbol \$1;
#X connect 0 0 2 0;
#X connect 2 0 35 0;
#X connect 2 1 15 0;
#X connect 2 2 8 0;
#X connect 2 3 5 0;
#X connect 2 4 21 0;
#X connect 2 5 3 0;
#X connect 3 0 4 0;
#X connect 4 0 25 0;
#X connect 4 1 24 0;
#X connect 5 0 6 0;
#X connect 5 1 7 0;
#X connect 6 0 33 0;
#X connect 7 0 27 1;
#X connect 8 0 9 0;
#X connect 8 1 10 0;
#X connect 9 0 32 0;
#X connect 10 0 30 1;
#X connect 11 0 13 0;
#X connect 12 0 11 0;
#X connect 13 0 14 0;
#X connect 13 0 18 0;
#X connect 14 0 13 1;
#X connect 15 0 12 0;
#X connect 15 1 19 0;
#X connect 16 0 26 0;
#X connect 17 0 16 0;
#X connect 17 1 20 0;
#X connect 18 0 17 0;
#X connect 18 1 31 0;
#X connect 19 0 13 1;
#X connect 20 0 26 1;
#X connect 21 0 34 0;
#X connect 21 1 22 0;
#X connect 22 0 28 1;
#X connect 24 0 25 1;
#X connect 25 0 29 0;
#X connect 31 0 16 1;
#X connect 32 0 30 0;
#X connect 33 0 27 0;
#X connect 34 0 28 0;
#X connect 35 0 23 0;
#X restore 235 198 pd makeguardpoints;
#X obj 201 219 - 1;
#X obj 190 155 receive \$1-makeguardpoints;
#X obj 328 47 symbol \$1;
#X obj 184 65 pack s s;
#X obj 201 260 s \$1-sampleend;
#X obj 215 240 s \$1-loopend;
#X obj 230 219 s \$1-samplelength;
#X obj 184 177 t b f f f;
#X obj 169 220 0;
#X obj 169 282 s \$1-loopstart;
#X obj 146 303 s \$1-samplestart;
#X msg 184 89 read -resize \$1 \$2-tmp;
#X msg 258 112 \$1;
#X obj 258 134 s \$1-samplerate;
#N canvas 719 872 450 300 mute 0;
#X obj 110 41 inlet~;
#X obj 192 41 inlet~;
#X obj 252 33 r \$1-mute;
#X msg 252 74 \$1 50;
#X obj 252 107 line~;
#X obj 109 150 *~;
#X obj 193 150 *~;
#X obj 324 44 loadbang;
#X msg 324 68 1 0;
#X obj 252 53 expr 1-$i1;
#X obj 108 211 outlet~;
#X obj 192 211 outlet~;
#X connect 0 0 5 0;
#X connect 1 0 6 0;
#X connect 2 0 9 0;
#X connect 3 0 4 0;
#X connect 4 0 5 1;
#X connect 4 0 6 1;
#X connect 5 0 10 0;
#X connect 6 0 11 0;
#X connect 7 0 8 0;
#X connect 8 0 4 0;
#X connect 9 0 3 0;
#X restore 152 679 pd mute;
#N canvas 1461 642 412 356 volume 0;
#X obj 30 42 inlet~;
#X obj 160 42 inlet~;
#X obj 31 237 *~;
#X msg 174 145 \$1 50;
#X obj 229 136 loadbang;
#X msg 229 157 1 0;
#X obj 174 89 receive \$1-volume;
#X obj 174 108 logvolume -50 0;
#X obj 174 188 line~;
#X obj 159 237 *~;
#X obj 30 282 outlet~;
#X obj 158 282 outlet~;
#X connect 0 0 2 0;
#X connect 1 0 9 0;
#X connect 2 0 10 0;
#X connect 3 0 8 0;
#X connect 4 0 5 0;
#X connect 5 0 8 0;
#X connect 6 0 7 0;
#X connect 7 0 3 0;
#X connect 8 0 2 1;
#X connect 8 0 9 1;
#X connect 9 0 11 0;
#X restore 146 615 pd volume;
#N canvas 2670 233 448 300 waveplayback 1;
#X obj 37 186 playit \$1-wave \$1 1;
#X obj 37 111 tabread \$1-samplerparams;
#X obj 37 88 1;
#X obj 37 161 pack f f;
#X obj 198 111 127;
#X obj 37 54 trigger bang bang;
#X obj 148 157 r \$1-waveplaybackstop;
#X obj 37 27 r \$1-waveplaybackstart;
#X connect 1 0 3 0;
#X connect 2 0 1 0;
#X connect 3 0 0 0;
#X connect 4 0 3 1;
#X connect 5 0 2 0;
#X connect 5 1 4 0;
#X connect 6 0 0 1;
#X connect 7 0 5 0;
#X restore 285 367 pd waveplayback;
#X connect 2 0 15 0;
#X connect 3 0 13 0;
#X connect 4 0 13 1;
#X connect 5 0 12 0;
#X connect 6 0 11 0;
#X connect 11 0 12 1;
#X connect 12 0 7 0;
#X connect 15 0 25 0;
#X connect 15 1 25 1;
#X connect 18 0 15 1;
#X connect 19 0 20 0;
#X connect 20 0 21 0;
#X connect 22 0 24 0;
#X connect 24 0 23 0;
#X connect 25 0 45 0;
#X connect 25 1 45 1;
#X connect 26 0 37 0;
#X connect 26 1 42 0;
#X connect 27 0 32 0;
#X connect 28 0 33 0;
#X connect 30 0 34 0;
#X connect 30 0 35 0;
#X connect 31 0 37 0;
#X connect 32 0 33 1;
#X connect 33 0 41 0;
#X connect 37 0 38 0;
#X connect 37 1 30 0;
#X connect 37 2 36 0;
#X connect 37 3 29 0;
#X connect 38 0 39 0;
#X connect 38 0 40 0;
#X connect 41 0 26 0;
#X connect 42 0 43 0;
#X connect 44 0 16 0;
#X connect 44 1 17 0;
#X connect 45 0 44 0;
#X connect 45 1 44 1;
#X coords 0 800 1 799 300 60 0;
