#N canvas 1624 82 1254 923 10;
#X obj 214 -504 soundfiler;
#X obj 95 -578 table \$0-lyden;
#X obj 345 -566 float \$0;
#X obj 214 -549 pack s f;
#X obj 345 -588 loadbang;
#X obj 214 -579 receive \$1-filename;
#X msg 214 -525 read -resize \$1 \$2-lyden;
#X obj -123 -299 moses 1;
#X obj -61 -271 moses 1;
#X obj 0 -243 moses 1;
#X obj 58 -215 moses 1;
#X obj 120 -188 moses 1;
#X obj 178 -163 moses 1;
#X obj -123 -331 == 1;
#X obj -61 -332 == 2;
#X obj 0 -330 == 3;
#X obj 58 -330 == 4;
#X obj 120 -330 == 5;
#X obj 178 -330 == 6;
#X obj 240 -136 moses 1;
#X obj 298 -107 moses 1;
#X obj 240 -329 == 7;
#X obj 298 -329 == 8;
#X obj 214 -479 send \$1-samplelength;
#X obj 399 -282 playit \$0-lyden 1 \$1;
#X obj 98 -435 receive \$1-noteon;
#X obj 613 -299 moses 1;
#X obj 675 -271 moses 1;
#X obj 736 -243 moses 1;
#X obj 794 -215 moses 1;
#X obj 856 -188 moses 1;
#X obj 914 -163 moses 1;
#X obj 613 -331 == 1;
#X obj 675 -332 == 2;
#X obj 736 -330 == 3;
#X obj 794 -330 == 4;
#X obj 856 -330 == 5;
#X obj 914 -330 == 6;
#X obj 976 -136 moses 1;
#X obj 1034 -107 moses 1;
#X obj 976 -329 == 7;
#X obj 1034 -329 == 8;
#X obj 834 -435 receive \$1-noteoff;
#X obj 261 207 ctllfo;
#X msg 267 176 1;
#X obj 261 241 send \$1-lfo;
#X obj 431 62 select 1;
#X obj 501 62 select 2;
#X obj 353 62 select 0;
#X msg 353 235 0;
#X msg 431 205 0;
#X msg 443 160 1;
#X msg 501 134 1;
#X msg 513 89 0;
#X obj 513 110 s \$1-lfovolumeenable;
#X obj 501 157 s \$1-lfopitchenable;
#X obj 443 181 s \$1-lfovolumeenable;
#X obj 478 223 s \$1-lfopitchenable;
#X obj 353 259 s \$1-lfopitchenable;
#X obj 353 281 s \$1-lfovolumeenable;
#X msg 306 176 0;
#X obj 406 -4 receive \$1-lfoconnection;
#X obj 70 190 r \$1-lforate;
#X obj 171 190 r \$1-lfodepth;
#X text 342 -23 lfo connection 0=none \, 1=volume \, 2=pitch 3=filter
;
#X msg 651 133 1;
#X msg 663 88 0;
#X obj 663 109 s \$1-lfovolumeenable;
#X obj 651 61 select 3;
#X obj 353 302 s \$1-lfofilterenable;
#X obj 478 247 s \$1-lfofilterenable;
#X obj 690 133 s \$1-lfopitchenable;
#X obj 651 165 s \$1-lfofilterenable;
#X obj -60 210 siglfo;
#X msg 10 193 1;
#X msg -27 183 0;
#X obj -60 117 r \$1-lforate;
#X obj -44 141 r \$1-lfodepth;
#X obj -59 243 send~ \$1-siglfo;
#X text -20 86 use siglfo for filter \, ctllfo for the rest;
#X obj 398 -254 playit \$0-lyden 0.890899 \$1;
#X obj 398 -198 playit \$0-lyden 0.749154 \$1;
#X obj 397 -146 playit \$0-lyden 0.594604 \$1;
#X obj 395 -90 playit \$0-lyden 0.5 \$1;
#X obj 396 -119 playit \$0-lyden 0.529732 \$1;
#X obj 397 -171 playit \$0-lyden 0.66742 \$1;
#X obj 398 -226 playit \$0-lyden 0.793701 \$1;
#X connect 0 0 23 0;
#X connect 2 0 3 1;
#X connect 3 0 6 0;
#X connect 4 0 2 0;
#X connect 5 0 3 0;
#X connect 6 0 0 0;
#X connect 7 1 24 0;
#X connect 8 1 80 0;
#X connect 9 1 86 0;
#X connect 10 1 81 0;
#X connect 11 1 85 0;
#X connect 12 1 82 0;
#X connect 13 0 7 0;
#X connect 14 0 8 0;
#X connect 15 0 9 0;
#X connect 16 0 10 0;
#X connect 17 0 11 0;
#X connect 18 0 12 0;
#X connect 19 1 84 0;
#X connect 20 1 83 0;
#X connect 21 0 19 0;
#X connect 22 0 20 0;
#X connect 25 0 13 0;
#X connect 25 0 14 0;
#X connect 25 0 15 0;
#X connect 25 0 16 0;
#X connect 25 0 17 0;
#X connect 25 0 18 0;
#X connect 25 0 21 0;
#X connect 25 0 22 0;
#X connect 26 1 24 1;
#X connect 27 1 80 1;
#X connect 28 1 86 1;
#X connect 29 1 81 1;
#X connect 30 1 85 1;
#X connect 31 1 82 1;
#X connect 32 0 26 0;
#X connect 33 0 27 0;
#X connect 34 0 28 0;
#X connect 35 0 29 0;
#X connect 36 0 30 0;
#X connect 37 0 31 0;
#X connect 38 1 84 1;
#X connect 39 1 83 1;
#X connect 40 0 38 0;
#X connect 41 0 39 0;
#X connect 42 0 32 0;
#X connect 42 0 33 0;
#X connect 42 0 34 0;
#X connect 42 0 35 0;
#X connect 42 0 36 0;
#X connect 42 0 37 0;
#X connect 42 0 40 0;
#X connect 42 0 41 0;
#X connect 43 0 45 0;
#X connect 44 0 43 2;
#X connect 46 0 50 0;
#X connect 46 0 51 0;
#X connect 46 0 44 0;
#X connect 46 0 75 0;
#X connect 47 0 52 0;
#X connect 47 0 53 0;
#X connect 47 0 44 0;
#X connect 47 0 75 0;
#X connect 48 0 49 0;
#X connect 48 0 60 0;
#X connect 48 0 75 0;
#X connect 49 0 58 0;
#X connect 49 0 59 0;
#X connect 49 0 69 0;
#X connect 50 0 57 0;
#X connect 50 0 70 0;
#X connect 51 0 56 0;
#X connect 52 0 55 0;
#X connect 53 0 54 0;
#X connect 60 0 43 2;
#X connect 61 0 48 0;
#X connect 61 0 46 0;
#X connect 61 0 47 0;
#X connect 61 0 68 0;
#X connect 62 0 43 0;
#X connect 63 0 43 1;
#X connect 65 0 72 0;
#X connect 66 0 67 0;
#X connect 66 0 71 0;
#X connect 68 0 65 0;
#X connect 68 0 66 0;
#X connect 68 0 60 0;
#X connect 68 0 74 0;
#X connect 73 0 78 0;
#X connect 74 0 73 2;
#X connect 75 0 73 2;
#X connect 76 0 73 0;
#X connect 77 0 73 1;
#X coords 0 923 1 922 300 60 0;
