#N canvas 466 175 690 718 10;
#N canvas 1761 58 994 943 automationhub 1;
#X obj 14 99 r \$1-auto-attack;
#X obj 15 40 line;
#X obj 15 17 r \$1-auto-volume;
#X obj 15 67 s \$1-volume;
#X obj 194 99 r \$1-auto-decay;
#X obj 194 142 s \$1-decay;
#X obj 381 100 r \$1-auto-sustain;
#X obj 381 141 s \$1-sustain;
#X obj 569 99 r \$1-auto-release;
#X obj 569 143 s \$1-release;
#X obj 14 139 s \$1-attack;
#X obj 14 173 r \$1-auto-lforate;
#X obj 14 219 s \$1-lforate;
#X obj 194 174 r \$1-auto-lfodepth;
#X obj 194 221 s \$1-lfodepth;
#X obj 15 261 r \$1-auto-filtercutoff;
#X obj 15 307 s \$1-filtercutoff;
#X obj 197 260 r \$1-auto-filterattack;
#X obj 197 306 s \$1-filterattack;
#X obj 377 260 r \$1-auto-filterdecay;
#X obj 377 306 s \$1-filterdecay;
#X obj 559 260 r \$1-auto-filtersustain;
#X obj 559 306 s \$1-filtersustain;
#X obj 738 260 r \$1-auto-filterrelease;
#X obj 738 306 s \$1-filterrelease;
#X obj 15 575 r \$1-auto-del-delay;
#X obj 15 621 s \$1-del-delay;
#X obj 182 575 r \$1-auto-del-feedback;
#X obj 182 621 s \$1-del-feedback;
#X obj 350 575 r \$1-auto-del-wet;
#X obj 350 621 s \$1-del-wet;
#X obj 496 575 r \$1-auto-del-spread;
#X obj 13 717 r \$1-auto-chorus-depth;
#X obj 13 763 s \$1-chorus-depth;
#X obj 182 717 r \$1-auto-chorus-speed;
#X obj 182 763 s \$1-chorus-speed;
#X obj 349 717 r \$1-auto-chorus-spread;
#X obj 349 763 s \$1-chorus-spread;
#X obj 13 644 r \$1-auto-flg-freq;
#X obj 13 690 s \$1-flg-freq;
#X obj 179 644 r \$1-auto-flg-width;
#X obj 179 690 s \$1-flg-width;
#X obj 347 644 r \$1-auto-flg-feedback;
#X obj 347 690 s \$1-flg-feedback;
#X obj 526 644 r \$1-auto-flg-wet;
#X obj 526 690 s \$1-flg-wet;
#X obj 13 787 r \$1-auto-rev-damp;
#X obj 13 833 s \$1-rev-damp;
#X obj 181 787 r \$1-auto-rev-roomsize;
#X obj 181 833 s \$1-rev-roomsize;
#X obj 504 787 r \$1-auto-rev-wet;
#X obj 504 833 s \$1-rev-wet;
#X obj 348 787 r \$1-auto-rev-spread;
#X obj 348 833 s \$1-rev-spread;
#X obj 14 406 s \$1-fxfilter-freq;
#X obj 182 406 s \$1-fxfilter-q;
#X obj 14 360 r \$1-auto-fxfilter-freq;
#X obj 182 360 r \$1-auto-fxfilter-q;
#X obj 14 430 r \$1-auto-3eq-lowgain;
#X obj 14 476 s \$1-3eq-lowgain;
#X obj 181 430 r \$1-auto-3eq-midgain;
#X obj 181 476 s \$1-3eq-midgain;
#X obj 349 430 r \$1-auto-3eq-midfreq;
#X obj 349 476 s \$1-3eq-midfreq;
#X obj 528 430 r \$1-auto-3eq-midbw;
#X obj 528 476 s \$1-3eq-midbw;
#X obj 679 430 r \$1-auto-3eq-highgain;
#X obj 679 476 s \$1-3eq-highgain;
#X obj 15 505 r \$1-auto-tremolo-rate;
#X obj 15 551 s \$1-tremolo-rate;
#X obj 183 505 r \$1-auto-tremolo-smooth;
#X obj 183 551 s \$1-tremolo-smooth;
#X obj 365 505 r \$1-auto-tremolo-depth;
#X obj 365 551 s \$1-tremolo-depth;
#X text 15 334 -----------------------------FX-----------------------------
;
#X obj 530 717 r \$1-auto-chorus-wet;
#X obj 530 763 s \$1-chorus-wet;
#X obj 13 860 r \$1-auto-gainer-gain;
#X obj 13 906 s \$1-gainer-gain;
#X obj 181 860 r \$1-auto-gainer-pan;
#X obj 181 906 s \$1-gainer-pan;
#X obj 13 883 autoline \$1-fxparams 35;
#X obj 14 119 autoline \$1-samplerparams 9;
#X obj 194 120 autoline \$1-samplerparams 10;
#X obj 381 120 autoline \$1-samplerparams 11;
#X obj 569 121 autoline \$1-samplerparams 12;
#X obj 14 197 autoline \$1-samplerparams 13;
#X obj 194 198 autoline \$1-samplerparams 14;
#X obj 197 284 autoline \$1-samplerparams 18;
#X obj 377 284 autoline \$1-samplerparams 19;
#X obj 559 284 autoline \$1-samplerparams 20;
#X obj 738 282 autoline \$1-samplerparams 21;
#X obj 15 284 autoline \$1-samplerparams 16;
#X obj 14 382 autoline \$1-fxparams 22;
#X obj 182 384 autoline \$1-fxparams 23;
#X obj 14 453 autoline \$1-fxparams 25;
#X obj 181 454 autoline \$1-fxparams 26;
#X obj 349 454 autoline \$1-fxparams 27;
#X obj 528 453 autoline \$1-fxparams 28;
#X obj 679 453 autoline \$1-fxparams 29;
#X obj 15 528 autoline \$1-fxparams 31;
#X obj 183 528 autoline \$1-fxparams 32;
#X obj 365 528 autoline \$1-fxparams 33;
#X obj 15 597 autoline \$1-fxparams 6;
#X obj 182 599 autoline \$1-fxparams 7;
#X obj 350 598 autoline \$1-fxparams 8;
#X obj 496 599 autoline \$1-fxparams 9;
#X obj 496 621 s \$1-del-spread;
#X obj 13 667 autoline \$1-fxparams 11;
#X obj 179 668 autoline \$1-fxparams 12;
#X obj 347 667 autoline \$1-fxparams 13;
#X obj 526 668 autoline \$1-fxparams 14;
#X obj 13 740 autoline \$1-fxparams 16;
#X obj 182 741 autoline \$1-fxparams 17;
#X obj 349 741 autoline \$1-fxparams 18;
#X obj 530 741 autoline \$1-fxparams 19;
#X obj 13 812 autoline \$1-fxparams 1;
#X obj 181 810 autoline \$1-fxparams 2;
#X obj 348 811 autoline \$1-fxparams 3;
#X obj 504 811 autoline \$1-fxparams 4;
#X obj 181 884 autoline \$1-fxparams 36;
#X connect 0 0 82 0;
#X connect 1 0 3 0;
#X connect 2 0 1 0;
#X connect 4 0 83 0;
#X connect 6 0 84 0;
#X connect 8 0 85 0;
#X connect 11 0 86 0;
#X connect 13 0 87 0;
#X connect 15 0 92 0;
#X connect 17 0 88 0;
#X connect 19 0 89 0;
#X connect 21 0 90 0;
#X connect 23 0 91 0;
#X connect 25 0 103 0;
#X connect 27 0 104 0;
#X connect 29 0 105 0;
#X connect 31 0 106 0;
#X connect 32 0 112 0;
#X connect 34 0 113 0;
#X connect 36 0 114 0;
#X connect 38 0 108 0;
#X connect 40 0 109 0;
#X connect 42 0 110 0;
#X connect 44 0 111 0;
#X connect 46 0 116 0;
#X connect 48 0 117 0;
#X connect 50 0 119 0;
#X connect 52 0 118 0;
#X connect 56 0 93 0;
#X connect 57 0 94 0;
#X connect 58 0 95 0;
#X connect 60 0 96 0;
#X connect 62 0 97 0;
#X connect 64 0 98 0;
#X connect 66 0 99 0;
#X connect 68 0 100 0;
#X connect 70 0 101 0;
#X connect 72 0 102 0;
#X connect 75 0 115 0;
#X connect 77 0 81 0;
#X connect 79 0 120 0;
#X connect 81 0 78 0;
#X connect 82 0 10 0;
#X connect 83 0 5 0;
#X connect 84 0 7 0;
#X connect 85 0 9 0;
#X connect 86 0 12 0;
#X connect 87 0 14 0;
#X connect 88 0 18 0;
#X connect 89 0 20 0;
#X connect 90 0 22 0;
#X connect 91 0 24 0;
#X connect 92 0 16 0;
#X connect 93 0 54 0;
#X connect 94 0 55 0;
#X connect 95 0 59 0;
#X connect 96 0 61 0;
#X connect 97 0 63 0;
#X connect 98 0 65 0;
#X connect 99 0 67 0;
#X connect 100 0 69 0;
#X connect 101 0 71 0;
#X connect 102 0 73 0;
#X connect 103 0 26 0;
#X connect 104 0 28 0;
#X connect 105 0 30 0;
#X connect 106 0 107 0;
#X connect 108 0 39 0;
#X connect 109 0 41 0;
#X connect 110 0 43 0;
#X connect 111 0 45 0;
#X connect 112 0 33 0;
#X connect 113 0 35 0;
#X connect 114 0 37 0;
#X connect 115 0 76 0;
#X connect 116 0 47 0;
#X connect 117 0 49 0;
#X connect 118 0 53 0;
#X connect 119 0 51 0;
#X connect 120 0 80 0;
#X restore 142 331 pd automationhub;
#N canvas 1731 170 681 397 lfoconnections 0;
#X obj 296 97 select 1;
#X obj 375 97 select 2;
#X obj 219 97 select 0;
#X obj 318 28 receive \$1-lfoconnection;
#X text 255 9 lfo connection 0=none \, 1=volume \, 2=pitch 3=filter
;
#X obj 465 97 select 3;
#X msg 588 297 1;
#X msg 557 287 0;
#X obj 518 221 r \$1-lforate;
#X obj 541 245 r \$1-lfodepth;
#X text 7 32 TODO: lfo's are running when no notes;
#X msg 341 272 1;
#X msg 375 281 0;
#X obj 308 217 r \$1-lforate;
#X obj 331 241 r \$1-lfodepth;
#X obj 309 360 send~ \$1-siglfopitch;
#X msg 188 285 1;
#X msg 219 294 0;
#X obj 149 230 r \$1-lforate;
#X obj 172 254 r \$1-lfodepth;
#X obj 150 345 send~ \$1-siglfovolume;
#X obj 517 343 send~ \$1-siglfofilter;
#X obj 370 333 send \$1-lfopitchenable;
#X text 8 48 TODO: lfo's can output 1-output.;
#X obj 149 311 siglfo~;
#X obj 308 319 siglfo~;
#X obj 518 314 siglfo~;
#X connect 0 0 12 0;
#X connect 0 0 7 0;
#X connect 0 0 16 0;
#X connect 1 0 7 0;
#X connect 1 0 11 0;
#X connect 1 0 17 0;
#X connect 2 0 7 0;
#X connect 2 0 12 0;
#X connect 2 0 17 0;
#X connect 3 0 2 0;
#X connect 3 0 0 0;
#X connect 3 0 1 0;
#X connect 3 0 5 0;
#X connect 5 0 6 0;
#X connect 5 0 12 0;
#X connect 5 0 17 0;
#X connect 6 0 26 2;
#X connect 7 0 26 2;
#X connect 8 0 26 0;
#X connect 9 0 26 1;
#X connect 11 0 22 0;
#X connect 11 0 25 2;
#X connect 12 0 25 2;
#X connect 12 0 22 0;
#X connect 13 0 25 0;
#X connect 14 0 25 1;
#X connect 16 0 24 2;
#X connect 17 0 24 2;
#X connect 18 0 24 0;
#X connect 19 0 24 1;
#X connect 24 0 20 0;
#X connect 25 0 15 0;
#X connect 26 0 21 0;
#X restore 142 371 pd lfoconnections;
#X obj 142 393 catch~ \$1-instrumentoutput;
#X obj 449 32 receive \$1-tabwrite;
#X obj 536 55 receive \$1-tabindex;
#X obj 447 127 receive \$1-resize;
#X obj 518 150 loadbang;
#X msg 447 215 \; \$2-tmp resize \$1;
#X obj 17 34 table \$1-wave;
#N canvas 745 334 202 100 paramwriters 1;
#X obj 8 30 fxparamwriters \$1;
#N canvas 712 216 498 538 samplerparamwriters 1;
#X obj 136 12 table \$1-samplerparams;
#X obj 11 84 r \$1-rootnote;
#X obj 11 126 r \$1-finetune;
#X obj 11 170 r \$1-samplestart;
#X obj 11 214 r \$1-sampleend;
#X obj 10 305 r \$1-loopstart;
#X obj 11 352 r \$1-loopend;
#X obj 10 261 r \$1-samplelength;
#X obj 11 395 r \$1-loopon;
#X obj 12 438 r \$1-attack;
#X obj 12 478 r \$1-decay;
#X obj 251 41 r \$1-sustain;
#X obj 251 84 r \$1-release;
#X obj 251 125 r \$1-lforate;
#X obj 251 166 r \$1-lfodepth;
#X obj 251 209 r \$1-lfoconnection;
#X obj 250 252 r \$1-filtercutoff;
#X obj 249 295 r \$1-filterselect;
#X obj 250 336 r \$1-filterattack;
#X obj 249 378 r \$1-filterdecay;
#X obj 249 421 r \$1-filtersustain;
#X obj 249 463 r \$1-filterrelease;
#X obj 11 62 paramwriter \$1-samplerparams 0;
#X obj 11 41 r \$1-samplerate;
#X obj 11 105 paramwriter \$1-samplerparams 1;
#X obj 11 147 paramwriter \$1-samplerparams 2;
#X obj 11 191 paramwriter \$1-samplerparams 3;
#X obj 11 235 paramwriter \$1-samplerparams 4;
#X obj 10 283 paramwriter \$1-samplerparams 5;
#X obj 10 326 paramwriter \$1-samplerparams 6;
#X obj 11 371 paramwriter \$1-samplerparams 7;
#X obj 11 414 paramwriter \$1-samplerparams 8;
#X obj 12 457 paramwriter \$1-samplerparams 9;
#X obj 12 499 paramwriter \$1-samplerparams 10;
#X obj 251 62 paramwriter \$1-samplerparams 11;
#X obj 251 105 paramwriter \$1-samplerparams 12;
#X obj 251 145 paramwriter \$1-samplerparams 13;
#X obj 251 186 paramwriter \$1-samplerparams 14;
#X obj 251 229 paramwriter \$1-samplerparams 15;
#X obj 250 273 paramwriter \$1-samplerparams 16;
#X obj 249 315 paramwriter \$1-samplerparams 17;
#X obj 250 356 paramwriter \$1-samplerparams 18;
#X obj 249 398 paramwriter \$1-samplerparams 19;
#X obj 249 441 paramwriter \$1-samplerparams 20;
#X obj 249 483 paramwriter \$1-samplerparams 21;
#X connect 1 0 24 0;
#X connect 2 0 25 0;
#X connect 3 0 26 0;
#X connect 4 0 27 0;
#X connect 5 0 29 0;
#X connect 6 0 30 0;
#X connect 7 0 28 0;
#X connect 8 0 31 0;
#X connect 9 0 32 0;
#X connect 10 0 33 0;
#X connect 11 0 34 0;
#X connect 12 0 35 0;
#X connect 13 0 36 0;
#X connect 14 0 37 0;
#X connect 15 0 38 0;
#X connect 16 0 39 0;
#X connect 17 0 40 0;
#X connect 18 0 41 0;
#X connect 19 0 42 0;
#X connect 20 0 43 0;
#X connect 21 0 44 0;
#X connect 23 0 22 0;
#X restore 8 10 pd samplerparamwriters;
#X obj 8 50 mixerparamwriters \$1;
#X restore 268 331 pd paramwriters;
#X obj 18 68 table \$1-tmp;
#X obj 518 172 symbol \$1;
#X obj 447 189 pack f s;
#X obj 449 79 tabwrite \$1-tmp;
#N canvas 1818 431 1060 562 polyconnections 0;
#X obj 413 14 receive \$1-noteon;
#X obj 502 61 receive \$1-noteoff;
#X obj 502 83 pack 0 0;
#X obj 36 391 playit \$1-wave \$1;
#X obj 394 241 spigot;
#X obj 545 241 spigot;
#X obj 475 181 moses 1;
#X msg 584 216 0;
#X msg 427 216 0;
#X msg 554 216 1;
#X obj 394 181 pack f f f;
#N canvas 1827 572 312 154 sendnoteon 0;
#X obj 7 10 inlet;
#X obj 7 59 symbol \$1;
#X msg 75 56 \$2;
#X obj 7 30 t b l;
#X obj 7 108 s libpdhost-sustainednoteon;
#X msg 106 56 \$3;
#X obj 7 87 pack s f f;
#X connect 0 0 3 0;
#X connect 1 0 6 0;
#X connect 2 0 6 1;
#X connect 3 0 1 0;
#X connect 3 1 2 0;
#X connect 3 1 5 0;
#X connect 5 0 6 2;
#X connect 6 0 4 0;
#X restore 401 263 pd sendnoteon;
#N canvas 1967 430 322 146 sendnoteoff 0;
#X obj 7 10 inlet;
#X obj 7 50 symbol \$1;
#X msg 81 50 \$2;
#X obj 7 30 t b l;
#X obj 7 93 s libpdhost-sustainednoteoff;
#X msg 123 49 \$3;
#X obj 7 72 pack s f f;
#X connect 0 0 3 0;
#X connect 1 0 6 0;
#X connect 2 0 6 1;
#X connect 3 0 1 0;
#X connect 3 1 2 0;
#X connect 3 1 5 0;
#X connect 5 0 6 2;
#X connect 6 0 4 0;
#X restore 552 263 pd sendnoteoff;
#X obj 525 483 s \$1-noteoff;
#X msg 509 128 clear;
#X obj 509 106 r \$1-stopnotes;
#X obj 162 391 playit \$1-wave \$1;
#X obj 288 391 playit \$1-wave \$1;
#X obj 415 391 playit \$1-wave \$1;
#X obj 544 391 playit \$1-wave \$1;
#X obj 669 388 playit \$1-wave \$1;
#X obj 795 388 playit \$1-wave \$1;
#X obj 921 388 playit \$1-wave \$1;
#X obj 394 300 route 1 2 3 4 5 6 7 8;
#X obj 545 300 route 1 2 3 4 5 6 7 8;
#X obj 413 155 poly 8 1;
#X obj 413 37 t l l;
#X msg 440 60 \$1;
#X obj 440 81 pack f 0;
#X obj 735 41 r stopallnotes;
#X obj 735 62 0;
#X obj 735 83 s \$1-stopnotes;
#X connect 0 0 26 0;
#X connect 1 0 2 0;
#X connect 2 0 25 0;
#X connect 3 0 13 0;
#X connect 4 0 11 0;
#X connect 4 0 23 0;
#X connect 5 0 12 0;
#X connect 5 0 24 0;
#X connect 6 0 8 0;
#X connect 6 0 9 0;
#X connect 6 1 7 0;
#X connect 6 1 4 1;
#X connect 7 0 5 1;
#X connect 8 0 4 1;
#X connect 9 0 5 1;
#X connect 10 0 4 0;
#X connect 10 0 5 0;
#X connect 14 0 25 0;
#X connect 15 0 14 0;
#X connect 16 0 13 0;
#X connect 17 0 13 0;
#X connect 18 0 13 0;
#X connect 19 0 13 0;
#X connect 20 0 13 0;
#X connect 21 0 13 0;
#X connect 22 0 13 0;
#X connect 23 0 3 0;
#X connect 23 1 16 0;
#X connect 23 2 17 0;
#X connect 23 3 18 0;
#X connect 23 4 19 0;
#X connect 23 5 20 0;
#X connect 23 6 21 0;
#X connect 23 7 22 0;
#X connect 24 0 3 1;
#X connect 24 1 16 1;
#X connect 24 2 17 1;
#X connect 24 3 18 1;
#X connect 24 4 19 1;
#X connect 24 5 20 1;
#X connect 24 6 21 1;
#X connect 24 7 22 1;
#X connect 25 0 10 0;
#X connect 25 1 10 1;
#X connect 25 2 6 0;
#X connect 25 2 10 2;
#X connect 26 0 25 0;
#X connect 26 1 27 0;
#X connect 27 0 28 0;
#X connect 28 0 25 0;
#X connect 29 0 30 0;
#X connect 30 0 31 0;
#X restore 142 351 pd polyconnections;
#X obj 142 560 pan;
#X obj 106 686 throw~ mainoutputL;
#X obj 200 665 throw~ mainoutputR;
#X obj 160 539 r \$1-pan;
#X obj 17 112 loadbang;
#X obj 17 131 48;
#X obj 17 150 s \$1-rootnote;
#X obj 17 195 loadbang;
#X obj 17 233 s \$1-samplerate;
#X obj 17 214 44100;
#X obj 141 518 *~;
#X msg 160 472 \$1 50;
#X obj 225 454 loadbang;
#X msg 225 475 1 0;
#X obj 160 416 receive \$1-volume;
#X obj 216 557 r \$1-mute;
#X msg 216 598 \$1 50;
#X obj 216 620 line~;
#X obj 105 644 *~;
#X obj 200 644 *~;
#X obj 299 582 loadbang;
#X msg 299 603 1 0;
#X obj 216 577 expr 1-$i1;
#X obj 160 435 logvolume -50 0;
#X obj 106 600 effectschain~ \$1;
#X obj 160 495 line~;
#X obj 167 95 soundfiler;
#X obj 311 10 loadbang;
#X obj 167 20 receive \$1-filename;
#N canvas 457 257 686 630 makeguardpoints 0;
#X obj 256 38 inlet;
#X text 252 16 nr of samples;
#X obj 256 68 trigger bang float float float float float;
#X obj 505 100 + 3;
#X obj 505 128 trigger float bang;
#X obj 406 346 trigger bang float;
#X msg 406 378 0;
#X obj 511 429 + 1;
#X obj 262 236 trigger bang float;
#X msg 262 268 1;
#X obj 367 307 + 2;
#X obj 114 310 until;
#X msg 114 274 \$1;
#X obj 114 350 float;
#X obj 170 350 + 1;
#X obj 114 238 trigger float bang;
#X obj 114 528 float;
#X obj 114 487 trigger bang float;
#X obj 114 441 trigger float float;
#X msg 169 307 0;
#X obj 219 552 + 1;
#X obj 471 249 trigger float bang;
#X msg 576 293 0;
#X msg 25 130 \; \$1-tmp const 0 \; \$1-tmp resize 0 \;;
#X obj 610 151 symbol \$1;
#X obj 505 168 pack f s;
#X obj 114 573 tabwrite \$1-wave;
#X obj 406 456 tabwrite \$1-wave;
#X obj 471 310 tabwrite \$1-wave;
#X msg 505 195 \; \$2-wave resize \$1;
#X obj 262 336 tabwrite \$1-wave;
#X obj 225 511 tabread \$1-tmp;
#X obj 262 303 tabread \$1-tmp;
#X obj 406 413 tabread \$1-tmp;
#X obj 471 279 tabread \$1-tmp;
#X obj 25 85 symbol \$1;
#X connect 0 0 2 0;
#X connect 2 0 35 0;
#X connect 2 1 15 0;
#X connect 2 2 8 0;
#X connect 2 3 5 0;
#X connect 2 4 21 0;
#X connect 2 5 3 0;
#X connect 3 0 4 0;
#X connect 4 0 25 0;
#X connect 4 1 24 0;
#X connect 5 0 6 0;
#X connect 5 1 7 0;
#X connect 6 0 33 0;
#X connect 7 0 27 1;
#X connect 8 0 9 0;
#X connect 8 1 10 0;
#X connect 9 0 32 0;
#X connect 10 0 30 1;
#X connect 11 0 13 0;
#X connect 12 0 11 0;
#X connect 13 0 14 0;
#X connect 13 0 18 0;
#X connect 14 0 13 1;
#X connect 15 0 12 0;
#X connect 15 1 19 0;
#X connect 16 0 26 0;
#X connect 17 0 16 0;
#X connect 17 1 20 0;
#X connect 18 0 17 0;
#X connect 18 1 31 0;
#X connect 19 0 13 1;
#X connect 20 0 26 1;
#X connect 21 0 34 0;
#X connect 21 1 22 0;
#X connect 22 0 28 1;
#X connect 24 0 25 1;
#X connect 25 0 29 0;
#X connect 31 0 16 1;
#X connect 32 0 30 0;
#X connect 33 0 27 0;
#X connect 34 0 28 0;
#X connect 35 0 23 0;
#X restore 218 183 pd makeguardpoints;
#X obj 184 204 - 1;
#X obj 173 140 receive \$1-makeguardpoints;
#X obj 311 32 symbol \$1;
#X obj 167 50 pack s s;
#X obj 184 245 s \$1-sampleend;
#X obj 198 225 s \$1-loopend;
#X obj 213 204 s \$1-samplelength;
#X obj 167 162 t b f f f;
#X obj 152 205 0;
#X obj 152 267 s \$1-loopstart;
#X obj 129 288 s \$1-samplestart;
#X msg 167 74 read -resize \$1 \$2-tmp;
#X msg 241 97 \$1;
#X obj 241 119 s \$1-samplerate;
#X connect 2 0 25 0;
#X connect 3 0 13 0;
#X connect 4 0 13 1;
#X connect 5 0 12 0;
#X connect 6 0 11 0;
#X connect 11 0 12 1;
#X connect 12 0 7 0;
#X connect 15 0 39 0;
#X connect 15 1 39 1;
#X connect 18 0 15 1;
#X connect 19 0 20 0;
#X connect 20 0 21 0;
#X connect 22 0 24 0;
#X connect 24 0 23 0;
#X connect 25 0 15 0;
#X connect 26 0 40 0;
#X connect 27 0 28 0;
#X connect 28 0 40 0;
#X connect 29 0 38 0;
#X connect 30 0 37 0;
#X connect 31 0 32 0;
#X connect 32 0 33 1;
#X connect 32 0 34 1;
#X connect 33 0 16 0;
#X connect 34 0 17 0;
#X connect 35 0 36 0;
#X connect 36 0 32 0;
#X connect 37 0 31 0;
#X connect 38 0 26 0;
#X connect 39 0 33 0;
#X connect 39 1 34 0;
#X connect 40 0 25 1;
#X connect 41 0 52 0;
#X connect 41 1 57 0;
#X connect 42 0 47 0;
#X connect 43 0 48 0;
#X connect 45 0 49 0;
#X connect 45 0 50 0;
#X connect 46 0 52 0;
#X connect 47 0 48 1;
#X connect 48 0 56 0;
#X connect 52 0 53 0;
#X connect 52 1 45 0;
#X connect 52 2 51 0;
#X connect 52 3 44 0;
#X connect 53 0 54 0;
#X connect 53 0 55 0;
#X connect 56 0 41 0;
#X connect 57 0 58 0;
#X coords 0 718 1 717 300 60 0;
