#N canvas 601 365 593 565 10;
#X obj -61 259 *~;
#X obj -61 207 phasor~;
#X obj -46 234 receive samplesize;
#X obj -59 468 outlet~;
#X obj -61 181 inlet;
#X obj -60 391 *~;
#X obj -45 341 inlet;
#X text -62 167 rate;
#X text -46 326 depth;
#X obj 145 233 switch~;
#X obj 145 177 inlet;
#X msg 7 345 0;
#X msg 28 190 0.25;
#X obj 28 159 loadbang;
#X obj 7 318 loadbang;
#X obj -61 299 tabread~ \$0-modwave;
#X obj -291 141 soundfiler;
#X obj -367 47 table \$0-wave;
#X obj -291 99 float \$0;
#X obj -291 78 loadbang;
#X obj -291 168 send samplesize;
#X obj -291 224 until;
#X obj -206 45 table \$0-modwave;
#X obj -291 317 tabread \$0-wave;
#X obj -291 380 tabwrite \$0-modwave;
#X obj -291 284 trigger float float;
#X obj -291 252 float 0;
#X obj -227 251 + 1;
#X obj -180 250 s \$0-modwave;
#X obj -291 196 trigger float float;
#X msg -180 222 resize 44100;
#X msg -291 120 read -resize ../sounds/sine1hz.wav \$1-wave;
#X obj -291 347 expr ($f1+1)/2;
#X connect 0 0 15 0;
#X connect 1 0 0 0;
#X connect 2 0 0 1;
#X connect 4 0 1 0;
#X connect 5 0 3 0;
#X connect 6 0 5 1;
#X connect 10 0 9 0;
#X connect 11 0 5 1;
#X connect 12 0 1 0;
#X connect 13 0 12 0;
#X connect 14 0 11 0;
#X connect 15 0 5 0;
#X connect 16 0 20 0;
#X connect 16 0 29 0;
#X connect 18 0 31 0;
#X connect 19 0 18 0;
#X connect 21 0 26 0;
#X connect 23 0 32 0;
#X connect 25 0 23 0;
#X connect 25 1 24 1;
#X connect 26 0 25 0;
#X connect 26 0 27 0;
#X connect 27 0 26 1;
#X connect 29 0 21 0;
#X connect 29 1 30 0;
#X connect 30 0 28 0;
#X connect 31 0 16 0;
#X connect 32 0 24 0;
