#N canvas 1848 361 387 392 10;
#X obj 44 77 phasor~;
#X obj 46 338 outlet~;
#X obj 45 261 *~;
#X obj 60 211 inlet;
#X text 59 196 depth;
#X obj 226 88 switch~;
#X obj 226 32 inlet;
#X msg 112 215 0;
#X msg 133 51 0.25;
#X obj 133 20 loadbang;
#X obj 112 188 loadbang;
#X obj 44 169 tabread~ lfowavesine;
#X obj 44 129 *~ 44100;
#X obj 44 51 inlet rate;
#X connect 0 0 12 0;
#X connect 2 0 1 0;
#X connect 3 0 2 1;
#X connect 6 0 5 0;
#X connect 7 0 2 1;
#X connect 8 0 0 0;
#X connect 9 0 8 0;
#X connect 10 0 7 0;
#X connect 11 0 2 0;
#X connect 12 0 11 0;
#X connect 13 0 0 0;
