#N canvas 1835 303 387 392 10;
#X obj 44 129 *~;
#X obj 44 77 phasor~;
#X obj 59 104 receive samplesize;
#X obj 46 338 outlet~;
#X obj 44 51 inlet;
#X obj 45 261 *~;
#X obj 60 211 inlet;
#X text 43 37 rate;
#X text 59 196 depth;
#X obj 201 88 switch~;
#X obj 201 32 inlet;
#X msg 112 215 0;
#X msg 133 60 0.25;
#X obj 133 29 loadbang;
#X obj 112 188 loadbang;
#X obj 44 169 tabread~ lfowave-sine;
#X connect 0 0 15 0;
#X connect 1 0 0 0;
#X connect 2 0 0 1;
#X connect 4 0 1 0;
#X connect 5 0 3 0;
#X connect 6 0 5 1;
#X connect 10 0 9 0;
#X connect 11 0 5 1;
#X connect 12 0 1 0;
#X connect 13 0 12 0;
#X connect 14 0 11 0;
#X connect 15 0 5 0;
