#N canvas 391 314 494 567 10;
#X obj -139 118 soundfiler;
#X obj -215 24 table \$0-wave;
#X obj -139 76 float \$0;
#X obj -139 55 loadbang;
#X obj -61 259 *~;
#X obj -61 207 phasor~;
#X obj -46 234 receive samplesize;
#X obj -139 145 send samplesize;
#X obj -60 449 outlet~;
#X obj -61 299 tabread~ \$0-wave;
#X obj -61 181 inlet;
#X obj -60 386 *~;
#X obj -45 365 inlet;
#X text -62 167 rate;
#X text -46 350 depth;
#X msg -139 97 read -resize ../sounds/sine1hz.wav \$1-wave;
#X obj 145 233 switch~;
#X obj 145 177 inlet;
#X obj -61 331 expr~ ($v1+1)*0.5;
#X msg -138 369 0;
#X msg -139 190 0.25;
#X connect 0 0 7 0;
#X connect 2 0 15 0;
#X connect 3 0 2 0;
#X connect 3 0 20 0;
#X connect 3 0 19 0;
#X connect 4 0 9 0;
#X connect 5 0 4 0;
#X connect 6 0 4 1;
#X connect 9 0 18 0;
#X connect 10 0 5 0;
#X connect 11 0 8 0;
#X connect 12 0 11 1;
#X connect 15 0 0 0;
#X connect 17 0 16 0;
#X connect 18 0 11 0;
#X connect 19 0 11 1;
#X connect 20 0 5 0;
