#N canvas 186 683 654 201 10;
#X obj 66 14 inlet~;
#X obj 138 14 inlet~;
#N canvas 282 217 603 670 workings 0;
#X obj 15 312 inlet~;
#X obj 67 311 inlet~;
#X obj 462 246 - 1;
#X obj 464 268 abs;
#X obj 459 222 t f f;
#X obj 462 200 r \$0-wet;
#X obj 33 189 *~;
#X obj 156 189 *~;
#X obj 230 22 * 10;
#X obj 64 85 phasor~;
#X obj 33 135 cos~;
#X obj 155 140 cos~;
#X obj 33 167 +~ 1;
#X obj 156 164 +~ 1;
#N canvas 512 521 473 213 feedback 0;
#X obj 92 18 inlet~;
#X obj 278 26 inlet~;
#X obj 19 142 outlet~;
#X obj 191 154 outlet~;
#X obj 58 88 *~;
#X obj 232 94 *~;
#X obj 58 112 delwrite~ \$0-flanger-l 1000;
#X obj 233 115 delwrite~ \$0-flanger-r 1000;
#X obj 18 49 vd~ \$0-flanger-l;
#X obj 193 55 vd~ \$0-flanger-r;
#X obj 18 22 inlet~;
#X obj 192 25 inlet~;
#X obj 300 147 block~ 4 1 1;
#X obj 374 28 inlet~;
#X connect 0 0 6 0;
#X connect 1 0 7 0;
#X connect 4 0 6 0;
#X connect 5 0 7 0;
#X connect 8 0 4 0;
#X connect 8 0 2 0;
#X connect 9 0 5 0;
#X connect 9 0 3 0;
#X connect 10 0 8 0;
#X connect 11 0 9 0;
#X connect 13 0 5 1;
#X connect 13 0 4 1;
#X restore 62 253 pd feedback;
#X obj 154 117 +~ 0.06;
#X obj 34 213 +~ 0.12;
#X obj 157 212 +~ 0.12;
#X obj 60 7 r \$0-freq;
#X obj 230 0 r \$0-width;
#X obj 105 625 outlet~;
#X obj 167 623 outlet~;
#X msg 322 148 \$1 20;
#X msg 521 272 \$1 20;
#X msg 461 289 \$1 20;
#X obj 324 171 line~;
#X obj 521 295 line~;
#X obj 394 386 *~;
#X obj 250 394 *~;
#X obj 461 312 line~;
#X obj 67 399 *~;
#X obj 113 396 *~;
#X obj 321 83 r \$0-feedback;
#X obj 322 106 * 0.9;
#X obj 323 126 + 0.05;
#X obj 60 28 expr pow($f1 \, 2);
#X obj 62 56 + 0.1;
#X obj 108 62 r \$0-phase;
#X text 259 596 created by matt davey.;
#X text 260 611 comments \, questions \, etc: hard.off@gmail.com;
#X connect 0 0 14 1;
#X connect 0 0 30 0;
#X connect 1 0 14 3;
#X connect 1 0 31 0;
#X connect 2 0 3 0;
#X connect 3 0 24 0;
#X connect 4 0 2 0;
#X connect 4 1 23 0;
#X connect 5 0 4 0;
#X connect 6 0 16 0;
#X connect 7 0 17 0;
#X connect 8 0 7 1;
#X connect 8 0 6 1;
#X connect 9 0 10 0;
#X connect 9 0 15 0;
#X connect 10 0 12 0;
#X connect 11 0 13 0;
#X connect 12 0 6 0;
#X connect 13 0 7 0;
#X connect 14 0 28 0;
#X connect 14 1 27 0;
#X connect 15 0 11 0;
#X connect 16 0 14 0;
#X connect 17 0 14 2;
#X connect 18 0 35 0;
#X connect 19 0 8 0;
#X connect 22 0 25 0;
#X connect 23 0 26 0;
#X connect 24 0 29 0;
#X connect 25 0 14 4;
#X connect 26 0 27 1;
#X connect 26 0 28 1;
#X connect 27 0 21 0;
#X connect 28 0 20 0;
#X connect 29 0 30 1;
#X connect 29 0 31 1;
#X connect 30 0 20 0;
#X connect 31 0 21 0;
#X connect 32 0 33 0;
#X connect 33 0 34 0;
#X connect 34 0 22 0;
#X connect 35 0 36 0;
#X connect 36 0 9 0;
#X connect 37 0 9 1;
#X restore 65 91 pd workings;
#X obj 138 173 outlet~;
#X obj 64 174 outlet~;
#X obj 242 36 s \$0-freq;
#X obj 319 36 s \$0-width;
#X obj 398 36 s \$0-feedback;
#X obj 502 36 s \$0-wet;
#X obj 242 14 inlet;
#X obj 319 14 inlet;
#X obj 398 14 inlet;
#X obj 502 14 inlet;
#X obj 572 14 inlet;
#X obj 572 36 switch~;
#X connect 0 0 2 0;
#X connect 1 0 2 1;
#X connect 2 0 4 0;
#X connect 2 1 3 0;
#X connect 9 0 5 0;
#X connect 10 0 6 0;
#X connect 11 0 7 0;
#X connect 12 0 8 0;
#X connect 13 0 14 0;
