#N canvas 290 286 737 647 10;
#X obj 146 56 inlet~;
#X obj 14 9 inlet~;
#X obj 329 580 outlet~;
#X obj 518 550 outlet~;
#X obj 20 33 delwrite~ \$0-left 2000;
#X obj 157 82 delwrite~ \$0-right 2000;
#X obj 243 358 vd~ \$0-left;
#X obj 242 306 *~;
#X obj 241 251 *~ 0.5;
#X obj 260 280 r \$0-depth;
#X obj 299 41 s \$0-depth;
#X obj 385 16 inlet speed;
#X obj 385 38 s \$0-speed;
#X obj 242 218 +~ 1;
#X obj 241 189 osc~;
#X obj 367 314 *~;
#X obj 366 259 *~ 0.5;
#X obj 385 288 r \$0-depth;
#X obj 367 226 +~ 1;
#X obj 366 189 osc~;
#X obj 480 313 *~;
#X obj 479 258 *~ 0.5;
#X obj 498 287 r \$0-depth;
#X obj 480 225 +~ 1;
#X obj 479 189 osc~;
#X obj 597 316 *~;
#X obj 596 261 *~ 0.5;
#X obj 615 290 r \$0-depth;
#X obj 597 228 +~ 1;
#X obj 596 189 osc~;
#X msg 621 169 0.75;
#X obj 534 139 loadbang;
#X obj 368 362 vd~ \$0-left;
#X msg 391 169 0.35;
#X msg 502 169 0.65;
#X obj 598 385 *~ 0.5;
#X obj 481 385 *~ 0.5;
#X obj 367 385 *~ 0.5;
#X obj 243 385 *~ 0.5;
#X obj 366 132 * 0.2;
#X obj 479 132 * 0.3;
#X obj 481 357 vd~ \$0-right;
#X obj 598 357 vd~ \$0-right;
#X obj 299 16 inlet depth;
#X obj 470 16 inlet spread;
#X obj 470 57 s \$0-spread;
#X obj 244 451 pan;
#X obj 262 408 r \$0-spread;
#X obj 366 448 pan;
#X obj 480 450 pan;
#X obj 498 405 r \$0-spread;
#X obj 597 450 pan;
#X obj 470 36 * 0.5;
#X obj 262 430 expr 0.5-$f1;
#X obj 384 406 r \$0-spread;
#X obj 384 428 expr 0.5-$f1;
#X obj 498 428 expr 0.5+$f1;
#X obj 615 405 r \$0-spread;
#X obj 615 428 expr 0.5+$f1;
#X obj 568 16 inlet drywet;
#X obj 568 57 s \$0-drywet;
#X obj 380 559 r \$0-drywet;
#X obj 567 529 r \$0-drywet;
#X obj 14 564 *~;
#X obj 329 559 *~ 0.5;
#X obj 517 529 *~ 0.5;
#X obj 32 524 r \$0-drywet;
#X obj 32 544 expr 1-$f1;
#X obj 147 533 *~;
#X obj 165 493 r \$0-drywet;
#X obj 165 513 expr 1-$f1;
#X obj 668 14 inlet;
#X obj 668 56 switch~;
#X obj 241 108 r \$0-speed;
#X obj 366 108 r \$0-speed;
#X obj 479 108 r \$0-speed;
#X obj 596 108 r \$0-speed;
#X text 24 613 inspired by flanger4896 from https://github.com/AndrewLngdn/basic-pure-data-audio-effects
;
#X connect 0 0 5 0;
#X connect 0 0 68 0;
#X connect 1 0 4 0;
#X connect 1 0 63 0;
#X connect 6 0 38 0;
#X connect 7 0 6 0;
#X connect 8 0 7 0;
#X connect 9 0 7 1;
#X connect 11 0 12 0;
#X connect 13 0 8 0;
#X connect 14 0 13 0;
#X connect 15 0 32 0;
#X connect 16 0 15 0;
#X connect 17 0 15 1;
#X connect 18 0 16 0;
#X connect 19 0 18 0;
#X connect 20 0 41 0;
#X connect 21 0 20 0;
#X connect 22 0 20 1;
#X connect 23 0 21 0;
#X connect 24 0 23 0;
#X connect 25 0 42 0;
#X connect 26 0 25 0;
#X connect 27 0 25 1;
#X connect 28 0 26 0;
#X connect 29 0 28 0;
#X connect 30 0 29 1;
#X connect 31 0 33 0;
#X connect 31 0 34 0;
#X connect 31 0 30 0;
#X connect 32 0 37 0;
#X connect 33 0 19 1;
#X connect 34 0 24 1;
#X connect 35 0 51 0;
#X connect 36 0 49 0;
#X connect 37 0 48 0;
#X connect 38 0 46 0;
#X connect 39 0 19 0;
#X connect 40 0 24 0;
#X connect 41 0 36 0;
#X connect 42 0 35 0;
#X connect 43 0 10 0;
#X connect 44 0 52 0;
#X connect 46 0 64 0;
#X connect 46 1 65 0;
#X connect 47 0 53 0;
#X connect 48 0 64 0;
#X connect 48 1 65 0;
#X connect 49 0 64 0;
#X connect 49 1 65 0;
#X connect 50 0 56 0;
#X connect 51 0 64 0;
#X connect 51 1 65 0;
#X connect 52 0 45 0;
#X connect 53 0 46 1;
#X connect 54 0 55 0;
#X connect 55 0 48 1;
#X connect 56 0 49 1;
#X connect 57 0 58 0;
#X connect 58 0 51 1;
#X connect 59 0 60 0;
#X connect 61 0 64 1;
#X connect 62 0 65 1;
#X connect 63 0 2 0;
#X connect 64 0 2 0;
#X connect 65 0 3 0;
#X connect 66 0 67 0;
#X connect 67 0 63 1;
#X connect 68 0 3 0;
#X connect 69 0 70 0;
#X connect 70 0 68 1;
#X connect 71 0 72 0;
#X connect 73 0 14 0;
#X connect 74 0 39 0;
#X connect 75 0 40 0;
#X connect 76 0 29 0;
