#N canvas 422 415 719 535 12;
#X obj 224 77 noise~;
#X obj 223 157 *~ 1;
#N canvas 2369 664 293 381 noiseenv 0;
#X obj 51 141 *~;
#X obj 69 115 dbtorms;
#X obj 151 12 loadbang;
#X obj 51 214 /;
#X obj 33 285 *~;
#X obj 51 262 line;
#X obj 32 13 inlet~;
#X obj 33 316 outlet~;
#X obj 52 56 inlet~;
#X obj 69 89 r \$0-db;
#X obj 151 85 s \$0-db;
#X obj 69 190 r \$0-db;
#X obj 51 164 env~ 11025;
#X obj 151 36 75;
#X floatatom 198 53 5 0 0 0 - - -;
#X msg 51 238 \$1 30;
#X connect 0 0 12 0;
#X connect 1 0 0 1;
#X connect 2 0 13 0;
#X connect 3 0 15 0;
#X connect 4 0 7 0;
#X connect 5 0 4 1;
#X connect 6 0 4 0;
#X connect 8 0 0 0;
#X connect 9 0 1 0;
#X connect 11 0 3 1;
#X connect 12 0 3 0;
#X connect 13 0 10 0;
#X connect 14 0 10 0;
#X connect 15 0 5 0;
#X restore 223 104 pd noiseenv;
#X obj 205 329 bitcrusher~;
#X obj 401 242 bitcrusher~;
#X obj 279 304 r \$1-bitcrusher-rate;
#X obj 260 280 r \$1-bitcrusher-crush;
#X obj 248 131 r \$1-bitcrusher-noise;
#X obj 255 355 r \$1-bitcrusher-wet;
#X obj 242 256 r \$1-bitcrusher-drive;
#X obj 475 214 r \$1-bitcrusher-rate;
#X obj 456 190 r \$1-bitcrusher-crush;
#X obj 438 166 r \$1-bitcrusher-drive;
#X obj 206 5 catch~ \$0-1L;
#X obj 400 6 catch~ \$0-1R;
#X obj 161 459 r fx-\$0-1L;
#X obj 461 457 r fx-\$0-1R;
#X obj 152 484 throw~ \$0-fxoutputL;
#X obj 454 482 throw~ \$0-fxoutputR;
#X obj 153 404 crossfadeequal~;
#X obj 255 380 * 0.5;
#X obj 556 363 r \$1-bitcrusher-wet;
#X obj 454 412 crossfadeequal~;
#X obj 556 388 * 0.5;
#X connect 0 0 2 0;
#X connect 1 0 3 1;
#X connect 1 0 4 1;
#X connect 2 0 1 0;
#X connect 3 0 19 1;
#X connect 4 0 22 1;
#X connect 5 0 3 4;
#X connect 6 0 3 3;
#X connect 7 0 1 1;
#X connect 8 0 20 0;
#X connect 9 0 3 2;
#X connect 10 0 4 4;
#X connect 11 0 4 3;
#X connect 12 0 4 2;
#X connect 13 0 3 0;
#X connect 13 0 2 1;
#X connect 13 0 19 0;
#X connect 14 0 4 0;
#X connect 14 0 2 1;
#X connect 14 0 22 0;
#X connect 15 0 17 0;
#X connect 16 0 18 0;
#X connect 19 0 17 0;
#X connect 20 0 19 2;
#X connect 21 0 23 0;
#X connect 22 0 18 0;
#X connect 23 0 22 2;
