#N canvas 1624 302 902 688 10;
#X obj 158 522 inlet~;
#X obj 16 553 inlet~;
#X obj 449 579 outlet~;
#X obj 638 549 outlet~;
#X obj 363 348 vd~ \$0-left;
#X obj 362 316 *~;
#X obj 361 220 *~ 0.5;
#X obj 379 253 r \$0-depth;
#X obj 419 30 s \$0-depth;
#X obj 505 5 inlet speed;
#X obj 505 27 s \$0-speed;
#X obj 362 187 +~ 1;
#X obj 361 158 osc~;
#X obj 487 318 *~;
#X obj 486 228 *~ 0.5;
#X obj 505 256 r \$0-depth;
#X obj 487 195 +~ 1;
#X obj 486 158 osc~;
#X obj 642 317 *~;
#X obj 641 227 *~ 0.5;
#X obj 659 255 r \$0-depth;
#X obj 642 194 +~ 1;
#X obj 641 158 osc~;
#X obj 759 320 *~;
#X obj 758 230 *~ 0.5;
#X obj 776 255 r \$0-depth;
#X obj 759 197 +~ 1;
#X obj 758 158 osc~;
#X obj 488 347 vd~ \$0-left;
#X obj 760 370 *~ 0.5;
#X obj 643 370 *~ 0.5;
#X obj 487 370 *~ 0.5;
#X obj 363 375 *~ 0.5;
#X obj 643 342 vd~ \$0-right;
#X obj 760 342 vd~ \$0-right;
#X obj 419 5 inlet depth;
#X obj 590 5 inlet spread;
#X obj 590 46 s \$0-spread;
#X obj 364 441 pan;
#X obj 382 398 r \$0-spread;
#X obj 486 433 pan;
#X obj 642 435 pan;
#X obj 660 390 r \$0-spread;
#X obj 759 435 pan;
#X obj 590 25 * 0.5;
#X obj 382 420 expr 0.5-$f1;
#X obj 504 391 r \$0-spread;
#X obj 504 413 expr 0.5-$f1;
#X obj 660 413 expr 0.5+$f1;
#X obj 777 390 r \$0-spread;
#X obj 777 413 expr 0.5+$f1;
#X obj 449 558 *~ 0.5;
#X obj 637 528 *~ 0.5;
#X obj 788 3 inlet;
#X obj 788 45 switch~;
#X obj 361 89 r \$0-speed;
#X obj 486 89 r \$0-speed;
#X obj 641 89 r \$0-speed;
#X obj 758 89 r \$0-speed;
#X text 6 605 inspired by flanger4896 from https://github.com/AndrewLngdn/basic-pure-data-audio-effects
;
#X obj 500 558 r \$0-wet;
#X obj 687 528 r \$0-wet;
#X obj 688 5 inlet wet;
#X obj 688 46 s \$0-wet;
#X obj 379 293 line~;
#X obj 776 297 line~;
#X obj 659 296 line~;
#X obj 505 297 line~;
#X obj 17 577 delwrite~ \$0-left 2000;
#X obj 159 548 delwrite~ \$0-right 2000;
#X msg 386 133 0;
#X msg 783 133 0;
#X obj 386 112 loadbang;
#X msg 379 273 \$1 50;
#X msg 505 276 \$1 50;
#X msg 659 275 \$1 50;
#X msg 776 276 \$1 50;
#X msg 511 133 0.33;
#X msg 666 133 0.66;
#X obj 666 112 loadbang;
#X obj 783 112 loadbang;
#X obj 511 112 loadbang;
#X connect 0 0 69 0;
#X connect 0 0 3 0;
#X connect 1 0 68 0;
#X connect 1 0 2 0;
#X connect 4 0 32 0;
#X connect 5 0 4 0;
#X connect 6 0 5 0;
#X connect 7 0 73 0;
#X connect 9 0 10 0;
#X connect 11 0 6 0;
#X connect 12 0 11 0;
#X connect 13 0 28 0;
#X connect 14 0 13 0;
#X connect 15 0 74 0;
#X connect 16 0 14 0;
#X connect 17 0 16 0;
#X connect 18 0 33 0;
#X connect 19 0 18 0;
#X connect 20 0 75 0;
#X connect 21 0 19 0;
#X connect 22 0 21 0;
#X connect 23 0 34 0;
#X connect 24 0 23 0;
#X connect 25 0 76 0;
#X connect 26 0 24 0;
#X connect 27 0 26 0;
#X connect 28 0 31 0;
#X connect 29 0 43 0;
#X connect 30 0 41 0;
#X connect 31 0 40 0;
#X connect 32 0 38 0;
#X connect 33 0 30 0;
#X connect 34 0 29 0;
#X connect 35 0 8 0;
#X connect 36 0 44 0;
#X connect 38 0 51 0;
#X connect 38 1 52 0;
#X connect 39 0 45 0;
#X connect 40 0 51 0;
#X connect 40 1 52 0;
#X connect 41 0 51 0;
#X connect 41 1 52 0;
#X connect 42 0 48 0;
#X connect 43 0 51 0;
#X connect 43 1 52 0;
#X connect 44 0 37 0;
#X connect 45 0 38 1;
#X connect 46 0 47 0;
#X connect 47 0 40 1;
#X connect 48 0 41 1;
#X connect 49 0 50 0;
#X connect 50 0 43 1;
#X connect 51 0 2 0;
#X connect 52 0 3 0;
#X connect 53 0 54 0;
#X connect 55 0 12 0;
#X connect 56 0 17 0;
#X connect 57 0 22 0;
#X connect 58 0 27 0;
#X connect 60 0 51 1;
#X connect 61 0 52 1;
#X connect 62 0 63 0;
#X connect 64 0 5 1;
#X connect 65 0 23 1;
#X connect 66 0 18 1;
#X connect 67 0 13 1;
#X connect 70 0 12 1;
#X connect 71 0 27 1;
#X connect 72 0 70 0;
#X connect 73 0 64 0;
#X connect 74 0 67 0;
#X connect 75 0 66 0;
#X connect 76 0 65 0;
#X connect 77 0 17 1;
#X connect 78 0 22 1;
#X connect 79 0 78 0;
#X connect 80 0 71 0;
#X connect 81 0 77 0;
