#N canvas 391 516 345 773 12;
#X obj 29 36 inlet~;
#X obj 28 80 *~;
#X obj 27 149 +~;
#X obj 45 127 / 2;
#X obj 26 721 outlet~;
#X obj 27 684 *~;
#X obj 45 614 - 0.05;
#X msg 45 636 \$1 50;
#X obj 45 658 line~;
#X obj 45 395 *;
#X obj 55 460 / 2;
#X obj 45 511 +;
#X obj 46 58 r transferarc-normalrange;
#X obj 45 104 r transferarc-tablength;
#X obj 57 340 r transferarc-normalrange;
#X obj 55 437 r transferarc-tablength;
#X obj 45 565 tabread4 transferarc-table;
#X obj 45 590 expr if($f1 == 0 \, 0 \, 1/$f1);
#X obj 45 257 inlet drive;
#X obj 45 308 f;
#X obj 57 366 t b f;
#X obj 55 485 t b f;
#X obj 51 284 r \$0-redrive;
#X obj 84 395 s \$0-redrive;
#X obj 77 511 s \$0-redrive;
#X obj 26 207 tabread4~ transferarc-table;
#X connect 0 0 1 0;
#X connect 1 0 2 0;
#X connect 2 0 25 0;
#X connect 3 0 2 1;
#X connect 5 0 4 0;
#X connect 6 0 7 0;
#X connect 7 0 8 0;
#X connect 8 0 5 1;
#X connect 9 0 11 0;
#X connect 10 0 21 0;
#X connect 11 0 16 0;
#X connect 12 0 1 1;
#X connect 13 0 3 0;
#X connect 14 0 20 0;
#X connect 15 0 10 0;
#X connect 16 0 17 0;
#X connect 17 0 6 0;
#X connect 18 0 19 0;
#X connect 19 0 9 0;
#X connect 20 0 23 0;
#X connect 20 1 9 1;
#X connect 21 0 24 0;
#X connect 21 1 11 1;
#X connect 22 0 19 0;
#X connect 25 0 5 0;
