#N canvas 1756 393 709 442 10;
#X obj 34 330 inlet~;
#X obj 33 418 outlet~;
#X obj 226 32 inlet rate;
#X obj 363 13 inlet smooth;
#X obj 34 394 *~;
#X obj 215 123 metro;
#X obj 268 243 delay;
#X obj 215 185 t b b, f 8;
#X obj 162 351 line~;
#X obj 215 5 loadbang;
#X obj 363 118 *;
#X obj 300 211 expr $f1 - $f2;
#X obj 363 95 f;
#X obj 371 72 t b f;
#X obj 370 141 s \$0-linems;
#X obj 286 266 r \$0-linems;
#X obj 268 286 f;
#X obj 180 258 r \$0-linems;
#X obj 162 277 f;
#X obj 363 163 t b f;
#X obj 258 106 * 2;
#X obj 403 101 / 2;
#X msg 268 325 1 \$1;
#X obj 371 50 r \$0-rate;
#X obj 300 188 r \$0-rate;
#X obj 232 54 s \$0-rate;
#X obj 226 82 t b f;
#X obj 108 330 inlet~;
#X obj 108 394 *~;
#X obj 107 418 outlet~;
#X obj 490 11 inlet depth;
#X obj 162 307 pack f f;
#X obj 491 290 expr 1-$f1;
#X msg 162 328 \$2 \$1;
#X obj 587 12 inlet enable;
#X obj 587 36 switch~;
#X connect 0 0 4 0;
#X connect 2 0 25 0;
#X connect 2 0 26 0;
#X connect 3 0 12 0;
#X connect 4 0 1 0;
#X connect 5 0 7 0;
#X connect 6 0 16 0;
#X connect 7 0 18 0;
#X connect 7 1 6 0;
#X connect 8 0 4 1;
#X connect 8 0 28 1;
#X connect 9 0 5 0;
#X connect 10 0 14 0;
#X connect 10 0 19 0;
#X connect 11 0 6 1;
#X connect 12 0 10 0;
#X connect 13 0 12 0;
#X connect 13 1 21 0;
#X connect 15 0 16 1;
#X connect 16 0 22 0;
#X connect 17 0 18 1;
#X connect 18 0 31 0;
#X connect 19 0 11 0;
#X connect 19 1 11 1;
#X connect 20 0 5 1;
#X connect 21 0 10 1;
#X connect 22 0 8 0;
#X connect 23 0 13 0;
#X connect 24 0 11 0;
#X connect 26 0 5 0;
#X connect 26 1 20 0;
#X connect 27 0 28 0;
#X connect 28 0 29 0;
#X connect 30 0 32 0;
#X connect 31 0 33 0;
#X connect 32 0 31 1;
#X connect 33 0 8 0;
#X connect 34 0 35 0;
