#N canvas 580 338 713 486 10;
#X obj 34 365 inlet~;
#X obj 33 453 outlet~;
#X obj 247 32 inlet rate;
#X obj 372 13 inlet smooth;
#X obj 34 429 *~;
#X obj 215 185 metro;
#X obj 268 278 delay;
#X obj 215 220 t b b, f 8;
#X obj 162 386 line~;
#X obj 372 122 *;
#X obj 300 246 expr $f1 - $f2;
#X obj 372 99 f;
#X obj 380 76 t b f;
#X obj 379 145 s \$0-linems;
#X obj 286 301 r \$0-linems;
#X obj 268 321 f;
#X obj 180 293 r \$0-linems;
#X obj 162 312 f;
#X obj 372 214 t b f;
#X msg 268 360 1 \$1;
#X obj 380 54 r \$0-rate;
#X obj 300 194 r \$0-rate;
#X obj 254 132 s \$0-rate;
#X obj 108 365 inlet~;
#X obj 108 429 *~;
#X obj 107 453 outlet~;
#X obj 490 11 inlet depth;
#X obj 162 342 pack f f;
#X obj 490 325 expr 1-$f1;
#X msg 162 363 \$2 \$1;
#X obj 587 12 inlet enable;
#X obj 587 53 switch~;
#N canvas 1728 715 205 309 hz-to-ms 0;
#X obj 54 11 inlet hz;
#X obj 54 257 outlet ms;
#X obj 54 65 > 0;
#X obj 54 88 moses 1;
#X obj 54 39 t f f;
#X obj 115 132 f;
#X obj 100 110 bng 15 250 50 0 empty empty empty 17 7 0 10 -262144
-1 -1;
#X obj 115 205 /;
#X obj 115 233 * 1000;
#X msg 54 113 0;
#X obj 115 157 t b f;
#X obj 115 183 1;
#X connect 0 0 4 0;
#X connect 2 0 3 0;
#X connect 3 0 9 0;
#X connect 3 1 6 0;
#X connect 4 0 2 0;
#X connect 4 1 5 1;
#X connect 5 0 10 0;
#X connect 6 0 5 0;
#X connect 7 0 8 0;
#X connect 8 0 1 0;
#X connect 9 0 1 0;
#X connect 10 0 11 0;
#X connect 10 1 7 1;
#X connect 11 0 7 0;
#X restore 247 107 pd hz-to-ms;
#X obj 412 105 / 4;
#X obj 300 217 / 2;
#X obj 600 33 s \$0-startstop;
#X obj 215 11 r \$0-startstop;
#X obj 247 63 t b f;
#X connect 0 0 4 0;
#X connect 2 0 37 0;
#X connect 3 0 11 0;
#X connect 4 0 1 0;
#X connect 5 0 7 0;
#X connect 6 0 15 0;
#X connect 7 0 17 0;
#X connect 7 1 6 0;
#X connect 8 0 4 1;
#X connect 8 0 24 1;
#X connect 9 0 13 0;
#X connect 9 0 18 0;
#X connect 10 0 6 1;
#X connect 11 0 9 0;
#X connect 12 0 11 0;
#X connect 12 1 33 0;
#X connect 14 0 15 1;
#X connect 15 0 19 0;
#X connect 16 0 17 1;
#X connect 17 0 27 0;
#X connect 18 0 10 0;
#X connect 18 1 10 1;
#X connect 19 0 8 0;
#X connect 20 0 12 0;
#X connect 21 0 34 0;
#X connect 23 0 24 0;
#X connect 24 0 25 0;
#X connect 26 0 28 0;
#X connect 27 0 29 0;
#X connect 28 0 27 1;
#X connect 29 0 8 0;
#X connect 30 0 31 0;
#X connect 30 0 35 0;
#X connect 32 0 22 0;
#X connect 32 0 5 1;
#X connect 33 0 9 1;
#X connect 34 0 10 0;
#X connect 36 0 5 0;
#X connect 37 0 5 0;
#X connect 37 1 32 0;
