#N canvas 1606 118 327 653 12;
#X obj 29 36 inlet~;
#X obj 28 80 *~;
#X obj 27 149 +~;
#X obj 45 127 / 2;
#X obj 26 589 outlet~;
#X obj 27 499 *~;
#X obj 45 429 - 0.05;
#X msg 45 451 \$1 50;
#X obj 45 473 line~;
#X obj 45 310 *;
#X obj 81 335 / 2;
#X obj 45 355 +;
#X obj 46 58 r transferarc-normalrange;
#X obj 45 104 r transferarc-tablength;
#X obj 26 207 tabread~ transferarc-table;
#X obj 63 287 r transferarc-normalrange;
#X obj 81 312 r transferarc-tablength;
#X obj 45 380 tabread4 transferarc-table;
#X obj 45 405 expr if($f1 == 0 \, 0 \, 1/$f1);
#X obj 45 257 inlet drive;
#X connect 0 0 1 0;
#X connect 1 0 2 0;
#X connect 2 0 14 0;
#X connect 3 0 2 1;
#X connect 5 0 4 0;
#X connect 6 0 7 0;
#X connect 7 0 8 0;
#X connect 8 0 5 1;
#X connect 9 0 11 0;
#X connect 10 0 11 1;
#X connect 11 0 17 0;
#X connect 12 0 1 1;
#X connect 13 0 3 0;
#X connect 14 0 5 0;
#X connect 15 0 9 1;
#X connect 16 0 10 0;
#X connect 17 0 18 0;
#X connect 18 0 6 0;
#X connect 19 0 9 0;
